<svg id="Grupo_1119617" data-name="Grupo 1119617" xmlns="http://www.w3.org/2000/svg" xmlns:xlink="http://www.w3.org/1999/xlink" width="107" height="107" viewBox="0 0 107 107">
  <defs>
    <clipPath id="clip-path">
      <rect id="Rectángulo_458187" data-name="Rectángulo 458187" width="61.333" height="54.9" fill="#fff"/>
    </clipPath>
  </defs>
  <g id="Grupo_156312" data-name="Grupo 156312">
    <path id="Elipse_5845" data-name="Elipse 5845" d="M53.5,0A53.5,53.5,0,1,1,0,53.5,53.5,53.5,0,0,1,53.5,0Z" fill="#5d0b80"/>
  </g>
  <g id="Grupo_1098917" data-name="Grupo 1098917" transform="translate(22 22)">
    <path id="Trazado_873216" data-name="Trazado 873216" d="M0,0H63.184V63.186H0Z" fill="none"/>
    <g id="Grupo_1207348" data-name="Grupo 1207348" transform="translate(0.667 4.143)">
      <g id="Grupo_1207347" data-name="Grupo 1207347" clip-path="url(#clip-path)">
        <path id="Trazado_1265684" data-name="Trazado 1265684" d="M13.247,29.281a1.4,1.4,0,0,1-.527-.25,15.736,15.736,0,0,1-4.4-6.177C6.3,22.641,4.1,21.74,3.719,19.51c-.492-2.853.791-4.613,3.765-4.376L6.595,8.411C6.7,2.385,12.163-.615,17.709.106A.95.95,0,0,1,17.837,2c-2.08.458-3.469-.391-5.9.734-5.17,2.391-3.014,7.994-2.706,12.4H10.8c-.247-2.677.573-5.162,3.573-5.421a87.3,87.3,0,0,1,11.191,0c3,.226,3.789,2.578,3.649,5.258l1.394.174c.845-4.624,2.5-10.4-3.047-12.668-1.311-.87-5.394.029-6.2-.78-.657-.656-.1-1.438.718-1.572a13.779,13.779,0,0,1,7.066,1.122c5.518,2.851,4.257,8.82,3.316,13.887,2.975-.2,4.109,1.239,3.849,4.113a3.655,3.655,0,0,1-2.237,3c-.6.27-2.1.434-2.4.747a12.152,12.152,0,0,0-.581,1.34,18.549,18.549,0,0,1-4.308,5.123l-.092,3.316c1.807-.4,2.6,1.467,3.894,2.131,1.046.538,2.822.763,4.011,1.228.717.281,1.335.74,2.05,1.006V31.988c0-.531,1.747-.691,1.747.175V43.777h2.27V23.343H38.4V28.5c0,.452-1.438.975-1.718.146a50.813,50.813,0,0,1-.033-5.739,1.435,1.435,0,0,1,.267-.781c.665-.877,5.5-.889,5.5.61v2.532c.77.018,1.607.3,2.36.347,5,.346,9.145-2.252,14.553-.931,1.108.271,1.668.282,1.782,1.536a98.675,98.675,0,0,1,0,13.29c-.042.468-.057,1.023-.621,1.129-.858.16-2.665-.449-3.669-.523-3.529-.26-5.486.954-8.559,1.217a36.949,36.949,0,0,1-5.848-.172v2.707c0,.093,1.031.694,1.225.92.941,1.1.832,5.435.7,6.945A3,3,0,0,1,41.9,54.7c-2.248.394-5.3.294-7.073-1.153L1.1,53.4a1.53,1.53,0,0,1-.938-1.158,54.953,54.953,0,0,1-.017-8.031c.208-3.038,1.587-6.214,4.4-7.655,1.565-.8,3.7-.978,5.09-1.722,1.115-.6,1.929-2.728,3.621-1.881ZM30.538,17.055c-1.188.116-2.839-.382-3.1-1.7-.277-1.372.453-3.2-1.432-3.807l-11.6-.066c-2.174.408-1.468,2.027-1.717,3.522-.271,1.623-1.785,2.171-3.278,2.05C8.567,22.6,12.911,28.582,18.2,30.006c4.478,1.205,9.394-2.731,11.324-6.543a11.571,11.571,0,0,0,1.016-6.408m-22.88,0c-3.352-.73-2.808,3.462-.088,3.844.532.075.088-.216.088-.264ZM32.285,20.9a2.4,2.4,0,0,0,1.922-3.756l-1.749-.086Zm27.07,5.59a21.107,21.107,0,0,0-7.206-.133c-.633.117-1.363.479-2.015.605a18.447,18.447,0,0,1-7.72.052V39.149a4.97,4.97,0,0,0,2.01.435c4.565.319,8.2-1.562,12.92-1.218.65.047,1.352.305,2.011.346ZM24.948,30.678a11.531,11.531,0,0,1-5.16,1.406,13.6,13.6,0,0,1-4.795-1.406V34l4.975,2.787L24.948,34Zm-6.638,7.164-5.579-3.253-1.394,1.084L14.924,40.8a24.926,24.926,0,0,0,3.217-2.52c.133-.152.226-.195.169-.438m6.984,2.965,3.3-4.839c.125-.469-.813-1.1-1.14-1.431L21.633,38.1Zm-23.4,3.232c-.232,2.407.172,5.153,0,7.6H7.483V47.358c0-.57,1.747-.57,1.747,0v4.279h5.676l.277-.422c.119-1.565,2.291-5.7,2.049-6.957a11.206,11.206,0,0,0-1.1-2.049c-.624.464-1.259,1.32-2.023.621l-4.213-6c-.316-.184-3.486.83-4.027,1.053-2.423,1-3.729,3.644-3.972,6.158m32.834,7.6V45.96c0-.86,1.281-1.683,1.894-2.123l-.063-4.074c-.407-.352-.8-.92-1.22-1.226a17.371,17.371,0,0,0-4.588-1.716.741.741,0,0,0-.564.05c-.936.84-3.839,5.956-4.668,6.182-.847.231-1.49-1.074-1.792-.847l-1.015,2.048,2.235,7.382h5.763v-4.1c0-.866,1.747-.706,1.747-.175v4.279ZM22.3,40.836l-2.335-1.729-2.327,2.105.873,1.664a19.067,19.067,0,0,0,2.68.029c.446-.083,1.27-1.8,1.11-2.069m.723,10.8c-.274-.929-1.827-6.637-2.267-6.9a3.373,3.373,0,0,0-1.464-.06l-2.381,6.962Zm14.1-5.9a1.093,1.093,0,0,0-.644.753,44.736,44.736,0,0,0,.087,5.842,1.331,1.331,0,0,0,.437.437,26.428,26.428,0,0,0,5.063.006c.4-.2.491-.989.528-1.393.083-.9.128-4.9-.345-5.431a.76.76,0,0,0-.614-.26,31.326,31.326,0,0,0-4.512.045" transform="translate(0 0)" fill="#fff"/>
        <path id="Trazado_1265685" data-name="Trazado 1265685" d="M99.365,133.368c1.014-.353,1.679,1.157,3.159.539.375-.156,1.573-1.284,1.93-.094.513,1.705-2.469,2.181-3.682,1.933-.95-.194-2.691-1.453-1.408-2.378" transform="translate(-81.635 -109.998)" fill="#fff"/>
        <path id="Trazado_1265686" data-name="Trazado 1265686" d="M88.366,95.851c1.163-.1,1.45,2.524.147,2.6-1.4.08-1.282-2.5-.147-2.6" transform="translate(-72.21 -79.108)" fill="#fff"/>
        <path id="Trazado_1265687" data-name="Trazado 1265687" d="M132.442,95.853c1.164-.1,1.448,2.524.147,2.6-1.448.083-1.187-2.506-.147-2.6" transform="translate(-108.601 -79.11)" fill="#fff"/>
      </g>
    </g>
  </g>
</svg>
