<svg xmlns="http://www.w3.org/2000/svg" xmlns:xlink="http://www.w3.org/1999/xlink" width="169" height="111" viewBox="0 0 169 111">
  <defs>
    <clipPath id="clip-path">
      <rect id="Rectángulo_458231" data-name="Rectángulo 458231" width="100" height="100.077" fill="none"/>
    </clipPath>
  </defs>
  <g id="Grupo_1207215" data-name="Grupo 1207215" transform="translate(-1121.422 -1019)">
    <rect id="Rectángulo_455283" data-name="Rectángulo 455283" width="169" height="111" rx="19" transform="translate(1121.422 1019)" fill="#e3a4fe"/>
    <g id="Grupo_1207378" data-name="Grupo 1207378" transform="translate(1156.422 1025.5)">
      <g id="Grupo_1207377" data-name="Grupo 1207377" clip-path="url(#clip-path)">
        <path id="Trazado_1265925" data-name="Trazado 1265925" d="M43.564,124.981a164.059,164.059,0,0,1-16.484.3c-6.178-.341-11.873-3.382-12.457-10.172-.235-2.727-.319-12.138.615-14.3.515-1.193,1.635-1.967,1.972-3.036a17.135,17.135,0,0,1-10.6-14.609,6.488,6.488,0,0,1-6.152-8.88c.248-.63,1.161-1.53,1.226-1.915.037-.217-1.158-3.293-1.3-4.032C-1.667,57.709,5.08,47.049,15.764,44.9c4.659-.935,17.629-.853,22.133.525C48.81,48.77,54.8,61.774,49.911,72.186a7.267,7.267,0,0,1,.815,8.108c3.512,0,6.248,2.328,9.025,4,14.342-9.553,34.393-2.485,39.173,14.114,6.431,22.333-17.224,41.244-37.507,29.772-3.287-1.859-4.744-3.617-7.261-6.2-.274-.282-.373-.539-.854-.435v7.3a8.687,8.687,0,0,1-.956,1.766c-1.369,1.439-6.575,1.408-7.931-.04a10.529,10.529,0,0,1-.852-1.44ZM21.078,54.229c1.383-.229,3.275.167,4.726,0v3.152c-3.045-.218-6.761-.2-6.311,3.87a3.331,3.331,0,0,0,3.016,2.716H41.559c-.167-4.048-4.314-6.44-8.022-6.59l.732-3.158c8.79.717,11.835,8.069,11.046,16.019l1.951.3C51.324,59.4,43.94,48.5,32.246,47.643a107.283,107.283,0,0,0-12.613-.015C7.7,48.4.432,59.207,4.331,70.547l1.962-.309c-.2-5.9,3.774-11.339,10.014-11.185.543-2,2.682-4.478,4.77-4.824m20.767,12.89H21.651c-1.668,0-3.8-2.005-4.677-3.343-.47-.72-.119-1.537-1.323-1.541-2.568-.009-5.4,2.608-5.819,5.1-.489,2.926-.365,15.091.3,17.894,2.347,9.863,13.2,12.6,21.98,10.117.4-1.47.532-2.976,1.007-4.436a15.831,15.831,0,0,1,8.725-9.464ZM6.326,80.009V73.421c-4.072.87-4.183,5.9,0,6.588m38.957-6.588v6.588c4.2-.678,4.1-5.81,0-6.588m1.945,9.825c-16.858,1.577-14.688,27.188,2.49,25.69,16.514-1.44,14.535-27.282-2.49-25.69m25.267.2c-1.679-.694-10.319,2.354-10.558,3.619L64.19,92.9c1.469-.623,2.7-1.664,4.216-2.226a17.72,17.72,0,0,1,4.089-.924Zm3.437,0v6.3L78.8,90.2l2.574-5.89c-1.811-.333-3.568-1.043-5.442-.863m6.052,8.266,2.359,1.453,4.474-4.42-4.42-3Zm12.28,4.047c.242-.33-2.489-4.464-3.047-4.557l-4.411,4.419,1.86,2.437Zm-21.832-2.78a12.812,12.812,0,0,0-6.215,2.665c-2.4,1.966-1.746,3.236-2.675,5.919-.7,2.011-2.316,3.5-2.22,5.505.521,10.847,15.145,15.586,22.49,7.318,8.008-9.015.522-22.842-11.381-21.407M38.408,108.94c-3-2.889-5.205-6.01-6-10.194l-3.162.456c-.147.144,1.432,3.085,1.432,3.865v5.872Zm37.525,19.192c14.556-.722,24.228-15.812,19.762-29.5l-5.738,2.44c-.478.511.24,2.044.293,2.864.6,9.3-5.078,16.606-14.318,17.9ZM22.556,99.309a4.973,4.973,0,0,0-4.747,4.071,70.973,70.973,0,0,0,.005,11.4c1.264,10.877,16.93,5.947,24.189,7.064a1.628,1.628,0,0,0,1.575-1.575c.133-1.033.1-6.543-.226-7.252a.964.964,0,0,0-.553-.593l-12.789.007-2.918,3.951c-.527-.741-2.621-1.242-2.325-2.292.314-1.113,2.422-3,2.693-4.208a30.112,30.112,0,0,0,.029-5.923c-.321-2.648-2.149-4.708-4.935-4.65m35.9,9.632-3.144,1.86c1.53,1.588,1.2,4.217,1.153,6.314-.028,1.357-.912,2.239.7,3.273l4.42-4.47c-1.409-2.13-2.842-4.353-3.133-6.978m-11.742,9.738h5.3c1.661,0,1.759-5.21.594-6.037-.53-.376-3.876-.413-4.549-.21a4.43,4.43,0,0,0-1.344,1.807ZM72.5,121.83a17.647,17.647,0,0,1-8.45-3.448l-4.419,4.411A19.984,19.984,0,0,0,72.5,128.132Zm-22.629,0-3.026.268v6.052l3.026.268Z" transform="translate(0 -31.599)" fill="#5d0b80"/>
        <path id="Trazado_1265926" data-name="Trazado 1265926" d="M203.973,0V9.739h-12.46l-.43-.43V0Zm-3.151,3.151h-6.3V6.3h6.3Z" transform="translate(-136.348)" fill="#5d0b80"/>
        <path id="Trazado_1265927" data-name="Trazado 1265927" d="M203.973,45v9.739h-12.46l-.43-.43V45Zm-3.151,3.151h-6.3v3.437h6.3Z" transform="translate(-136.348 -32.11)" fill="#5d0b80"/>
        <path id="Trazado_1265928" data-name="Trazado 1265928" d="M203.973,90v9.739h-12.46l-.43-.43V90Zm-3.151,3.151h-6.3v3.437h6.3Z" transform="translate(-136.348 -64.22)" fill="#5d0b80"/>
        <rect id="Rectángulo_458222" data-name="Rectángulo 458222" width="28.931" height="3.437" transform="translate(71.063 6.302)" fill="#5d0b80"/>
        <rect id="Rectángulo_458223" data-name="Rectángulo 458223" width="28.931" height="3.151" transform="translate(71.063)" fill="#5d0b80"/>
        <rect id="Rectángulo_458224" data-name="Rectángulo 458224" width="28.931" height="3.151" transform="translate(71.063 12.89)" fill="#5d0b80"/>
        <rect id="Rectángulo_458225" data-name="Rectángulo 458225" width="28.931" height="3.151" transform="translate(71.063 19.478)" fill="#5d0b80"/>
        <rect id="Rectángulo_458226" data-name="Rectángulo 458226" width="28.931" height="3.151" transform="translate(71.063 32.369)" fill="#5d0b80"/>
        <rect id="Rectángulo_458227" data-name="Rectángulo 458227" width="28.931" height="3.151" transform="translate(71.063 25.78)" fill="#5d0b80"/>
        <path id="Trazado_1265929" data-name="Trazado 1265929" d="M65.6,111.832v14.322a15.831,15.831,0,0,0-8.725,9.464c-.475,1.459-.6,2.966-1.007,4.436-8.784,2.488-19.633-.254-21.98-10.117-.667-2.8-.791-14.968-.3-17.894.416-2.488,3.251-5.105,5.819-5.1,1.2,0,.852.821,1.323,1.541.873,1.338,3.009,3.343,4.677,3.343Zm-17.758,9.741c.061-8.5-11.99-8.766-12.823-.418.123.691,2.335.39,2.9.382.458-.16.673-1.893,1.462-2.549,2.218-1.845,5.085-.123,5.58,2.453Zm7.544-2.482c2.046-1.926,5.357-.4,5.613,2.355,2.667.374,3.769.494,2.659-2.373-2.551-6.593-12.646-4.673-12.382,2.5l3.141-.013a3.605,3.605,0,0,1,.969-2.469m2.194,8.782H41.533c-1.089,12.855,17.212,12.869,16.041,0" transform="translate(-23.75 -76.313)" fill="#fff"/>
        <path id="Trazado_1265930" data-name="Trazado 1265930" d="M29.229,62.115c-2.088.347-4.227,2.825-4.77,4.824-6.24-.154-10.218,5.283-10.014,11.185l-1.962.309c-3.9-11.341,3.371-22.146,15.3-22.919a107.286,107.286,0,0,1,12.613.015c11.694.853,19.078,11.759,15.019,22.893l-1.951-.3c.789-7.95-2.255-15.3-11.046-16.019l-.732,3.158c3.708.15,7.856,2.543,8.022,6.59H30.661a3.331,3.331,0,0,1-3.016-2.716c-.45-4.068,3.266-4.088,6.311-3.87V62.115c-1.451.167-3.343-.229-4.726,0" transform="translate(-8.151 -39.485)" fill="#ffe9a1"/>
        <path id="Trazado_1265931" data-name="Trazado 1265931" d="M225.178,214.022c11.9-1.435,19.389,12.391,11.381,21.407-7.345,8.268-21.97,3.529-22.49-7.318-.1-2.007,1.523-3.494,2.22-5.505.929-2.683.279-3.953,2.675-5.919a12.812,12.812,0,0,1,6.215-2.665" transform="translate(-152.746 -152.642)" fill="#fbce73"/>
        <path id="Trazado_1265932" data-name="Trazado 1265932" d="M66.352,236.374c2.786-.058,4.614,2,4.935,4.65a30.115,30.115,0,0,1-.029,5.923c-.271,1.211-2.379,3.095-2.693,4.208-.3,1.05,1.8,1.551,2.325,2.292l2.918-3.952L86.6,249.49a.965.965,0,0,1,.553.593c.331.709.358,6.219.226,7.252A1.628,1.628,0,0,1,85.8,258.91c-7.259-1.116-22.926,3.813-24.189-7.064a70.907,70.907,0,0,1-.005-11.4,4.973,4.973,0,0,1,4.747-4.071" transform="translate(-43.796 -168.664)" fill="#ffe9a1"/>
        <path id="Trazado_1265933" data-name="Trazado 1265933" d="M136.032,180.123c17.025-1.593,19,24.25,2.49,25.69-17.178,1.5-19.348-24.113-2.49-25.69m.87,3.133c-12.638.373-12.279,19.9.772,19.424,12.371-.453,12.04-19.8-.772-19.424" transform="translate(-88.804 -128.477)" fill="#fbce73"/>
        <path id="Trazado_1265934" data-name="Trazado 1265934" d="M265.083,263.5v-6.3c9.24-1.292,14.916-8.6,14.318-17.9-.053-.821-.772-2.353-.293-2.864l5.738-2.44c4.466,13.692-5.206,28.783-19.762,29.5" transform="translate(-189.151 -166.971)" fill="#ffe9a1"/>
        <path id="Trazado_1265935" data-name="Trazado 1265935" d="M221.026,306.41v6.3a19.984,19.984,0,0,1-12.869-5.339l4.419-4.411a17.647,17.647,0,0,0,8.45,3.448" transform="translate(-148.531 -216.179)" fill="#fff9e9"/>
        <path id="Trazado_1265936" data-name="Trazado 1265936" d="M226.784,180.747v6.3a17.72,17.72,0,0,0-4.089.924c-1.518.562-2.747,1.6-4.216,2.226l-2.253-5.834c.239-1.265,8.879-4.313,10.558-3.619" transform="translate(-154.289 -128.9)" fill="#fff9e9"/>
        <path id="Trazado_1265937" data-name="Trazado 1265937" d="M111.225,244.607h-7.734v-5.872c0-.78-1.579-3.721-1.432-3.865l3.162-.456c.8,4.184,3,7.3,6,10.194" transform="translate(-72.818 -167.266)" fill="#fff"/>
        <path id="Trazado_1265938" data-name="Trazado 1265938" d="M163.083,288.135V283.7a4.431,4.431,0,0,1,1.344-1.807c.673-.2,4.019-.166,4.549.21,1.165.827,1.067,6.037-.594,6.037Z" transform="translate(-116.368 -201.055)" fill="#fff"/>
        <path id="Trazado_1265939" data-name="Trazado 1265939" d="M196.245,270c.292,2.625,1.725,4.848,3.133,6.978l-4.42,4.469c-1.616-1.034-.732-1.915-.7-3.273.043-2.1.377-4.726-1.153-6.314Z" transform="translate(-137.788 -192.661)" fill="#fbce73"/>
        <path id="Trazado_1265940" data-name="Trazado 1265940" d="M310.5,212.631l-5.6,2.3-1.86-2.436,4.411-4.419c.559.093,3.29,4.227,3.047,4.557" transform="translate(-216.239 -148.472)" fill="#fff9e9"/>
        <path id="Trazado_1265941" data-name="Trazado 1265941" d="M286.21,194.984l2.413-5.971,4.42,3-4.474,4.42Z" transform="translate(-204.226 -134.871)" fill="#fbce73"/>
        <path id="Trazado_1265942" data-name="Trazado 1265942" d="M265.083,180.928c1.873-.18,3.631.53,5.442.863l-2.574,5.89-2.867-.451Z" transform="translate(-189.151 -129.081)" fill="#fff9e9"/>
        <path id="Trazado_1265943" data-name="Trazado 1265943" d="M166.545,315v6.588l-3.026-.268v-6.052Z" transform="translate(-116.679 -224.769)" fill="#fff"/>
        <path id="Trazado_1265944" data-name="Trazado 1265944" d="M158.083,146c4.1.778,4.2,5.911,0,6.588Z" transform="translate(-112.8 -104.179)" fill="#fff"/>
        <path id="Trazado_1265945" data-name="Trazado 1265945" d="M14.372,152.588c-4.183-.688-4.072-5.718,0-6.588Z" transform="translate(-8.046 -104.179)" fill="#fff"/>
        <rect id="Rectángulo_458228" data-name="Rectángulo 458228" width="6.302" height="3.151" transform="translate(58.173 3.151)" fill="#fbce73"/>
        <rect id="Rectángulo_458229" data-name="Rectángulo 458229" width="6.302" height="3.437" transform="translate(58.173 16.041)" fill="#fbce73"/>
        <rect id="Rectángulo_458230" data-name="Rectángulo 458230" width="6.302" height="3.437" transform="translate(58.173 28.931)" fill="#fbce73"/>
        <path id="Trazado_1265946" data-name="Trazado 1265946" d="M78.008,180c1.171,12.869-17.13,12.855-16.041,0ZM65.69,183.151c.9,4.351,6.842,4.315,8.74.568l-.29-.568Z" transform="translate(-44.183 -128.439)" fill="#5d0b80"/>
        <path id="Trazado_1265947" data-name="Trazado 1265947" d="M52.145,141.737l-2.878-.133c-.494-2.575-3.361-4.3-5.58-2.453-.789.656-1,2.389-1.462,2.549-.569.009-2.781.31-2.9-.382.833-8.348,12.884-8.084,12.823.419" transform="translate(-28.058 -96.477)" fill="#5d0b80"/>
        <path id="Trazado_1265948" data-name="Trazado 1265948" d="M100.175,139.222a3.6,3.6,0,0,0-.968,2.468l-3.141.013c-.264-7.173,9.831-9.092,12.382-2.5,1.109,2.867.007,2.747-2.659,2.373-.256-2.751-3.568-4.281-5.614-2.355" transform="translate(-68.544 -96.444)" fill="#5d0b80"/>
        <path id="Trazado_1265949" data-name="Trazado 1265949" d="M144.862,191.223c12.812-.378,13.144,18.971.772,19.425-13.052.478-13.41-19.052-.772-19.425m-1.172,3.438c-7.076,1.2-6.4,12.922,1.621,12.79,8.639-.141,8.293-14.475-1.621-12.79" transform="translate(-96.765 -136.444)" fill="#5d0b80"/>
        <path id="Trazado_1265950" data-name="Trazado 1265950" d="M75.083,191h8.45l.29.568c-1.9,3.747-7.841,3.783-8.74-.568" transform="translate(-53.576 -136.289)" fill="#fbce73"/>
        <path id="Trazado_1265951" data-name="Trazado 1265951" d="M151.656,202.9c9.913-1.684,10.259,12.649,1.621,12.79-8.02.131-8.7-11.588-1.621-12.79" transform="translate(-104.73 -144.678)" fill="#fff9e9"/>
      </g>
    </g>
  </g>
</svg>
