<svg xmlns="http://www.w3.org/2000/svg" xmlns:xlink="http://www.w3.org/1999/xlink" width="96" height="96" viewBox="0 0 96 96">
  <defs>
    <clipPath id="clip-path">
      <rect id="Rect치ngulo_457314" data-name="Rect치ngulo 457314" width="56.418" height="50.5" fill="#fff"/>
    </clipPath>
  </defs>
  <g id="Grupo_1206096" data-name="Grupo 1206096" transform="translate(-383.746 -8400.001)">
    <path id="Trazado_997400" data-name="Trazado 997400" d="M48,0A48,48,0,1,1,0,48,48,48,0,0,1,48,0Z" transform="translate(383.746 8400.001)" fill="#5d0b80"/>
    <g id="Grupo_1099776" data-name="Grupo 1099776" transform="translate(401.746 8418)">
      <g id="Grupo_1099618" data-name="Grupo 1099618" transform="translate(-0.035 0)">
        <rect id="Rect치ngulo_401104" data-name="Rect치ngulo 401104" width="59.378" height="60.093" transform="translate(0)" fill="none"/>
      </g>
      <g id="Grupo_1206528" data-name="Grupo 1206528" transform="translate(1.965 5)">
        <g id="Grupo_1206527" data-name="Grupo 1206527" clip-path="url(#clip-path)">
          <path id="Trazado_1263556" data-name="Trazado 1263556" d="M55.522,5.645a3.609,3.609,0,0,0-2.17-1.3H46.86A3.881,3.881,0,0,0,45.312.56,3.392,3.392,0,0,0,41.664.542,3.933,3.933,0,0,0,40,4.343H31.639a3.918,3.918,0,0,0-1.6-3.811,3.39,3.39,0,0,0-3.649,0,3.918,3.918,0,0,0-1.6,3.811H16.407a4.661,4.661,0,0,0-.962-3.269A3.046,3.046,0,0,0,13.176.034a3.336,3.336,0,0,0-2.7,1,4.3,4.3,0,0,0-.91,3.309h-6.5a7.45,7.45,0,0,0-1.216.469A3.632,3.632,0,0,0,0,7.727v39.4A3.573,3.573,0,0,0,3.37,50.5h.011l50.355-.12h.046l.044-.013a3.794,3.794,0,0,0,2.485-2.394l.023-.059.079-40.331a2.919,2.919,0,0,0-.891-1.939M54.1,14.93V47.268a.939.939,0,0,1-.323.442,1.617,1.617,0,0,1-.887.473h-.013L3.194,48.1a2.029,2.029,0,0,1-.872-.834V14.93ZM12.6,2.383a1.1,1.1,0,0,1,1.281.569,16.228,16.228,0,0,1,.031,5.159,1.061,1.061,0,0,1-1.129.712,1.008,1.008,0,0,1-.878-.958,31.079,31.079,0,0,1,.009-4.695,1.172,1.172,0,0,1,.685-.788m16.672,5.46a1.057,1.057,0,0,1-1.054.96,1.007,1.007,0,0,1-1.054-.834,26.912,26.912,0,0,1-.027-4.643,1.12,1.12,0,0,1,.77-.921,1.166,1.166,0,0,1,.37-.062,1.011,1.011,0,0,1,.723.3,2.143,2.143,0,0,1,.287.828,27.966,27.966,0,0,1-.014,4.376M2.3,10.33a11.059,11.059,0,0,1,.013-2.692c.26-1.206,3.321-1.064,5.346-.972A17.193,17.193,0,0,0,9.554,6.7a4.207,4.207,0,0,1,.068,1.1,4.756,4.756,0,0,0,.023.78,3.675,3.675,0,0,0,2.183,2.461,3.407,3.407,0,0,0,3.3-.645,4.543,4.543,0,0,0,1.295-3.734h8.214l.146.1a3.977,3.977,0,0,0,1.654,3.926,3.382,3.382,0,0,0,3.612-.057,3.94,3.94,0,0,0,1.6-3.8H40a3.944,3.944,0,0,0,1.642,3.833,3.392,3.392,0,0,0,3.655-.022A3.9,3.9,0,0,0,46.86,6.825h6.458a3.036,3.036,0,0,1,.778.937v4.852H2.36A17.065,17.065,0,0,0,2.3,10.33M44.5,8a.992.992,0,0,1-.759.794,1.023,1.023,0,0,1-1.06-.342c-.466-.583-.512-4.98-.059-5.668a1.315,1.315,0,0,1,.583-.4,1,1,0,0,1,1.224.586A33.407,33.407,0,0,1,44.5,8" transform="translate(0 0)" fill="#fff"/>
          <path id="Trazado_1263557" data-name="Trazado 1263557" d="M233.679,112.166c.993.084,2.7.141,4.354.141a35.306,35.306,0,0,0,3.664-.145,2.473,2.473,0,0,0,2.2-2.529,53.361,53.361,0,0,0-.007-7.682,2.429,2.429,0,0,0-2.531-2.358,48.411,48.411,0,0,0-7.81.043,2.327,2.327,0,0,0-2.211,2.156,53.522,53.522,0,0,0-.023,8.007,2.36,2.36,0,0,0,2.369,2.366m.117-2.375v-7.72H241.4v7.72l-.054.054h-7.5Z" transform="translate(-192.933 -83.005)" fill="#fff"/>
          <path id="Trazado_1263558" data-name="Trazado 1263558" d="M34.518,206.953c.981.094,2.684.148,4.353.148a39.73,39.73,0,0,0,4-.153,2.193,2.193,0,0,0,2.023-2.2,53.9,53.9,0,0,0-.123-8.619,2.182,2.182,0,0,0-1.9-1.593,59.531,59.531,0,0,0-8.837.046h0c-.967.2-1.573,1.021-1.705,2.323a53.249,53.249,0,0,0,0,7.843,2.241,2.241,0,0,0,2.191,2.2m.288-10.1h7.609v7.774H34.806Z" transform="translate(-26.86 -162.242)" fill="#fff"/>
          <path id="Trazado_1263559" data-name="Trazado 1263559" d="M243.277,195.129a2.633,2.633,0,0,0-1.381-.659,57.81,57.81,0,0,0-8.355,0c-1.68.163-2.094,1.133-2.2,2.539a55.09,55.09,0,0,0,.008,7.678,2.194,2.194,0,0,0,2.191,2.2c.974.094,2.675.148,4.345.148,1.576,0,3.125-.048,4.009-.153,1.642-.2,1.944-1.539,2.029-2.532a53.666,53.666,0,0,0-.008-7.508,3.223,3.223,0,0,0-.639-1.711m-1.838,9.434H233.83v-7.774h7.609Z" transform="translate(-192.967 -162.175)" fill="#fff"/>
          <path id="Trazado_1263560" data-name="Trazado 1263560" d="M134.279,112.31a38.924,38.924,0,0,0,3.926.151c1.636,0,3.3-.052,4.263-.145a2.215,2.215,0,0,0,2.194-2.031,57.568,57.568,0,0,0,.005-8.353,2.494,2.494,0,0,0-.663-1.551h0a3.222,3.222,0,0,0-1.711-.639c-1.3-.131-7.264-.212-8.555.187a2.144,2.144,0,0,0-1.486,1.832,57.807,57.807,0,0,0,0,8.355,2.215,2.215,0,0,0,2.031,2.194m.291-2.371v-7.72h7.774v7.72l-.054.054h-7.665Z" transform="translate(-110.248 -83.154)" fill="#fff"/>
          <path id="Trazado_1263561" data-name="Trazado 1263561" d="M134.081,207.118c.889.105,2.612.158,4.338.158s3.452-.053,4.349-.158a2.173,2.173,0,0,0,1.861-1.861,57.055,57.055,0,0,0,0-8.516,2.136,2.136,0,0,0-1.857-2.032,30.7,30.7,0,0,0-4.9-.016,36.958,36.958,0,0,1-4.021.053l-.075,0-.069.028a2.259,2.259,0,0,0-1.485,1.8,58.648,58.648,0,0,0,0,8.686,2.173,2.173,0,0,0,1.861,1.861m.456-10.092h7.774V204.8h-7.774Z" transform="translate(-110.214 -162.413)" fill="#fff"/>
          <path id="Trazado_1263562" data-name="Trazado 1263562" d="M34.634,112.492c.487.059,1.988.1,3.621.1a33.517,33.517,0,0,0,5.165-.241,2.43,2.43,0,0,0,1.405-1.318c.243-.659.418-4.044-.142-4.7a1.142,1.142,0,0,0-1.307-.342,1.254,1.254,0,0,0-.841,1.129v3.006l-.054.054h-7.5l-.054-.054V102.4h3.887a1.207,1.207,0,0,0,1.069-1.157,1.226,1.226,0,0,0-1.19-1.311c-.87-.143-4.272-.145-5.153.39a2.521,2.521,0,0,0-1.092,1.957,49.515,49.515,0,0,0,.122,8.443,2.368,2.368,0,0,0,2.066,1.768" transform="translate(-26.979 -83.335)" fill="#fff"/>
          <path id="Trazado_1263563" data-name="Trazado 1263563" d="M54.843,112.448c-.077-.079-.158-.17-.241-.265a1.811,1.811,0,0,0-1.271-.819h0a1.284,1.284,0,0,0-1.053.592,1.076,1.076,0,0,0-.074,1.051c.149.318,1.809,2.173,2.8,2.243l.064,0a.681.681,0,0,0,.569-.279l4.923-4.9.025-.069a1.4,1.4,0,0,0-.129-1.423,1.168,1.168,0,0,0-1.2-.306c-.574.12-1.689,1.282-3.2,2.91-.452.487-.953,1.027-1.211,1.264" transform="translate(-43.481 -90.331)" fill="#fff"/>
          <path id="Trazado_1263564" data-name="Trazado 1263564" d="M157.422,218.037a2.435,2.435,0,0,0,1.095-2.141.927.927,0,0,0-.724-.725,2.471,2.471,0,0,0-2.178,1.138c-.082-.086-.164-.178-.248-.273-.444-.5-1-1.127-1.927-.848a.929.929,0,0,0-.728.747c-.113.725.66,1.626,1.174,2.1a2.453,2.453,0,0,0-1.1,2.138.914.914,0,0,0,.707.714,2.46,2.46,0,0,0,2.159-1.082,2.743,2.743,0,0,0,1.888,1.126,1.194,1.194,0,0,0,.256-.027.927.927,0,0,0,.725-.724,2.436,2.436,0,0,0-1.095-2.141" transform="translate(-127.442 -179.536)" fill="#fff"/>
        </g>
      </g>
    </g>
  </g>
</svg>
