<svg xmlns="http://www.w3.org/2000/svg" xmlns:xlink="http://www.w3.org/1999/xlink" width="96" height="96" viewBox="0 0 96 96">
  <defs>
    <clipPath id="clip-path">
      <rect id="Rectángulo_458220" data-name="Rectángulo 458220" width="56.805" height="56.834" fill="#fff"/>
    </clipPath>
  </defs>
  <g id="Grupo_1207212" data-name="Grupo 1207212" transform="translate(-383.711 -8400.334)">
    <path id="Trazado_997400" data-name="Trazado 997400" d="M48,0A48,48,0,1,1,0,48,48,48,0,0,1,48,0Z" transform="translate(383.711 8400.334)" fill="#5d0b80"/>
    <g id="Grupo_1099776" data-name="Grupo 1099776" transform="translate(405.747 8418)">
      <g id="Grupo_1099618" data-name="Grupo 1099618" transform="translate(-4.035 0.334)">
        <rect id="Rectángulo_401104" data-name="Rectángulo 401104" width="59.378" height="60.093" transform="translate(0)" fill="none"/>
      </g>
      <g id="Grupo_1207374" data-name="Grupo 1207374" transform="translate(-3.036 1.334)">
        <g id="Grupo_1207373" data-name="Grupo 1207373" clip-path="url(#clip-path)">
          <path id="Trazado_1265915" data-name="Trazado 1265915" d="M13.111,6.469c-.358.358-1.622.9-1.706,1.142l-.025,4.775a10.314,10.314,0,0,1,2.971.691c1.084.43,1.892,1.245,2.935,1.567l5.333-4.608C23.727-1.449,38.727-3.934,43.032,7.185c.228.588.153,1.362.68,1.762L50.4,12.2c.343.048,1.2-.653,1.789-.752a3.783,3.783,0,1,1-2.366,5.707c-.734-1.236-.5-2.013-.512-3.382l-5.869-2.688a9.55,9.55,0,0,1-3.265,6.929l4.637,6.429c5.058.194,9.671,3.161,10.756,8.289,2.494,11.782-13.137,17.68-19.208,7.493L32.56,43.088l.732,3.826,6.723,3.163c1.8-1.07,4.047-1.173,5.467.562a3.762,3.762,0,0,1-5.02,5.509c-1.64-1.092-1.678-2.649-1.553-4.458l-5.831-2.817c-.412-.024-.691,1.4-.886,1.826-4.537,9.783-18.74,7.221-19.837-3.313l-4.775.025c-.776,1.272-1.487,2.5-3.133,2.726-5.966.807-5.808-8.445.138-7.434,1.531.26,2.243,1.519,2.995,2.7l4.775.025a10.454,10.454,0,0,1,17.687-6.453c.35.346,1.619,2.223,1.856,2.159l3.659-2.7A10.475,10.475,0,0,1,40.35,25.976c.791-.441,1.65-.7,2.442-1.136L38.62,19.4c-.759.2-1.39.674-2.14.92a10.534,10.534,0,0,1-13.625-7.928l-4.294,3.683A14.32,14.32,0,0,1,20.9,22.313l5.114,4.005c3.641-2.52,8.092,1.871,5.3,5.443a3.81,3.81,0,0,1-6.685-1.786,6.683,6.683,0,0,1,.175-2.121L20.659,24.6a10.437,10.437,0,0,1-15.516,7.13c-8.756-5.187-5.672-18.35,4.281-19.34L9.4,7.612C8.374,6.872,7.565,6.7,7,5.449A3.784,3.784,0,0,1,12.847.908a3.852,3.852,0,0,1,.264,5.561M9.869,2.008c-2.236.456-1.486,4.135.9,3.671a1.891,1.891,0,1,0-.9-3.671M38.89,16.62c6.482-5.991.671-16.6-7.976-14.4a8.55,8.55,0,0,0-4.154,13.918c.2.21.407.527.733.486a2.815,2.815,0,0,1,1.822-3.143,23.23,23.23,0,0,1,7.623-.033A3.3,3.3,0,0,1,38.89,16.62M54.464,13.9c-1.552-1.756-4.7.6-2.805,2.562,1.777,1.843,4.294-.877,2.805-2.562M16.1,28.991A8.485,8.485,0,0,0,12.33,14.448C3.714,12.534-1.734,23.144,4.7,28.991a3.012,3.012,0,0,1,2.271-3.346,37.207,37.207,0,0,1,6.44-.072A3.031,3.031,0,0,1,16.1,28.991M36.907,18.058c.017-1.03.327-2.291-.739-2.87-1.749.163-4.342-.339-5.985-.03-1.062.2-1.017,1.937-.821,2.766,2.195,1.426,5.246,1.2,7.544.134M51.1,41.362a8.523,8.523,0,0,0-3.578-14.574C38.93,24.739,33.207,35.317,39.7,41.2a3.124,3.124,0,0,1,2.106-3.185,41.082,41.082,0,0,1,6.767-.071A2.956,2.956,0,0,1,51.1,41.362M14.126,30.437c-.054-.784.372-2.6-.585-2.877-1.27.16-5.628-.395-6.487.118-.691.413-.323,2.017-.374,2.755a9.059,9.059,0,0,0,7.446,0M27.94,27.563c-1.985.342-1.851,3.426.136,3.7,2.853.392,3-4.239-.136-3.7m.532,25.03c6.529-6.056.575-16.688-8.1-14.37a8.56,8.56,0,0,0-4.026,13.884c.2.21.407.527.733.486a2.8,2.8,0,0,1,1.952-3.176,24.335,24.335,0,0,1,7.37-.04,3.219,3.219,0,0,1,2.076,3.216m14.28-12.821c-1.28.231-1.3,1.551-1.1,2.648.1.574,2.009.982,2.54,1.041,1.552.173,3.651.068,4.921-.9-.056-1.587.633-2.645-1.351-2.829a29.912,29.912,0,0,0-5.014.045M3.689,44.492c-3.014.177-1.771,5.045.967,3.575a1.906,1.906,0,0,0-.967-3.575m22.8,9.54c.06-.793.239-2.584-.739-2.87a45.549,45.549,0,0,0-5.817-.024c-1.341.208-1.079,1.908-1.046,2.9a8.879,8.879,0,0,0,7.6,0m15.776-2.868c-2.065.34-2.028,3.47-.047,3.717,3.063.381,2.825-4.174.047-3.717" transform="translate(0 0)" fill="#fff"/>
          <path id="Trazado_1265916" data-name="Trazado 1265916" d="M259.063,174.932c5.528-.935,6.139,6.682,1.55,7.409-5.143.815-5.892-6.675-1.55-7.409m.656,1.784a1.894,1.894,0,1,0,.763,3.7c2.087-.393,1.623-4.032-.763-3.7" transform="translate(-214.52 -146.39)" fill="#fff"/>
          <path id="Trazado_1265917" data-name="Trazado 1265917" d="M43.732,99.053a3.79,3.79,0,1,1-2.47,5.81,3.809,3.809,0,0,1,2.47-5.81m0,1.955c-1.941.5-1.346,4.136,1.06,3.669a1.914,1.914,0,1,0-1.06-3.669" transform="translate(-34.025 -82.882)" fill="#fff"/>
          <path id="Trazado_1265918" data-name="Trazado 1265918" d="M184.09,23.272c5.054-.362,5.435,7.41.429,7.618-4.788.2-5.327-7.267-.429-7.618m-.177,1.952a1.89,1.89,0,0,0,.9,3.67,1.89,1.89,0,0,0-.9-3.67" transform="translate(-151.255 -19.474)" fill="#fff"/>
          <path id="Trazado_1265919" data-name="Trazado 1265919" d="M122.577,250.656c-3.08,3.359-8.695-1.042-5.8-4.909,3.091-4.134,9.377,1.012,5.8,4.909m-3.243-4.466a1.89,1.89,0,0,0,.9,3.67c2.315-.473,1.663-4.2-.9-3.67" transform="translate(-97.092 -204.465)" fill="#fff"/>
        </g>
      </g>
    </g>
  </g>
</svg>
