<svg xmlns="http://www.w3.org/2000/svg" xmlns:xlink="http://www.w3.org/1999/xlink" width="96" height="96" viewBox="0 0 96 96">
  <defs>
    <clipPath id="clip-path">
      <rect id="Rectángulo_457322" data-name="Rectángulo 457322" width="46.521" height="60.093" fill="#fff"/>
    </clipPath>
  </defs>
  <g id="Grupo_1207213" data-name="Grupo 1207213" transform="translate(-383.746 -8400.001)">
    <path id="Trazado_997400" data-name="Trazado 997400" d="M48,0A48,48,0,1,1,0,48,48,48,0,0,1,48,0Z" transform="translate(383.746 8400.001)" fill="#5d0b80"/>
    <g id="Grupo_1099776" data-name="Grupo 1099776" transform="translate(401.746 8418)">
      <g id="Grupo_1099618" data-name="Grupo 1099618" transform="translate(-0.035 0)">
        <rect id="Rectángulo_401104" data-name="Rectángulo 401104" width="59.378" height="60.093" transform="translate(0)" fill="none"/>
      </g>
      <g id="Grupo_1206532" data-name="Grupo 1206532" transform="translate(5.966)">
        <g id="Grupo_1206531" data-name="Grupo 1206531" clip-path="url(#clip-path)">
          <path id="Trazado_1263568" data-name="Trazado 1263568" d="M34.222,4.954h4.627a6.321,6.321,0,0,1,1.088.684c1.069,1.132.4,3.75.585,5.223,1.858.238,5.178-.879,5.815,1.568a57.54,57.54,0,0,1,.05,8.529c-.347,1.578-2.124.744-2.124.239V13.027H40.522V52.7a3.949,3.949,0,0,1-1.477,1.477H8.232v3.741H44.263V24.742c0-.418,1.5-1.278,2.016-.047l.154,33.327A2.52,2.52,0,0,1,45.061,60l-36.937.1c-3.039-.277-1.743-3.7-2.144-5.732-.594-.853-5.342,1.184-5.8-2.073L.155,26.312c.057-.8.564-1.5,1.439-1.241a2.836,2.836,0,0,1,.731.655V52.012H38.356V7.12H28.61l-.3.3v3.15c0,1.147,1.5,1.393,2.415,1.232.57-.1,2.8-1.251,2.658.507-.152,1.856-3.816,1.944-5.184,1.325-.5-.227-1.858-1.617-1.858-2.08V7.415l-.3-.3H2.325V22.182a2.836,2.836,0,0,1-.731.655c-.9.272-1.426-.428-1.439-1.241C.075,16.775-.158,11.758.172,6.837A2.642,2.642,0,0,1,1.833,4.954H26.346c-.409-3.414.925-5.177,4.439-4.93,2.838.2,3.673,2.355,3.437,4.93m-2.166,0c.18-2.366-.19-3.094-2.647-2.738-1.223.177-1.087,1.731-1.094,2.738Z" transform="translate(0 -0.001)" fill="#fff"/>
          <path id="Trazado_1263569" data-name="Trazado 1263569" d="M31.246,47.67a50.919,50.919,0,0,1,7.835-.05A2.635,2.635,0,0,1,41.324,50.1a38.071,38.071,0,0,1,.025,5.9,2.8,2.8,0,0,1-2.865,2.845,43.727,43.727,0,0,1-6.5,0,2.821,2.821,0,0,1-2.658-2.658,39.471,39.471,0,0,1,.018-6.284,2.592,2.592,0,0,1,1.9-2.237m.546,2.121-.3.3v6.3l.3.3h6.891a3.287,3.287,0,0,0,.492-.492v-6.1l-.3-.3Z" transform="translate(-23.461 -38.143)" fill="#fff"/>
          <path id="Trazado_1263570" data-name="Trazado 1263570" d="M31.245,121.668a50.853,50.853,0,0,1,7.836-.05,2.753,2.753,0,0,1,2.26,2.663A39.2,39.2,0,0,1,41.348,130a2.8,2.8,0,0,1-2.865,2.845,43.2,43.2,0,0,1-6.109.009c-1.714-.147-2.841-.837-3.045-2.665a39.424,39.424,0,0,1,.018-6.284,2.727,2.727,0,0,1,1.9-2.236m7.929,8.815v-6.4l-.3-.3H31.791l-.3.3v6.3l.3.3h6.891c.065,0,.3-.261.492-.2" transform="translate(-23.461 -97.571)" fill="#fff"/>
          <path id="Trazado_1263571" data-name="Trazado 1263571" d="M38.931,204.676l.265-.325c.158-.521-.22-1.427.422-1.742,2.25-1.106,2.583,3.521-.382,4.146a40.766,40.766,0,0,1-7.2.088,2.8,2.8,0,0,1-2.57-2.156,37.061,37.061,0,0,1-.07-6.787,2.618,2.618,0,0,1,2.243-2.286,47.861,47.861,0,0,1,7.638.05c2.887.525,2.656,5.523.339,4.385-.786-.386-.025-1.758-.688-2.264H31.843l-.3.3v6.3l.3.3Z" transform="translate(-23.513 -156.996)" fill="#fff"/>
          <rect id="Rectángulo_457316" data-name="Rectángulo 457316" width="16.335" height="2.334" transform="translate(19.327 16.774)" fill="#fff"/>
          <rect id="Rectángulo_457317" data-name="Rectángulo 457317" width="6.184" height="2.45" transform="translate(19.327 12.107)" fill="#fff"/>
          <rect id="Rectángulo_457318" data-name="Rectángulo 457318" width="16.335" height="2.334" transform="translate(19.327 30.425)" fill="#fff"/>
          <rect id="Rectángulo_457319" data-name="Rectángulo 457319" width="6.184" height="2.45" transform="translate(19.327 25.758)" fill="#fff"/>
          <rect id="Rectángulo_457320" data-name="Rectángulo 457320" width="16.335" height="2.334" transform="translate(19.327 44.893)" fill="#fff"/>
          <rect id="Rectángulo_457321" data-name="Rectángulo 457321" width="6.184" height="2.45" transform="translate(19.327 40.226)" fill="#fff"/>
        </g>
      </g>
    </g>
  </g>
</svg>
