<svg xmlns="http://www.w3.org/2000/svg" xmlns:xlink="http://www.w3.org/1999/xlink" width="48" height="48" viewBox="0 0 48 48">
  <defs>
    <clipPath id="clip-path">
      <rect id="Rectángulo_455280" data-name="Rectángulo 455280" width="34.706" height="34.674" fill="#5d0b80"/>
    </clipPath>
  </defs>
  <g id="Grupo_1207747" data-name="Grupo 1207747" transform="translate(-186.371 -2159)">
    <path id="Trazado_998191" data-name="Trazado 998191" d="M6,0H42a6,6,0,0,1,6,6V42a6,6,0,0,1-6,6H6a6,6,0,0,1-6-6V6A6,6,0,0,1,6,0Z" transform="translate(186.371 2159)" fill="#fbce73"/>
    <g id="Grupo_1178135" data-name="Grupo 1178135" transform="translate(192.498 2165.43)">
      <g id="Grupo_1178134" data-name="Grupo 1178134" transform="translate(2.001 1.697)" clip-path="url(#clip-path)">
        <path id="Trazado_998192" data-name="Trazado 998192" d="M11.746.114c13.031-1.466,20.6,11.451,13.819,22.325L34.3,31.232a2.2,2.2,0,0,1-3.179,2.98l-8.7-8.626c-6.921,4.511-16.151,3-20.472-4.229-4.957-8.29.008-20.141,9.8-21.243m1.984,6.35A2,2,0,0,0,12.4,7.938c.222,3.459-.334,7.35-.021,10.755.212,2.3,2.886,2.487,3.185.576-.227-3.59.342-7.617.021-11.153-.094-1.033-.68-1.864-1.855-1.652m5.378,4.385a1.877,1.877,0,0,0-1.294,1.507,36.583,36.583,0,0,0-.055,6.136c.251,2.693,2.961,2.69,3.347.543a36.375,36.375,0,0,0-.085-6.992,1.67,1.67,0,0,0-1.913-1.193M8.15,13.046a1.55,1.55,0,0,0-1.1,1.1,28.971,28.971,0,0,0-.046,4.941,1.625,1.625,0,0,0,3.148.352,26.216,26.216,0,0,0-.107-5.584,1.634,1.634,0,0,0-1.9-.808" transform="translate(0 0)" fill="#5d0b80"/>
      </g>
    </g>
  </g>
</svg>
