<svg xmlns="http://www.w3.org/2000/svg" xmlns:xlink="http://www.w3.org/1999/xlink" width="84" height="84" viewBox="0 0 84 84">
  <defs>
    <clipPath id="clip-path">
      <rect id="Rectángulo_458359" data-name="Rectángulo 458359" width="65.19" height="65.19" fill="#5d0b80"/>
    </clipPath>
  </defs>
  <g id="Grupo_1206940" data-name="Grupo 1206940" transform="translate(-289.711 -1155.941)">
    <rect id="Rectángulo_455579" data-name="Rectángulo 455579" width="84" height="84" rx="12" transform="translate(289.711 1155.941)" fill="#ffe9a1"/>
    <g id="Grupo_1207524" data-name="Grupo 1207524" transform="translate(298.711 1164.942)">
      <g id="Grupo_1207523" data-name="Grupo 1207523" clip-path="url(#clip-path)">
        <path id="Trazado_1266332" data-name="Trazado 1266332" d="M38.915,55.743V52.187l.135.067a2.1,2.1,0,0,0,1.968,1.386h2.1a2.1,2.1,0,0,0,2.1-2.1V49.2l1.369-.343a3.745,3.745,0,0,0,0-7.266l-1.369-.343V38.92a2.105,2.105,0,0,0-2.1-2.1h-2.1a2.105,2.105,0,0,0-2.1,2.1v.293l-5.428,1.81H30.5a4.206,4.206,0,0,0,0,8.412h2.1v6.309a2.105,2.105,0,0,0,2.1,2.1h2.1a2.105,2.105,0,0,0,2.1-2.1m7.168-12.108a1.642,1.642,0,0,1,0,3.186l-.859.215V43.421ZM41.018,38.92h2.1V51.537h-2.1Zm-2.1,10.916-4.206-2.1v-4.9l4.206-1.4Zm-8.412-2.5a2.1,2.1,0,1,1,0-4.206h2.1v4.206Zm4.206,8.412V50.085l2.1,1.051v4.608Z" transform="translate(-15.783 -22.097)" fill="#5d0b80"/>
        <path id="Trazado_1266333" data-name="Trazado 1266333" d="M47.322,36.81A15.772,15.772,0,1,0,31.55,52.582,15.79,15.79,0,0,0,47.322,36.81m-29.441,0A13.669,13.669,0,1,1,31.55,50.479,13.685,13.685,0,0,1,17.881,36.81" transform="translate(-9.47 -12.626)" fill="#5d0b80"/>
        <path id="Trazado_1266334" data-name="Trazado 1266334" d="M63.087,0H27.338a2.105,2.105,0,0,0-2.1,2.1V4.48A19.954,19.954,0,0,0,13.915,42.4a11.96,11.96,0,0,0-6.568,4.152,2.076,2.076,0,0,0-1.038-.285H0v14.72H6.309a2.076,2.076,0,0,0,1.31-.472,11.727,11.727,0,0,0,7.356,2.575H19.12a3.15,3.15,0,0,0,2.961,2.1h2.1a3.158,3.158,0,0,0,3.154-3.155V60.985h1.052a3.158,3.158,0,0,0,3.154-3.155,3.112,3.112,0,0,0-.194-1.051H63.087a2.105,2.105,0,0,0,2.1-2.1V2.1a2.105,2.105,0,0,0-2.1-2.1M6.309,58.882H2.1V48.367H6.309Zm-2.1-34.7A17.875,17.875,0,1,1,22.081,42.058,17.895,17.895,0,0,1,4.206,24.184M31.542,6.276l27.339.033V14.72H39.668A20.109,20.109,0,0,0,31.542,6.6ZM25.235,53.624a1.052,1.052,0,0,1,1.052-1.052h2.1a1.052,1.052,0,0,1,0,2.1h-2.1a1.052,1.052,0,0,1-1.052-1.052m3.155-3.154h-2.1a1.052,1.052,0,1,1,0-2.1h2.1a1.052,1.052,0,0,1,0,2.1M8.412,58.418V48.692a9.821,9.821,0,0,1,8.234-4.531H27.338a2.105,2.105,0,0,1-2.1,2.1h-3.8l-.29.581a4.6,4.6,0,0,1-2.674,2.319l-.924.308.666,1.994.718-.24v4.742a10.781,10.781,0,0,0-3.874-2.291l-.666,1.994a8.693,8.693,0,0,1,4.456,3.4l.083.125v1.784H14.975A9.64,9.64,0,0,1,8.412,58.418Zm15.772,4.67h-2.1a1.052,1.052,0,0,1-1.052-1.052V50.156a6.649,6.649,0,0,0,1.664-1.79h.632a3.058,3.058,0,0,0,.627,3.155,3.106,3.106,0,0,0,0,4.206,3.126,3.126,0,0,0,1.283,5.064v1.245a1.052,1.052,0,0,1-1.051,1.052m5.257-5.257a1.052,1.052,0,0,1-1.051,1.052h-2.1a1.051,1.051,0,1,1,0-2.1h2.1a1.052,1.052,0,0,1,1.051,1.051m33.647-3.154H31.35a3.057,3.057,0,0,0-.627-3.154,3.129,3.129,0,0,0-1.892-5.212,4.17,4.17,0,0,0,.609-2.148,2.081,2.081,0,0,0-.433-1.264A19.9,19.9,0,0,0,40.636,16.823H58.882a2.1,2.1,0,0,0,2.1-2.1V6.309a2.1,2.1,0,0,0-2.1-2.1L31.544,4.173a2.1,2.1,0,0,0-2,1.492,19.911,19.911,0,0,0-2.2-.734V2.1H63.087Z" fill="#5d0b80"/>
        <path id="Trazado_1266335" data-name="Trazado 1266335" d="M131.484,99.931h-8.412a2.105,2.105,0,0,0-2.1,2.1v8.412a2.105,2.105,0,0,0,2.1,2.1h8.412a2.105,2.105,0,0,0,2.1-2.1v-8.412a2.105,2.105,0,0,0-2.1-2.1m-8.412,10.515v-8.412h8.412l0,8.412Z" transform="translate(-72.602 -59.976)" fill="#5d0b80"/>
        <path id="Trazado_1266336" data-name="Trazado 1266336" d="M94.667,99.931H86.255a2.105,2.105,0,0,0-2.1,2.1v8.412a2.105,2.105,0,0,0,2.1,2.1h8.412a2.105,2.105,0,0,0,2.1-2.1v-8.412a2.105,2.105,0,0,0-2.1-2.1m-8.412,10.515v-8.412h8.412l0,8.412Z" transform="translate(-50.506 -59.976)" fill="#5d0b80"/>
        <rect id="Rectángulo_458351" data-name="Rectángulo 458351" width="2.103" height="2.103" transform="translate(50.47 35.75)" fill="#5d0b80"/>
        <rect id="Rectángulo_458352" data-name="Rectángulo 458352" width="2.103" height="2.103" transform="translate(54.676 35.75)" fill="#5d0b80"/>
        <rect id="Rectángulo_458353" data-name="Rectángulo 458353" width="2.103" height="2.103" transform="translate(58.882 35.75)" fill="#5d0b80"/>
        <rect id="Rectángulo_458354" data-name="Rectángulo 458354" width="16.823" height="2.103" transform="translate(44.161 31.544)" fill="#5d0b80"/>
        <rect id="Rectángulo_458355" data-name="Rectángulo 458355" width="16.823" height="2.103" transform="translate(44.161 27.338)" fill="#5d0b80"/>
        <rect id="Rectángulo_458356" data-name="Rectángulo 458356" width="16.823" height="2.103" transform="translate(44.161 23.132)" fill="#5d0b80"/>
        <rect id="Rectángulo_458357" data-name="Rectángulo 458357" width="10.515" height="2.103" transform="translate(50.47 18.926)" fill="#5d0b80"/>
        <rect id="Rectángulo_458358" data-name="Rectángulo 458358" width="4.206" height="2.103" transform="translate(44.161 18.926)" fill="#5d0b80"/>
      </g>
    </g>
  </g>
</svg>
