<svg xmlns="http://www.w3.org/2000/svg" xmlns:xlink="http://www.w3.org/1999/xlink" width="79.17" height="80.124" viewBox="0 0 79.17 80.124">
  <defs>
    <clipPath id="clip-path">
      <rect id="Rectángulo_458318" data-name="Rectángulo 458318" width="73.766" height="73.847" fill="#fff"/>
    </clipPath>
  </defs>
  <g id="Grupo_1099776" data-name="Grupo 1099776" transform="translate(0.289 -0.277)">
    <g id="Grupo_1099618" data-name="Grupo 1099618" transform="translate(-0.289 0.277)">
      <rect id="Rectángulo_401104" data-name="Rectángulo 401104" width="79.17" height="80.124" transform="translate(0)" fill="none"/>
    </g>
    <g id="Grupo_1207508" data-name="Grupo 1207508" transform="translate(2.711 3.277)">
      <g id="Grupo_1207507" data-name="Grupo 1207507" clip-path="url(#clip-path)">
        <path id="Trazado_1266284" data-name="Trazado 1266284" d="M58.95,52.236c-.323.286,2.383,2.592,2.614,2.951l.282.067c.842-.659,1.093-.833,2-.189,1.243.885,8.591,8.4,9.143,9.56a6.247,6.247,0,0,1-9.573,7.615,85.014,85.014,0,0,1-8.377-8.368c-1.02-1.433.427-1.671.122-2.279l-2.873-2.81A19.924,19.924,0,0,1,36.9,61.2L31.49,66.426l-5.381.164v4.676a9.332,9.332,0,0,1-.653,1.087,3.763,3.763,0,0,1-2.743,1.39c-4.205.133-9.425.133-14.111.022a3.709,3.709,0,0,1-3.71-3.033,62.447,62.447,0,0,1-.08-10.539,3.748,3.748,0,0,1,3.561-3.182c5.011-.052,8.974.045,14.562.028.975-.033,3.173,1.58,3.173,2.482V64.2l4.346-.113,3.7-3.8a19.555,19.555,0,0,1-9.57-7.94l-21.644-.1C.957,51.944.018,50.076,0,48.222L0,4.054C.16,2.212.875.791,2.741.269,25.023-.273,47.4.2,69.723.03c2.544.219,3.8,1.47,4.024,4.024V48.438c.208,1.166-1.381,3.8-2.509,3.8Zm1.087-2.392H70.586a2.487,2.487,0,0,0,.6-.708V3.355a1.717,1.717,0,0,0-1.675-.935L3.478,2.528,2.5,3.506l.067,45.629a2.491,2.491,0,0,0,.6.708H23.281l-1.013-2.185-15.842.009c-.512.044-1.632-.434-1.632-.978v-33.6H7.187V45.277H21.759a21.271,21.271,0,0,1,1.267-11.456c.295-.709,1.665-2.884,1.733-3.263.082-.459-.619-1.066-.935-1.371L11.645,42.445l-1.608-1.59L23.2,26.383l.621-.231c1.073,0,1.75,1.953,2.714,2.378a4.926,4.926,0,0,1,1.524-1.852,21.232,21.232,0,0,1,11.313-5.11L35.15,14.595l-4.256-.2v4.459c0,1.33-2.2,2.641-3.4,2.694-5.123.23-9.183.036-14.122.033A3.758,3.758,0,0,1,9.6,18.4c-.22-1.619-.226-9.757.185-11.086A3.691,3.691,0,0,1,12.95,4.822c6.912-.06,8.168-.06,14.771.02,1.147.014,3.173,1.488,3.173,2.7V12l5.522.241,5.831,9.283c1.4-.345,4.49,1.091,5.514.493L53.946,15.8c.091-.492-.215-.3-.539-.323-.755-.055-1.533.039-2.288,0V13.088H57.1a4.647,4.647,0,0,1,1.2.979v6.2H55.9c-.038-.755.057-1.533,0-2.288-.024-.324.169-.63-.323-.539l-5.766,5.868c10.12,4.16,14.764,16.6,10.222,26.537M13,7.262c-.733.183-.947.657-1.029,1.363a61.588,61.588,0,0,0,0,9.143c.133,1.123.562,1.322,1.625,1.42a95.147,95.147,0,0,0,13.5-.005,1.717,1.717,0,0,0,1.3-.657L28.387,7.873l-.417-.453ZM29.012,29.041c-9.405,9.405-5.3,25.94,7.488,29.659A17.844,17.844,0,0,0,58.049,34.759c-4.77-11.566-20.2-14.551-29.037-5.718M57.349,54.427l-2.95,2.95,2.515,2.673,3.108-2.95ZM64.3,58.858c-.219-.2-1.357-1.233-1.536-1.185L57.7,63c1.612,1.634,3.157,3.44,4.807,5.032a38.015,38.015,0,0,0,2.985,2.778,3.881,3.881,0,0,0,5.37-5.153c-.569-1.056-5.424-5.745-6.564-6.8m-56.085.6c-.733.183-.947.657-1.029,1.363a61.588,61.588,0,0,0,0,9.143c.133,1.123.557,1.447,1.625,1.42,4.674-.119,9.7.171,13.288,0,1.3-.062,1.691-.554,1.838-1.859a55.527,55.527,0,0,0,.01-7.622c-.1-1.5.042-2.493-1.631-2.5-5.158-.026-8.444-.123-14.1.057" transform="translate(0 0)" fill="#fff"/>
        <path id="Trazado_1266285" data-name="Trazado 1266285" d="M135.209,120.4c13.25-.719,21.186,14.955,12.653,25.265-8.068,9.747-23.949,6.139-26.856-6.19a15.477,15.477,0,0,1,14.2-19.075m.045,2.546c-3.914-.073-7.368,2.191-9.784,5.109l2.28,2.5Zm-10.875,18.92c7.1,12.708,26.2,6.893,24.554-7.916-.556-5-5.384-10.314-10.477-10.753L128.29,133.264c-1.7.783-2.66-1.954-3.8-2.716-.234-.156-.154-.341-.433,0-1.229,1.514-1.585,7.142-.437,8.916H138.3v2.392Z" transform="translate(-94.355 -94.191)" fill="#fff"/>
        <rect id="Rectángulo_458314" data-name="Rectángulo 458314" width="11.962" height="2.392" transform="translate(9.579 61.806)" fill="#fff"/>
        <rect id="Rectángulo_458315" data-name="Rectángulo 458315" width="11.962" height="2.392" transform="translate(9.579 66.591)" fill="#fff"/>
        <rect id="Rectángulo_458316" data-name="Rectángulo 458316" width="11.745" height="2.392" transform="translate(14.364 9.608)" fill="#fff"/>
        <rect id="Rectángulo_458317" data-name="Rectángulo 458317" width="11.745" height="2.392" transform="translate(14.364 14.393)" fill="#fff"/>
      </g>
    </g>
  </g>
</svg>
