<svg xmlns="http://www.w3.org/2000/svg" xmlns:xlink="http://www.w3.org/1999/xlink" width="96" height="96" viewBox="0 0 96 96">
  <defs>
    <clipPath id="clip-path">
      <rect id="Rectángulo_458350" data-name="Rectángulo 458350" width="56.089" height="56.038" fill="#fff"/>
    </clipPath>
  </defs>
  <g id="Grupo_1207107" data-name="Grupo 1207107" transform="translate(-383.746 -8400.001)">
    <path id="Trazado_997400" data-name="Trazado 997400" d="M48,0A48,48,0,1,1,0,48,48,48,0,0,1,48,0Z" transform="translate(383.746 8400.001)" fill="#5d0b80"/>
    <g id="Grupo_1099776" data-name="Grupo 1099776" transform="translate(401.746 8418)">
      <g id="Grupo_1099618" data-name="Grupo 1099618" transform="translate(-0.035 0)">
        <rect id="Rectángulo_401104" data-name="Rectángulo 401104" width="59.378" height="60.093" transform="translate(0)" fill="none"/>
      </g>
      <g id="Grupo_1207522" data-name="Grupo 1207522" transform="translate(1.965 2)">
        <g id="Grupo_1207521" data-name="Grupo 1207521" clip-path="url(#clip-path)">
          <path id="Trazado_1266324" data-name="Trazado 1266324" d="M106.443,122.75c-.28-.07-.321.116-.483.24-2.465,1.888-4.764,5.362-7.225,7.234-.258.2-.488.446-.851.374l-13.95-14.033,9.13-9.376c.962-.265,2.821,2.466,3.655,3.039.142.1.218.23.405.08L101.7,105.4c-.1-6.775,9.33-9.187,12.38-3.057,2.31,4.643-1.108,9.489-6.092,9.667l-4.689,4.48c-.15.187-.017.263.08.405a26.821,26.821,0,0,0,2.579,2.567c.162.124.2.31.483.24v-4.017h1.767v22.734a3.767,3.767,0,0,1-.562.562H69.972v-1.928h36.471Zm-4.11-7.966a63.428,63.428,0,0,1,4.853-4.546c1.188-.6,2.347.01,3.918-1.224a4.649,4.649,0,0,0-4.718-7.931c-2.073.854-2.906,2.855-2.868,5l-7.845,8.548,3.162,3.269c.413.08,2.991-2.646,3.5-3.121m-7.038-2.535c.132-.2.264-.315.149-.579a15.621,15.621,0,0,0-2.234-2.082L89.1,113.811l11.637,11.667,4.255-4.255-3.291-3.291c-.7.512-1.933,2.329-2.76,2.367-.357.016-2.279-1.81-2.7-2.209-.675-.636-1.745-1.635-2.338-2.32-1.539-1.779.489-2.174,1.392-3.522m-7.57,2.793L86.2,116.565l11.885,11.577c.232-.371,1.426-1.127,1.216-1.535Z" transform="translate(-58.73 -82.939)" fill="#fff"/>
          <path id="Trazado_1266325" data-name="Trazado 1266325" d="M30.146,34.487c-.637.637-1.28.508-1.911.74-1.178.433-1.323,1.309-3.011.675-.748-.281-1.048-.508-1.937-.793-.334-.107-.586-.43-.958-.406A11.185,11.185,0,1,1,4.01,25.622a11.274,11.274,0,0,1,17.113,3.292c.711-.828.181-1.617,1.2-2.492.72-.618,1.26-.436,1.976-.755,1.042-.463.949-1.035,2.536-.695.75.161,1.035.751,1.389.859.551.168.882-.054,1.547.381,1.053.69.806,1.378,1.109,2.265.2.579.9,1,.933,1.972.034,1.035-.663,1.4-.929,2.126-.232.631-.1,1.275-.74,1.911M9.918,24.942c-7.3.925-10.572,9.921-5.74,15.458a9.369,9.369,0,1,0,5.74-15.458m13.334,4.74c-.25.251-.78.057-.779.761s.731.637.914,1.2c.172.529-.183.97-.023,1.29.3.6,1.341.15,1.858.4.316.155.406.879.889.893.679.065.687-.8,1.147-.942.5-.151,1.169.16,1.584-.19.34-.446-.06-.963.1-1.5.129-.426.909-.486.944-1,.065-.679-.8-.688-.944-1.148-.174-.574.328-1.24-.262-1.672-.4-.295-.805.136-1.382-.051-.594-.193-.668-1.3-1.6-.821-.44,1.41-1.266.533-2.2.928-.431.431.246,1.358-.241,1.849" transform="translate(0 -19.311)" fill="#fff"/>
          <path id="Trazado_1266326" data-name="Trazado 1266326" d="M42.739,173.789v22.493H78.246v-5.623h1.928v6.828c0,.363-.8.843-1.2.73L41.5,198.088a1.838,1.838,0,0,1-.523-.441V173.789Z" transform="translate(-34.389 -145.867)" fill="#fff"/>
          <path id="Trazado_1266327" data-name="Trazado 1266327" d="M80.174,14.908H78.246V10.249H70.615a1.569,1.569,0,0,1-.723-.723V1.894H42.739v.965H40.972V.528a4.158,4.158,0,0,1,.485-.479L71.063,0l.68.445,8.431,8.6ZM76.8,8.321,71.82,3.34V8.321Z" transform="translate(-34.389)" fill="#fff"/>
          <path id="Trazado_1266328" data-name="Trazado 1266328" d="M139.8,238.789v1.767h-4.82v5.623h11.247v1.928H133.934c-.324,0-.683-.528-.731-.876a54.268,54.268,0,0,1,0-7.728c.029-.212.206-.715.41-.715Z" transform="translate(-111.686 -200.424)" fill="#fff"/>
          <path id="Trazado_1266329" data-name="Trazado 1266329" d="M283.631,33.072h-1.767V24.717h-2.892V22.789h3.936a2.715,2.715,0,0,1,.723.562Z" transform="translate(-234.151 -19.128)" fill="#fff"/>
          <rect id="Rectángulo_458340" data-name="Rectángulo 458340" width="11.247" height="1.928" transform="translate(20.561 23.262)" fill="#fff"/>
          <rect id="Rectángulo_458341" data-name="Rectángulo 458341" width="11.086" height="1.928" transform="translate(12.206 30.814)" fill="#fff"/>
          <path id="Trazado_1266330" data-name="Trazado 1266330" d="M154.451,117.834h-9.479l.15-1.858,9.065-.048c.49.16.184,1.469.264,1.905" transform="translate(-121.68 -97.303)" fill="#fff"/>
          <rect id="Rectángulo_458342" data-name="Rectángulo 458342" width="9.479" height="1.767" transform="translate(17.669 27.118)" fill="#fff"/>
          <rect id="Rectángulo_458343" data-name="Rectángulo 458343" width="7.391" height="1.928" transform="translate(12.206 45.755)" fill="#fff"/>
          <rect id="Rectángulo_458344" data-name="Rectángulo 458344" width="7.391" height="1.767" transform="translate(12.206 38.365)" fill="#fff"/>
          <rect id="Rectángulo_458345" data-name="Rectángulo 458345" width="7.391" height="1.767" transform="translate(12.206 42.06)" fill="#fff"/>
          <rect id="Rectángulo_458346" data-name="Rectángulo 458346" width="5.463" height="1.928" transform="translate(12.206 34.509)" fill="#fff"/>
          <rect id="Rectángulo_458347" data-name="Rectángulo 458347" width="5.623" height="1.767" transform="translate(25.22 42.06)" fill="#fff"/>
          <rect id="Rectángulo_458348" data-name="Rectángulo 458348" width="3.695" height="1.928" transform="translate(19.597 34.509)" fill="#fff"/>
          <rect id="Rectángulo_458349" data-name="Rectángulo 458349" width="3.695" height="1.767" transform="translate(12.206 27.118)" fill="#fff"/>
          <path id="Trazado_1266331" data-name="Trazado 1266331" d="M35.213,64.407C33.1,66.54,30.835,68.556,28.728,70.7a.83.83,0,0,1-.778-.125c-.848-.5-2.052-2.346-2.96-2.98L26.331,66.4l2.111,2.074,8.676-8.67,1.193,1.341c-1.091,1.023-2.05,2.2-3.1,3.259" transform="translate(-20.975 -50.198)" fill="#fff"/>
        </g>
      </g>
    </g>
  </g>
</svg>
