<svg xmlns="http://www.w3.org/2000/svg" xmlns:xlink="http://www.w3.org/1999/xlink" width="96" height="96" viewBox="0 0 96 96">
  <defs>
    <clipPath id="clip-path">
      <rect id="Rectángulo_458335" data-name="Rectángulo 458335" width="52.948" height="58.093" fill="#fff"/>
    </clipPath>
  </defs>
  <g id="Grupo_1205912" data-name="Grupo 1205912" transform="translate(-383.746 -8400.001)">
    <path id="Trazado_997400" data-name="Trazado 997400" d="M48,0A48,48,0,1,1,0,48,48,48,0,0,1,48,0Z" transform="translate(383.746 8400.001)" fill="#5d0b80"/>
    <g id="Grupo_1099776" data-name="Grupo 1099776" transform="translate(401.746 8418)">
      <g id="Grupo_1099618" data-name="Grupo 1099618" transform="translate(1.965 0)">
        <rect id="Rectángulo_401104" data-name="Rectángulo 401104" width="59.378" height="60.093" transform="translate(0)" fill="none"/>
      </g>
      <g id="Grupo_1207518" data-name="Grupo 1207518" transform="translate(4.965 1)">
        <g id="Grupo_1207517" data-name="Grupo 1207517" clip-path="url(#clip-path)">
          <path id="Trazado_1266309" data-name="Trazado 1266309" d="M5.3,17.433,5.336,3.074A2.442,2.442,0,0,1,6.677,1.753a19.645,19.645,0,0,1,2.1-.147C8.952,1.452,8.9.4,9.987.071L47.944,0c1.359.247,1.215,1.382,1.472,1.606a15.308,15.308,0,0,1,2.241.173,2.944,2.944,0,0,1,1.11,1.053,25.962,25.962,0,0,1,.121,4.862.8.8,0,0,1-1.424.433c-.579-.695-.036-3.619-.259-4.649l-1.641-.19V54.707l1.671-.277L51.22,11.517a.84.84,0,1,1,1.68,0V54.465a2.091,2.091,0,0,1-1.366,1.8c-.51.159-2.033.053-2.118.129-.178.158-.12,1.2-1.21,1.535l-30.148-.043c-.476-.3-.259-1.511.139-1.511H47.734V1.625H10.459V17.433h32.2a2.217,2.217,0,0,1,1.633,1.528c-.157,4.613.6,10.161.114,14.7-.079.741-.763,2.08-1.581,2.08H10.459V56.371h4.576c.324,0,.839,1.288-.075,1.589a25.442,25.442,0,0,1-4.569.06,1.926,1.926,0,0,1-1.469-1.033c-.1-.172-.093-.551-.145-.6-.088-.078-1.521.024-1.984-.1-.391-.1-1.493-.976-1.493-1.336V35.737H1.557A2.18,2.18,0,0,1,.139,33.994c.335-4.715-.433-10.011,0-14.655.077-.831.88-1.906,1.755-1.906ZM8.629,3.289l-1.664.166V17.433H8.629ZM42.575,19.263H1.806v14.56l.25.25H42.575ZM8.629,35.737H6.965v18.8l1.664.166Z" transform="translate(-0.001)" fill="#fff"/>
          <path id="Trazado_1266310" data-name="Trazado 1266310" d="M147.322,267.177a1.517,1.517,0,0,1-.867.213h-21.98l-.59-.241a.926.926,0,0,1,.755-1.44l22.233.082a.9.9,0,0,1,.448,1.384" transform="translate(-103.124 -221.496)" fill="#fff"/>
          <path id="Trazado_1266311" data-name="Trazado 1266311" d="M147.322,284.955a1.517,1.517,0,0,1-.867.213h-21.98l-.59-.241a.926.926,0,0,1,.755-1.44l22.233.082a.9.9,0,0,1,.448,1.384" transform="translate(-103.124 -236.316)" fill="#fff"/>
          <path id="Trazado_1266312" data-name="Trazado 1266312" d="M147.322,226.88a1.517,1.517,0,0,1-.867.213h-21.98l-.59-.241a.926.926,0,0,1,.755-1.44l22.233.082a.9.9,0,0,1,.448,1.384" transform="translate(-103.124 -187.904)" fill="#fff"/>
          <path id="Trazado_1266313" data-name="Trazado 1266313" d="M147.322,244.658a1.517,1.517,0,0,1-.867.213h-21.98l-.59-.241a.926.926,0,0,1,.755-1.44l22.233.082a.9.9,0,0,1,.448,1.384" transform="translate(-103.124 -202.724)" fill="#fff"/>
          <path id="Trazado_1266314" data-name="Trazado 1266314" d="M147.322,65.7a1.517,1.517,0,0,1-.867.213h-21.98l-.59-.241a.926.926,0,0,1,.755-1.44l22.233.082a.9.9,0,0,1,.448,1.384" transform="translate(-103.124 -53.541)" fill="#fff"/>
          <path id="Trazado_1266315" data-name="Trazado 1266315" d="M147.322,83.473a1.517,1.517,0,0,1-.867.213h-21.98l-.59-.241a.926.926,0,0,1,.755-1.44l22.233.082a.9.9,0,0,1,.448,1.384" transform="translate(-103.124 -68.361)" fill="#fff"/>
          <path id="Trazado_1266316" data-name="Trazado 1266316" d="M83.666,224.609a7.755,7.755,0,0,1,3.087.162c1.141.595,1.406,4.721-.626,4.96-1.328.157-3.549.3-3.752-1.414-.152-1.285-.31-3.421,1.291-3.708m2.042,1.79H84.042c.053.387-.148,1.38.157,1.592l1.509.073Z" transform="translate(-68.592 -187.169)" fill="#fff"/>
          <path id="Trazado_1266317" data-name="Trazado 1266317" d="M82.931,68.361c-.605-.662-.62-3.795.1-4.37s3.456-.595,4.167.019c.734.633.716,3.523.1,4.247-.6.706-3.794.73-4.366.1m2.943-2.944H84.208v1.666h1.666Z" transform="translate(-68.758 -52.977)" fill="#fff"/>
          <path id="Trazado_1266318" data-name="Trazado 1266318" d="M83.491,265.572a8.557,8.557,0,0,1,3.254.17c1.159.566,1.136,4.187.017,4.765a6.615,6.615,0,0,1-3.716-.068c-1.051-.673-1.132-4.514.444-4.867M85.7,267.2l-1.592.157.083,1.6,1.509.073Z" transform="translate(-68.587 -221.313)" fill="#fff"/>
        </g>
      </g>
    </g>
  </g>
</svg>
