<svg xmlns="http://www.w3.org/2000/svg" xmlns:xlink="http://www.w3.org/1999/xlink" width="96" height="96" viewBox="0 0 96 96">
  <defs>
    <clipPath id="clip-path">
      <rect id="Rectángulo_458339" data-name="Rectángulo 458339" width="59.378" height="53.858" fill="#fff"/>
    </clipPath>
  </defs>
  <g id="Grupo_1207108" data-name="Grupo 1207108" transform="translate(-383.711 -8400)">
    <path id="Trazado_997400" data-name="Trazado 997400" d="M48,0A48,48,0,1,1,0,48,48,48,0,0,1,48,0Z" transform="translate(383.711 8400)" fill="#5d0b80"/>
    <g id="Grupo_1099776" data-name="Grupo 1099776" transform="translate(401.746 8418)">
      <g id="Grupo_1099618" data-name="Grupo 1099618" transform="translate(0 0)">
        <rect id="Rectángulo_401104" data-name="Rectángulo 401104" width="59.378" height="60.093" transform="translate(0)" fill="none"/>
      </g>
      <g id="Grupo_1207520" data-name="Grupo 1207520" transform="translate(-0.035 3)">
        <g id="Grupo_1207519" data-name="Grupo 1207519" clip-path="url(#clip-path)">
          <path id="Trazado_1266319" data-name="Trazado 1266319" d="M29.345,43.006c1.3-3.219,1.124-8.56,2.214-12.013-.119-2.094-1.834-2.663-3.684-2.416V25.316a5.972,5.972,0,0,0-1.923-3.428c-1.555-1.236-6.458-2.34-7.148-4.055a7.694,7.694,0,0,1-.265-2.009c.123-.432,1.286-1.544,1.622-2.4.725-1.85.751-6.518.307-8.456C19.023-1.342,9.352-1.482,7.6,4.535c-.56,1.92-.51,7.453.351,9.274a10.6,10.6,0,0,0,1.509,2.009,3.584,3.584,0,0,1-1.828,3.464c-2.879,1.839-7.052,1.6-7.509,6.2-.372,3.747.276,8.064,0,11.874,0,.97.836,1.174,1.6.753a1.416,1.416,0,0,0,.249-.753c.42-3.672-.426-8.175.016-11.857A3.2,3.2,0,0,1,3.76,22.939a23.7,23.7,0,0,1,3.88-1.553c.316.917,1.149,4.75,1.776,5.167.962.639,2.64-1.459,3.576-1.822v3.93A3.74,3.74,0,0,0,11.1,30.615L9.458,39.59c-1.294.389-5.821-.913-5.629,1.229a16.426,16.426,0,0,0,.894,3.135,2.506,2.506,0,0,0,1.832,1.011c6.426-.364,13.376.482,19.739.007a3.1,3.1,0,0,0,3.051-1.965m-20.2.119H6.3L5.97,41.452H9.147c.02.605-.361,1.1,0,1.672m11.189-21.5c.077-.169-.114-.283.26-.238a27.081,27.081,0,0,1,3.159,1.361,3.316,3.316,0,0,1,1.81,1.534,9.736,9.736,0,0,1,.471,1.034v3.261h-11.2V24.731c1.076.221,2.708,2.558,3.749,1.825.468-.329,1.361-4.07,1.754-4.931m-1.547-1.162c.066.617-1.231,2.874-1.115,3.766l-2.337-1.588c.5-.316,2.421-2.972,2.734-2.915a2.649,2.649,0,0,1,.718.737m.032-13.481a4.345,4.345,0,0,1-4.745-1.31c-.375-.472-.719-1.616-1.34-1.68-.9-.092-.965.836-1.341,1.332-.473.622-1.564,1.141-2.25.581C10.036.072,19.368.891,18.821,6.982M9.147,11.772V7.842a2.483,2.483,0,0,0,1.746-.01,14.093,14.093,0,0,0,1.929-.992c.128.8,2.653,2.173,3.264,2.173h2.508c.051,0,.128-.212.251-.167V11.6c0,1.235-1.889,3.339-2.953,3.9a5.048,5.048,0,0,1-2.943.321c-1.313-.224-3.8-2.727-3.8-4.057m1.172,12.457c.036-.86-1.2-3.129-1.107-3.769.032-.223.535-.534.688-.743l2.756,2.923Zm.664-6.278c-.2-1.33,1.21-.352,1.945-.262a8.741,8.741,0,0,0,3.91-.484l.09,1-2.866,3.174a19.45,19.45,0,0,1-3.079-3.428M26.788,43.125H11.237c-.07,0-.437-.4-.4-.572.692-3.245,1.025-6.582,1.71-9.826.175-.83.168-1.932,1.034-2.31H29.464c.127,0,.322.382.242.559-.866,3.473-1.023,7.389-1.907,10.818-.111.431-.492,1.331-1.01,1.331" transform="translate(0 -0.105)" fill="#fff"/>
          <path id="Trazado_1266320" data-name="Trazado 1266320" d="M188.853,139.644a16.448,16.448,0,0,1-.332-3.46,27.942,27.942,0,0,0,1.806-2.378c1.025-2.273.984-8.37-.245-10.573-2.793-5.006-11.906-4.388-13.685,1.133a27.435,27.435,0,0,0-.029,8.73,6.451,6.451,0,0,0,2.082,2.932l-.195,3.225c-.074.239-.24.273-.428.382-2.615,1.533-7.343,1.756-9.043,4.527-1.089,1.775-1.055,6.04-.872,8.118.128,1.453,1.511,1.752,1.772.869.443-1.5-.11-4.569.094-6.334a3.788,3.788,0,0,1,2.542-3.256c2.458-1.18,8.075-3.273,10.731-3.273,2.779,0,9.365,2.175,11.956,3.379,3.676,1.707,1.529,6.308,2.21,9.2a.914.914,0,0,0,1.812-.115,32,32,0,0,0-.264-7.439c-1.239-3.816-6.647-4.067-9.912-5.67m-8.727-.752.322-1.81a.919.919,0,0,1,.421-.075,54.458,54.458,0,0,1,5.5.033c.684.216.273,1.517.613,2.007a23.66,23.66,0,0,0-6.855-.155m6.568-3.634-6.411-.036a4.787,4.787,0,0,1-2.155-2.679c-.4-1.381-.345-6.906.243-8.207a5.159,5.159,0,0,1,4.391-2.775c4-.387,6.152,1.761,6.4,5.349.193,2.781.382,6.726-2.469,8.348" transform="translate(-139.752 -99.788)" fill="#fff"/>
          <path id="Trazado_1266321" data-name="Trazado 1266321" d="M159.339,11.327c.63.513,4.663,2.212,4.816,2.457.044,2.082-.389,4.59,2.156,5.286l22.407-.089a2.976,2.976,0,0,0,1.884-2.463c-.283-4.382.376-9.225.006-13.551a5.348,5.348,0,0,1,.044-.833V1.811A1.759,1.759,0,0,0,188.894.052h-.846l-.036-.007-.128.007H176.45c-2.331-.052-4.649-.083-6.9,0h-3.692a1.61,1.61,0,0,0-1.61,1.61v.471s-.042,2.456-.089,3.739c-1.107.693-4.653,1.867-5.226,2.883a2.068,2.068,0,0,0,.41,2.572M165.768,6.9c.639-.875-.071-3.427.391-4.512a.433.433,0,0,1,.4-.254h21.761a.444.444,0,0,1,.445.446c-.009,1.946-.041,9.758,0,13.444a1.3,1.3,0,0,1-.369,1.047.438.438,0,0,1-.3.116l-21.453,0a.418.418,0,0,1-.256-.08c-.849-.655,0-3.343-.528-4.273-.478-.839-3.473-1.817-4.866-2.651A.444.444,0,0,1,161,9.412c1.23-.712,4.35-1.945,4.765-2.514" transform="translate(-132.128 -0.001)" fill="#fff"/>
          <path id="Trazado_1266322" data-name="Trazado 1266322" d="M32.336,188.122c.116,1.017.718,1.161,1.6.753a1.32,1.32,0,0,0,.235-.6,38.995,38.995,0,0,0,.015-6.012c-.079-.686-.446-1.278-1.221-1.053a1.067,1.067,0,0,0-.618.726c.156,1.963-.226,4.269-.007,6.186" transform="translate(-26.871 -150.868)" fill="#fff"/>
          <path id="Trazado_1266323" data-name="Trazado 1266323" d="M120.815,214.961c.706.7,2.248-.276,1.373-1.29s-2.116.553-1.373,1.29" transform="translate(-100.424 -177.667)" fill="#fff"/>
          <rect id="Rectángulo_458336" data-name="Rectángulo 458336" width="17.836" height="1.784" transform="translate(36.774 4.213)" fill="#fff"/>
          <rect id="Rectángulo_458337" data-name="Rectángulo 458337" width="17.836" height="1.784" transform="translate(36.774 8.177)" fill="#fff"/>
          <rect id="Rectángulo_458338" data-name="Rectángulo 458338" width="12.684" height="1.784" transform="translate(36.774 12.141)" fill="#fff"/>
        </g>
      </g>
    </g>
  </g>
</svg>
