<svg xmlns="http://www.w3.org/2000/svg" xmlns:xlink="http://www.w3.org/1999/xlink" width="188" height="188" viewBox="0 0 188 188">
  <defs>
    <clipPath id="clip-path">
      <rect id="Rectángulo_458543" data-name="Rectángulo 458543" width="107.133" height="107.133" fill="none"/>
    </clipPath>
  </defs>
  <g id="Grupo_1207122" data-name="Grupo 1207122" transform="translate(-185.711 -2738)">
    <g id="Grupo_1204383" data-name="Grupo 1204383" transform="translate(185.711 2738)">
      <rect id="Rectángulo_455283" data-name="Rectángulo 455283" width="188" height="188" rx="19" fill="#fbf1ff"/>
    </g>
    <g id="Grupo_1207730" data-name="Grupo 1207730" transform="translate(226.145 2778.433)">
      <rect id="Rectángulo_458541" data-name="Rectángulo 458541" width="21.978" height="103.165" transform="translate(59.363 1.984)" fill="#fbce73"/>
      <g id="Grupo_1207729" data-name="Grupo 1207729">
        <g id="Grupo_1207728" data-name="Grupo 1207728" clip-path="url(#clip-path)">
          <path id="Trazado_1267185" data-name="Trazado 1267185" d="M15.057,2.772h61.5V105.937h-61.5a3.967,3.967,0,0,1-3.968-3.968V6.74a3.967,3.967,0,0,1,3.968-3.968" transform="translate(-3.153 -0.788)" fill="#ffe9a1"/>
          <path id="Trazado_1267186" data-name="Trazado 1267186" d="M6.74,24.949h3.968a3.968,3.968,0,1,1,0,7.936H6.74a3.968,3.968,0,0,1,0-7.936" transform="translate(-0.788 -7.094)" fill="#63c0f9"/>
          <path id="Trazado_1267187" data-name="Trazado 1267187" d="M6.74,54.521h3.968a3.968,3.968,0,1,1,0,7.936H6.74a3.968,3.968,0,0,1,0-7.936" transform="translate(-0.788 -15.502)" fill="#63c0f9"/>
          <path id="Trazado_1267188" data-name="Trazado 1267188" d="M6.74,84.087h3.968a3.968,3.968,0,1,1,0,7.936H6.74a3.968,3.968,0,0,1,0-7.936" transform="translate(-0.788 -23.909)" fill="#63c0f9"/>
          <path id="Trazado_1267189" data-name="Trazado 1267189" d="M6.74,113.658h3.968a3.968,3.968,0,1,1,0,7.936H6.74a3.968,3.968,0,0,1,0-7.936" transform="translate(-0.788 -32.316)" fill="#63c0f9"/>
          <path id="Trazado_1267190" data-name="Trazado 1267190" d="M130.291,30.9V88.436l5.952,7.936,5.952-7.936V30.9a5.952,5.952,0,0,0-11.9,0" transform="translate(-37.046 -7.094)" fill="#37dbc5"/>
          <path id="Trazado_1267191" data-name="Trazado 1267191" d="M142.195,108.114v3.968l-5.952,7.936-5.952-7.936v-3.968Z" transform="translate(-37.046 -30.74)" fill="#eceef0"/>
          <path id="Trazado_1267192" data-name="Trazado 1267192" d="M136.244,24.949A5.951,5.951,0,0,1,142.2,30.9v9.92h-11.9V30.9a5.951,5.951,0,0,1,5.952-5.952" transform="translate(-37.046 -7.094)" fill="#e3a4fe"/>
          <rect id="Rectángulo_458542" data-name="Rectángulo 458542" width="11.904" height="7.936" transform="translate(93.245 29.759)" fill="#eceef0"/>
          <path id="Trazado_1267193" data-name="Trazado 1267193" d="M81.342,0H11.9A5.959,5.959,0,0,0,5.952,5.951V15.87a5.952,5.952,0,1,0,0,11.9v9.258a5.952,5.952,0,0,0,0,11.9V58.2a5.952,5.952,0,1,0,0,11.9v9.258a5.952,5.952,0,1,0,0,11.9v9.92a5.957,5.957,0,0,0,5.952,5.952H81.342a1.984,1.984,0,0,0,1.984-1.984V25.362a1.984,1.984,0,0,0-3.968,0v77.8H75.39V3.967h3.968v6.27a1.984,1.984,0,0,0,3.968,0V1.983A1.985,1.985,0,0,0,81.342,0M3.968,21.823a1.985,1.985,0,0,1,1.984-1.983H9.92a1.984,1.984,0,1,1,0,3.968H5.952a1.986,1.986,0,0,1-1.984-1.985m0,21.162A1.986,1.986,0,0,1,5.952,41H7.9c.011,0,.022.006.034.006S7.958,41,7.97,41H9.92a1.984,1.984,0,0,1,0,3.968H5.952a1.986,1.986,0,0,1-1.984-1.985m0,21.162a1.985,1.985,0,0,1,1.984-1.983H9.92a1.984,1.984,0,1,1,0,3.968H7.97c-.012,0-.022-.006-.034-.006s-.022.006-.034.006H5.952a1.986,1.986,0,0,1-1.984-1.985m0,21.162a1.985,1.985,0,0,1,1.984-1.983H9.92a1.983,1.983,0,1,1,0,3.967H5.952a1.985,1.985,0,0,1-1.984-1.984M9.92,101.18V91.26a5.952,5.952,0,1,0,0-11.9V70.1a5.952,5.952,0,0,0,0-11.9V48.937a5.952,5.952,0,0,0,0-11.9V27.775a5.952,5.952,0,0,0,0-11.9V5.951A1.987,1.987,0,0,1,11.9,3.967H71.422v99.2H11.9A1.987,1.987,0,0,1,9.92,101.18" transform="translate(0 0)" fill="#202225"/>
          <path id="Trazado_1267194" data-name="Trazado 1267194" d="M112.87,19.961a1.985,1.985,0,0,0-1.984,1.984v2.5a1.984,1.984,0,1,0,3.968,0v-2.5a1.985,1.985,0,0,0-1.984-1.984" transform="translate(-31.528 -5.676)" fill="#202225"/>
          <path id="Trazado_1267195" data-name="Trazado 1267195" d="M69.385,27.721H29.706a1.984,1.984,0,0,0,0,3.968H69.385a1.984,1.984,0,1,0,0-3.968" transform="translate(-7.882 -7.882)" fill="#202225"/>
          <path id="Trazado_1267196" data-name="Trazado 1267196" d="M69.385,38.81H29.706a1.984,1.984,0,0,0,0,3.968H69.385a1.984,1.984,0,1,0,0-3.968" transform="translate(-7.882 -11.035)" fill="#202225"/>
          <path id="Trazado_1267197" data-name="Trazado 1267197" d="M69.385,49.9H29.706a1.984,1.984,0,0,0,0,3.968H69.385a1.984,1.984,0,0,0,0-3.968" transform="translate(-7.882 -14.188)" fill="#202225"/>
          <path id="Trazado_1267198" data-name="Trazado 1267198" d="M69.385,60.987H29.706a1.984,1.984,0,0,0,0,3.968H69.385a1.984,1.984,0,1,0,0-3.968" transform="translate(-7.882 -17.34)" fill="#202225"/>
          <path id="Trazado_1267199" data-name="Trazado 1267199" d="M69.385,72.076H29.706a1.984,1.984,0,0,0,0,3.968H69.385a1.984,1.984,0,1,0,0-3.968" transform="translate(-7.882 -20.493)" fill="#202225"/>
          <path id="Trazado_1267200" data-name="Trazado 1267200" d="M69.385,83.164H29.706a1.984,1.984,0,1,0,0,3.968H69.385a1.984,1.984,0,1,0,0-3.968" transform="translate(-7.882 -23.646)" fill="#202225"/>
          <path id="Trazado_1267201" data-name="Trazado 1267201" d="M69.385,94.253H29.706a1.984,1.984,0,1,0,0,3.968H69.385a1.984,1.984,0,1,0,0-3.968" transform="translate(-7.882 -26.799)" fill="#202225"/>
          <path id="Trazado_1267202" data-name="Trazado 1267202" d="M69.385,105.342H29.706a1.984,1.984,0,1,0,0,3.968H69.385a1.984,1.984,0,1,0,0-3.968" transform="translate(-7.882 -29.952)" fill="#202225"/>
          <path id="Trazado_1267203" data-name="Trazado 1267203" d="M69.385,116.43H29.706a1.984,1.984,0,1,0,0,3.968H69.385a1.984,1.984,0,1,0,0-3.968" transform="translate(-7.882 -33.105)" fill="#202225"/>
          <path id="Trazado_1267204" data-name="Trazado 1267204" d="M135.455,22.177a7.944,7.944,0,0,0-7.936,7.935V57.577a1.984,1.984,0,0,0,3.968,0V45.984h7.935V81.695h-7.935V67.807a1.984,1.984,0,0,0-3.968,0v19.84a1.992,1.992,0,0,0,.4,1.191l5.952,7.935a1.985,1.985,0,0,0,3.175,0l5.952-7.935a1.992,1.992,0,0,0,.4-1.191V30.112a7.944,7.944,0,0,0-7.936-7.935m-3.968,7.935a3.968,3.968,0,1,1,7.935,0v3.968h-7.935Zm0,7.936h7.936v3.968h-7.936Zm3.968,54.228-3.968-5.29V85.663h7.935v1.323Z" transform="translate(-36.258 -6.306)" fill="#202225"/>
        </g>
      </g>
    </g>
  </g>
</svg>
