<svg xmlns="http://www.w3.org/2000/svg" xmlns:xlink="http://www.w3.org/1999/xlink" width="127" height="128" viewBox="0 0 127 128">
  <defs>
    <clipPath id="clip-path">
      <rect id="Rectángulo_457655" data-name="Rectángulo 457655" width="65.812" height="76.622" fill="#5d0b80"/>
    </clipPath>
  </defs>
  <g id="Grupo_1206955" data-name="Grupo 1206955" transform="translate(-0.082)">
    <ellipse id="Elipse_13609" data-name="Elipse 13609" cx="63.5" cy="64" rx="63.5" ry="64" transform="translate(0.082)" fill="#fff"/>
    <g id="Grupo_1099776" data-name="Grupo 1099776" transform="translate(23.859 24)">
      <g id="Grupo_1099618" data-name="Grupo 1099618" transform="translate(0 0)">
        <rect id="Rectángulo_401104" data-name="Rectángulo 401104" width="78.706" height="80.124" transform="translate(0)" fill="none"/>
      </g>
      <g id="Grupo_1206774" data-name="Grupo 1206774" transform="translate(5.873 2.502)">
        <g id="Grupo_1206773" data-name="Grupo 1206773" clip-path="url(#clip-path)">
          <path id="Trazado_1264631" data-name="Trazado 1264631" d="M98.426,63.389h2.554v9.17c0,.58.987.891,1.5.822,11.235-.766,23.761.986,34.845,0,.743-.066,1.52-.123,1.511-1.042l-.127-69.315a1.681,1.681,0,0,0-1.159-.466c-2.874-.326-6.312.257-9.251-.005-.853,1.367-.706,2.4-2.582,2.574-3.506.319-7.543-.218-11.105-.061-1.324-.3-1.139-2.317-2.138-2.5-3.262.257-7.023-.345-10.22,0-.465.05-1.273.234-1.273.813V48.066H98.426V2.912c0-1.12,2.114-3.022,3.366-2.9L137.787,0a3.744,3.744,0,0,1,3.6,3.364V72.571a3.755,3.755,0,0,1-3.377,3.355l-36.987-.159a4.177,4.177,0,0,1-2.6-2.743Z" transform="translate(-75.575)" fill="#5d0b80"/>
          <path id="Trazado_1264632" data-name="Trazado 1264632" d="M2.653,135.654c-.283-1.081-2.167-2.8-2.5-4.931-1.129-7.254,4.109-10.261,9.889-12.634.5-1.829-.91-2.979-.909-4.722a5.018,5.018,0,0,1,4.1-4.739,43.522,43.522,0,0,1,6.949-.024c1.767.2,1.466,2.31,1.217,3.779-.165.975-.967,1.6-1.093,2.39-.433,2.691.9,5.825-1.866,7.881l2.778,2.786-1.769,1.724-1.362-1.143c-.159.037-.26.485-.264.616-.074,2.537.943,5.81,1.1,8.412l4.687-.022c1.544-1.162,2.033-2.845,4.336-2.139,1.849.567.786,3.495,1.216,4.229.074.127,2.079,1.229,2.485,1.576,2.348,2,1.257,5.107-1.721,5.436-5.955-.432-12.714.578-18.571,0-3.106-.308-4.494-2.049-6.155-4.409v5.572H20.3v2.554H5.207v11.376H2.653ZM18.9,111.162H13.448c-1.031,0-1.978,1.826-1.739,2.786,2.6-3.1,2.725-.581,4.584-.273a2.438,2.438,0,0,0,2.611-2.513m-1.162,4.876c-1.872.983-3.654-1.6-4.886.567-.689,1.211-.106,3.974,1.393,4.435,3.468,1.067,3.785-2.482,3.493-5m-5.8,16.715.711-6.148-.361-.58-1.161,1.152L9.4,125.408l2.528-2.754-1.689-1.945c-4.4,1.967-8.348,3.929-7.568,9.587.235,1.706,1.685,3.017,2.307,4.547l3.477-2.327-1.843-2.9,1.781-1.24c.319-.128.426.011.639.2.931.83,1.743,3.327,2.9,4.177m2.707-9.019c-.852.267.045,1.844,1.013,1.247a1.682,1.682,0,0,0,.46-.927c-.074-.422-1.119-.431-1.473-.32m.777,3.912c-.552-.034-.409-.074-.462.346-.295,2.346-.535,4.725-.7,7.084l2.09,0Zm-5.359,6.978c-.3-.207-3.387,2.141-3.406,2.422,1.121,1.732,2.109,4,4.345,4.423,5.367,1.008,13.093-.543,18.711.117l.795-.359C29.041,139.25,25.8,139.3,26.563,136l-2.216,1.612-12.055.009c-.782-.153-1.824-2.251-2.23-3" transform="translate(-0.001 -83.293)" fill="#5d0b80"/>
          <path id="Trazado_1264633" data-name="Trazado 1264633" d="M130.271,35.8v2.555h-2.555v5.108h5.108v-3.25l-2.9,2.782-1.737-1.737c1.952-1.491,4-4.621,5.909-5.934.244-.168.25-.289.586-.116a12.557,12.557,0,0,1,1.38,1.438c.061.351-.572.593-.678,1.134-.314,1.609.559,6.991-.476,7.882a1.934,1.934,0,0,1-1.259.367,47.74,47.74,0,0,1-6.98-.006,1.458,1.458,0,0,1-1.333-.756c-.29-.634-.3-6.927-.176-7.958.063-.527.468-1.5,1.049-1.5Z" transform="translate(-96.045 -26.965)" fill="#5d0b80"/>
          <path id="Trazado_1264634" data-name="Trazado 1264634" d="M130.271,95.8v2.555h-2.555v5.108h5.108v-3.25l-2.9,2.782-1.737-1.737c1.952-1.491,4-4.621,5.909-5.934.244-.168.25-.289.586-.116a12.557,12.557,0,0,1,1.38,1.438c.061.351-.572.593-.678,1.134-.314,1.609.559,6.991-.476,7.882a1.934,1.934,0,0,1-1.259.367,47.739,47.739,0,0,1-6.98-.006,1.458,1.458,0,0,1-1.333-.756c-.29-.634-.3-6.927-.176-7.958.063-.527.468-1.5,1.049-1.5Z" transform="translate(-96.045 -73.035)" fill="#5d0b80"/>
          <path id="Trazado_1264635" data-name="Trazado 1264635" d="M130.271,155.8v2.555h-2.555v5.107h5.108v-3.25l-2.9,2.782-1.737-1.737c1.952-1.491,4-4.621,5.909-5.934.244-.168.25-.289.586-.116a12.559,12.559,0,0,1,1.38,1.438c.061.351-.572.593-.678,1.134-.314,1.609.559,6.991-.476,7.882a1.934,1.934,0,0,1-1.259.367,47.74,47.74,0,0,1-6.98-.006,1.458,1.458,0,0,1-1.333-.756c-.29-.634-.3-6.927-.176-7.958.063-.527.468-1.5,1.049-1.5Z" transform="translate(-96.045 -119.106)" fill="#5d0b80"/>
          <path id="Trazado_1264636" data-name="Trazado 1264636" d="M145.333,226.008v-2.555h2.555V220.2l-1.709,1.376c-.371-.413-1.721-1.289-1.438-1.839a49.937,49.937,0,0,1,4.689-4.628l1.695,1.523c.061.351-.572.592-.678,1.134-.329,1.687.52,6.691-.364,7.762a2.631,2.631,0,0,1-.685.476Z" transform="translate(-111.107 -165.173)" fill="#5d0b80"/>
          <path id="Trazado_1264637" data-name="Trazado 1264637" d="M51.449,302.1H48.894v-1.626l-1.4,2.322c-.51-.3-2.072-.907-2.089-1.5a50.93,50.93,0,0,1,3.831-6.4,1.341,1.341,0,0,1,2.209.814Z" transform="translate(-34.867 -226.171)" fill="#5d0b80"/>
          <rect id="Rectángulo_457636" data-name="Rectángulo 457636" width="11.376" height="2.554" transform="translate(48.156 16.493)" fill="#5d0b80"/>
          <rect id="Rectángulo_457637" data-name="Rectángulo 457637" width="11.376" height="2.554" transform="translate(48.156 44.352)" fill="#5d0b80"/>
          <rect id="Rectángulo_457638" data-name="Rectángulo 457638" width="11.376" height="2.554" transform="translate(48.156 30.422)" fill="#5d0b80"/>
          <rect id="Rectángulo_457639" data-name="Rectángulo 457639" width="11.376" height="2.554" transform="translate(48.156 58.281)" fill="#5d0b80"/>
          <rect id="Rectángulo_457640" data-name="Rectángulo 457640" width="8.822" height="2.554" transform="translate(41.888 11.385)" fill="#5d0b80"/>
          <rect id="Rectángulo_457641" data-name="Rectángulo 457641" width="8.822" height="2.554" transform="translate(41.888 25.315)" fill="#5d0b80"/>
          <rect id="Rectángulo_457642" data-name="Rectángulo 457642" width="8.822" height="2.554" transform="translate(41.888 39.244)" fill="#5d0b80"/>
          <rect id="Rectángulo_457643" data-name="Rectángulo 457643" width="8.822" height="2.554" transform="translate(41.888 53.174)" fill="#5d0b80"/>
          <rect id="Rectángulo_457644" data-name="Rectángulo 457644" width="3.715" height="2.554" transform="translate(41.888 16.493)" fill="#5d0b80"/>
          <rect id="Rectángulo_457645" data-name="Rectángulo 457645" width="3.715" height="2.554" transform="translate(41.888 44.352)" fill="#5d0b80"/>
          <rect id="Rectángulo_457646" data-name="Rectángulo 457646" width="3.715" height="2.554" transform="translate(41.888 30.422)" fill="#5d0b80"/>
          <rect id="Rectángulo_457647" data-name="Rectángulo 457647" width="3.715" height="2.554" transform="translate(41.888 58.281)" fill="#5d0b80"/>
          <rect id="Rectángulo_457648" data-name="Rectángulo 457648" width="2.556" height="2.556" transform="translate(53.262 11.384)" fill="#5d0b80"/>
          <rect id="Rectángulo_457649" data-name="Rectángulo 457649" width="2.556" height="2.556" transform="translate(53.262 25.314)" fill="#5d0b80"/>
          <rect id="Rectángulo_457650" data-name="Rectángulo 457650" width="2.556" height="2.556" transform="translate(53.262 39.243)" fill="#5d0b80"/>
          <rect id="Rectángulo_457651" data-name="Rectángulo 457651" width="2.556" height="2.556" transform="translate(53.262 53.173)" fill="#5d0b80"/>
          <rect id="Rectángulo_457652" data-name="Rectángulo 457652" width="2.556" height="2.556" transform="translate(46.762 67.102)" fill="#5d0b80"/>
          <rect id="Rectángulo_457653" data-name="Rectángulo 457653" width="2.556" height="2.556" transform="translate(51.869 67.102)" fill="#5d0b80"/>
          <rect id="Rectángulo_457654" data-name="Rectángulo 457654" width="2.556" height="2.556" transform="translate(56.977 67.102)" fill="#5d0b80"/>
        </g>
      </g>
    </g>
  </g>
</svg>
