<svg xmlns="http://www.w3.org/2000/svg" xmlns:xlink="http://www.w3.org/1999/xlink" width="96" height="96" viewBox="0 0 96 96">
  <defs>
    <clipPath id="clip-path">
      <rect id="Rectángulo_458388" data-name="Rectángulo 458388" width="59.214" height="50.018" fill="#fff"/>
    </clipPath>
  </defs>
  <g id="Grupo_1206974" data-name="Grupo 1206974" transform="translate(-383.746 -8400.001)">
    <path id="Trazado_997400" data-name="Trazado 997400" d="M48,0A48,48,0,1,1,0,48,48,48,0,0,1,48,0Z" transform="translate(383.746 8400.001)" fill="#5d0b80"/>
    <g id="Grupo_1099776" data-name="Grupo 1099776" transform="translate(401.746 8418)">
      <g id="Grupo_1099618" data-name="Grupo 1099618" transform="translate(0 -0.137)">
        <rect id="Rectángulo_401104" data-name="Rectángulo 401104" width="59.378" height="60.093" transform="translate(0)" fill="none"/>
      </g>
      <g id="Grupo_1207570" data-name="Grupo 1207570" transform="translate(0 4.901)">
        <g id="Grupo_1207569" data-name="Grupo 1207569" clip-path="url(#clip-path)">
          <path id="Trazado_1266519" data-name="Trazado 1266519" d="M15.687,4.184h5.7C21.276,2.4,21.292.3,23.517.1,27-.214,28.5.342,28.109,4.184h5.905C34,2.4,33.62.311,35.939.1c3.613-.327,5.027.069,4.592,4.082h4.378c1.887,0,4.628,3.086,4.525,5.046L49.511,28.4a10.9,10.9,0,0,1,5.46,19.45c-2.931,2.3-4.984,2.127-8.424,2.145-13.921.077-27.842-.044-41.763.018-2.706-.242-4.616-2.8-4.784-5.4L.011,9.583A6.028,6.028,0,0,1,2.586,5.031a16.61,16.61,0,0,1,2-.848H8.967C8.925,2.442,8.662.331,10.889.1c3.55-.372,5.09.179,4.8,4.086M13.244,2.351H11.207V8.256h2.036Zm12.625,0h-2.24V8.256h2.24Zm12.422,0H36.254V8.256h2.036ZM8.967,6.424H5a4.743,4.743,0,0,0-2.14,1.526,7.866,7.866,0,0,0-.609,1.834v3.258l.305.305H46.945l.305-.305V9.58c0-1.142-1.563-3.156-2.749-3.156H40.531c.4,3.694-.961,4.4-4.388,4.082-2.314-.212-2.244-2.223-2.129-4.082H28.109c.385,3.566-1.046,4.407-4.388,4.083-2.414-.234-2.456-2.073-2.332-4.083h-5.7c.166,1.808-.2,3.886-2.332,4.082-3.386.313-4.822-.432-4.388-4.082M47.25,15.587h-45V44.605c0,1.037,1.445,3.156,2.545,3.156H41.549a10.91,10.91,0,0,1,5.7-19.345ZM47,30.709c-10.64,1.46-9.114,18.412,2.573,17.031C60.439,46.455,58.637,29.112,47,30.709" transform="translate(0 0)" fill="#fff"/>
          <path id="Trazado_1266520" data-name="Trazado 1266520" d="M27.107,89.615c.379-.379,6.12-.393,6.585-.063a1.642,1.642,0,0,1,.482.943,28.307,28.307,0,0,1-.079,5.191A1.572,1.572,0,0,1,32.663,96.7a26.748,26.748,0,0,1-5-.1,1.562,1.562,0,0,1-.616-.4c-.33-.465-.316-6.206.063-6.585M31.743,91.6H29.094v2.649h2.649Z" transform="translate(-21.35 -71.129)" fill="#fff"/>
          <path id="Trazado_1266521" data-name="Trazado 1266521" d="M186.844,89.615c.379.379.393,6.12.063,6.585a1.564,1.564,0,0,1-.616.4,26.748,26.748,0,0,1-5,.1,1.573,1.573,0,0,1-1.432-1.012,28.306,28.306,0,0,1-.079-5.191,1.641,1.641,0,0,1,.482-.943c.465-.33,6.206-.316,6.585.063M184.857,91.6h-2.649v2.649h2.649Z" transform="translate(-143.104 -71.129)" fill="#fff"/>
          <path id="Trazado_1266522" data-name="Trazado 1266522" d="M27.107,186.615c.379-.379,6.12-.393,6.585-.063a1.642,1.642,0,0,1,.482.943,28.307,28.307,0,0,1-.079,5.191,1.572,1.572,0,0,1-1.432,1.012,26.748,26.748,0,0,1-5-.1,1.562,1.562,0,0,1-.616-.4c-.33-.465-.316-6.206.063-6.585m4.636,1.987H29.094v2.649h2.649Z" transform="translate(-21.35 -148.376)" fill="#fff"/>
          <path id="Trazado_1266523" data-name="Trazado 1266523" d="M27.107,144.252c-.379-.379-.393-6.119-.063-6.585a1.675,1.675,0,0,1,1.13-.5,30.244,30.244,0,0,1,4.692,0,1.487,1.487,0,0,1,.91.312c.569.549.507,4.554.42,5.5a1.765,1.765,0,0,1-.5,1.329c-.465.33-6.206.316-6.585-.063m4.635-4.839-2.558.191-.09,2.661h2.648Z" transform="translate(-21.349 -109.164)" fill="#fff"/>
          <path id="Trazado_1266524" data-name="Trazado 1266524" d="M78.395,89.4a36.92,36.92,0,0,1,5.959.064,1.218,1.218,0,0,1,.626,1,31.971,31.971,0,0,1-.007,4.9,1.4,1.4,0,0,1-.418,1.008c-.525.452-4.492.4-5.4.322-.983-.09-1.4-.269-1.522-1.329a31.946,31.946,0,0,1-.007-4.9,1.221,1.221,0,0,1,.766-1.066m4.335,2.2H79.879v2.647H82.73Z" transform="translate(-61.748 -71.122)" fill="#fff"/>
          <path id="Trazado_1266525" data-name="Trazado 1266525" d="M129.534,89.279a40.345,40.345,0,0,1,5.469-.05,1.153,1.153,0,0,1,1.12,1.12,33.059,33.059,0,0,1,0,4.91c-.09.924-.387,1.208-1.331,1.316a29.41,29.41,0,0,1-5.209-.094c-.583-.189-.74-.666-.806-1.23-.1-.878-.105-4.884.232-5.478a.992.992,0,0,1,.524-.494m4.339,2.2h-2.851v2.647h2.851Z" transform="translate(-102.506 -71.005)" fill="#fff"/>
          <path id="Trazado_1266526" data-name="Trazado 1266526" d="M129.536,186.279a40.345,40.345,0,0,1,5.469-.05,1.153,1.153,0,0,1,1.12,1.12,33.958,33.958,0,0,1,0,5.111c-.212,1.559-4.493,1.246-5.812,1.11-.985-.1-1.412-.291-1.531-1.32-.1-.882-.107-4.881.231-5.477a.992.992,0,0,1,.524-.494m1.488,4.848h2.851v-2.648l-2.661.09Z" transform="translate(-102.507 -148.253)" fill="#fff"/>
          <path id="Trazado_1266527" data-name="Trazado 1266527" d="M78.4,186.271a38.381,38.381,0,0,1,5.466-.054,1.153,1.153,0,0,1,1.12,1.12,31.671,31.671,0,0,1,0,4.7c-.13,1.427-.635,1.437-1.935,1.526-.951.065-4.535.163-5.1-.419a1.488,1.488,0,0,1-.312-.91,31.914,31.914,0,0,1-.007-4.9,1.221,1.221,0,0,1,.766-1.066m4.335,2.2H79.879v2.647H82.73Z" transform="translate(-61.749 -148.241)" fill="#fff"/>
          <path id="Trazado_1266528" data-name="Trazado 1266528" d="M129.623,137.248a29.914,29.914,0,0,1,5.052-.048c.76.088,1.225.332,1.329,1.114a37.027,37.027,0,0,1-.116,5.605,1.218,1.218,0,0,1-1,.626,33.994,33.994,0,0,1-5.112,0c-.789-.1-1.028-.58-1.114-1.329a30.281,30.281,0,0,1,0-4.692c.076-.65.278-1.119.964-1.276m4.132,5.048-.192-2.763-2.571.1.1,2.571Z" transform="translate(-102.387 -109.195)" fill="#fff"/>
          <path id="Trazado_1266529" data-name="Trazado 1266529" d="M78.6,137.249a29.885,29.885,0,0,1,5.051-.047c.9.1,1.22.43,1.324,1.324a30.279,30.279,0,0,1,0,4.692c-.088.761-.332,1.225-1.115,1.329a37,37,0,0,1-5.605-.116,1.218,1.218,0,0,1-.626-1,32.1,32.1,0,0,1,.023-5.089,1.19,1.19,0,0,1,.947-1.089m4.131,5.047-.089-2.66c-.247-.355-2.077-.205-2.571-.1l-.191,2.762Z" transform="translate(-61.754 -109.197)" fill="#fff"/>
          <path id="Trazado_1266530" data-name="Trazado 1266530" d="M217.5,168.656a1.19,1.19,0,0,1,1.048,1.876l-7.765,7.714a1.171,1.171,0,0,1-1.362-.164,34.483,34.483,0,0,1-3.316-3.4c-.43-1.042-.093-2,1.159-1.783.778.134,2.527,2.724,3.036,2.634,1.337-.872,6.12-6.708,7.2-6.876" transform="translate(-163.991 -134.302)" fill="#fff"/>
        </g>
      </g>
    </g>
  </g>
</svg>
