<svg xmlns="http://www.w3.org/2000/svg" xmlns:xlink="http://www.w3.org/1999/xlink" width="96" height="96" viewBox="0 0 96 96">
  <defs>
    <clipPath id="clip-path">
      <rect id="Rectángulo_458385" data-name="Rectángulo 458385" width="59.378" height="59.378" fill="#fff"/>
    </clipPath>
  </defs>
  <g id="Grupo_1205944" data-name="Grupo 1205944" transform="translate(-383.746 -8399.863)">
    <path id="Trazado_997400" data-name="Trazado 997400" d="M48,0A48,48,0,1,1,0,48,48,48,0,0,1,48,0Z" transform="translate(383.746 8399.863)" fill="#5d0b80"/>
    <g id="Grupo_1099776" data-name="Grupo 1099776" transform="translate(401.747 8420)">
      <g id="Grupo_1099618" data-name="Grupo 1099618" transform="translate(0 -0.137)">
        <rect id="Rectángulo_401104" data-name="Rectángulo 401104" width="59.378" height="60.093" transform="translate(0)" fill="none"/>
      </g>
      <g id="Grupo_1207564" data-name="Grupo 1207564" transform="translate(0 -3.137)">
        <g id="Grupo_1207563" data-name="Grupo 1207563" clip-path="url(#clip-path)">
          <path id="Trazado_1266487" data-name="Trazado 1266487" d="M1.1,48.466a1.1,1.1,0,0,0,1.1-1.1v-.861a1.1,1.1,0,1,0-2.2,0v.861a1.1,1.1,0,0,0,1.1,1.1" transform="translate(0 -27.994)" fill="#fff"/>
          <path id="Trazado_1266488" data-name="Trazado 1266488" d="M50.709,20.072h-6.6a1.1,1.1,0,0,0,0,2.2h6.6a1.1,1.1,0,0,0,0-2.2" transform="translate(-26.518 -12.375)" fill="#fff"/>
          <path id="Trazado_1266489" data-name="Trazado 1266489" d="M24.039,58.114H46.031a1.1,1.1,0,0,0,0-2.2H24.039a1.1,1.1,0,0,0,0,2.2" transform="translate(-14.143 -34.473)" fill="#fff"/>
          <path id="Trazado_1266490" data-name="Trazado 1266490" d="M24.039,69.584H46.031a1.1,1.1,0,0,0,0-2.2H24.039a1.1,1.1,0,0,0,0,2.2" transform="translate(-14.143 -41.545)" fill="#fff"/>
          <path id="Trazado_1266491" data-name="Trazado 1266491" d="M24.039,46.644H46.031a1.1,1.1,0,0,0,0-2.2H24.039a1.1,1.1,0,0,0,0,2.2" transform="translate(-14.143 -27.402)" fill="#fff"/>
          <path id="Trazado_1266492" data-name="Trazado 1266492" d="M24.039,81.053H46.031a1.1,1.1,0,0,0,0-2.2H24.039a1.1,1.1,0,0,0,0,2.2" transform="translate(-14.143 -48.616)" fill="#fff"/>
          <path id="Trazado_1266493" data-name="Trazado 1266493" d="M24.039,92.523H46.031a1.1,1.1,0,0,0,0-2.2H24.039a1.1,1.1,0,0,0,0,2.2" transform="translate(-14.143 -55.687)" fill="#fff"/>
          <path id="Trazado_1266494" data-name="Trazado 1266494" d="M42.05,101.794H24.039a1.1,1.1,0,1,0,0,2.2H42.05a1.1,1.1,0,0,0,0-2.2" transform="translate(-14.143 -62.759)" fill="#fff"/>
          <path id="Trazado_1266495" data-name="Trazado 1266495" d="M40.423,113.264H24.039a1.1,1.1,0,0,0,0,2.2H40.423a1.1,1.1,0,0,0,0-2.2" transform="translate(-14.143 -69.83)" fill="#fff"/>
          <path id="Trazado_1266496" data-name="Trazado 1266496" d="M39.95,124.734H24.039a1.1,1.1,0,0,0,0,2.2H39.95a1.1,1.1,0,0,0,0-2.2" transform="translate(-14.143 -76.902)" fill="#fff"/>
          <path id="Trazado_1266497" data-name="Trazado 1266497" d="M59.374,22.24a4.37,4.37,0,0,0-1.4-3.064A4.431,4.431,0,0,0,54.825,18a4.369,4.369,0,0,0-3.063,1.4l-2.25,2.413-7.728,8.287V8.8a1.1,1.1,0,0,0-1.1-1.1h-8.8a3.3,3.3,0,0,0-3.3-3.3h-2.31A5.5,5.5,0,0,0,15.5,4.4h-2.31A3.3,3.3,0,0,0,9.9,7.7H1.1A1.1,1.1,0,0,0,0,8.8v6.191a1.1,1.1,0,0,0,2.2,0V9.9H9.9v2.2H5.5a1.1,1.1,0,0,0-1.1,1.1V53.88a1.1,1.1,0,0,0,1.1,1.1H36.286a1.1,1.1,0,0,0,1.1-1.1V47.708l.56-.6,0,0,0,0,1.634-1.752V57.178H2.2V23.138a1.1,1.1,0,1,0-2.2,0v35.14a1.1,1.1,0,0,0,1.1,1.1H40.684a1.1,1.1,0,0,0,1.1-1.1V42.992L46.85,37.56a1.1,1.1,0,1,0-1.609-1.5L37.089,44.8l-3.216-3,3.182-3.413.016-.018,4.384-4.7.012-.013,5.9-6.33,3.217,3-2.221,2.381a1.1,1.1,0,1,0,1.609,1.5l8.22-8.814a4.374,4.374,0,0,0,1.178-3.153M39.585,9.9V32.453l-2.2,2.358V13.195a1.1,1.1,0,0,0-1.1-1.1h-4.4V9.9ZM12.1,7.7a1.1,1.1,0,0,1,1.1-1.1h3.3a1.1,1.1,0,0,0,1.1-1.1,3.3,3.3,0,0,1,6.6,0,1.1,1.1,0,0,0,1.1,1.1h3.3a1.1,1.1,0,0,1,1.1,1.1v4.4H12.1ZM6.6,52.78V14.295H35.187V37.169l-5.172,5.547a1.092,1.092,0,0,0-.288.632l-.587,5.467a1.1,1.1,0,0,0,1.287,1.2l4.761-.851V52.78ZM35.59,46.41l-.5.536-3.608.646.391-3.645.5-.536ZM48.872,25.719l1.019-1.092.481-.517,3.217,3-1.5,1.608Zm7.715-1.825-1.5,1.608-3.217-3,1.5-1.609a2.2,2.2,0,0,1,3.215,3" fill="#fff"/>
        </g>
      </g>
    </g>
  </g>
</svg>
