<svg xmlns="http://www.w3.org/2000/svg" xmlns:xlink="http://www.w3.org/1999/xlink" width="96" height="96" viewBox="0 0 96 96">
  <defs>
    <clipPath id="clip-path">
      <rect id="Rectángulo_458389" data-name="Rectángulo 458389" width="59.189" height="59.411" fill="#fff"/>
    </clipPath>
  </defs>
  <g id="Grupo_1206972" data-name="Grupo 1206972" transform="translate(-383.746 -8400.001)">
    <path id="Trazado_997400" data-name="Trazado 997400" d="M48,0A48,48,0,1,1,0,48,48,48,0,0,1,48,0Z" transform="translate(383.746 8400.001)" fill="#5d0b80"/>
    <g id="Grupo_1099776" data-name="Grupo 1099776" transform="translate(401.746 8418)">
      <g id="Grupo_1099618" data-name="Grupo 1099618" transform="translate(0 -0.137)">
        <rect id="Rectángulo_401104" data-name="Rectángulo 401104" width="59.378" height="60.093" transform="translate(0)" fill="none"/>
      </g>
      <g id="Grupo_1207572" data-name="Grupo 1207572" transform="translate(-0.689 -0.137)">
        <g id="Grupo_1207571" data-name="Grupo 1207571" clip-path="url(#clip-path)">
          <path id="Trazado_1266531" data-name="Trazado 1266531" d="M83.45,107.993h5.443V96.681a3.49,3.49,0,0,1,2.2-2.221c3.746.216,8.517-.555,12.157-.061.9.123,2.482,1.377,2.482,2.281v11.312h5.443V86.3c0-.488,1.687-1.155,1.88.331l-.085,22.557-.262.419H81.917l-.262-.419-.084-40.926a2.93,2.93,0,0,1,2.643-2.8c4.667-.51,10.215.389,14.978-.008.531-.015.836.462.914.943a1.008,1.008,0,0,1-.934.926L84,67.466a1.945,1.945,0,0,0-.554.467ZM96.378,96.256H91.36a3.988,3.988,0,0,0-.6.6v11.142h5.614Zm7.485,11.737V96.851a3.989,3.989,0,0,0-.6-.6H98.249v11.737Z" transform="translate(-67.696 -54.196)" fill="#fff"/>
          <path id="Trazado_1266532" data-name="Trazado 1266532" d="M6.694,253.869a20.042,20.042,0,0,1,4,0,.967.967,0,0,1,.175,1.8c-1.185.363-3.8-.56-4.552.551L1.835,267.054a1.078,1.078,0,0,0,.6,1.031H56.8a1.028,1.028,0,0,0,.562-1.161L53.043,256.43c-.677-1.71-4.789.224-5.24-1.408-.238-.86.489-1.136,1.2-1.2,1.561-.144,4.188-.234,5.271,1.039,1.441,3.559,3.465,7.383,4.647,11,.71,2.173.03,3.6-2.255,4.127l-54.529-.076a2.817,2.817,0,0,1-1.984-3.7c1.011-3.553,3.455-7.566,4.68-11.139a3.094,3.094,0,0,1,1.861-1.2" transform="translate(0 -210.578)" fill="#fff"/>
          <path id="Trazado_1266533" data-name="Trazado 1266533" d="M218.993,2.841c8.333,7.89-2.773,18.15-6.146,25.6l-.975.49-.712-.49c-2.259-4.73-6.207-9.448-8.286-14.168C198.4,4.113,211-4.728,218.993,2.841m-8.132-.879c-5.562.672-8.707,7.067-6.116,11.975L212,26.066l7.259-12.129a8.225,8.225,0,0,0-8.4-11.975" transform="translate(-167.587 0)" fill="#fff"/>
          <path id="Trazado_1266534" data-name="Trazado 1266534" d="M114.736,96.855c2,.133,4.505-.29,6.44-.042a.963.963,0,0,1,.936.936,40.959,40.959,0,0,1-.084,5.888c-.158.487-.556.618-1.027.674a42.99,42.99,0,0,1-6.222-.078c-.487-.158-.618-.556-.674-1.027a34.917,34.917,0,0,1,0-5.28,1.214,1.214,0,0,1,.632-1.069m5.5,1.838h-4.253v3.742h4.253Z" transform="translate(-94.611 -80.278)" fill="#fff"/>
          <path id="Trazado_1266535" data-name="Trazado 1266535" d="M114.736,162.855c2,.133,4.505-.29,6.44-.042a.963.963,0,0,1,.936.936,40.958,40.958,0,0,1-.084,5.888c-.158.487-.556.618-1.027.674a42.99,42.99,0,0,1-6.222-.078c-.487-.158-.618-.556-.674-1.027a34.916,34.916,0,0,1,0-5.28,1.215,1.215,0,0,1,.632-1.069m5.5,1.838h-4.253v3.742h4.253Z" transform="translate(-94.611 -135.051)" fill="#fff"/>
          <path id="Trazado_1266536" data-name="Trazado 1266536" d="M186.716,163c1.193.134,6.265-.365,6.951.121a1.306,1.306,0,0,1,.336.515,35.982,35.982,0,0,1,.08,5.71c-.088.753-.359,1.019-1.106,1.106a42.865,42.865,0,0,1-6.222-.078c-.487-.158-.618-.556-.674-1.027a36.465,36.465,0,0,1-.006-5.455,1.016,1.016,0,0,1,.64-.891m5.492,1.835h-4.253v3.742h4.253Z" transform="translate(-154.34 -135.188)" fill="#fff"/>
          <path id="Trazado_1266537" data-name="Trazado 1266537" d="M190.55,102.9a.969.969,0,0,1-.075,1.8,10.868,10.868,0,0,1-3.82-.113c-.4-.254-.412-.655-.451-1.08a40.3,40.3,0,0,1,.044-5.585c.271-.944,1.835-.7,1.835-.036V102.9c.673.118,1.882-.162,2.467,0" transform="translate(-154.468 -80.743)" fill="#fff"/>
          <path id="Trazado_1266538" data-name="Trazado 1266538" d="M235.395,27.827c7.078,0,7.022,10.753,0,10.753-6.964,0-7.093-10.749,0-10.753m-.125,1.819c-4.549.169-4.318,7.1.125,7.1,4.617,0,4.6-7.274-.125-7.1" transform="translate(-190.978 -23.093)" fill="#fff"/>
        </g>
      </g>
    </g>
  </g>
</svg>
