<svg xmlns="http://www.w3.org/2000/svg" xmlns:xlink="http://www.w3.org/1999/xlink" width="188" height="154" viewBox="0 0 188 154">
  <defs>
    <clipPath id="clip-path">
      <rect id="Rectángulo_458444" data-name="Rectángulo 458444" width="110.39" height="135" fill="none"/>
    </clipPath>
  </defs>
  <g id="Grupo_1206990" data-name="Grupo 1206990" transform="translate(-185.711 -2738)">
    <g id="Grupo_1204383" data-name="Grupo 1204383" transform="translate(185.711 2738)">
      <rect id="Rectángulo_455283" data-name="Rectángulo 455283" width="188" height="154" rx="19" fill="#fbf1ff"/>
    </g>
    <g id="Grupo_1207602" data-name="Grupo 1207602" transform="translate(221.422 2750.641)">
      <g id="Grupo_1207601" data-name="Grupo 1207601" clip-path="url(#clip-path)">
        <path id="Trazado_1266781" data-name="Trazado 1266781" d="M96.906,117.658V6.626a4.22,4.22,0,0,0-4.22-4.219H6.627A4.219,4.219,0,0,0,2.408,6.626V117.658a4.219,4.219,0,0,0,4.219,4.219H92.686a4.22,4.22,0,0,0,4.22-4.219" transform="translate(-0.43 -0.43)" fill="#ffe9a1"/>
        <path id="Trazado_1266782" data-name="Trazado 1266782" d="M111.517,2.408h-7.908a4.219,4.219,0,0,1,4.218,4.219V117.659a4.219,4.219,0,0,1-4.218,4.218h7.908a4.219,4.219,0,0,0,4.219-4.218V6.627a4.219,4.219,0,0,0-4.219-4.219" transform="translate(-18.513 -0.43)" fill="#fbce73"/>
        <path id="Trazado_1266783" data-name="Trazado 1266783" d="M110.53,131.753V20.721a4.219,4.219,0,0,0-4.219-4.219H20.251a4.218,4.218,0,0,0-4.218,4.219V131.753a4.218,4.218,0,0,0,4.218,4.219h86.06a4.219,4.219,0,0,0,4.218-4.219" transform="translate(-2.865 -2.949)" fill="#fff9e9"/>
        <path id="Trazado_1266784" data-name="Trazado 1266784" d="M79.708,55.566H60.84V74.434A18.868,18.868,0,0,0,79.708,55.566" transform="translate(-10.871 -9.929)" fill="#fbce73"/>
        <path id="Trazado_1266785" data-name="Trazado 1266785" d="M75.6,51.461A18.869,18.869,0,1,0,56.735,70.329V51.461Z" transform="translate(-6.766 -5.824)" fill="#ffe9a1"/>
        <path id="Trazado_1266786" data-name="Trazado 1266786" d="M47.159,139.312h-8.5a.791.791,0,0,1-.79-.791V100.775a.791.791,0,0,1,.79-.791h8.5a.791.791,0,0,1,.79.791v37.746a.791.791,0,0,1-.79.791" transform="translate(-6.766 -17.865)" fill="#ecbe6b"/>
        <path id="Trazado_1266787" data-name="Trazado 1266787" d="M69.427,140.922h-8.5a.791.791,0,0,1-.79-.791V109.784a.791.791,0,0,1,.79-.791h8.5a.791.791,0,0,1,.79.791v30.347a.791.791,0,0,1-.79.791" transform="translate(-10.745 -19.475)" fill="#ecbe6b"/>
        <path id="Trazado_1266788" data-name="Trazado 1266788" d="M91.694,142.974h-8.5a.791.791,0,0,1-.791-.791V121.271a.791.791,0,0,1,.791-.791h8.5a.791.791,0,0,1,.791.791v20.912a.791.791,0,0,1-.791.791" transform="translate(-14.724 -21.528)" fill="#ecbe6b"/>
        <path id="Trazado_1266789" data-name="Trazado 1266789" d="M125.141,16.5h-7.908a4.219,4.219,0,0,1,4.219,4.219V131.753a4.219,4.219,0,0,1-4.219,4.218h7.908a4.218,4.218,0,0,0,4.219-4.218V20.721a4.219,4.219,0,0,0-4.219-4.219" transform="translate(-20.947 -2.949)" fill="#d8e2f1"/>
        <path id="Trazado_1266790" data-name="Trazado 1266790" d="M6.911,20.72V124.362c.383.045-.141.032,7.474.032V20.72A4.219,4.219,0,0,1,18.6,16.5H11.13A4.219,4.219,0,0,0,6.911,20.72" transform="translate(-1.235 -2.948)" fill="#fbce73"/>
        <path id="Trazado_1266791" data-name="Trazado 1266791" d="M108.412,111.1a1.978,1.978,0,0,0,1.978-1.978V17.771a6.2,6.2,0,0,0-6.2-6.2H99.2V6.2A6.2,6.2,0,0,0,93,0H37.888a1.978,1.978,0,1,0,0,3.955H93A2.244,2.244,0,0,1,95.244,6.2v5.38H17.386a6.2,6.2,0,0,0-6.2,6.2v101.7H6.2a2.244,2.244,0,0,1-2.241-2.241V6.2A2.244,2.244,0,0,1,6.2,3.954H28.66A1.978,1.978,0,1,0,28.66,0H6.2A6.2,6.2,0,0,0,0,6.2V117.227a6.2,6.2,0,0,0,6.2,6.2H11.19v5.38a6.2,6.2,0,0,0,6.2,6.2h86.807a6.2,6.2,0,0,0,6.2-6.2v-9.131a1.977,1.977,0,1,0-3.955,0V128.8a2.244,2.244,0,0,1-2.241,2.241H17.386a2.244,2.244,0,0,1-2.241-2.241V17.771a2.244,2.244,0,0,1,2.241-2.241h86.807a2.244,2.244,0,0,1,2.241,2.241v91.353A1.978,1.978,0,0,0,108.412,111.1Z" transform="translate(0 0)"/>
        <path id="Trazado_1266792" data-name="Trazado 1266792" d="M77.151,51.031A20.846,20.846,0,1,0,56.3,71.877,20.869,20.869,0,0,0,77.151,51.031m-22.824,0V67.806A16.891,16.891,0,1,1,73.081,49.053H56.3a1.978,1.978,0,0,0-1.978,1.978m3.955,16.775v-14.8h14.8a16.927,16.927,0,0,1-14.8,14.8" transform="translate(-6.336 -5.394)"/>
        <path id="Trazado_1266793" data-name="Trazado 1266793" d="M115.668,39.04H97.91a1.978,1.978,0,0,0,0,3.955h17.759a1.978,1.978,0,1,0,0-3.955" transform="translate(-17.141 -6.976)"/>
        <path id="Trazado_1266794" data-name="Trazado 1266794" d="M115.668,51.489H97.91a1.978,1.978,0,0,0,0,3.955h17.759a1.978,1.978,0,1,0,0-3.955" transform="translate(-17.141 -9.2)"/>
        <path id="Trazado_1266795" data-name="Trazado 1266795" d="M115.668,63.939H97.91a1.978,1.978,0,0,0,0,3.955h17.759a1.978,1.978,0,1,0,0-3.955" transform="translate(-17.141 -11.425)"/>
        <path id="Trazado_1266796" data-name="Trazado 1266796" d="M37.437,97.576a1.978,1.978,0,0,0-1.978,1.978v39.328a1.978,1.978,0,0,0,1.978,1.978H47.519a1.978,1.978,0,0,0,1.978-1.978V99.554a1.978,1.978,0,0,0-1.978-1.978Zm8.1,39.328H39.414V101.531h6.128Z" transform="translate(-6.336 -17.435)"/>
        <path id="Trazado_1266797" data-name="Trazado 1266797" d="M59.7,106.585a1.978,1.978,0,0,0-1.978,1.978v31.928a1.978,1.978,0,0,0,1.978,1.978H69.786a1.978,1.978,0,0,0,1.978-1.978V108.563a1.978,1.978,0,0,0-1.978-1.978Zm8.106,31.929H61.681V110.54h6.128Z" transform="translate(-10.315 -19.045)"/>
        <path id="Trazado_1266798" data-name="Trazado 1266798" d="M81.972,144.522H92.054a1.978,1.978,0,0,0,1.978-1.978V120.05a1.978,1.978,0,0,0-1.978-1.978H81.972a1.978,1.978,0,0,0-1.978,1.978v22.494A1.978,1.978,0,0,0,81.972,144.522Zm1.978-22.494h6.128v18.539H83.949Z" transform="translate(-14.294 -21.097)"/>
        <path id="Trazado_1266799" data-name="Trazado 1266799" d="M113.917,97.576H88.11a1.978,1.978,0,0,0,0,3.955h25.807a1.978,1.978,0,1,0,0-3.955Z" transform="translate(-15.39 -17.435)"/>
        <path id="Trazado_1266800" data-name="Trazado 1266800" d="M117.77,110.026h-8.1a1.978,1.978,0,0,0,0,3.955h8.1a1.978,1.978,0,1,0,0-3.955" transform="translate(-19.244 -19.66)"/>
        <path id="Trazado_1266801" data-name="Trazado 1266801" d="M117.77,122.475h-8.1a1.978,1.978,0,0,0,0,3.955h8.1a1.978,1.978,0,1,0,0-3.955" transform="translate(-19.244 -21.884)"/>
        <path id="Trazado_1266802" data-name="Trazado 1266802" d="M117.77,134.925h-8.1a1.978,1.978,0,0,0,0,3.955h8.1a1.978,1.978,0,1,0,0-3.955" transform="translate(-19.244 -24.109)"/>
      </g>
    </g>
  </g>
</svg>
