<svg xmlns="http://www.w3.org/2000/svg" xmlns:xlink="http://www.w3.org/1999/xlink" width="208" height="448.232" viewBox="0 0 208 448.232">
  <defs>
    <clipPath id="clip-path">
      <rect id="Rectángulo_456506" data-name="Rectángulo 456506" width="208" height="437.443" fill="none"/>
    </clipPath>
    <clipPath id="clip-path-2">
      <rect id="Rectángulo_456504" data-name="Rectángulo 456504" width="321.589" height="437.443" fill="none"/>
    </clipPath>
    <clipPath id="clip-path-3">
      <rect id="Rectángulo_456503" data-name="Rectángulo 456503" width="244.83" height="428.612" fill="none"/>
    </clipPath>
    <clipPath id="clip-path-4">
      <rect id="Rectángulo_458458" data-name="Rectángulo 458458" width="242.044" height="395.07" fill="none"/>
    </clipPath>
    <clipPath id="clip-path-6">
      <rect id="Rectángulo_458445" data-name="Rectángulo 458445" width="10.847" height="20.627" fill="none"/>
    </clipPath>
    <clipPath id="clip-path-7">
      <rect id="Rectángulo_458448" data-name="Rectángulo 458448" width="10.313" height="44.099" fill="none"/>
    </clipPath>
    <clipPath id="clip-path-8">
      <rect id="Rectángulo_458452" data-name="Rectángulo 458452" width="7.939" height="23.817" fill="none"/>
    </clipPath>
    <clipPath id="clip-path-9">
      <rect id="Rectángulo_458453" data-name="Rectángulo 458453" width="57.812" height="7.102" fill="none"/>
    </clipPath>
    <clipPath id="clip-path-11">
      <rect id="Rectángulo_458455" data-name="Rectángulo 458455" width="57.781" height="47.626" fill="none"/>
    </clipPath>
    <clipPath id="clip-path-12">
      <rect id="Rectángulo_458456" data-name="Rectángulo 458456" width="38.866" height="62.098" fill="#37dbc5"/>
    </clipPath>
  </defs>
  <g id="Grupo_1206993" data-name="Grupo 1206993" transform="translate(-41.855 87.712)">
    <g id="Grupo_1204235" data-name="Grupo 1204235" transform="translate(41.855 -87.712)">
      <path id="Trazado_1263184" data-name="Trazado 1263184" d="M0,0H208V446.9H0Z" fill="#fbf1ff"/>
    </g>
    <g id="Grupo_1205415" data-name="Grupo 1205415" transform="translate(41.856 -76.923)">
      <g id="Grupo_1205414" data-name="Grupo 1205414" clip-path="url(#clip-path)">
        <g id="Grupo_1205411" data-name="Grupo 1205411" transform="translate(-61.909)">
          <g id="Grupo_1205410" data-name="Grupo 1205410" clip-path="url(#clip-path-2)">
            <g id="Grupo_1205409" data-name="Grupo 1205409" transform="translate(25.078 8.83)" opacity="0.42">
              <g id="Grupo_1205408" data-name="Grupo 1205408">
                <g id="Grupo_1205407" data-name="Grupo 1205407" clip-path="url(#clip-path-3)">
                  <path id="Trazado_1261794" data-name="Trazado 1261794" d="M202.957,490.221c4.461-18.4,6.1-42.828,4.364-65.046s-6.816-41.823-13.527-52.208c-5.273-8.159-11.589-11.161-15.808-23.745-3.736-11.143-5.072-27.88-5.1-43.765s1.067-31.581,1.432-47.427c.926-40.184-3.188-81.9-12.143-111.665s-22.864-46.2-35.958-39.271c-15.872,8.4-28.328,47.583-43.991,59.03-9.037,6.6-18.5,3.5-27.752.908s-18.815-4.524-27.651,4.238S9.952,202.045,8.938,230.048c-1.352,37.334,9.608,74.985,4.855,109.673-1.762,12.862-5.41,22.316-8.161,33.472-8.438,34.213-7.26,86.933,2.623,117.387Z" transform="translate(36.831 -61.968)" fill="#e3a4fe"/>
                  <path id="Trazado_1261795" data-name="Trazado 1261795" d="M3.7,330.627c2.471,16.876,7.9,30.525,14.386,36.19,3.552,3.1,7.611,3.762,10.9-.937s5.4-15.839,3.968-24.987c-1.309-8.338-4.85-12.344-7.139-19.037-2.252-6.589-3.2-15.547-3.868-24.26s-1.135-17.705-2.668-25.611S14.857,257.3,11.5,257.222c-10.29-.239-10.069,57.913-7.8,73.405" transform="translate(209.713 -78.486)" fill="#9db7fe"/>
                  <path id="Trazado_1261796" data-name="Trazado 1261796" d="M342.737,329.04c-.05,7.989-.875,16.151-2.784,22.334s-5.007,10.056-7.981,8.729-5.556-8.533-5.464-16.519c.081-6.93,1.979-13.164,1.833-20.087-.094-4.448-1.028-8.516-1.187-12.952-.308-8.545,2.618-16.434,5.843-17.254,7.657-1.95,9.839,19.948,9.741,35.75" transform="translate(-326.505 -82.401)" fill="#dbe2ef"/>
                </g>
              </g>
            </g>
          </g>
        </g>
        <g id="Grupo_1207627" data-name="Grupo 1207627" transform="translate(0.156 28.263)">
          <g id="Grupo_1207626" data-name="Grupo 1207626" clip-path="url(#clip-path-4)">
            <g id="Grupo_1207625" data-name="Grupo 1207625">
              <g id="Grupo_1207624" data-name="Grupo 1207624" clip-path="url(#clip-path-4)">
                <path id="Trazado_1266803" data-name="Trazado 1266803" d="M142.869,85.762a35.667,35.667,0,1,1,46.649-19.187,35.667,35.667,0,0,1-46.649,19.187" transform="translate(-100.391 4.151)" fill="#fff"/>
                <path id="Trazado_1266804" data-name="Trazado 1266804" d="M120.924,85.225A35.667,35.667,0,0,0,148.385,19.39Z" transform="translate(-78.446 4.688)" fill="#fbce73"/>
                <path id="Trazado_1266805" data-name="Trazado 1266805" d="M171.645,81.557a35.667,35.667,0,0,1-19.187-46.649L185.519,48.7Z" transform="translate(-129.369 8.44)" fill="#18004c"/>
                <path id="Trazado_1266806" data-name="Trazado 1266806" d="M189.814,54.138l-39.97-16.673a42.987,42.987,0,0,1,23.4-23.278Z" transform="translate(-133.842 3.43)" fill="#e3a4fe"/>
                <g id="Grupo_1207605" data-name="Grupo 1207605" transform="translate(67.354 228.752)" opacity="0.54">
                  <g id="Grupo_1207604" data-name="Grupo 1207604" transform="translate(0)">
                    <g id="Grupo_1207603" data-name="Grupo 1207603" transform="translate(0)" clip-path="url(#clip-path-6)">
                      <path id="Trazado_1266807" data-name="Trazado 1266807" d="M142.789,184.213H131.943v20.626h10.847" transform="translate(-131.942 -184.213)" fill="#3041b0"/>
                    </g>
                  </g>
                </g>
                <rect id="Rectángulo_458446" data-name="Rectángulo 458446" width="10.847" height="40.046" transform="translate(49.928 209.333)" fill="#3041b0"/>
                <g id="Grupo_1207608" data-name="Grupo 1207608" transform="translate(33.925 205.279)" opacity="0.54">
                  <g id="Grupo_1207607" data-name="Grupo 1207607" transform="translate(0)">
                    <g id="Grupo_1207606" data-name="Grupo 1207606" transform="translate(0)" clip-path="url(#clip-path-7)">
                      <rect id="Rectángulo_458447" data-name="Rectángulo 458447" width="10.313" height="44.098" transform="translate(0 0.001)" fill="#3041b0"/>
                    </g>
                  </g>
                </g>
                <rect id="Rectángulo_458449" data-name="Rectángulo 458449" width="10.313" height="61.387" transform="translate(16.144 187.991)" fill="#3041b0"/>
                <path id="Trazado_1266808" data-name="Trazado 1266808" d="M184.971,186.277l-19.738-19.559h-18.67L128.781,140.4" transform="translate(-102.844 33.946)" fill="none" stroke="#ee3a58" stroke-miterlimit="10" stroke-width="0.245"/>
                <path id="Trazado_1266809" data-name="Trazado 1266809" d="M172.6,142.534v-2.292h2.292Z" transform="translate(-147.175 33.907)" fill="#ee3a58"/>
                <path id="Trazado_1266810" data-name="Trazado 1266810" d="M172.6,142.534v-2.292h2.292Z" transform="translate(-147.175 33.907)" fill="none" stroke="#ee3a58" stroke-miterlimit="10" stroke-width="0.866"/>
                <path id="Trazado_1266811" data-name="Trazado 1266811" d="M128.209,177.088a.889.889,0,1,1,.889.889.89.89,0,0,1-.889-.889" transform="translate(-47.15 42.601)" fill="#ee3a58"/>
                <path id="Trazado_1266812" data-name="Trazado 1266812" d="M128.209,177.088a.889.889,0,1,1,.889.889A.89.89,0,0,1,128.209,177.088Z" transform="translate(-47.15 42.601)" fill="none" stroke="#ee3a58" stroke-miterlimit="10" stroke-width="0.866"/>
                <line id="Línea_3725" data-name="Línea 3725" x1="85.812" transform="translate(0 249.419)" fill="none" stroke="#18293d" stroke-miterlimit="10" stroke-width="0.866"/>
                <g id="Grupo_1207611" data-name="Grupo 1207611" transform="translate(75.971 139.202)" opacity="0.5">
                  <g id="Grupo_1207610" data-name="Grupo 1207610" transform="translate(0)">
                    <g id="Grupo_1207609" data-name="Grupo 1207609" transform="translate(0)" clip-path="url(#clip-path-8)">
                      <rect id="Rectángulo_458450" data-name="Rectángulo 458450" width="7.939" height="7.939" fill="#3041b0"/>
                      <rect id="Rectángulo_458451" data-name="Rectángulo 458451" width="7.939" height="7.939" transform="translate(0 15.879)" fill="#3041b0"/>
                    </g>
                  </g>
                </g>
                <line id="Línea_3726" data-name="Línea 3726" x1="54.754" transform="translate(14.865 143.965)" fill="none" stroke="#fff" stroke-miterlimit="10" stroke-width="1.282"/>
                <line id="Línea_3727" data-name="Línea 3727" x1="54.754" transform="translate(14.865 160.638)" fill="none" stroke="#fff" stroke-miterlimit="10" stroke-width="1.282"/>
                <g id="Grupo_1207614" data-name="Grupo 1207614" transform="translate(184.233 380.333)" style="mix-blend-mode: multiply;isolation: isolate">
                  <g id="Grupo_1207613" data-name="Grupo 1207613" transform="translate(0)">
                    <g id="Grupo_1207612" data-name="Grupo 1207612" clip-path="url(#clip-path-9)">
                      <path id="Trazado_1266813" data-name="Trazado 1266813" d="M0,309.832c0,1.961,12.942,3.552,28.906,3.552s28.906-1.591,28.906-3.552-12.942-3.551-28.906-3.551S0,307.872,0,309.832" transform="translate(0 -306.281)" fill="#abc6ff"/>
                    </g>
                  </g>
                </g>
                <g id="Grupo_1207617" data-name="Grupo 1207617" transform="translate(105.361 380.333)" style="mix-blend-mode: multiply;isolation: isolate">
                  <g id="Grupo_1207616" data-name="Grupo 1207616" transform="translate(0)">
                    <g id="Grupo_1207615" data-name="Grupo 1207615" transform="translate(0)" clip-path="url(#clip-path-9)">
                      <path id="Trazado_1266814" data-name="Trazado 1266814" d="M63.515,309.832c0,1.961,12.942,3.552,28.906,3.552s28.906-1.591,28.906-3.552-12.942-3.551-28.906-3.551-28.906,1.591-28.906,3.551" transform="translate(-63.515 -306.281)" fill="#abc6ff"/>
                    </g>
                  </g>
                </g>
                <path id="Trazado_1266815" data-name="Trazado 1266815" d="M109.792,75.5s28.809,44.069,36.632,38.55c0,0,12.6-6.425,8.081-32.291-.007-2.511-.021-4.253.068-4.647,0,0,2.525-22.955,6.722-28.244a13.084,13.084,0,0,0,1.083-4.288c-12.82-3.205-17.957,24.1-21.491,39.014C140.741,84.209,116.5,65.3,116.5,65.3s-12.819-16.949-13.713-15.98c-1.3,1.4,3.671,8.962,3.671,8.962a2.544,2.544,0,0,1-1.3,1.3,3.069,3.069,0,0,0-1.835,2.376c-.324,1.3-1.621,2.053-1.835,2.808s5.563,8.761,8.3,10.74" transform="translate(-46.386 10.715)" fill="#feb28c"/>
                <path id="Trazado_1266816" data-name="Trazado 1266816" d="M114.29,71.061c7.185,5.548,13.821,12.933,13.917,12.53,3.534-14.91,8.671-42.218,21.491-39.013a13.092,13.092,0,0,1-1.083,4.288c-4.2,5.289-6.722,28.243-6.722,28.243-.089.395-.076,2.136-.067,4.648,4.513,25.866-8.083,32.291-8.083,32.291-5.987,4.223-24-17.887-32.255-29.773,3.116-3.678,9.711-9.514,12.8-13.214" transform="translate(-33.706 10.715)" fill="#37dbc5"/>
                <path id="Trazado_1266817" data-name="Trazado 1266817" d="M148.2,62.514s-2.59-7.343-3.669-7.127-5.831,2.267-5.723,4.1,4.21.324,4.21.324-.755,4.1,1.3,4.643,3.886-1.943,3.886-1.943" transform="translate(-78.515 13.39)" fill="#feb28c"/>
                <path id="Trazado_1266818" data-name="Trazado 1266818" d="M148.19,58.691s.108,1.835-1.4,2.159a1.819,1.819,0,0,1-2.268,1.511s.539.864-.648,1.08c0,0,5.075,5.506,4.319-4.751" transform="translate(-84.878 14.19)" fill="#f79988"/>
                <path id="Trazado_1266819" data-name="Trazado 1266819" d="M148.376,55.808c-1.036.337-2.039.759-3.039,1.195a8.185,8.185,0,0,0-1.5.767,1.681,1.681,0,0,0-.648.833,1.17,1.17,0,0,0,.319,1.16,4.7,4.7,0,0,0,3.38.828,2.966,2.966,0,0,1,.595-.024c.035-.115.006.272-.03.523-.034.544-.094,1.083-.1,1.632l.047.009.308-1.592c.011-.253.21-.548-.009-.807-.253-.186-.549-.1-.81-.118a4.573,4.573,0,0,1-3.035-.795.691.691,0,0,1-.215-.69,1.269,1.269,0,0,1,.471-.607,11.331,11.331,0,0,1,1.409-.784l2.881-1.485Z" transform="translate(-84.099 13.493)" fill="#ec7965"/>
                <path id="Trazado_1266820" data-name="Trazado 1266820" d="M145.272,55.406a1.572,1.572,0,0,0,.181.636,3.693,3.693,0,0,0,.346.486,3.807,3.807,0,0,0,.488.355,1.731,1.731,0,0,0,.651.207l.036-.032q-.8-.87-1.666-1.684Z" transform="translate(-85.325 13.388)" fill="#ec7965"/>
                <path id="Trazado_1266821" data-name="Trazado 1266821" d="M144.022,57.6a6.224,6.224,0,0,0,.952,1.464,10.973,10.973,0,0,0,1.257,1.2,9.828,9.828,0,0,0,1.5.916,1.957,1.957,0,0,0,.972.165.973.973,0,0,0,.762-.554l-.04-.029a1.16,1.16,0,0,1-1.514.086,13.611,13.611,0,0,1-1.387-.97,16.7,16.7,0,0,1-2.47-2.316Z" transform="translate(-86.268 13.919)" fill="#ec7965"/>
                <path id="Trazado_1266822" data-name="Trazado 1266822" d="M150.347,60.722c-.277.6-.567,1.239-1.013,1.395a1.461,1.461,0,0,1-1.395-.41,13.458,13.458,0,0,1-1.419-1.231c-.483-.435-.967-.874-1.509-1.277l-.037.031q.609.769,1.267,1.5a10.393,10.393,0,0,0,1.413,1.371,1.767,1.767,0,0,0,1.866.346,2.363,2.363,0,0,0,.874-1.717Z" transform="translate(-88.375 14.313)" fill="#ec7965"/>
                <path id="Trazado_1266823" data-name="Trazado 1266823" d="M150.125,61.387a5.982,5.982,0,0,1-.525,1.039,1.355,1.355,0,0,1-.312.354.667.667,0,0,1-.324.051,4.5,4.5,0,0,1-1.032-.151,2.452,2.452,0,0,1-1.111-.23l-.037.032a1.691,1.691,0,0,0,1.032.594A2.734,2.734,0,0,0,149,63.29a.927.927,0,0,0,.576-.212,1.752,1.752,0,0,0,.322-.519,3.2,3.2,0,0,0,.273-1.172Z" transform="translate(-90.4 14.842)" fill="#ec7965"/>
                <path id="Trazado_1266824" data-name="Trazado 1266824" d="M74.341,49.773l-7.1-35.423C66.9,11.591,71.894,4.985,74.313,3.6,80.938-.2,89.118-.742,96.594.811c24.369,5.063,14.5,48.136-10.69,41.116" transform="translate(47.95 0)" fill="#18004c"/>
                <path id="Trazado_1266825" data-name="Trazado 1266825" d="M104.855,23.787a.647.647,0,0,0,.648.669c1.536-.006,5.084-.334,5.584,3.686.507,4.064-3.366,6.352-5.7,6.478-.673.037-2.225.175-2.681.671-1.4,1.525-2.06,4.855-3.138,9.008a11.79,11.79,0,0,0,4.822,13.359s-24.022,11.812-23.8-.029c0,0,1.9-21.78,1.787-21.891-1.875-1.875-9.159-2.681-4.58-18.207C82.045,3.15,92.6,4.173,95.279,4.649c2.264.4,10.122.894,9.577,19.138" transform="translate(36.145 1.07)" fill="#feb28c"/>
                <path id="Trazado_1266826" data-name="Trazado 1266826" d="M79.93,3.6s8.4,23.4,19.821,23.676c0,0,7.544-26.357-19.821-23.676" transform="translate(42.086 0.823)" fill="#18004c"/>
                <path id="Trazado_1266827" data-name="Trazado 1266827" d="M83.239,24.818s-2.415-5.1-5.48,1.732" transform="translate(62.246 5.559)" fill="#ec7965"/>
                <path id="Trazado_1266828" data-name="Trazado 1266828" d="M92.976,20.031A3.61,3.61,0,1,0,96.5,23.721a3.608,3.608,0,0,0-3.527-3.689" transform="translate(34.669 4.843)" fill="#f79988"/>
                <path id="Trazado_1266829" data-name="Trazado 1266829" d="M101.9,22.411a3.611,3.611,0,0,0,1.207-6.65s-1.542,3.994-1.207,6.65" transform="translate(10.709 3.811)" fill="#f79988"/>
                <path id="Trazado_1266830" data-name="Trazado 1266830" d="M97.36,19.618l5.5,2.741s-2.692,1.958-4.146.887-1.356-3.627-1.356-3.627" transform="translate(18.284 4.743)" fill="#fff"/>
                <path id="Trazado_1266831" data-name="Trazado 1266831" d="M101.483,16.4l-.87,3.928L98.7,19.484a.509.509,0,0,1-.1-.868Z" transform="translate(18.373 3.965)" fill="#ec7965"/>
                <path id="Trazado_1266832" data-name="Trazado 1266832" d="M95.364,15.707c.477.667.2-1.66-.584-2.2a1.615,1.615,0,0,0-2.258.257,5.05,5.05,0,0,1,2.841,1.938" transform="translate(31.553 3.185)" fill="#1e274d"/>
                <path id="Trazado_1266833" data-name="Trazado 1266833" d="M98.511,12.315c-.79.221.882-1.422,1.829-1.349a1.616,1.616,0,0,1,1.6,1.614,5.045,5.045,0,0,0-3.429-.266" transform="translate(18.029 2.651)" fill="#1e274d"/>
                <path id="Trazado_1266834" data-name="Trazado 1266834" d="M96.457,17.823c-.266.658-.739,1.087-1.058.957s-.363-.766-.1-1.423.739-1.087,1.058-.959.363.766.1,1.424" transform="translate(27.286 3.959)" fill="#1e274d"/>
                <path id="Trazado_1266835" data-name="Trazado 1266835" d="M100.507,15.856c-.253.628-.705,1.038-1.011.915s-.345-.733-.092-1.361.707-1.037,1.011-.914.345.731.092,1.36" transform="translate(18.14 3.5)" fill="#1e274d"/>
                <path id="Trazado_1266836" data-name="Trazado 1266836" d="M90.759,29.64s6.858,1.31,10.32,1.087-11.1,7.544-10.32-1.087" transform="translate(27.768 7.166)" fill="#ec7965"/>
                <path id="Trazado_1266837" data-name="Trazado 1266837" d="M79.961,29.4a3.1,3.1,0,1,0,3.1-3.1,3.1,3.1,0,0,0-3.1,3.1" transform="translate(56.591 6.359)" fill="#fbce73"/>
                <path id="Trazado_1266838" data-name="Trazado 1266838" d="M79.961,34.393a3.1,3.1,0,1,0,3.1-3.1,3.1,3.1,0,0,0-3.1,3.1" transform="translate(56.591 7.566)" fill="#fbce73"/>
                <path id="Trazado_1266839" data-name="Trazado 1266839" d="M102.938,283l1.417,21.008s-4.257,12.5-8.211,7.661a39,39,0,0,0-7.864-7.4l-1.3-19.594Z" transform="translate(29.678 68.424)" fill="#f5826b"/>
                <path id="Trazado_1266840" data-name="Trazado 1266840" d="M87.246,286.191l-.684,25.635s12.511,1.879,7.862-6.494l-.077-23.658Z" transform="translate(39.095 68.102)" fill="#feb28c"/>
                <path id="Trazado_1266841" data-name="Trazado 1266841" d="M36.464,285.121l5.865,18.8s4.463,3.913,6.075,3.812c2.931-.184,4.468-5.242,4.468-5.242l.483-17.372Z" transform="translate(143.41 68.936)" fill="#f5826b"/>
                <path id="Trazado_1266842" data-name="Trazado 1266842" d="M35.8,281.075l4.1,31.1s8.408,2.22,3.76-6.153L44.69,282.1Z" transform="translate(152.52 67.958)" fill="#feb28c"/>
                <path id="Trazado_1266843" data-name="Trazado 1266843" d="M101.526,300.665,85.741,313.459c-.807.6-.231,1.611.924,1.619l23.3.19a1.363,1.363,0,0,0,1.252-.636l1.757-3.6c.508-1.042,1.519-1.125,1.426-.022l.862,3.478c-.047.548,5.523.4,5.573-.1a98.453,98.453,0,0,0-.893-16.024,1.162,1.162,0,0,0-1.044-.807h0a1.582,1.582,0,0,0-1.3.359c-1.572,1.521-6.6,6.1-9.282,5.173a19.624,19.624,0,0,1-4.848-2.374,1.657,1.657,0,0,0-1.936-.047" transform="translate(15.127 71.937)" fill="#056154"/>
                <path id="Trazado_1266844" data-name="Trazado 1266844" d="M42.546,298.61l8.963,15.013c.957,1.46.425,3.2-1.305,4.232-2.8,1.668-5.093,5-6.856,5.045-3.188.088-8.14-3.267-11.027-4.526-1.937-.844-3.455-2.082-3.216-3.7l2.229-15.059c.027-.186.356-.255.518-.108l3.432,3.112c1.125,1.02,4.176.882,4.934-.338.541-.872,1.809-3.681,1.809-3.681a.352.352,0,0,1,.519.012" transform="translate(153.953 72.168)" fill="#056154"/>
                <path id="Trazado_1266845" data-name="Trazado 1266845" d="M85.83,95.974c5.635,11.084,11.844,22.253,16.311,37.991,5,17.6,32.963,169.267,35.1,201.516-5.587,1.346-17.529,1.434-21.059,1.238-11.232-32.186-41.02-139.751-45.835-160.027-.74-3.117-5.557-2.433-5.181.749,2.733,23.154,8.9,119.223,10.96,156.8-2.929,1.491-22.218.837-25.6.414C46.843,294.94,18.765,144.709,48.253,95.974c13.483-1.859,16.724-.62,37.577,0" transform="translate(61.445 22.967)" fill="#5a4905"/>
                <path id="Trazado_1266846" data-name="Trazado 1266846" d="M114.156,97.126s-13.063,33.041-13.063,74.988,17.928,162.023,17.928,162.023" transform="translate(-2.511 23.483)" fill="none" stroke="#fff" stroke-miterlimit="10" stroke-width="0.423"/>
                <line id="Línea_3728" data-name="Línea 3728" x1="48.933" y1="238.267" transform="translate(145.21 119.767)" fill="none" stroke="#fff" stroke-miterlimit="10" stroke-width="0.423"/>
                <g id="Grupo_1207620" data-name="Grupo 1207620" transform="translate(108.557 119.353)" opacity="0.21" style="mix-blend-mode: multiply;isolation: isolate">
                  <g id="Grupo_1207619" data-name="Grupo 1207619" transform="translate(0)">
                    <g id="Grupo_1207618" data-name="Grupo 1207618" transform="translate(0)" clip-path="url(#clip-path-11)">
                      <path id="Trazado_1266847" data-name="Trazado 1266847" d="M60.966,97.69l57.781,46.051s-6.332-28.906-19.271-47.626Z" transform="translate(-60.966 -96.115)" fill="#1e274d"/>
                    </g>
                  </g>
                </g>
                <path id="Trazado_1266848" data-name="Trazado 1266848" d="M88.2,44c-1.032,1.2-15.747,25.953-15.279,35.289.471,9.406,7.52,29.831,7.02,31.247,0,0-.412,2.271,39.23-.138,1.395-15.792,6.083-49.738,1.926-61.391a65.177,65.177,0,0,1-14.315-7.433S87.24,53.416,88.2,44" transform="translate(28.719 10.053)" fill="#37dbc5"/>
                <g id="Grupo_1207623" data-name="Grupo 1207623" transform="translate(114.956 59.464)" style="mix-blend-mode: multiply;isolation: isolate">
                  <g id="Grupo_1207622" data-name="Grupo 1207622" transform="translate(0)">
                    <g id="Grupo_1207621" data-name="Grupo 1207621" transform="translate(0)" clip-path="url(#clip-path-12)">
                      <path id="Trazado_1266849" data-name="Trazado 1266849" d="M103.159,47.885a55.571,55.571,0,0,1,5.5,5.934c4.157,11.653-3.284,39.267-4.679,55.058-17.932,1.09-27.652,1.219-32.938,1.039Q87.8,79.268,103.159,47.885" transform="translate(-71.046 -47.886)" fill="#37dbc5"/>
                    </g>
                  </g>
                </g>
                <path id="Trazado_1266850" data-name="Trazado 1266850" d="M67.146,107.839l38.822,48.056,31.123-25.142-23.662-24.977.117-1.464a6.2,6.2,0,0,0-1.356-4.382l-8.637-10.69a8.409,8.409,0,0,0-11.825-1.257Z" transform="translate(21.574 20.82)" fill="#fff"/>
                <path id="Trazado_1266851" data-name="Trazado 1266851" d="M66.481,104.846,105.3,152.9l31.123-25.142-23.662-24.977.117-1.464a6.2,6.2,0,0,0-1.356-4.382l-8.637-10.69a8.409,8.409,0,0,0-11.825-1.257Z" transform="translate(23.065 20.097)" fill="#056154"/>
                <path id="Trazado_1266852" data-name="Trazado 1266852" d="M101.748,97.474c-6.537,8.447-31.788,31.9-33.6,33.107-3.073,2.046-7.463,3.1-9.7,3.6a5.456,5.456,0,0,0-2.876,2.094,9.183,9.183,0,0,1-1.387,1.19,1.585,1.585,0,0,0,.736,2.739,43.734,43.734,0,0,1,3.843-2.568c-3.483,3.116-7.59,7.469-6.011,8.507.777.51,6.548,6.144,12.176,3.945,1.077-.42,26.631-13.366,56.291-37.815a11.268,11.268,0,0,0,3.838-11.031c-3.676-17.355-22.49-59.929-33.226-53.322-10.071,6.2,9.911,49.553,9.911,49.553" transform="translate(51.652 11.419)" fill="#feb28c"/>
                <path id="Trazado_1266853" data-name="Trazado 1266853" d="M51.388,125.01c8.4-7.772,22.6-21.447,27.271-27.477,0,0-23.607-40.769-9.911-49.553,12.664-8.121,30.874,35.64,34.55,52.994.869,4.105-1.305,9.307-4.542,11.976-14.266,11.758-27.479,21.757-37.579,28.08-3.035-4.826-6.773-11.182-9.789-16.02" transform="translate(74.742 11.36)" fill="#37dbc5"/>
              </g>
            </g>
          </g>
        </g>
      </g>
    </g>
  </g>
</svg>
