<svg xmlns="http://www.w3.org/2000/svg" xmlns:xlink="http://www.w3.org/1999/xlink" width="160.5" height="160.501" viewBox="0 0 160.5 160.501">
  <defs>
    <clipPath id="clip-path">
      <rect id="Rectángulo_455261" data-name="Rectángulo 455261" width="38.951" height="37.623" fill="#e6fffa"/>
    </clipPath>
    <clipPath id="clip-path-2">
      <rect id="Rectángulo_458523" data-name="Rectángulo 458523" width="86.415" height="86.459" fill="none"/>
    </clipPath>
  </defs>
  <g id="Grupo_1207093" data-name="Grupo 1207093" transform="translate(-307.436 -10011.92)">
    <path id="Sustracción_130" data-name="Sustracción 130" d="M26.051,25.795H0V11.245H11.352V0h14.7V25.795Z" transform="translate(441.641 10038.471) rotate(-90)" fill="#e3a4fe" stroke="rgba(0,0,0,0)" stroke-miterlimit="10" stroke-width="1"/>
    <g id="Grupo_1178100" data-name="Grupo 1178100" transform="translate(307.436 10172.421) rotate(-90)">
      <path id="Trazado_998183" data-name="Trazado 998183" d="M0,0V37.623H25.58V24.056H38.951V0Z" transform="translate(0 0)" fill="#5d0b80"/>
      <g id="Grupo_1178099" data-name="Grupo 1178099" transform="translate(0 0)">
        <g id="Grupo_1178098" data-name="Grupo 1178098" clip-path="url(#clip-path)">
          <path id="Trazado_998184" data-name="Trazado 998184" d="M0,9.021a9.025,9.025,0,1,1,9.025,9.021A9.023,9.023,0,0,1,0,9.021" transform="translate(4.434 5.629)" fill="#e3a4fe"/>
        </g>
      </g>
    </g>
    <g id="Grupo_1177470" data-name="Grupo 1177470" transform="translate(308.059 10012.421)">
      <circle id="Elipse_13609" data-name="Elipse 13609" cx="79.688" cy="79.688" r="79.688" fill="#f0d5fe"/>
      <g id="Grupo_1099776" data-name="Grupo 1099776" transform="translate(33.723 33.96)">
        <g id="Grupo_1099618" data-name="Grupo 1099618" transform="translate(0 0)">
          <rect id="Rectángulo_401104" data-name="Rectángulo 401104" width="90.569" height="91.661" transform="translate(0)" fill="none"/>
        </g>
        <g id="Grupo_1207717" data-name="Grupo 1207717" transform="translate(3.284 4)">
          <g id="Grupo_1207716" data-name="Grupo 1207716" clip-path="url(#clip-path-2)">
            <path id="Trazado_1267112" data-name="Trazado 1267112" d="M63.735,69.25V79.7a1.7,1.7,0,0,1-.424.648l-62.525.1A1.51,1.51,0,0,1,.01,78.96l0-77.335C.02.984.145.125.907,0L43.1.112a5.817,5.817,0,0,1,2.006,1.016C50.974,5.608,56.484,13.572,62.352,18.38a6.025,6.025,0,0,1,1.384,3.149c.493,4.564-.414,9.9.051,14.555,6.876,5.508,10.059,14.068,7.19,22.655-.526,1.575-2.317,4.015-1.842,5.488.762,2.361,3.163,1.3,4.683,2.369a137.17,137.17,0,0,1,11.572,11.6,5.213,5.213,0,0,1-6.972,7.475L66.5,73.91c-1.105-1.572-.312-2.436-.616-3.14-.157-.363-1.59-1.734-2.152-1.52m-2.518-34.5V21.027c0-.748-1.922-2.417-2.7-2.591-2.9-.65-8.028.282-11.278-.054-1.218-.126-1.746-.36-1.894-1.632-.389-3.341.582-8.156-.053-11.279a6.6,6.6,0,0,0-1.064-1.958A11.83,11.83,0,0,0,42.2,2.267H2.544v75.8H61.217V70.005c-9.1,4.492-20.555,1.417-25.791-7.323A19.757,19.757,0,0,1,57.094,33.208a17.733,17.733,0,0,1,4.123,1.543M56.181,15.865,47.871,7.3v8.562ZM50.337,35.077A17.587,17.587,0,0,0,35.4,48.346,17.34,17.34,0,0,0,58.765,68.435c2.175-.837,3.331-2.286,5.986-1.586.8.212,2.61,1.922,2.853,1.88L68.753,67.4c-4.3-3.454-1.11-6.07.022-9.851A17.371,17.371,0,0,0,50.337,35.077M78.951,82.993c2.96,2.809,6.655-.545,4.054-3.928a102.568,102.568,0,0,0-10.2-10.2c-.406-.312-.642-.676-1.189-.443a32.145,32.145,0,0,0-3.232,3.1.952.952,0,0,0,.054.937Z" transform="translate(0)"/>
            <path id="Trazado_1267114" data-name="Trazado 1267114" d="M75.205,156.869c-6.111,6.184-3.68,17.02,4.643,19.733,1.194.389,3.905.473,4.475.813a1.334,1.334,0,0,1,.629,1.135c-.195,2.165-5.565.5-6.808.008-11.723-4.676-11.642-21.8.158-26.526,1.231-.493,6.154-2.026,6.6-.109s-2.46,1.443-3.343,1.6a13.073,13.073,0,0,0-6.353,3.342" transform="translate(-51.925 -112.965)"/>
            <path id="Trazado_1267115" data-name="Trazado 1267115" d="M145.928,271.113c1.789-.237,2.217,1.54.628,2.413-3.775,2.074-4.735-1.869-.628-2.413" transform="translate(-107.182 -202.826)"/>
            <path id="Trazado_1267116" data-name="Trazado 1267116" d="M51.519,215.373c.458.474,1.072,3.671-.121,3.927-1.72.82-2.432-3.269-1.774-3.924a1.683,1.683,0,0,1,1.895,0" transform="translate(-36.947 -160.921)"/>
            <path id="Trazado_1267117" data-name="Trazado 1267117" d="M112.332,129.758c1.4-.49,4.674-1.241,3.918,1.274-.357,1.188-5.629,1.385-3.918-1.274" transform="translate(-83.79 -96.71)"/>
            <path id="Trazado_1267118" data-name="Trazado 1267118" d="M62.43,159.657a1.3,1.3,0,0,1-2.142-1.017c.054-.558,1.826-2.768,2.579-2.7,2.106.2.425,3.014-.437,3.712" transform="translate(-45.103 -116.674)"/>
            <path id="Trazado_1267119" data-name="Trazado 1267119" d="M61.832,244.063c1.443-.427,3.989,3.008,2.01,3.8-1.536.617-3.819-3.267-2.01-3.8" transform="translate(-45.763 -182.577)"/>
            <path id="Trazado_1267120" data-name="Trazado 1267120" d="M86.737,267.18c.466.481.475,1.748-.186,2.081-.95.478-4.526-1.267-3.3-2.8.666-.829,2.957.173,3.484.716" transform="translate(-62.099 -199.127)"/>
            <path id="Trazado_1267121" data-name="Trazado 1267121" d="M85.508,137.052c.871-.17,1.6.1,1.6,1.085,0,1.306-3.776,3.257-4.06,1.243-.146-1.036,1.564-2.153,2.461-2.329" transform="translate(-62.128 -102.504)"/>
            <path id="Trazado_1267122" data-name="Trazado 1267122" d="M116.3,278.134c-.579.655-4.7.639-4.184-1.266.55-2.018,5.747-.5,4.184,1.266" transform="translate(-83.849 -206.429)"/>
            <path id="Trazado_1267123" data-name="Trazado 1267123" d="M50.541,183.913c2.569-.779,1.587,4.128.188,4.254-2.124.192-1.2-3.947-.188-4.254" transform="translate(-36.993 -137.538)"/>
            <path id="Trazado_1267124" data-name="Trazado 1267124" d="M147.188,133.891a1.669,1.669,0,0,1,.279,1.274c-.483,1.737-5.3.138-3.977-1.688.6-.825,3.171-.1,3.7.414" transform="translate(-107.184 -99.585)"/>
            <path id="Trazado_1267125" data-name="Trazado 1267125" d="M174.547,154.347c12.719,12.72-5.217,32.79-19.305,21.194-15.151-12.471,5.385-35.115,19.305-21.194m-14.014,21.566a12.058,12.058,0,0,0,14.052-5.21c5.716-9.826-3.407-20.726-14.052-17.448a22.485,22.485,0,0,1,3.285,12.725c-.224,3.639-1.621,6.781-3.286,9.933m-6.041-17.625,4.42-2.514c.171-.291-.574-1.319-.987-1.242-.549.269-3.886,3.267-3.433,3.757m5.787-.252c-.16-.146-1.384.558-1.678.713-.847.445-5.356,2.9-5.711,3.292-.3.33-.214,1.306-.414,1.786.461.411,6.7-3.822,7.812-4.153Zm1.008,4.031-8.545,4.553.239,1.489c.446.387,6.867-3.841,7.944-4.268Zm0,4.533-7.034,3.8.864,1.461c1.854-1.773,6.294-2.237,6.17-5.26m-1.763,5.54c-.51.2-2.625,1.112-2.514,1.63,1.354,1.84,2.015-.238,2.514-1.63" transform="translate(-112.16 -112.205)"/>
            <rect id="Rectángulo_458521" data-name="Rectángulo 458521" width="43.723" height="2.835" transform="translate(8.195 21.554)"/>
            <path id="Trazado_1267126" data-name="Trazado 1267126" d="M0,0H24.376V4.3H0Z" transform="translate(8.195 9.782)"/>
            <rect id="Rectángulo_458522" data-name="Rectángulo 458522" width="43.723" height="2.835" transform="translate(8.195 26.777)"/>
          </g>
        </g>
      </g>
    </g>
  </g>
</svg>
