<svg xmlns="http://www.w3.org/2000/svg" xmlns:xlink="http://www.w3.org/1999/xlink" width="70" height="70" viewBox="0 0 70 70">
  <defs>
    <clipPath id="clip-path">
      <rect id="Rectángulo_458485" data-name="Rectángulo 458485" width="39.209" height="39.236" fill="#5d0b80"/>
    </clipPath>
  </defs>
  <g id="Grupo_1207084" data-name="Grupo 1207084" transform="translate(-268.711 -957.695)">
    <circle id="Elipse_5614" data-name="Elipse 5614" cx="35" cy="35" r="35" transform="translate(268.711 957.695)" fill="#fff"/>
    <g id="Grupo_1207674" data-name="Grupo 1207674" transform="translate(283.711 972.695)">
      <g id="Grupo_1207673" data-name="Grupo 1207673" clip-path="url(#clip-path)">
        <path id="Trazado_1266953" data-name="Trazado 1266953" d="M39.209,65.21V95.1a2.578,2.578,0,0,1-.964.964H25.711c.135-.25.452-.295.643-.578.368-.545.331-3.22.255-3.985-.149-1.5-1.795-3.793-3.406-3.793H20.183l1.611-.639a4.206,4.206,0,1,0-4.378,0l1.61.639H16a6.919,6.919,0,0,0-1.44.617,4.287,4.287,0,0,0-1.972,3.3c-.061.776-.112,3.309.261,3.862.191.283.509.328.643.578H.964A2.579,2.579,0,0,1,0,95.1V65.21ZM2.987,68.2a1.247,1.247,0,0,0-.164.671,71.821,71.821,0,0,0,0,9.655c.058.6.114.649.707.707,3.085.3,6.647-.244,9.784,0a.733.733,0,0,0,.707-.707c-.224-3.069.275-6.5,0-9.526-.067-.729-.224-.9-.964-.964a70.667,70.667,0,0,0-9.4,0,1.247,1.247,0,0,0-.671.164m33.234,0a1.245,1.245,0,0,0-.671-.164,71.148,71.148,0,0,0-9.4,0c-.729.067-.9.224-.964.964-.272,2.984.222,6.37,0,9.4a.753.753,0,0,0,.836.836c3.059-.3,6.81.374,9.784,0a.587.587,0,0,0,.456-.186ZM3.305,82.078c-.726.44-.736,1.278.228,1.389,3.023.349,6.686-.27,9.779,0,.4.011.632-.349.691-.713a.784.784,0,0,0-.824-.71Zm32.916,1.228a.777.777,0,0,0-.541-1.262c-3.047.275-6.675-.344-9.651,0-.46.054-.756.219-.824.71.059.363.29.724.691.713,3.128-.209,6.564.257,9.653,0,.2-.017.529-.022.671-.164M3.307,86.321c-.839.182-.553,1.347.222,1.392,3.048-.274,6.673.344,9.651,0,1.073-.125,1.107-1.3.133-1.423Zm22.367,0c-.815.445-.531,1.285.356,1.389,2.975.35,6.6-.271,9.651,0,.937-.12,1.018-1.422,0-1.423Z" transform="translate(0 -56.827)" fill="#5d0b80"/>
        <path id="Trazado_1266954" data-name="Trazado 1266954" d="M39.209,6.969H0V.992C0,.761.858-.08,1.218.025l36.647,0c.4-.166,1.344.7,1.344.97ZM4.97,2C3.045.074.047,3.073,1.972,5a2.121,2.121,0,0,0,3-3m3.608-.527A2.135,2.135,0,0,0,6.993,3.758,2.1,2.1,0,1,0,8.578,1.472m25.45-.005c-1.256.378.707,1.875.671,2.079-.359.488-1.473,1.11-.9,1.83.692.874,1.665-.9,1.987-.839.488.359,1.11,1.473,1.83.9.874-.692-.9-1.665-.839-1.987.359-.488,1.473-1.11.9-1.83-.692-.874-1.665.9-1.987.839-.56-.386-.853-1.238-1.662-.994M28.346,2.856c-1.287,1.709,1.8,1.514,2.834,1.42a1.029,1.029,0,0,0,1.035-.645c.139-.2-.3-.775-.4-.775Z" transform="translate(0 0)" fill="#5d0b80"/>
        <rect id="Rectángulo_458483" data-name="Rectángulo 458483" width="8.356" height="8.356" transform="translate(4.242 12.625)" fill="#5d0b80"/>
        <rect id="Rectángulo_458484" data-name="Rectángulo 458484" width="8.356" height="8.356" transform="translate(26.611 12.625)" fill="#5d0b80"/>
      </g>
    </g>
  </g>
</svg>
