<svg xmlns="http://www.w3.org/2000/svg" xmlns:xlink="http://www.w3.org/1999/xlink" width="160.5" height="160.501" viewBox="0 0 160.5 160.501">
  <defs>
    <clipPath id="clip-path">
      <rect id="Rectángulo_455261" data-name="Rectángulo 455261" width="38.951" height="37.623" fill="#e6fffa"/>
    </clipPath>
    <clipPath id="clip-path-2">
      <rect id="Rectángulo_458509" data-name="Rectángulo 458509" width="87.654" height="87.519" fill="#5d0b80"/>
    </clipPath>
  </defs>
  <g id="Grupo_1207095" data-name="Grupo 1207095" transform="translate(-307.436 -10011.92)">
    <path id="Sustracción_130" data-name="Sustracción 130" d="M26.051,25.795H0V11.245H11.352V0h14.7V25.795Z" transform="translate(441.641 10038.471) rotate(-90)" fill="#e3a4fe" stroke="rgba(0,0,0,0)" stroke-miterlimit="10" stroke-width="1"/>
    <g id="Grupo_1178100" data-name="Grupo 1178100" transform="translate(307.436 10172.421) rotate(-90)">
      <path id="Trazado_998183" data-name="Trazado 998183" d="M0,0V37.623H25.58V24.056H38.951V0Z" transform="translate(0 0)" fill="#5d0b80"/>
      <g id="Grupo_1178099" data-name="Grupo 1178099" transform="translate(0 0)">
        <g id="Grupo_1178098" data-name="Grupo 1178098" clip-path="url(#clip-path)">
          <path id="Trazado_998184" data-name="Trazado 998184" d="M0,9.021a9.025,9.025,0,1,1,9.025,9.021A9.023,9.023,0,0,1,0,9.021" transform="translate(4.434 5.629)" fill="#e3a4fe"/>
        </g>
      </g>
    </g>
    <g id="Grupo_1177470" data-name="Grupo 1177470" transform="translate(308.059 10012.421)">
      <circle id="Elipse_13609" data-name="Elipse 13609" cx="79.688" cy="79.688" r="79.688" fill="#f0d5fe"/>
      <g id="Grupo_1099776" data-name="Grupo 1099776" transform="translate(33.723 33.96)">
        <g id="Grupo_1099618" data-name="Grupo 1099618" transform="translate(0.365 0.078)">
          <rect id="Rectángulo_401104" data-name="Rectángulo 401104" width="90.569" height="91.661" transform="translate(0)" fill="none"/>
        </g>
        <g id="Grupo_1207713" data-name="Grupo 1207713" transform="translate(1.365 2.078)">
          <g id="Grupo_1207712" data-name="Grupo 1207712" clip-path="url(#clip-path-2)">
            <path id="Trazado_1267099" data-name="Trazado 1267099" d="M12.584,26.225c-1.312-2.416,2.24-5.728,4-7.08,3.943-3.032,5.874,2.068,8.678,4.081a34,34,0,0,1,11.881-5.012C29.07,10.9,35.429-2.182,46.32.363c8.049,1.881,10.04,12.592,3.9,17.852a32,32,0,0,1,11.84,5.047l1.416-1.434c-2.437-6.188-4.571-13.079.881-18.434C66,1.782,71.777-1.11,73.732.445l13.575,27c-.739,13.815,1.039,28.75.027,42.435-.588,7.941-8.314,17.473-16.693,17.473H33.4V84.415H70.64c6.775,0,13.255-8.14,13.756-14.538,1.055-13.462-.8-28.3-.023-41.9L72.085,3.023a8.886,8.886,0,0,0-8.249,7.856c-.313,3.23,1.125,5.656,1.869,8.672,1.261-1.2,2.12-1.727,3.929-1.128.819.271,3.866,3.258,4.482,4.059,3,3.9-2.113,5.936-4.116,8.719A32.068,32.068,0,0,1,33.407,79.877a8.736,8.736,0,0,1-4.75,6.6c-2.518,1.2-11.068,1.205-14,.808a8.78,8.78,0,0,1-6.74-11.94c.511-1.3,1.548-2.088,2-3.2-5.889-2.184-7.251-9.458-3.2-14.148A8.71,8.71,0,0,1,3.777,42.371l0-.392C.974,40.5-.344,36.694.076,33.6l.511-.332,2.374.44A6.261,6.261,0,0,0,6.379,40.3c2.192.933,11.288.931,13.477,0,5.264-2.24,4.189-10.331-1.556-11.119a64.585,64.585,0,0,0-10.363,0,7.6,7.6,0,0,0-3.8,2.072c-.523-.109-2.452-1.182-2.108-1.835A13.781,13.781,0,0,1,3.953,27.6a14.917,14.917,0,0,1,3.425-1.379Zm35.5-10.412c.341.4,1.757-1.637,1.922-1.946a7.289,7.289,0,0,0-7.593-10.8,7.415,7.415,0,0,0-6.006,8c.194,1.588,1.319,4.141,2.865,4.739l-.038-1.3c-.693-.124-1.136-.21-1.289-.978a43.19,43.19,0,0,1-.019-6.412c.116-.884.328-1.086,1.2-1.2a66.524,66.524,0,0,1,9.347.02,1.027,1.027,0,0,1,.934.934,42.8,42.8,0,0,1,.019,6.411c-.128.927-.387,1.081-1.307,1.226Zm-1.6-6.939H40.878v2.936h5.605Zm-1.333,5.6H42.211v2.939H45.15ZM27.8,70.532a8.031,8.031,0,0,1,4.681,4c.346.635.43,1.509.7,1.968.319.541,3.1,1.26,3.9,1.438,25.09,5.61,44.945-21.556,31.3-43.575a28.982,28.982,0,0,0-41.463-8.62c-.586.415-3.451,2.5-3.366,2.984,3.879,3.534,3.507,10.521-1.086,13.254v.393a7.534,7.534,0,0,1,3.47,5.741l3.207.154,0,2.784-3.194.01A7.359,7.359,0,0,1,23.8,55.584l3.6,1.6,3.067-1.591,1.312,2.269L29.4,59.328c1.828,3.909,1.526,8.081-1.6,11.2M18.893,21.173l-3.635,3.584c1.347,2.1,3.751,1.322,5.876,2.135l1.855-1.868Zm49.382,0-3.9,3.851,3.635,3.584,4.1-3.851ZM7.172,43.9c-5.647,1.147-5.924,10.8,1.265,11.427,2.144.186,9.63.253,11.351-.413C25.046,52.88,24,44.5,18.6,43.836A75.7,75.7,0,0,0,7.172,43.9m1.77,16.051a5.883,5.883,0,0,0,2.515,9.707c2.251.68,10.728.614,12.872-.325,4.6-2.016,4.262-9.123-.471-10.741C22.129,58,14.8,58.052,12.72,58.26a6.611,6.611,0,0,0-3.778,1.694M14.65,73c-5.944,1.011-5.986,10.653.736,11.415a67.633,67.633,0,0,0,10.145,0c6.577-.74,6.538-10.731.273-11.486A70.032,70.032,0,0,0,14.65,73" transform="translate(0 0)" fill="#5d0b80"/>
            <path id="Trazado_1267100" data-name="Trazado 1267100" d="M106.295,137.53l1.082-2.659a47.809,47.809,0,0,0,4.788,1.465c18.45,3.767,33.652-14.235,26.39-31.729-6.011-14.483-24.274-18.777-36.4-8.971l-2-2.011c15.077-12.924,38.758-4.667,42.625,14.76,4.195,21.073-16.947,37.624-36.491,29.146" transform="translate(-73.425 -64.063)" fill="#5d0b80"/>
            <path id="Trazado_1267101" data-name="Trazado 1267101" d="M168.46,143.367l1.241,2.374-13.486,7.873c-.453,1-.2,1.93-.749,2.988a4.386,4.386,0,1,1-3.922-6.346c1.326.006,2.136,1.01,3.338.706l12.823-7.484Zm-17.393,9.892c-1.678.491-.975,3.1.681,2.844a1.466,1.466,0,1,0-.681-2.844" transform="translate(-107.861 -105.098)" fill="#5d0b80"/>
            <rect id="Rectángulo_458506" data-name="Rectángulo 458506" width="2.936" height="5.872" transform="translate(42.213 29.161)" fill="#5d0b80"/>
            <rect id="Rectángulo_458507" data-name="Rectángulo 458507" width="5.872" height="2.936" transform="translate(58.229 48.113)" fill="#5d0b80"/>
            <rect id="Rectángulo_458508" data-name="Rectángulo 458508" width="2.936" height="5.872" transform="translate(42.213 64.129)" fill="#5d0b80"/>
            <path id="Trazado_1267102" data-name="Trazado 1267102" d="M123.728,117.222l2.679,4.93-2.277,1.2c-.5-.014-2.958-4.082-3.063-4.682-.091-.516.121-.332.344-.46.377-.217,2.049-1.179,2.317-.99" transform="translate(-88.735 -85.914)" fill="#5d0b80"/>
            <path id="Trazado_1267103" data-name="Trazado 1267103" d="M191.47,118.38c.2.283-2.282,4.7-2.657,4.938-.722.459-1.775-1-2.671-.951l2.691-5.048Z" transform="translate(-136.456 -86.003)" fill="#5d0b80"/>
            <path id="Trazado_1267104" data-name="Trazado 1267104" d="M100.534,148.545l-4.949-2.932.971-2.389c.515-.363,4.393,2.368,5.2,2.645Z" transform="translate(-70.071 -104.969)" fill="#5d0b80"/>
            <path id="Trazado_1267105" data-name="Trazado 1267105" d="M214.626,210.9l-1.461,2.63-4.917-3.033,1.446-2.277Z" transform="translate(-152.66 -152.644)" fill="#5d0b80"/>
            <path id="Trazado_1267106" data-name="Trazado 1267106" d="M123.89,230.253l2.656,1.464-3.057,4.874-2.247-1.623Z" transform="translate(-88.879 -168.792)" fill="#5d0b80"/>
            <path id="Trazado_1267107" data-name="Trazado 1267107" d="M188.83,230.253l2.648,4.715-2.247,1.623-3.057-4.874Z" transform="translate(-136.479 -168.792)" fill="#5d0b80"/>
          </g>
        </g>
      </g>
    </g>
  </g>
</svg>
