<svg xmlns="http://www.w3.org/2000/svg" xmlns:xlink="http://www.w3.org/1999/xlink" width="96" height="96" viewBox="0 0 96 96">
  <defs>
    <clipPath id="clip-path">
      <rect id="Rectángulo_458137" data-name="Rectángulo 458137" width="57.811" height="57.794" fill="#fff"/>
    </clipPath>
  </defs>
  <g id="Grupo_1207230" data-name="Grupo 1207230" transform="translate(-383.746 -8400.001)">
    <path id="Trazado_997400" data-name="Trazado 997400" d="M48,0A48,48,0,1,1,0,48,48,48,0,0,1,48,0Z" transform="translate(383.746 8400.001)" fill="#5d0b80"/>
    <g id="Grupo_1099776" data-name="Grupo 1099776" transform="translate(401.746 8418)">
      <g id="Grupo_1099618" data-name="Grupo 1099618" transform="translate(-1.035 0.845)">
        <rect id="Rectángulo_401104" data-name="Rectángulo 401104" width="59.378" height="60.093" transform="translate(0)" fill="none"/>
      </g>
      <g id="Grupo_1207260" data-name="Grupo 1207260" transform="translate(-0.035 1.845)">
        <g id="Grupo_1207259" data-name="Grupo 1207259" clip-path="url(#clip-path)">
          <path id="Trazado_1265249" data-name="Trazado 1265249" d="M57.811,0V5.135H55.988V44.228H49.2V42.405h5.135V5.135H3.479v37.27H47.54v1.822H29.816v8.365c0,.14,1.523.8,1.656,2.154a2.605,2.605,0,1,1-5.134,0c.133-1.355,1.656-2.013,1.656-2.154V44.228H1.822V5.135H0V0ZM56.154,1.656H1.656V3.479h54.5ZM28.777,54.193a.984.984,0,0,0,.128,1.95c1.321,0,1.162-2.147-.128-1.95" fill="#fff"/>
          <path id="Trazado_1265250" data-name="Trazado 1265250" d="M78.54,42V75.792H31V50.448h1.822V74.136h43.9V43.657h-43.9v4.969H31V42Z" transform="translate(-25.865 -35.043)" fill="#fff"/>
          <path id="Trazado_1265251" data-name="Trazado 1265251" d="M70.448,82v2.65h6.046a8.241,8.241,0,0,1,1.563.59c1.98,1.027,2.724,3.23,2.661,5.373h3.313v6.792H75.583v-2.65H69.206c-.558,0-2.071,1.38-2.071,1.9v2.4h3.313v6.791H62V99.062h3.313c-.1-2.249.318-4.475,2.5-5.534.155-.075,1-.43,1.061-.43h6.709V90.614H78.9c.139-1.51-.077-2.915-1.467-3.751a9.628,9.628,0,0,0-1.266-.556H70.448v2.485H62V82.248L62.248,82Zm-1.656,1.822H63.656v3.313h5.135ZM82.374,92.27H77.239v3.313h5.135Zm-13.583,8.448H63.656v3.313h5.135Z" transform="translate(-51.73 -68.417)" fill="#fff"/>
          <rect id="Rectángulo_458134" data-name="Rectángulo 458134" width="1.852" height="27.784" transform="translate(33.999 9.958)" fill="#fff"/>
          <path id="Trazado_1265252" data-name="Trazado 1265252" d="M236.1,174.135H226V169h10.1Zm-1.656-3.313h-6.792v1.656h6.792Z" transform="translate(-188.564 -141.006)" fill="#fff"/>
          <path id="Trazado_1265253" data-name="Trazado 1265253" d="M236.1,92.969H226V88h10.1Zm-1.656-3.313h-6.792v1.656h6.792Z" transform="translate(-188.564 -73.423)" fill="#fff"/>
          <path id="Trazado_1265254" data-name="Trazado 1265254" d="M236.1,133.969H226V129h10.1Zm-1.656-3.313h-6.792v1.656h6.792Z" transform="translate(-188.564 -107.632)" fill="#fff"/>
          <rect id="Rectángulo_458135" data-name="Rectángulo 458135" width="1.824" height="1.658" transform="translate(11.926 10.269)" fill="#fff"/>
          <rect id="Rectángulo_458136" data-name="Rectángulo 458136" width="1.658" height="1.658" transform="translate(8.613 10.269)" fill="#fff"/>
        </g>
      </g>
    </g>
  </g>
</svg>
