<svg xmlns="http://www.w3.org/2000/svg" xmlns:xlink="http://www.w3.org/1999/xlink" width="160.5" height="160.501" viewBox="0 0 160.5 160.501">
  <defs>
    <clipPath id="clip-path">
      <rect id="Rectángulo_455261" data-name="Rectángulo 455261" width="38.951" height="37.623" fill="#e6fffa"/>
    </clipPath>
    <clipPath id="clip-path-2">
      <rect id="Rectángulo_458126" data-name="Rectángulo 458126" width="88.19" height="88.328" fill="#5d0b80"/>
    </clipPath>
  </defs>
  <g id="Grupo_1207219" data-name="Grupo 1207219" transform="translate(-307.436 -10011.92)">
    <path id="Sustracción_130" data-name="Sustracción 130" d="M26.051,25.795H0V11.245H11.352V0h14.7V25.795Z" transform="translate(441.641 10038.471) rotate(-90)" fill="#e3a4fe" stroke="rgba(0,0,0,0)" stroke-miterlimit="10" stroke-width="1"/>
    <g id="Grupo_1178100" data-name="Grupo 1178100" transform="translate(307.436 10172.421) rotate(-90)">
      <path id="Trazado_998183" data-name="Trazado 998183" d="M0,0V37.623H25.58V24.056H38.951V0Z" transform="translate(0 0)" fill="#5d0b80"/>
      <g id="Grupo_1178099" data-name="Grupo 1178099" transform="translate(0 0)">
        <g id="Grupo_1178098" data-name="Grupo 1178098" clip-path="url(#clip-path)">
          <path id="Trazado_998184" data-name="Trazado 998184" d="M0,9.021a9.025,9.025,0,1,1,9.025,9.021A9.023,9.023,0,0,1,0,9.021" transform="translate(4.434 5.629)" fill="#e3a4fe"/>
        </g>
      </g>
    </g>
    <g id="Grupo_1177470" data-name="Grupo 1177470" transform="translate(308.059 10012.421)">
      <circle id="Elipse_13609" data-name="Elipse 13609" cx="79.688" cy="79.688" r="79.688" fill="#f0d5fe"/>
      <g id="Grupo_1099776" data-name="Grupo 1099776" transform="translate(33.723 33.96)">
        <g id="Grupo_1099618" data-name="Grupo 1099618" transform="translate(0.032 0.273)">
          <rect id="Rectángulo_401104" data-name="Rectángulo 401104" width="90.569" height="91.661" transform="translate(0)" fill="none"/>
        </g>
        <g id="Grupo_1207255" data-name="Grupo 1207255" transform="translate(1.032 2.274)">
          <g id="Grupo_1207254" data-name="Grupo 1207254" clip-path="url(#clip-path-2)">
            <path id="Trazado_1265214" data-name="Trazado 1265214" d="M3,221.731c-.677-.115-2.576.349-2.83-.427.614-5.571-2.37-13.87,4.106-16.638-4.686-6.4,4.673-13.872,9.932-8.011,2.172,2.421,1.813,5.289.779,8.135,2.335-.152,3.791,2,5.732,2.866.76-2,.255-4.741,3.128-4.558l-1.574-2.988-2.671.731c-.579-.177-3.752-5.766-4.228-6.73a4.523,4.523,0,0,1-.859-2.423c.112-.931,3.109-1.95,4.037-2.49a20.546,20.546,0,0,0,5.923-4.5c1.84-2.216,2.679-6.566,5.318-2.659,1.909,2.827,4.215,7.009,5.83,10.068.3.566,1.036,1.723.893,2.266-.412,1.562-2.251.89-3.41,1.04a23.506,23.506,0,0,0-8.735,2.867c.931,1.114,1.726,3.592,2.637,4.526.68.7,1.429.344,1.552,1.589.119,1.2-1.677,9.465-2.172,10.883-1.472,4.22-6.327.526-9.053-.062v6.515H14.464V212.74c0-.421,1.076-1.35,1.631-1.126l7.487,2.82,1.826-8.338-1.264.035c-.9,1.524-.483,6.5-3.416,5.294-2-.825-3.617-3.729-6.394-4.029a55.869,55.869,0,0,0-9.062.06A3.24,3.24,0,0,0,3,209.873Zm25.275-36.745c-.364-.085-.428.053-.654.252-1.157,1.017-2.306,2.78-3.647,3.911a9.069,9.069,0,0,1-2.2,1.33l2.355,4.654c2.647-1.145,5.349-2.419,8.315-2.332ZM19.395,192.3c-.772.059-1.429,0-1.234.835a26.131,26.131,0,0,0,2.073,3.675c.153.212.226.47.569.4l.925-.616ZM8.662,197.557c-3.676.67-3.551,6.475.225,6.951,5.6.706,5.389-7.974-.225-6.951" transform="translate(0 -133.437)" fill="#5d0b80"/>
            <path id="Trazado_1265215" data-name="Trazado 1265215" d="M202.88,212.825c13.339-1.468,19.677,16.066,8.375,23.49-8.2,5.384-19.292-.422-19.779-10.145a13.138,13.138,0,0,1,11.4-13.345m9.7,17.91c4.353-5.8-.136-14.441-7.2-15.082-8.168-.741-14.023,8.238-9.349,15.081a8.933,8.933,0,0,1,3.746-4.553c-1.9-2.685-1.276-6.913,1.773-8.429a5.738,5.738,0,0,1,7.4,8.391c1.512,1.323,3.184,2.482,3.634,4.592m-6.079-6.074c2.492-2.82-1.949-6.776-4.353-3.7-2.318,2.964,2.063,6.294,4.353,3.7m-4.151,3.8a4.238,4.238,0,0,0-3.586,5.016c.15.785,2.769,1.764,3.581,1.89a11.359,11.359,0,0,0,5.609-.521c2-.754,2.511-1.234,1.842-3.541-.887-3.057-4.846-3.24-7.445-2.844" transform="translate(-141.564 -157.296)" fill="#5d0b80"/>
            <path id="Trazado_1265216" data-name="Trazado 1265216" d="M106.332.017c17.2-.773,17.815,25.536.7,25.752-16.265.205-17.286-25.006-.7-25.752M115.5,18.187c2.513-4.793,1.58-10.657-3.145-13.659-9.057-5.754-19.512,4.763-13.66,13.66a6.264,6.264,0,0,1,3.777-4.433c-.025-.59-.514-.916-.728-1.483-2.49-6.6,6.076-10.838,9.8-5.632,1.642,2.294,1.274,4.6.028,6.965l1.981,1.451ZM106.041,7.3c-3.292.754-1.981,6.595,1.747,5.4,3.48-1.11,2.085-6.283-1.747-5.4M101.221,21a9.91,9.91,0,0,0,8.861,1.28c1.762-.561,2.783-.868,2.527-2.9-.721-5.722-12.522-5.13-11.388,1.619" transform="translate(-69.762 0)" fill="#5d0b80"/>
            <path id="Trazado_1265217" data-name="Trazado 1265217" d="M252.634,54.838c17.31-1.787,19.2,24.035,2.785,25.459-17.032,1.478-19.054-23.779-2.785-25.459m9.7,17.9c3.409-4.157,1.547-10.767-2.79-13.5-9.089-5.729-19.446,4.574-13.761,13.5a9.121,9.121,0,0,1,3.774-4.577,5.714,5.714,0,1,1,9.128,0c1.679,1.181,3.139,2.49,3.649,4.577M252,66.659c2.52,2.648,6.463-.991,4.345-3.693-2.542-3.243-6.819,1.092-4.345,3.693m-.158,3.8a4.325,4.325,0,0,0-3.32,5.021c.306,1.593,5.253,2.074,6.655,1.962.875-.07,4.013-.894,4.424-1.57.853-1.4-.43-3.979-1.71-4.812-1.313-.854-4.518-.859-6.049-.6" transform="translate(-178.543 -40.481)" fill="#5d0b80"/>
            <path id="Trazado_1265218" data-name="Trazado 1265218" d="M177.751,149.235h-2.869c.119-6.495-3.372-13.233-9.381-15.9l1.054-2.592c.478-.336,3.608,1.99,4.161,2.463a21.31,21.31,0,0,1,7.035,16.032" transform="translate(-122.369 -96.643)" fill="#5d0b80"/>
            <path id="Trazado_1265219" data-name="Trazado 1265219" d="M164.339,163.73l-2.73-.229c.263-4.1-2.159-8.815-6.111-10.178l1.064-2.585c.466-.332,2.656,1.289,3.11,1.672,3.134,2.646,5.241,7.18,4.667,11.32" transform="translate(-114.974 -111.421)" fill="#5d0b80"/>
            <path id="Trazado_1265220" data-name="Trazado 1265220" d="M151.59,177.772h-2.869a6.348,6.348,0,0,0-3.093-5.6l1.269-2.109c.817-.51,3.219,2.513,3.6,3.2a8.364,8.364,0,0,1,1.094,4.511" transform="translate(-107.676 -125.702)" fill="#5d0b80"/>
            <path id="Trazado_1265221" data-name="Trazado 1265221" d="M297.626,157.791l-.289,3.1-2.84-.233.288-2.579Z" transform="translate(-217.747 -116.669)" fill="#5d0b80"/>
            <path id="Trazado_1265222" data-name="Trazado 1265222" d="M231.466,52.168c.121.162-.759,2.456-1.195,2.56l-2.337-1,.919-2.5Z" transform="translate(-168.532 -37.875)" fill="#5d0b80"/>
            <path id="Trazado_1265223" data-name="Trazado 1265223" d="M80.884,136.347l-.56,2.567-2.832-.227.534-2.854Z" transform="translate(-57.297 -100.433)" fill="#5d0b80"/>
            <path id="Trazado_1265224" data-name="Trazado 1265224" d="M293.879,179.965l-.517,3.121L290.5,182.3l.766-2.488c.609-.43,1.883.211,2.616.152" transform="translate(-214.79 -132.841)" fill="#5d0b80"/>
            <path id="Trazado_1265225" data-name="Trazado 1265225" d="M177.629,261.108v2.869l-3.128-.263.543-2.846Z" transform="translate(-129.023 -192.883)" fill="#5d0b80"/>
            <path id="Trazado_1265226" data-name="Trazado 1265226" d="M95.49,95.047l-1.455,2.314a5.569,5.569,0,0,1-2.419-1.41l1.429-2.238Z" transform="translate(-67.74 -69.29)" fill="#5d0b80"/>
            <path id="Trazado_1265227" data-name="Trazado 1265227" d="M82.5,116.715c.154-.578.681-2.728,1.2-2.844l2.338,1.012-1.053,2.581Z" transform="translate(-60.997 -84.195)" fill="#5d0b80"/>
            <path id="Trazado_1265228" data-name="Trazado 1265228" d="M82.342,179.871c-.03.733.863,2.013.431,2.6l-2.494.766-.787-2.865Z" transform="translate(-58.775 -132.994)" fill="#5d0b80"/>
            <path id="Trazado_1265229" data-name="Trazado 1265229" d="M134.4,250.487c-.379.333-2.472-1.032-2.841-1.421l1.444-2.2,2.164,1.194Z" transform="translate(-97.271 -182.53)" fill="#5d0b80"/>
            <path id="Trazado_1265230" data-name="Trazado 1265230" d="M155.657,259.172l-2.75-.762.683-2.616,2.486.771Z" transform="translate(-113.058 -189.131)" fill="#5d0b80"/>
            <path id="Trazado_1265231" data-name="Trazado 1265231" d="M80.365,158.789c-.1.644.248,2.411-.246,2.754l-2.624.115v-2.869Z" transform="translate(-57.3 -117.407)" fill="#5d0b80"/>
            <path id="Trazado_1265232" data-name="Trazado 1265232" d="M210.7,45.637l-.527,2.855-2.566-.544.483-2.727Z" transform="translate(-153.504 -33.436)" fill="#5d0b80"/>
            <path id="Trazado_1265233" data-name="Trazado 1265233" d="M286.219,200.635l-1.039,2.856-2.575-1.428,1.035-2.2Z" transform="translate(-208.955 -147.774)" fill="#5d0b80"/>
          </g>
        </g>
      </g>
    </g>
  </g>
</svg>
