<svg id="Grupo_1207316" data-name="Grupo 1207316" xmlns="http://www.w3.org/2000/svg" xmlns:xlink="http://www.w3.org/1999/xlink" width="290.711" height="315.18" viewBox="0 0 290.711 315.18">
  <defs>
    <clipPath id="clip-path">
      <rect id="Rectángulo_458167" data-name="Rectángulo 458167" width="290.711" height="315.18" fill="none"/>
    </clipPath>
    <clipPath id="clip-path-3">
      <rect id="Rectángulo_458155" data-name="Rectángulo 458155" width="76.247" height="44.021" fill="none"/>
    </clipPath>
    <clipPath id="clip-path-4">
      <path id="Trazado_1265506" data-name="Trazado 1265506" d="M642.833,440.083c-1.976,7.875-1.285,14.573-.109,21.057,1.268,9.209,4.317,28.655,7.477,37.03-.227,14.312-.339,27.526.919,40.948a15.26,15.26,0,0,0,14.661-.278c-.308-21.639-.044-46.433-3.981-70.772-1.432-8.969,5.31-20.165.411-28.484Z" transform="translate(-641.586 -439.584)" fill="none"/>
    </clipPath>
    <clipPath id="clip-path-6">
      <path id="Trazado_1265509" data-name="Trazado 1265509" d="M693.156,485.372c-4.223,13.99,4.2,31.136,7.348,44.051,7.347,17.8,5.19,37.054,9.06,55.066,5.024,2.105,8.526,2.294,14.053-.624-1.011-22.022-1.444-45.4-6.524-70.242-2.146-9.317,5.731-20.951-.481-29.281Z" transform="translate(-691.995 -484.342)" fill="none"/>
    </clipPath>
    <clipPath id="clip-path-8">
      <path id="Trazado_1265513" data-name="Trazado 1265513" d="M640.479,268.693c-1.224,7.908.1,17.179,2.776,27.806a21.543,21.543,0,0,1,.538,7.124c-.919,8.883-3.894,21.112-5.1,27.863,4.322.729,35.707,9.961,44.608,1.912-6.323-23.361-5.071-40.271,4.162-58.713-5.163-9.212-20.44-16.45-32.215-16.45-7.6,0-13.741,3.015-14.765,10.458" transform="translate(-638.689 -258.235)" fill="none"/>
    </clipPath>
    <clipPath id="clip-path-10">
      <path id="Trazado_1265518" data-name="Trazado 1265518" d="M671.3,198.778a25.533,25.533,0,0,0,.174,11.428c.417,6.87,3.022,9.311,7.225,8.516a1.776,1.776,0,0,0,.032,1.456l-.2,2.933,12.424-4.524a10.814,10.814,0,0,1,.113-8.1l1.58-7.076-13.754-8.22Z" transform="translate(-670.734 -195.192)" fill="none"/>
    </clipPath>
    <clipPath id="clip-path-12">
      <path id="Trazado_1265525" data-name="Trazado 1265525" d="M671.519,172.081c-14.8,4.325-14.073,19.315,2.428,14.564a6.972,6.972,0,0,0,3.945,3.338,6.393,6.393,0,0,1,1.247,3.288c-.1-9.346,8.262-5.794,4.518.353a4.982,4.982,0,0,0-.145,3.5c5.942-6.725,4.565-25.564-8.127-25.565a15.606,15.606,0,0,0-3.866.521" transform="translate(-660.964 -171.56)" fill="none"/>
    </clipPath>
    <clipPath id="clip-path-14">
      <path id="Trazado_1265530" data-name="Trazado 1265530" d="M659.576,307.9c-8.953,28.739-19.469,32-43.683,40.633a19.327,19.327,0,0,1,1.231,9.373c20.2-4.227,48.309-11.732,54.058-39.558,1.013-5.007,3.266-10.749.314-15.566a4,4,0,0,0-3.547-2.446c-3.383,0-7.308,4.451-8.373,7.563" transform="translate(-615.893 -300.332)" fill="none"/>
    </clipPath>
    <clipPath id="clip-path-16">
      <rect id="Rectángulo_458162" data-name="Rectángulo 458162" width="46.608" height="31.162" fill="none"/>
    </clipPath>
    <clipPath id="clip-path-17">
      <path id="Trazado_1265536" data-name="Trazado 1265536" d="M191.73,820.25s-1.8.832-1.458,4.954l.487,3.5c-.016.929-.73,4.991,1.723,5.334h0a21.272,21.272,0,0,1,.12,2.729,1.2,1.2,0,0,0,1.166.1s.051-2.1.1-2.526a16.486,16.486,0,0,0,3.984,0l2.04-2.719-1.263-3.3-.583-5.246s-.689-3.356-3.876-3.356a6.516,6.516,0,0,0-2.438.539" transform="translate(-190.228 -819.711)" fill="none"/>
    </clipPath>
    <clipPath id="clip-path-19">
      <path id="Trazado_1265540" data-name="Trazado 1265540" d="M210.453,853.009c-.388,2.428.278,2.213.971,6.509a23.324,23.324,0,0,1-.389,5.925,1.311,1.311,0,0,0,1.555.1,22.537,22.537,0,0,1,1.457-5.344A7.685,7.685,0,0,0,222.6,866.1a2.363,2.363,0,0,0,.287-.078l7.869-3.788c-.183-2.405-3.789-2.041-3.789-2.041s0,0,0-.011c-7.909,1.869-6.521-7.943-13.013-10.382a2.889,2.889,0,0,0-.806-.123c-2.295,0-2.691,3.328-2.691,3.328" transform="translate(-210.338 -849.681)" fill="none"/>
    </clipPath>
  </defs>
  <g id="Grupo_1207315" data-name="Grupo 1207315" clip-path="url(#clip-path)">
    <g id="Grupo_1207279" data-name="Grupo 1207279">
      <g id="Grupo_1207278" data-name="Grupo 1207278" clip-path="url(#clip-path)">
        <path id="Trazado_1265388" data-name="Trazado 1265388" d="M284.81,262.433C262.344,336.976-10.105,343.773.291,208.8,5,159.807,45.725,148.094,46.969,113.849,48.324,76.508.808,65.62,5.165,41.235c8.79-49.2,210.991-54.091,223.9-16.185,1.819,5.343,2.366,18.849,13.093,27.387,8.394,6.681,14.453,3.5,19.277,9.479,8.481,10.508-6.3,25.218.061,41.776,5.884,15.312,22.114,12.063,27.814,25.663,7,16.7-14.135,29.583-19.782,57.547-7.367,36.482,21.334,50.573,15.286,75.531" transform="translate(0 0)" fill="#d2b6ac"/>
        <path id="Trazado_1265389" data-name="Trazado 1265389" d="M344.405,467.746a33.292,33.292,0,0,0,.465-5.445L233.746,397.723a46.484,46.484,0,0,1-21.332,36.948L323.538,499.25c11.043-6.755,18.514-18.889,20.867-31.5" transform="translate(-145.432 -272.306)" fill="#fff"/>
        <path id="Trazado_1265390" data-name="Trazado 1265390" d="M322.876,498.849l-.081-.047-111.351-64.71.223-.138a46.188,46.188,0,0,0,21.258-36.819l.008-.264,111.431,64.757v.091a33.58,33.58,0,0,1-.467,5.47v0c-2.479,13.288-10.306,25.1-20.94,31.609ZM212.055,434.082l110.817,64.4c10.517-6.469,18.257-18.18,20.714-31.348a33.351,33.351,0,0,0,.462-5.326l-110.818-64.4a46.544,46.544,0,0,1-21.176,36.674" transform="translate(-144.768 -271.722)" fill="#26c6dc"/>
        <path id="Trazado_1265391" data-name="Trazado 1265391" d="M546.716,591.374c-19.034-8.1-24.027,28.81-1.37,24.222-.661-3.548-1.286-6.9-2.723-12.241a46.432,46.432,0,0,0,4.093-11.981" transform="translate(-363.081 -404.094)" fill="#37dbc5"/>
        <path id="Trazado_1265392" data-name="Trazado 1265392" d="M573.456,593.9a45.763,45.763,0,0,1-4.093,11.981c.967,3.731,1.73,6.678,2.723,12.241,11.472-2.927,12.279-17.189,1.37-24.222" transform="translate(-389.821 -406.624)" fill="#8cc1e3"/>
        <path id="Trazado_1265393" data-name="Trazado 1265393" d="M297.887,446.457c-11.762-6.1-18.266,9.243-16.186,16.573,3.113,11.62,24.477,10.514,23.913-4.041-5.9-.043-7.1-.062-11.088-.125a46.255,46.255,0,0,0,4.387-11.748c-.645-.445-.989-.638-1.026-.658" transform="translate(-192.607 -304.712)" fill="#3992d8"/>
        <path id="Trazado_1265394" data-name="Trazado 1265394" d="M327.593,451.591a46.112,46.112,0,0,1-4.387,11.749c4.879.075,5.506.085,11.088.125a15.859,15.859,0,0,0-6.7-11.873" transform="translate(-221.287 -309.187)" fill="#37dbc5"/>
        <path id="Trazado_1265395" data-name="Trazado 1265395" d="M273.532,528.223c-.133-.083-.136-.169-.011-.286.448-.4.448-.4.523-.418.96-.026-.3,1.017-.511.7m1.076-.947c-.952-.6-2.637,1.33-.979,1.208-.549.464-.549.464-.613.483-.378.084-.522-.245-.23-.394l-.359-.209c-.751.627.162.936.415.955a.964.964,0,0,0,.685-.215c1.45-1.359,1.718-1.144,1.082-1.829" transform="translate(-186.321 -360.926)" fill="#f65841"/>
        <path id="Trazado_1265396" data-name="Trazado 1265396" d="M279.467,529.882l-1.132-.658-.307.283.769.447c-.733.366-1.7.869-2.448,1.214l.387.225a16.569,16.569,0,0,0,2.731-1.511" transform="translate(-189.206 -362.34)" fill="#f65841"/>
        <path id="Trazado_1265397" data-name="Trazado 1265397" d="M280.207,536.6l-.372-.216-.326.265.372.216Z" transform="translate(-191.37 -367.244)" fill="#f65841"/>
        <path id="Trazado_1265398" data-name="Trazado 1265398" d="M285.708,533.38l-1.064-.618-1.213,1.085.359.209c.317-.273.587-.045.578.06a.235.235,0,0,1-.087.135c-.567.48-.567.48-.634.5-.423.085-.509-.262-.207-.421l-.389-.183c-.8.664.275.951.422.963a1.957,1.957,0,0,0,1.42-.986c.074-.265-.449-.511-.717-.4l.527-.473.705.41Z" transform="translate(-193.595 -364.762)" fill="#f65841"/>
        <path id="Trazado_1265399" data-name="Trazado 1265399" d="M288.059,537.813c-.161-.1-.17-.2-.029-.321.332-.278.359-.3.474-.312.865.035-.169.958-.445.633m.992-.842c-.357-.155.342-.642.41-.588.706.059-.132.845-.41.588m.9-.813c-.508-.378-1.556.139-1.391.743-1.008-.073-1.643,1.189-.356,1.313.594.011,1.241-.484,1.045-.913.5.062,1.511-.631.7-1.143" transform="translate(-196.827 -366.999)" fill="#f65841"/>
        <path id="Trazado_1265400" data-name="Trazado 1265400" d="M428.432,525.129a46.443,46.443,0,0,1-4.323,12.438c-3.5,1.108-6.8,2.155-12.058,3.353,8.743,21.64,38.151-.409,16.381-15.791" transform="translate(-282.116 -359.536)" fill="#056154"/>
        <path id="Trazado_1265401" data-name="Trazado 1265401" d="M428.057,522.05c-11.537-5.986-17.684,8.461-16.381,15.791,3.642-.874,6.788-1.629,12.058-3.353a46.636,46.636,0,0,0,4.323-12.438" transform="translate(-281.742 -356.458)" fill="#fbce73"/>
        <path id="Trazado_1265402" data-name="Trazado 1265402" d="M405.334,605.492l1.208-.519-.84.733-.368-.214m2.113-.8-.434-.252a13.237,13.237,0,0,0-2.333,1.109l.714.415-.453.37.366.213.453-.37.2.115.308-.259-.2-.115,1.378-1.226" transform="translate(-277.068 -413.838)" fill="#f2a444"/>
        <path id="Trazado_1265403" data-name="Trazado 1265403" d="M411.8,606.659l-1.046-.608-1.213,1.085.352.2c.314-.27.581-.047.571.056a.235.235,0,0,1-.087.135c-.566.48-.566.48-.633.5-.423.087-.5-.261-.2-.417l-.382-.179c-.795.663.261.943.405.953.634.064,1.485-.934,1.417-.987.078-.264-.443-.506-.705-.4l.527-.473.694.4Z" transform="translate(-279.935 -414.94)" fill="#f2a444"/>
        <path id="Trazado_1265404" data-name="Trazado 1265404" d="M413.484,614.055l-.366-.213-.325.265.366.213Z" transform="translate(-282.624 -420.274)" fill="#f2a444"/>
        <path id="Trazado_1265405" data-name="Trazado 1265405" d="M418.3,610.774a.9.9,0,0,0-1.134.191l.352.2c.43-.387.582-.006.579.03-.214.389-.573.536-.891.272l-.306.266c.693.234-.117.727-.269.742-.359.02-.408-.3-.127-.445l-.382-.178c-.808.674.266.953.413.964.587,0,1.244-.5,1.031-.926.493.079,1.5-.615.736-1.12" transform="translate(-284.699 -418.089)" fill="#f2a444"/>
        <path id="Trazado_1265406" data-name="Trazado 1265406" d="M421.076,615.115c-.161-.1-.168-.193-.026-.319.332-.279.359-.3.473-.313.858.032-.184.951-.447.632m.992-.842c-.353-.153.349-.64.412-.586.7.058-.143.84-.412.586m.9-.813c-.5-.374-1.543.154-1.386.746-.989-.068-1.648,1.181-.368,1.306.589.007,1.233-.488,1.046-.912.492.056,1.5-.637.708-1.14" transform="translate(-287.902 -419.928)" fill="#f2a444"/>
        <path id="Trazado_1265407" data-name="Trazado 1265407" d="M527.559,673.929l-1.064-.618-1.213,1.085.359.209c.317-.273.588-.045.578.061a.236.236,0,0,1-.087.135c-.566.48-.566.48-.634.5-.423.085-.509-.262-.207-.421l-.389-.183c-.8.664.275.951.422.963a1.956,1.956,0,0,0,1.42-.986c.075-.265-.451-.511-.717-.4l.527-.473.705.41Z" transform="translate(-359.181 -460.991)" fill="#004166"/>
        <path id="Trazado_1265408" data-name="Trazado 1265408" d="M529.911,678.362c-.161-.1-.17-.2-.029-.321.332-.279.359-.3.474-.312.865.035-.169.958-.445.633m.992-.842c-.357-.155.342-.642.41-.588.706.059-.132.845-.41.588m.9-.813c-.508-.378-1.556.139-1.391.743-1.008-.073-1.643,1.189-.356,1.313.594.011,1.241-.484,1.045-.913.5.062,1.511-.631.7-1.143" transform="translate(-362.414 -463.228)" fill="#004166"/>
        <path id="Trazado_1265409" data-name="Trazado 1265409" d="M534.09,684.143l-.372-.216-.326.265.372.216Z" transform="translate(-365.194 -468.259)" fill="#004166"/>
        <path id="Trazado_1265410" data-name="Trazado 1265410" d="M537.662,682.407l1.217-.514-.84.734Zm2.127-.791-.443-.258a13.121,13.121,0,0,0-2.344,1.1l.729.424-.453.37.372.216.453-.37.2.116.309-.259-.2-.116,1.378-1.226" transform="translate(-367.665 -466.501)" fill="#004166"/>
        <path id="Trazado_1265411" data-name="Trazado 1265411" d="M541.958,685.363c-.162-.1-.172-.2-.031-.322.339-.284.359-.3.474-.312.865.034-.169.957-.443.634m.992-.842c-.358-.154.344-.642.409-.588.706.06-.13.846-.409.588m.9-.813c-.509-.379-1.561.138-1.391.743-1.013-.074-1.641,1.186-.357,1.313.592.01,1.24-.487,1.046-.913.5.059,1.508-.632.7-1.143" transform="translate(-370.661 -468.02)" fill="#004166"/>
        <path id="Trazado_1265412" data-name="Trazado 1265412" d="M106.334,514.894,57.477,543.1,168.6,607.68l48.857-28.208Z" transform="translate(-39.353 -352.528)" fill="#fff"/>
        <path id="Trazado_1265413" data-name="Trazado 1265413" d="M167.917,607.467l-.079-.046L56.479,542.706l49.172-28.39.079.046,111.36,64.715ZM57.108,542.707l110.81,64.4,48.543-28.026-110.81-64.4Z" transform="translate(-38.669 -352.133)" fill="#26c6dc"/>
        <path id="Trazado_1265414" data-name="Trazado 1265414" d="M365.037,626.833l-18.45-10.722-.578.334,18.45,10.722Z" transform="translate(-236.899 -421.828)" fill="#0477bf"/>
        <path id="Trazado_1265415" data-name="Trazado 1265415" d="M325.9,617.223l-31.254-18.162-.578.334,31.254,18.163Z" transform="translate(-201.338 -410.154)" fill="#0477bf"/>
        <path id="Trazado_1265416" data-name="Trazado 1265416" d="M313.708,624.261,282.455,606.1l-.578.334L313.13,624.6Z" transform="translate(-192.99 -414.973)" fill="#0477bf"/>
        <path id="Trazado_1265417" data-name="Trazado 1265417" d="M301.513,631.3l-31.254-18.163-.58.335,31.253,18.162Z" transform="translate(-184.64 -419.792)" fill="#0477bf"/>
        <path id="Trazado_1265418" data-name="Trazado 1265418" d="M289.321,638.339l-31.254-18.163-.58.335,31.253,18.162Z" transform="translate(-176.292 -424.612)" fill="#0477bf"/>
        <path id="Trazado_1265419" data-name="Trazado 1265419" d="M479.063,693.1l-18.449-10.721-.578.334,18.449,10.721Z" transform="translate(-314.97 -467.198)" fill="#0477bf"/>
        <path id="Trazado_1265420" data-name="Trazado 1265420" d="M439.927,683.488l-31.252-18.162-.578.334,31.252,18.162Z" transform="translate(-279.408 -455.524)" fill="#0477bf"/>
        <path id="Trazado_1265421" data-name="Trazado 1265421" d="M427.735,690.527l-31.252-18.162-.578.334,31.252,18.162Z" transform="translate(-271.061 -460.343)" fill="#0477bf"/>
        <path id="Trazado_1265422" data-name="Trazado 1265422" d="M415.54,697.566,384.287,679.4l-.58.335L414.96,697.9Z" transform="translate(-262.71 -465.162)" fill="#0477bf"/>
        <path id="Trazado_1265423" data-name="Trazado 1265423" d="M403.348,704.6,372.1,686.443l-.58.335,31.252,18.162Z" transform="translate(-254.363 -469.982)" fill="#0477bf"/>
        <path id="Trazado_1265424" data-name="Trazado 1265424" d="M291.193,669.464l-18.45-10.722-.58.335,18.45,10.722Z" transform="translate(-186.34 -451.016)" fill="#0477bf"/>
        <path id="Trazado_1265425" data-name="Trazado 1265425" d="M252.056,659.855,220.8,641.692l-.58.335,31.254,18.163Z" transform="translate(-150.778 -439.342)" fill="#0477bf"/>
        <path id="Trazado_1265426" data-name="Trazado 1265426" d="M239.864,666.894,208.61,648.731l-.58.335,31.254,18.163Z" transform="translate(-142.431 -444.162)" fill="#0477bf"/>
        <path id="Trazado_1265427" data-name="Trazado 1265427" d="M227.671,673.935l-31.254-18.163-.578.334,31.254,18.162Z" transform="translate(-134.084 -448.983)" fill="#0477bf"/>
        <path id="Trazado_1265428" data-name="Trazado 1265428" d="M215.479,680.975l-31.254-18.162-.578.334L214.9,681.309Z" transform="translate(-125.737 -453.803)" fill="#0477bf"/>
        <path id="Trazado_1265429" data-name="Trazado 1265429" d="M405.221,735.729l-18.448-10.721-.58.335,18.448,10.721Z" transform="translate(-264.411 -496.386)" fill="#0477bf"/>
        <path id="Trazado_1265430" data-name="Trazado 1265430" d="M366.083,726.12l-31.253-18.162-.58.335L365.5,726.454Z" transform="translate(-228.849 -484.712)" fill="#0477bf"/>
        <path id="Trazado_1265431" data-name="Trazado 1265431" d="M353.892,733.159,322.639,715l-.58.335,31.252,18.162Z" transform="translate(-220.502 -489.531)" fill="#0477bf"/>
        <path id="Trazado_1265432" data-name="Trazado 1265432" d="M341.7,740.2l-31.252-18.162-.578.334,31.253,18.162Z" transform="translate(-212.154 -494.353)" fill="#0477bf"/>
        <path id="Trazado_1265433" data-name="Trazado 1265433" d="M329.506,747.24l-31.252-18.162-.578.334,31.253,18.162Z" transform="translate(-203.807 -499.172)" fill="#0477bf"/>
        <path id="Trazado_1265434" data-name="Trazado 1265434" d="M213.848,562.682a134.425,134.425,0,0,0-18.747,1.324,5.619,5.619,0,0,0-.867-4.6l-5.341,3.083,12.6,7.325Zm-.934-.859-11.4-6.623-6.29,3.632a5.346,5.346,0,0,1,1.955,3.747,78.324,78.324,0,0,1,15.733-.755" transform="translate(-129.328 -380.124)" fill="#d9e8f5"/>
        <path id="Trazado_1265435" data-name="Trazado 1265435" d="M211.247,560.229c-.567-.025-1.143-.042-1.724-.053l-12.35,7.13-12.6-7.325,5.34-3.083a8.349,8.349,0,0,0-.556-.725l-6.777,3.913,14.412,8.375Zm.014-.621-13.883-8.068-7.226,4.172a8.982,8.982,0,0,1,.75.613l6.29-3.632c1.9.928,11.861,7.644,14.069,6.914" transform="translate(-125.003 -377.619)" fill="#0477bf"/>
        <path id="Trazado_1265436" data-name="Trazado 1265436" d="M130.11,606.2l-10.807-.066,10.869,6.316Zm12.328.075-10.2-.062.059,5.92,10.145-5.857m-12.4-7.442-10.515,6.071,10.576.065-.061-6.135m12.557,6.212-10.431-6.062.06,6,10.371.063" transform="translate(-81.682 -410.001)" fill="#d9e8f5"/>
        <path id="Trazado_1265437" data-name="Trazado 1265437" d="M125.689,594l-.924-.537-14.8,8.546,14.412,8.375,1.034-.6-1.62.175-.012-1.188-10.869-6.316-1.935-.012.406-1.229,1.747.01,10.515-6.071-.009-.936Zm13.488,7.838-13.422-7.8.013,1.269,10.431,6.062,1.764.011-.406,1.229-1.513-.009L125.9,608.457l.01,1.042,13.268-7.66" transform="translate(-75.288 -406.322)" fill="#0477bf"/>
        <path id="Trazado_1265438" data-name="Trazado 1265438" d="M225.046,566.111c-7.21-2.215-15.166-1.428-22.617-.518-.168-3.075-3.166-5.022-5.871-5.989,2.515,1.68,4.582,4.315,3.79,7.417,7.787-.968,16.72-1.91,24.7-.91" transform="translate(-134.576 -383.14)" fill="#be1e2d"/>
        <path id="Trazado_1265439" data-name="Trazado 1265439" d="M155.518,603.687l-2.125-.013c.009.857.067,6.743.074,7.438l2.122-.229c-.008-.811-.062-6.265-.072-7.2m-.085-8.544-2.122.229c0,.382.065,6.489.071,7.071l2.124.013c-.01-.982-.064-6.466-.073-7.313" transform="translate(-104.966 -407.472)" fill="#e3a4fe"/>
        <path id="Trazado_1265440" data-name="Trazado 1265440" d="M140.156,618.218l-26.583-.162-.406,1.229,26.583.162Z" transform="translate(-77.481 -423.16)" fill="#e3a4fe"/>
        <path id="Trazado_1265441" data-name="Trazado 1265441" d="M143.826,670.184a16.363,16.363,0,0,0,2.7-1.26L35.4,604.346c-3.008,1.755-6.965,2.841-10.168.988h0c.948.456,111.125,64.762,112.071,65.032a9.293,9.293,0,0,0,6.523-.182" transform="translate(-17.275 -413.773)" fill="#fff"/>
        <path id="Trazado_1265442" data-name="Trazado 1265442" d="M139.952,670.644a7.806,7.806,0,0,1-2.879-.527c-.555-.158-35.369-20.411-77.37-44.864-18.042-10.5-32.522-18.933-34.489-20.05-.078-.041-.155-.084-.233-.129l.147-.278c.021.01.094.05.218.121,3.724,1.986,8.081-.1,9.8-1.1l.079-.046.079.046,111.361,64.716-.237.136a16.4,16.4,0,0,1-2.725,1.272,11.157,11.157,0,0,1-3.754.707M26.99,605.862c4.644,2.685,17.458,10.145,32.872,19.119,32.268,18.785,76.46,44.513,77.318,44.84a9.15,9.15,0,0,0,6.42-.18h0a15.7,15.7,0,0,0,2.433-1.113L35.228,604.133c-1.54.885-4.928,2.485-8.238,1.73" transform="translate(-17.104 -413.377)" fill="#26c6dc"/>
        <path id="Trazado_1265443" data-name="Trazado 1265443" d="M390.474,211.248,279.349,146.67l.224,79.166L390.7,290.415Z" transform="translate(-191.26 -100.419)" fill="#fff"/>
        <path id="Trazado_1265444" data-name="Trazado 1265444" d="M390.512,290.093l-.238-.138-111.2-64.624v-.09l-.225-79.442.237.138,111.2,64.624v.091ZM279.387,225.149l110.808,64.4-.223-78.8L279.164,146.348Z" transform="translate(-190.916 -99.823)" fill="#26c6dc"/>
        <path id="Trazado_1265445" data-name="Trazado 1265445" d="M406.68,242.42,313.035,188l0,1.187,93.645,54.421Z" transform="translate(-214.323 -128.716)" fill="#0477bf"/>
        <path id="Trazado_1265446" data-name="Trazado 1265446" d="M407.234,437.642l-93.645-54.421,0,1.189,93.645,54.421Z" transform="translate(-214.702 -262.378)" fill="#0477bf"/>
        <path id="Trazado_1265447" data-name="Trazado 1265447" d="M339.84,249.714l-26.674-15.5.1,35.581,26.674,15.5Z" transform="translate(-214.413 -160.357)" fill="#37dbc5"/>
        <path id="Trazado_1265448" data-name="Trazado 1265448" d="M534.875,369.219,499.91,348.9l0,1.189,34.965,20.32Z" transform="translate(-342.27 -238.879)" fill="#0477bf"/>
        <path id="Trazado_1265449" data-name="Trazado 1265449" d="M482.256,362.332l-59.231-34.422,0,1.189,59.231,34.422Z" transform="translate(-289.629 -224.508)" fill="#0477bf"/>
        <path id="Trazado_1265450" data-name="Trazado 1265450" d="M482.328,387.856,423.1,353.434l0,1.189,59.232,34.422Z" transform="translate(-289.678 -241.983)" fill="#0477bf"/>
        <path id="Trazado_1265451" data-name="Trazado 1265451" d="M482.4,413.379l-59.231-34.422,0,1.187L482.4,414.566Z" transform="translate(-289.728 -259.458)" fill="#0477bf"/>
        <path id="Trazado_1265452" data-name="Trazado 1265452" d="M482.473,438.9l-59.231-34.422,0,1.187,59.231,34.422Z" transform="translate(-289.777 -276.933)" fill="#0477bf"/>
        <path id="Trazado_1265453" data-name="Trazado 1265453" d="M447.417,111.477,336.293,46.9l.9-.522,111.124,64.578Z" transform="translate(-230.247 -31.752)" fill="#dbdbdb"/>
        <path id="Trazado_1265454" data-name="Trazado 1265454" d="M390.507,142.415A39.433,39.433,0,0,1,408.43,112.61L297.306,48.031a39.132,39.132,0,0,0-17.957,31.1l111.124,64.579c0-.43.01-.867.034-1.3" transform="translate(-191.26 -32.885)" fill="#fff"/>
        <path id="Trazado_1265455" data-name="Trazado 1265455" d="M390.283,143.589l-.237-.138L278.84,78.825l0-.094A39.176,39.176,0,0,1,296.874,47.5l.081-.05.082.048,111.351,64.71-.223.138c-9.918,6.145-16.923,17.8-17.848,29.682-.023.413-.034.846-.034,1.288ZM279.161,78.647l110.807,64.394c0-.354.015-.7.033-1.035v0a39.843,39.843,0,0,1,17.774-29.788L296.96,47.816a38.866,38.866,0,0,0-17.8,30.831" transform="translate(-190.911 -32.486)" fill="#26c6dc"/>
        <path id="Trazado_1265456" data-name="Trazado 1265456" d="M606.72,288.71a38.874,38.874,0,0,0-3.132,9.785l2.325,1.352-2.325-1.352a38.3,38.3,0,0,1,3.132-9.785" transform="translate(-413.254 -197.669)" fill="#d5e8f5"/>
        <path id="Trazado_1265457" data-name="Trazado 1265457" d="M597.357,253.713a42.1,42.1,0,0,0-8.285,18.161l2.325,1.351-2.325-1.351a37.261,37.261,0,0,1,2.256-7.788,5.175,5.175,0,0,0,2.6.686c2.867-4.24,1.872-6.936,3.426-11.059" transform="translate(-403.315 -173.708)" fill="#d5e8f5"/>
        <path id="Trazado_1265458" data-name="Trazado 1265458" d="M587.878,234.372a3.141,3.141,0,0,0-1.926-.291c-8.2,8.621-10.66,17.281-11.4,21.676l2.325,1.351-2.325-1.351a38.747,38.747,0,0,1,3.888-11.315,10.363,10.363,0,0,0,1.028,4.083,43.131,43.131,0,0,1,9.073-13.357,1.5,1.5,0,0,0-.667-.8" transform="translate(-393.377 -160.25)" fill="#d5e8f5"/>
        <path id="Trazado_1265459" data-name="Trazado 1265459" d="M590.236,239.35c-.633.314-1.181.606-1.89,1.007-.157.834-.253,1.381-.354,2.021.654-.923,1.551-2.135,2.245-3.028" transform="translate(-402.575 -163.874)" fill="#d5e8f5"/>
        <path id="Trazado_1265460" data-name="Trazado 1265460" d="M548.617,255.234a38.725,38.725,0,0,0-3.093,9.7l2.325,1.352-2.325-1.352a38.163,38.163,0,0,1,3.093-9.7" transform="translate(-373.5 -174.749)" fill="#d5e8f5"/>
        <path id="Trazado_1265461" data-name="Trazado 1265461" d="M537.7,226.87a41.8,41.8,0,0,0-6.687,15.985l2.325,1.352-2.325-1.352A41.422,41.422,0,0,1,537.7,226.87" transform="translate(-363.561 -155.329)" fill="#d5e8f5"/>
        <path id="Trazado_1265462" data-name="Trazado 1265462" d="M527.421,201.893a42.437,42.437,0,0,0-10.929,21.2l2.325,1.352-2.325-1.352a38.485,38.485,0,0,1,2.623-8.658c4.761-.636,5.082-5.287,9.266-9.7.262-.177.426-1.741-.96-2.844" transform="translate(-353.623 -138.229)" fill="#d5e8f5"/>
        <path id="Trazado_1265463" data-name="Trazado 1265463" d="M514.251,201.082c-7.311,1.881-9.537,8.11-12.275,18.8l2.325,1.352-2.325-1.352a37.875,37.875,0,0,1,3.292-10.121,5.964,5.964,0,0,0,1.446,3.3,43.894,43.894,0,0,1,7.537-11.98" transform="translate(-343.684 -137.673)" fill="#d5e8f5"/>
        <path id="Trazado_1265464" data-name="Trazado 1265464" d="M478.186,200.258a40.324,40.324,0,0,0-5.241,13.736l2.325,1.352-2.325-1.352a40.2,40.2,0,0,1,5.241-13.736" transform="translate(-323.808 -137.109)" fill="#d5e8f5"/>
        <path id="Trazado_1265465" data-name="Trazado 1265465" d="M469.735,166.914A41.964,41.964,0,0,0,458.425,188.5l2.325,1.352-2.325-1.352c-.113-2.487,6.143-19.678,11.214-19.584a9.171,9.171,0,0,0,.1-2.006" transform="translate(-313.865 -114.28)" fill="#d5e8f5"/>
        <path id="Trazado_1265466" data-name="Trazado 1265466" d="M458.46,158.325a4.936,4.936,0,0,0-3.089-.439c-7.819,8.179-10.547,16.336-11.458,21.739l2.326,1.352-2.326-1.352a38.38,38.38,0,0,1,3.379-10.3,13.712,13.712,0,0,0,4.188-2.084,40.575,40.575,0,0,1,7.092-8.843c-.033-.022-.076-.053-.111-.072" transform="translate(-303.93 -108.059)" fill="#d5e8f5"/>
        <path id="Trazado_1265467" data-name="Trazado 1265467" d="M440.577,162.966a45.443,45.443,0,0,0-5.655,3.32,41.044,41.044,0,0,0-5.522,14.2l2.324,1.351-2.324-1.351a39.247,39.247,0,0,1,4.179-11.867,5.469,5.469,0,0,0,1.223,3.549,44.094,44.094,0,0,1,5.774-9.2" transform="translate(-293.995 -111.577)" fill="#d5e8f5"/>
        <path id="Trazado_1265468" data-name="Trazado 1265468" d="M404.473,164.457a40.021,40.021,0,0,0-4.1,11.726l2.324,1.351-2.324-1.351a39.045,39.045,0,0,1,4.1-11.726" transform="translate(-274.118 -112.598)" fill="#d5e8f5"/>
        <path id="Trazado_1265469" data-name="Trazado 1265469" d="M396.005,128.606c-5.535,6.4-8.951,13.25-10.151,20.371l2.324,1.351-2.324-1.351a36.6,36.6,0,0,1,3.986-11.5c5.593-3.4,5.565-2.5,6.165-8.867" transform="translate(-264.18 -88.052)" fill="#d5e8f5"/>
        <path id="Trazado_1265470" data-name="Trazado 1265470" d="M384.6,115.451a3.853,3.853,0,0,0-1.532-.474c-7.939,8.132-10.762,16.457-11.733,22.009l2.324,1.351-2.324-1.351a38.4,38.4,0,0,1,3.576-10.7,3.341,3.341,0,0,0,1.841,2.351,42.28,42.28,0,0,1,8.729-12.394,2.778,2.778,0,0,0-.881-.791" transform="translate(-254.24 -78.72)" fill="#d5e8f5"/>
        <path id="Trazado_1265471" data-name="Trazado 1265471" d="M385.915,117.246a25.587,25.587,0,0,0-3.762,1.805,36.7,36.7,0,0,0-.555,4.038,42.435,42.435,0,0,1,4.317-5.843" transform="translate(-261.266 -80.274)" fill="#d5e8f5"/>
        <path id="Trazado_1265472" data-name="Trazado 1265472" d="M330.324,132.656a38.093,38.093,0,0,0-2.534,8.454l2.325,1.351-2.325-1.351a38.083,38.083,0,0,1,2.534-8.454" transform="translate(-224.425 -90.825)" fill="#d5e8f5"/>
        <path id="Trazado_1265473" data-name="Trazado 1265473" d="M318.012,110.19a40.885,40.885,0,0,0-4.739,12.878l2.326,1.351-2.326-1.351a38.231,38.231,0,0,1,2.564-8.523,6.465,6.465,0,0,0,2.894.089,1,1,0,0,0,.13-.636,22.692,22.692,0,0,1-.85-3.808" transform="translate(-214.486 -75.443)" fill="#d5e8f5"/>
        <path id="Trazado_1265474" data-name="Trazado 1265474" d="M318.731,124.091a6.456,6.456,0,0,1-2.894-.089,37.44,37.44,0,0,0-2.564,8.523l2.326,1.351a38.3,38.3,0,0,1,3.132-9.785" transform="translate(-214.486 -84.899)" fill="#63c0f9"/>
        <path id="Trazado_1265475" data-name="Trazado 1265475" d="M338.4,106.157c-2.015,1.376-3.927,2.9-6.012,4.178a39.428,39.428,0,0,0-4.6,12.632l2.325,1.352a41.575,41.575,0,0,1,8.285-18.161" transform="translate(-224.425 -72.682)" fill="#3992d8"/>
        <path id="Trazado_1265476" data-name="Trazado 1265476" d="M355.161,98.607a2.331,2.331,0,0,0-1.192-.285c-7.909,8.144-10.708,16.427-11.663,21.941l2.325,1.352a42.039,42.039,0,0,1,11.388-21.669,1.821,1.821,0,0,0-.859-1.338" transform="translate(-234.364 -67.317)" fill="#63c0f9"/>
        <path id="Trazado_1265477" data-name="Trazado 1265477" d="M365.554,116.967a41.906,41.906,0,0,0-8.733,18.721l2.325,1.352a40.086,40.086,0,0,1,5.488-14.142,48.521,48.521,0,0,1,.92-5.931" transform="translate(-244.302 -80.083)" fill="#3992d8"/>
        <path id="Trazado_1265478" data-name="Trazado 1265478" d="M374.914,150.836a38.484,38.484,0,0,0-3.576,10.7l2.324,1.351a38.189,38.189,0,0,1,3.093-9.7,3.413,3.413,0,0,1-1.841-2.351" transform="translate(-254.241 -103.272)" fill="#3992d8"/>
        <path id="Trazado_1265479" data-name="Trazado 1265479" d="M394.864,146.8c-4.636,2.931-4.636,2.931-5.025,3.131a39.642,39.642,0,0,0-3.986,11.5l2.324,1.35a41.412,41.412,0,0,1,6.687-15.985" transform="translate(-264.179 -100.507)" fill="#3992d8"/>
        <path id="Trazado_1265480" data-name="Trazado 1265480" d="M413.622,137.946a4.8,4.8,0,0,0-3.546-.023A42.454,42.454,0,0,0,400.37,157.8l2.323,1.35a41.8,41.8,0,0,1,10.929-21.2" transform="translate(-274.118 -94.211)" fill="#63c0f9"/>
        <path id="Trazado_1265481" data-name="Trazado 1265481" d="M424.835,146.185a41.955,41.955,0,0,0-9.95,20.148l2.324,1.351a40.486,40.486,0,0,1,3.585-10.72c2.29-4.163,4.156-5.775,4.041-10.779" transform="translate(-284.056 -100.087)" fill="#3992d8"/>
        <path id="Trazado_1265482" data-name="Trazado 1265482" d="M433.58,180.881a39.621,39.621,0,0,0-4.179,11.867l2.324,1.351a38.16,38.16,0,0,1,3.078-9.669,5.47,5.47,0,0,1-1.223-3.549" transform="translate(-293.995 -123.842)" fill="#63c0f9"/>
        <path id="Trazado_1265483" data-name="Trazado 1265483" d="M451.479,187.672a13.712,13.712,0,0,1-4.188,2.084,38.309,38.309,0,0,0-3.379,10.3l2.326,1.351a40.2,40.2,0,0,1,5.241-13.736" transform="translate(-303.93 -128.492)" fill="#3992d8"/>
        <path id="Trazado_1265484" data-name="Trazado 1265484" d="M472.064,171.2c-7.849,1.119-11.2,10.552-13.636,20.24l2.325,1.352A41.742,41.742,0,0,1,472.064,171.2" transform="translate(-313.868 -117.214)" fill="#63c0f9"/>
        <path id="Trazado_1265485" data-name="Trazado 1265485" d="M485.4,172.279c-.036-.019-.084-.045-.121-.063A41.756,41.756,0,0,0,472.944,194.8l2.325,1.351c2.859-17.011,14.976-21.753,10.129-23.868" transform="translate(-323.807 -117.91)" fill="#63c0f9"/>
        <path id="Trazado_1265486" data-name="Trazado 1265486" d="M496.313,192.423c-4.807,6.141-7.785,12.488-8.852,18.867l2.325,1.351a38.067,38.067,0,0,1,2.758-8.965c.956-2.142,2.57-3.984,2.912-6.405.23-1.638.556-3.22.857-4.848" transform="translate(-333.746 -131.745)" fill="#3992d8"/>
        <path id="Trazado_1265487" data-name="Trazado 1265487" d="M505.268,228.593a38.461,38.461,0,0,0-3.292,10.121l2.325,1.352a37.532,37.532,0,0,1,2.413-8.168,5.964,5.964,0,0,1-1.446-3.3" transform="translate(-343.684 -156.509)" fill="#3992d8"/>
        <path id="Trazado_1265488" data-name="Trazado 1265488" d="M522.921,236.226a9.787,9.787,0,0,1-3.806,1.717,38.537,38.537,0,0,0-2.623,8.658l2.325,1.351a39.046,39.046,0,0,1,4.1-11.726" transform="translate(-353.623 -161.735)" fill="#3992d8"/>
        <path id="Trazado_1265489" data-name="Trazado 1265489" d="M543.485,217.246c-1.672.667-4.024,1.323-5.79,3.035a41.8,41.8,0,0,0-6.687,15.985l2.325,1.351a41.907,41.907,0,0,1,10.152-20.371" transform="translate(-363.561 -148.74)" fill="#63c0f9"/>
        <path id="Trazado_1265490" data-name="Trazado 1265490" d="M558.59,216.375a3.746,3.746,0,0,0-1.244-.444c-6.308,6.672-9.719,12.194-11.821,22.095l2.325,1.351a42.114,42.114,0,0,1,11.733-22.009,2.575,2.575,0,0,0-.993-.993" transform="translate(-373.5 -147.84)" fill="#3992d8"/>
        <path id="Trazado_1265491" data-name="Trazado 1265491" d="M569.845,231.059a42.006,42.006,0,0,0-9.8,19.985l2.325,1.351a41.033,41.033,0,0,1,6.489-15.693c.3-1.886.743-3.747.991-5.642" transform="translate(-383.438 -158.197)" fill="#63c0f9"/>
        <path id="Trazado_1265492" data-name="Trazado 1265492" d="M578.444,266.988a39.442,39.442,0,0,0-3.888,11.315l2.325,1.351a38.348,38.348,0,0,1,2.59-8.583,10.37,10.37,0,0,1-1.028-4.083" transform="translate(-393.377 -182.797)" fill="#63c0f9"/>
        <path id="Trazado_1265493" data-name="Trazado 1265493" d="M593.932,287.293a5.3,5.3,0,0,1-2.6-.686,37.349,37.349,0,0,0-2.256,7.788l2.325,1.352a37.076,37.076,0,0,1,2.534-8.454" transform="translate(-403.315 -196.229)" fill="#3992d8"/>
        <path id="Trazado_1265494" data-name="Trazado 1265494" d="M610.652,283.188a31.96,31.96,0,0,1-3.73,1.319,38.637,38.637,0,0,0-3.333,10.208l2.325,1.352a40.019,40.019,0,0,1,4.739-12.878" transform="translate(-413.254 -193.888)" fill="#63c0f9"/>
        <path id="Trazado_1265495" data-name="Trazado 1265495" d="M119.728,633.144l-.015-5.4L8.588,563.171c-.238,5.228-.062,13.08,4.487,15.205L124.2,642.955c-2.75-1.6-4.458-4.992-4.471-9.81" transform="translate(-5.835 -385.582)" fill="#ccc"/>
        <path id="Trazado_1265496" data-name="Trazado 1265496" d="M464.983,251.168l0,1.164c-43.206,24.944,9.29,119.9-39.969,147.74,0,0-48.856,28.209-48.856,28.209-12.2,6.581-16.44-3.192-15.374-14.148l1.013-.585c-.964,10.166,2.628,19.868,14.359,13.569l48.857-28.208c48.155-27.47-5.027-121.083,39.968-147.741" transform="translate(-246.909 -171.965)" fill="#ccc"/>
        <path id="Trazado_1265497" data-name="Trazado 1265497" d="M368.769,429.979a7.213,7.213,0,0,1-4.083-1.183c-3.465-2.3-5.111-8.014-4.4-15.278l.008-.081,1.348-.778-.029.3c-.654,6.9.838,12.27,3.992,14.365,2.482,1.648,5.891,1.328,10.135-.95l.014.025c.185-.14.7-.438,2.082-1.235l46.757-27c24.395-13.916,22.673-45.243,21.008-75.539-.8-14.544-1.627-29.584.535-42.271,2.426-14.232,8.452-24.023,18.423-29.931l.237-.14,0,1.531-.079.046c-20.815,12.017-19.346,40.024-17.791,69.675,1.641,31.29,3.338,63.646-22.179,78.066l-.011-.02c-.173.126-.669.412-2.087,1.231l-46.757,27a15.4,15.4,0,0,1-7.123,2.162m-8.181-16.35c-.676,7.107.919,12.676,4.272,14.9,2.688,1.786,6.349,1.453,10.879-.991.483-.279,48.69-28.111,48.851-28.205,25.35-14.326,23.658-46.582,22.022-77.776-.785-14.97-1.526-29.11.524-41.41,2.32-13.923,7.833-22.984,17.345-28.509l0-.8c-9.746,5.872-15.646,15.548-18.036,29.571-2.156,12.651-1.33,27.673-.532,42.2,1.671,30.391,3.4,61.817-21.165,75.83L375.89,426.653c-4.359,2.34-7.877,2.655-10.463.938-3.206-2.129-4.752-7.482-4.16-14.354Z" transform="translate(-246.561 -171.366)" fill="#26c6dc"/>
        <path id="Trazado_1265498" data-name="Trazado 1265498" d="M119.856,626.48,8.731,561.9l1.013-.585L120.868,625.9Z" transform="translate(-5.978 -384.313)" fill="#e6e6e6"/>
        <g id="Grupo_1207277" data-name="Grupo 1207277" transform="translate(189.899 234.091)" opacity="0.15" style="mix-blend-mode: multiply;isolation: isolate">
          <g id="Grupo_1207276" data-name="Grupo 1207276">
            <g id="Grupo_1207275" data-name="Grupo 1207275" clip-path="url(#clip-path-3)">
              <path id="Trazado_1265499" data-name="Trazado 1265499" d="M667.29,779.924c-14.888,8.6-39.026,8.6-53.915,0s-14.888-22.532,0-31.128,39.027-8.6,53.915,0,14.888,22.532,0,31.128" transform="translate(-602.209 -742.35)" fill="#2e8bb6" fill-rule="evenodd"/>
            </g>
          </g>
        </g>
        <path id="Trazado_1265500" data-name="Trazado 1265500" d="M659.111,763.659a7.025,7.025,0,0,1,.494,4.539,15.456,15.456,0,0,1-8.513,1.513v-.756a6.4,6.4,0,0,0-2.573,0,41.286,41.286,0,0,1-8.473,2.723c-5.75.605-6.874-.981-7.015-2.723,5.882-5.185,16.8-3.937,26.079-5.3" transform="translate(-433.413 -522.848)" fill="#25100c" fill-rule="evenodd"/>
        <path id="Trazado_1265501" data-name="Trazado 1265501" d="M657.872,747.825a7.813,7.813,0,0,1,1.211,7.565c-3.271,1.545-6.176,1.439-9.532,1.664a49.316,49.316,0,0,1-9.987,3.026c-6.421,1.791-9.575-3.738-2.723-6.2,4.369-1.588,8.678-3.063,13.314-5.144Z" transform="translate(-433.384 -512.008)" fill="#452b19" fill-rule="evenodd"/>
        <path id="Trazado_1265502" data-name="Trazado 1265502" d="M750.144,800.919l1.211,2.27c-1.476,8.792-1.308,22.438-14.071,19.82-9.054-2.237,13.315-21.458,12.861-22.09" transform="translate(-503.311 -548.359)" fill="#25100c" fill-rule="evenodd"/>
        <path id="Trazado_1265503" data-name="Trazado 1265503" d="M739.178,794.62a112.351,112.351,0,0,0-5.774,11.851c-1.053,2.76-3.253,8.617,1.208,9.905a6.246,6.246,0,0,0,6.048-.445c6.235-2.662,5.982-9.669,7.143-15.258.371-2.164,2.659-5.663.757-7.413a21.161,21.161,0,0,0-9.532-.605c-.651.094-.107,1.362.151,1.966" transform="translate(-501.121 -542.514)" fill="#452b19" fill-rule="evenodd"/>
        <path id="Trazado_1265504" data-name="Trazado 1265504" d="M651.12,539.118a15.26,15.26,0,0,0,14.661-.278c-.308-21.639-.045-46.434-3.982-70.772-1.432-8.969,5.31-20.164.411-28.484l-19.377.5c-1.976,7.875-1.285,14.573-.109,21.057,1.269,9.21,4.318,28.656,7.477,37.03-.227,14.312-.339,27.526.919,40.948" transform="translate(-439.27 -300.967)" fill="#403e60" fill-rule="evenodd"/>
      </g>
    </g>
    <g id="Grupo_1207281" data-name="Grupo 1207281" transform="translate(202.316 138.617)">
      <g id="Grupo_1207280" data-name="Grupo 1207280" clip-path="url(#clip-path-4)">
        <path id="Trazado_1265505" data-name="Trazado 1265505" d="M686.063,429.547a232.821,232.821,0,0,0,5.063,59.83,409.343,409.343,0,0,1,1.4,53.538l8.358-4.556c1.879-31.017.113-78.414,2.337-109.106Z" transform="translate(-671.852 -432.511)" fill="#2c2b49" fill-rule="evenodd"/>
      </g>
    </g>
    <g id="Grupo_1207283" data-name="Grupo 1207283">
      <g id="Grupo_1207282" data-name="Grupo 1207282" clip-path="url(#clip-path)">
        <path id="Trazado_1265507" data-name="Trazado 1265507" d="M709.564,584.489c5.024,2.105,8.526,2.294,14.053-.624-1.011-22.022-1.444-45.4-6.524-70.242-2.146-9.318,5.731-20.952-.481-29.282l-23.456,1.03c-4.223,13.99,4.2,31.136,7.348,44.051,7.347,17.8,5.19,37.054,9.061,55.067" transform="translate(-473.783 -331.611)" fill="#403e60" fill-rule="evenodd"/>
      </g>
    </g>
    <g id="Grupo_1207285" data-name="Grupo 1207285" transform="translate(218.212 152.731)">
      <g id="Grupo_1207284" data-name="Grupo 1207284" clip-path="url(#clip-path-6)">
        <path id="Trazado_1265508" data-name="Trazado 1265508" d="M747.731,475.268a194.027,194.027,0,0,0,8.12,59.668c2.627,18.5,3.922,38.687,3.479,53.48l9.973-4.783c1.245-31.07-2.467-78.4-.791-109.129Z" transform="translate(-730.101 -477.606)" fill="#2c2b49" fill-rule="evenodd"/>
      </g>
    </g>
    <g id="Grupo_1207287" data-name="Grupo 1207287">
      <g id="Grupo_1207286" data-name="Grupo 1207286" clip-path="url(#clip-path)">
        <path id="Trazado_1265510" data-name="Trazado 1265510" d="M635.093,326l-.893-23.184c1.358-12-10.615-43.879,13.817-43.418-1.325,6.635-3.126,21.056-3.8,27.875,4.527,23.682,6.8,17.246-.885,40.863Z" transform="translate(-433.009 -177.596)" fill="#ffe9a1" fill-rule="evenodd"/>
        <path id="Trazado_1265511" data-name="Trazado 1265511" d="M640.478,268.693c2.612-18.979,38.485-9.165,46.98,5.991-9.232,18.443-10.484,35.353-4.162,58.713-8.9,8.05-40.286-1.183-44.608-1.912,1.209-6.752,4.184-18.98,5.1-27.863a21.544,21.544,0,0,0-.538-7.124c-2.677-10.626-4-19.9-2.776-27.805" transform="translate(-437.286 -176.803)" fill="#fbce73" fill-rule="evenodd"/>
      </g>
    </g>
    <g id="Grupo_1207289" data-name="Grupo 1207289" transform="translate(201.403 81.431)">
      <g id="Grupo_1207288" data-name="Grupo 1207288" clip-path="url(#clip-path-8)">
        <path id="Trazado_1265512" data-name="Trazado 1265512" d="M738.147,374.895s4.437-16.777,2.177-24.1c0,0,.294-11.486-4.655-13.742l8.167-26.584s4.188-8.8,12.019-7.6,11.129,33.176,11.129,33.176l-5.67,30.714Z" transform="translate(-705.087 -288.718)" fill="#e2b862" fill-rule="evenodd"/>
      </g>
    </g>
    <g id="Grupo_1207291" data-name="Grupo 1207291">
      <g id="Grupo_1207290" data-name="Grupo 1207290" clip-path="url(#clip-path)">
        <path id="Trazado_1265514" data-name="Trazado 1265514" d="M676.452,286.261l2.461.316L678.7,329.2l-5.106,6.379-3.518-7.25Z" transform="translate(-458.777 -195.992)" fill="#5a4905" fill-rule="evenodd"/>
        <path id="Trazado_1265515" data-name="Trazado 1265515" d="M688.7,266.382l-4.411,3.523a11.294,11.294,0,0,1,1.946-8.118l1.6,1.175Z" transform="translate(-468.421 -179.236)" fill="#fff" fill-rule="evenodd"/>
        <path id="Trazado_1265516" data-name="Trazado 1265516" d="M671.3,198.778a25.533,25.533,0,0,0,.174,11.428c.417,6.87,3.022,9.311,7.225,8.516a1.778,1.778,0,0,0,.032,1.457l-.2,2.933,12.424-4.524a10.813,10.813,0,0,1,.113-8.1l1.581-7.076-13.754-8.22Z" transform="translate(-459.226 -133.64)" fill="#fed1a5" fill-rule="evenodd"/>
      </g>
    </g>
    <g id="Grupo_1207293" data-name="Grupo 1207293" transform="translate(211.508 61.551)">
      <g id="Grupo_1207292" data-name="Grupo 1207292" clip-path="url(#clip-path-10)">
        <path id="Trazado_1265517" data-name="Trazado 1265517" d="M690.008,257.547l1.886-2.25s6.887,1.181,11.647-5.886c0,0,1.29,2.037,1.806.234s4.936-.7,4.936-.7l-1.02,9.747-15.176,3.679Z" transform="translate(-683.93 -231.767)" fill="#ebbf93" fill-rule="evenodd"/>
      </g>
    </g>
    <g id="Grupo_1207295" data-name="Grupo 1207295">
      <g id="Grupo_1207294" data-name="Grupo 1207294" clip-path="url(#clip-path)">
        <path id="Trazado_1265519" data-name="Trazado 1265519" d="M689.233,275.279l2.531.351.142,4.826-5.7-1.882Z" transform="translate(-469.82 -188.473)" fill="#5a4905" fill-rule="evenodd"/>
        <path id="Trazado_1265520" data-name="Trazado 1265520" d="M699.78,264.9l.852,6.055a22.656,22.656,0,0,0,10.865-8.077l-1.2-2.987A24.953,24.953,0,0,1,699.78,264.9" transform="translate(-479.113 -177.94)" fill="#fff" fill-rule="evenodd"/>
        <path id="Trazado_1265521" data-name="Trazado 1265521" d="M673.947,186.644a6.97,6.97,0,0,0,3.945,3.338,6.392,6.392,0,0,1,1.247,3.288c-.1-9.346,8.262-5.794,4.518.353a4.981,4.981,0,0,0-.145,3.5c6.5-7.355,4.244-29.2-11.993-25.045-14.8,4.325-14.073,19.316,2.428,14.564" transform="translate(-452.537 -117.46)" fill-rule="evenodd"/>
      </g>
    </g>
    <g id="Grupo_1207297" data-name="Grupo 1207297" transform="translate(208.427 54.099)">
      <g id="Grupo_1207296" data-name="Grupo 1207296" clip-path="url(#clip-path-12)">
        <path id="Trazado_1265522" data-name="Trazado 1265522" d="M660.958,164.827c-2.149,22.645,24.029,5.551,26.23.028l-8.806-5.484Z" transform="translate(-660.874 -163.215)" fill="#1a1a1a" fill-rule="evenodd"/>
        <path id="Trazado_1265523" data-name="Trazado 1265523" d="M661.013,148.768c-2.15,22.645,24.03,5.55,26.23.028l-8.806-5.484Z" transform="translate(-660.911 -152.22)" fill="#262626" fill-rule="evenodd"/>
        <path id="Trazado_1265524" data-name="Trazado 1265524" d="M661.317,137.158c-2.149,22.644,24.029,5.55,26.23.028l-8.805-5.484Z" transform="translate(-661.12 -144.271)" fill="#333" fill-rule="evenodd"/>
      </g>
    </g>
    <g id="Grupo_1207299" data-name="Grupo 1207299">
      <g id="Grupo_1207298" data-name="Grupo 1207298" clip-path="url(#clip-path)">
        <path id="Trazado_1265526" data-name="Trazado 1265526" d="M577.233,454.569c-1.846.611-7.755,2.671-9.576,2.947-.755.165-7.072,1.065-5.545-.649,1.19-.406,2.625-.19,3.664-.9-.995.04-5.032.192-5.814-.375-.25-1.559,5.172-.508,6.691-1.7-2.315.246-5.612.1-7.928.1-.977-.606-.824-1.373,1.476-1.666l3.266.239,2.761-.345a65.18,65.18,0,0,0-7.62-.557c-3.573-2.322,6.838-1.339,7.779-1.62,6.982-.84-1.31-3.938,1.87-6.731,1.208,1.092,3.647,2.77,4.315,4.447l3.237-.117c1.179,2.451,1.956,4.691,1.422,6.926" transform="translate(-381.949 -303.52)" fill="#fcceb4" fill-rule="evenodd"/>
        <path id="Trazado_1265527" data-name="Trazado 1265527" d="M613.633,463.021a8.806,8.806,0,0,0-.962-8.083l-2.48.389a12.709,12.709,0,0,1,1.287,8.427Z" transform="translate(-417.775 -311.479)" fill="#fff" fill-rule="evenodd"/>
        <path id="Trazado_1265528" data-name="Trazado 1265528" d="M615.894,348.528a19.33,19.33,0,0,1,1.231,9.373c20.2-4.227,48.309-11.732,54.058-39.558,1.014-5.007,3.266-10.748.314-15.566-3.378-6.176-10.434.774-11.92,5.117-8.953,28.739-19.469,32-43.683,40.633" transform="translate(-421.679 -205.626)" fill="#ffe9a1" fill-rule="evenodd"/>
      </g>
    </g>
    <g id="Grupo_1207301" data-name="Grupo 1207301" transform="translate(194.214 94.706)">
      <g id="Grupo_1207300" data-name="Grupo 1207300" clip-path="url(#clip-path-14)">
        <path id="Trazado_1265529" data-name="Trazado 1265529" d="M661.282,300.446c-3.665,13.755-4.2,29.974-14.106,40.992-19.9,15.693-33.131,6.8-49.387,20.315-1.474,3.519,13.509,19.3,17.3,18.913,36.507-3.774,46.791-10.411,53.552-41.515,2.284-12.933,6.726-31.157-7.363-38.7" transform="translate(-603.429 -300.41)" fill="#eec36a" fill-rule="evenodd"/>
      </g>
    </g>
    <g id="Grupo_1207306" data-name="Grupo 1207306">
      <g id="Grupo_1207305" data-name="Grupo 1207305" clip-path="url(#clip-path)">
        <g id="Grupo_1207304" data-name="Grupo 1207304" transform="translate(49.033 256.753)" opacity="0.15" style="mix-blend-mode: multiply;isolation: isolate">
          <g id="Grupo_1207303" data-name="Grupo 1207303">
            <g id="Grupo_1207302" data-name="Grupo 1207302" clip-path="url(#clip-path-16)">
              <path id="Trazado_1265531" data-name="Trazado 1265531" d="M195.146,840.811c-9.071,6.088-23.779,6.088-32.85,0s-9.071-15.959,0-22.048c14.871-12.458,56.091,2.586,32.85,22.048" transform="translate(-155.493 -814.215)" fill="#2e8bb6" fill-rule="evenodd"/>
            </g>
          </g>
        </g>
        <path id="Trazado_1265532" data-name="Trazado 1265532" d="M192.1,802.013a32.329,32.329,0,0,1-.194,8.84l4.371,9.617,6.411-.389c-2.013-5.5-6.178-11.179-3.982-17.485Z" transform="translate(-131.394 -549.108)" fill="#d6a7a8" fill-rule="evenodd"/>
        <path id="Trazado_1265533" data-name="Trazado 1265533" d="M198.045,823.067s-1.018-4.965-6.314-2.817c0,0-1.8.832-1.458,4.954l.486,3.5c-.016.929-.73,4.991,1.724,5.334h0a21.272,21.272,0,0,1,.12,2.729,1.2,1.2,0,0,0,1.166.1s.052-2.1.1-2.526a16.5,16.5,0,0,0,3.984,0l2.04-2.719-1.262-3.3Z" transform="translate(-130.242 -561.225)" fill="#3d61af" fill-rule="evenodd"/>
      </g>
    </g>
    <g id="Grupo_1207308" data-name="Grupo 1207308" transform="translate(59.986 258.486)">
      <g id="Grupo_1207307" data-name="Grupo 1207307" clip-path="url(#clip-path-17)">
        <path id="Trazado_1265534" data-name="Trazado 1265534" d="M202.435,849.587l-.669-.583a12.323,12.323,0,0,1,2.914-7.869,17.865,17.865,0,0,0,1.943,8.161Z" transform="translate(-198.128 -834.379)" fill="#3d4e86" fill-rule="evenodd"/>
        <path id="Trazado_1265535" data-name="Trazado 1265535" d="M189.57,843.877c.484-.988.178-5.068-.388-7.092-.48-1.06-1.845-4.274-1.845-4.274L186.365,843Z" transform="translate(-187.583 -828.475)" fill="#3d4e86" fill-rule="evenodd"/>
      </g>
    </g>
    <g id="Grupo_1207310" data-name="Grupo 1207310">
      <g id="Grupo_1207309" data-name="Grupo 1207309" clip-path="url(#clip-path)">
        <path id="Trazado_1265537" data-name="Trazado 1265537" d="M224.631,826.557c-1.821,6.041.565,13.595,4.954,17.971h0l-3.467.971c-2.461-2.894-8.44-9.326-11.1-12.142,1.22-1.739,2.111-7.506,2.331-8.549Z" transform="translate(-147.212 -564.715)" fill="#f7a790" fill-rule="evenodd"/>
        <path id="Trazado_1265538" data-name="Trazado 1265538" d="M230.756,862.237l-7.869,3.788a2.372,2.372,0,0,1-.287.078,7.684,7.684,0,0,1-8.553-5.907,22.517,22.517,0,0,0-1.457,5.344,1.311,1.311,0,0,1-1.555-.1,23.325,23.325,0,0,0,.389-5.925c-.693-4.3-1.36-4.08-.972-6.509,0,0,.485-4.081,3.5-3.206,6.492,2.44,5.1,12.251,13.013,10.383l0,.011s3.607-.365,3.789,2.041" transform="translate(-144.011 -581.744)" fill="#3d61af" fill-rule="evenodd"/>
      </g>
    </g>
    <g id="Grupo_1207312" data-name="Grupo 1207312" transform="translate(66.327 267.936)">
      <g id="Grupo_1207311" data-name="Grupo 1207311" clip-path="url(#clip-path-19)">
        <path id="Trazado_1265539" data-name="Trazado 1265539" d="M231.424,885.05s-3.282-.159-3.983-2.428c-.646-.864-2.287-7.689-4.177-5.828-1.145,1.233-1.166,1.651-1.166,1.651l1.068,3.5,4.954,3.788Z" transform="translate(-218.39 -868.025)" fill="#3d4e86" fill-rule="evenodd"/>
        <rect id="Rectángulo_458165" data-name="Rectángulo 458165" width="2.915" height="1.749" transform="translate(0.017 14.985)" fill="#3d4e86"/>
      </g>
    </g>
    <g id="Grupo_1207314" data-name="Grupo 1207314">
      <g id="Grupo_1207313" data-name="Grupo 1207313" clip-path="url(#clip-path)">
        <path id="Trazado_1265541" data-name="Trazado 1265541" d="M221.314,854.921c-1-1.45-3.321-4.746-5.7-3.893l-.019-.047c2.483-1.14,4.978,2.22,5.767,3.912Z" transform="translate(-147.613 -582.477)" fill="#fff" fill-rule="evenodd"/>
        <path id="Trazado_1265542" data-name="Trazado 1265542" d="M263.572,885.205c-.587-1.173-3.806-1.665-4.824-1.18l-.017-.048c1.2-.664,4.188-.445,4.89,1.195Z" transform="translate(-177.144 -604.987)" fill="#fff" fill-rule="evenodd"/>
        <path id="Trazado_1265543" data-name="Trazado 1265543" d="M198.851,823.048c-1.918-1.857-5-2.994-6.66.088l-.044-.024c1.578-3.4,4.866-2.346,6.746-.107Z" transform="translate(-131.556 -562.059)" fill="#fff" fill-rule="evenodd"/>
        <path id="Trazado_1265544" data-name="Trazado 1265544" d="M208.957,451.32c14.532,44.746,6.664,80.308-12.046,120.846l-8.672-2.914c1.51-15.255,4.011-29.775,11.1-40.9a199.947,199.947,0,0,0-4.857-34.291c.79,16.481-3.451,51.951-6.243,68.389l-9.009-.292-1.457-27.88,1.943-13.211c-1.739-21.674-13.215-53.834,4.119-71.79,7.2,5.811,15.627,6.246,25.121,2.041" transform="translate(-119.395 -307.605)" fill="#004166" fill-rule="evenodd"/>
        <path id="Trazado_1265545" data-name="Trazado 1265545" d="M205.8,581c-.832-11.478-5.478-28.814-13.891-38.371,7.129,2.281,14.235,8.977,15.057,17Z" transform="translate(-131.394 -371.515)" fill="#002d47" fill-rule="evenodd"/>
        <path id="Trazado_1265546" data-name="Trazado 1265546" d="M183.43,330.348a18.21,18.21,0,0,0,6.486,10.552,35.238,35.238,0,0,0,11.2,5.945c7.439,1.512,10.229-5.521,5.064-8.541-4.784-2.8-5.8-2.466-10.6-6.406L191.756,317c-3.56-6.038-11.9.71-8.326,13.347" transform="translate(-124.992 -215.506)" fill="#cf85ef" fill-rule="evenodd"/>
        <path id="Trazado_1265547" data-name="Trazado 1265547" d="M226.111,280.529l.473-1.431s-1.474-4.69-.43-6.621c0,0,5.667,1.238,6.633-4.461s2-11.826-.236-13.862-14.816,5.963-14.816,5.963-.859,10.7-3.629,13.444.51,5.514.51,5.514Z" transform="translate(-145.829 -173.782)" fill="#ffc9b6" fill-rule="evenodd"/>
        <path id="Trazado_1265548" data-name="Trazado 1265548" d="M219.868,233.877s-3.8-2.822-3.586,1.936c.153,3.459-.432,3.777-1.218,5.087-.432.72-1.505,5.72-5.294,5.72-4.373,0-4.978-2.7-6.606-4.177-3.331-3.015-2.921-9.7-3.109-13.6s.334-8.346,4.057-11.658,8.636-4.956,12.068-3.108c3.038,1.957,3.932,2.138,8.258,2.234.99.248,3.149,1.511,2.93,6.637-.282,6.58-5.987,8.892-6.735,7.88Z" transform="translate(-136.948 -146.042)" fill="#3d1611" fill-rule="evenodd"/>
        <path id="Trazado_1265549" data-name="Trazado 1265549" d="M332.642,293.307a9.439,9.439,0,0,0-4.59,2.44l-2.8-4.153c2.711-2.948,6.642-6.862,10.23-8.725,3.46-1.766,7.1,1.908,8.431,3.66,0,2.314-3.168-.526-4.256-.821,1.122,1.276-.092,3.814-1.084,4.2-.414.706-1.626,1.914-2.489,1.02,0,0-2.517,1.883-3.439,2.381" transform="translate(-222.686 -193.349)" fill="#ffc9b6" fill-rule="evenodd"/>
        <path id="Trazado_1265550" data-name="Trazado 1265550" d="M357.066,286.915c-3.828.1-13.247-6.835-13.571-6.646a1.016,1.016,0,0,1,1-1.765c-.019.012,7.767,4.182,11.2,6.421.346.361,1.783,1.961,1.367,1.99" transform="translate(-234.832 -190.581)" fill-rule="evenodd"/>
        <path id="Trazado_1265551" data-name="Trazado 1265551" d="M357.412,297.547c.744.278,5.477-.186,4.926,1.381-.25,1.951-5.273.666-6.9,1.521l-.45-2.07a2.565,2.565,0,0,1,2.419-.832" transform="translate(-243.05 -203.693)" fill="#ffc9b6" fill-rule="evenodd"/>
        <path id="Trazado_1265552" data-name="Trazado 1265552" d="M270.1,312.731a8.428,8.428,0,0,0-4.173-4.753c-7.939,6.1-18.18,10.281-27.962,14.846L251.01,333.66A277.69,277.69,0,0,1,270.1,312.731" transform="translate(-162.928 -210.861)" fill="#cf85ef" fill-rule="evenodd"/>
        <path id="Trazado_1265553" data-name="Trazado 1265553" d="M218.279,369.635l-2.691-25.322c2.555-7.4,6.523-20.752-10.1-25.354-9.556,4.651-11.486-2.858-16.406-3.127-7.723,0-5.1,22.377-4.867,21.393.1.309,4.361,13.33,4.277,13.166.076,1.933-5.563,13.756-5.98,16.079,9.671,6.447,28.119,7.27,35.769,3.164" transform="translate(-124.958 -216.238)" fill="#e3a4fe" fill-rule="evenodd"/>
        <path id="Trazado_1265554" data-name="Trazado 1265554" d="M260.742,351.922,267.833,363l9.336,8.884c6.3,4.231,11.094-1.5,7.469-6.261-3.358-4.409-8.04-8.421-10.978-13.892L266.7,339.593c-4.01-4.283-10.908-3.311-9.548,3.586Z" transform="translate(-175.939 -230.744)" fill="#f0d5fe" fill-rule="evenodd"/>
        <path id="Trazado_1265555" data-name="Trazado 1265555" d="M383.878,448.256l-1.36,6.573c1.324.469,23.023,8.119,25.211-.682-.707-2.246-4.5-.127-6.453-.8-3.1-1.057-4.486-2.586-3.116-5.067,0,0,.984-1.646.6-2.185-.661-.921-1.394-.008-2.3,1.037a21.4,21.4,0,0,1-3.385,3.506c-.806.5-9.2-2.379-9.2-2.379" transform="translate(-261.896 -305.162)" fill="#ffc9b6" fill-rule="evenodd"/>
        <path id="Trazado_1265556" data-name="Trazado 1265556" d="M326.565,435.884l13.115,5.343a55.012,55.012,0,0,1,2.525-8.84L322.97,422.381c-6.12-1.651-11.363,3.206-5.829,8.063Z" transform="translate(-215.534 -288.963)" fill="#f0d5fe" fill-rule="evenodd"/>
      </g>
    </g>
  </g>
</svg>
