<svg id="Grupo_1207335" data-name="Grupo 1207335" xmlns="http://www.w3.org/2000/svg" xmlns:xlink="http://www.w3.org/1999/xlink" width="77.512" height="80.124" viewBox="0 0 77.512 80.124">
  <defs>
    <clipPath id="clip-path">
      <rect id="Rectángulo_458176" data-name="Rectángulo 458176" width="77.512" height="80.124" fill="#fff"/>
    </clipPath>
  </defs>
  <g id="Grupo_1207334" data-name="Grupo 1207334" clip-path="url(#clip-path)">
    <path id="Trazado_1265638" data-name="Trazado 1265638" d="M117.068,49.272a12.362,12.362,0,1,0,12.362,12.362A12.343,12.343,0,0,0,117.068,49.272Zm0,22.376a10.014,10.014,0,1,1,10.014-10.014,10,10,0,0,1-10.014,10.014" transform="translate(-65.85 -30.987)" fill="#fff"/>
    <path id="Trazado_1265639" data-name="Trazado 1265639" d="M76.107,48.759l-2.434-2.434a1.174,1.174,0,0,0-1.66,1.66l2.434,2.434a2.444,2.444,0,0,1-3.456,3.457L61.545,44.43A17.453,17.453,0,0,0,65,40.974l3.137,3.137a1.174,1.174,0,1,0,1.66-1.66L66.309,38.96a17.26,17.26,0,0,0-.791-17.922V10.548A3.682,3.682,0,0,0,61.84,6.871H58.876V3.678A3.682,3.682,0,0,0,55.2,0H22.487a1.174,1.174,0,0,0,0,2.348H55.2a1.331,1.331,0,0,1,1.33,1.33V6.871H10.319a3.682,3.682,0,0,0-3.678,3.678V70.906H3.677a1.332,1.332,0,0,1-1.33-1.33V3.678a1.331,1.331,0,0,1,1.33-1.33H17.01A1.174,1.174,0,0,0,17.01,0H3.677A3.682,3.682,0,0,0,0,3.678v65.9a3.681,3.681,0,0,0,3.677,3.678H6.641v3.193a3.682,3.682,0,0,0,3.678,3.678H61.84a3.682,3.682,0,0,0,3.677-3.678V51.722l3.814,3.813a4.792,4.792,0,0,0,6.776-6.776m-34.885-7.1A14.873,14.873,0,1,1,66.093,30.646c0,12.7-15.269,19.752-24.872,11.015M63.17,76.446a1.331,1.331,0,0,1-1.33,1.33H10.319a1.331,1.331,0,0,1-1.33-1.33v-65.9a1.332,1.332,0,0,1,1.33-1.33H61.84a1.332,1.332,0,0,1,1.33,1.33v7.7a17.113,17.113,0,0,0-11.952-4.822c-14.862,0-22.761,17.718-12.788,28.759a17.231,17.231,0,0,0,21.1,3.55l3.642,3.642Z" fill="#fff"/>
    <path id="Trazado_1265640" data-name="Trazado 1265640" d="M38.187,46.8H52.715a1.174,1.174,0,1,0,0-2.347H38.187a1.174,1.174,0,1,0,0,2.347" transform="translate(-23.277 -27.954)" fill="#fff"/>
    <path id="Trazado_1265641" data-name="Trazado 1265641" d="M38.187,64.726H52.715a1.174,1.174,0,1,0,0-2.347H38.187a1.174,1.174,0,1,0,0,2.347" transform="translate(-23.277 -39.23)" fill="#fff"/>
    <path id="Trazado_1265642" data-name="Trazado 1265642" d="M38.187,82.657H52.715a1.174,1.174,0,1,0,0-2.347H38.187a1.174,1.174,0,1,0,0,2.347" transform="translate(-23.277 -50.507)" fill="#fff"/>
    <path id="Trazado_1265643" data-name="Trazado 1265643" d="M38.187,101.783H52.715a1.173,1.173,0,1,0,0-2.347H38.187a1.173,1.173,0,1,0,0,2.347" transform="translate(-23.277 -62.535)" fill="#fff"/>
    <path id="Trazado_1265644" data-name="Trazado 1265644" d="M73.3,149.4H60.916L59.5,146.211a13.393,13.393,0,0,0,3.237-15.226h11.31a1.174,1.174,0,1,0,0-2.347H61.423a13.423,13.423,0,1,0-3.836,19.039l1.492,3.371a1.173,1.173,0,0,0,1.073.7H73.3a1.174,1.174,0,1,0,0-2.348m-24.037-13.07v11.012a11.073,11.073,0,1,1,9.129-18.7H56.558a1.174,1.174,0,1,0,0,2.347h3.57a10.987,10.987,0,0,1,1.319,4.171H50.434A1.173,1.173,0,0,0,49.261,136.329Zm2.347,11.012V137.5h9.838a11.04,11.04,0,0,1-2.957,6.414l-.859-1.939a1.174,1.174,0,0,0-2.146.95l1.14,2.576A11.005,11.005,0,0,1,51.608,147.341Z" transform="translate(-23.277 -77.297)" fill="#fff"/>
    <path id="Trazado_1265645" data-name="Trazado 1265645" d="M142.32,155.91h-7.487a1.174,1.174,0,1,0,0,2.347h7.487a1.174,1.174,0,1,0,0-2.347" transform="translate(-84.058 -98.052)" fill="#fff"/>
    <path id="Trazado_1265646" data-name="Trazado 1265646" d="M142.32,171.45h-7.487a1.174,1.174,0,1,0,0,2.347h7.487a1.174,1.174,0,1,0,0-2.347" transform="translate(-84.058 -107.825)" fill="#fff"/>
    <path id="Trazado_1265647" data-name="Trazado 1265647" d="M131.832,69.867l-6.466,6.222-1.406-2.842a1.174,1.174,0,0,0-2.1,1.041l2.117,4.278a1.174,1.174,0,0,0,1.866.325l7.621-7.333a1.174,1.174,0,0,0-1.628-1.691Z" transform="translate(-76.559 -43.733)" fill="#fff"/>
  </g>
</svg>
