<svg xmlns="http://www.w3.org/2000/svg" xmlns:xlink="http://www.w3.org/1999/xlink" width="160.5" height="160.501" viewBox="0 0 160.5 160.501">
  <defs>
    <clipPath id="clip-path">
      <rect id="Rectángulo_455261" data-name="Rectángulo 455261" width="38.951" height="37.623" fill="#e6fffa"/>
    </clipPath>
    <clipPath id="clip-path-2">
      <rect id="Rectángulo_458260" data-name="Rectángulo 458260" width="76.367" height="85.397" fill="#5d0b80"/>
    </clipPath>
  </defs>
  <g id="Grupo_1207160" data-name="Grupo 1207160" transform="translate(-307.436 -10011.92)">
    <path id="Sustracción_130" data-name="Sustracción 130" d="M26.051,25.795H0V11.245H11.352V0h14.7V25.795Z" transform="translate(441.641 10038.471) rotate(-90)" fill="#e3a4fe" stroke="rgba(0,0,0,0)" stroke-miterlimit="10" stroke-width="1"/>
    <g id="Grupo_1178100" data-name="Grupo 1178100" transform="translate(307.436 10172.421) rotate(-90)">
      <path id="Trazado_998183" data-name="Trazado 998183" d="M0,0V37.623H25.58V24.056H38.951V0Z" transform="translate(0 0)" fill="#5d0b80"/>
      <g id="Grupo_1178099" data-name="Grupo 1178099" transform="translate(0 0)">
        <g id="Grupo_1178098" data-name="Grupo 1178098" clip-path="url(#clip-path)">
          <path id="Trazado_998184" data-name="Trazado 998184" d="M0,9.021a9.025,9.025,0,1,1,9.025,9.021A9.023,9.023,0,0,1,0,9.021" transform="translate(4.434 5.629)" fill="#e3a4fe"/>
        </g>
      </g>
    </g>
    <g id="Grupo_1177470" data-name="Grupo 1177470" transform="translate(308.059 10012.421)">
      <circle id="Elipse_13609" data-name="Elipse 13609" cx="79.688" cy="79.688" r="79.688" fill="#f0d5fe"/>
      <g id="Grupo_1099776" data-name="Grupo 1099776" transform="translate(33.723 33.96)">
        <g id="Grupo_1099618" data-name="Grupo 1099618" transform="translate(-0.346 0.264)">
          <rect id="Rectángulo_401104" data-name="Rectángulo 401104" width="90.569" height="91.661" transform="translate(0)" fill="none"/>
        </g>
        <g id="Grupo_1207425" data-name="Grupo 1207425" transform="translate(6.654 3.264)">
          <g id="Grupo_1207424" data-name="Grupo 1207424" clip-path="url(#clip-path-2)">
            <path id="Trazado_1266052" data-name="Trazado 1266052" d="M21.718,79.13c-.39,1.935-2.54,2.335-4.212,2.016a115.049,115.049,0,0,1-14.58-5.421A5.321,5.321,0,0,1,.068,72.242L0,13.75C.434,8.9,5.665,8.743,9.167,7.063,9.319,4.139,8.938.681,12.593,0H46.211c2.123.434,3.1,1.951,3.283,4.034.136,1.586-.063,3.918-2.149,2.888-1.243-.948.473-4.008-1.607-4.5L12.7,2.546c-1.167.515-.631,2.507-.736,3.53,2.828-1.172,4.576.083,4.874,3.053.265,2.647.378,11.157-.055,13.6a1.365,1.365,0,0,1-2.625.546v-15a3.742,3.742,0,0,0-1.419.167,71.724,71.724,0,0,0-8.886,3.31,2.884,2.884,0,0,0-1.345,2.07L2.449,71.081a2.963,2.963,0,0,0,2.027,2.608c4.113,1.975,9.367,3.009,13.571,4.974.309.216,1.232.075,1.232-.264V36.932c0-2.169-2.828-3.425-3.9-4.879-.88-1.191-2.243-5.157-.026-5.374,1.552-.152,1.32,2.034,1.548,2.877.6,2.231,4.82,3.448,4.82,6.888v11.1h2.439V34.737c0-.822,2.032-3.049,2.805-3.049h9.391v-18.9c0-1.175,2.115-2.773,3.314-2.784l23.584.033a1.221,1.221,0,0,1,.047,2.378L39.587,12.6a2.789,2.789,0,0,0-.794.669V31.688H61.355c.795,0,2.805,1.81,2.805,2.561V57.543h8.9a2.79,2.79,0,0,0,.669-.794l.161-42.722c.032-3.123-6.187-.588-6.928-2.095a1.551,1.551,0,0,1,.117-1.594c.528-.536,5.214-.461,6.166-.3a3.97,3.97,0,0,1,3,2.855l.114,43.8c.11,1-1.764,3.287-2.567,3.287H65.136L71.194,70.9l-.445,1.4L69.141,72.2l-14.609-24.9c-2.024-1.268-2.935.852-3.829,2.28-6.079,9.712-11.215,20.267-17.329,29.989-.681,1.776.212,3.13,2.117,3.113l36.337-.025a3.157,3.157,0,0,0,1.47-.725c1.78-2.127-3.308-5.737-1.7-7.314a1.548,1.548,0,0,1,1.593-.117A22.571,22.571,0,0,1,76.1,79.632c.514,3.2-1.376,5.258-4.486,5.484-12.015.874-25.139-.623-37.266-.074a4.645,4.645,0,0,1-3.794-4.623c.107-1.367,1.089-2.344,1.413-3.606H27.451c-1.123,0-2.148-1.483-2.732-1.658-.819-.246-2.109.071-3-.049-.163,1.193.223,2.915,0,4.025m40-25V34.981a6.313,6.313,0,0,0-.736-.727l-32.569-.138c-1.494-.035-1.721.783-1.828,2.075-.957,11.562.745,24.421,0,36.121a1.912,1.912,0,0,0,1.405,2.009c.751.168,5.1.167,5.575-.175L50.247,45.7a4.579,4.579,0,0,1,6.115-.241ZM24.158,49.982H21.718V72.666h2.439Z" fill="#5d0b80"/>
            <path id="Trazado_1266053" data-name="Trazado 1266053" d="M213.947,234.768c1.185-.357,1.657.174,1.784,1.289a84.993,84.993,0,0,1,0,12.449c-.221,1.929-2.251,1.808-2.455.251a90.664,90.664,0,0,1,0-12.95c.064-.479.143-.879.671-1.038" transform="translate(-161.079 -177.421)" fill="#5d0b80"/>
            <path id="Trazado_1266054" data-name="Trazado 1266054" d="M214.575,306.811a1.337,1.337,0,1,1,.81,2.538c-1.428.384-2.129-2.141-.81-2.538" transform="translate(-161.707 -231.903)" fill="#5d0b80"/>
          </g>
        </g>
      </g>
    </g>
  </g>
</svg>
