<svg xmlns="http://www.w3.org/2000/svg" xmlns:xlink="http://www.w3.org/1999/xlink" width="150.5" height="150.501" viewBox="0 0 150.5 150.501">
  <defs>
    <clipPath id="clip-path">
      <rect id="Rectángulo_455261" data-name="Rectángulo 455261" width="38.951" height="37.623" fill="#e6fffa"/>
    </clipPath>
    <clipPath id="clip-path-2">
      <rect id="Rectángulo_458263" data-name="Rectángulo 458263" width="87.902" height="77.091" fill="#5d0b80"/>
    </clipPath>
  </defs>
  <g id="Grupo_1207157" data-name="Grupo 1207157" transform="translate(-307.436 -10011.92)">
    <path id="Sustracción_130" data-name="Sustracción 130" d="M26.051,25.795H0V11.245H11.352V0h14.7V25.795Z" transform="translate(431.641 10038.471) rotate(-90)" fill="#e3a4fe" stroke="rgba(0,0,0,0)" stroke-miterlimit="10" stroke-width="1"/>
    <g id="Grupo_1178100" data-name="Grupo 1178100" transform="translate(307.436 10162.421) rotate(-90)">
      <path id="Trazado_998183" data-name="Trazado 998183" d="M0,0V37.623H25.58V24.056H38.951V0Z" transform="translate(0 0)" fill="#5d0b80"/>
      <g id="Grupo_1178099" data-name="Grupo 1178099" transform="translate(0 0)">
        <g id="Grupo_1178098" data-name="Grupo 1178098" clip-path="url(#clip-path)">
          <path id="Trazado_998184" data-name="Trazado 998184" d="M0,9.021a9.025,9.025,0,1,1,9.025,9.021A9.023,9.023,0,0,1,0,9.021" transform="translate(4.434 5.629)" fill="#e3a4fe"/>
        </g>
      </g>
    </g>
    <g id="Grupo_1177470" data-name="Grupo 1177470" transform="translate(308.059 10012.421)">
      <circle id="Elipse_13609" data-name="Elipse 13609" cx="74.688" cy="74.688" r="74.688" fill="#fff"/>
      <g id="Grupo_1099776" data-name="Grupo 1099776" transform="translate(28.822 28.945)">
        <g id="Grupo_1099618" data-name="Grupo 1099618" transform="translate(0.267 -0.538)">
          <rect id="Rectángulo_401104" data-name="Rectángulo 401104" width="90.569" height="91.661" transform="translate(0)" fill="none"/>
        </g>
        <g id="Grupo_1207431" data-name="Grupo 1207431" transform="translate(1.267 6.463)">
          <g id="Grupo_1207430" data-name="Grupo 1207430" clip-path="url(#clip-path-2)">
            <path id="Trazado_1266076" data-name="Trazado 1266076" d="M305.51,150.043a9.52,9.52,0,0,0,0,19.039h0a9.52,9.52,0,0,0,0-19.039m0,17.231a7.712,7.712,0,1,1,7.712-7.712,7.7,7.7,0,0,1-7.712,7.712" transform="translate(-237.857 -120.574)" fill="#5d0b80"/>
            <path id="Trazado_1266077" data-name="Trazado 1266077" d="M202.247,115.9l-1.875-1.875a.9.9,0,0,0-1.278,1.278l1.875,1.875a1.882,1.882,0,1,1-2.662,2.662l-7.274-7.274A13.432,13.432,0,0,0,193.7,109.9l2.416,2.416a.9.9,0,0,0,1.278-1.278l-2.689-2.688a13.293,13.293,0,0,0-.609-13.8V86.472a2.835,2.835,0,0,0-2.832-2.832h-2.282V81.181a2.835,2.835,0,0,0-2.832-2.832H160.954a.9.9,0,1,0,0,1.808h25.191a1.026,1.026,0,0,1,1.024,1.025V83.64H151.584a2.835,2.835,0,0,0-2.832,2.832v46.481h-2.283a1.025,1.025,0,0,1-1.024-1.024V81.181a1.026,1.026,0,0,1,1.024-1.025h10.267a.9.9,0,1,0,0-1.808H146.469a2.835,2.835,0,0,0-2.832,2.832v50.748a2.835,2.835,0,0,0,2.832,2.832h2.283v2.459a2.835,2.835,0,0,0,2.832,2.832h39.676a2.835,2.835,0,0,0,2.832-2.832V118.18l2.937,2.937a3.69,3.69,0,1,0,5.218-5.218m-26.865-5.466a11.453,11.453,0,1,1,19.153-8.482c0,9.781-11.759,15.211-19.153,8.482m16.9,26.788a1.026,1.026,0,0,1-1.024,1.024H151.584a1.025,1.025,0,0,1-1.024-1.024V86.472a1.025,1.025,0,0,1,1.024-1.024h39.676a1.025,1.025,0,0,1,1.024,1.024V92.4a13.263,13.263,0,1,0-10.632,22.734,13.36,13.36,0,0,0,7.827-1.567l2.8,2.8V137.22Z" transform="translate(-115.426 -62.961)" fill="#5d0b80"/>
            <path id="Trazado_1266078" data-name="Trazado 1266078" d="M198.4,144.832h11.188a.9.9,0,0,0,0-1.808H198.4a.9.9,0,0,0,0,1.808" transform="translate(-158.705 -114.933)" fill="#5d0b80"/>
            <path id="Trazado_1266079" data-name="Trazado 1266079" d="M198.4,170.923h11.188a.9.9,0,0,0,0-1.808H198.4a.9.9,0,0,0,0,1.808" transform="translate(-158.705 -135.9)" fill="#5d0b80"/>
            <path id="Trazado_1266080" data-name="Trazado 1266080" d="M198.4,197.013h11.188a.9.9,0,0,0,0-1.808H198.4a.9.9,0,0,0,0,1.808" transform="translate(-158.705 -156.866)" fill="#5d0b80"/>
            <path id="Trazado_1266081" data-name="Trazado 1266081" d="M198.4,224.842h11.188a.9.9,0,0,0,0-1.808H198.4a.9.9,0,0,0,0,1.808" transform="translate(-158.705 -179.229)" fill="#5d0b80"/>
            <path id="Trazado_1266082" data-name="Trazado 1266082" d="M225.435,277.588H215.9l-1.087-2.455a10.315,10.315,0,0,0,2.493-11.725h8.71a.9.9,0,0,0,0-1.808h-9.726a10.337,10.337,0,1,0-2.954,14.662l1.149,2.6a.9.9,0,0,0,.826.538h10.123a.9.9,0,0,0,0-1.808m-18.511-10.065V276a8.528,8.528,0,1,1,7.03-14.4h-1.41a.9.9,0,0,0,0,1.808h2.749a8.461,8.461,0,0,1,1.015,3.212h-8.48A.9.9,0,0,0,206.925,267.523Zm1.808,8.48v-7.576h7.576a8.5,8.5,0,0,1-2.277,4.94l-.661-1.493a.9.9,0,1,0-1.653.732l.878,1.983A8.476,8.476,0,0,1,208.732,276Z" transform="translate(-158.704 -206.675)" fill="#5d0b80"/>
            <path id="Trazado_1266083" data-name="Trazado 1266083" d="M344.789,305.209h-5.766a.9.9,0,1,0,0,1.808h5.766a.9.9,0,1,0,0-1.808" transform="translate(-271.711 -245.264)" fill="#5d0b80"/>
            <path id="Trazado_1266084" data-name="Trazado 1266084" d="M344.789,327.82h-5.766a.9.9,0,1,0,0,1.808h5.766a.9.9,0,1,0,0-1.808" transform="translate(-271.711 -263.434)" fill="#5d0b80"/>
            <path id="Trazado_1266085" data-name="Trazado 1266085" d="M114.831,99.318l-.861.241v1.972l.936.2a11.631,11.631,0,0,1,3.484,1.3V97.7a8.848,8.848,0,0,1-.869.535,13.444,13.444,0,0,1-2.691,1.082" transform="translate(-91.586 -78.511)" fill="#5d0b80"/>
            <path id="Trazado_1266086" data-name="Trazado 1266086" d="M26.8,40.065a11.477,11.477,0,0,1-.965.671A17.421,17.421,0,0,1,20.3,42.88a32.923,32.923,0,0,1-6.875.7c-2.362,0-4.577-.1-6.584-.3a23.853,23.853,0,0,1-4.376-.815l.379-6.2a15.236,15.236,0,0,0,3.531.932,40.093,40.093,0,0,0,5.722.4,12.76,12.76,0,0,0,7.039-1.638,5.67,5.67,0,0,0,2.77-4.912,5.12,5.12,0,0,0-2.608-4.67A12.426,12.426,0,0,0,13,25.048c-.689,0-1.458.01-2.352.031q-.584.014-1.117.034V20.154c.158.006.327.009.512.009h3.018a11.73,11.73,0,0,0,2.784-.335,9.666,9.666,0,0,0,2.542-1,6.342,6.342,0,0,0,2-1.778,4.524,4.524,0,0,0,.858-2.714,5.446,5.446,0,0,0-.837-3.106A5.723,5.723,0,0,0,18.32,9.371a8.227,8.227,0,0,0-2.746-.85,20.962,20.962,0,0,0-2.815-.192c-.711,0-1.492.032-2.321.094s-1.694.156-2.579.28a25.054,25.054,0,0,0-2.725.539q-.524.134-1.02.293L3.736,3.793a35.719,35.719,0,0,1,5.1-1.053,47.036,47.036,0,0,1,5.976-.383,33.056,33.056,0,0,1,5.681.5A15.352,15.352,0,0,1,25.4,4.559,10.03,10.03,0,0,1,28.831,7.72a8.841,8.841,0,0,1,1.279,4.987,9.726,9.726,0,0,1-.095,1.372H32.39a12.337,12.337,0,0,0,.077-1.372,11.124,11.124,0,0,0-1.679-6.3,12.37,12.37,0,0,0-4.232-3.9A17.706,17.706,0,0,0,20.9.531,35.437,35.437,0,0,0,14.811,0,49.378,49.378,0,0,0,8.534.4,38.641,38.641,0,0,0,2.152,1.8l-.891.274L1.976,12.96l1.544-.685a13.976,13.976,0,0,1,2.2-.75,22.667,22.667,0,0,1,2.467-.488c.836-.117,1.654-.205,2.43-.264s1.492-.087,2.145-.087a18.563,18.563,0,0,1,2.5.17,5.886,5.886,0,0,1,1.962.6,3.342,3.342,0,0,1,1.235,1.1,3.174,3.174,0,0,1,.431,1.784,2.187,2.187,0,0,1-.41,1.331,3.948,3.948,0,0,1-1.264,1.119,7.315,7.315,0,0,1-1.924.752,9.381,9.381,0,0,1-2.225.268H10.043c-.294,0-.545-.009-.749-.026-.221-.018-.489-.047-.794-.085l-1.326-.167V27.6l1.247-.072c.666-.039,1.434-.069,2.282-.089s1.636-.03,2.3-.03a10.377,10.377,0,0,1,5.111,1.017,2.772,2.772,0,0,1,1.436,2.633,3.29,3.29,0,0,1-1.7,2.934A10.722,10.722,0,0,1,12.1,35.248a37.713,37.713,0,0,1-5.385-.38A11.833,11.833,0,0,1,2.372,33.42L.715,32.444,0,44.125l.841.295a24.891,24.891,0,0,0,5.767,1.208c2.084.2,4.376.307,6.814.307a35.277,35.277,0,0,0,7.369-.75A19.948,19.948,0,0,0,26.8,42.9Z" fill="#5d0b80"/>
          </g>
        </g>
      </g>
    </g>
  </g>
</svg>
