<svg xmlns="http://www.w3.org/2000/svg" xmlns:xlink="http://www.w3.org/1999/xlink" width="96" height="96" viewBox="0 0 96 96">
  <defs>
    <clipPath id="clip-path">
      <rect id="Rectángulo_458277" data-name="Rectángulo 458277" width="57.5" height="57.46" fill="#fff"/>
    </clipPath>
  </defs>
  <g id="Grupo_1205989" data-name="Grupo 1205989" transform="translate(-383.746 -8400.001)">
    <path id="Trazado_997400" data-name="Trazado 997400" d="M48,0A48,48,0,1,1,0,48,48,48,0,0,1,48,0Z" transform="translate(383.746 8400.001)" fill="#5d0b80"/>
    <g id="Grupo_1099776" data-name="Grupo 1099776" transform="translate(401.746 8418)">
      <g id="Grupo_1099618" data-name="Grupo 1099618" transform="translate(-0.035 -1.76)">
        <rect id="Rectángulo_401104" data-name="Rectángulo 401104" width="59.378" height="60.093" transform="translate(0)" fill="none"/>
      </g>
      <g id="Grupo_1207441" data-name="Grupo 1207441" transform="translate(0.965 -0.759)">
        <g id="Grupo_1207440" data-name="Grupo 1207440" clip-path="url(#clip-path)">
          <path id="Trazado_1266115" data-name="Trazado 1266115" d="M167.5,139.663c.673.669-.369,1.6-.3,1.653,1.2.291,4.543.281,3.143,2.214-.609.84-4.729,4.416-4.812,4.848A15.493,15.493,0,0,1,155,170.394c-15,3.063-24.917-14.974-14.237-25.942,4.676-4.8,12-5.72,18.014-2.988,1.108-.673,4.385-4.865,5.332-5.038,1.634-.3,1.137,2.537,1.824,3.361a1.282,1.282,0,0,1,1.57-.125m-3.69-.38-4.156,4.073c-.027.315.274,2.2.513,2.2l4.06-4.057Zm-4.066,9.325c-.066.275.054.392.164.6,2.152,4,3.179,6.979.65,11.321-5.667,9.727-20.85,4.234-18.912-7.044a10.325,10.325,0,0,1,16.657-6.066c.349-.229.158-.265.139-.47a31.1,31.1,0,0,0-.77-3.643c-.3-.6-3.269-1.349-3.994-1.431-16-1.806-21.431,19.693-7.389,25.868,11.456,5.038,22.94-6.832,17.771-18.11Zm7.966-5.425-2.2-.259-4.074,4.155c.772-.068,1.628.6,2.37.253.234-.108,3.354-3.256,3.649-3.641.131-.17.329-.215.252-.509m-16.818,3.779c-8.142.785-10.354,11.86-3.13,15.745,8.011,4.308,16.133-5.472,10.54-12.571l-2.262,2.31c2.245,4.142-.749,8.621-5.5,7.819a5.351,5.351,0,0,1-3.836-4.3,5.1,5.1,0,0,1,7.867-4.861l2.28-2.254c.1-.419-2.015-1.352-2.405-1.476a9.046,9.046,0,0,0-3.558-.411m2.239,5.376a3.271,3.271,0,0,0-3.819,5.09c2.355,2.774,7-.152,5.344-3.565-.987.52-2.149,2.9-3.39,2.289-1.793-.878,2.216-3.423,1.865-3.814" transform="translate(-113.184 -113.279)" fill="#fff"/>
          <path id="Trazado_1266116" data-name="Trazado 1266116" d="M29.645,4.1a25.908,25.908,0,0,1,5.3,2.179c1.136-.324,3.022-1.756,4.162-1.388a39.7,39.7,0,0,1,4.817,4.85c.4,1.1-1.567,3.281-1.362,4.233.123.57,1.1,2.222,1.409,3.007a10.153,10.153,0,0,1,.585,2.041c.693.338,3.676,1.158,3.951,1.729.453.938.147,3.592-1.5,2.557-.455-.286-.162-1.307-.3-1.517-.094-.139-2.677-.9-3.149-1.175-.808-.465-1.1-2.448-1.494-3.423-.462-1.135-1.165-2.159-1.6-3.308l1.487-3.536A36.519,36.519,0,0,0,38.685,7c-.186-.11-.219-.173-.474-.135-.936.139-2.474,1.477-3.587,1.331a25.651,25.651,0,0,1-2.478-1.264c-1.05-.448-2.561-.715-3.431-1.146C27.689,5.282,27.6,2.843,26.981,2.1c-.3-.357-4.253-.143-5.005-.087L20.449,5.57c-1.142.506-2.347.757-3.5,1.246-1.13.48-2.426,1.618-3.621,1.3C12.733,7.965,10.87,6.744,10.4,6.87c-.206.165-.477.316-.667.484a38.53,38.53,0,0,0-2.781,2.871c-.211.976,1.507,2.75,1.286,3.985-.085.477-1.1,2.041-1.381,2.693-.472,1.113-.749,2.274-1.177,3.4L2,22.046l.051,4.811c.8.562,3.144.9,3.657,1.6.364.5.95,2.9,1.322,3.764.253.592,1.087,1.785,1.184,2.212.287,1.274-1.6,3.326-1.245,4.109a34.924,34.924,0,0,0,3.421,3.371l3.536-1.487c1.149.432,2.174,1.132,3.309,1.6a25.82,25.82,0,0,1,3.046,1.022c.548.393,1.147,2.649,1.494,3.422.222.493,1.166,1.27.3,1.931-1.76,1.348-2.525-2.949-3.017-3.882A20.025,20.025,0,0,1,13.9,42.492c-1.052.088-3.084,1.674-4,1.447a3.451,3.451,0,0,1-.9-.639,40.653,40.653,0,0,1-3.887-3.911c-.849-1.346.947-3.2,1.184-4.583a24.27,24.27,0,0,1-2.114-5C2.925,28.749.28,29.085.1,27.113A37.838,37.838,0,0,1,.12,21.352,2.064,2.064,0,0,1,.565,20.4c.585-.405,3.275-.962,3.624-1.462a21.468,21.468,0,0,1,2.125-5.054C6.1,12.721,4.549,10.8,4.891,9.678c.238-.783,4.062-3.8,4.715-4.778,1.116-.511,3.2,1.212,4.405,1.348A22.317,22.317,0,0,1,19.055,4.09c.481-.45.966-2.961,1.388-3.57A2.069,2.069,0,0,1,21.552.06,40.406,40.406,0,0,1,27.87.192c.822.35,1.416,3.042,1.775,3.9" transform="translate(-0.001 0)" fill="#fff"/>
          <path id="Trazado_1266117" data-name="Trazado 1266117" d="M92.133,79.05a1.729,1.729,0,0,1-.71.384c-1.255.04-.988-1.995-1.145-2.746-1.4-6.708-7.611-10.841-14.366-9.026-10.361,2.784-11.2,17.266-1.355,21.526.783.339,2.359.41,2.512,1.4.351,2.264-4.339-.193-5.109-.665A13.3,13.3,0,1,1,91.68,74.608c.257.815.888,3.858.453,4.442" transform="translate(-54.61 -54.286)" fill="#fff"/>
          <path id="Trazado_1266118" data-name="Trazado 1266118" d="M109.358,122.107a29.79,29.79,0,0,1-2.321-2.518c-.326-.8.613-1.41,1.4-1.047.59.272,3.053,3.408,3.473,3.3l6.014-7.384c.895-.712,1.945.039,1.447,1.108l-6.938,8.487a.844.844,0,0,1-.939.075c-.146-.068-1.832-1.727-2.136-2.023" transform="translate(-88.835 -94.823)" fill="#fff"/>
        </g>
      </g>
    </g>
  </g>
</svg>
