<svg xmlns="http://www.w3.org/2000/svg" xmlns:xlink="http://www.w3.org/1999/xlink" width="208" height="448.232" viewBox="0 0 208 448.232">
  <defs>
    <clipPath id="clip-path">
      <rect id="Rectángulo_456506" data-name="Rectángulo 456506" width="208" height="437.443" fill="none"/>
    </clipPath>
    <clipPath id="clip-path-2">
      <rect id="Rectángulo_456504" data-name="Rectángulo 456504" width="321.589" height="437.443" fill="none"/>
    </clipPath>
    <clipPath id="clip-path-3">
      <rect id="Rectángulo_456503" data-name="Rectángulo 456503" width="244.83" height="428.612" fill="none"/>
    </clipPath>
    <clipPath id="clip-path-4">
      <rect id="Rectángulo_458471" data-name="Rectángulo 458471" width="203.289" height="408.819" fill="none"/>
    </clipPath>
    <clipPath id="clip-path-6">
      <rect id="Rectángulo_458459" data-name="Rectángulo 458459" width="35.268" height="35.952" fill="none"/>
    </clipPath>
    <clipPath id="clip-path-7">
      <rect id="Rectángulo_458460" data-name="Rectángulo 458460" width="41.336" height="40.769" fill="none"/>
    </clipPath>
    <clipPath id="clip-path-8">
      <rect id="Rectángulo_458464" data-name="Rectángulo 458464" width="91.418" height="70.101" fill="none"/>
    </clipPath>
    <clipPath id="clip-path-10">
      <rect id="Rectángulo_458461" data-name="Rectángulo 458461" width="53.193" height="54.023" fill="none"/>
    </clipPath>
    <clipPath id="clip-path-11">
      <rect id="Rectángulo_458462" data-name="Rectángulo 458462" width="42.866" height="43.536" fill="none"/>
    </clipPath>
    <clipPath id="clip-path-12">
      <rect id="Rectángulo_458465" data-name="Rectángulo 458465" width="64.551" height="2.646" fill="none"/>
    </clipPath>
    <clipPath id="clip-path-13">
      <rect id="Rectángulo_458466" data-name="Rectángulo 458466" width="62.542" height="83.159" fill="none"/>
    </clipPath>
    <clipPath id="clip-path-14">
      <rect id="Rectángulo_458468" data-name="Rectángulo 458468" width="20.974" height="2.375" fill="none"/>
    </clipPath>
    <clipPath id="clip-path-15">
      <rect id="Rectángulo_458469" data-name="Rectángulo 458469" width="20.975" height="2.375" fill="none"/>
    </clipPath>
  </defs>
  <g id="Grupo_1206994" data-name="Grupo 1206994" transform="translate(-41.855 87.712)">
    <g id="Grupo_1204235" data-name="Grupo 1204235" transform="translate(41.855 -87.712)">
      <path id="Trazado_1263184" data-name="Trazado 1263184" d="M0,0H208V446.9H0Z" fill="#fbf1ff"/>
    </g>
    <g id="Grupo_1205415" data-name="Grupo 1205415" transform="translate(41.856 -76.923)">
      <g id="Grupo_1205414" data-name="Grupo 1205414" clip-path="url(#clip-path)">
        <g id="Grupo_1205411" data-name="Grupo 1205411" transform="translate(-61.909)">
          <g id="Grupo_1205410" data-name="Grupo 1205410" clip-path="url(#clip-path-2)">
            <g id="Grupo_1205409" data-name="Grupo 1205409" transform="translate(25.078 8.83)" opacity="0.42">
              <g id="Grupo_1205408" data-name="Grupo 1205408">
                <g id="Grupo_1205407" data-name="Grupo 1205407" clip-path="url(#clip-path-3)">
                  <path id="Trazado_1261794" data-name="Trazado 1261794" d="M202.957,490.221c4.461-18.4,6.1-42.828,4.364-65.046s-6.816-41.823-13.527-52.208c-5.273-8.159-11.589-11.161-15.808-23.745-3.736-11.143-5.072-27.88-5.1-43.765s1.067-31.581,1.432-47.427c.926-40.184-3.188-81.9-12.143-111.665s-22.864-46.2-35.958-39.271c-15.872,8.4-28.328,47.583-43.991,59.03-9.037,6.6-18.5,3.5-27.752.908s-18.815-4.524-27.651,4.238S9.952,202.045,8.938,230.048c-1.352,37.334,9.608,74.985,4.855,109.673-1.762,12.862-5.41,22.316-8.161,33.472-8.438,34.213-7.26,86.933,2.623,117.387Z" transform="translate(36.831 -61.968)" fill="#e3a4fe"/>
                  <path id="Trazado_1261795" data-name="Trazado 1261795" d="M3.7,330.627c2.471,16.876,7.9,30.525,14.386,36.19,3.552,3.1,7.611,3.762,10.9-.937s5.4-15.839,3.968-24.987c-1.309-8.338-4.85-12.344-7.139-19.037-2.252-6.589-3.2-15.547-3.868-24.26s-1.135-17.706-2.668-25.611S14.857,257.3,11.5,257.222c-10.29-.239-10.069,57.913-7.8,73.405" transform="translate(209.713 -78.486)" fill="#9db7fe"/>
                  <path id="Trazado_1261796" data-name="Trazado 1261796" d="M342.737,329.04c-.05,7.989-.875,16.151-2.784,22.334s-5.007,10.056-7.981,8.729-5.556-8.533-5.464-16.519c.081-6.93,1.979-13.164,1.833-20.087-.094-4.448-1.028-8.516-1.187-12.952-.308-8.545,2.618-16.434,5.843-17.254,7.657-1.95,9.839,19.948,9.741,35.75" transform="translate(-326.505 -82.401)" fill="#dbe2ef"/>
                </g>
              </g>
            </g>
          </g>
        </g>
        <g id="Grupo_1207661" data-name="Grupo 1207661" transform="translate(4.477 28.624)">
          <g id="Grupo_1207660" data-name="Grupo 1207660" clip-path="url(#clip-path-4)">
            <g id="Grupo_1207659" data-name="Grupo 1207659">
              <g id="Grupo_1207658" data-name="Grupo 1207658" clip-path="url(#clip-path-4)">
                <path id="Trazado_1266854" data-name="Trazado 1266854" d="M82.749,39.283a31.442,31.442,0,1,1,31.442,31.388A31.414,31.414,0,0,1,82.749,39.283" transform="translate(-8.174 -1.614)" fill="#0d004f"/>
                <path id="Trazado_1266855" data-name="Trazado 1266855" d="M79.911,32.905a31.441,31.441,0,1,1,31.442,31.388A31.415,31.415,0,0,1,79.911,32.905" transform="translate(-3.078 -0.31)" fill="#fff"/>
                <path id="Trazado_1266856" data-name="Trazado 1266856" d="M78.391,32.6a32.651,32.651,0,1,1,32.651,32.6A32.623,32.623,0,0,1,78.391,32.6" transform="translate(-2.767)" fill="#3041b0"/>
                <path id="Trazado_1266857" data-name="Trazado 1266857" d="M86.638,34.278a26.09,26.09,0,1,1,26.09,26.045,26.068,26.068,0,0,1-26.09-26.045" transform="translate(-4.453 -1.683)" fill="#d4e2ff"/>
                <g id="Grupo_1207630" data-name="Grupo 1207630" transform="translate(99.097 6.55)" opacity="0.62">
                  <g id="Grupo_1207629" data-name="Grupo 1207629">
                    <g id="Grupo_1207628" data-name="Grupo 1207628" clip-path="url(#clip-path-6)">
                      <path id="Trazado_1266858" data-name="Trazado 1266858" d="M112.831,36.825C104.138,27.814,95.452,18.79,86.638,9.9a26.059,26.059,0,0,1,33.309,34.289q-3.562-3.675-7.115-7.36" transform="translate(-86.638 -8.233)" fill="#fff"/>
                    </g>
                  </g>
                </g>
                <g id="Grupo_1207633" data-name="Grupo 1207633" transform="translate(87.558 12.055)" opacity="0.62">
                  <g id="Grupo_1207632" data-name="Grupo 1207632" transform="translate(0)">
                    <g id="Grupo_1207631" data-name="Grupo 1207631" clip-path="url(#clip-path-7)">
                      <path id="Trazado_1266859" data-name="Trazado 1266859" d="M128.363,53.667c-1.448-1.418-2.938-2.792-4.383-4.212Q108.838,34.57,93.514,19.874a26.239,26.239,0,0,1,4.69-4.721c12.288,12.091,24.452,24.309,36.646,36.493a26.218,26.218,0,0,1-4.192,4.276c-.737-.81-1.582-1.557-2.3-2.255" transform="translate(-93.514 -15.153)" fill="#fff"/>
                    </g>
                  </g>
                </g>
                <path id="Trazado_1266860" data-name="Trazado 1266860" d="M116.518,40.377a2.319,2.319,0,1,1,2.318,2.314,2.316,2.316,0,0,1-2.318-2.314" transform="translate(-10.562 -7.782)"/>
                <path id="Trazado_1266861" data-name="Trazado 1266861" d="M119,41.873l12.186-5.98-.432-21.757a.312.312,0,0,0-.624,0l-.489,20.818L118.649,41.22a.37.37,0,0,0,.347.653" transform="translate(-22.135 -2.828)"/>
                <g id="Grupo_1207645" data-name="Grupo 1207645" transform="translate(56.054 140.715)" opacity="0.73">
                  <g id="Grupo_1207644" data-name="Grupo 1207644">
                    <g id="Grupo_1207643" data-name="Grupo 1207643" clip-path="url(#clip-path-8)">
                      <g id="Grupo_1207642" data-name="Grupo 1207642" style="mix-blend-mode: multiply;isolation: isolate">
                        <g id="Grupo_1207641" data-name="Grupo 1207641">
                          <g id="Grupo_1207640" data-name="Grupo 1207640" clip-path="url(#clip-path-8)">
                            <g id="Grupo_1207636" data-name="Grupo 1207636" style="mix-blend-mode: multiply;isolation: isolate">
                              <g id="Grupo_1207635" data-name="Grupo 1207635">
                                <g id="Grupo_1207634" data-name="Grupo 1207634" clip-path="url(#clip-path-10)">
                                  <path id="Trazado_1266862" data-name="Trazado 1266862" d="M153.421,183.737l1.951-2.786a1.833,1.833,0,0,1,2.413-.53,26.709,26.709,0,0,1,6.8,5.514,1.832,1.832,0,0,1-.016,2.462l-2.339,2.524a1.8,1.8,0,0,0-.229,2.156,20.807,20.807,0,0,1,1.777,3.684,1.79,1.79,0,0,0,1.62,1.151l3.933.151a1.832,1.832,0,0,1,1.733,1.547,27.234,27.234,0,0,1-.064,8.994,1.829,1.829,0,0,1-1.861,1.515l-3.632-.125a1.792,1.792,0,0,0-1.749,1.15,20.623,20.623,0,0,1-.823,1.91q-.436.885-.944,1.711a1.8,1.8,0,0,0,.126,2.036l2.321,2.991a1.83,1.83,0,0,1-.1,2.356,27.215,27.215,0,0,1-7.072,5.532,1.83,1.83,0,0,1-2.329-.492l-2.251-2.951a1.8,1.8,0,0,0-1.981-.629,20.883,20.883,0,0,1-4.251.9,1.807,1.807,0,0,0-1.6,1.524l-.512,3.325a1.831,1.831,0,0,1-1.948,1.541,26.725,26.725,0,0,1-8.663-2.107,1.838,1.838,0,0,1-1.107-2l.712-4.031a1.785,1.785,0,0,0-.725-1.787,20.573,20.573,0,0,1-3.025-2.535,1.8,1.8,0,0,0-2.154-.3l-3,1.656a1.827,1.827,0,0,1-2.389-.57,27.354,27.354,0,0,1-3.757-8.068,1.831,1.831,0,0,1,.947-2.138l3.469-1.709a1.791,1.791,0,0,0,1.008-1.739,20.59,20.59,0,0,1,.068-4.025,1.8,1.8,0,0,0-1.062-1.835l-3.255-1.457a1.827,1.827,0,0,1-1-2.2,27.27,27.27,0,0,1,3.917-7.928,1.828,1.828,0,0,1,2.368-.539l3.094,1.708a1.8,1.8,0,0,0,2.123-.274,20.737,20.737,0,0,1,3.452-2.684,1.8,1.8,0,0,0,.788-2l-.915-3.393a1.828,1.828,0,0,1,1.1-2.173,27.37,27.37,0,0,1,8.631-1.874,1.829,1.829,0,0,1,1.9,1.51l.606,3.5a1.8,1.8,0,0,0,1.539,1.484,20.544,20.544,0,0,1,4.287,1.037,1.8,1.8,0,0,0,2.086-.669m-13.811,7.133c-15.79,8.05-8.495,29.5,8.931,26.255a2.036,2.036,0,0,0,.545-.186c15.781-8.055,8.488-29.493-8.931-26.254a2.033,2.033,0,0,0-.545.185" transform="translate(-118.209 -176.878)" fill="#edf5ff"/>
                                </g>
                              </g>
                            </g>
                            <g id="Grupo_1207639" data-name="Grupo 1207639" transform="translate(48.552 26.564)" style="mix-blend-mode: multiply;isolation: isolate">
                              <g id="Grupo_1207638" data-name="Grupo 1207638" transform="translate(0)">
                                <g id="Grupo_1207637" data-name="Grupo 1207637" clip-path="url(#clip-path-11)">
                                  <path id="Trazado_1266863" data-name="Trazado 1266863" d="M98.537,215.8l1.572-2.246a1.477,1.477,0,0,1,1.944-.427,21.56,21.56,0,0,1,5.477,4.444,1.478,1.478,0,0,1-.014,1.984l-1.885,2.034a1.451,1.451,0,0,0-.185,1.737,16.808,16.808,0,0,1,1.433,2.969,1.44,1.44,0,0,0,1.306.928l3.169.122a1.476,1.476,0,0,1,1.4,1.247,21.918,21.918,0,0,1-.053,7.247,1.472,1.472,0,0,1-1.5,1.22l-2.927-.1a1.447,1.447,0,0,0-1.411.928,16.431,16.431,0,0,1-.663,1.539q-.351.714-.761,1.379a1.447,1.447,0,0,0,.1,1.641l1.87,2.411a1.474,1.474,0,0,1-.084,1.9,21.941,21.941,0,0,1-5.7,4.458,1.475,1.475,0,0,1-1.877-.4l-1.815-2.378a1.45,1.45,0,0,0-1.6-.508,16.75,16.75,0,0,1-3.426.722,1.458,1.458,0,0,0-1.29,1.229l-.412,2.679a1.477,1.477,0,0,1-1.57,1.242,21.537,21.537,0,0,1-6.98-1.7,1.482,1.482,0,0,1-.894-1.614l.574-3.248a1.439,1.439,0,0,0-.584-1.44,16.58,16.58,0,0,1-2.437-2.042,1.45,1.45,0,0,0-1.737-.246l-2.418,1.334a1.471,1.471,0,0,1-1.925-.459,22.05,22.05,0,0,1-3.028-6.5,1.474,1.474,0,0,1,.763-1.723l2.8-1.377a1.445,1.445,0,0,0,.812-1.4,16.579,16.579,0,0,1,.055-3.244,1.448,1.448,0,0,0-.856-1.479l-2.624-1.174a1.473,1.473,0,0,1-.8-1.774,21.968,21.968,0,0,1,3.157-6.388,1.473,1.473,0,0,1,1.908-.434l2.493,1.376a1.452,1.452,0,0,0,1.71-.221,16.694,16.694,0,0,1,2.783-2.163,1.452,1.452,0,0,0,.633-1.616l-.737-2.734a1.472,1.472,0,0,1,.883-1.751,22.037,22.037,0,0,1,6.955-1.511,1.472,1.472,0,0,1,1.527,1.216l.488,2.817a1.454,1.454,0,0,0,1.241,1.2,16.516,16.516,0,0,1,3.455.835,1.455,1.455,0,0,0,1.681-.539m-11.131,5.748c-12.724,6.487-6.845,23.773,7.2,21.158a1.692,1.692,0,0,0,.44-.15c12.716-6.492,6.839-23.768-7.2-21.158a1.643,1.643,0,0,0-.44.15" transform="translate(-70.161 -210.269)" fill="#edf5ff"/>
                                </g>
                              </g>
                            </g>
                          </g>
                        </g>
                      </g>
                    </g>
                  </g>
                </g>
                <path id="Trazado_1266864" data-name="Trazado 1266864" d="M165.829,124.33h47.5l15.528,18.713V98.132c0-14.469-8.588-26.2-19.182-26.2H165.829c-10.594,0-19.182,11.73-19.182,26.2s8.589,26.2,19.182,26.2" transform="translate(-142.232 -14.707)" fill="#d4e2ff"/>
                <path id="Trazado_1266865" data-name="Trazado 1266865" d="M174.619,103.06a4.846,4.846,0,1,1,4.845,4.961,4.9,4.9,0,0,1-4.845-4.961" transform="translate(-119.938 -20.057)" fill="#fff"/>
                <path id="Trazado_1266866" data-name="Trazado 1266866" d="M194.412,103.06a4.846,4.846,0,1,1,4.845,4.961,4.9,4.9,0,0,1-4.845-4.961" transform="translate(-155.477 -20.057)" fill="#fff"/>
                <path id="Trazado_1266867" data-name="Trazado 1266867" d="M214.2,103.06a4.846,4.846,0,1,1,4.845,4.961,4.9,4.9,0,0,1-4.845-4.961" transform="translate(-191.015 -20.057)" fill="#fff"/>
                <path id="Trazado_1266868" data-name="Trazado 1266868" d="M88.276,152.617H54.96L44.067,165.436V134.67c0-9.912,6.025-17.947,13.455-17.947H88.276c7.431,0,13.455,8.035,13.455,17.947s-6.024,17.947-13.455,17.947" transform="translate(66.5 -23.864)" fill="#3041b0"/>
                <path id="Trazado_1266869" data-name="Trazado 1266869" d="M59.178,139.107a3.475,3.475,0,1,1,3.475,3.475,3.475,3.475,0,0,1-3.475-3.475" transform="translate(90.082 -27.73)" fill="#fff"/>
                <path id="Trazado_1266870" data-name="Trazado 1266870" d="M74.486,139.107a3.475,3.475,0,1,1,3.475,3.475,3.475,3.475,0,0,1-3.475-3.475" transform="translate(62.596 -27.73)" fill="#fff"/>
                <path id="Trazado_1266871" data-name="Trazado 1266871" d="M89.795,139.107a3.475,3.475,0,1,1,3.475,3.475,3.475,3.475,0,0,1-3.475-3.475" transform="translate(35.108 -27.73)" fill="#fff"/>
                <path id="Trazado_1266872" data-name="Trazado 1266872" d="M208.411,480.209c-3.1-4.884-8.075-7.56-14.29-7.56H183.156a17.468,17.468,0,0,0-14.363,7.509Z" transform="translate(-139.405 -96.634)" fill="#03163c"/>
                <path id="Trazado_1266873" data-name="Trazado 1266873" d="M210.714,495.329v-5.193a17.488,17.488,0,0,0-17.488-17.488H182.261a17.488,17.488,0,0,0-17.488,17.488v5.193" transform="translate(-138.51 -96.634)" fill="none" stroke="#0d004f" stroke-miterlimit="10" stroke-width="3.297"/>
                <path id="Trazado_1266874" data-name="Trazado 1266874" d="M156.731,492.353a5.816,5.816,0,1,1,5.816,5.815,5.816,5.816,0,0,1-5.816-5.815" transform="translate(-89.761 -99.474)" fill="#03163c"/>
                <path id="Trazado_1266875" data-name="Trazado 1266875" d="M160.535,493.131a2.79,2.79,0,1,1,2.79,2.79,2.79,2.79,0,0,1-2.79-2.79" transform="translate(-90.539 -100.251)" fill="#fff"/>
                <line id="Línea_3729" data-name="Línea 3729" y2="43.615" transform="translate(48.943 331.818)" fill="none" stroke="#03163c" stroke-miterlimit="10" stroke-width="7.694"/>
                <path id="Trazado_1266876" data-name="Trazado 1266876" d="M184.509,471.3h15.12a5.234,5.234,0,0,0-5.234-5.234h-4.652a5.234,5.234,0,0,0-5.234,5.234" transform="translate(-143.126 -95.289)" fill="#0d004f"/>
                <path id="Trazado_1266877" data-name="Trazado 1266877" d="M214.48,492.353a5.815,5.815,0,1,1,5.815,5.815,5.816,5.816,0,0,1-5.815-5.815" transform="translate(-193.451 -99.474)" fill="#03163c"/>
                <path id="Trazado_1266878" data-name="Trazado 1266878" d="M218.649,493.131a2.79,2.79,0,1,1,2.789,2.79,2.79,2.79,0,0,1-2.789-2.79" transform="translate(-194.885 -100.251)" fill="#fff"/>
                <path id="Trazado_1266879" data-name="Trazado 1266879" d="M173.572,297.617l28.228-1.048,22.762,85.54,9.637,3.212c3.146,0-3.442,4.158-3.442,7.3h-4.57l-49.592.033a8.281,8.281,0,0,1-8.134-6.7l-12.725-65.536a19.045,19.045,0,0,1,17.835-22.805" transform="translate(-155.352 -60.634)" fill="#0d004f"/>
                <path id="Trazado_1266880" data-name="Trazado 1266880" d="M183.074,386.671l50.594-1.745-9.911-77.645a12.419,12.419,0,0,0-12.773-10.631l-25.318.982a19.044,19.044,0,0,0-17.835,22.805Z" transform="translate(-163.592 -60.649)" fill="#c2d6ff"/>
                <line id="Línea_3730" data-name="Línea 3730" x2="2.076" y2="8.116" transform="translate(16.144 228.867)" fill="none" stroke="#0d004f" stroke-miterlimit="10" stroke-width="3.011"/>
                <line id="Línea_3731" data-name="Línea 3731" x2="2.076" y2="8.116" transform="translate(34.466 228.867)" fill="none" stroke="#0d004f" stroke-miterlimit="10" stroke-width="3.011"/>
                <path id="Trazado_1266881" data-name="Trazado 1266881" d="M205.559,283.621h35.961l-7.7-22.3H201.185a3.993,3.993,0,0,0-3.774,5.3l5.13,14.858a3.194,3.194,0,0,0,3.019,2.152" transform="translate(-195.105 -53.427)" fill="#0d004f"/>
                <path id="Trazado_1266882" data-name="Trazado 1266882" d="M200.553,283.287h35.961l-7.7-22.306H196.178a3.993,3.993,0,0,0-3.774,5.3l5.13,14.858a3.194,3.194,0,0,0,3.019,2.152" transform="translate(-186.115 -53.358)" fill="#fff"/>
                <path id="Trazado_1266883" data-name="Trazado 1266883" d="M200.553,283.287h35.961l-7.7-22.306H196.178a3.993,3.993,0,0,0-3.774,5.3l5.13,14.858A3.194,3.194,0,0,0,200.553,283.287Z" transform="translate(-186.115 -53.358)" fill="none" stroke="#fff" stroke-miterlimit="10" stroke-width="1"/>
                <g id="Grupo_1207648" data-name="Grupo 1207648" transform="translate(98.526 398.767)" style="mix-blend-mode: multiply;isolation: isolate">
                  <g id="Grupo_1207647" data-name="Grupo 1207647" transform="translate(0)">
                    <g id="Grupo_1207646" data-name="Grupo 1207646" clip-path="url(#clip-path-12)">
                      <path id="Trazado_1266884" data-name="Trazado 1266884" d="M50.546,502.57c0,.73,14.45,1.323,32.275,1.323S115.1,503.3,115.1,502.57s-14.45-1.323-32.275-1.323-32.275.593-32.275,1.323" transform="translate(-50.546 -501.247)" fill="#abc6ff"/>
                    </g>
                  </g>
                </g>
                <path id="Trazado_1266885" data-name="Trazado 1266885" d="M117.3,484.652l-3.915-9.343H100.162l1.521,9.742c3.907,4.477,9.454,8.312,13.559,4.015Z" transform="translate(6.301 -97.178)" fill="#ffaf99"/>
                <path id="Trazado_1266886" data-name="Trazado 1266886" d="M75.274,485.639s-1.9,14.257-.336,14.38l36.911.3s-2.576-6.547-9.676-7.846c-9.241-1.69-11.093-6.65-11.093-6.65S88.5,489,87.474,489.956a6.134,6.134,0,0,1-8.683-.463Z" transform="translate(32.315 -99.29)" fill="#ce3052"/>
                <path id="Trazado_1266887" data-name="Trazado 1266887" d="M100.452,377.418v0a26.109,26.109,0,0,0,25.984,26.232h28.293c1.652,0,2.6,1.907,4.715,6.139,0,0,19.247,50.331,19.577,50.331,0,0,16.567.259,16.648.076l-11.812-65.085a18.729,18.729,0,0,0-1.506-4.73c-4.967-10.4-13.336-11.438-20-11.564Z" transform="translate(-72.294 -77.164)" fill="#18004c"/>
                <path id="Trazado_1266888" data-name="Trazado 1266888" d="M110.738,378.367s-2.558,15.855,12.275,15.345c8.244-.285,17.458-.617,27.647-.392,7.24.16,11.376,5.291,14.469,14.613l16.352,52.517" transform="translate(-66.156 -77.358)" fill="none" stroke="#fff" stroke-miterlimit="10" stroke-width="0.392"/>
                <path id="Trazado_1266889" data-name="Trazado 1266889" d="M156.243,484.605l-.739-9.525-14.419,1.3L140.621,485l7.276,8.337Z" transform="translate(-64.825 -97.131)" fill="#ffaf99"/>
                <path id="Trazado_1266890" data-name="Trazado 1266890" d="M115.733,485.639s-1.9,14.257-.336,14.38l36.911.3s-2.56-6.634-9.676-7.846c-10.743-1.829-9.857-6.8-9.857-6.8l-5.511,4.877a5.288,5.288,0,0,1-7.411-.4Z" transform="translate(-40.331 -99.29)" fill="#ee3a58"/>
                <path id="Trazado_1266891" data-name="Trazado 1266891" d="M131.262,377.418v0a26.109,26.109,0,0,0,25.984,26.232h28.293a2.534,2.534,0,0,1,2.431,3.192l2.294,52.466a.507.507,0,0,0,.486.639h9.837c.2,0,5.97.433,6.051.25L214.3,393.11c.2-9.508-2.709-13.212-9-14.29Z" transform="translate(-115.449 -77.164)" fill="#3041b0"/>
                <path id="Trazado_1266892" data-name="Trazado 1266892" d="M146.267,378.367s-2.558,15.855,12.275,15.345c8.244-.285,21.544-.095,31.733.13a11.056,11.056,0,0,1,10.383,14.092l-3.707,51.8" transform="translate(-114.03 -77.358)" fill="none" stroke="#fff" stroke-miterlimit="10" stroke-width="0.392"/>
                <path id="Trazado_1266893" data-name="Trazado 1266893" d="M122.838,300.8l7.738-11.983-6.012-6.306s2.786-7.919,2.492-9.238c-.639-2.878-14.4,20.209-14.4,20.209l-10.025,9.958,12.012,11.687Z" transform="translate(-8.936 -55.82)" fill="#ffaf99"/>
                <path id="Trazado_1266894" data-name="Trazado 1266894" d="M114.473,287.53l3.1,1.516a2.6,2.6,0,0,1,1.086.736,1.079,1.079,0,0,1,0,1.194,1.816,1.816,0,0,1-1.109.719,11.955,11.955,0,0,1-1.6.3,16.033,16.033,0,0,1-3.4.091c-.421-.033-.425-.7,0-.661a15.973,15.973,0,0,0,2.84-.025c.48-.048.957-.121,1.43-.216a2.381,2.381,0,0,0,1.152-.407c.758-.7-.8-1.194-1.245-1.411l-2.587-1.263c-.382-.187-.047-.757.334-.571" transform="translate(-4.838 -58.778)" fill="#ea6f46"/>
                <path id="Trazado_1266895" data-name="Trazado 1266895" d="M112.727,285.359a20.759,20.759,0,0,0-2.111,3.427.331.331,0,1,1-.571-.334,20.792,20.792,0,0,1,2.111-3.427.342.342,0,0,1,.453-.119.333.333,0,0,1,.119.453" transform="translate(2.999 -58.241)" fill="#ea6f46"/>
                <path id="Trazado_1266896" data-name="Trazado 1266896" d="M108.137,291.7a.457.457,0,0,0,.284.463.767.767,0,0,0,.665.006,4,4,0,0,0,1.312-1.1,11.808,11.808,0,0,0,1.968-2.918c.184-.383.754-.049.571.334a12.226,12.226,0,0,1-2.591,3.578,2.232,2.232,0,0,1-1.868.812,1.176,1.176,0,0,1-.979-1.356c.092-.415.73-.239.638.176" transform="translate(4.815 -58.879)" fill="#ea6f46"/>
                <path id="Trazado_1266897" data-name="Trazado 1266897" d="M105.361,293.032a4.375,4.375,0,0,0,.717,1.983c.407.535,1.317-.379,1.615-.7a15.583,15.583,0,0,0,1.262-1.673l1.415-2c.243-.345.817-.015.571.334l-1.7,2.406a8.862,8.862,0,0,1-1.53,1.829c-.553.451-1.435.983-2.05.341a3.318,3.318,0,0,1-.583-1.029,5.462,5.462,0,0,1-.356-1.311c-.06-.416.578-.6.638-.176" transform="translate(8.98 -59.391)" fill="#ea6f46"/>
                <path id="Trazado_1266898" data-name="Trazado 1266898" d="M105.56,296a1.368,1.368,0,0,0,2.453.679.332.332,0,0,1,.468,0,.338.338,0,0,1,0,.467,2.02,2.02,0,0,1-3.559-.97.341.341,0,0,1,.232-.407.333.333,0,0,1,.407.231" transform="translate(11.247 -60.468)" fill="#ea6f46"/>
                <path id="Trazado_1266899" data-name="Trazado 1266899" d="M132.685,357.761s-9.614-66.278-12.068-70.4c0,0,5.687-3.011,13.271,12.937s8.658,20.566,8.658,20.566l16.7-17.135,13.635,14.285-30.332,39.433-8.907.955" transform="translate(-65.546 -58.704)" fill="#ee3a58"/>
                <path id="Trazado_1266900" data-name="Trazado 1266900" d="M189.282,281.282s-17.87,5.7-20.123,23.217,8.014,62.47,8.014,62.47,10.922-4.632,15.429-5.87a60.362,60.362,0,0,1,16.4-2.01l19.656-.344L221.7,299.324c-1.041-4.471-1.6-10.9-5.668-13.46l-6.873-4.158-13.609-3.495Z" transform="translate(-159.683 -56.881)" fill="#ee3a58"/>
                <g id="Grupo_1207651" data-name="Grupo 1207651" transform="translate(9.152 226.929)" style="mix-blend-mode: multiply;isolation: isolate">
                  <g id="Grupo_1207650" data-name="Grupo 1207650" transform="translate(0)">
                    <g id="Grupo_1207649" data-name="Grupo 1207649" clip-path="url(#clip-path-13)">
                      <path id="Trazado_1266901" data-name="Trazado 1266901" d="M225.836,356.771c-5.185-10.369-46.114-67.031-45.4-71.522-5.455,3.141-13.256,9.5-14.7,20.688-2.254,17.521,8.014,62.47,8.014,62.47s10.922-4.633,15.43-5.87a60.417,60.417,0,0,1,16.4-2.01l22.3-.176c.512-.511-1.79-3.068-2.046-3.58" transform="translate(-165.413 -285.249)" fill="#e87285"/>
                    </g>
                  </g>
                </g>
                <path id="Trazado_1266902" data-name="Trazado 1266902" d="M150.973,357.776l15.908,4.545s15.258,4.545,19.478,11.687L150,373.035Z" transform="translate(-102.401 -73.148)" fill="#ffaf99"/>
                <path id="Trazado_1266903" data-name="Trazado 1266903" d="M217.88,283.391c-4.046-2.565-19.477,6.01-22.823,22.516-3.395,17.7,2.607,52.865,8.393,54.984s30.662-.559,30.662-.559,1.181-15.658,1.947-20.453l-19.8-.649s4.5-24.191,1.623-55.839" transform="translate(-187.164 -57.848)" fill="#ee3a58"/>
                <path id="Trazado_1266904" data-name="Trazado 1266904" d="M195.342,261.817,192.733,274.2l4.761,5.411c7.411,8,8.441,2.7,9.83,2.033l-.955-14.528-6.905-2.756Z" transform="translate(-157.364 -53.529)" fill="#ffaf99"/>
                <path id="Trazado_1266905" data-name="Trazado 1266905" d="M195.068,265.018l6.905,3.816s.742,6.68-1.272,6.893c-1.686.177-7.492-5.228-6.893-9.332" transform="translate(-152.967 -54.183)" fill="#de7454"/>
                <path id="Trazado_1266906" data-name="Trazado 1266906" d="M189.6,256.629s-.928-5.134.239-3.7l3.1-11.522a25.276,25.276,0,0,0,3.839,3.539c1.9,1.312,6.342.575,7.516.059s.935-5.787.935-5.787,7.672-4.233,2.116-9.921c-5.158-3.836-18.12,4.386-18.12,4.386s-4.485-1.129-4.83,4.543c0,0-4.365-1.058,2.447,14.815" transform="translate(-151.679 -46.672)" fill="#18004c"/>
                <path id="Trazado_1266907" data-name="Trazado 1266907" d="M205.412,241.689c2.314,17.391,1.67,22.557.043,23.9-2.341,1.94-6.589.769-8.656-.017-3.391-1.29-5.785-4.891-6.53-5.961-.368-.528-4.644.354-4.067-3.711.426-3,2.02-2.038,2.83-1.327a.441.441,0,0,0,.708-.19c.6-1.772,1.761-8.88,3.189-10.6,3.526-4.25,6.391-.237,8.817.16,3.5.573,2.6-1.418,3.5-2.129Z" transform="translate(-151.722 -49.414)" fill="#ffaf99"/>
                <path id="Trazado_1266908" data-name="Trazado 1266908" d="M191.269,260.286s-1.307.709-4.586.551c0,0,1.858,2.249,3.125,1.742s1.461-2.294,1.461-2.294" transform="translate(-136.495 -53.216)" fill="#fff"/>
                <path id="Trazado_1266909" data-name="Trazado 1266909" d="M208.444,258.942l2.348,1.575s-1.025-4.015-2.348-1.575" transform="translate(-173.33 -52.78)" fill="#ea6f46"/>
                <path id="Trazado_1266910" data-name="Trazado 1266910" d="M191.922,255.205c.021.485-.158.887-.4.9s-.457-.375-.477-.86.158-.887.4-.9.456.374.477.859" transform="translate(-140.618 -52.001)" fill="#001c39"/>
                <path id="Trazado_1266911" data-name="Trazado 1266911" d="M188.351,254.507c.021.485-.158.887-.4.9s-.457-.375-.477-.86.158-.887.4-.9.457.374.478.859" transform="translate(-134.206 -51.859)" fill="#001c39"/>
                <path id="Trazado_1266912" data-name="Trazado 1266912" d="M192.617,251.476c-.632.473.3-1.582,1.174-1.844a1.555,1.555,0,0,1,2,.893,4.859,4.859,0,0,0-3.169.951" transform="translate(-145.568 -51.021)" fill="#001c39"/>
                <path id="Trazado_1266913" data-name="Trazado 1266913" d="M188.593,249.931a4.887,4.887,0,0,0-1.6.113,1.61,1.61,0,0,1,1.565-1.321" transform="translate(-134.066 -50.852)" fill="#001c39"/>
                <path id="Trazado_1266914" data-name="Trazado 1266914" d="M187.514,254.755l1.5,3.664a.1.1,0,0,1-.072.134l-1.576.186a.093.093,0,0,1-.1-.1l.073-3.85a.09.09,0,0,1,.173-.036" transform="translate(-134.716 -52.073)" fill="#ea6f46"/>
                <rect id="Rectángulo_458467" data-name="Rectángulo 458467" width="36.023" height="4.224" transform="translate(55.107 295.743)" fill="#000307"/>
                <path id="Trazado_1266915" data-name="Trazado 1266915" d="M156.676,371.748h23.539l-1.852,4.224H156.676Z" transform="translate(-101.57 -76.005)" fill="#3041b0"/>
                <path id="Trazado_1266916" data-name="Trazado 1266916" d="M123.93,367H67.154l13.7-39.156h56.777Z" transform="translate(12.229 -67.027)" fill="#3041b0"/>
                <path id="Trazado_1266917" data-name="Trazado 1266917" d="M114.382,352.916a3.564,3.564,0,1,0-3.565,3.565,3.565,3.565,0,0,0,3.565-3.565" transform="translate(3.582 -71.425)" fill="#000307"/>
                <g id="Grupo_1207654" data-name="Grupo 1207654" transform="translate(182.315 406.445)" style="mix-blend-mode: multiply;isolation: isolate">
                  <g id="Grupo_1207653" data-name="Grupo 1207653" transform="translate(0)">
                    <g id="Grupo_1207652" data-name="Grupo 1207652" clip-path="url(#clip-path-14)">
                      <path id="Trazado_1266918" data-name="Trazado 1266918" d="M0,512.087c0,.656,4.7,1.187,10.488,1.187s10.487-.531,10.487-1.187-4.7-1.187-10.487-1.187S0,511.431,0,512.087" transform="translate(0 -510.899)" fill="#abc6ff"/>
                    </g>
                  </g>
                </g>
                <g id="Grupo_1207657" data-name="Grupo 1207657" transform="translate(16.504 406.445)" style="mix-blend-mode: multiply;isolation: isolate">
                  <g id="Grupo_1207656" data-name="Grupo 1207656" transform="translate(0)">
                    <g id="Grupo_1207655" data-name="Grupo 1207655" clip-path="url(#clip-path-15)">
                      <path id="Trazado_1266919" data-name="Trazado 1266919" d="M208.423,512.087c0,.656,4.7,1.187,10.487,1.187s10.487-.531,10.487-1.187S224.7,510.9,218.91,510.9s-10.487.531-10.487,1.187" transform="translate(-208.423 -510.899)" fill="#abc6ff"/>
                    </g>
                  </g>
                </g>
                <path id="Trazado_1266920" data-name="Trazado 1266920" d="M38.664,488.607h0a2.7,2.7,0,0,0,2.659-2.65L30.376,392.839h-12l17.632,93.118a2.7,2.7,0,0,0,2.659,2.65" transform="translate(147.348 -80.317)" fill="#fff"/>
                <path id="Trazado_1266921" data-name="Trazado 1266921" d="M36.836,399.365c-2.114-2.136-4.261-4.38-6.49-6.526h10.42l1.422,12.1c-1.764-1.878-3.541-3.741-5.352-5.57" transform="translate(136.96 -80.317)" fill="#18004c"/>
                <path id="Trazado_1266922" data-name="Trazado 1266922" d="M206.842,488.607h0a2.7,2.7,0,0,1-2.659-2.65l10.947-93.118h12L209.5,485.957a2.7,2.7,0,0,1-2.659,2.65" transform="translate(-186.281 -80.317)" fill="#fff"/>
                <path id="Trazado_1266923" data-name="Trazado 1266923" d="M204.821,404.545l1.376-11.706h11.495q-6.653,5.613-12.871,11.706" transform="translate(-177.348 -80.317)" fill="#18004c"/>
                <path id="Trazado_1266924" data-name="Trazado 1266924" d="M20.066,392.439H188.847a3.939,3.939,0,1,0,0-7.878H20.066a3.939,3.939,0,1,0,0,7.878" transform="translate(-2.327 -78.624)" fill="#fff"/>
                <path id="Trazado_1266925" data-name="Trazado 1266925" d="M5.563,386.007H197.3a4.233,4.233,0,1,0,0-8.465H5.563a4.233,4.233,0,1,0,0,8.465" transform="translate(0.699 -77.189)" fill="#18004c"/>
              </g>
            </g>
          </g>
        </g>
      </g>
    </g>
  </g>
</svg>
