<svg xmlns="http://www.w3.org/2000/svg" xmlns:xlink="http://www.w3.org/1999/xlink" width="160.5" height="160.501" viewBox="0 0 160.5 160.501">
  <defs>
    <clipPath id="clip-path">
      <rect id="Rectángulo_455261" data-name="Rectángulo 455261" width="38.951" height="37.623" fill="#e6fffa"/>
    </clipPath>
    <clipPath id="clip-path-2">
      <rect id="Rectángulo_458125" data-name="Rectángulo 458125" width="84" height="83.399" fill="#5d0b80"/>
    </clipPath>
  </defs>
  <g id="Grupo_1207220" data-name="Grupo 1207220" transform="translate(-307.436 -10011.92)">
    <path id="Sustracción_130" data-name="Sustracción 130" d="M26.051,25.795H0V11.245H11.352V0h14.7V25.795Z" transform="translate(441.641 10038.471) rotate(-90)" fill="#e3a4fe" stroke="rgba(0,0,0,0)" stroke-miterlimit="10" stroke-width="1"/>
    <g id="Grupo_1178100" data-name="Grupo 1178100" transform="translate(307.436 10172.421) rotate(-90)">
      <path id="Trazado_998183" data-name="Trazado 998183" d="M0,0V37.623H25.58V24.056H38.951V0Z" transform="translate(0 0)" fill="#5d0b80"/>
      <g id="Grupo_1178099" data-name="Grupo 1178099" transform="translate(0 0)">
        <g id="Grupo_1178098" data-name="Grupo 1178098" clip-path="url(#clip-path)">
          <path id="Trazado_998184" data-name="Trazado 998184" d="M0,9.021a9.025,9.025,0,1,1,9.025,9.021A9.023,9.023,0,0,1,0,9.021" transform="translate(4.434 5.629)" fill="#e3a4fe"/>
        </g>
      </g>
    </g>
    <g id="Grupo_1177470" data-name="Grupo 1177470" transform="translate(308.059 10012.421)">
      <circle id="Elipse_13609" data-name="Elipse 13609" cx="79.688" cy="79.688" r="79.688" fill="#f0d5fe"/>
      <g id="Grupo_1099776" data-name="Grupo 1099776" transform="translate(33.723 33.96)">
        <g id="Grupo_1099618" data-name="Grupo 1099618" transform="translate(0.336 0.273)">
          <rect id="Rectángulo_401104" data-name="Rectángulo 401104" width="90.569" height="91.661" transform="translate(0)" fill="none"/>
        </g>
        <g id="Grupo_1207253" data-name="Grupo 1207253" transform="translate(3.321 4.273)">
          <g id="Grupo_1207252" data-name="Grupo 1207252" clip-path="url(#clip-path-2)">
            <path id="Trazado_1265206" data-name="Trazado 1265206" d="M30.873,112.377v26.384a11.174,11.174,0,0,1-1.062,2.506,6.272,6.272,0,0,1-10.026.429,6.516,6.516,0,0,1-9.441.515A10.849,10.849,0,0,1,8.7,139.27V112.632a8.9,8.9,0,0,1-2.428.764A5.46,5.46,0,0,1,.274,108.18a129.7,129.7,0,0,1,0-16.842c.383-4.847,4.341-9.357,9.3-9.816,6.527-.6,14,.45,20.631.038a10.9,10.9,0,0,1,9.073,10.3,108.906,108.906,0,0,1-.062,16.5,5.517,5.517,0,0,1-8.346,4.017M8.7,108.171V97.464c0-.649,2.435-1.374,2.789.78l.009,40.267a3.471,3.471,0,0,0,6.827-.322l.3-24.17c.965-1.264,2.533-.423,2.569,1.03l.115,23.847a3.482,3.482,0,0,0,6.591-.052L28.3,97.252a1.534,1.534,0,0,1,2.515.521c.382,3.222-.323,7,.048,10.148a2.826,2.826,0,0,0,5.627-.248,111.523,111.523,0,0,0-.044-16.041c-.618-5.918-5.758-8.074-11.174-7.284.527,1.766-2.021,3.762-2.074,4.7-.172,3.039,2.086,8.18,1.966,11.434-.049,1.325-3.151,7.955-4.026,9.174-.795,1.106-1.827,1.47-2.72.259a65.655,65.655,0,0,1-4.1-8.9c-.409-3.293,1.835-8.681,1.976-12.165a8.221,8.221,0,0,1-2.287-4.477c-5.063-.847-10.45,1.336-10.937,6.968-.478,5.537.281,11.872.123,17.485a2.832,2.832,0,0,0,4.652.929c.085-.1.824-1.493.842-1.58M22.46,84.336H16.852c.562,3.425,5.29,3.569,5.608,0m-2.074,5.388-1.492-.031c-.027,3.271-1.821,7.452-1.81,10.578.005,1.472,1.994,4.323,2.7,5.732l2.591-5.512c-.418-1.261-1.524-10.48-1.99-10.767" transform="translate(0 -60.598)" fill="#5d0b80"/>
            <path id="Trazado_1265207" data-name="Trazado 1265207" d="M187.528,114.134l32.842-.066a1.676,1.676,0,0,1,1.912,1.912c-.5,6.9.623,14.635,0,21.437-.134,1.463-.46,1.779-1.912,1.912-10.194.935-21.8-.734-32.143,0a2.335,2.335,0,0,1-2.024-1.036l-.144-22.569c.011-.819.762-1.338,1.469-1.59m31.938,2.75h-30.59v19.628h30.59Z" transform="translate(-138.63 -84.988)" fill="#5d0b80"/>
            <path id="Trazado_1265208" data-name="Trazado 1265208" d="M221.406.809a2.471,2.471,0,0,1,.326,1.331,168.39,168.39,0,0,1,0,21.69c-.036.428-.039,1.161-.435,1.411l-34.832.185c-.776-.371-.884-1.068-.954-1.85-.606-6.731.488-14.353,0-21.182l.776-1.773ZM218.917,3.3h-30.59V22.672h30.59Z" transform="translate(-138.081 -0.463)" fill="#5d0b80"/>
            <path id="Trazado_1265209" data-name="Trazado 1265209" d="M221.406,229.809a2.471,2.471,0,0,1,.326,1.331,168.39,168.39,0,0,1,0,21.69c-.036.428-.039,1.161-.435,1.411l-34.832.185c-.776-.371-.884-1.068-.954-1.85-.606-6.731.488-14.353,0-21.182l.776-1.773Zm-2.489,2.489h-30.59v19.374h30.59Z" transform="translate(-138.081 -171.087)" fill="#5d0b80"/>
            <path id="Trazado_1265210" data-name="Trazado 1265210" d="M47.8.1c13.3-1.69,14.79,17.877,2.959,19.274C37.29,20.968,35.564,1.658,47.8.1M47.791,2.9c-8.364,1.433-6.9,15.311,2.938,13.644C58.821,15.169,57.4,1.25,47.791,2.9" transform="translate(-29.476 0)" fill="#5d0b80"/>
            <path id="Trazado_1265211" data-name="Trazado 1265211" d="M244.951,136.245a1.49,1.49,0,0,1,1.5,2.006c-1.666,3.117-2.442,8.247-4.176,11.136a1.479,1.479,0,0,1-1.656.8,46.683,46.683,0,0,1-5.181-5.309,1.469,1.469,0,0,1,.662-1.41c1.7-.835,3.016,1.807,4.207,2.672.5,0,2.941-7.892,3.553-8.933.266-.452.511-.873,1.093-.962" transform="translate(-175.401 -101.503)" fill="#5d0b80"/>
            <path id="Trazado_1265212" data-name="Trazado 1265212" d="M246.08,22.373c.412.411.313,1.217.211,1.735-.634,3.2-3.353,7.373-4.034,10.761a1.6,1.6,0,0,1-2.053.9,32.632,32.632,0,0,1-4.983-5.232,1.485,1.485,0,0,1,2.007-1.5c.753.232,2.9,3.062,3.3,2.7l3.208-8.9a1.57,1.57,0,0,1,2.34-.468" transform="translate(-175.247 -16.418)" fill="#5d0b80"/>
            <path id="Trazado_1265213" data-name="Trazado 1265213" d="M246.08,251.373c.412.411.313,1.217.211,1.735-.634,3.2-3.353,7.373-4.034,10.761a1.6,1.6,0,0,1-2.053.9,32.631,32.631,0,0,1-4.983-5.232,1.485,1.485,0,0,1,2.007-1.5c.753.232,2.9,3.062,3.3,2.7l3.208-8.9a1.57,1.57,0,0,1,2.34-.468" transform="translate(-175.247 -187.042)" fill="#5d0b80"/>
          </g>
        </g>
      </g>
    </g>
  </g>
</svg>
