<svg xmlns="http://www.w3.org/2000/svg" xmlns:xlink="http://www.w3.org/1999/xlink" width="84" height="84" viewBox="0 0 84 84">
  <defs>
    <clipPath id="clip-path">
      <rect id="Rectángulo_458232" data-name="Rectángulo 458232" width="67.35" height="51.191" fill="#5d0b80"/>
    </clipPath>
  </defs>
  <g id="Grupo_1205934" data-name="Grupo 1205934" transform="translate(-184.988 -1051.25)">
    <rect id="Rectángulo_455472" data-name="Rectángulo 455472" width="84" height="84" rx="12" transform="translate(184.988 1051.25)" fill="#ffe9a1"/>
    <g id="Grupo_1207380" data-name="Grupo 1207380" transform="translate(174.208 1066.211)">
      <g id="Grupo_1207379" data-name="Grupo 1207379" transform="translate(19.711 1.706)" clip-path="url(#clip-path)">
        <path id="Trazado_1265952" data-name="Trazado 1265952" d="M33.368,7.291h.588A20.429,20.429,0,0,1,45.982.387C49.157-.17,56.1-.362,58.8,1.459a6.068,6.068,0,0,1,2.371,4.966c2.965,1.05,5.583,2.333,5.883,5.827.931,10.834-.721,22.979,0,33.951-.26,2.845-2.552,5.412-5.584,4.929-2.586-.412-6.533-2.492-9.484-3.234-4.671-1.174-10.687-2.044-15.005.633-1.243.771-2.007,2.079-3.323,2.574-.77,0-1.958-1.615-2.665-2.137-5.719-4.219-14.895-1.438-20.984.615-2.425.818-4.192,2.393-6.822,1.138A5.531,5.531,0,0,1,.266,45.984C-.58,35.14.924,23.211.267,12.252c.3-3.525,2.917-4.743,5.881-5.831A5.706,5.706,0,0,1,8.965,1.246c2.8-1.561,9.218-1.407,12.381-.862A20.457,20.457,0,0,1,33.368,7.291m-.91,38.356V10.07c0-.691-2.959-3.287-3.649-3.794a21.542,21.542,0,0,0-14.2-3.768c-2.667.159-5.517.181-5.8,3.394-.877,9.9.684,21.074,0,31.108a2.707,2.707,0,0,0,1.7,2.461c2.337.17,4.611-.308,6.957-.171,4.162.243,9.145,1.6,12.444,4.195.34.267,2.328,2.409,2.555,2.152m2.408,0c.983-.312,1.607-1.418,2.427-2.061,4.3-3.375,10.277-4.412,15.644-4.3,2.39.051,5.085,1.332,5.585-2.279L58.408,4.919c-.561-2.146-3.8-2.3-5.69-2.411C45.99,2.106,38.766,4.3,34.866,10.07ZM6.186,37.218V9.085c-1.7.731-3.21,1.3-3.508,3.388l0,33.073c.132,1.489.959,3.379,2.719,3.155,5.186-1.962,10.6-4.059,16.218-4.377,1.726-.1,3.446.173,5.156.119-4.345-2.6-9-2.579-13.914-2.527-.584.006-1.12.261-1.741.247-2.519-.054-4.632-2.58-4.927-4.945M61.138,9.085V37.218c0,1.5-1.843,4.034-3.287,4.595-1.512.588-2.07.115-3.381.1-4.929-.042-9.543-.1-13.914,2.527,1.71.054,3.43-.217,5.156-.119,5.615.318,11.031,2.415,16.218,4.377,1.761.224,2.587-1.666,2.719-3.155l0-33.073c-.3-2.084-1.806-2.657-3.508-3.388" transform="translate(0 0)" fill="#5d0b80"/>
        <path id="Trazado_1265953" data-name="Trazado 1265953" d="M59.34,38.727c11.725-.527,14,16.8,2.635,19.5-13.586,3.229-16.734-18.871-2.635-19.5m-1.108,2.625c-7.582,1.1-7.6,14.007.81,14.618,10.642.773,10.511-16.256-.81-14.618" transform="translate(-39.181 -30.239)" fill="#5d0b80"/>
        <path id="Trazado_1265954" data-name="Trazado 1265954" d="M178.763,38.721c13.461-.611,13.374,19.8.585,19.862-12.4.062-13.1-19.294-.585-19.862m-1.113,2.621c-7.149,1.107-7.5,13.472.442,14.559,11.1,1.519,11.277-16.374-.442-14.559" transform="translate(-132.551 -30.233)" fill="#5d0b80"/>
        <path id="Trazado_1265955" data-name="Trazado 1265955" d="M77.823,66.819a1.329,1.329,0,0,1,2.129.938c.06,1.3-5.434,5.6-6.241,7.1a1.476,1.476,0,0,1-1.637.326,27.214,27.214,0,0,1-3.689-4.867A1.276,1.276,0,0,1,70.264,69.1c.663.319,2.1,3,2.556,2.9Z" transform="translate(-53.403 -51.974)" fill="#5d0b80"/>
        <path id="Trazado_1265956" data-name="Trazado 1265956" d="M202.123,65.573c1.51,1.51-2.012,3.127-1.9,3.749.632,1,3.253,2.084,2.189,3.549-1.306,1.8-3.613-1.973-4.255-1.861-.848.553-2.021,2.507-3.087,2.4-2.5-1.3.149-2.835,1.18-4.086.115-.662-3.476-2.5-1.642-3.816,1.5-1.077,2.5,1.525,3.741,1.932.856-.659,2.653-2.987,3.775-1.864" transform="translate(-151.546 -50.962)" fill="#5d0b80"/>
        <path id="Trazado_1265957" data-name="Trazado 1265957" d="M73.379,144.575H60.146a1.168,1.168,0,1,1,0-2.335H73.379a1.168,1.168,0,0,1,0,2.335" transform="translate(-46.066 -111.099)" fill="#5d0b80"/>
        <path id="Trazado_1265958" data-name="Trazado 1265958" d="M194.86,144.575H181.627a1.168,1.168,0,1,1,0-2.335H194.86a1.168,1.168,0,0,1,0,2.335" transform="translate(-140.951 -111.099)" fill="#5d0b80"/>
      </g>
    </g>
  </g>
</svg>
