<svg xmlns="http://www.w3.org/2000/svg" xmlns:xlink="http://www.w3.org/1999/xlink" width="188" height="211" viewBox="0 0 188 211">
  <defs>
    <clipPath id="clip-path">
      <rect id="Rectángulo_458361" data-name="Rectángulo 458361" width="132.305" height="119.643" transform="translate(0 0)" fill="none"/>
    </clipPath>
  </defs>
  <g id="Grupo_1206943" data-name="Grupo 1206943" transform="translate(-185.711 -2738)">
    <g id="Grupo_1204383" data-name="Grupo 1204383" transform="translate(185.711 2738)">
      <rect id="Rectángulo_455283" data-name="Rectángulo 455283" width="188" height="211" rx="19" fill="#fbf1ff"/>
    </g>
    <g id="Grupo_1207528" data-name="Grupo 1207528" transform="translate(213.559 2783.679)">
      <g id="Grupo_1207527" data-name="Grupo 1207527" clip-path="url(#clip-path)">
        <path id="Trazado_1266348" data-name="Trazado 1266348" d="M129.721,37.169H2.584v70.988a8.924,8.924,0,0,0,8.892,8.9H120.828a8.929,8.929,0,0,0,8.893-8.9ZM74.682,53.27l-.007,9.847h33.84a2.505,2.505,0,0,1,2.5,2.493V94.461a2.505,2.505,0,0,1-2.5,2.493h-6.827l-3.611,9.708L86.321,96.954H61.79a2.5,2.5,0,0,1-2.49-2.493V84.614H47.653L35.9,94.315l-3.6-9.7H25.459a2.5,2.5,0,0,1-2.49-2.493V53.27a2.5,2.5,0,0,1,2.49-2.493H72.184A2.505,2.505,0,0,1,74.682,53.27Z" fill="#fff" fill-rule="evenodd"/>
        <path id="Trazado_1266349" data-name="Trazado 1266349" d="M79.135,26.025a6.148,6.148,0,0,1,0-12.3h27.959a6.148,6.148,0,0,1,0,12.3ZM120.828,2.584H11.477a8.92,8.92,0,0,0-8.892,8.9V37.169H129.72V11.486A8.925,8.925,0,0,0,120.828,2.584ZM49.771,13.729a6.148,6.148,0,1,1-6.139,6.144,6.14,6.14,0,0,1,6.139-6.144m-24.56,0a6.148,6.148,0,1,1-6.145,6.144,6.139,6.139,0,0,1,6.145-6.144" fill="#cdc0c4" fill-rule="evenodd"/>
        <path id="Trazado_1266350" data-name="Trazado 1266350" d="M31.348,19.873a6.142,6.142,0,1,0-6.138,6.152,6.139,6.139,0,0,0,6.138-6.152" fill="#fbce73" fill-rule="evenodd"/>
        <path id="Trazado_1266351" data-name="Trazado 1266351" d="M55.909,19.873a6.138,6.138,0,1,0-6.138,6.152,6.139,6.139,0,0,0,6.138-6.152" fill="#ffe9a1" fill-rule="evenodd"/>
        <path id="Trazado_1266352" data-name="Trazado 1266352" d="M107.094,13.729H79.135a6.148,6.148,0,0,0,0,12.3h27.959a6.148,6.148,0,0,0,0-12.3Z" fill="#fff" fill-rule="evenodd"/>
        <path id="Trazado_1266353" data-name="Trazado 1266353" d="M74.675,63.117l.007-9.847a2.505,2.505,0,0,0-2.5-2.493H25.46a2.5,2.5,0,0,0-2.491,2.493V82.122a2.5,2.5,0,0,0,2.491,2.492h6.834l3.6,9.7,11.756-9.7h24.53a2.5,2.5,0,0,0,2.5-2.492Z" fill="#96fef0" fill-rule="evenodd"/>
        <path id="Trazado_1266354" data-name="Trazado 1266354" d="M108.516,63.117H74.674l.008,19.005a2.505,2.505,0,0,1-2.5,2.492H59.3v9.847a2.5,2.5,0,0,0,2.491,2.493H86.322l11.755,9.708,3.611-9.708h6.828a2.505,2.505,0,0,0,2.5-2.493V65.61A2.505,2.505,0,0,0,108.516,63.117Z" fill="#e3a4fe" fill-rule="evenodd"/>
        <path id="Trazado_1266355" data-name="Trazado 1266355" d="M62,64.537a2.584,2.584,0,0,0-2.584,2.584v.022A2.584,2.584,0,1,0,62,64.537"/>
        <path id="Trazado_1266356" data-name="Trazado 1266356" d="M48.825,64.537a2.584,2.584,0,0,0-2.584,2.584v.022a2.584,2.584,0,1,0,2.584-2.606"/>
        <path id="Trazado_1266357" data-name="Trazado 1266357" d="M35.641,64.537a2.584,2.584,0,0,0-2.584,2.584v.022a2.584,2.584,0,1,0,2.584-2.606"/>
        <path id="Trazado_1266358" data-name="Trazado 1266358" d="M25.211,11.145a8.732,8.732,0,1,0,8.721,8.728,8.738,8.738,0,0,0-8.721-8.728m0,12.3a3.564,3.564,0,1,1,3.553-3.568,3.569,3.569,0,0,1-3.553,3.568"/>
        <path id="Trazado_1266359" data-name="Trazado 1266359" d="M49.77,11.145a8.732,8.732,0,1,0,8.722,8.728,8.736,8.736,0,0,0-8.722-8.728m0,12.3a3.564,3.564,0,1,1,3.554-3.568,3.564,3.564,0,0,1-3.554,3.568"/>
        <path id="Trazado_1266360" data-name="Trazado 1266360" d="M107.094,11.145H79.135a8.732,8.732,0,0,0,0,17.464h27.959a8.732,8.732,0,0,0,0-17.464Zm0,12.3H79.135a3.564,3.564,0,0,1,0-7.128h27.959a3.564,3.564,0,0,1,0,7.128Z"/>
        <path id="Trazado_1266361" data-name="Trazado 1266361" d="M120.829,0H11.477A11.494,11.494,0,0,0,0,11.485V72.663a2.585,2.585,0,0,0,5.169,0V39.753H127.137v68.4a6.32,6.32,0,0,1-6.308,6.317H11.477a6.319,6.319,0,0,1-6.308-6.317V95.891a2.585,2.585,0,0,0-5.169,0v12.267a11.494,11.494,0,0,0,11.477,11.485H120.829A11.493,11.493,0,0,0,132.3,108.158V11.485A11.493,11.493,0,0,0,120.829,0Zm6.308,34.585H5.168v-23.1a6.32,6.32,0,0,1,6.309-6.317H120.829a6.32,6.32,0,0,1,6.308,6.317Z"/>
        <path id="Trazado_1266362" data-name="Trazado 1266362" d="M85.157,82.056a2.59,2.59,0,1,0-2.584-2.6v.022a2.575,2.575,0,0,0,2.584,2.573"/>
        <path id="Trazado_1266363" data-name="Trazado 1266363" d="M98.334,82.056a2.59,2.59,0,1,0-2.584-2.6v.022a2.575,2.575,0,0,0,2.584,2.573"/>
        <path id="Trazado_1266364" data-name="Trazado 1266364" d="M72.184,48.193H25.459a5.081,5.081,0,0,0-5.074,5.077V82.121A5.081,5.081,0,0,0,25.459,87.2H30.5l2.978,8.016a2.584,2.584,0,0,0,4.067,1.094l11.04-9.11h8.134v7.263a5.081,5.081,0,0,0,5.075,5.077h23.6l11.04,9.116a2.584,2.584,0,0,0,4.067-1.092l2.986-8.024h5.031a5.085,5.085,0,0,0,5.081-5.077V65.61a5.084,5.084,0,0,0-5.081-5.077H77.266V53.27A5.084,5.084,0,0,0,72.184,48.193ZM47.654,82.03a2.586,2.586,0,0,0-1.645.591L37.055,90.01l-2.339-6.3a2.584,2.584,0,0,0-2.422-1.685H25.553V53.361H72.1v9.611c0,.048-.007.1-.007.145s0,.1.007.145V82.031H47.654ZM108.429,65.7V94.37h-6.74a2.583,2.583,0,0,0-2.422,1.683l-2.345,6.3-8.955-7.394a2.587,2.587,0,0,0-1.646-.592H61.884V87.2h10.3a5.085,5.085,0,0,0,5.082-5.077V65.7Z"/>
        <path id="Trazado_1266365" data-name="Trazado 1266365" d="M2.584,86.862a2.584,2.584,0,0,0,2.584-2.584v-.015a2.584,2.584,0,1,0-2.584,2.6Z"/>
      </g>
    </g>
  </g>
</svg>
