<svg xmlns="http://www.w3.org/2000/svg" xmlns:xlink="http://www.w3.org/1999/xlink" width="127" height="128" viewBox="0 0 127 128">
  <defs>
    <clipPath id="clip-path">
      <rect id="Rectángulo_458363" data-name="Rectángulo 458363" width="70.128" height="66.964" fill="#5d0b80"/>
    </clipPath>
  </defs>
  <g id="Grupo_1206949" data-name="Grupo 1206949" transform="translate(-0.082)">
    <ellipse id="Elipse_13609" data-name="Elipse 13609" cx="63.5" cy="64" rx="63.5" ry="64" transform="translate(0.082)" fill="#fff"/>
    <g id="Grupo_1099776" data-name="Grupo 1099776" transform="translate(23.859 24)">
      <g id="Grupo_1099618" data-name="Grupo 1099618" transform="translate(0.223 -0.498)">
        <rect id="Rectángulo_401104" data-name="Rectángulo 401104" width="78.706" height="80.124" transform="translate(0)" fill="none"/>
      </g>
      <g id="Grupo_1207532" data-name="Grupo 1207532" transform="translate(4.223 6.502)">
        <g id="Grupo_1207531" data-name="Grupo 1207531" clip-path="url(#clip-path)">
          <path id="Trazado_1266373" data-name="Trazado 1266373" d="M26.363,98.636c.018-.693.084-2.044-.451-2.548-.829-.782-7.635.274-9.137-.566-1.97-2.119-3.555-4.583-5.42-6.782-.811-.955-2.259-2.9-3.508-3.093-1.842-.284-4.424.04-4.693,2.282-.707,5.886.725,13.3-.012,19.191-.288,2.3-2.754,2.234-2.988.222.375-6.177-.484-12.905,0-19.015.343-4.362,3.975-6.233,8.057-5.642,3.309.479,5.647,4.822,7.649,7.154l.5.194,4.661-8.542c.683-.611,3.494.076,3.857-.446-.187-3.347,1.015-6.373,4.15-7.853,2.215-1.046,9.1-1.128,11.4-.317,3.455,1.219,5.111,4.638,4.833,8.17l3.857.446,4.66,8.543.5-.195c2-2.332,4.34-6.675,7.649-7.154,4.081-.591,7.713,1.279,8.057,5.642.476,6.049-.378,12.705,0,18.821-.159,2.244-2.7,2.321-2.993-.027-.73-5.9.7-13.3-.012-19.191-.269-2.242-2.851-2.567-4.693-2.282-.963.149-1.871,1.2-2.508,1.893-2.248,2.44-4.106,5.556-6.42,7.982-1.5.841-8.308-.216-9.137.566-.535.5-.469,1.855-.451,2.548h12.3c1.187-.924,3.637-5.516,4.848-5.767A1.444,1.444,0,0,1,62.711,94.3c-.078,1.437-3.68,4.562-3.51,5.588,2.087,4.051,4.564,7.942,6.6,12.012,1.036,2.066,1.7,3.092,1.318,5.587-.091.6-.589,1.549-1.252,1.549h-6.1v4.7c0,.634-1.285,1.329-2,1a5.477,5.477,0,0,1-.8-.8v-4.9H13.16v4.9a5.477,5.477,0,0,1-.8.8c-.711.33-2-.364-2-1v-4.7h-6.1c-.82,0-1.231-1.209-1.3-1.9a6.611,6.611,0,0,1,.967-4.436c1.6-3.165,3.739-6.308,5.493-9.406,1.489-.709,2.695.273,2.185,1.884-.88,2.783-4.369,6.757-5.533,9.667l-.111,1.19H64.17l-.22-1.48-7.013-12.89-14.271-.033a2.137,2.137,0,0,1-1.515-.686c-.436-.674-.223-4.619.118-5.512.394-1.031,2.086-2.6,3.2-2.6h7.5l-4.633-8.769c-1.51-.378-4.713.894-4.973-1.329-.3-2.613.658-5.614-2.617-6.985-1.217-.509-6.37-.457-7.888-.327-3.082.263-4.418,2.935-4.094,5.808h10.7c.9,0,1.493,2.405-.043,2.758l-15.629.076-4.633,8.769h7.5c1.255,0,3.071,1.82,3.364,3.038.195.81.305,4.531-.049,5.078a2.259,2.259,0,0,1-1.707.694,99.042,99.042,0,0,1-13.621,0,2.375,2.375,0,0,1-1.573-.628,64.306,64.306,0,0,1-4.42-5.984c-.791-1.741.977-2.97,2.409-1.607,1.393,1.325,2.49,3.854,3.994,5.208Z" transform="translate(0 -57.861)" fill="#5d0b80"/>
          <path id="Trazado_1266374" data-name="Trazado 1266374" d="M7.217,36.63c9.363-1.472,11.951,12.107,3.059,14.261C.387,53.288-2.121,38.1,7.217,36.63M8.569,39.5c-5.777-.011-5.708,8.7,0,8.705,5.587.008,5.75-8.695,0-8.705" transform="translate(-1.11 -29.214)" fill="#5d0b80"/>
          <path id="Trazado_1266375" data-name="Trazado 1266375" d="M283.617,36.756c8.9-1.221,11.628,11.185,3.787,13.989-10.341,3.7-13.817-12.612-3.787-13.989m1.149,2.862c-5.75.011-5.587,8.713,0,8.705,5.708-.008,5.777-8.716,0-8.705" transform="translate(-222.095 -29.336)" fill="#5d0b80"/>
          <path id="Trazado_1266376" data-name="Trazado 1266376" d="M155.977,1.839c5.238,5.51-3.17,13.565-8.409,8.109-5.378-5.6,3.2-13.59,8.409-8.109m-4.782,1.174c-3.5.6-2.939,6.151.931,5.743,3.789-.4,3.071-6.432-.931-5.743" transform="translate(-116.682 0)" fill="#5d0b80"/>
          <path id="Trazado_1266377" data-name="Trazado 1266377" d="M141.79,242.707h-3l.187-2.913c.508-.1,2.48-.253,2.726.1Z" transform="translate(-111.026 -191.729)" fill="#5d0b80"/>
          <path id="Trazado_1266378" data-name="Trazado 1266378" d="M170.79,242.707h-3l.187-2.913c.508-.1,2.48-.253,2.726.1Z" transform="translate(-134.224 -191.729)" fill="#5d0b80"/>
          <path id="Trazado_1266379" data-name="Trazado 1266379" d="M199.79,242.707h-3l.187-2.913c.508-.1,2.48-.253,2.726.1Z" transform="translate(-157.423 -191.729)" fill="#5d0b80"/>
        </g>
      </g>
    </g>
  </g>
</svg>
