<svg xmlns="http://www.w3.org/2000/svg" xmlns:xlink="http://www.w3.org/1999/xlink" width="79.711" height="80.124" viewBox="0 0 79.711 80.124">
  <defs>
    <clipPath id="clip-path">
      <rect id="Rectángulo_458312" data-name="Rectángulo 458312" width="78.711" height="78.711" fill="#fff"/>
    </clipPath>
  </defs>
  <g id="Grupo_1099776" data-name="Grupo 1099776" transform="translate(1.289 -0.277)">
    <g id="Grupo_1099618" data-name="Grupo 1099618" transform="translate(-1.289 0.277)">
      <rect id="Rectángulo_401104" data-name="Rectángulo 401104" width="79.17" height="80.124" transform="translate(0)" fill="none"/>
    </g>
    <g id="Grupo_1207504" data-name="Grupo 1207504" transform="translate(-0.289 0.277)">
      <g id="Grupo_1207503" data-name="Grupo 1207503" clip-path="url(#clip-path)">
        <path id="Trazado_1266263" data-name="Trazado 1266263" d="M104.211,72.216H89.453a1.537,1.537,0,0,0,0,3.075h14.758a1.537,1.537,0,1,0,0-3.075" transform="translate(-36.262 -29.786)" fill="#fff"/>
        <path id="Trazado_1266264" data-name="Trazado 1266264" d="M107.449,87.916H97.3a1.537,1.537,0,1,0,0,3.075h10.146a1.537,1.537,0,1,0,0-3.075" transform="translate(-39.499 -36.262)" fill="#fff"/>
        <path id="Trazado_1266265" data-name="Trazado 1266265" d="M89.453,106.69h14.758a1.537,1.537,0,1,0,0-3.075H89.453a1.537,1.537,0,1,0,0,3.075" transform="translate(-36.261 -42.737)" fill="#fff"/>
        <path id="Trazado_1266266" data-name="Trazado 1266266" d="M83.141,130.271a1.537,1.537,0,1,0-1.538,1.538,1.537,1.537,0,0,0,1.538-1.538" transform="translate(-33.024 -53.097)" fill="#fff"/>
        <path id="Trazado_1266267" data-name="Trazado 1266267" d="M74.1,23.06H59.341V4.612A4.617,4.617,0,0,0,54.729,0H4.612A4.617,4.617,0,0,0,0,4.612v45.5a4.617,4.617,0,0,0,4.612,4.612H9.419a6.16,6.16,0,0,0,5.955,4.612h4V74.1a4.617,4.617,0,0,0,4.612,4.612h17.68a1.537,1.537,0,0,0,0-3.075H23.982A1.539,1.539,0,0,1,22.445,74.1V59.34H33.207v3.075a1.537,1.537,0,0,0,2.39,1.279L49.432,54.47a1.537,1.537,0,0,0,0-2.558L35.6,42.688a1.537,1.537,0,0,0-2.39,1.279v3.075H22.445V35.358H75.636V74.1A1.539,1.539,0,0,1,74.1,75.636H55.5a1.537,1.537,0,0,0,0,3.075H74.1A4.617,4.617,0,0,0,78.711,74.1V27.671A4.617,4.617,0,0,0,74.1,23.06ZM56.266,4.612V9.224H50.117V3.075h4.612a1.539,1.539,0,0,1,1.538,1.537M4.612,3.075h42.43V9.224H3.075V4.612A1.539,1.539,0,0,1,4.612,3.075M34.744,50.117a1.537,1.537,0,0,0,1.538-1.538V46.84l9.527,6.351-9.527,6.351V57.8a1.538,1.538,0,0,0-1.538-1.538H15.374A3.078,3.078,0,0,1,12.3,53.191v-3.9a6.115,6.115,0,0,0,3.075.825Zm-19.37-3.075A3.079,3.079,0,0,1,12.3,43.967a1.537,1.537,0,1,0-3.075,0v7.686H4.612a1.539,1.539,0,0,1-1.538-1.537V12.3H56.266V23.06H23.982a4.617,4.617,0,0,0-4.612,4.612V47.042Zm7.072-19.371a1.539,1.539,0,0,1,1.537-1.537h42.43v6.149H22.445Zm47.042,4.612V26.134H74.1a1.539,1.539,0,0,1,1.537,1.537v4.612Z" fill="#fff"/>
      </g>
    </g>
  </g>
</svg>
