<svg xmlns="http://www.w3.org/2000/svg" xmlns:xlink="http://www.w3.org/1999/xlink" width="96" height="96" viewBox="0 0 96 96">
  <defs>
    <clipPath id="clip-path">
      <rect id="Rectángulo_458139" data-name="Rectángulo 458139" width="59.378" height="50.092" fill="#fff"/>
    </clipPath>
  </defs>
  <g id="Grupo_1207226" data-name="Grupo 1207226" transform="translate(-383.746 -8400.001)">
    <path id="Trazado_997400" data-name="Trazado 997400" d="M48,0A48,48,0,1,1,0,48,48,48,0,0,1,48,0Z" transform="translate(383.746 8400.001)" fill="#5d0b80"/>
    <g id="Grupo_1099776" data-name="Grupo 1099776" transform="translate(401.746 8418)">
      <g id="Grupo_1099618" data-name="Grupo 1099618" transform="translate(-0.035 0)">
        <rect id="Rectángulo_401104" data-name="Rectángulo 401104" width="59.378" height="60.093" transform="translate(0)" fill="none"/>
      </g>
      <g id="Grupo_1207264" data-name="Grupo 1207264" transform="translate(-0.035 5)">
        <g id="Grupo_1207263" data-name="Grupo 1207263" clip-path="url(#clip-path)">
          <path id="Trazado_1265263" data-name="Trazado 1265263" d="M41.32,23.729l9.691.01A4.235,4.235,0,1,1,53.7,28.753c-1.621-.51-2.139-1.7-2.872-3.076l-9.348.052a17.658,17.658,0,0,1-2.991,7.856c-.289.425-.968.727-.506,1.262l6.665,6.646c.444.2,1.113-.348,1.671-.428,5.044-.726,6.824,5.984,2.7,7.951a4.211,4.211,0,0,1-6.114-4.54c.088-.612.583-1.077.392-1.628l-6.969-6.878c-.843.543-1.607,1.227-2.483,1.722a14.9,14.9,0,0,1-12.944.765c-1.2-.485-2.265-1.284-3.451-1.791-.406.7-2.6,2.237-2.807,2.8-.159.425.427,2.025-.529,2.637-2.6,1.972-4.78,5.113-7.262,7.083-1.028.816-1.9,1.286-3.144.516a30.268,30.268,0,0,1-3.428-3.57A2.446,2.446,0,0,1,.23,43.957c1.6-1.6,3.141-3.282,4.784-4.838.8-.761,3.578-3.546,4.391-3.66.494-.069,1.226.185,1.47.083a36.627,36.627,0,0,0,2.893-2.721c.269-.576-.4-1.219-.644-1.8C6.878,15.95,23.884,3.56,36.338,13.539l7.005-6.961c.136-.276-.368-1.052-.432-1.5-.735-5.128,5.909-6.98,7.951-2.7A4.275,4.275,0,0,1,46.5,8.492c-.567-.073-1.376-.637-1.844-.428l-6.8,6.855a43.422,43.422,0,0,1,2.332,3.914,14.03,14.03,0,0,1,1.139,4.9M46.872,1.9c-3.052.274-2.645,5.159.648,4.675,2.83-.416,2.2-4.93-.648-4.675M25.715,11.884c-18.237,1.3-14.257,29.569,3.886,25.4,15.1-3.465,11.738-26.516-3.886-25.4M54.391,22.541c-2.123.487-2.145,4.325.492,4.515a2.318,2.318,0,1,0-.492-4.515m-39.376,11.7-2.733,2.7,1.134,1.134,2.7-2.733c.039-.22-.868-1.141-1.1-1.1M9.41,37.646l-7.434,7.2.146.5,2.8,2.81,7.863-7.577c.081-.218-.036-.335-.146-.5-.17-.252-2.29-2.374-2.537-2.537-.646-.427-.509-.037-.692.105m37.113,5.369a2.189,2.189,0,0,0-1.712,1.963,2.3,2.3,0,1,0,1.712-1.963" transform="translate(0 0)" fill="#fff"/>
          <path id="Trazado_1265264" data-name="Trazado 1265264" d="M88.5,77.792c10.676-10.6,27.07,5.75,16.39,16.477C94.015,105.192,77.533,88.677,88.5,77.792m6.726-1.234c-11.882,1.285-10.539,20.5,2.551,19.172C109.89,94.5,108.715,75.1,95.226,76.558" transform="translate(-70.036 -61.351)" fill="#fff"/>
          <path id="Trazado_1265265" data-name="Trazado 1265265" d="M115.687,95.79c.809.892,1.827-.118,2.586.115a8.946,8.946,0,0,1,1.745,1.589c.664.991-.191,1.308-.138,1.9a9.835,9.835,0,0,0,.528,1.123c.319.3,1.027.1,1.279.909a7.23,7.23,0,0,1,.041,2.333c-.192.859-1.065.711-1.438,1.185-.8,1.017.1,1.62-.013,2.281-.1.641-1.734,2.239-2.418,2.213-.385-.015-.846-.46-1.18-.4-1.388.262-1.134,1.6-2.037,1.8a6.223,6.223,0,0,1-2.805-.182c-.255-.247-.249-.928-.752-1.258-1.017-.666-1.707.161-2.271.005a12.168,12.168,0,0,1-2.005-1.856c-.326-.705.3-1.2.229-1.792-.147-1.144-1.4-1.109-1.6-1.567l-.088-2.994c.138-.4,1.016-.46,1.351-.923.785-1.086-.172-1.636.051-2.391a20.4,20.4,0,0,1,1.9-1.966c.613-.281,1.119.381,1.919.189,1.061-.253.816-1,1.226-1.409a5.888,5.888,0,0,1,3.144-.174c.552.247.5,1,.747,1.266m-1.814.59c-.709-.447-.929.739-1.312,1.007-.088.062-1.845.783-1.991.819-.66.161-1.195-.345-1.493-.116-.517.379,0,.66.065,1.022a9.655,9.655,0,0,1-1.1,2.849c-.366.291-.8.057-.807.784,0,.395.522.337.807.6.411.383,1.5,2.937.808,3.45l.232.419c.277.231.639-.183,1.056-.2a13.167,13.167,0,0,1,2.35.81c.55.319.326,1.127,1.145,1.138.443.006.18-.71.836-1.1.126-.074,1.871-.82,1.977-.836.474-.072.857.2,1.213.181.717-.049.158-1.2.344-1.936.039-.153.717-1.71.783-1.794.288-.371,1.03-.246,1.072-.737l-.122-.454a5.66,5.66,0,0,1-.819-.322,19.681,19.681,0,0,1-.962-2.24c-.148-.726.47-1.359-.3-1.75-.684.728-3.066-.381-3.495-.928a5.2,5.2,0,0,1-.288-.668" transform="translate(-86.918 -77.878)" fill="#fff"/>
          <path id="Trazado_1265266" data-name="Trazado 1265266" d="M130.663,116.461c6.164-1.061,7.039,8,1.519,8.69-5.856.727-6.753-7.789-1.519-8.69m.173,1.923c-2.376.494-2.331,4.5.326,4.843,3.858.495,3.7-5.68-.326-4.843" transform="translate(-104.959 -96.015)" fill="#fff"/>
        </g>
      </g>
    </g>
  </g>
</svg>
