<svg id="Grupo_1099776" data-name="Grupo 1099776" xmlns="http://www.w3.org/2000/svg" xmlns:xlink="http://www.w3.org/1999/xlink" width="81.211" height="80.124" viewBox="0 0 81.211 80.124">
  <defs>
    <clipPath id="clip-path">
      <rect id="Rectángulo_458311" data-name="Rectángulo 458311" width="77.031" height="77.277" fill="#fff"/>
    </clipPath>
  </defs>
  <g id="Grupo_1099618" data-name="Grupo 1099618" transform="translate(0 0)">
    <rect id="Rectángulo_401104" data-name="Rectángulo 401104" width="79.17" height="80.124" transform="translate(0)" fill="none"/>
  </g>
  <g id="Grupo_1207502" data-name="Grupo 1207502" transform="translate(4.18 0)">
    <g id="Grupo_1207501" data-name="Grupo 1207501" clip-path="url(#clip-path)">
      <path id="Trazado_1266250" data-name="Trazado 1266250" d="M62.305,39.8c.3-.064.5-.385.664-.624,1.733-2.519,4.468-9.447,7.17-10.394a5.047,5.047,0,0,1,6.309,7.011L62.416,60.165c-.627,4.353.47,9.684-.131,13.921a4.038,4.038,0,0,1-3.834,3.192H4.1a4.209,4.209,0,0,1-4.1-4.1L.229,5A3.912,3.912,0,0,1,2.991,2.38L22.8,2.335c.653-1.211,1.107-1.992,2.6-2.129A80.124,80.124,0,0,1,37.342.239c1.934.272,1.746,1.927,2.6,2.087l19.424.014c.894-.03,2.942,1.994,2.942,2.678ZM37.481,8.18V2.442l-.351-.351H25.185l-.351.351V7.829l.351.351ZM22.96,4.2H3.405c-.635,0-1.7,1.741-1.534,2.447l0,66.064A2.57,2.57,0,0,0,4.567,75.4H57.982c.748.2,2.45-.853,2.45-1.531V63.45l-2.063,1.567c-.3,1.307.349,7.3-.272,7.924a1.7,1.7,0,0,1-.841.33L4.86,73.237a1.406,1.406,0,0,1-.884-1.458l.135-65a2.1,2.1,0,0,1,.465-.472H22.96Zm36.183,0H39.588V6.307h18.15c.078,0,.356.31.585.234V46.588c.564.125.38-.1.523-.306a14.009,14.009,0,0,0,1.6-3.079V5.946a2.479,2.479,0,0,0-1.3-1.747M22.96,8.18H5.864v63H56.45V66.026c-1.066.3-3.827,3.14-4.706,2.011-.793-1.02.252-7.89.071-9.573l4.635-8.012V8.18H39.705c-.189,0-.639,1.215-1.057,1.519a4.713,4.713,0,0,1-1.779.563,75.331,75.331,0,0,1-10.757.036c-1.564-.113-2.791-.408-3.152-2.118m51.519,27.4c1.588-2.659-.119-5.762-3.339-5.1-.656.135-2.347,1.423-1.941,2.057Zm-1.4,2.341.128-.709-5.277-3.038-.206.79c.576.546,5.01,3.226,5.355,2.957M54.109,58.529l4.908,2.723.483-.008,12.194-21.57c-1.507-.73-3.078-2.065-4.577-2.7-.189-.08-.344-.379-.6-.116Zm3.746,4.45c.13-.165-.905-.767-1.1-.888a21.3,21.3,0,0,0-3.114-1.685l-.233,5.151c.153.208,3.843-2.661,4.447-2.579" transform="translate(0 0)" fill="#fff"/>
      <path id="Trazado_1266251" data-name="Trazado 1266251" d="M163.914,185.571v15.106c0,.78-1.219.793-1.747.83-.97.067-5.279.33-5.279-.83V185.571c-.824-.092-3.394.35-3.716-.626l.02-.837c2.135-2.91,3.974-6.745,6.171-9.528.819-1.038,1.434-.978,2.167.142l6.089,9.38,0,.833c-.322,1.1-2.779.482-3.708.636m-3.283-8.9-.483.145-4.195,6.529c.6.231,2.515-.04,2.777.733l.134,15.323c.237.341,2.944.447,3.144-.165l.065-15.158c.236-.7,2.166-.644,2.778-.62Z" transform="translate(-117.3 -133.127)" fill="#fff"/>
      <path id="Trazado_1266252" data-name="Trazado 1266252" d="M131.053,233.715a33.327,33.327,0,0,1,5.116-.058c.4.052.711.088.927.478l.127,12.073a.989.989,0,0,1-.478.927,31.838,31.838,0,0,1-5.281.127c-.4-.052-.71-.088-.927-.478V234.135a.891.891,0,0,1,.517-.42m4.285,1.826h-3.045v9.836h3.045Z" transform="translate(-99.965 -178.882)" fill="#fff"/>
      <path id="Trazado_1266253" data-name="Trazado 1266253" d="M91.04,249.32c.273-.908,5.581-.712,6.5-.3a2.272,2.272,0,0,1,.3,1.223,66.782,66.782,0,0,1-.126,8.091.91.91,0,0,1-.71.461,34.106,34.106,0,0,1-5.14,0c-.257-.049-.826-.4-.826-.579Zm4.918,1.522H92.914v6.089c.971-.135,2.3.352,3.045-.351Z" transform="translate(-69.719 -190.436)" fill="#fff"/>
      <path id="Trazado_1266254" data-name="Trazado 1266254" d="M144.9,64.93c.721.224.645,1.874-.234,1.874H124.529a1.443,1.443,0,0,1-.6-.832c-.124-.3.426-1.041.6-1.041Z" transform="translate(-94.894 -49.724)" fill="#fff"/>
      <path id="Trazado_1266255" data-name="Trazado 1266255" d="M144.9,81.374c.721.224.645,1.874-.234,1.874H124.529a1.443,1.443,0,0,1-.6-.832c-.124-.3.426-1.041.6-1.041Z" transform="translate(-94.894 -62.317)" fill="#fff"/>
      <path id="Trazado_1266256" data-name="Trazado 1266256" d="M144.9,123.6c.721.224.645,1.874-.234,1.874H124.529a1.443,1.443,0,0,1-.6-.832c-.124-.3.426-1.041.6-1.041Z" transform="translate(-94.894 -94.65)" fill="#fff"/>
      <path id="Trazado_1266257" data-name="Trazado 1266257" d="M144.9,140.041c.721.224.645,1.874-.234,1.874H124.529a1.443,1.443,0,0,1-.6-.832c-.124-.3.426-1.041.6-1.041Z" transform="translate(-94.894 -107.244)" fill="#fff"/>
      <path id="Trazado_1266258" data-name="Trazado 1266258" d="M51.4,269.5c-.831-.25-.771-5.767-.37-6.4.347-.548,4.483-.484,5.3-.4.719.069,1.348.252,1.5,1.074a21.928,21.928,0,0,1-.211,5.338,1.579,1.579,0,0,1-.6.394Zm4.334-4.919-2.826.1-.117,2.723,2.944.22Z" transform="translate(-38.862 -201.135)" fill="#fff"/>
      <path id="Trazado_1266259" data-name="Trazado 1266259" d="M63.089,67.244h-10.8v-10.8h10.8ZM53.927,65.6h7.522V58.082H53.927Z" transform="translate(-40.042 -43.224)" fill="#fff"/>
      <path id="Trazado_1266260" data-name="Trazado 1266260" d="M63.089,127.85h-10.8v-10.8h10.8Zm-9.161-1.639h7.522v-7.522H53.927Z" transform="translate(-40.042 -89.637)" fill="#fff"/>
      <path id="Trazado_1266261" data-name="Trazado 1266261" d="M67.426,60.607c.463-.121,1.249.789,1.4,1.222l-6.412,6.594-3.524-3.56,1.394-1.394,2.13,2.086Z" transform="translate(-45.1 -46.405)" fill="#fff"/>
      <path id="Trazado_1266262" data-name="Trazado 1266262" d="M67.426,120.607c.463-.121,1.249.789,1.4,1.222l-6.412,6.594-3.524-3.56,1.394-1.394,2.13,2.086Z" transform="translate(-45.1 -92.353)" fill="#fff"/>
    </g>
  </g>
</svg>
