<svg xmlns="http://www.w3.org/2000/svg" xmlns:xlink="http://www.w3.org/1999/xlink" width="107" height="107" viewBox="0 0 107 107">
  <defs>
    <clipPath id="clip-path">
      <rect id="Rectángulo_458194" data-name="Rectángulo 458194" width="59.711" height="59.527" fill="#fff"/>
    </clipPath>
  </defs>
  <g id="Grupo_1207200" data-name="Grupo 1207200" transform="translate(-340.5 -8693)">
    <g id="Grupo_156312" data-name="Grupo 156312" transform="translate(51.832 4244.563)">
      <path id="Elipse_5845" data-name="Elipse 5845" d="M53.5,0A53.5,53.5,0,1,1,0,53.5,53.5,53.5,0,0,1,53.5,0Z" transform="translate(288.668 4448.437)" fill="#5d0b80"/>
    </g>
    <g id="Grupo_1098917" data-name="Grupo 1098917" transform="translate(-46.027 2674.787)">
      <path id="Trazado_873216" data-name="Trazado 873216" d="M0,0H63.184V63.186H0Z" transform="translate(408.527 6040.213)" fill="none"/>
      <g id="Grupo_1207354" data-name="Grupo 1207354" transform="translate(409.527 6041.589)">
        <g id="Grupo_1207353" data-name="Grupo 1207353" clip-path="url(#clip-path)">
          <path id="Trazado_1265700" data-name="Trazado 1265700" d="M16.407,26.828h2.637l2.11,6.153V26.828h2.989v-3.78c0-1.631-2.475-3.3-3.414-4.5-6.685-8.5,1.33-20.7,11.887-18.216a11.557,11.557,0,0,1,6.366,18.216c-.938,1.194-3.413,2.867-3.413,4.5v3.78h2.989v6.153l2.11-6.153H59.654c.277,5.351-.323,10.466-4.664,14.059-.559.463-2.78,1.659-2.909,1.838-.3.414-.156,1.175-.138,1.66a11.074,11.074,0,0,1,7.089,7.063,14.759,14.759,0,0,1,.623,2.894v4.922l-.264.264H.321l-.264-.264V54.341A14.759,14.759,0,0,1,.68,51.448a11.145,11.145,0,0,1,7.089-7.063l.035-.232c-.044-.461.119-1.023-.174-1.428-.129-.178-2.35-1.375-2.909-1.838C.381,37.294-.219,32.179.058,26.828H3.046V10.215c1.766-2.59,2.847-6.654,4.6-9.112A2.523,2.523,0,0,1,11.738,1c1.772,2.324,2.894,6.71,4.669,9.22Zm15.47-3.867,1.769-.079c.443-3.332,3.455-4.288,4.822-7.133,4.143-8.621-5.378-17.4-13.628-12.4a9.621,9.621,0,0,0-2.274,14.416c.922,1.1,1.992,1.572,2.705,2.921a4.132,4.132,0,0,1,.631,2.27l1.933,0-.527-8.616c-2.7.593-5.313-1.68-3.729-4.343,1.7-2.855,6.17-.884,5.486,2.411h1.584C29.959,9.13,34.434,7.143,36.133,10c1.578,2.656-1.016,4.933-3.729,4.343ZM13.946,9.6,10.18,2.2l-.533-.172-.6.477L5.507,9.6Zm13.186,2.814c.544-1.545-1.362-2.651-2.024-1.228-.533,1.145,1.2,1.406,2.024,1.228m5.448,0c.819.177,2.557-.083,2.024-1.228-.663-1.423-2.568-.317-2.024,1.228m-23.732-.88H4.98V26.828H8.848Zm5.626,0H10.606V26.828h3.868Zm16,2.812H29.24l.53,8.614.348-2.2Zm3.164,10.549H26.076v1.934h7.559ZM7.793,28.762h-5.8v3.077a16.472,16.472,0,0,0,.921,3.474,10.34,10.34,0,0,0,4.881,5.228V37.816c0-.1-1.165-1.1-1.378-1.435a2.873,2.873,0,0,1,1.378-4.455Zm3.868,12.482h3.956a5.245,5.245,0,0,0,1.062-.7c1.506-1.445.3-3.824.869-4.756.231-.38,1.5-.445,1.667-1.321.268-1.39-1.164-4.32-1.665-5.709H9.727v4.747c-.9-.1-1.961.049-1.948,1.148.01.838,1.7,1.633,1.943,2.46l.032,7.176,3.839,1.7V43.178H11.659ZM36.624,28.762H23.088v9.933A4.3,4.3,0,0,0,25.9,42.037a43.424,43.424,0,0,0,7.307.1,3.872,3.872,0,0,0,2.927-2,14.314,14.314,0,0,0,.492-1.442Zm13.361,0H42.162c-.5,1.39-1.933,4.319-1.665,5.709.169.875,1.436.94,1.667,1.321.566.932-.637,3.311.869,4.756a5.246,5.246,0,0,0,1.062.7h3.956v1.935H46.117v2.813l3.839-1.7.032-7.176c.24-.827,1.933-1.622,1.944-2.46.014-1.1-1.053-1.252-1.948-1.148Zm7.735,0h-5.8v3.164c0,.032.365-.014.617.168a3.022,3.022,0,0,1,.826,4.176c-.237.4-1.443,1.44-1.443,1.546v2.725A10.309,10.309,0,0,0,57.243,34a17.164,17.164,0,0,0,.478-2.335ZM21.154,38.871c-.139-1.175.1-2.577,0-3.78l-.939,1.345-.822.537c.252,2.86-.664,5.64-3.787,6.194l-.091,3.972L17.9,49.5a11.912,11.912,0,0,1,4.788-3.647c.46-.185,2.547-.687,2.644-.785a6.352,6.352,0,0,0,.391-1.189c-2.338-.252-4.308-2.789-4.571-5.012m17.4-3.78v3.6a10.139,10.139,0,0,1-.443,1.667,5.451,5.451,0,0,1-4.128,3.521c.192,1.645,1.061,1.233,2.279,1.676A11.725,11.725,0,0,1,41.81,49.5L44.2,47.139l-.091-3.972c-3.145-.574-4.036-3.288-3.787-6.194-.278-.285-.655-.361-.953-.669-.348-.361-.441-.945-.808-1.212m-6.529,8.99-4.254-.032L27.166,45.7l2.69,2.745L32.5,45.81ZM53.853,57.594h3.6l.264-.264V54.165c0-2.673-2.426-5.985-4.694-7.261-2.079-1.169-2.7-.6-4.742.286-4.42,1.923-7.509,5.42-7.792,10.4H51.919v-5.8h1.934ZM1.991,54.165c-.1,1,.074,2.142,0,3.164l.264.264h3.6v-5.8H7.793v5.8H19.22a10.606,10.606,0,0,0-1.441-4.976A13.826,13.826,0,0,0,16.5,50.734c-.206-.162-.139-.248-.35.007L15,52.949l-.478-.058L9.032,49.586l-.89-3.244a9.231,9.231,0,0,0-6.151,7.824m8.657-5.756c.5.529,2.712,1.321,3.389,1.956.892-1.129.778-1.272-.283-1.986S11.45,47.3,10.341,46.7a2.76,2.76,0,0,0,.308,1.715m14.9-1.364c.1.54.867,4.571,1.141,4.567l1.657-1.818Zm8.611,0-2.8,2.749,1.657,1.818c.274,0,1.041-4.027,1.141-4.567m-8.787,8.438-1.846-7.906a9.738,9.738,0,0,0-4.281,3.463,14.107,14.107,0,0,0,1.112,2.513,17.006,17.006,0,0,1,.824,3.747l.258.269H38.27l.258-.269a16.986,16.986,0,0,1,.824-3.747,14.1,14.1,0,0,0,1.112-2.513,9.376,9.376,0,0,0-4.283-3.459l-1.844,7.9c-.3.079-.351-.126-.528-.262-.647-.5-3.675-3.953-3.954-3.953-1.357,1.117-2.6,2.909-3.954,3.953-.176.136-.223.341-.528.262" transform="translate(0 0)" fill="#fff"/>
          <path id="Trazado_1265701" data-name="Trazado 1265701" d="M253,26.319h-1.934V22.012c1.38-1.491,4.434-2.756,4.73-4.938.748-5.5-7.759-5.757-7.542-.423h-1.935c-.072-8.076,12.515-7.488,11.413.775-.335,2.509-3.014,3.944-4.732,5.465Z" transform="translate(-203.017 -8.984)" fill="#fff"/>
          <path id="Trazado_1265702" data-name="Trazado 1265702" d="M264.7,109.4c4.735-.976,4.942,6.034.487,5.585-3.217-.325-3.231-5.019-.487-5.585m1.587,3.433c.82-.815-.552-2.29-1.448-1.362-.928.963.66,2.143,1.448,1.362" transform="translate(-216.517 -90.089)" fill="#fff"/>
          <path id="Trazado_1265703" data-name="Trazado 1265703" d="M157.282,202.607c.671-.142.793-1.036.9-1.066l1.826.011c.288,1.287-1.368,2.989-2.55,2.989h-4.131v-1.934Z" transform="translate(-126.371 -166.11)" fill="#fff"/>
        </g>
      </g>
    </g>
  </g>
</svg>
