<svg xmlns="http://www.w3.org/2000/svg" xmlns:xlink="http://www.w3.org/1999/xlink" width="127" height="128" viewBox="0 0 127 128">
  <defs>
    <clipPath id="clip-path">
      <rect id="Rectángulo_458364" data-name="Rectángulo 458364" width="78.706" height="66.011" fill="#5d0b80"/>
    </clipPath>
  </defs>
  <g id="Grupo_1206951" data-name="Grupo 1206951" transform="translate(-0.116)">
    <ellipse id="Elipse_13609" data-name="Elipse 13609" cx="63.5" cy="64" rx="63.5" ry="64" transform="translate(0.116)" fill="#fff"/>
    <g id="Grupo_1099776" data-name="Grupo 1099776" transform="translate(23.859 24)">
      <g id="Grupo_1099618" data-name="Grupo 1099618" transform="translate(0.257 -0.498)">
        <rect id="Rectángulo_401104" data-name="Rectángulo 401104" width="78.706" height="80.124" transform="translate(0)" fill="none"/>
      </g>
      <g id="Grupo_1207534" data-name="Grupo 1207534" transform="translate(0.257 6.502)">
        <g id="Grupo_1207533" data-name="Grupo 1207533" clip-path="url(#clip-path)">
          <path id="Trazado_1266380" data-name="Trazado 1266380" d="M35.38,166.814a4.326,4.326,0,0,1,4.051,7.011L28.5,184.758c-.5,1.652.415,9.163-.454,10.025H7.756a2.11,2.11,0,0,1-.347-1.248,87.713,87.713,0,0,1,.013-12.082c.315-3.176,3.044-6.508,6.282-6.931,3.971-.519,8.848.385,12.919-.066l7.106-7.018a5.638,5.638,0,0,1,1.652-.625M25.871,192.5v-8.315a5.7,5.7,0,0,1,.678-.917c2.765-3.521,8.473-7.347,10.811-10.831,1.167-1.738.342-3.378-1.756-3.13l-7.968,7.529a2.16,2.16,0,0,1-.956.183c-3.788.349-9.492-.66-12.944.041-1.413.287-3.81,2.678-3.81,4.163V192.5H13.57v-5.353c0-1.168,2.506-.836,2.506,0V192.5Z" transform="translate(-5.565 -128.772)" fill="#5d0b80"/>
          <path id="Trazado_1266381" data-name="Trazado 1266381" d="M227.509,199.968a95.618,95.618,0,0,1,14.733-.035c3.129.409,5.9,3.639,6.259,6.725a84.927,84.927,0,0,1,.035,12.287,2.109,2.109,0,0,1-.347,1.248H221.754a2.109,2.109,0,0,1-.347-1.248c-.231-2.731-.346-10.372.114-12.892.495-2.711,3.235-5.658,5.988-6.085m18.511,17.942V206.633c0-1.822-2.676-4.053-4.431-4.226-4.341-.426-9.435.3-13.856.063-1.364.268-3.81,2.6-3.81,3.935v11.5h3.645v-5.353c0-1.116,2.506-1,2.506.228v5.126h9.8v-5.353c0-.836,2.506-1.168,2.506,0v5.353Z" transform="translate(-170.814 -154.182)" fill="#5d0b80"/>
          <path id="Trazado_1266382" data-name="Trazado 1266382" d="M17.284,20.446a.622.622,0,0,0-.622.622v3.364c0,.211-.835.662-1.114.691-1.3.134-4.144-3.942-5.591-4.6a.612.612,0,0,0-.131-.042c-3.007-.637-9.768,1.131-9.8-2.645-.066-7.369.034-7.483,0-15.685a.694.694,0,0,1,.006-.095A2.457,2.457,0,0,1,1.271.144a.6.6,0,0,1,.3-.075L26.148,0a.614.614,0,0,1,.265.056,2.446,2.446,0,0,1,1.41,2,.726.726,0,0,1,.006.086c.07,5.242.07,9.539-.006,15.908a2.522,2.522,0,0,1-2.164,2.392Zm7.412-18H3.16a.622.622,0,0,0-.622.622V17.318a.622.622,0,0,0,.622.622h7.454a.623.623,0,0,1,.416.159l2.1,1.882a.621.621,0,0,0,1.031-.375c.1-.81.364-1.666.794-1.666H24.7a.622.622,0,0,0,.622-.622V3.072A.622.622,0,0,0,24.7,2.45" transform="translate(0 -0.001)" fill="#5d0b80"/>
          <path id="Trazado_1266383" data-name="Trazado 1266383" d="M37.629,123.534c10.635-1.654,13.822,12.381,4.927,15.862A8.329,8.329,0,0,1,32.4,127.186a8.508,8.508,0,0,1,5.232-3.653m1.768,2.354c-9.081.02-6.605,14.378,2.058,11.267,5.92-2.125,4.538-11.282-2.058-11.267" transform="translate(-23.989 -95.288)" fill="#5d0b80"/>
          <path id="Trazado_1266384" data-name="Trazado 1266384" d="M251.989,123.5c12.48-1.941,13.348,16.188,1.983,16.581-10.208.353-11.5-15.1-1.983-16.581m1.768,2.354c-6.6-.014-7.978,9.143-2.058,11.267,8.637,3.1,11.156-11.248,2.058-11.267" transform="translate(-189.599 -95.253)" fill="#5d0b80"/>
          <path id="Trazado_1266385" data-name="Trazado 1266385" d="M151.342,50.335h7.631c.838,0,.77,2.506-.456,2.506h-7.176c1.229,1.038.834,3.011-.977,2.461a35.579,35.579,0,0,1-3.134-3.017,1.42,1.42,0,0,1,0-1.621,35.609,35.609,0,0,1,3.134-3.017c1.193-.362,1.976.424,1.617,1.617-.127.421-.738.542-.639,1.072" transform="translate(-113.495 -36.724)" fill="#5d0b80"/>
          <path id="Trazado_1266386" data-name="Trazado 1266386" d="M155.378,104.592h-7.631c-.838,0-.77-2.506.456-2.506h7.176c-1.229-1.038-.834-3.011.977-2.461a35.577,35.577,0,0,1,3.134,3.017,1.42,1.42,0,0,1,0,1.621,35.611,35.611,0,0,1-3.134,3.017c-1.193.362-1.976-.424-1.617-1.617.127-.421.738-.542.639-1.072" transform="translate(-113.659 -76.857)" fill="#5d0b80"/>
          <path id="Trazado_1266387" data-name="Trazado 1266387" d="M36.621,20.175H20.286a1.147,1.147,0,0,1,0-2.295H36.621a1.147,1.147,0,1,1,0,2.295" transform="translate(-14.779 -13.807)" fill="#5d0b80"/>
          <path id="Trazado_1266388" data-name="Trazado 1266388" d="M36.621,41.509H20.286a1.147,1.147,0,1,1,0-2.295H36.621a1.147,1.147,0,1,1,0,2.295" transform="translate(-14.779 -30.281)" fill="#5d0b80"/>
          <path id="Trazado_1266389" data-name="Trazado 1266389" d="M29.314,60.546H20.286a1.147,1.147,0,1,1,0-2.295h9.028a1.147,1.147,0,1,1,0,2.295" transform="translate(-14.779 -44.981)" fill="#5d0b80"/>
          <path id="Trazado_1266390" data-name="Trazado 1266390" d="M225.333,20.445a2.522,2.522,0,0,1-2.164-2.392c-.076-6.369-.076-10.666-.006-15.908a.773.773,0,0,1,.006-.086,2.446,2.446,0,0,1,1.411-2A.609.609,0,0,1,224.844,0l24.581.068a.6.6,0,0,1,.3.075,2.457,2.457,0,0,1,1.239,1.912.729.729,0,0,1,.006.095c-.03,8.2.07,8.316,0,15.685-.034,3.776-6.795,2.007-9.8,2.645a.633.633,0,0,0-.131.042c-1.447.66-4.289,4.736-5.591,4.6-.279-.029-1.114-.48-1.114-.691V21.067a.622.622,0,0,0-.622-.622Zm.342-17.374V17.317a.622.622,0,0,0,.622.622h9.743c.43,0,.69.856.794,1.666a.621.621,0,0,0,1.031.375l2.1-1.882a.621.621,0,0,1,.416-.159h7.454a.622.622,0,0,0,.622-.622V3.071a.622.622,0,0,0-.622-.622H226.3a.622.622,0,0,0-.622.622" transform="translate(-172.286 0)" fill="#5d0b80"/>
          <path id="Trazado_1266391" data-name="Trazado 1266391" d="M259.732,20.175H243.4a1.147,1.147,0,0,1,0-2.295h16.334a1.147,1.147,0,0,1,0,2.295" transform="translate(-187.065 -13.807)" fill="#5d0b80"/>
          <path id="Trazado_1266392" data-name="Trazado 1266392" d="M259.732,41.509H243.4a1.147,1.147,0,0,1,0-2.295h16.334a1.147,1.147,0,0,1,0,2.295" transform="translate(-187.065 -30.281)" fill="#5d0b80"/>
          <path id="Trazado_1266393" data-name="Trazado 1266393" d="M252.425,60.546H243.4a1.147,1.147,0,0,1,0-2.295h9.028a1.147,1.147,0,0,1,0,2.295" transform="translate(-187.065 -44.981)" fill="#5d0b80"/>
        </g>
      </g>
    </g>
  </g>
</svg>
