<svg xmlns="http://www.w3.org/2000/svg" xmlns:xlink="http://www.w3.org/1999/xlink" width="127" height="128" viewBox="0 0 127 128">
  <defs>
    <clipPath id="clip-path">
      <rect id="Rectángulo_458362" data-name="Rectángulo 458362" width="59.274" height="78.002" fill="#5d0b80"/>
    </clipPath>
  </defs>
  <g id="Grupo_1206947" data-name="Grupo 1206947" transform="translate(-0.019)">
    <ellipse id="Elipse_13609" data-name="Elipse 13609" cx="63.5" cy="64" rx="63.5" ry="64" transform="translate(0.019)" fill="#fff"/>
    <g id="Grupo_1099776" data-name="Grupo 1099776" transform="translate(23.859 24)">
      <g id="Grupo_1099618" data-name="Grupo 1099618" transform="translate(0.159 -0.498)">
        <rect id="Rectángulo_401104" data-name="Rectángulo 401104" width="78.706" height="80.124" transform="translate(0)" fill="none"/>
      </g>
      <g id="Grupo_1207530" data-name="Grupo 1207530" transform="translate(10.16 1.502)">
        <g id="Grupo_1207529" data-name="Grupo 1207529" clip-path="url(#clip-path)">
          <path id="Trazado_1266366" data-name="Trazado 1266366" d="M0,22.885c.464-3.456,3.789-6.459,6.922-7.6C4.722,12.813,4.551,7.631,5.77,4.746,8.366-1.4,17.3-1.629,20.082,4.368c1.276,2.747,1.205,8.61-1.085,10.921a12.425,12.425,0,0,1,5.227,3.706c.378.5,1.128,2.264,1.239,2.336.5.325,1.3-.156,2.143.762.894.973,1.066,3.367,1.765,4.044a10.68,10.68,0,0,0,2.7,1.082c.688-.015,2.45-1.311,3.4-1.488.592-.111,1.721.122,1.862.056.179-.083,1.612-2,2.234-2.441a10.832,10.832,0,0,1,8.083-.962,8.794,8.794,0,0,0,3.609.86,6.858,6.858,0,0,1,5.921,5.7c.126,1.054-.144,2.353.035,3.317.122.659.96,1.407,1.093,2.257a3.6,3.6,0,0,1-4.21,4.142l-1.362,3.328a8.2,8.2,0,0,1,4.562,2.926c.764,1,3.2,5.677,1.125,6.014-1.736.283-1.369-1.306-1.786-2.448a6.23,6.23,0,0,0-3.45-3.809L47.922,54.943c-.439,1.1.662,5.01-1.246,4.818-1.892-.19-.727-3.767-1.2-5.042L40.1,44.67c-5.259,2.74-2.9,9.066-3.454,13.746-.09.763-.362,1.343-1.232,1.345-1.836.006-1.04-3.141-1.266-4.33-.634-.1-1.526-.914-2.087-.913a19.5,19.5,0,0,0-2.295.93c-.406.49-.629,2.867-1.612,3.415l0,.33c2.608.387,5.183,3.014,6.074,5.434.841,2.283.926,9.362.633,11.89-.213,1.843-2.067,1.968-2.415.394-.8-3.624,1.023-8.871-.826-12.357A6.246,6.246,0,0,0,24.8,61.21c-.267.376,2.4,7.533,2.15,8.94-.17.937-3.264,3.778-4.1,3.969a2.158,2.158,0,0,1-1.963-.4A28.468,28.468,0,0,1,17.7,70.657c-.554-1.857,1.824-7.136,1.98-9.313-.844-.681-2.118-.238-3.041.076C9.988,63.684,12.57,71.6,12.06,76.953a1.2,1.2,0,0,1-2.119.566c-.272-.457-.213-9.42-.118-10.624a8.734,8.734,0,0,1,6.489-7.7l-1.343-3.35c-1,.242-1.475.689-2.517.172a20.128,20.128,0,0,1-2.713-2.647c-1.062-1.853.957-3.348,1.34-4.9a8.506,8.506,0,0,0-1.123-3.14c-.879-.755-3.506-.712-4.341-1.915-.743-1.069-.752-4.618.36-5.452.839-.629,3.593-1.074,4.094-1.656l1.067-2.523c.109-.722-1.434-2.84-1.665-3.854-.1-.42.158-.811.032-1.116-.225-.545-1.3-.847-1.41-1.956a11.587,11.587,0,0,1,.951-3.417,1.254,1.254,0,0,1,1.113-.218c1.917.32-.363,3.571.684,3.8.427.092,1.125-1.523,2.9-1.351.632.061,1.144.612,1.669.35L13.4,18.081c-1.436-.182-.605,2.194-2.336,2.016-1.594-.163-.633-2.191-.808-2.443-1.923-.716-4.955.625-6.234,2.108a10.089,10.089,0,0,0-1.792,3.794V34.5c0,.729-2.234.729-2.234,0ZM12.466,2.278C4.429,3.043,6,18.536,14.964,15.505c3.537-1.2,3.935-5.019,3.583-8.262a5.651,5.651,0,0,0-6.081-4.965m9.5,19.668c.269-.243.818-.243,1.047-.623-1.367-2.5-4.467-4.55-7.361-3.676l2.228,9.373a5.692,5.692,0,0,0,2.465-1c.67-.824.8-3.33,1.62-4.076M36.42,27.914c-.414-.431-4.006,2.326-4.977,1.744l-3.967-1.849L25.929,23.77l-2.339-.116c-.564,1.157-.868,3.927-1.981,4.528-.331.179-3.638,1.526-3.844,1.539-1.127.069-3.075-1.5-4.288-1.772-3.164,1.581-.474,3.081.053,5.1.329,1.258-1.342,3.668-1.675,5.044L7.7,39.746l-.116,2.331c1.111.64,3.963.839,4.532,1.986.176.355,1.493,3.663,1.514,3.87.113,1.153-1.521,3.022-1.782,4.23.724,1.207,1.48,2.172,2.862,1.186-.1-2.331.179-4.583,1.8-6.363a10.317,10.317,0,0,1,3.149-14.942c.831-.473,2.477-1.481,3.233-.539,1.2,1.491-2.106,2.4-3.079,3.151a8.148,8.148,0,0,0-1.694,10.674,7.877,7.877,0,0,1,10.59,2.459c5.12-2.754,5.328-10.517.41-13.579-.959-.6-3.1-.925-2.72-2.335.506-1.888,3.869.26,4.765.96,5.829,4.552,4.779,13.447-1.411,17.125l.189,2.979c1.646-1.1,2.6-1.1,4.241,0-.4-4.8,1.722-9.765,6.706-10.95l-1.554-3.248c-2.746.075-4.466-1.635-4.017-4.445.121-.757.759-1.224.869-1.811.243-1.306-.168-3.15.232-4.569m2.236,4.244h4.581a17.281,17.281,0,0,0,2.505-.623A4.716,4.716,0,0,0,47.2,30.09a17.045,17.045,0,0,0,.052-5.077c-.525-1.192-4.332-.7-5.4-.27s-3.2,2.417-3.2,3.505Zm11.172-6.7v3.91c0,.3-.815,1.982-.671,2.121,1.875.17,3.807.8,5.68.25a4.865,4.865,0,0,0-5.009-6.281m2.236,8.713c-1.1.435-3.961-1.077-4.581-1.038-.125.008-1.66.842-2.292.982a17.048,17.048,0,0,1-3.631.279c-.4,3.18.324,7.012,4.013,7.72,5.059.97,7.149-3.588,6.491-7.943M54.3,36.4c1.364.276,2.322-1.051,1.342-2.126l-1.344-.11ZM39.1,34.391c-2.382-.465-1.918,2.12,0,2.013Zm4.465,11.4L44,44.143c-.189-.59-1.594-.51-1.451.09Zm7.375-2.009L49.38,44l.784,1.784ZM46.92,52.044,48.5,48.585c-.13-.462-1.279-4.7-2.017-4.137L44.97,48.771ZM26.063,48.1a5.32,5.32,0,0,0-8.74,1.938,11.048,11.048,0,0,0,.13,6.337c2.036,4.721,9.4,3.664,10.005-1.34.265-2.2.262-5.281-1.4-6.934m-3.5,13.551c-.482-.092-.517.221-.681.545-1.006,1.987-1.089,5.443-2.006,7.591l2.393,1.887L24.559,69.6Z" transform="translate(0 0)" fill="#5d0b80"/>
          <path id="Trazado_1266367" data-name="Trazado 1266367" d="M117.187,35.911a6.54,6.54,0,0,1,2.833.179,11.3,11.3,0,0,1,1.828,1.05c.375.067.707-.321,1.37-.009,1.014.477.257,1.477.279,2.185.057,1.882.671,2.852-.361,4.778a5.6,5.6,0,0,1-9.614.282c-1.985-3.211-.186-7.914,3.665-8.465m4.3,5.081c-.85.407-1.874,2.284-2.771,2.238-.761-.039-2.81-1.927-2.256-2.9.8-1.173,1.472-.553,2.428-.029l1.48-1.43a3.288,3.288,0,0,0-5,4.11c1.514,3.148,6.637,1.52,6.118-1.987" transform="translate(-87.523 -27.827)" fill="#5d0b80"/>
          <path id="Trazado_1266368" data-name="Trazado 1266368" d="M176.087,36.978l13.135-.038a1.127,1.127,0,0,1,.467,2.023l-13.418.2a1.136,1.136,0,0,1-.185-2.187" transform="translate(-136.16 -28.686)" fill="#5d0b80"/>
          <path id="Trazado_1266369" data-name="Trazado 1266369" d="M176.448,52.984l12.906-.044c1.348.486,1.314,2.042-.207,2.242L176.4,55.165a1.107,1.107,0,0,1,.044-2.181" transform="translate(-136.292 -41.111)" fill="#5d0b80"/>
          <path id="Trazado_1266370" data-name="Trazado 1266370" d="M176.442,73.668a29.8,29.8,0,0,1,5.3-.035,1.213,1.213,0,0,1,.789,2.1c-.535.455-4.816.462-5.678.328-1.531-.24-1.893-2.066-.411-2.4" transform="translate(-136.286 -57.102)" fill="#5d0b80"/>
          <path id="Trazado_1266371" data-name="Trazado 1266371" d="M255.074,243.2c.514-.516,1.811-.29,1.958.5a24.2,24.2,0,0,1-.043,3.98,1.143,1.143,0,0,1-2.187-.185c-.12-.618-.089-3.936.272-4.3" transform="translate(-197.82 -188.644)" fill="#5d0b80"/>
          <path id="Trazado_1266372" data-name="Trazado 1266372" d="M223.843,245.293c-.787.8-2.648-.4-1.749-1.637,1.007-1.388,2.845.523,1.749,1.637" transform="translate(-172.283 -188.835)" fill="#5d0b80"/>
        </g>
      </g>
    </g>
  </g>
</svg>
