<svg xmlns="http://www.w3.org/2000/svg" xmlns:xlink="http://www.w3.org/1999/xlink" width="70" height="70" viewBox="0 0 70 70">
  <defs>
    <clipPath id="clip-path">
      <rect id="Rectángulo_458479" data-name="Rectángulo 458479" width="35.439" height="35.411" fill="#5d0b80"/>
    </clipPath>
  </defs>
  <g id="Grupo_1207080" data-name="Grupo 1207080" transform="translate(0.145 0.51)">
    <circle id="Elipse_5614" data-name="Elipse 5614" cx="35" cy="35" r="35" transform="translate(-0.145 -0.51)" fill="#fff"/>
    <g id="Grupo_1207665" data-name="Grupo 1207665" transform="translate(16.856 17.49)">
      <g id="Grupo_1207664" data-name="Grupo 1207664" clip-path="url(#clip-path)">
        <path id="Trazado_1266933" data-name="Trazado 1266933" d="M74.44,27v8.506l-1.4.2-.186-1.089a.841.841,0,0,0-.518-.244,20.364,20.364,0,0,0-3.295-.011.919.919,0,0,0-.634.255l-.065,4a8.568,8.568,0,0,0-1.9,5.526l-9.236.1a1.453,1.453,0,0,0-.413.348V55.058H54V27ZM56,28.3c-.249.054-.425.155-.473.416a31.108,31.108,0,0,0,.062,4c.1.176.438.232.634.255a21.7,21.7,0,0,0,3.309,0,.666.666,0,0,0,.635-.508,18.805,18.805,0,0,0,.06-3.373c-.054-.467-.2-.764-.695-.829A21.94,21.94,0,0,0,56,28.3M66.412,32.81a1.057,1.057,0,0,0,.157-.539,21.71,21.71,0,0,0,.006-3.31.719.719,0,0,0-.7-.7,22.093,22.093,0,0,0-3.314,0c-.528.068-.654.339-.7.824a16.467,16.467,0,0,0,.165,3.723c.594.217,4.1.286,4.383,0M68.689,28.3a.472.472,0,0,0-.28.228A30.236,30.236,0,0,0,68.34,32.4c.055.415.151.516.571.571a22.939,22.939,0,0,0,3.44,0c.415-.055.516-.151.571-.571a32.261,32.261,0,0,0-.068-3.88c-.1-.176-.438-.232-.634-.255a24.652,24.652,0,0,0-3.531.028M56,34.392c-.249.054-.425.155-.473.416a25.653,25.653,0,0,0-.006,3.688c.055.415.151.516.571.571a23,23,0,0,0,3.44,0c.57-.077.652-.441.7-.952.055-.6.094-3.216-.262-3.559a.927.927,0,0,0-.567-.195,20.148,20.148,0,0,0-3.4.03m6.474,0a.746.746,0,0,0-.6.547,22.646,22.646,0,0,0,0,3.428c.049.432.108.65.566.7A33.07,33.07,0,0,0,66.316,39c.176-.1.232-.438.255-.634a21.7,21.7,0,0,0,0-3.309c-.065-.488-.354-.64-.829-.695a19.413,19.413,0,0,0-3.277.03" transform="translate(-47.144 -23.572)" fill="#5d0b80"/>
        <path id="Trazado_1266934" data-name="Trazado 1266934" d="M168.541,103.126c5.053-.394,8.322,3.86,8.023,8.657a19.909,19.909,0,0,1-7.444,13.639,19.81,19.81,0,0,1-7.267-11.875c-.824-4.967,1.071-9.983,6.688-10.421m.384,3.673c-4.941.2-4.658,7.831.343,7.594,4.976-.236,4.615-7.8-.343-7.594" transform="translate(-141.144 -90.011)" fill="#5d0b80"/>
        <path id="Trazado_1266935" data-name="Trazado 1266935" d="M5.586,117.043H0v-16.06L5.586,98Z" transform="translate(0 -85.558)" fill="#5d0b80"/>
        <rect id="Rectángulo_458473" data-name="Rectángulo 458473" width="24" height="2" transform="translate(5.15 0.247)" fill="#5d0b80"/>
        <path id="Trazado_1266936" data-name="Trazado 1266936" d="M91.586,172v9.458l-.19.19H86V172Z" transform="translate(-75.082 -150.163)" fill="#5d0b80"/>
        <path id="Trazado_1266937" data-name="Trazado 1266937" d="M139,172h1.651a20.136,20.136,0,0,0,3.3,9.649H139.19l-.19-.19Z" transform="translate(-121.353 -150.159)" fill="#5d0b80"/>
        <path id="Trazado_1266938" data-name="Trazado 1266938" d="M178.285,95l-.022.487L176,96.777V95Z" transform="translate(-153.655 -82.939)" fill="#5d0b80"/>
        <rect id="Rectángulo_458474" data-name="Rectángulo 458474" width="2" height="2" transform="translate(16.15 6.247)" fill="#5d0b80"/>
        <rect id="Rectángulo_458475" data-name="Rectángulo 458475" width="2" height="2" transform="translate(16.15 12.247)" fill="#5d0b80"/>
        <rect id="Rectángulo_458476" data-name="Rectángulo 458476" width="3" height="2" transform="translate(9.15 6.247)" fill="#5d0b80"/>
        <rect id="Rectángulo_458477" data-name="Rectángulo 458477" width="3" height="2" transform="translate(9.15 12.247)" fill="#5d0b80"/>
        <rect id="Rectángulo_458478" data-name="Rectángulo 458478" width="2" height="2" transform="translate(22.15 6.247)" fill="#5d0b80"/>
      </g>
    </g>
  </g>
</svg>
