<svg xmlns="http://www.w3.org/2000/svg" xmlns:xlink="http://www.w3.org/1999/xlink" width="160.5" height="160.501" viewBox="0 0 160.5 160.501">
  <defs>
    <clipPath id="clip-path">
      <rect id="Rectángulo_455261" data-name="Rectángulo 455261" width="38.951" height="37.623" fill="#e6fffa"/>
    </clipPath>
    <clipPath id="clip-path-2">
      <rect id="Rectángulo_457339" data-name="Rectángulo 457339" width="86.848" height="86.887" fill="#5d0b80"/>
    </clipPath>
  </defs>
  <g id="Grupo_1207256" data-name="Grupo 1207256" transform="translate(-307.436 -10011.92)">
    <path id="Sustracción_130" data-name="Sustracción 130" d="M26.051,25.795H0V11.245H11.352V0h14.7V25.795Z" transform="translate(441.641 10038.471) rotate(-90)" fill="#e3a4fe" stroke="rgba(0,0,0,0)" stroke-miterlimit="10" stroke-width="1"/>
    <g id="Grupo_1178100" data-name="Grupo 1178100" transform="translate(307.436 10172.421) rotate(-90)">
      <path id="Trazado_998183" data-name="Trazado 998183" d="M0,0V37.623H25.58V24.056H38.951V0Z" transform="translate(0 0)" fill="#5d0b80"/>
      <g id="Grupo_1178099" data-name="Grupo 1178099" transform="translate(0 0)">
        <g id="Grupo_1178098" data-name="Grupo 1178098" clip-path="url(#clip-path)">
          <path id="Trazado_998184" data-name="Trazado 998184" d="M0,9.021a9.025,9.025,0,1,1,9.025,9.021A9.023,9.023,0,0,1,0,9.021" transform="translate(4.434 5.629)" fill="#e3a4fe"/>
        </g>
      </g>
    </g>
    <g id="Grupo_1177470" data-name="Grupo 1177470" transform="translate(308.059 10012.421)">
      <circle id="Elipse_13609" data-name="Elipse 13609" cx="79.688" cy="79.688" r="79.688" fill="#f0d5fe"/>
      <g id="Grupo_1099776" data-name="Grupo 1099776" transform="translate(33.723 33.96)">
        <g id="Grupo_1099618" data-name="Grupo 1099618" transform="translate(0.367 0.273)">
          <rect id="Rectángulo_401104" data-name="Rectángulo 401104" width="90.569" height="91.661" transform="translate(0)" fill="none"/>
        </g>
        <g id="Grupo_1206540" data-name="Grupo 1206540" transform="translate(1.366 2.273)">
          <g id="Grupo_1206539" data-name="Grupo 1206539" clip-path="url(#clip-path-2)">
            <path id="Trazado_1263594" data-name="Trazado 1263594" d="M57.9,13.018h-2.92V8.771H17.146L11.04,2.93h-8.1V78.06H17.278v2.92H.951c-.664,0-1.019-1.129-.94-1.714L.267.452,1.736,0,57.095.148a6.87,6.87,0,0,1,.8.791ZM25.243,5.85c-.016-.53-2.327-2.92-2.522-2.92H15.154l2.787,2.92Zm10.088,0C35.315,5.32,33,2.93,32.809,2.93H26.835l2.788,2.92ZM54.976,2.93H36.923l2.788,2.92H54.976Z" transform="translate(-0.001 0.001)" fill="#5d0b80"/>
            <path id="Trazado_1263595" data-name="Trazado 1263595" d="M192.01,96.865c.833,1.924,1.062,3.388-.268,5.171-.5.677-1.743,1.258-1.858,1.858-.384,5.924.518,12.484.012,18.33-.5,5.749-7.207,6.385-8.747,1.03l-.021-19.359c-.148-.78-1.434-1.043-1.982-1.734a4.568,4.568,0,0,1-.144-5.3c-16.508-4.794-20.676-27.061-7.03-37.7a21.757,21.757,0,0,1,32.3,6.188c6.9,12,.92,27.514-12.257,31.508m-7.753-39.479a18.917,18.917,0,0,0-13.971,30.006c8.876,12.265,28.465,9.092,33.064-5.34,4.019-12.613-5.854-25.577-19.093-24.666M182.11,97.979a1.486,1.486,0,0,0,.216,2.857,37.712,37.712,0,0,0,6.082-.01,1.432,1.432,0,0,0,.225-2.847,39.623,39.623,0,0,0-6.524,0m4.855,5.784h-2.92V118.1h2.92Zm0,17.255h-2.923c-.708,4.062,3.449,3.9,2.923,0" transform="translate(-120.309 -40.039)" fill="#5d0b80"/>
            <path id="Trazado_1263596" data-name="Trazado 1263596" d="M72.916,56.07l.542,2.912-40.608,9.3L45.6,123.208l33.7-7.68.421,2.665-35.468,8.379a1.837,1.837,0,0,1-1.2-1.477c-3.921-18.4-9.138-36.556-13-54.959-.231-1.1-1.04-3.074-.12-3.846Z" transform="translate(-21.666 -41.185)" fill="#5d0b80"/>
            <path id="Trazado_1263597" data-name="Trazado 1263597" d="M86.931,93.034l.517,2.505L65.426,101l2.248,8.442,18.073-4.415.921,2.868L66.547,112.62l-1.245-.479-3-11.887.345-1.374Z" transform="translate(-45.761 -68.336)" fill="#5d0b80"/>
            <path id="Trazado_1263598" data-name="Trazado 1263598" d="M123.9,220.035l.515,2.9-30.759,7.176-.536-2.9Z" transform="translate(-68.4 -161.621)" fill="#5d0b80"/>
            <path id="Trazado_1263599" data-name="Trazado 1263599" d="M87.879,212.87l-.8-2.919,25.583-5.819c.448.153,1.1,2.623.249,2.844Z" transform="translate(-63.962 -149.94)" fill="#5d0b80"/>
            <path id="Trazado_1263600" data-name="Trazado 1263600" d="M123.311,246.036l.525,2.912-25.045,5.831c-.575-.191-.675-2.257-.694-2.9Z" transform="translate(-72.055 -180.719)" fill="#5d0b80"/>
            <path id="Trazado_1263601" data-name="Trazado 1263601" d="M104.907,185.037l.533,2.921L82.609,193l-.534-2.65Z" transform="translate(-60.286 -135.914)" fill="#5d0b80"/>
            <path id="Trazado_1263602" data-name="Trazado 1263602" d="M121.819,165.035l.534,2.921-12.611,2.658-.665-2.655Z" transform="translate(-80.12 -121.222)" fill="#5d0b80"/>
            <path id="Trazado_1263603" data-name="Trazado 1263603" d="M91,179.036l.423,2.665-2.562.675-.782-2.806Z" transform="translate(-64.696 -131.506)" fill="#5d0b80"/>
            <path id="Trazado_1263604" data-name="Trazado 1263604" d="M200.733,76.182c19.282-1.5,23.571,26.8,5.306,31.321-22.541,5.582-27.907-29.558-5.306-31.321m0,2.918c-17,1.577-15.007,27.932,3.08,25.911,15.951-1.783,14.047-27.5-3.08-25.911" transform="translate(-136.785 -55.915)" fill="#5d0b80"/>
          </g>
        </g>
      </g>
    </g>
  </g>
</svg>
