<svg xmlns="http://www.w3.org/2000/svg" xmlns:xlink="http://www.w3.org/1999/xlink" width="127" height="128" viewBox="0 0 127 128">
  <defs>
    <clipPath id="clip-path">
      <rect id="Rectángulo_458369" data-name="Rectángulo 458369" width="74.363" height="74" fill="#5d0b80"/>
    </clipPath>
  </defs>
  <g id="Grupo_1206954" data-name="Grupo 1206954" transform="translate(-0.116)">
    <ellipse id="Elipse_13609" data-name="Elipse 13609" cx="63.5" cy="64" rx="63.5" ry="64" transform="translate(0.116)" fill="#fff"/>
    <g id="Grupo_1099776" data-name="Grupo 1099776" transform="translate(23.859 24)">
      <g id="Grupo_1099618" data-name="Grupo 1099618" transform="translate(0.257 -0.498)">
        <rect id="Rectángulo_401104" data-name="Rectángulo 401104" width="78.706" height="80.124" transform="translate(0)" fill="none"/>
      </g>
      <g id="Grupo_1207536" data-name="Grupo 1207536" transform="translate(2.257 2.501)">
        <g id="Grupo_1207535" data-name="Grupo 1207535" clip-path="url(#clip-path)">
          <path id="Trazado_1266394" data-name="Trazado 1266394" d="M16.982,180.225c2.79.187,5.883-.248,8.636-.008,2.451.213,3.452,2.291,3.159,4.6H45.6c-.8-6.968,7.6-3.94,11.8-4.587V176.84a10.015,10.015,0,0,1,1.854-4.262c4.069-5.087,12.55-3.717,14.467,2.575.788,2.586.813,12.474.224,15.173a8.127,8.127,0,0,1-5.842,6.062v7.645H72.9v2.4H1.473v-2.4H6.279v-7.317c-3.664-1.708-5.811-4.122-6.124-8.292-.222-2.961-.325-10.858.56-13.437a8.375,8.375,0,0,1,14.413-2.411,10.014,10.014,0,0,1,1.854,4.262Zm-4.805,4.587H25.828c.5,0,1.269-2-.707-2.351-1.839-.327-9.26.342-10.107-.159-.767-.453-.334-4.008-.437-5.024-.721-7.141-11.367-7.639-12.019.645-.2,2.578-.3,10.279.436,12.467,1.895,5.625,7.6,3.539,11.913,4.032,4.727.54,2.563,5.779,3.214,8.581a1.275,1.275,0,0,0,1.155,1.013c.73-.145,1.112-.432,1.211-1.174a56.021,56.021,0,0,0-.009-8.312,6.212,6.212,0,0,0-1.525-3.281c-.876-.951-5.7-3.539-6.988-3.933-.545-.167-2.191.019-2.191-.867v-9.938h2.4Zm52.422-8.3v9.938c0,.761-1.778.724-2.192.866-1.418.486-6.028,2.9-6.987,3.934a5.714,5.714,0,0,0-1.521,3.285,55.857,55.857,0,0,0-.013,8.308,1.2,1.2,0,0,0,2.368.163c.777-2.655-1.652-8.038,3.212-8.583,4.038-.453,9.129,1.454,11.508-3.127,1.184-2.281,1.062-10.325.842-13.153-.672-8.617-11.312-8.018-12.019-.864-.1,1.014.329,4.572-.437,5.024-.822.486-8.184-.156-10.062.2-2.131.409-1.192,2.305-.752,2.305H62.2v-8.3Zm-43.576,10.7h-3.6c.523.608,1.423.819,2.075,1.311,4.352,3.283,3.551,9.386,3.4,14.318a9.94,9.94,0,0,1-.23,1.19H31.4c.28-2.616,2.375-3.965,4.587-4.915v-7.1H28.012a10.989,10.989,0,0,1-3.458-1.566c-.66-.451-3.224-3.168-3.532-3.239m28.723,0H24.626a5.983,5.983,0,0,0,3.841,2.384c5.457-.29,11.413.45,16.809.028a5.765,5.765,0,0,0,4.469-2.412m7.208,0H53.131c-.232,0-2.682,2.775-3.314,3.239a9.642,9.642,0,0,1-3.676,1.567H38.387v7.1c2.138.93,4.336,2.373,4.587,4.915h8.409c.223-.163.237-.191.238-.446.014-4.532-1.325-10.8,2.266-14.306.885-.865,2.153-1.258,3.066-2.067m-42.047,9.611c-1.751-.318-4.371.236-6.225,0v7.208h7.208c-.545-2,.046-4.2-.239-6.213-.064-.452-.244-.9-.744-.995m50.784,0H59.466a2.506,2.506,0,0,0-.655.437c-.308,2.223.126,4.542-.328,6.771h7.208Zm-25.338,7.208c-.443-3.226-5.891-3.226-6.334,0Z" transform="translate(0 -132.436)" fill="#5d0b80"/>
          <path id="Trazado_1266395" data-name="Trazado 1266395" d="M103.123,90.067l8.4-5.9a3.623,3.623,0,0,1,4.9,5.334L103.236,99.9c-.446,1.251.341,6.843-.42,7.443l-20.675-.118a1.935,1.935,0,0,1-.435-1.312,121.792,121.792,0,0,1,.014-16.607c.663-7.464,7.4-8.546,13.645-7.973a8.356,8.356,0,0,1,7.759,8.732m-19-.982v16.054h16.819v-5.9c-2.027-1.411-7.364-3.923-8.024-6.283a4.02,4.02,0,0,1,2.044-4.829c2.4-1.173,3.782.079,5.759,1.283-.008-3.288-2.618-5.438-5.778-5.687-4.4-.347-10.127-.189-10.82,5.359m29.428-3.347L102.915,93.25c-2.017.657-5.474-4.835-7.321-2.739a1.8,1.8,0,0,0,.212,2.614l6.554,4.314L114.6,87.894a1.217,1.217,0,0,0-1.052-2.157" transform="translate(-63.643 -63.466)" fill="#5d0b80"/>
          <path id="Trazado_1266396" data-name="Trazado 1266396" d="M187.734,0l31.461.118a1.682,1.682,0,0,1,.934,1.469c-.363,5.066.466,10.753.005,15.742-.084.909-.41,1.746-1.419,1.858H188.332l-1.519-.665-.119-17.376c-.018-.642.48-.971,1.04-1.144m29.987,16.772V2.684l-.328-.328H189.107V16.772Z" transform="translate(-145.914)" fill="#5d0b80"/>
          <path id="Trazado_1266397" data-name="Trazado 1266397" d="M108,.007c10.791-.319,11.456,16.257.589,16.778S96.823.337,108,.007m-.224,2.406c-7.6.6-7.051,12.132.588,11.976,7.977-.163,7.359-12.6-.588-11.976" transform="translate(-78.169 -0.002)" fill="#5d0b80"/>
          <path id="Trazado_1266398" data-name="Trazado 1266398" d="M274.468,98.588c10.29-1.608,11.463,13.129,2.328,14.121-9.513,1.034-10.666-12.818-2.328-14.121m.219,2.4c-4.785.811-4.635,9.043.815,9.351,7.112.4,6.8-10.642-.815-9.351" transform="translate(-210.145 -76.958)" fill="#5d0b80"/>
          <path id="Trazado_1266399" data-name="Trazado 1266399" d="M12.639,98.583c10.459-1.636,11.515,13.464,2.129,14.141-9.331.672-10.291-12.864-2.129-14.141m.215,2.4c-4.7.955-4.655,8.91.827,9.34,7.174.563,6.763-10.884-.827-9.34" transform="translate(-5.543 -76.953)" fill="#5d0b80"/>
          <rect id="Rectángulo_458365" data-name="Rectángulo 458365" width="14.416" height="2.403" transform="translate(54.988 6.069)" fill="#5d0b80"/>
          <rect id="Rectángulo_458366" data-name="Rectángulo 458366" width="14.198" height="2.184" transform="translate(45.595 10.875)" fill="#5d0b80"/>
          <path id="Trazado_1266400" data-name="Trazado 1266400" d="M211.144,27.781l-.1,2.2c-.288.413-1.769.125-2.308.206v-2.4Z" transform="translate(-163.145 -21.713)" fill="#5d0b80"/>
          <path id="Trazado_1266401" data-name="Trazado 1266401" d="M232.144,27.781v2.4c-.54-.081-2.021.208-2.309-.206l-.1-2.2Z" transform="translate(-179.558 -21.713)" fill="#5d0b80"/>
          <rect id="Rectángulo_458367" data-name="Rectángulo 458367" width="2.405" height="2.186" transform="translate(62.195 10.874)" fill="#5d0b80"/>
          <rect id="Rectángulo_458368" data-name="Rectángulo 458368" width="2.405" height="2.186" transform="translate(67 10.874)" fill="#5d0b80"/>
        </g>
      </g>
    </g>
  </g>
</svg>
