<svg xmlns="http://www.w3.org/2000/svg" xmlns:xlink="http://www.w3.org/1999/xlink" width="84" height="84" viewBox="0 0 84 84">
  <defs>
    <clipPath id="clip-path">
      <rect id="Rectángulo_458472" data-name="Rectángulo 458472" width="67.134" height="66.334" fill="#5d0b80"/>
    </clipPath>
  </defs>
  <g id="Grupo_1207078" data-name="Grupo 1207078" transform="translate(-289.711 -1155.941)">
    <rect id="Rectángulo_455579" data-name="Rectángulo 455579" width="84" height="84" rx="12" transform="translate(289.711 1155.941)" fill="#ffe9a1"/>
    <g id="Grupo_1207663" data-name="Grupo 1207663" transform="translate(297.711 1164.941)">
      <g id="Grupo_1207662" data-name="Grupo 1207662" clip-path="url(#clip-path)">
        <path id="Trazado_1266926" data-name="Trazado 1266926" d="M54.239,18.6c2.346-1.61,5.028-6.291,8.014-6.346,3.356-.062,6.491,4.5,3.96,7.34L54.341,31.468l-.149,16.865-.429.863L47,55.975l-.96.228-20.553-.018c-2.3,9.012-12.532,13.232-20.288,7.6-9.065-6.578-5.584-20.746,5.134-22.949L10.564.253,11.6,0,53.763.187a3.7,3.7,0,0,1,.476.909ZM52.063,2.184H12.5v38.38l4.143.586c.256-1.038.48-1.835,1.689-1.976a35.3,35.3,0,0,1,6.382.155c.766.3.964,1.192,1.038,1.929.109,1.1.14,4.983-.309,5.819-.207.386-.842.619-.866,1.094s.8,2.254.929,3.028c.157.914.014,1.9.249,2.818H45.138V48.181a3.343,3.343,0,0,1,.692-.89h5.935l.3-.3V34.036l-6.725,6.431c1.352.046,2.658.782,1.583,2.177l-.485.108c-5-.343-10.515.418-15.451,0-1.7-.145-1.653-1.656-.456-2.055,1.27-.422,5.752.179,6.312-.217l1.769-6.046H30.6c-.752,0-1.4-1.774-.156-2.134l10.044-.046,1.686-1.578H30.4a1.139,1.139,0,0,1,.408-2.164l13.6-.053,7.657-7.576Zm9.837,12.3c-.444.1-2.361,1.889-2.305,2.21l3.25,3.288c1.046-1.135,2.89-2.169,1.772-3.944-.53-.841-1.67-1.785-2.716-1.553m-4,3.724L41.269,34.829c-.132.149-.078.24,0,.393.42.816,2.571,2.258,3.177,3.163l16.63-16.616c.132-.149.078-.24,0-.393-.42-.816-2.571-2.258-3.177-3.163M39.2,40.167l2.964-.888L40.093,37.2ZM23.574,41.356a6.423,6.423,0,0,0-2.672.018c-.461.013-3.235-.475-1.757.949.557.537,1.758,1.176,2.489,1.818.564.5.956,1.181,1.544,1.668l.4-.2ZM12.826,42.815C-.833,42.9-1.167,62.917,11.608,64.1c15.12,1.4,15.705-21.383,1.217-21.289m37.457,6.652H47.315v2.77c.345.086.4-.143.595-.3a24.675,24.675,0,0,0,2.373-2.474" transform="translate(0)" fill="#5d0b80"/>
        <path id="Trazado_1266927" data-name="Trazado 1266927" d="M85.376,74.684a33.945,33.945,0,0,1,5.7-.05,2.5,2.5,0,0,1,1.374.6c.726.873.689,6.27.2,7.315a1.478,1.478,0,0,1-1.382.992,36.591,36.591,0,0,1-6.384-.154c-.666-.283-.964-1.25-1.04-1.928-.129-1.153-.171-5.445.5-6.225a2.59,2.59,0,0,1,1.028-.555m5.395,6.681V77.111l-.3-.3H86.32l-.3.3v4.253Z" transform="translate(-67.197 -59.792)" fill="#5d0b80"/>
        <path id="Trazado_1266928" data-name="Trazado 1266928" d="M85.56,135.714a30.163,30.163,0,0,1,5.475-.029,2.18,2.18,0,0,1,1.507.868c.565.9.577,6.1.14,7.074a1.675,1.675,0,0,1-1.426.948,36.665,36.665,0,0,1-6.384-.154,1.43,1.43,0,0,1-.54-.449c-.668-.888-.651-5.208-.482-6.407a2.094,2.094,0,0,1,1.71-1.851m5.2,6.68V138.14l-.3-.3H86.3l-.3.3v4.253Z" transform="translate(-67.181 -108.754)" fill="#5d0b80"/>
        <path id="Trazado_1266929" data-name="Trazado 1266929" d="M36.456,238.132a2.9,2.9,0,0,1,3.03,4.027c-2.419,2.31-4.747,5.664-7.332,7.7-1.268,1-2.493,1.35-3.946.38a37.411,37.411,0,0,1-4.642-4.854,2.8,2.8,0,0,1,3.5-3.893c1.268.463,1.872,1.667,2.982,2.317.428-.075,4.268-4.5,5.169-5.131a3.188,3.188,0,0,1,1.24-.549m1.013,2.356c-.1-.167-.859-.246-1.038,0-1.248,1.043-5.047,5.828-6.2,6.074a1.062,1.062,0,0,1-.955-.153c-.683-.4-2.443-2.812-3-2.956l-.668.261-.16.567a47.957,47.957,0,0,0,4.023,4.106c.259.155.441.282.759.159l7.076-6.984a1.263,1.263,0,0,0,.164-1.075" transform="translate(-18.667 -190.996)" fill="#5d0b80"/>
        <path id="Trazado_1266930" data-name="Trazado 1266930" d="M160.615,82.7H142.091a1.172,1.172,0,0,1,0-2.345h18.524a1.172,1.172,0,0,1,0,2.345" transform="translate(-113.04 -64.458)" fill="#5d0b80"/>
        <path id="Trazado_1266931" data-name="Trazado 1266931" d="M154.284,102.613h-12.31a1.055,1.055,0,1,1,0-2.11h12.31a1.055,1.055,0,0,1,0,2.11" transform="translate(-113.04 -80.62)" fill="#5d0b80"/>
        <path id="Trazado_1266932" data-name="Trazado 1266932" d="M164.358,229.132h-12.31a1.055,1.055,0,1,1,0-2.11h12.31a1.055,1.055,0,0,1,0,2.11" transform="translate(-121.121 -182.109)" fill="#5d0b80"/>
      </g>
    </g>
  </g>
</svg>
