<svg xmlns="http://www.w3.org/2000/svg" xmlns:xlink="http://www.w3.org/1999/xlink" width="1020" height="227" viewBox="0 0 1020 227">
  <defs>
    <clipPath id="clip-path">
      <rect id="Rectángulo_33824" data-name="Rectángulo 33824" width="1020" height="227" transform="translate(180 4246.831)" fill="#e6fffa"/>
    </clipPath>
    <clipPath id="clip-path-2">
      <rect id="Rectángulo_458253" data-name="Rectángulo 458253" width="860.063" height="295.267" fill="none"/>
    </clipPath>
    <clipPath id="clip-path-3">
      <rect id="Rectángulo_458235" data-name="Rectángulo 458235" width="860.061" height="295.267" fill="none"/>
    </clipPath>
    <clipPath id="clip-path-4">
      <path id="Trazado_1265983" data-name="Trazado 1265983" d="M2007.671,253.163V372.279a8.827,8.827,0,0,0,8.827,8.827h193.1a8.827,8.827,0,0,0,8.827-8.827V253.163Z" transform="translate(-2007.671 -253.163)" fill="none"/>
    </clipPath>
    <clipPath id="clip-path-5">
      <rect id="Rectángulo_458236" data-name="Rectángulo 458236" width="272.015" height="151.664" fill="none"/>
    </clipPath>
    <clipPath id="clip-path-6">
      <rect id="Rectángulo_458237" data-name="Rectángulo 458237" width="9.384" height="9.628" fill="none"/>
    </clipPath>
    <clipPath id="clip-path-8">
      <rect id="Rectángulo_458239" data-name="Rectángulo 458239" width="4.762" height="4.58" fill="none"/>
    </clipPath>
    <clipPath id="clip-path-10">
      <rect id="Rectángulo_458240" data-name="Rectángulo 458240" width="24.066" height="21.203" fill="none"/>
    </clipPath>
    <clipPath id="clip-path-11">
      <rect id="Rectángulo_458241" data-name="Rectángulo 458241" width="183.61" height="167.344" fill="none"/>
    </clipPath>
    <clipPath id="clip-path-12">
      <rect id="Rectángulo_458242" data-name="Rectángulo 458242" width="298.09" height="160.267" fill="none"/>
    </clipPath>
    <clipPath id="clip-path-13">
      <rect id="Rectángulo_458245" data-name="Rectángulo 458245" width="11.238" height="11.238" fill="none"/>
    </clipPath>
    <clipPath id="clip-path-14">
      <rect id="Rectángulo_458246" data-name="Rectángulo 458246" width="4.404" height="9.86" fill="none"/>
    </clipPath>
    <clipPath id="clip-path-15">
      <rect id="Rectángulo_458249" data-name="Rectángulo 458249" width="26.731" height="14.258" fill="none"/>
    </clipPath>
  </defs>
  <g id="Enmascarar_grupo_54" data-name="Enmascarar grupo 54" transform="translate(-180 -4246.831)" clip-path="url(#clip-path)">
    <g id="Trazado_1265056" data-name="Trazado 1265056" transform="translate(160 4240.831)" fill="#fbf1ff">
      <path d="M 1063.5 242.5 L 0.5 242.5 L 0.5 0.5 L 1063.5 0.5 L 1063.5 242.5 Z" stroke="none"/>
      <path d="M 1 1 L 1 242 L 1063 242 L 1063 1 L 1 1 M 0 0 L 1064 0 L 1064 243 L 0 243 L 0 0 Z" stroke="none" fill="#707070"/>
    </g>
    <g id="Grupo_1207419" data-name="Grupo 1207419" transform="translate(245.289 4219.564)">
      <g id="Grupo_1207418" data-name="Grupo 1207418" clip-path="url(#clip-path-2)">
        <path id="Trazado_1265959" data-name="Trazado 1265959" d="M1.247,307.418H155v117.8H1.247ZM0,426.463H156.246V306.171H0Z" transform="translate(0 -210.749)" fill="#e3a4fe"/>
        <rect id="Rectángulo_458233" data-name="Rectángulo 458233" width="154.999" height="119.046" transform="translate(24.31 76.098)" fill="#e3a4fe"/>
        <path id="Trazado_1265960" data-name="Trazado 1265960" d="M262.851,413l-105.575-.722V347.008h1.434v63.848l104.151.712Z" transform="translate(-108.259 -238.859)" fill="#fff"/>
        <rect id="Rectángulo_458234" data-name="Rectángulo 458234" width="65.933" height="3.743" transform="translate(69.409 93.497)" fill="#fff"/>
        <path id="Trazado_1265961" data-name="Trazado 1265961" d="M258.63,409.962l-41.687-29.7-15.451,16.555-1.06-13.26-9.4,9.4L186.328,362.6l-14.6,18.775L166.9,365.29l-7.6,6.65-.945-1.079,9.278-8.12L172.3,378.3l14.937-19.2,4.785,30.839,9.594-9.593,1.049,13.114,14.089-15.094,42.71,30.43Z" transform="translate(-109.001 -247.181)" fill="#fff"/>
        <g id="Grupo_1207383" data-name="Grupo 1207383">
          <g id="Grupo_1207382" data-name="Grupo 1207382" clip-path="url(#clip-path-3)">
            <path id="Trazado_1265962" data-name="Trazado 1265962" d="M978.109,180.326h0c0,4.507-3.149,8.16-7.033,8.16h-.354c-3.885,0-7.034-3.653-7.034-8.16V163.809c0-4.507-3.149-8.16-7.033-8.16H956.3c-3.885,0-7.033,3.653-7.033,8.16v69.248c0,4.507,3.149,8.16,7.033,8.16h29.2c3.885,0,7.034-3.654,7.034-8.16V180.326c0-4.507-3.149-8.16-7.034-8.16h-.354c-3.884,0-7.033,3.654-7.033,8.16" transform="translate(-653.418 -107.139)" fill="#5d0b80"/>
            <path id="Trazado_1265963" data-name="Trazado 1265963" d="M979.386,322.366A32.506,32.506,0,1,1,946.88,289.86a32.506,32.506,0,0,1,32.506,32.506" transform="translate(-629.399 -199.522)" fill="#5d0b80"/>
            <path id="Trazado_1265964" data-name="Trazado 1265964" d="M733.529,72.708h0c0,2.865-2,5.187-4.471,5.187h-.225c-2.469,0-4.471-2.322-4.471-5.187v-10.5c0-2.865-2-5.187-4.471-5.187h-.225c-2.469,0-4.471,2.322-4.471,5.187v44.019c0,2.865,2,5.187,4.471,5.187h18.558c2.469,0,4.471-2.322,4.471-5.187V72.708c0-2.865-2-5.187-4.471-5.187H738c-2.469,0-4.471,2.323-4.471,5.187" transform="translate(-489.297 -23.25)" fill="#5d0b80"/>
            <path id="Trazado_1265965" data-name="Trazado 1265965" d="M734.34,163a20.663,20.663,0,1,1-20.663-20.663A20.663,20.663,0,0,1,734.34,163" transform="translate(-474.029 -81.975)" fill="#5d0b80"/>
            <path id="Trazado_1265966" data-name="Trazado 1265966" d="M1348.379.335c-.6,1.258-1.248,2.49-1.9,3.716s-1.33,2.441-2.011,3.652l-.558-1.147c1.273.134,2.547.259,3.818.417s2.542.3,3.81.478l1.076.147-.424.988c-.358.833-.739,1.656-1.114,2.482s-.767,1.645-1.152,2.466c-.789,1.635-1.593,3.263-2.473,4.859l-.6-.257c.549-1.738,1.174-3.443,1.813-5.142.329-.846.646-1.7.991-2.535s.673-1.685,1.029-2.519l.651,1.135q-1.908-.216-3.81-.474c-1.27-.16-2.536-.352-3.8-.536l-1.182-.171.624-.975c.748-1.17,1.5-2.338,2.276-3.492s1.558-2.3,2.384-3.428Z" transform="translate(-907.826 29.753)" fill="#ffa121"/>
            <path id="Trazado_1265967" data-name="Trazado 1265967" d="M1484.618,44.428c-1.5,1.26-3.035,2.463-4.582,3.653s-3.112,2.352-4.683,3.508L1475.3,49.8c1.551.907,3.108,1.8,4.641,2.741q2.315,1.379,4.6,2.815l1.291.81-1.115,1.018c-.939.859-1.9,1.691-2.86,2.531s-1.932,1.66-2.9,2.487c-1.955,1.634-3.925,3.253-5.973,4.785l-.618-.675c1.707-1.905,3.492-3.725,5.293-5.528.909-.891,1.808-1.8,2.733-2.669s1.835-1.766,2.773-2.626l.176,1.828q-2.315-1.38-4.6-2.81c-1.531-.939-3.04-1.916-4.554-2.884l-1.412-.9,1.362-.887c1.634-1.064,3.271-2.123,4.93-3.15s3.325-2.046,5.031-3.005Z" transform="translate(-1013.486 -9.905)" fill="#ffa121"/>
            <path id="Trazado_1265968" data-name="Trazado 1265968" d="M706.206,639.884a9.142,9.142,0,1,1-9.142-9.142,9.142,9.142,0,0,1,9.142,9.142" transform="translate(-473.524 -434.164)" fill="#ebebff"/>
            <path id="Trazado_1265969" data-name="Trazado 1265969" d="M2056.685,743.94a9.766,9.766,0,1,1,9.765-9.766,9.778,9.778,0,0,1-9.765,9.766m0-18.284a8.519,8.519,0,1,0,8.519,8.518,8.529,8.529,0,0,0-8.519-8.518" transform="translate(-1408.974 -498.639)" fill="#9192ff"/>
            <path id="Trazado_1265970" data-name="Trazado 1265970" d="M692.405,353.649A10.908,10.908,0,1,1,681.5,342.741a10.908,10.908,0,0,1,10.908,10.908" transform="translate(-461.593 -235.922)" fill="#ebebff"/>
            <path id="Trazado_1265971" data-name="Trazado 1265971" d="M642.351,324.028a13.651,13.651,0,0,1-3.747-1.1l.519-1.134a12.386,12.386,0,0,0,3.4,1Zm3.9,0-.175-1.234a12.349,12.349,0,0,0,3.4-1l.519,1.134a13.591,13.591,0,0,1-3.747,1.1m7.028-3.209-.817-.942a12.505,12.505,0,0,0,2.327-2.682l1.048.674a13.755,13.755,0,0,1-2.558,2.95m-17.961,0a13.8,13.8,0,0,1-2.557-2.95l1.048-.674a12.524,12.524,0,0,0,2.326,2.682Zm22.143-6.5-1.2-.351a12.472,12.472,0,0,0,.5-3.513h1.247a13.745,13.745,0,0,1-.552,3.863m-26.323,0a13.741,13.741,0,0,1-.551-3.863h1.247a12.481,12.481,0,0,0,.5,3.512Zm25.126-7.375a12.4,12.4,0,0,0-1.474-3.227l1.048-.674a13.657,13.657,0,0,1,1.623,3.55Zm-23.929,0-1.2-.351a13.661,13.661,0,0,1,1.624-3.55l1.048.674a12.4,12.4,0,0,0-1.475,3.227m20.128-5.908a12.454,12.454,0,0,0-2.984-1.921l.519-1.134a13.722,13.722,0,0,1,3.282,2.113Zm-16.327,0-.817-.942a13.716,13.716,0,0,1,3.283-2.112l.519,1.133a12.482,12.482,0,0,0-2.985,1.921m9.939-2.919a8.41,8.41,0,0,0-1.788-.125,12.548,12.548,0,0,0-1.763.125l-.175-1.234a12.839,12.839,0,0,1,1.95-.137,13.928,13.928,0,0,1,1.951.137Z" transform="translate(-434.059 -204.257)" fill="#9192ff"/>
            <path id="Trazado_1265972" data-name="Trazado 1265972" d="M1727.4,265.826l-.056-.765a27.173,27.173,0,0,0,4.477-.7l.181.746a28.171,28.171,0,0,1-4.6.718m-4.658-.05a28.015,28.015,0,0,1-4.588-.816l.2-.741a27.257,27.257,0,0,0,4.462.793Zm13.681-2.145-.3-.7a27.191,27.191,0,0,0,4-2.13l.415.644a27.844,27.844,0,0,1-4.11,2.189m-22.657-.241a28,28,0,0,1-4.066-2.279l.43-.635a27.3,27.3,0,0,0,3.953,2.215Zm30.459-4.789-.517-.568a27.548,27.548,0,0,0,3.088-3.319l.6.475a28.329,28.329,0,0,1-3.174,3.412m-38.156-.41a28.365,28.365,0,0,1-3.1-3.478l.613-.462a27.521,27.521,0,0,0,3.016,3.383Zm43.9-6.89-.672-.368a27.133,27.133,0,0,0,1.835-4.145l.725.25a27.841,27.841,0,0,1-1.887,4.264m-49.48-.529a27.851,27.851,0,0,1-1.795-4.3l.729-.235a27.178,27.178,0,0,0,1.745,4.183ZM1753,242.522l-.757-.126a27.562,27.562,0,0,0,.372-4.516h.767a28.376,28.376,0,0,1-.383,4.642m-55.361-.588a28.314,28.314,0,0,1-.291-4.053c0-.2,0-.4.006-.6l.767.015q-.005.29-.006.581a27.39,27.39,0,0,0,.283,3.943Zm54.771-7.422a27.12,27.12,0,0,0-.928-4.436l.736-.219a28,28,0,0,1,.954,4.56Zm-53.821-1.719-.754-.142a27.833,27.833,0,0,1,1.245-4.49l.719.266a27.028,27.028,0,0,0-1.21,4.366m51.239-6.935a27.4,27.4,0,0,0-2.332-3.883l.622-.448a27.962,27.962,0,0,1,2.4,3.992Zm-48.1-1.536-.665-.382a28.134,28.134,0,0,1,2.649-3.833l.593.487a27.351,27.351,0,0,0-2.577,3.729m42.828-5.793a27.335,27.335,0,0,0-3.472-2.914l.443-.626a28.222,28.222,0,0,1,3.569,3Zm-37.094-1.188-.505-.578A28.244,28.244,0,0,1,1710.7,214l.4.653a27.377,27.377,0,0,0-3.649,2.687m29.718-4.026a27.075,27.075,0,0,0-4.235-1.619l.213-.737a27.749,27.749,0,0,1,4.355,1.665Zm-22.027-.7-.288-.712a27.935,27.935,0,0,1,4.45-1.38l.165.749a27.2,27.2,0,0,0-4.327,1.342m13.349-1.8a27.877,27.877,0,0,0-4.53-.143l-.039-.765a28.31,28.31,0,0,1,4.656.146Z" transform="translate(-1168.352 -144.457)" fill="#9192ff"/>
            <path id="Trazado_1265973" data-name="Trazado 1265973" d="M1744,196.891a27.634,27.634,0,1,1-27.634-27.634A27.634,27.634,0,0,1,1744,196.891" transform="translate(-1162.423 -116.506)" fill="#e3a4fe"/>
            <path id="Trazado_1265974" data-name="Trazado 1265974" d="M1766.14,218.788l-8.855,5.482-8.532-14.291-.807.482,9.022,15.112,9.667-5.984Z" transform="translate(-1203.179 -144.537)" fill="#1b1b43"/>
          </g>
        </g>
        <g id="Grupo_1207397" data-name="Grupo 1207397" transform="translate(625.713 78.901)">
          <g id="Grupo_1207396" data-name="Grupo 1207396" clip-path="url(#clip-path-4)">
            <path id="Trazado_1265975" data-name="Trazado 1265975" d="M2007.67,372.279a8.827,8.827,0,0,0,8.827,8.827h193.1a8.827,8.827,0,0,0,8.827-8.827V253.164H2007.67Z" transform="translate(-2007.67 -253.164)" fill="#fff"/>
            <g id="Grupo_1207386" data-name="Grupo 1207386" transform="translate(-39.304 31.62)" opacity="0.6">
              <g id="Grupo_1207385" data-name="Grupo 1207385">
                <g id="Grupo_1207384" data-name="Grupo 1207384" clip-path="url(#clip-path-5)">
                  <path id="Trazado_1265976" data-name="Trazado 1265976" d="M1897.2,360.408a40.466,40.466,0,0,1,59.422,22.047,34.188,34.188,0,0,1,36.841,37.107,27.784,27.784,0,0,1,42.96,2,77.871,77.871,0,0,1,114.235,8.909l2.919,75.809L1956.4,497.77,1881.559,465.5Z" transform="translate(-1881.559 -354.621)" fill="#bce6ff"/>
                </g>
              </g>
            </g>
            <path id="Trazado_1265977" data-name="Trazado 1265977" d="M1939.039,481.634c8.92-5.635,19.431-9.785,29.865-8.222s20.256,10.361,20.056,20.91c9.125.654,16.985,9.148,16.93,18.3a16.462,16.462,0,0,1,24.777,11.679c16.842-8.537,35.9-14.294,54.548-11.315s36.453,16.393,40.175,34.9l-28.949,18.875-127.268-17.477-35.85-15.236Z" transform="translate(-1956.494 -404.54)" fill="#fff"/>
            <path id="Trazado_1265978" data-name="Trazado 1265978" d="M2300.985,357.182c-3.433-4.844-1.761-12.493,3.381-15.463s12.6-.595,15.083,4.8c6.69-1.284,14.323.3,18.663,5.548s3.773,14.41-2.111,17.844c3.71,2.513,3.945,8.306,1.423,12.01s-6.97,5.623-11.349,6.577c-4.084.89-8.5,1.072-12.31-.641s-6.812-5.7-6.367-9.853c-5.355,4.1-14.355,1.619-16.855-4.645s3.687-15.385,10.393-16.1Z" transform="translate(-2201.993 -313.23)" fill="#fff2e0"/>
            <path id="Trazado_1265979" data-name="Trazado 1265979" d="M2212.469,336.54a4.91,4.91,0,1,0-8.468-4.89c-3.068-.589-6.569.136-8.559,2.544s-1.73,6.609.968,8.184c-1.7,1.152-1.809,3.809-.653,5.508a8.228,8.228,0,0,0,5.2,3.016,9.109,9.109,0,0,0,5.646-.294,4.711,4.711,0,0,0,2.92-4.518,5.272,5.272,0,0,0,7.73-2.13c1.146-2.873-1.691-7.056-4.767-7.384Z" transform="translate(-2136.023 -305.265)" fill="#fff2e0"/>
            <g id="Grupo_1207389" data-name="Grupo 1207389" transform="translate(161.692 32.888)" opacity="0.6">
              <g id="Grupo_1207388" data-name="Grupo 1207388">
                <g id="Grupo_1207387" data-name="Grupo 1207387" clip-path="url(#clip-path-6)">
                  <path id="Trazado_1265980" data-name="Trazado 1265980" d="M2535.741,365.541a3.615,3.615,0,0,1-1.774,2.294c-2.32,1.342-5.457-.352-6.78-2.364a4.413,4.413,0,0,1,.425-5.365c4.031-4.083,9.1,1.552,8.129,5.434" transform="translate(-2526.478 -358.687)" fill="#d1d1ff"/>
                </g>
              </g>
            </g>
            <g id="Grupo_1207392" data-name="Grupo 1207392" transform="translate(30.62 14.042)" opacity="0.6">
              <g id="Grupo_1207391" data-name="Grupo 1207391">
                <g id="Grupo_1207390" data-name="Grupo 1207390" clip-path="url(#clip-path-6)">
                  <path id="Trazado_1265981" data-name="Trazado 1265981" d="M2115.18,305.074a3.616,3.616,0,0,1-1.774,2.294c-2.321,1.342-5.457-.352-6.781-2.364a4.413,4.413,0,0,1,.425-5.365c4.031-4.083,9.1,1.552,8.129,5.434" transform="translate(-2105.917 -298.22)" fill="#d1d1ff"/>
                </g>
              </g>
            </g>
            <g id="Grupo_1207395" data-name="Grupo 1207395" transform="translate(75.615 66.981)" opacity="0.6">
              <g id="Grupo_1207394" data-name="Grupo 1207394">
                <g id="Grupo_1207393" data-name="Grupo 1207393" clip-path="url(#clip-path-8)">
                  <path id="Trazado_1265982" data-name="Trazado 1265982" d="M2250.354,471.339a1.739,1.739,0,0,0,.9,1.091c1.177.638,2.768-.168,3.439-1.124a2,2,0,0,0-.216-2.552c-2.045-1.942-4.617.738-4.124,2.585" transform="translate(-2250.292 -468.079)" fill="#d1d1ff"/>
                </g>
              </g>
            </g>
          </g>
        </g>
        <g id="Grupo_1207417" data-name="Grupo 1207417">
          <g id="Grupo_1207416" data-name="Grupo 1207416" clip-path="url(#clip-path-3)">
            <path id="Trazado_1265984" data-name="Trazado 1265984" d="M2208.22,380.352h-193.1a9.461,9.461,0,0,1-9.45-9.451V251.163h212V370.9a9.461,9.461,0,0,1-9.45,9.451m-201.3-127.942V370.9a8.213,8.213,0,0,0,8.2,8.2h193.1a8.213,8.213,0,0,0,8.2-8.2V252.41Z" transform="translate(-1380.583 -172.885)" fill="#9192ff"/>
            <path id="Trazado_1265985" data-name="Trazado 1265985" d="M2209.6,122.317H2016.5a8.827,8.827,0,0,0-8.827,8.827V163.1h210.752V131.144a8.827,8.827,0,0,0-8.827-8.827" transform="translate(-1381.958 -84.196)" fill="#fff"/>
            <path id="Trazado_1265986" data-name="Trazado 1265986" d="M2217.67,162.343h-212V129.767a9.46,9.46,0,0,1,9.45-9.45h193.1a9.461,9.461,0,0,1,9.45,9.45ZM2006.919,161.1h209.5V129.767a8.213,8.213,0,0,0-8.2-8.2h-193.1a8.213,8.213,0,0,0-8.2,8.2Z" transform="translate(-1380.583 -82.819)" fill="#9192ff"/>
            <path id="Trazado_1265987" data-name="Trazado 1265987" d="M2078.272,176.967a8.914,8.914,0,1,1,8.914-8.914,8.923,8.923,0,0,1-8.914,8.914m0-16.581a7.667,7.667,0,1,0,7.667,7.667,7.675,7.675,0,0,0-7.667-7.667" transform="translate(-1424.421 -109.542)" fill="#9192ff"/>
            <path id="Trazado_1265988" data-name="Trazado 1265988" d="M2517.375,176.439h-42.3a4.256,4.256,0,0,1-4.251-4.251v-10.2a4.256,4.256,0,0,1,4.251-4.251h42.3a4.255,4.255,0,0,1,4.25,4.251v10.2a4.255,4.255,0,0,1-4.25,4.251m-42.3-17.453a3.008,3.008,0,0,0-3,3v10.2a3.008,3.008,0,0,0,3,3h42.3a3.007,3.007,0,0,0,3-3v-10.2a3.007,3.007,0,0,0-3-3Z" transform="translate(-1700.765 -108.578)" fill="#9192ff"/>
            <path id="Trazado_1265989" data-name="Trazado 1265989" d="M2391.266,424.506c-13.839-14.636-25.8-18.039-37.159-17.872,5.327,2.393,10.16,4.988,12.638,8.54-4.216-1.591-20.18-5.12-23.569-4.441,8.492,3.286,16.253,6.789,21.861,10.931l-25.618,1.708c14.494,3.481,26.99,9.509,35.865,20.153Z" transform="translate(-1610.313 -279.898)" fill="#ffa121"/>
            <g id="Grupo_1207400" data-name="Grupo 1207400" transform="translate(754.307 140.1)" opacity="0.6">
              <g id="Grupo_1207399" data-name="Grupo 1207399">
                <g id="Grupo_1207398" data-name="Grupo 1207398" clip-path="url(#clip-path-10)">
                  <path id="Trazado_1265990" data-name="Trazado 1265990" d="M2444.345,462.541c-4.808-8.966-10-11.942-15.326-13.015,2.216,1.779,4.179,3.611,4.935,5.7-1.788-1.251-8.841-4.7-10.5-4.7a44.739,44.739,0,0,1,8.97,7.872l-12.149-1.731c6.371,3.275,11.523,7.661,14.465,14.061Z" transform="translate(-2420.278 -449.526)" fill="#fff"/>
                </g>
              </g>
            </g>
            <path id="Trazado_1265991" data-name="Trazado 1265991" d="M2471.207,628.179c5.564,6.876,32-1.19,45.064,3.058L2489,606.146Z" transform="translate(-1701.028 -417.234)" fill="#37dbc5"/>
            <path id="Trazado_1265992" data-name="Trazado 1265992" d="M2478.479,590.782l-10.353,17.105a8.158,8.158,0,0,0-.807,6.66l.956,3.056,17.792-22.033Z" transform="translate(-1698.095 -406.658)" fill="#056154"/>
            <path id="Trazado_1265993" data-name="Trazado 1265993" d="M2624.657,441.607c7.817,4.14,4.979,31.636,11.656,43.638L2606.452,463.3Z" transform="translate(-1794.123 -303.975)" fill="#37dbc5"/>
            <path id="Trazado_1265994" data-name="Trazado 1265994" d="M2586.7,455.889l14.8-13.446a8.158,8.158,0,0,1,6.381-2.071l3.182.351-18.205,21.693Z" transform="translate(-1780.525 -303.092)" fill="#056154"/>
            <path id="Trazado_1265995" data-name="Trazado 1265995" d="M2717.389,676.588l-6.472-18.164-12.643,15.655Z" transform="translate(-1857.328 -453.219)" fill="#1b1b43"/>
            <path id="Trazado_1265996" data-name="Trazado 1265996" d="M2544.21,546.75c-27.591,2.955-54.673-18.276-69.756-50.071l18.764-23.235c32.617,5.736,58.98,27.562,63.635,57.651Z" transform="translate(-1703.263 -325.89)" fill="#96fef0"/>
            <path id="Trazado_1265997" data-name="Trazado 1265997" d="M2460.961,440.628l6.938,10.227-18.764,23.235-11.464-4.622Z" transform="translate(-1677.944 -303.302)" fill="#37dbc5"/>
            <path id="Trazado_1265998" data-name="Trazado 1265998" d="M2479.978,489.146h0a2.913,2.913,0,0,1-4.106.327l-18.757-15.989a2.913,2.913,0,0,1,3.779-4.433l18.757,15.989a2.913,2.913,0,0,1,.327,4.106" transform="translate(-1690.624 -322.387)" fill="#056154"/>
            <path id="Trazado_1265999" data-name="Trazado 1265999" d="M2645.693,611.624a10.737,10.737,0,1,1-10.737-10.737,10.737,10.737,0,0,1,10.737,10.737" transform="translate(-1806.353 -413.614)" fill="#fff"/>
            <path id="Trazado_1266000" data-name="Trazado 1266000" d="M2652.022,623.189a5.5,5.5,0,1,1-5.5-5.5,5.5,5.5,0,0,1,5.5,5.5" transform="translate(-1817.919 -425.18)" fill="#1b1b43"/>
            <g id="Grupo_1207403" data-name="Grupo 1207403" transform="translate(300.097 127.14)" opacity="0.6">
              <g id="Grupo_1207402" data-name="Grupo 1207402">
                <g id="Grupo_1207401" data-name="Grupo 1207401" clip-path="url(#clip-path-11)">
                  <path id="Trazado_1266001" data-name="Trazado 1266001" d="M980.692,574.623c-12.018-20.43-18.2-44.291-16.688-68.011a105.4,105.4,0,0,1,22.781-58.856c12.528-15.743,29.467-28.126,48.645-34.408a94.112,94.112,0,0,1,58.711.431c21.388,7.072,40.339,21.492,51.53,41.189a.447.447,0,0,0,.771-.451c-20.078-35.34-64.533-53.485-103.805-44.134-40.686,9.688-72.476,46.015-78.559,87.089-3.96,26.74,2.194,54.4,15.843,77.6a.447.447,0,0,0,.771-.451" transform="translate(-962.895 -407.945)" fill="#9192ff"/>
                </g>
              </g>
            </g>
            <g id="Grupo_1207406" data-name="Grupo 1207406" transform="translate(283.014 134.553)" opacity="0.3">
              <g id="Grupo_1207405" data-name="Grupo 1207405">
                <g id="Grupo_1207404" data-name="Grupo 1207404" clip-path="url(#clip-path-12)">
                  <path id="Trazado_1266002" data-name="Trazado 1266002" d="M1193.848,569.253c17.678-37.337,18.348-83.111-11.267-113.1a83.451,83.451,0,0,0-55.464-24.347c-29.937-1.253-57.037,13.184-83.46,26.181-28.139,13.842-52.05,21.45-83.082,20.783-13.034-.28-27.1.831-37.559,8.99-26.38,20.576-12.389,56.228.72,78.88A171.06,171.06,0,0,0,941.693,592h238.052c7.076-10.592,13-20.4,14.1-22.744" transform="translate(-908.083 -431.73)" fill="#ebebff"/>
                </g>
              </g>
            </g>
            <path id="Trazado_1266003" data-name="Trazado 1266003" d="M1205.619,748.088a143.957,143.957,0,0,0-12.95,61.627l107.55-.055-4.392-57.253Z" transform="translate(-820.956 -514.938)" fill="#3335cf"/>
            <rect id="Rectángulo_458243" data-name="Rectángulo 458243" width="25.072" height="1.34" transform="translate(429.094 262.575) rotate(-85.891)" fill="#1b1b43"/>
            <path id="Trazado_1266004" data-name="Trazado 1266004" d="M1248.023,148.641a11.91,11.91,0,0,0-.013-9.223,10.673,10.673,0,0,0-2.841-3.667,12.024,12.024,0,0,0-4.113-2.188,12.159,12.159,0,0,0-9.125.7,14.058,14.058,0,0,0-6.249,6.917l-.323-.132a16.047,16.047,0,0,1,2.406-4.289,12.352,12.352,0,0,1,13.555-4.043,11.74,11.74,0,0,1,7.378,6.392,10.79,10.79,0,0,1,.851,4.894,14.461,14.461,0,0,1-1.2,4.771Z" transform="translate(-843.462 -90.948)" fill="#1b1b43"/>
            <path id="Trazado_1266005" data-name="Trazado 1266005" d="M1325.256,176.693c.258,7.373-3.792,14.277-9.278,19.081a35.662,35.662,0,0,1-21.182,8.686c-7.87.469-13.74,7.685-21.523,8.655-8.39,1.046-13.125-7.643-14.772-14.59a37.084,37.084,0,0,1,20.952-42.073,35.989,35.989,0,0,1,29.066.205c7.337,3.251,14.925,8.885,16.448,17.341a18.935,18.935,0,0,1,.289,2.7" transform="translate(-865.614 -105.652)" fill="#1b1b43"/>
            <path id="Trazado_1266006" data-name="Trazado 1266006" d="M1240.35,153.452a13.9,13.9,0,1,1-13.9-14.039,13.969,13.969,0,0,1,13.9,14.039" transform="translate(-834.65 -95.963)" fill="#1b1b43"/>
            <rect id="Rectángulo_458244" data-name="Rectángulo 458244" width="28.268" height="39.459" transform="translate(411.755 93.007)" fill="#ffbc96"/>
            <path id="Trazado_1266007" data-name="Trazado 1266007" d="M1359.946,314.014v26.464c-13.549-3.456-20.131-12.066-23.507-23.07Z" transform="translate(-919.923 -216.148)" fill="#1b1b43"/>
            <path id="Trazado_1266008" data-name="Trazado 1266008" d="M1360.5,203.395s-.009,3.314-.3,8.163c-.188,2.947-.474,6.457-.938,10.137-.223,1.742-.482,3.519-.786,5.3a75.849,75.849,0,0,1-2.3,9.86c-1.822,5.77-4.4,10.423-8.065,11.959a11.838,11.838,0,0,1-1.875.6c-5.028,1.17-12.808-.054-20.087-5.761a35.667,35.667,0,0,1-4.849-4.6c-1.742-1.983-1.134-3.876-2.661-6.538-.143-.232.134-1.331,0-1.563l-2.117-3.715.929-6.922.447-3.331,2.161-16.121L1340.377,195Z" transform="translate(-906.213 -134.225)" fill="#ffbc96"/>
            <path id="Trazado_1266009" data-name="Trazado 1266009" d="M1302.393,206.885c7.927-2.836,10.517-3.568,14.536-14.062,19.947,6.55,32.079,5.731,34.088,2.382l-1.15-10.787-19.146-10.745-21.491,7.229-9.573,12.5Z" transform="translate(-894.605 -119.546)" fill="#1b1b43"/>
            <path id="Trazado_1266010" data-name="Trazado 1266010" d="M1307.712,268.369c2.494,4.014,2.033,8.809-1.028,10.712s-7.565.191-10.059-3.823-2.033-8.809,1.029-10.712,7.565-.191,10.059,3.823" transform="translate(-891.411 -181.563)" fill="#ffbc96"/>
            <path id="Trazado_1266011" data-name="Trazado 1266011" d="M1275.043,179.238a36.788,36.788,0,0,0-3.839,3.191,29.964,29.964,0,0,0-3.142,3.527,27.33,27.33,0,0,0-2.512,3.976,31.513,31.513,0,0,0-1.895,4.6,9.761,9.761,0,0,1-.085-5.323,13.4,13.4,0,0,1,2.356-4.872,13.982,13.982,0,0,1,4.023-3.593,10.227,10.227,0,0,1,5.093-1.508" transform="translate(-869.54 -123.376)" fill="#ffa121"/>
            <path id="Trazado_1266012" data-name="Trazado 1266012" d="M1305.83,275.3a5.007,5.007,0,0,1,2.272.741,7.077,7.077,0,0,1,1.822,1.557,6.282,6.282,0,0,1,1.187,2.107,3.736,3.736,0,0,1,.019,2.429l-.411-.083a4.849,4.849,0,0,0-.488-2.011,8.421,8.421,0,0,0-1.127-1.76,9.648,9.648,0,0,0-1.516-1.482,7.605,7.605,0,0,0-1.84-1.087Z" transform="translate(-898.797 -189.498)" fill="#1b1b43"/>
            <path id="Trazado_1266013" data-name="Trazado 1266013" d="M1396.125,280.065a1.829,1.829,0,1,1-1.763-2.317,2.1,2.1,0,0,1,1.763,2.317" transform="translate(-958.581 -191.185)" fill="#1b1b43"/>
            <path id="Trazado_1266014" data-name="Trazado 1266014" d="M1436.528,284.3a1.6,1.6,0,1,1-1.545-2.031,1.839,1.839,0,0,1,1.545,2.031" transform="translate(-986.691 -194.296)" fill="#1b1b43"/>
            <path id="Trazado_1266015" data-name="Trazado 1266015" d="M1422.226,297.09a1.03,1.03,0,0,0,.324.683,2.1,2.1,0,0,0,.677.455,3.868,3.868,0,0,1,1.736,1.155,1.741,1.741,0,0,1,.284,1.205,2.082,2.082,0,0,1-.477,1.067,2.663,2.663,0,0,1-1.9.857l-.077-.341a3.008,3.008,0,0,0,1.357-.994,1.191,1.191,0,0,0,.08-1.295,4.611,4.611,0,0,0-1.374-1,2.575,2.575,0,0,1-.789-.749,1.358,1.358,0,0,1-.183-1.105Z" transform="translate(-978.701 -204.457)" fill="#d28572"/>
            <path id="Trazado_1266016" data-name="Trazado 1266016" d="M1398.186,325.165a11.175,11.175,0,0,1,4.277.092,10.087,10.087,0,0,1,2.07.64,5.308,5.308,0,0,1,1.837,1.242l-.3.428a34.463,34.463,0,0,0-3.878-1c-1.32-.288-2.654-.537-4.009-.874Z" transform="translate(-962.423 -223.709)" fill="#1b1b43"/>
            <path id="Trazado_1266017" data-name="Trazado 1266017" d="M1386.754,263.916c.071.752-2.484.586-4.884.977-2.6.424-4.466.7-4.466-.056s1.984-1.817,4.577-2.289c3.07-.558,4.633-.112,4.773,1.368" transform="translate(-948.121 -180.563)" fill="#1b1b43"/>
            <path id="Trazado_1266018" data-name="Trazado 1266018" d="M1430.492,266.309c-.172.735,1.8.879,3.561,1.555,1.912.732,3.287,1.23,3.405.484s-1.224-2.035-3.123-2.813c-2.247-.922-3.506-.67-3.844.774" transform="translate(-984.656 -182.405)" fill="#1b1b43"/>
            <g id="Grupo_1207409" data-name="Grupo 1207409" transform="translate(420.315 89.056)" opacity="0.2">
              <g id="Grupo_1207408" data-name="Grupo 1207408">
                <g id="Grupo_1207407" data-name="Grupo 1207407" clip-path="url(#clip-path-13)">
                  <path id="Trazado_1266019" data-name="Trazado 1266019" d="M1359.866,291.367a5.619,5.619,0,1,1-5.619-5.619,5.619,5.619,0,0,1,5.619,5.619" transform="translate(-1348.628 -285.748)" fill="#fe5b52"/>
                </g>
              </g>
            </g>
            <g id="Grupo_1207412" data-name="Grupo 1207412" transform="translate(447.857 92.766)" opacity="0.2">
              <g id="Grupo_1207411" data-name="Grupo 1207411">
                <g id="Grupo_1207410" data-name="Grupo 1207410" clip-path="url(#clip-path-14)">
                  <path id="Trazado_1266020" data-name="Trazado 1266020" d="M1441.4,297.65a75.849,75.849,0,0,1-2.3,9.86,5.609,5.609,0,0,1,2.3-9.86" transform="translate(-1436.998 -297.65)" fill="#fe5b52"/>
                </g>
              </g>
            </g>
            <path id="Trazado_1266021" data-name="Trazado 1266021" d="M960.78,502.977c-12.281-4.763-32.6-21.956-33.493-24.636-1.235-3.705,5.805-1.116,11.387,2.9Z" transform="translate(-638.19 -328.031)" fill="#d28572"/>
            <path id="Trazado_1266022" data-name="Trazado 1266022" d="M1285.73,460.689l-8.1,14.63L1261.759,504a9.3,9.3,0,0,1-8.136,4.8h-84.393a9.3,9.3,0,0,1-9.3-9.592l1.1-35.243-27.553-17.283,9.6-24a41.443,41.443,0,0,1,29.563-25.088l8.047-.741,28.848-2.68,20.819,2.688,14.353,1.849a38.217,38.217,0,0,1,29.75,26.16l5.5,17.5Z" transform="translate(-780.217 -271.321)" fill="#fbce73"/>
            <path id="Trazado_1266023" data-name="Trazado 1266023" d="M1033.65,553.771a40.548,40.548,0,0,1-6.833,10.039c-5.582,5.868-14.326,10.369-25.169.527a18.913,18.913,0,0,1-1.563-1.6c-9.038-10.289-11.861-33.118-20.319-55.116-9.94-3.8-29.464-20.239-24.132-24.2a.6.6,0,0,1,.643-.036c2.25,1.152,15.7,7.842,24.677,7.574,9.824-.3,19.354-2.09,27.1,13.094s25.6,49.721,25.6,49.721" transform="translate(-657.177 -332.678)" fill="#ffbc96"/>
            <path id="Trazado_1266024" data-name="Trazado 1266024" d="M1133.473,562.644l4.759,39.189,14.29,13.546c9.527-12.653,8.485-25.6,8.506-35.454Z" transform="translate(-780.214 -387.29)" fill="#ffbc96"/>
            <path id="Trazado_1266025" data-name="Trazado 1266025" d="M1561.224,567.131l-8.1,14.63-17.675,3.76-1.742-22.99,21.748-13.727Z" transform="translate(-1055.71 -377.763)" fill="#ffbc96"/>
            <rect id="Rectángulo_458247" data-name="Rectángulo 458247" width="0.892" height="25.464" transform="translate(352.559 175.188) rotate(-27.127)" fill="#d28572"/>
            <path id="Trazado_1266026" data-name="Trazado 1266026" d="M1221.345,546.031l-.892-.037,1.31-32.615.892.037Z" transform="translate(-840.085 -353.379)" fill="#1b1b43"/>
            <rect id="Rectángulo_458248" data-name="Rectángulo 458248" width="0.892" height="48.196" transform="translate(475.391 159.755) rotate(-4.645)" fill="#1b1b43"/>
            <path id="Trazado_1266027" data-name="Trazado 1266027" d="M1334.4,398.786c0,9.119-11.2,16.523-25.008,16.523s-25.008-7.4-25.008-16.523a10.009,10.009,0,0,1,.179-1.938l28.848-2.679,20.819,2.688a10.689,10.689,0,0,1,.17,1.929" transform="translate(-884.093 -271.321)" fill="#ffbc96"/>
            <path id="Trazado_1266028" data-name="Trazado 1266028" d="M1320.671,476.59a43.362,43.362,0,0,1-20.49-5.622l.426-.785c10.481,5.685,26.382,9.841,42.61-2.641l.544.708c-7.967,6.128-15.856,8.34-23.089,8.34" transform="translate(-894.965 -321.827)" fill="#cc811a"/>
            <g id="Grupo_1207415" data-name="Grupo 1207415" transform="translate(342.908 223.173)" opacity="0.2">
              <g id="Grupo_1207414" data-name="Grupo 1207414">
                <g id="Grupo_1207413" data-name="Grupo 1207413" clip-path="url(#clip-path-15)">
                  <path id="Trazado_1266029" data-name="Trazado 1266029" d="M1126.994,724.035c-5.582,5.868-14.326,10.369-25.169.527a18.919,18.919,0,0,1-1.563-1.6,15.773,15.773,0,0,1,26.732,1.072" transform="translate(-1100.261 -716.077)" fill="#fe5b52"/>
                </g>
              </g>
            </g>
            <rect id="Rectángulo_458250" data-name="Rectángulo 458250" width="38.628" height="8.931" transform="translate(442.271 229.205)" fill="#1b1b43"/>
            <path id="Trazado_1266030" data-name="Trazado 1266030" d="M1593.513,598.41h-90.8l32.331-75.015h90.8Z" transform="translate(-1034.376 -360.273)" fill="#fff9e9"/>
            <path id="Trazado_1266031" data-name="Trazado 1266031" d="M1576.962,728.758a2.835,2.835,0,0,0-3.187.05c-1.046.8-1.108,2.11-.03,3.935,1.568,2.654,18.337,16.528,36.675,2.171s-5.067-5.791-5.067-5.791,4.343-11.22,1.448-12.305-9.41,11.943-9.41,11.943,1.448-11.943-2.051-11.22-5.549,10.978-5.549,10.978-.121-7.721-2.534-7.842-4.825,11.461-4.825,11.461Z" transform="translate(-1082.732 -493.37)" fill="#ffbc96"/>
            <rect id="Rectángulo_458251" data-name="Rectángulo 458251" width="281.356" height="0.893" transform="translate(291.313 294.373)" fill="#1b1b43"/>
            <path id="Trazado_1266032" data-name="Trazado 1266032" d="M994.348,382.8l-20.965-17.139a5.284,5.284,0,0,1,6.688-8.181l20.965,17.139a5.284,5.284,0,0,1-6.689,8.181" transform="translate(-668.683 -245.243)" fill="#fff"/>
            <path id="Trazado_1266033" data-name="Trazado 1266033" d="M1001.213,365.208,980.459,382.6a5.284,5.284,0,0,1-6.788-8.1l20.755-17.393a5.284,5.284,0,1,1,6.788,8.1" transform="translate(-668.915 -244.963)" fill="#fff"/>
            <path id="Trazado_1266034" data-name="Trazado 1266034" d="M739.865,202.922l-15.1-12.347a3.806,3.806,0,1,1,4.818-5.894l15.1,12.347a3.807,3.807,0,0,1-4.819,5.894" transform="translate(-496.364 -112.203)" fill="#fff"/>
            <path id="Trazado_1266035" data-name="Trazado 1266035" d="M744.811,190.252,729.86,202.783a3.807,3.807,0,0,1-4.89-5.835l14.952-12.531a3.806,3.806,0,1,1,4.89,5.835" transform="translate(-496.532 -112.001)" fill="#fff"/>
          </g>
        </g>
      </g>
    </g>
  </g>
</svg>
