<svg xmlns="http://www.w3.org/2000/svg" xmlns:xlink="http://www.w3.org/1999/xlink" width="96" height="96" viewBox="0 0 96 96">
  <defs>
    <clipPath id="clip-path">
      <rect id="Rectángulo_458138" data-name="Rectángulo 458138" width="56.5" height="56.5" fill="#fff"/>
    </clipPath>
  </defs>
  <g id="Grupo_1207229" data-name="Grupo 1207229" transform="translate(-383.746 -8400.001)">
    <path id="Trazado_997400" data-name="Trazado 997400" d="M48,0A48,48,0,1,1,0,48,48,48,0,0,1,48,0Z" transform="translate(383.746 8400.001)" fill="#5d0b80"/>
    <g id="Grupo_1099776" data-name="Grupo 1099776" transform="translate(401.746 8418)">
      <g id="Grupo_1099618" data-name="Grupo 1099618" transform="translate(-0.035 -0.155)">
        <rect id="Rectángulo_401104" data-name="Rectángulo 401104" width="59.378" height="60.093" transform="translate(0)" fill="none"/>
      </g>
      <g id="Grupo_1207262" data-name="Grupo 1207262" transform="translate(0.964 1.844)">
        <g id="Grupo_1207261" data-name="Grupo 1207261" clip-path="url(#clip-path)">
          <path id="Trazado_1265255" data-name="Trazado 1265255" d="M5.3.056,50.751,0A5.732,5.732,0,0,1,56.5,5.749v45A5.732,5.732,0,0,1,50.751,56.5h-45A5.732,5.732,0,0,1,0,50.751L.009,5.591A5.651,5.651,0,0,1,5.3.056M54.661,11V5.255c0-1.785-2.152-3.544-3.909-3.423L5.424,1.841C3.925,1.807,1.839,3.6,1.839,5.089V11Zm0,1.833H1.839V51.411a7.3,7.3,0,0,0,.695,1.638,4.029,4.029,0,0,0,3.057,1.608l44.994.01a4.025,4.025,0,0,0,3.44-1.725,5.994,5.994,0,0,0,.635-1.7Z" fill="#fff"/>
          <path id="Trazado_1265256" data-name="Trazado 1265256" d="M48.9,226.69c-.36-.832-.946-2.772.572-2.665.884.062,3.1,2.423,4.185,2.656l23.363.132.543.957c-.294,3.373.382,7.376,0,10.671a1.063,1.063,0,0,1-1.245,1.088l-43.591-.081c-.483-.177-.6-.531-.66-1.006a73.9,73.9,0,0,1,0-10.508c.038-.416.244-1.242.757-1.242Zm6.5,3.664-4.5-3.164,1.334,5.5,1.236-2.176c.542-.323,1.312-.09,1.928-.157m-6-1.831h-15.5v9.165H75.731v-9.165h-19.5c.512.793,4.4,2.342,2.761,3.512-.671.479-3.47-.1-4.431.234-.564.7-1.366,4.029-2,4.336a.913.913,0,0,1-1.344-.49Z" transform="translate(-26.569 -186.692)" fill="#fff"/>
          <path id="Trazado_1265257" data-name="Trazado 1265257" d="M32.1,87.823c12.059-1.408,18.419,13.324,9.117,20.948-7.365,6.036-18.459.966-19.219-8.431-.475-5.876,4.209-11.828,10.1-12.517M26.7,92.5c-9.57,9.787,5.886,23.818,14.69,13.607C49.8,96.365,35.557,83.451,26.7,92.5" transform="translate(-18.309 -73.111)" fill="#fff"/>
          <path id="Trazado_1265258" data-name="Trazado 1265258" d="M177.528,107.11c-11.132-11.234,6.348-28.023,17.109-16.359,10.438,11.314-6.409,27.156-17.109,16.359m6.9-18.225c-6.714.765-10.4,8.527-7.381,14.454,3.871,7.612,15.211,7.054,18.209-.96,2.755-7.362-3.131-14.371-10.828-13.494" transform="translate(-144.97 -72.336)" fill="#fff"/>
          <path id="Trazado_1265259" data-name="Trazado 1265259" d="M24.659,22.156,41.6,22.127a2.765,2.765,0,0,1,.167,5.47H24.63a2.74,2.74,0,0,1,.029-5.44m17.329,3.416a1.007,1.007,0,0,0-.7-1.635l-16.175.005a1.016,1.016,0,0,0-1.068.92c.077.471.376.939.9.924,5.24-.345,11,.431,16.178,0,.259-.021.685-.029.869-.213" transform="translate(-18.527 -18.44)" fill="#fff"/>
          <path id="Trazado_1265260" data-name="Trazado 1265260" d="M188.2,21.14c5.339.371,11.718-.641,16.938-.021a2.748,2.748,0,0,1,.17,5.465H188.178a2.761,2.761,0,0,1,.025-5.444m-.25,3.42c.184.184.611.191.869.213,5.176.432,10.938-.343,16.178,0,.52.015.819-.453.9-.924a1.016,1.016,0,0,0-1.068-.92l-16.175-.005a1.007,1.007,0,0,0-.7,1.635" transform="translate(-154.915 -17.428)" fill="#fff"/>
          <path id="Trazado_1265261" data-name="Trazado 1265261" d="M48.832,124.486c.483.451.929,1.356,1.618,1.6.389-.069,4.708-4.893,5.6-5.573a1.3,1.3,0,0,1,.753-.4c.452,0,2.809,2.34,3.169,2.818a1.375,1.375,0,0,1,.427.924l-9.924,9.924a1.375,1.375,0,0,1-.924-.427,51.574,51.574,0,0,1-5.082-5.082c-.269-.358-.479-.545-.388-1.047a19.931,19.931,0,0,1,3.078-3.266c.743-.4,1.116.018,1.67.536m7.973-2.055-5.791,5.7c-1.414.63-2.186-1.356-3.23-2.027L46.4,127.488l4.07,4.1,7.745-7.745Z" transform="translate(-36.72 -100.094)" fill="#fff"/>
          <path id="Trazado_1265262" data-name="Trazado 1265262" d="M213.629,115.193c.155.093,2.444,2.4,2.546,2.567.323.52.552.831.185,1.46-.286.492-3,2.778-3,2.99.5.793,2.786,2.409,3.076,3.085a1.526,1.526,0,0,1,0,1.161c-.072.168-2.3,2.383-2.575,2.589-.483.361-.811.618-1.429.255-.874-.512-2.046-2.382-3.013-3-.434-.077-2.643,2.8-3.229,3.067a1.166,1.166,0,0,1-.994,0A24.21,24.21,0,0,1,202.048,126c-.146-.93,2.782-2.858,3.146-3.8,0-.547-2.791-2.6-3.091-3.254a.8.8,0,0,1,.044-.785,18.909,18.909,0,0,1,3.33-3.184c1.078-.2,2.878,2.521,3.816,3.128.435.077,2.647-2.8,3.23-3.07a1.055,1.055,0,0,1,1.106.148m-.884,4.992c.271-.286,1.542-1.189,1.6-1.5-.274-.478-1.1-1.566-1.651-1.316-.892.409-2.211,2.823-3.419,3.077-.776,0-2.572-2.479-3.328-3-.505-.348-1.31.8-1.576,1.237.53.822,3.253,2.784,3.159,3.683-.067.643-2.731,2.545-3.1,3.257-.066.128-.112.205,0,.331l1.334,1.327,3-3a1.037,1.037,0,0,1,.835-.16c.619.107,3.109,3.164,3.341,3.164l1.413-1.413c-.617-.852-3.188-2.684-3.176-3.67,0-.388,1.208-1.636,1.571-2.02" transform="translate(-168.357 -95.792)" fill="#fff"/>
        </g>
      </g>
    </g>
  </g>
</svg>
