<svg xmlns="http://www.w3.org/2000/svg" xmlns:xlink="http://www.w3.org/1999/xlink" width="187.711" height="107.333" viewBox="0 0 187.711 107.333">
  <defs>
    <clipPath id="clip-path">
      <rect id="Rectángulo_458186" data-name="Rectángulo 458186" width="76.285" height="100.729" fill="none"/>
    </clipPath>
  </defs>
  <g id="Grupo_1207748" data-name="Grupo 1207748" transform="translate(-289.711 -742)">
    <g id="Grupo_1205327" data-name="Grupo 1205327" transform="translate(0.434 -8126.039)">
      <g id="Grupo_1204518" data-name="Grupo 1204518" transform="translate(289.277 8868.039)">
        <rect id="Rectángulo_455283" data-name="Rectángulo 455283" width="187.711" height="107.333" rx="19" fill="#96fef0"/>
      </g>
    </g>
    <g id="Grupo_1207346" data-name="Grupo 1207346" transform="translate(345.711 745)">
      <g id="Grupo_1207345" data-name="Grupo 1207345" clip-path="url(#clip-path)">
        <path id="Trazado_1265663" data-name="Trazado 1265663" d="M83.938,114.448H25.581a1.377,1.377,0,0,1-1.377-1.377V36.38A1.377,1.377,0,0,1,25.581,35H83.938a1.377,1.377,0,0,1,1.377,1.377v76.691a1.377,1.377,0,0,1-1.377,1.377" transform="translate(-10.506 -15.194)" fill="#297fb4"/>
        <path id="Trazado_1265664" data-name="Trazado 1265664" d="M73.14,103.65H14.783a1.377,1.377,0,0,1-1.377-1.377V25.582A1.377,1.377,0,0,1,14.783,24.2H73.14a1.377,1.377,0,0,1,1.377,1.377v76.691a1.377,1.377,0,0,1-1.377,1.377" transform="translate(-5.819 -10.507)" fill="#63c0f9"/>
        <path id="Trazado_1265665" data-name="Trazado 1265665" d="M54.552,92.851H3.984a1.377,1.377,0,0,1-1.377-1.377V14.783a1.378,1.378,0,0,1,1.377-1.377H59.041a1.377,1.377,0,0,1,1.377,1.377v68.9Z" transform="translate(-1.132 -5.819)" fill="#f0fcff"/>
        <path id="Trazado_1265666" data-name="Trazado 1265666" d="M103.47,13.406H97.359a1.377,1.377,0,0,1,1.377,1.377v68.9l-1.18,3.54,7.291-3.54v-68.9a1.377,1.377,0,0,0-1.377-1.377" transform="translate(-42.26 -5.819)" fill="#d7ecfe"/>
        <path id="Trazado_1265667" data-name="Trazado 1265667" d="M38.419,61.865H66.128l3.46-5.058-3.46-7.165L55.867,47.612,35.834,49.642Z" transform="translate(-15.554 -20.667)" fill="#63c0f9"/>
        <path id="Trazado_1265668" data-name="Trazado 1265668" d="M68.728,47.612l-3.267.331,13.527,1.7V61.865h5.9V49.643Z" transform="translate(-28.414 -20.667)" fill="#9dcffd"/>
        <rect id="Rectángulo_458182" data-name="Rectángulo 458182" width="6.111" height="6.111" transform="translate(7.587 62.587)" fill="#e3a4fe"/>
        <path id="Trazado_1265669" data-name="Trazado 1265669" d="M103.56,137.587h-7.79a1.377,1.377,0,0,0-1.377,1.377v7.79Z" transform="translate(-40.973 -59.722)" fill="#9dcffd"/>
        <rect id="Rectángulo_458183" data-name="Rectángulo 458183" width="6.111" height="6.111" transform="translate(7.587 74.81)" fill="#e3a4fe"/>
        <path id="Trazado_1265670" data-name="Trazado 1265670" d="M66.128,46.513H35.833L38.418,40.4H66.128l3.226,3.34Z" transform="translate(-15.554 -17.537)" fill="#96fef0"/>
        <rect id="Rectángulo_458184" data-name="Rectángulo 458184" width="5.902" height="6.111" transform="translate(50.574 22.865)" fill="#38acf6"/>
        <rect id="Rectángulo_458185" data-name="Rectángulo 458185" width="15.277" height="18.333" transform="translate(7.587 22.865)" fill="#e3a4fe"/>
        <path id="Trazado_1265671" data-name="Trazado 1265671" d="M74.809,45.57a1.475,1.475,0,0,0,1.475-1.475V21.186a2.856,2.856,0,0,0-2.853-2.853H70.174V15.075a2.856,2.856,0,0,0-2.853-2.853H64.063V8.964A2.856,2.856,0,0,0,61.21,6.111H15.174V4.531a4.531,4.531,0,0,0-9.063,0v1.58H2.852A2.856,2.856,0,0,0,0,8.964v9.891a1.475,1.475,0,1,0,2.951,0V9.062h3.16V14.28a4.537,4.537,0,0,0,4.531,4.531c4.469,0,5.911-6.007,3.056-6.007a1.476,1.476,0,0,0-1.476,1.476,1.58,1.58,0,0,1-3.161,0V9.062h52.05V76.389H54.8a2.856,2.856,0,0,0-2.853,2.853v6.314H2.951V25.285a1.475,1.475,0,1,0-2.951,0V85.655a2.856,2.856,0,0,0,2.852,2.852H6.111v3.259a2.857,2.857,0,0,0,2.853,2.853h3.259v3.258a2.856,2.856,0,0,0,2.852,2.853H73.432a2.856,2.856,0,0,0,2.853-2.853V50.524a1.475,1.475,0,1,0-2.951,0V97.779H15.173v-3.16H55.305a1.476,1.476,0,0,0,0-2.951H9.062v-3.16H53.457a1.455,1.455,0,0,0,.926-.358l.028-.024c.877-.793-3.053,3.054,9.219-9.216l.024-.025a1.509,1.509,0,0,0,.406-.946v0l0-.033V15.174h3.16V91.668H61.735a1.475,1.475,0,1,0,0,2.951h5.585a2.856,2.856,0,0,0,2.853-2.852V21.285h3.16V44.094A1.476,1.476,0,0,0,74.809,45.57ZM9.062,4.531a1.58,1.58,0,0,1,3.161,0v1.58H9.062ZM59.025,79.341,54.9,83.47V79.341Z"/>
        <path id="Trazado_1265672" data-name="Trazado 1265672" d="M57.721,27.6a1.476,1.476,0,0,0,0-2.951H38.377a1.476,1.476,0,1,0,0,2.951Z" transform="translate(-16.017 -10.698)"/>
        <path id="Trazado_1265673" data-name="Trazado 1265673" d="M10.8,39.27V57.6a1.475,1.475,0,0,0,1.476,1.475H61.163A1.475,1.475,0,0,0,62.638,57.6V39.27a1.476,1.476,0,0,0-1.475-1.476H12.274A1.476,1.476,0,0,0,10.8,39.27ZM48.484,56.128H40.231V46.857h8.252Zm-11.2,0H29.027V46.857H37.28Zm14.155-9.272h8.252v9.271H51.434Zm8.253-2.951H29.027v-3.16h30.66Zm-45.938-3.16H26.076V56.128H13.749Z" transform="translate(-4.687 -16.405)"/>
        <path id="Trazado_1265674" data-name="Trazado 1265674" d="M12.274,83.938h6.112a1.476,1.476,0,1,0,0-2.951H12.274a1.476,1.476,0,0,0,0,2.951" transform="translate(-4.687 -35.154)"/>
        <path id="Trazado_1265675" data-name="Trazado 1265675" d="M12.274,94.737h6.112a1.476,1.476,0,1,0,0-2.951H12.274a1.476,1.476,0,0,0,0,2.951" transform="translate(-4.687 -39.841)"/>
        <path id="Trazado_1265676" data-name="Trazado 1265676" d="M68.767,80.988h-34.9a1.476,1.476,0,0,0,0,2.951h34.9a1.476,1.476,0,0,0,0-2.951Z" transform="translate(-14.062 -35.154)"/>
        <path id="Trazado_1265677" data-name="Trazado 1265677" d="M70.243,93.261a1.475,1.475,0,0,0-1.475-1.475h-34.9a1.475,1.475,0,1,0,0,2.951h34.9A1.475,1.475,0,0,0,70.243,93.261Z" transform="translate(-14.062 -39.841)"/>
        <path id="Trazado_1265678" data-name="Trazado 1265678" d="M10.8,115.57a1.476,1.476,0,0,0,1.476,1.476h6.111a1.476,1.476,0,0,0,1.475-1.476v-6.111a1.475,1.475,0,0,0-1.475-1.475H12.274a1.475,1.475,0,0,0-1.476,1.475Zm2.951-4.636h3.16v3.16h-3.16Z" transform="translate(-4.687 -46.872)"/>
        <path id="Trazado_1265679" data-name="Trazado 1265679" d="M58.315,107.984H33.871a1.476,1.476,0,1,0,0,2.951H58.315a1.476,1.476,0,0,0,0-2.951" transform="translate(-14.062 -46.872)"/>
        <path id="Trazado_1265680" data-name="Trazado 1265680" d="M33.87,121.733H52.2a1.476,1.476,0,0,0,0-2.951H33.87a1.476,1.476,0,0,0,0,2.951" transform="translate(-14.062 -51.559)"/>
        <path id="Trazado_1265681" data-name="Trazado 1265681" d="M59.791,131.056a1.475,1.475,0,0,0-1.475-1.475H33.87a1.475,1.475,0,1,0,0,2.951H58.315a1.475,1.475,0,0,0,1.475-1.475" transform="translate(-14.062 -56.247)"/>
        <path id="Trazado_1265682" data-name="Trazado 1265682" d="M10.8,137.167a1.476,1.476,0,0,0,1.476,1.476h6.111a1.476,1.476,0,0,0,1.475-1.476v-6.111a1.475,1.475,0,0,0-1.475-1.475H12.274a1.475,1.475,0,0,0-1.476,1.475Zm2.951-4.636h3.16v3.16h-3.16Z" transform="translate(-4.687 -56.247)"/>
        <path id="Trazado_1265683" data-name="Trazado 1265683" d="M33.87,140.379a1.476,1.476,0,0,0,0,2.951H52.2a1.476,1.476,0,0,0,0-2.951Z" transform="translate(-14.062 -60.934)"/>
      </g>
    </g>
  </g>
</svg>
