<svg xmlns="http://www.w3.org/2000/svg" xmlns:xlink="http://www.w3.org/1999/xlink" width="160.5" height="160.501" viewBox="0 0 160.5 160.501">
  <defs>
    <clipPath id="clip-path">
      <rect id="Rectángulo_455261" data-name="Rectángulo 455261" width="38.951" height="37.623" fill="#e6fffa"/>
    </clipPath>
    <clipPath id="clip-path-2">
      <rect id="Rectángulo_458258" data-name="Rectángulo 458258" width="84.385" height="83.371" fill="#5d0b80"/>
    </clipPath>
  </defs>
  <g id="Grupo_1207158" data-name="Grupo 1207158" transform="translate(-307.436 -10011.92)">
    <path id="Sustracción_130" data-name="Sustracción 130" d="M26.051,25.795H0V11.245H11.352V0h14.7V25.795Z" transform="translate(441.641 10038.471) rotate(-90)" fill="#e3a4fe" stroke="rgba(0,0,0,0)" stroke-miterlimit="10" stroke-width="1"/>
    <g id="Grupo_1178100" data-name="Grupo 1178100" transform="translate(307.436 10172.421) rotate(-90)">
      <path id="Trazado_998183" data-name="Trazado 998183" d="M0,0V37.623H25.58V24.056H38.951V0Z" transform="translate(0 0)" fill="#5d0b80"/>
      <g id="Grupo_1178099" data-name="Grupo 1178099" transform="translate(0 0)">
        <g id="Grupo_1178098" data-name="Grupo 1178098" clip-path="url(#clip-path)">
          <path id="Trazado_998184" data-name="Trazado 998184" d="M0,9.021a9.025,9.025,0,1,1,9.025,9.021A9.023,9.023,0,0,1,0,9.021" transform="translate(4.434 5.629)" fill="#e3a4fe"/>
        </g>
      </g>
    </g>
    <g id="Grupo_1177470" data-name="Grupo 1177470" transform="translate(308.059 10012.421)">
      <circle id="Elipse_13609" data-name="Elipse 13609" cx="79.688" cy="79.688" r="79.688" fill="#f0d5fe"/>
      <g id="Grupo_1099776" data-name="Grupo 1099776" transform="translate(33.723 33.96)">
        <g id="Grupo_1099618" data-name="Grupo 1099618" transform="translate(-0.346 0.264)">
          <rect id="Rectángulo_401104" data-name="Rectángulo 401104" width="90.569" height="91.661" transform="translate(0)" fill="none"/>
        </g>
        <g id="Grupo_1207421" data-name="Grupo 1207421" transform="translate(2.654 4.263)">
          <g id="Grupo_1207420" data-name="Grupo 1207420" clip-path="url(#clip-path-2)">
            <path id="Trazado_1266036" data-name="Trazado 1266036" d="M105.782,39.8c11.611.506,24.1-.872,35.613-.07,11.377.793,12.392,16.346,1.454,18.811l-37.562-.037c-4.513-2.452-10.871-3.81-15.17-6.374-2.349-1.4-2.1-4.428.042-5.913Zm28.544,2.666H107.333v5.448h26.993Zm5.448,0h-2.724V55.843a3.857,3.857,0,0,0,2.724,0ZM142.5,55.843c7.065-1.635,7.158-11.647,0-13.125Zm-37.889-12.63L99.28,45.437l-.136,7.32.163.39,5.3,2.2ZM96.437,46.68a36.054,36.054,0,0,0-4.893,1.908c-.573.341-.413.93.086,1.29,1.027.742,3.608,1.254,4.807,2Zm37.889,3.962H107.333v5.077l26.993.124Z" transform="translate(-66.548 -29.701)" fill="#5d0b80"/>
            <path id="Trazado_1266037" data-name="Trazado 1266037" d="M156.514,182.794l40.118.132a4.478,4.478,0,0,1,2.8,4.134c.338,9.953.338,19.638,0,28.993-.105,2.907-1.674,4.332-4.581,4.581-11.955.005-23.988.592-36.915,0-2.306-.105-4.5-1.372-4.573-3.846-.4-13.025.478-20.069,0-30.213a4.2,4.2,0,0,1,3.154-3.78m13.191,2.667H156.952a6.41,6.41,0,0,0-.738.748l-.019,30.717a1.618,1.618,0,0,0,1.737.987l37.541-.122a1.911,1.911,0,0,0,1.231-1.741l-.193-29.782a2.832,2.832,0,0,0-.679-.807H183.078v8.791c0,.828-1.457,1.791-2.337,1.874a60.9,60.9,0,0,1-9.164-.031c-.6-.1-1.871-1.066-1.871-1.6Zm10.648,0h-8.172v7.924h2.724v-5.2h2.724v5.2h2.724Z" transform="translate(-115.3 -137.527)" fill="#5d0b80"/>
            <path id="Trazado_1266038" data-name="Trazado 1266038" d="M19.24,29.562v2.724H2.9V51.107H21.964v-5.2h2.724v5.572c0,.547-1.269,2.353-1.857,2.353H13.792v10.9h8.791c.914,0,2.228,1.865,2.106,2.847-.4,5.917.526,12.5.009,18.336-.169,1.91-.875,2.907-2.845,3.1-6.018.583-12.966-.465-19.086-.007C.935,88.742.313,87.621.162,85.91-.355,80.076.569,73.49.171,67.574c-.122-.982,1.191-2.847,2.106-2.847h8.791v-10.9H2.029c-.76,0-1.966-2.032-1.858-2.847C.089,43.425.383,41.371.163,32.9c-.031-1.217.941-3.334,2.361-3.334Zm2.724,37.889H2.9V86.271H21.964Z" transform="translate(0 -22.241)" fill="#5d0b80"/>
            <path id="Trazado_1266039" data-name="Trazado 1266039" d="M52,1.149,34.8,27.127l-5.065-6.809,2.1-1.592,2.965,3.7L49.782,0Z" transform="translate(-22.374 0)" fill="#5d0b80"/>
            <rect id="Rectángulo_458254" data-name="Rectángulo 458254" width="2.726" height="2.726" transform="translate(5.619 74.925)" fill="#5d0b80"/>
            <rect id="Rectángulo_458255" data-name="Rectángulo 458255" width="2.726" height="2.726" transform="translate(13.791 74.925)" fill="#5d0b80"/>
            <rect id="Rectángulo_458256" data-name="Rectángulo 458256" width="2.726" height="2.726" transform="translate(21.963 74.925)" fill="#5d0b80"/>
            <rect id="Rectángulo_458257" data-name="Rectángulo 458257" width="2.726" height="2.726" transform="translate(29.887 74.925)" fill="#5d0b80"/>
            <path id="Trazado_1266040" data-name="Trazado 1266040" d="M21.525,189.58l5.7,5.687,5.73-5.673,1.832,1.839-5.439,5.73c-.121.683,5.176,4.842,5.4,5.712.135.518-1.36,2.322-2.086,1.822-.9-.621-5.055-5.458-5.441-5.458l-5.73,5.673-1.832-1.839,5.439-5.73-5.412-5.7Z" transform="translate(-14.791 -142.633)" fill="#5d0b80"/>
          </g>
        </g>
      </g>
    </g>
  </g>
</svg>
