<svg xmlns="http://www.w3.org/2000/svg" xmlns:xlink="http://www.w3.org/1999/xlink" width="107" height="107" viewBox="0 0 107 107">
  <defs>
    <clipPath id="clip-path">
      <rect id="Rectángulo_458192" data-name="Rectángulo 458192" width="59.79" height="59.933" fill="#fff"/>
    </clipPath>
  </defs>
  <g id="Grupo_1119618" data-name="Grupo 1119618" transform="translate(-340.5 -8693)">
    <g id="Grupo_156312" data-name="Grupo 156312" transform="translate(51.832 4244.563)">
      <path id="Elipse_5845" data-name="Elipse 5845" d="M53.5,0A53.5,53.5,0,1,1,0,53.5,53.5,53.5,0,0,1,53.5,0Z" transform="translate(288.668 4448.437)" fill="#5d0b80"/>
    </g>
    <g id="Grupo_1098917" data-name="Grupo 1098917" transform="translate(-46.027 2674.787)">
      <path id="Trazado_873216" data-name="Trazado 873216" d="M0,0H63.184V63.186H0Z" transform="translate(408.527 6040.213)" fill="none"/>
      <g id="Grupo_1207350" data-name="Grupo 1207350" transform="translate(410.738 6040.213)">
        <g id="Grupo_1207349" data-name="Grupo 1207349" clip-path="url(#clip-path)">
          <path id="Trazado_1265688" data-name="Trazado 1265688" d="M117.866,4.333a3.251,3.251,0,0,1,2.025,2.552l-.04,25.837c-.911,3.067-4.2,2.092-6.649,2.242a6.77,6.77,0,0,1-3.252,7.219,6.924,6.924,0,0,1-10.3-7.22c-2.3-.159-5.38.781-6.475-1.887-.483-8.668-.1-17.462-.2-26.175.638-3.531,3.914-2.318,6.509-2.645.407-.284-.076-1.568.328-2.137.471-.663,1.841-.333,1.943-.433A1.385,1.385,0,0,1,102.914.119c2.161-.339,5.229.166,7.481.067.658.245.736.879.694,1.507,2.04-.294,2.457.822,2.288,2.64,1.31.181,3.268-.245,4.489,0m-16.283-.7V6.973h9.594l.264-.264V3.893c-1.252-.64-2.519.375-2.287-1.849l-5.17.025c-.53.178-.039,1.179-.64,1.473Zm-1.936,2.64H95.51a4.545,4.545,0,0,0-.525.532l-.08,25.246c.276,1.753,3.887.682,5.187.992l.223-.05a6.9,6.9,0,0,1,12.3.044c1.36-.185,3.26.228,4.543-.012a1.122,1.122,0,0,0,.7-.528l-.07-25.931c-.366-.581-3.619-.167-4.416-.294a3.4,3.4,0,0,1-.423,2.305L100,8.646c-.619-.3-.264-1.764-.351-2.377m6.478,24.864a5.035,5.035,0,1,0,5.3,4.288,5.241,5.241,0,0,0-5.3-4.288" transform="translate(-76.565 0)" fill="#fff"/>
          <path id="Trazado_1265689" data-name="Trazado 1265689" d="M274.21,260.572a4.072,4.072,0,0,1,4.115,6.21c1.406.827,2.567,1.813,2.777,3.537.257,2.1.279,3.915-2.175,4.123a58.115,58.115,0,0,1-8.1-.009c-2.21-.223-2.194-1.943-2.033-3.788a4.525,4.525,0,0,1,2.808-3.863,4.056,4.056,0,0,1,2.608-6.209m.356,1.931c-3.054.5-1.515,5.426,1.4,3.869a2.087,2.087,0,0,0-1.4-3.869m-3.83,10h8.185c.775-1.5.12-3.651-1.756-3.877a28.326,28.326,0,0,0-4.238,0c-2.254.217-2.331,2.021-2.192,3.881" transform="translate(-221.427 -214.654)" fill="#fff"/>
          <path id="Trazado_1265690" data-name="Trazado 1265690" d="M197.469,266.992c-.609-1.831-.957-3.385.359-5.008,3.212-3.963,9.226.623,6.345,4.758,2.726,1.212,3.142,3.37,2.817,6.165-.131,1.128-1.007,1.41-2.021,1.5a58.219,58.219,0,0,1-8.281-.007c-.814-.091-1.695-.421-1.837-1.331a17.684,17.684,0,0,1,.029-3.47,4.02,4.02,0,0,1,2.589-2.605m4.88-.927c2.008-1.891-1.03-5.167-3.028-2.94-1.707,1.9,1.119,4.738,3.028,2.94m2.7,6.4V269.91c0-.4-1.252-1.2-1.713-1.279-.963-.175-4.672-.159-5.485.242-.26.128-1.075.842-1.075,1.037v2.552Z" transform="translate(-160.493 -214.617)" fill="#fff"/>
          <path id="Trazado_1265691" data-name="Trazado 1265691" d="M11.936,273.774a3.12,3.12,0,0,1-1.619.58,57.751,57.751,0,0,1-8.1.01c-1.617-.143-2.1-.79-2.2-2.377-.137-2.183.564-4.345,2.81-5.038-.642-1.75-.96-3.621.393-5.149,3.292-3.716,9.084.778,6.322,4.9a5.727,5.727,0,0,1,2.482,2.252c.4.928.6,4.086-.088,4.819M5.785,262.428c-2.322.4-2.017,4.217.466,4.169,2.853-.056,2.716-4.722-.466-4.169m4.623,9.993c-.013-1.351.321-2.816-1.071-3.594-.72-.4-4.216-.381-5.187-.287-2.036.2-2.677,2.233-1.928,3.881Z" transform="translate(0 -214.576)" fill="#fff"/>
          <path id="Trazado_1265692" data-name="Trazado 1265692" d="M246.558,190.756a2.287,2.287,0,0,1-1.085.413,62.778,62.778,0,0,1-9.161,0,1.619,1.619,0,0,1-1.5-1.668c-.231-2.519.155-4.859,2.825-5.732-1.666-2.264-.288-6,2.552-6.334,3.781-.439,5.734,2.967,4.15,6.232.915.666,1.8.99,2.306,2.1.406.9.624,4.342-.086,4.991m-4.048-10.8a3,3,0,0,0-1.1-.573,2.074,2.074,0,1,0,0,4.031c1.469-.228,2.025-2.413,1.1-3.458m2.519,9.275c.177-2.489-.021-3.681-2.721-3.88-3.175-.235-6.27-.276-5.552,3.88Z" transform="translate(-193.431 -146.169)" fill="#fff"/>
          <path id="Trazado_1265693" data-name="Trazado 1265693" d="M84.258,267.1a3.922,3.922,0,0,1,2.551,2.468,16.131,16.131,0,0,1,.068,3.608c-.142.91-1.024,1.24-1.837,1.331a57.137,57.137,0,0,1-8.1.005c-1.182-.1-2.054-.369-2.2-1.674-.3-2.721.219-4.762,2.806-5.986-3.24-4.986,4.846-9.024,7.012-3.831.684,1.639.137,2.513-.3,4.079m-3.934-4.528c-2.975.66-1.155,5.548,1.7,3.81a2.12,2.12,0,0,0-1.7-3.81m-3.646,10h8.185c.363-.261.281-.746.274-1.15-.029-1.518-.583-2.576-2.2-2.732-.971-.094-4.467-.115-5.187.287-1.392.778-1.057,2.243-1.071,3.594" transform="translate(-61.517 -214.729)" fill="#fff"/>
          <path id="Trazado_1265694" data-name="Trazado 1265694" d="M44.043,183.525a3.946,3.946,0,0,1,2.738,2.634,10.758,10.758,0,0,1-.12,3.948,1.654,1.654,0,0,1-1.294.819,62.633,62.633,0,0,1-9.162,0,1.625,1.625,0,0,1-1.5-1.5c-.3-2.517.093-5.11,2.821-5.9a4.04,4.04,0,1,1,6.513,0m-3.256-4.484c-2.482,0-2.857,3.8-.335,4.12,3.148.4,3.09-4.119.335-4.12m4.137,9.944C45.1,186.5,44.9,185.3,42.2,185.1c-3.175-.235-6.27-.276-5.552,3.88Z" transform="translate(-28.531 -145.926)" fill="#fff"/>
          <path id="Trazado_1265695" data-name="Trazado 1265695" d="M126.9,114.231c.151.123.239.527.49.648.2,0,1.552-2.245,2.149-2.426,1.1-.334,1.559.476,1.12,1.476a28.123,28.123,0,0,1-2.034,2.541c-.531.559-.927,1.2-1.773.71a8.156,8.156,0,0,1-1.635-2.072,1.021,1.021,0,0,1,1.683-.876" transform="translate(-103.168 -92.595)" fill="#fff"/>
          <path id="Trazado_1265696" data-name="Trazado 1265696" d="M126.705,74.091a6.329,6.329,0,0,1-1.431-2.283c.2-1.312,1.645-.873,2.172.045.18,0,1.59-2.17,2.028-2.369,1.007-.458,1.689.27,1.308,1.308a23.889,23.889,0,0,1-3.023,3.5,1.257,1.257,0,0,1-1.055-.2" transform="translate(-103.221 -57.138)" fill="#fff"/>
          <rect id="Rectángulo_458188" data-name="Rectángulo 458188" width="9.779" height="1.721" transform="translate(29.145 12.537)" fill="#fff"/>
          <rect id="Rectángulo_458189" data-name="Rectángulo 458189" width="6.65" height="1.643" transform="translate(29.145 15.276)" fill="#fff"/>
          <rect id="Rectángulo_458190" data-name="Rectángulo 458190" width="9.779" height="1.721" transform="translate(28.832 19.97)" fill="#fff"/>
          <rect id="Rectángulo_458191" data-name="Rectángulo 458191" width="6.65" height="1.643" transform="translate(28.832 22.708)" fill="#fff"/>
        </g>
      </g>
    </g>
  </g>
</svg>
