<svg xmlns="http://www.w3.org/2000/svg" xmlns:xlink="http://www.w3.org/1999/xlink" width="107" height="107" viewBox="0 0 107 107">
  <defs>
    <clipPath id="clip-path">
      <rect id="Rectángulo_458193" data-name="Rectángulo 458193" width="58.711" height="58.776" fill="#fff"/>
    </clipPath>
  </defs>
  <g id="Grupo_1119619" data-name="Grupo 1119619" transform="translate(-340.5 -8693)">
    <g id="Grupo_156312" data-name="Grupo 156312" transform="translate(51.832 4244.563)">
      <path id="Elipse_5845" data-name="Elipse 5845" d="M53.5,0A53.5,53.5,0,1,1,0,53.5,53.5,53.5,0,0,1,53.5,0Z" transform="translate(288.668 4448.437)" fill="#5d0b80"/>
    </g>
    <g id="Grupo_1098917" data-name="Grupo 1098917" transform="translate(-46.027 2674.787)">
      <path id="Trazado_873216" data-name="Trazado 873216" d="M0,0H63.184V63.186H0Z" transform="translate(408.527 6040.213)" fill="none"/>
      <g id="Grupo_1207352" data-name="Grupo 1207352" transform="translate(409.527 6042.213)">
        <g id="Grupo_1207351" data-name="Grupo 1207351" clip-path="url(#clip-path)">
          <path id="Trazado_1265697" data-name="Trazado 1265697" d="M196.578,32.58c1.878.312,4.172,4.985,4.754,6.691A12.407,12.407,0,0,1,202,45.579c-.16.872-1.089,2.828-1.1,3.274,0,.208.878,1.592,1.027,2.1a6.142,6.142,0,0,1-9.7,6.559c-4.152,2.267-8.824,1.284-12.742-.948-1.353-.771-3.383-2.043-3.538-3.7a100.346,100.346,0,0,1,0-11.963,3.692,3.692,0,0,1,.288-1.175c-.929-1.437-4.5-3.329-3.38-5.285,1.532-1.231,3.16-3.66,4.7-4.726,2.127-1.474,3.868,2.234,5.55,3.144a3.639,3.639,0,0,1,1.175-.289c2.618-.132,5.272.132,7.893-.017l.253-.252a27.94,27.94,0,0,0,.2-3.855c-.026-.418-.156-1.976-.451-2.073-2.536-.229-5.389.227-7.885-.026a2.586,2.586,0,0,1-2.287-3.629,12.191,12.191,0,0,1,2.891-3,2.3,2.3,0,0,1,2.661.333c1.289.946.615,1.235,2.624.74.2-.05.3.126.253-.248a10.942,10.942,0,0,0-1.279-2.258,20.781,20.781,0,0,0-7.9-6.746l-2.527,5.371c.436,1.227,1.142,2.069.335,3.373a16.291,16.291,0,0,1-2.9,2.658,3,3,0,0,1-3.635-2.962c1.515-4.361,1.616-10.308,4.683-13.83,2.59-2.974,6.406-6.329,10.6-6.054,1.122.074,2.749.845,3.537.843a17.389,17.389,0,0,0,2.23-.635C199.308-.8,203.02,2.6,202,8.385c-.124.7-.713,1.968-.754,2.425-.026.294.611,1.848.721,2.406A10.666,10.666,0,0,1,202,17.305c-.124.713-.639,3.059-1.4,3.161-1.887.255-.627-1.971-.459-2.828a8.689,8.689,0,0,0-.037-4.581c-.736,1.053-1.461,2.115-2.278,3.108a17.2,17.2,0,0,0-2.088,2.287c-.993,1.775-.374,3.738-3.293,3.524V24.67h3.787c.861-.46,1.815-2.7,2.677-2.691,2.231.035-1.126,4.374-2.341,4.374h-2.44a28.543,28.543,0,0,1,0,6.227c.752.086,1.724-.119,2.44,0m-20.45-19.694,2.364.434c.153-.107,1.076-2.492,1.416-2.965a55.793,55.793,0,0,1,5.138-4.96,42.749,42.749,0,0,1,4.039-3.2c-1.61-.809-3.58-.317-5.1.451-1.555.786-5.725,4.51-6.584,6.039-.684,1.218-.761,2.888-1.274,4.2m17.128,7.2c.293-.294.583-2.037.973-2.644.485-.755,1.918-1.954,2.6-2.789a16.939,16.939,0,0,0,3.036-5.043c2.18-6.685-2.307-9.432-8.281-6.766-3.479,1.553-6.294,4.9-9.057,7.438l1.406.74c1.6-1.334,2.9-3.51,5.117-3.81a23.211,23.211,0,0,1,5.348.624,1.241,1.241,0,0,1,.208.466,14.764,14.764,0,0,1,.259,5.733c-.6,1.905-2.549,2.769-3.557,4.354.381.638.981,2.675,1.952,1.7M192.924,9.39,190.1,9.019a2.791,2.791,0,0,1,.506,2.691,3.292,3.292,0,0,1,2.691.337Zm-4.758-.035a18.174,18.174,0,0,0-2.613,2.771l1.6,1.263,3.182,3.365,2.621-2.768a5.666,5.666,0,0,0-1.291-.711c-.684-.109-1.385.758-2.422-.124-.962-.817-.2-1.735-.362-2.66-.042-.233-.4-1.208-.718-1.136m-10.523,5.723-2.019-.508c.045,1.283-1.7,5.107-1.261,6.057a1.27,1.27,0,0,0,1.424.594,19.629,19.629,0,0,0,1.828-1.891c.248-.844-.8-1.675-.8-2.319,0-.419.98-1.73.829-1.933m6.648,9.591h6.48V22.481c-.21-.208-2.273.541-2.832.395-.736-.193-1.335-2.234-2.308-1.583a24.271,24.271,0,0,0-2.067,2.151,1,1,0,0,0,.728,1.226m-1.153,12.85c-.413-.463-1.016-.825-1.209-1.568-.161-.62.057-1.363-.166-1.854a30.935,30.935,0,0,0-3.05-3.02l-4.257,4.135a24.769,24.769,0,0,0,3.177,3.335c.178.066.889-.12,1.274-.082,1.349.133,2.511,2.066,3.532,2.864l2.269-2.269a6.118,6.118,0,0,1-1.571-1.54m4.1-3.257h-2.945c-.434,0-.88.716-.728,1.226a12.754,12.754,0,0,0,2.418,2.308c.5.089,1.255-.375,1.255-.758Zm9,0h-7.153l0,2.018c1.02.231,4.891.6,5.477,1.171a16.693,16.693,0,0,1,1.206,3.49.872.872,0,0,1-1.364.709c-.842-.558-.6-3.434-2.011-3l-2.3,3.684c4.08-.448,6.78,2.575,9.341,5.216,2.4-4.258,0-10.111-3.2-13.293m-5.806,3.872c-.57.1-1.36-.386-1.852-.084-.138.085-.459.667-.762.921-1.474,1.235-3.524,2.6-4.713,4.207-.6.812-.671,2.019-1.931,2.2l.338,1.846a19.586,19.586,0,0,0,7.709-6.68c.216-.322,1.438-2.191,1.211-2.408m-12.792,5.722h2.945c.4,0,.665-.9.516-1.355a10.1,10.1,0,0,0-2.279-2.281c-.384-.12-1.182.279-1.182.522Zm11.446.507a2.989,2.989,0,0,0,2.472,1.3,11.324,11.324,0,0,0,2.069-.879,5.4,5.4,0,0,0-4.54-.419m-11.446,1.344v7.153c0,.8,3.9,2.868,4.716,3.2,2.695,1.082,5.743,1.6,8.414.169-2.494-2.764-5.408-5.39-5.053-9.508l-3.679,2.3c-.536,1.593,3.045,1.136,3.107,2.493.089,1.917-3.575-.086-4.438-.286l-1.122-5.359Zm10.6,4.543c.643-1.565,1.235-3.487-.5-4.543a6.783,6.783,0,0,0-.1,3.376c.07.295.313,1.012.6,1.167m2.359-3.028c.546,1.739-.787,2.463-.683,4.3.083,1.477,2.453,3.934,3.628,4.791a4.367,4.367,0,0,0,6.61-5.1c-.413-1.164-3.156-4.062-4.3-4.454-2.4-.82-3.1,1.061-5.256.462" transform="translate(-143.493 -0.07)" fill="#fff"/>
          <path id="Trazado_1265698" data-name="Trazado 1265698" d="M5.639,26.283C3.762,25.971,1.466,21.3.885,19.591a11.6,11.6,0,0,1-.259-7.915,12.037,12.037,0,0,0,.685-1.667c0-.211-.877-1.59-1.027-2.1A6.115,6.115,0,0,1,7.906.283C10,.872,13.851,4.647,14.12,6.862c.219,1.808-.465,2.171-.621,3.385-.041.317.155.641.146.97-.038,1.465-.7,2.476-2.284,2.457a12.165,12.165,0,0,0-2.9.447,4.725,4.725,0,0,1-3.393-.727c-.9-.549-1.407-1.449-2.118-1.924-.181-.121-.119-.263-.335,0a9.984,9.984,0,0,0-.893,3.617,13.744,13.744,0,0,0,1.139,4.717c.951,1.332,3.819.5,3.855-.838.013-.5-.772-1.931.609-1.929,1.5,0,.791,3.63,2.609,3.111a22.362,22.362,0,0,1,6.244-7.736c.63-.489,3.932-2.344,4.005-2.571C20.7,8.23,15.891,8.482,17.26,6.77c.716-.895,1.6.608,2.6-.6,2.574-3.088-2-4.337-4.3-4.459-.945-.05-3.29.725-2.742-1.063.147-.479,1.1-.578,1.569-.62,2.706-.238,6.115.979,8.441,2.325C23.6,2.8,26.257,4.627,26.257,5.5V8.105c.867-.011,4.094-.736,4.022.589-.082,1.491-2.929.774-4.022,1.094v3.619c0,.06.658.628.811.872,1.266,2.011,1.391,4.511-.825,5.847-.769.463-1.546.447-2.1.763-.233.133-3.217,3.2-3.314,3.418a14.212,14.212,0,0,1-.629,1.9c-1.122,1.957-3.534,2.163-5.4,1.183-.434-.228-1.149-.979-1.457-1.067a20.474,20.474,0,0,0-3.306-.012l-.253.252A8.684,8.684,0,0,1,9.6,28.22a19.283,19.283,0,0,1-.036,2.826.9.9,0,0,1-1.468.19c-.537-.757.015-3.906-.012-4.953-.752-.086-1.724.119-2.44,0M5.684,1.752C1.145,2.294.57,7.816,4.124,10.293,6.048,11.634,5.7,9.028,6.4,8.691c.613-.3,1.436.418,2.116-.069.851-.733-.11-1.363.193-2.154.379-.824,1.841-.225,1.916-1.477.038-.631-1.595-2.231-2.148-2.581a4.8,4.8,0,0,0-2.789-.658M25.417,18.54c1.927-1.428.186-3.284-.839-4.632l-.039-7.871c-.174-.778-1.659-1.564-2.319-1.971a4.077,4.077,0,0,1-1.177,3.282l.593.579c.362.914,1.005,7.292,1.278,7.562a6.455,6.455,0,0,1,1.144.287,3.194,3.194,0,0,1,1.361,2.764M11.929,11.786c.209-.584-.354-1.2-.285-1.707.13-.956,1.734-2.606.308-3.825.081.646-1.209,1.028-1.313,1.212-.269.475.025,1.43-.81,2.305-.894.937-1.983.629-2.4.885a5.3,5.3,0,0,1-.358.735c-.143.162-.923.653-.846.75a3.426,3.426,0,0,0,3.03-.081c.265-.088.463-.38.769-.423.65-.092,1.237.6,1.9.147m8.6.022a18.121,18.121,0,0,0-8.75,8.751l4.762.641,4.707-4.725ZM23,17.207c-.661.759-5.663,5.352-5.666,5.794-.005.762,1.248.667,1.786.434a28.2,28.2,0,0,0,4.4-4.519c.274-.662.244-1.434-.522-1.709m-7.549,5.747c-.374-.379-6.271-.923-7.24-1.26-.31.049-.815-.622-.887-.621-.037,0-.366.373-.533.47a4.623,4.623,0,0,1-2.749.7,7.759,7.759,0,0,0,1.97,2.32l7.868.043c1.413.9,3.184,2.737,4.637.835a3.408,3.408,0,0,1-2.726-1.4c-.148-.283-.256-1.006-.34-1.091" transform="translate(-0.017 0.001)" fill="#fff"/>
          <path id="Trazado_1265699" data-name="Trazado 1265699" d="M25.253,214.563c.87.012,1.73.274,2.587.358a10.636,10.636,0,0,1,2.568.114c.424.181.491,1,.223,1.335-.539.676-4.692-.068-5.705-.066-1.955,2.467-6.33,7.842-9.561,8.193a11.144,11.144,0,0,1-5.4-1.3A6.138,6.138,0,0,1,.2,216.9c.151-.61,1.1-2.189,1.1-2.371-.006-.392-.51-1.094-.644-1.539-1.246-4.136-.475-5.58,2.277-8.677.823-.926,4.6-4.565,5.548-4.887,2.341-.795,5.352,2.08,7.612,2.66,2.448-1.186,5.288-2.633,7.29.126,1.5,2.071-.152,4.337-.932,6.329Zm-10.13-11.077c-1.7-.289-3.648-2.042-5.206-2.455a1.181,1.181,0,0,0-.725-.05c-.173.052-2,1.629-2.311,1.905-1.367,1.221-5.059,4.824-5.155,6.591-.029.531.568,3.755,1.034,3.759l2.874-2.69c.94.136,1.884-.094,2.83.019.8.1,1.621.732,2.061.775.774.077,1.533-.791,2.512.206.822.838.143,1.639.278,2.575.08.557.538,1.122.623,1.741a5.547,5.547,0,0,1-.757,3.927c-.541.866-1.374,1.337-1.753,2.2,1.8.534,3.158,1.29,4.969.342,1.831-.958,5.611-4.757,6.813-6.483a1.312,1.312,0,0,0,.346-.842c0-1.026-2.258-4.271-2.625-5.477l-1.755.184c-.276.4,1.456,3.72,1.14,4.754a39.315,39.315,0,0,1-2.5,3.053.887.887,0,0,1-1.438-.918c.187-.6,2.439-2.555,2.115-3.018A18.559,18.559,0,0,1,10.921,206c-.528-.391-3.013,3.215-3.954,1.853a1.126,1.126,0,0,1,.077-1.105,29.992,29.992,0,0,1,3.046-2.511c.988-.356,4.5,1.462,4.872,1.09Zm5.73-1.185c-1.471-.019-2.734.782-4.011,1.372l-.365,2.159a1.75,1.75,0,0,0,1.1-.157c.881-.5,2.383-2.64,3.273-3.374m-2.187,5.72,2.27-.505c.584-1.252,1.476-2.4,1.262-3.87-.7.788-3.277,2.786-3.5,3.655a2.653,2.653,0,0,0-.035.721m-1.692-.329-3.527-.847a23.327,23.327,0,0,0,4.124,4.205c-.014-1.167-.807-2.158-.6-3.358M11.6,212.9c-1.526.661-2.332-.623-3.7-.591a15.864,15.864,0,0,1,3.786,6.651,3.9,3.9,0,0,0,.333-3.532c-.349-.978-.867-1.21-.418-2.528m-5.806-.333c-1.584,1.766-4.1,3.265-4.058,5.943a4.4,4.4,0,0,0,6.919,3.477c3.376-2.464-.962-7.349-2.86-9.421" transform="translate(0 -165.75)" fill="#fff"/>
        </g>
      </g>
    </g>
  </g>
</svg>
