<svg xmlns="http://www.w3.org/2000/svg" xmlns:xlink="http://www.w3.org/1999/xlink" width="84" height="84" viewBox="0 0 84 84">
  <defs>
    <clipPath id="clip-path">
      <rect id="Rectángulo_458360" data-name="Rectángulo 458360" width="67.584" height="67.584" fill="#5d0b80"/>
    </clipPath>
  </defs>
  <g id="Grupo_1203743" data-name="Grupo 1203743" transform="translate(-289.711 -1155.941)">
    <rect id="Rectángulo_455579" data-name="Rectángulo 455579" width="84" height="84" rx="12" transform="translate(289.711 1155.941)" fill="#ffe9a1"/>
    <g id="Grupo_1207526" data-name="Grupo 1207526" transform="translate(297.711 1163.941)">
      <g id="Grupo_1207525" data-name="Grupo 1207525" clip-path="url(#clip-path)">
        <path id="Trazado_1266337" data-name="Trazado 1266337" d="M1.251,95.782A1.252,1.252,0,0,0,2.5,94.531v-.678a1.251,1.251,0,0,0-2.5,0v.678a1.252,1.252,0,0,0,1.251,1.251" transform="translate(0 -54.176)" fill="#5d0b80"/>
        <path id="Trazado_1266338" data-name="Trazado 1266338" d="M50.912,26.633a1.251,1.251,0,0,0,0-2.5H37.445a1.251,1.251,0,1,0,0,2.5Z" transform="translate(-21.175 -14.117)" fill="#5d0b80"/>
        <path id="Trazado_1266339" data-name="Trazado 1266339" d="M24.129,37.445A1.252,1.252,0,0,0,25.38,38.7H42.94a1.251,1.251,0,1,0,0-2.5H25.38a1.252,1.252,0,0,0-1.251,1.251" transform="translate(-14.117 -21.175)" fill="#5d0b80"/>
        <path id="Trazado_1266340" data-name="Trazado 1266340" d="M12.065,49.51a1.252,1.252,0,0,0,1.251,1.251H36.195a1.251,1.251,0,1,0,0-2.5H13.316a1.252,1.252,0,0,0-1.251,1.251" transform="translate(-7.059 -28.234)" fill="#5d0b80"/>
        <path id="Trazado_1266341" data-name="Trazado 1266341" d="M13.316,62.826H37.747a1.251,1.251,0,1,0,0-2.5H13.316a1.251,1.251,0,1,0,0,2.5" transform="translate(-7.059 -35.292)" fill="#5d0b80"/>
        <path id="Trazado_1266342" data-name="Trazado 1266342" d="M13.316,74.891H40.85a1.251,1.251,0,0,0,0-2.5H13.316a1.251,1.251,0,0,0,0,2.5" transform="translate(-7.059 -42.351)" fill="#5d0b80"/>
        <path id="Trazado_1266343" data-name="Trazado 1266343" d="M13.316,86.955H40.85a1.251,1.251,0,1,0,0-2.5H13.316a1.251,1.251,0,0,0,0,2.5" transform="translate(-7.059 -49.409)" fill="#5d0b80"/>
        <path id="Trazado_1266344" data-name="Trazado 1266344" d="M13.316,99.02H40.85a1.251,1.251,0,1,0,0-2.5H13.316a1.251,1.251,0,0,0,0,2.5" transform="translate(-7.059 -56.467)" fill="#5d0b80"/>
        <path id="Trazado_1266345" data-name="Trazado 1266345" d="M13.316,111.085H40.85a1.251,1.251,0,1,0,0-2.5H13.316a1.251,1.251,0,0,0,0,2.5" transform="translate(-7.059 -63.526)" fill="#5d0b80"/>
        <path id="Trazado_1266346" data-name="Trazado 1266346" d="M50.062,0A17.41,17.41,0,0,0,40.05,3.163V1.252A1.252,1.252,0,0,0,38.8,0H11.264a1.252,1.252,0,0,0-.885.366L.367,10.38A1.25,1.25,0,0,0,0,11.265V35.083a1.251,1.251,0,1,0,2.5,0V12.516h8.761a1.251,1.251,0,0,0,1.251-1.251V2.5H37.546v2.63c.007.041.015.082.025.122a17.468,17.468,0,0,0-.025,24.506v20.3H2.5V44.8a1.251,1.251,0,1,0-2.5,0v6.513a1.252,1.252,0,0,0,1.251,1.251H38.8a1.252,1.252,0,0,0,1.251-1.251V31.881a17.421,17.421,0,0,0,6.257,2.748v2.918H45.056A1.252,1.252,0,0,0,43.8,38.8V43.8a1.235,1.235,0,0,0,1.064,1.214L44.055,61.27a6.013,6.013,0,1,0,12.012,0l-.812-16.251A1.235,1.235,0,0,0,56.32,43.8V38.8a1.253,1.253,0,0,0-1.252-1.252H53.816V34.619a17.5,17.5,0,0,0,7.545-3.7A1.252,1.252,0,1,0,59.745,29a14.986,14.986,0,1,1,3.624-4.511,1.252,1.252,0,0,0,2.217,1.164A17.528,17.528,0,0,0,50.062,0M4.273,10.013l5.74-5.74v5.74ZM46.307,40.05h7.509v2.5H46.307Zm6.3,23.939a3.589,3.589,0,0,1-5.086,0,3.472,3.472,0,0,1-.963-2.594l.817-16.339H52.75L53.567,61.4a3.472,3.472,0,0,1-.963,2.593m-1.291-29v2.559h-2.5V34.98c.415.03.829.063,1.251.063s.836-.025,1.251-.056" transform="translate(0 -0.001)" fill="#5d0b80"/>
        <path id="Trazado_1266347" data-name="Trazado 1266347" d="M103,12.064A12.516,12.516,0,1,0,115.515,24.58,12.515,12.515,0,0,0,103,12.064m0,22.528A10.012,10.012,0,1,1,113.012,24.58,10.013,10.013,0,0,1,103,34.592" transform="translate(-52.938 -7.058)" fill="#5d0b80"/>
      </g>
    </g>
  </g>
</svg>
