<svg xmlns="http://www.w3.org/2000/svg" xmlns:xlink="http://www.w3.org/1999/xlink" width="79.19" height="80.5" viewBox="0 0 79.19 80.5">
  <defs>
    <clipPath id="clip-path">
      <rect id="Rectángulo_458313" data-name="Rectángulo 458313" width="79.19" height="80.5" fill="#fff"/>
    </clipPath>
  </defs>
  <g id="Grupo_1099776" data-name="Grupo 1099776" transform="translate(-1.711 1.723)">
    <g id="Grupo_1099618" data-name="Grupo 1099618" transform="translate(1.711 -1.723)">
      <rect id="Rectángulo_401104" data-name="Rectángulo 401104" width="79.17" height="80.124" transform="translate(0)" fill="none"/>
    </g>
    <g id="Grupo_1207506" data-name="Grupo 1207506" transform="translate(1.711 -1.723)">
      <g id="Grupo_1207505" data-name="Grupo 1207505" clip-path="url(#clip-path)">
        <path id="Trazado_1266268" data-name="Trazado 1266268" d="M152.526,111.773c-1.146-3.708-4.213-6.17-7.616-7.736a6.558,6.558,0,0,0-4.052-12.114c-6.383.365-8.343,8.738-2.987,12.114-3.4,1.566-6.47,4.029-7.616,7.736-.612,1.981-.748,8.371-.459,10.5.091.673,1.077,2.2,1.7,2.2h8.72v5.915H126.8v-9.771H110.058c-1.188-.031-2.358-.036-3.5,0h-6.6v27.872H126.8V133.32h14.852a1.517,1.517,0,0,0,.911-.911V124.47h8.72c.5,0,1.613-1.533,1.7-2.2.287-2.133.155-8.509-.459-10.5M140.409,94.337c5.9-1.088,6.932,7.177,1.965,8.208-5.688,1.18-7.113-7.258-1.965-8.208m-36.035,51.2a1.731,1.731,0,0,1-1.25-.5v-21.35l.842-.46c3.054.153,6.3-.009,9.539-.13h8.087c.271.018.542.036.81.06a2.173,2.173,0,0,1,1.506.486v21.363a.436.436,0,0,1-.08.165,1.781,1.781,0,0,1-1.1.369Zm46.257-23.412H132.15v-8.46a14.373,14.373,0,0,1,1.609-3.6,9.4,9.4,0,0,1,15.263,0,11.867,11.867,0,0,1,1.609,3.857Z" transform="translate(-73.941 -67.985)" fill="#fff"/>
        <path id="Trazado_1266269" data-name="Trazado 1266269" d="M129.191,165.006h-17.31c.379-.633,1.406-.662,1.315-1.679a1.562,1.562,0,0,0-1.405-1.131,44.345,44.345,0,0,0-4.575,2.959c-.792.826-.641,1.41.148,2.157a37.574,37.574,0,0,0,4.449,2.851,1.392,1.392,0,0,0,1.044-.276c.811-1.211-.031-1.647-.716-2.538h17.05c.824,0,.824-2.343,0-2.343" transform="translate(-78.92 -119.975)" fill="#fff"/>
        <path id="Trazado_1266270" data-name="Trazado 1266270" d="M129.552,127.77a44.406,44.406,0,0,0-4.45-2.847c-1.327-.228-1.876.666-1.29,1.822.23.454.908.317.916.775h-17.05c-1.117,0-1.087,2.343-.26,2.343h17.31c-.568.913-1.344.557-1.033,1.937a1.027,1.027,0,0,0,1.362.887,23.5,23.5,0,0,0,4.743-3.351,1.238,1.238,0,0,0-.248-1.566" transform="translate(-79.013 -92.379)" fill="#fff"/>
        <path id="Trazado_1266271" data-name="Trazado 1266271" d="M124.44,53.59c5.18.752,5.223-7.777-.268-6.65-3.389.7-3.438,6.112.268,6.65m1.11-4.246c1.116.689-.242,2.319-1.269,1.664-.739-.471.041-2.422,1.269-1.664" transform="translate(-89.981 -34.646)" fill="#fff"/>
        <path id="Trazado_1266272" data-name="Trazado 1266272" d="M129.267,74.34c-1.674-.806-3,2.285-3.458,2.425-.848.261-.787-.85-1.234-1.233a1.251,1.251,0,0,0-2.02.58c-.141.9,1.71,4.01,2.747,4.008.745,0,2.334-1.709,2.866-2.32.728-.836,2.687-2.7,1.1-3.46" transform="translate(-90.649 -54.891)" fill="#fff"/>
        <path id="Trazado_1266273" data-name="Trazado 1266273" d="M126.249,26.511a51.873,51.873,0,0,0,3.776-3.776,1.216,1.216,0,0,0-1.5-1.772c-.6.178-2.41,2.552-2.659,2.553-.8-.716-.924-1.916-2.288-1.512-1.84.545.82,5.367,2.674,4.507" transform="translate(-90.949 -15.452)" fill="#fff"/>
        <path id="Trazado_1266274" data-name="Trazado 1266274" d="M125.813,223.561c4.475-.287,4.154-7.747-1.178-6.643-3.563.737-3.041,6.914,1.178,6.643m-1.069-4.064a1.115,1.115,0,0,1,1.743.406c.57,1.926-2.763,1.2-1.743-.406" transform="translate(-90.444 -160.372)" fill="#fff"/>
        <path id="Trazado_1266275" data-name="Trazado 1266275" d="M128.339,243.893c-.6.182-2.422,2.552-2.657,2.546-.588-1.886-3.5-2.175-2.888.008a25.925,25.925,0,0,0,1.974,2.991,1.86,1.86,0,0,0,1.56-.007,49.412,49.412,0,0,0,3.512-3.773c.595-1.3-.084-2.194-1.5-1.765" transform="translate(-90.769 -180.327)" fill="#fff"/>
        <path id="Trazado_1266276" data-name="Trazado 1266276" d="M128.713,270.41c-.56.227-2.744,2.808-2.938,2.676-.148-1.211-1.72-2.431-2.627-1.189-.763,1.045,1.752,4.831,3.139,4.185a51.593,51.593,0,0,0,3.773-3.78c.522-1.14-.14-2.38-1.347-1.891" transform="translate(-90.988 -199.941)" fill="#fff"/>
        <path id="Trazado_1266277" data-name="Trazado 1266277" d="M155.785,31.37h6.71a1.157,1.157,0,0,0,0-2.314h-6.71a1.157,1.157,0,0,0,0,2.314" transform="translate(-114.379 -21.493)" fill="#fff"/>
        <path id="Trazado_1266278" data-name="Trazado 1266278" d="M155.785,57.592h6.71a1.157,1.157,0,0,0,0-2.314h-6.71a1.157,1.157,0,0,0,0,2.314" transform="translate(-114.379 -40.889)" fill="#fff"/>
        <path id="Trazado_1266279" data-name="Trazado 1266279" d="M155.785,85.147h6.71a1.157,1.157,0,0,0,0-2.314h-6.71a1.157,1.157,0,0,0,0,2.314" transform="translate(-114.379 -61.272)" fill="#fff"/>
        <path id="Trazado_1266280" data-name="Trazado 1266280" d="M162.494,226.834h-6.71a1.157,1.157,0,0,0,0,2.314h6.71a1.157,1.157,0,0,0,0-2.314" transform="translate(-114.378 -167.789)" fill="#fff"/>
        <path id="Trazado_1266281" data-name="Trazado 1266281" d="M162.494,253.056h-6.71a1.157,1.157,0,0,0,0,2.314h6.71a1.157,1.157,0,0,0,0-2.314" transform="translate(-114.378 -187.186)" fill="#fff"/>
        <path id="Trazado_1266282" data-name="Trazado 1266282" d="M162.494,280.612h-6.71a1.157,1.157,0,0,0,0,2.314h6.71a1.157,1.157,0,0,0,0-2.314" transform="translate(-114.378 -207.569)" fill="#fff"/>
        <path id="Trazado_1266283" data-name="Trazado 1266283" d="M54.176,30.629V0H24.935V15.358H11.487a2.991,2.991,0,0,0-.781.521l-.166,8.034A6.639,6.639,0,0,0,8.228,36.051C4.34,37.736.607,41.241.166,45.685A57.654,57.654,0,0,0,.177,54.52,2.706,2.706,0,0,0,2.62,56.5c5.775.606,12.611-.491,18.5-.011a2.472,2.472,0,0,0,2.062-1.583c.905-2.4.413-9.238-.508-11.7-1.294-3.451-4.182-5.656-7.41-7.161a6.606,6.606,0,0,0-2.348-12.1V17.961H24.935V30.629Zm-34.8,11.457a14.375,14.375,0,0,1,1.609,3.6v8.46H2.506v-8.2a11.878,11.878,0,0,1,1.609-3.857,9.4,9.4,0,0,1,15.264,0M12.73,34.56C7.1,35.729,5.6,27.416,10.764,26.35c5.788-1.194,7.036,7.157,1.967,8.21m36.884-31.7c.907.1,1.459.322,1.7.981V26.919a.863.863,0,0,1-.192.351,3.193,3.193,0,0,1-1.508.495H29.323A1.514,1.514,0,0,1,27.8,26.327V12.587c.071-2.288.1-4.558,0-6.765V4.168c.167-.9.727-1.192,1.786-1.3Z" transform="translate(0)" fill="#fff"/>
      </g>
    </g>
  </g>
</svg>
