<svg xmlns="http://www.w3.org/2000/svg" xmlns:xlink="http://www.w3.org/1999/xlink" width="150.5" height="150.501" viewBox="0 0 150.5 150.501">
  <defs>
    <clipPath id="clip-path">
      <rect id="Rectángulo_455261" data-name="Rectángulo 455261" width="38.951" height="37.623" fill="#e6fffa"/>
    </clipPath>
    <clipPath id="clip-path-2">
      <rect id="Rectángulo_458262" data-name="Rectángulo 458262" width="90.569" height="80.729" fill="#5d0b80"/>
    </clipPath>
  </defs>
  <g id="Grupo_1207156" data-name="Grupo 1207156" transform="translate(-307.436 -10011.92)">
    <path id="Sustracción_130" data-name="Sustracción 130" d="M26.051,25.795H0V11.245H11.352V0h14.7V25.795Z" transform="translate(431.641 10038.471) rotate(-90)" fill="#e3a4fe" stroke="rgba(0,0,0,0)" stroke-miterlimit="10" stroke-width="1"/>
    <g id="Grupo_1178100" data-name="Grupo 1178100" transform="translate(307.436 10162.421) rotate(-90)">
      <path id="Trazado_998183" data-name="Trazado 998183" d="M0,0V37.623H25.58V24.056H38.951V0Z" transform="translate(0 0)" fill="#5d0b80"/>
      <g id="Grupo_1178099" data-name="Grupo 1178099" transform="translate(0 0)">
        <g id="Grupo_1178098" data-name="Grupo 1178098" clip-path="url(#clip-path)">
          <path id="Trazado_998184" data-name="Trazado 998184" d="M0,9.021a9.025,9.025,0,1,1,9.025,9.021A9.023,9.023,0,0,1,0,9.021" transform="translate(4.434 5.629)" fill="#e3a4fe"/>
        </g>
      </g>
    </g>
    <g id="Grupo_1177470" data-name="Grupo 1177470" transform="translate(308.059 10012.421)">
      <circle id="Elipse_13609" data-name="Elipse 13609" cx="74.688" cy="74.688" r="74.688" fill="#fff"/>
      <g id="Grupo_1099776" data-name="Grupo 1099776" transform="translate(28.822 28.945)">
        <g id="Grupo_1099618" data-name="Grupo 1099618" transform="translate(0.267 -0.538)">
          <rect id="Rectángulo_401104" data-name="Rectángulo 401104" width="90.569" height="91.661" transform="translate(0)" fill="none"/>
        </g>
        <g id="Grupo_1207429" data-name="Grupo 1207429" transform="translate(0.266 5.463)">
          <g id="Grupo_1207428" data-name="Grupo 1207428" clip-path="url(#clip-path-2)">
            <path id="Trazado_1266065" data-name="Trazado 1266065" d="M301.685,152.711a9.9,9.9,0,0,0,0,19.8h0a9.9,9.9,0,1,0,0-19.8m0,17.923a8.021,8.021,0,1,1,8.021-8.021,8.007,8.007,0,0,1-8.021,8.021" transform="translate(-232.177 -121.514)" fill="#5d0b80"/>
            <path id="Trazado_1266066" data-name="Trazado 1266066" d="M200.391,120.073l-1.95-1.95a.94.94,0,1,0-1.33,1.329l1.95,1.95a1.958,1.958,0,1,1-2.769,2.769l-7.566-7.566a13.96,13.96,0,0,0,2.77-2.767l2.513,2.512a.94.94,0,1,0,1.329-1.329l-2.8-2.8a13.825,13.825,0,0,0-.634-14.355v-8.4a2.949,2.949,0,0,0-2.946-2.946h-2.374V83.963a2.949,2.949,0,0,0-2.946-2.946h-26.2a.94.94,0,1,0,0,1.88h26.2a1.067,1.067,0,0,1,1.066,1.066V86.52H147.7a2.949,2.949,0,0,0-2.946,2.946v48.346h-2.374a1.066,1.066,0,0,1-1.065-1.065V83.963a1.067,1.067,0,0,1,1.065-1.066h10.679a.94.94,0,1,0,0-1.88H142.376a2.949,2.949,0,0,0-2.946,2.946v52.783a2.949,2.949,0,0,0,2.946,2.946h2.374v2.557A2.949,2.949,0,0,0,147.7,145.2h41.268a2.949,2.949,0,0,0,2.946-2.946v-19.8l3.055,3.055a3.838,3.838,0,1,0,5.428-5.428m-27.942-5.685a11.913,11.913,0,1,1,19.922-8.823c0,10.174-12.23,15.821-19.922,8.823m17.58,27.863a1.067,1.067,0,0,1-1.066,1.066H147.7a1.067,1.067,0,0,1-1.065-1.066V89.466A1.066,1.066,0,0,1,147.7,88.4h41.268a1.067,1.067,0,0,1,1.066,1.065v6.166a13.8,13.8,0,1,0-11.058,23.646,13.9,13.9,0,0,0,8.141-1.63l2.917,2.917V142.25Z" transform="translate(-110.947 -64.466)" fill="#5d0b80"/>
            <path id="Trazado_1266067" data-name="Trazado 1266067" d="M194.226,147.572h11.637a.94.94,0,0,0,0-1.88H194.226a.94.94,0,1,0,0,1.88" transform="translate(-153.801 -115.929)" fill="#5d0b80"/>
            <path id="Trazado_1266068" data-name="Trazado 1266068" d="M194.226,173.663h11.637a.94.94,0,0,0,0-1.88H194.226a.94.94,0,1,0,0,1.88" transform="translate(-153.801 -136.69)" fill="#5d0b80"/>
            <path id="Trazado_1266069" data-name="Trazado 1266069" d="M194.226,199.753h11.637a.94.94,0,0,0,0-1.88H194.226a.94.94,0,1,0,0,1.88" transform="translate(-153.801 -157.451)" fill="#5d0b80"/>
            <path id="Trazado_1266070" data-name="Trazado 1266070" d="M194.226,227.582h11.637a.94.94,0,0,0,0-1.88H194.226a.94.94,0,1,0,0,1.88" transform="translate(-153.801 -179.595)" fill="#5d0b80"/>
            <path id="Trazado_1266071" data-name="Trazado 1266071" d="M222.349,281.075h-9.917l-1.13-2.554a10.729,10.729,0,0,0,2.593-12.2h9.059a.94.94,0,1,0,0-1.88H212.838a10.752,10.752,0,1,0-3.072,15.25l1.2,2.7a.94.94,0,0,0,.86.56h10.529a.94.94,0,0,0,0-1.88M203.1,270.606v8.82a8.87,8.87,0,1,1,7.312-14.981h-1.467a.94.94,0,1,0,0,1.88H211.8a8.8,8.8,0,0,1,1.056,3.341h-8.82A.94.94,0,0,0,203.1,270.606Zm1.88,8.82v-7.88h7.88a8.841,8.841,0,0,1-2.368,5.138l-.688-1.553a.94.94,0,1,0-1.719.761l.913,2.063A8.816,8.816,0,0,1,204.976,279.426Z" transform="translate(-153.801 -206.771)" fill="#5d0b80"/>
            <path id="Trazado_1266072" data-name="Trazado 1266072" d="M340.849,307.877h-6a.94.94,0,0,0,0,1.88h6a.94.94,0,0,0,0-1.88" transform="translate(-265.698 -244.983)" fill="#5d0b80"/>
            <path id="Trazado_1266073" data-name="Trazado 1266073" d="M340.849,330.488h-6a.94.94,0,0,0,0,1.88h6a.94.94,0,0,0,0-1.88" transform="translate(-265.698 -262.974)" fill="#5d0b80"/>
            <path id="Trazado_1266074" data-name="Trazado 1266074" d="M66.5,127.6c-1.357,1.213-2.7,2.378-3.991,3.461l-2.582,2.166H74.705v-2.453H66.614q.756-.661,1.522-1.346c1.4-1.249,2.564-2.361,3.448-3.288q1.716-1.74,3.121-3.422v-4a47.216,47.216,0,0,1-4.882,5.717c-.854.9-1.972,1.961-3.323,3.168" transform="translate(-47.685 -94.467)" fill="#5d0b80"/>
            <path id="Trazado_1266075" data-name="Trazado 1266075" d="M27.021,44.6H2.453V38.043c1.77-1.5,3.349-2.861,4.7-4.041,1.492-1.3,2.822-2.495,3.953-3.542s2.145-2.018,3.018-2.891,1.675-1.718,2.411-2.541c.589-.673,1.193-1.4,1.794-2.146a23.057,23.057,0,0,0,1.66-2.357A13.436,13.436,0,0,0,21.2,18a8.147,8.147,0,0,0,.478-2.7,6.42,6.42,0,0,0-1.908-4.771A7.541,7.541,0,0,0,14.294,8.67a26.233,26.233,0,0,0-5.706.721,25.081,25.081,0,0,0-4.718,1.6L3.564,4.654A46.034,46.034,0,0,1,9.172,3.087a30.466,30.466,0,0,1,6.19-.634A25.465,25.465,0,0,1,21.8,3.23a14.558,14.558,0,0,1,4.9,2.224,10.356,10.356,0,0,1,3.092,3.569,10.694,10.694,0,0,1,1.116,5.02c0,.378-.021.76-.059,1.146h2.463c.031-.385.049-.767.049-1.146a13.107,13.107,0,0,0-1.4-6.163,12.788,12.788,0,0,0-3.818-4.409A16.992,16.992,0,0,0,22.426.857,27.906,27.906,0,0,0,15.362,0,32.9,32.9,0,0,0,8.673.686a49.508,49.508,0,0,0-6.8,1.964l-.85.309L1.6,14.9,3.309,14a23.666,23.666,0,0,1,5.821-2.212,23.792,23.792,0,0,1,5.163-.661,5.24,5.24,0,0,1,3.759,1.157A4,4,0,0,1,19.224,15.3a5.7,5.7,0,0,1-.339,1.886,10.951,10.951,0,0,1-.989,2.06,20.594,20.594,0,0,1-1.482,2.1c-.579.723-1.159,1.417-1.715,2.053-.7.779-1.474,1.6-2.309,2.432-.851.851-1.844,1.8-2.95,2.826s-2.426,2.207-3.9,3.494C4.088,33.421,2.37,34.9.433,36.54L0,36.907v10.15H27.021Z" transform="translate(0 0)" fill="#5d0b80"/>
          </g>
        </g>
      </g>
    </g>
  </g>
</svg>
