<svg xmlns="http://www.w3.org/2000/svg" xmlns:xlink="http://www.w3.org/1999/xlink" width="84" height="80.124" viewBox="0 0 84 80.124">
  <defs>
    <clipPath id="clip-path">
      <rect id="Rectángulo_458373" data-name="Rectángulo 458373" width="84" height="74.812" fill="#fff"/>
    </clipPath>
  </defs>
  <g id="Grupo_1099776" data-name="Grupo 1099776" transform="translate(2.289 -0.277)">
    <g id="Grupo_1099618" data-name="Grupo 1099618" transform="translate(0.711 0.277)">
      <rect id="Rectángulo_401104" data-name="Rectángulo 401104" width="79.17" height="80.124" transform="translate(0)" fill="none"/>
    </g>
    <g id="Grupo_1207544" data-name="Grupo 1207544" transform="translate(-2.289 2.277)">
      <g id="Grupo_1207543" data-name="Grupo 1207543" clip-path="url(#clip-path)">
        <path id="Trazado_1266433" data-name="Trazado 1266433" d="M46.318,12.4c9.953-4.037,21.932,2.162,24.167,12.67A18.07,18.07,0,0,1,47.039,46.24c-.125.839.366,2.822-.48,3.239a1.273,1.273,0,0,1-1.915-.727c-.456-2.407.755-8.2-.6-9.963a2.741,2.741,0,0,0-1.261-.9L3.9,38.022A3.152,3.152,0,0,0,2.4,40.354c-.061,8.058.045,13.5.005,23.524-.008,1.814.962,2.6,2.751,2.768,3.947.368,8.343-.423,12.329.15l5.951,5.583c.653.115,5.017-5.438,6.31-5.639l13.228-.21a2.826,2.826,0,0,0,1.61-1.99c.351-1.937-.389-11.017.354-11.764.824-.827,1.971-.207,2.1,1.017a74.911,74.911,0,0,1-.015,11.268,5.159,5.159,0,0,1-4.415,3.984c-3.821.338-8.088-.314-11.958.041-1.335.3-4.262,4.435-5.7,5.338-3.1,1.948-5.954-4.052-8.375-5.282-3.946-.526-8.5.337-12.372-.107A4.9,4.9,0,0,1,0,64.6C-.012,53.532.2,47.666.023,39.661a5.442,5.442,0,0,1,3.161-4.038C3.4,35.542,4.8,35.2,4.921,35.2H36c-1.4-3.522-1.227-7.389-.481-11.038-2.312-.268-3.618,3.95-5.873,3.855-1.547-.065-3.274-3-4.614-3.807-4.5-.629-11.281,2.048-11.838-4.48a116.9,116.9,0,0,1,0-15.136C13.367,2.377,14.264.52,16.7.184,18.072,0,23.074-.389,21.9,2.026c-.664,1.37-5.085-.4-6.017,1.423l-.057,16.524a2.09,2.09,0,0,0,.365,1.315c.7.694,7.768-.2,9.6.48,1.108.412,3.354,3.484,3.879,3.576l4.053-3.576c2.738-.79,6.455.238,9.113-.246.772-.14.794-.91.851-1.549.465-5.185-.365-11.063-.016-16.325a1.554,1.554,0,0,0-1.549-1.09H25.565c-1.67-.823-1.147-2.236.7-2.406C31.506-.33,37.5.516,42.817.184a4.183,4.183,0,0,1,3.5,3.7Zm.761,31.157a15.552,15.552,0,1,0-.613-28.543c-.531,2.209.463,5.414-.867,7.346C43.782,25,40.807,23.82,38.131,24.3a16.741,16.741,0,0,0-.3,8.7c.792,3.146,1.167,1.937,3.8,2.2,5.192.515,5.711,3.755,5.444,8.356" transform="translate(0 0)" fill="#fff"/>
        <path id="Trazado_1266434" data-name="Trazado 1266434" d="M233.732,205.909l23.11.058a3.6,3.6,0,0,1,2.393,3.126,97.53,97.53,0,0,1,.009,13.689c-.462,5.228-6.39,2.963-9.92,3.519-1.212.709-2.7,3.323-4.129,3.323s-2.917-2.615-4.129-3.323c-3.021-.479-9.374,1.457-9.915-3.043a99.175,99.175,0,0,1,0-14.41,3.7,3.7,0,0,1,2.58-2.939m22.806,2.642-22.581-.076c-.373.237-.377.925-.41,1.329a96.041,96.041,0,0,0,0,12.5,2.668,2.668,0,0,0,.231,1.15c.546.863,6.6.131,8.008.45,1.124.254,2.692,2.838,3.41,2.838,1.172-.44,2.23-2.571,3.41-2.838,1.707-.386,6.744.415,7.829-.271.373-.236.376-.926.409-1.329a96.376,96.376,0,0,0,0-12.5,2.324,2.324,0,0,0-.307-1.253" transform="translate(-175.481 -156.495)" fill="#fff"/>
        <path id="Trazado_1266435" data-name="Trazado 1266435" d="M82.1,191.929c-.413-.583-.027-2.916.239-3.617.842-2.216,4.411-2.858,3.441-5.942-.441-1.4-2.9-1.446-4.036-.893-.76.371-1.748,2.193-2.837.808-1.351-1.719,1.955-3.583,3.5-3.739,5.009-.5,8.367,3.2,5.016,7.656-.653.868-2.15,1.876-2.6,2.68-.854,1.528.392,4.336-2.728,3.048" transform="translate(-59.73 -135.663)" fill="#fff"/>
        <path id="Trazado_1266436" data-name="Trazado 1266436" d="M92.092,243.684c2.957-.665,2.719,4.175-.247,3.264-1.159-.356-1.324-2.91.247-3.264" transform="translate(-69.119 -185.157)" fill="#fff"/>
        <path id="Trazado_1266437" data-name="Trazado 1266437" d="M214.178,89.764a1.988,1.988,0,0,1-.3-1.018,76.858,76.858,0,0,1-.24-11.047c.225-2.123,3.283-1.688,3.363.239l-.483,11.285c-.176.948-1.622,1.041-2.343.542" transform="translate(-162.285 -57.981)" fill="#fff"/>
        <path id="Trazado_1266438" data-name="Trazado 1266438" d="M214.533,141.673a1.739,1.739,0,0,1,1.449,3.134c-2.677,1.232-3.9-2.6-1.449-3.134" transform="translate(-162.042 -107.625)" fill="#fff"/>
        <path id="Trazado_1266439" data-name="Trazado 1266439" d="M284.092,245.523a1.289,1.289,0,0,1,1.76-1.879c1.395.988-.525,3.115-1.76,1.879" transform="translate(-215.639 -184.943)" fill="#fff"/>
        <path id="Trazado_1266440" data-name="Trazado 1266440" d="M263.648,245.523a1.289,1.289,0,0,1,1.76-1.879c1.395.988-.525,3.115-1.76,1.879" transform="translate(-200.101 -184.943)" fill="#fff"/>
        <path id="Trazado_1266441" data-name="Trazado 1266441" d="M306.759,245.523a1.289,1.289,0,0,1,1.76-1.879c1.395.988-.525,3.115-1.76,1.879" transform="translate(-232.866 -184.943)" fill="#fff"/>
        <path id="Trazado_1266442" data-name="Trazado 1266442" d="M95.7,27.406H75.007a1.28,1.28,0,1,1,0-2.56H95.7a1.28,1.28,0,0,1,0,2.56" transform="translate(-56.034 -18.883)" fill="#fff"/>
        <path id="Trazado_1266443" data-name="Trazado 1266443" d="M95.7,46.073H75.007a1.28,1.28,0,1,1,0-2.56H95.7a1.28,1.28,0,0,1,0,2.56" transform="translate(-56.034 -33.071)" fill="#fff"/>
        <path id="Trazado_1266444" data-name="Trazado 1266444" d="M84.5,67.851H75.007a1.28,1.28,0,0,1,0-2.56H84.5a1.28,1.28,0,0,1,0,2.56" transform="translate(-56.034 -49.623)" fill="#fff"/>
      </g>
    </g>
  </g>
</svg>
