<svg xmlns="http://www.w3.org/2000/svg" xmlns:xlink="http://www.w3.org/1999/xlink" width="208" height="345.333" viewBox="0 0 208 345.333">
  <defs>
    <clipPath id="clip-path">
      <rect id="Rectángulo_458150" data-name="Rectángulo 458150" width="206.975" height="247.021" fill="none"/>
    </clipPath>
    <clipPath id="clip-path-2">
      <rect id="Rectángulo_458154" data-name="Rectángulo 458154" width="206.975" height="345.332" fill="none"/>
    </clipPath>
  </defs>
  <g id="Grupo_1207274" data-name="Grupo 1207274" transform="translate(-695.711 -2951)">
    <g id="Grupo_1207233" data-name="Grupo 1207233" transform="translate(653.855 3038.713)">
      <g id="Grupo_1204235" data-name="Grupo 1204235" transform="translate(41.855 -87.712)">
        <path id="Trazado_1263184" data-name="Trazado 1263184" d="M0,0H208V345.333H0Z" fill="#fbf1ff"/>
      </g>
      <g id="Grupo_1207273" data-name="Grupo 1207273" transform="translate(-2.864 -87.713)">
        <g id="Grupo_1207270" data-name="Grupo 1207270" transform="translate(45.432 63.726)">
          <g id="Grupo_1207269" data-name="Grupo 1207269" clip-path="url(#clip-path)">
            <path id="Trazado_1265285" data-name="Trazado 1265285" d="M68.563,410.563c-4.734-13.114-13.246-22.666-21.635-31.534S29.8,361.232,24.27,348.736,17.2,319.053,23.5,307.293c4.725-8.815,12.347-13.43,18.452-20.039C52.182,276.18,61.375,260.919,60.2,241.813c-1.386-22.62-3.594-48.825,6.918-68.222,13.23-24.411,38.132-20.005,53.259-2.317,8.724,10.2,15.456,24.578,25.345,32.769,10.273,8.51,20.642,14.527,32.777,15.412,16.428,1.2,33.867-9.193,49.688-.162,12.323,7.035,22.051,23.289,19.659,42.7-2.388,19.386-10.193,42.929-.279,60.7,5.743,10.291,18.2,17.267,20.868,29.768,4.3,20.163-4.466,43.968-18.72,50.838" transform="translate(-35.648 -120.272)" fill="#f4f5ff"/>
            <ellipse id="Elipse_13700" data-name="Elipse 13700" cx="1.405" cy="1.96" rx="1.405" ry="1.96" transform="translate(131.761 204.198)" fill="none" stroke="#d5dcf7" stroke-miterlimit="10" stroke-width="1.5"/>
            <path id="Trazado_1265286" data-name="Trazado 1265286" d="M109.293,299.33c0,1.083-.629,1.96-1.405,1.96s-1.405-.877-1.405-1.96.629-1.96,1.405-1.96S109.293,298.248,109.293,299.33Z" transform="translate(-68.383 -174.008)" fill="none" stroke="#d5dcf7" stroke-miterlimit="10" stroke-width="1.5"/>
            <path id="Trazado_1265287" data-name="Trazado 1265287" d="M136.608,141.434c0,1.083-.629,1.96-1.405,1.96s-1.405-.877-1.405-1.96.629-1.96,1.405-1.96S136.608,140.352,136.608,141.434Z" transform="translate(-78.651 -113.719)" fill="none" stroke="#d5dcf7" stroke-miterlimit="10" stroke-width="1.5"/>
            <path id="Trazado_1265288" data-name="Trazado 1265288" d="M52.541,208.239c0,1.083-.629,1.96-1.405,1.96s-1.405-.877-1.405-1.96.629-1.96,1.405-1.96S52.541,207.157,52.541,208.239Z" transform="translate(-47.048 -139.227)" fill="none" stroke="#d5dcf7" stroke-miterlimit="10" stroke-width="1.5"/>
            <line id="Línea_3689" data-name="Línea 3689" x2="18.783" transform="translate(195.475 181.008)" fill="none" stroke="#d5dcf7" stroke-miterlimit="10" stroke-width="1.5"/>
            <line id="Línea_3690" data-name="Línea 3690" x2="27.44" transform="translate(160.968 181.008)" fill="none" stroke="#d5dcf7" stroke-miterlimit="10" stroke-width="1.5"/>
            <line id="Línea_3691" data-name="Línea 3691" x2="27.44" transform="translate(32.674 64.471)" fill="none" stroke="#d5dcf7" stroke-miterlimit="10" stroke-width="1.5"/>
            <line id="Línea_3692" data-name="Línea 3692" x2="18.47" transform="translate(5.901 32.943)" fill="none" stroke="#d5dcf7" stroke-miterlimit="10" stroke-width="1.5"/>
            <path id="Trazado_1265289" data-name="Trazado 1265289" d="M290.96,445.423H280.5c-1.659,0-3-1.876-3-4.191s1.345-4.191,3-4.191H290.96c1.659,0,3,1.876,3,4.191S292.619,445.423,290.96,445.423Z" transform="translate(-132.673 -227.339)" fill="none" stroke="#d5dcf7" stroke-miterlimit="10" stroke-width="1.5"/>
            <path id="Trazado_1265290" data-name="Trazado 1265290" d="M186.681,142H176.222c-1.659,0-3-1.876-3-4.191s1.345-4.191,3-4.191h10.459c1.659,0,3,1.876,3,4.191S188.34,142,186.681,142Z" transform="translate(-93.471 -111.485)" fill="none" stroke="#d5dcf7" stroke-miterlimit="10" stroke-width="1.5"/>
            <path id="Trazado_1265291" data-name="Trazado 1265291" d="M93.5,178.975H65.087a6.2,6.2,0,1,1,0-12.408H93.5a6.2,6.2,0,1,1,0,12.408Z" transform="translate(-50.467 -124.064)" fill="none" stroke="#d5dcf7" stroke-miterlimit="10" stroke-width="1.5"/>
          </g>
        </g>
        <rect id="Rectángulo_458151" data-name="Rectángulo 458151" width="48.089" height="68.92" transform="translate(197.927 35.149)" fill="#f99c6e"/>
        <g id="Grupo_1207272" data-name="Grupo 1207272" transform="translate(45.432 0.001)">
          <g id="Grupo_1207271" data-name="Grupo 1207271" clip-path="url(#clip-path-2)">
            <path id="Trazado_1265292" data-name="Trazado 1265292" d="M277.972,55.751c0,27.706-3.007,51.284-15.036,73.9H312.93c12.029-22.62,15.036-46.2,15.036-73.9Z" transform="translate(-127.199 -20.959)" fill="#e5e7fc"/>
            <ellipse id="Elipse_13701" data-name="Elipse 13701" cx="12.357" cy="12.357" rx="12.357" ry="12.357" transform="matrix(0.189, -0.982, 0.982, 0.189, 153.247, 75.969)" fill="none" stroke="#fff" stroke-miterlimit="10" stroke-width="1.5"/>
            <path id="Trazado_1265293" data-name="Trazado 1265293" d="M314.181,86.236V98.592s6.84-3.3,11.1-5.436a12.356,12.356,0,0,0-11.1-6.92" transform="translate(-146.464 -32.42)" fill="#fff"/>
            <path id="Trazado_1265294" data-name="Trazado 1265294" d="M317.912,78.421V90.777s6.84-3.3,11.1-5.436a12.356,12.356,0,0,0-11.1-6.92" transform="translate(-147.866 -29.482)" fill="#ced3ef"/>
            <line id="Línea_3693" data-name="Línea 3693" x2="5.876" y2="10.843" transform="translate(168.06 66.007)" fill="none" stroke="#fff" stroke-miterlimit="10" stroke-width="1.5"/>
            <line id="Línea_3694" data-name="Línea 3694" x2="33.295" transform="translate(161.1 42.735)" fill="none" stroke="#ced3ef" stroke-miterlimit="10" stroke-width="1.5"/>
            <line id="Línea_3695" data-name="Línea 3695" x2="33.295" transform="translate(152.916 88.449)" fill="none" stroke="#ced3ef" stroke-miterlimit="10" stroke-width="1.5"/>
            <line id="Línea_3696" data-name="Línea 3696" x2="33.295" transform="translate(151.07 93.233)" fill="none" stroke="#ced3ef" stroke-miterlimit="10" stroke-width="1.5"/>
            <line id="Línea_3697" data-name="Línea 3697" x2="14.994" transform="translate(166.738 99.608)" fill="none" stroke="#ced3ef" stroke-miterlimit="10" stroke-width="1.5"/>
            <path id="Trazado_1265295" data-name="Trazado 1265295" d="M329.243,85.6H340.7v6.175" transform="translate(-152.126 -32.182)" fill="none" stroke="#fff" stroke-miterlimit="10" stroke-width="1.5"/>
            <line id="Línea_3698" data-name="Línea 3698" x2="14.967" transform="translate(175.898 71.428)" fill="none" stroke="#fff" stroke-miterlimit="10" stroke-width="1.5"/>
            <path id="Trazado_1265296" data-name="Trazado 1265296" d="M305.464,120.234l-1.219,6.094h20.069" transform="translate(-142.729 -45.201)" fill="none" stroke="#fff" stroke-miterlimit="10" stroke-width="1.5"/>
            <path id="Trazado_1265297" data-name="Trazado 1265297" d="M265.826,49.8c0,9.757,1.11,18.061-4.082,26.027H283.32c5.192-7.966,4.082-16.27,4.082-26.027Z" transform="translate(-126.751 -18.723)" fill="#fcde9d"/>
            <path id="Trazado_1265298" data-name="Trazado 1265298" d="M272.766,60.466l2.535-1.138c.664-.3,1.544-.558,2.035-.021.233.255.3.627.518.894a1.509,1.509,0,0,0,1.755.2c.579-.257,1.076-.685,1.676-.884a5.974,5.974,0,0,1,2.417-.034c1.931.173,5.4.129,5.4.129" transform="translate(-130.895 -22.179)" fill="none" stroke="#fff" stroke-miterlimit="10" stroke-width="1.5"/>
            <line id="Línea_3699" data-name="Línea 3699" x1="15.39" transform="translate(142.106 41.507)" fill="none" stroke="#fff" stroke-miterlimit="10" stroke-width="1.5"/>
            <line id="Línea_3700" data-name="Línea 3700" x1="15.39" transform="translate(141.492 45.751)" fill="none" stroke="#fff" stroke-miterlimit="10" stroke-width="1.5"/>
            <line id="Línea_3701" data-name="Línea 3701" x1="7.695" transform="translate(147.872 50.659)" fill="none" stroke="#fff" stroke-miterlimit="10" stroke-width="1.5"/>
            <path id="Trazado_1265299" data-name="Trazado 1265299" d="M296.7,43.65q-.7,3.047-1.7,6.016a1.173,1.173,0,0,1-.4.654.814.814,0,0,1-1.1-.492,2.263,2.263,0,0,1,.06-1.361,37.776,37.776,0,0,1,1.559-4.687,3.726,3.726,0,0,1,.867-1.43,1.364,1.364,0,0,1,1.555-.257,1.817,1.817,0,0,1,.665,1.528,15.5,15.5,0,0,1-.676,4.511q-.325,1.282-.648,2.564" transform="translate(-138.659 -15.769)" fill="none" stroke="#fbad27" stroke-miterlimit="10" stroke-width="0.75"/>
            <path id="Trazado_1265300" data-name="Trazado 1265300" d="M96.187,348.121a457.391,457.391,0,0,1,5.41,107.633l-3.819.575a457.373,457.373,0,0,0-3.344-107.717" transform="translate(-63.853 -130.872)" fill="#7e9b6e"/>
            <path id="Trazado_1265301" data-name="Trazado 1265301" d="M117,311.843a640.249,640.249,0,0,0-5.238,119.593l3.359.623a640.567,640.567,0,0,1,3.421-119.677" transform="translate(-70.068 -117.234)" fill="#a8c38b"/>
            <path id="Trazado_1265302" data-name="Trazado 1265302" d="M130.24,405.421c-7.5,20.5-9.45,42.157-10.011,63.84l3.1.76c1.121-21.385,2.086-43.385,9.034-64.027" transform="translate(-73.551 -152.413)" fill="#7e9b6e"/>
            <path id="Trazado_1265303" data-name="Trazado 1265303" d="M93.913,429.748c4.825,20.137,4,40.7,1.789,61.118l-3.168.346c1.615-20.208,3.464-40.975-.8-61.178" transform="translate(-62.84 -161.558)" fill="#a8c38b"/>
            <path id="Trazado_1265304" data-name="Trazado 1265304" d="M86.688,352.727c-.828-6.488-7.49-7.451-12.508-8.663-6.814-1.647-12.085-4.478-19.41-3.3-7.541,1.218-14.592,5.924-18,12.758-2.415,4.837-5.935,20.549-5.247,21.251.5.507,10.12-1.8,11.847-1.8.268,0,1.316-4.586,1.521-5.081.793-1.916,2.2-4.8,4.516-5.066a1.669,1.669,0,0,1,1.038.152,2.06,2.06,0,0,1,.763,1.6,22.75,22.75,0,0,1-.316,7.578c2.8-.638,5.568-1.47,8.281-2.347q9-2.912,17.777-6.485a22.742,22.742,0,0,0,6.764-3.748,8.18,8.18,0,0,0,2.979-6.853m-29.2,9.259a7.2,7.2,0,0,1-1.226.359c-.188-1.779,1.522-5.132,3.9-3.908,2.155,1.108-1.415,3.057-2.678,3.549" transform="translate(-40.169 -128.002)" fill="#7e9b6e"/>
            <path id="Trazado_1265305" data-name="Trazado 1265305" d="M31.316,376.471a74.9,74.9,0,0,1,29.229-26.437c3.689-1.827,7.507-3.3,11.32-4.78" transform="translate(-40.125 -129.794)" fill="none" stroke="#54683c" stroke-linejoin="round" stroke-width="1.5"/>
            <path id="Trazado_1265306" data-name="Trazado 1265306" d="M38.852,360.93a42.243,42.243,0,0,1,17.826-2.491" transform="translate(-42.958 -134.704)" fill="none" stroke="#54683c" stroke-linejoin="round" stroke-width="1.5"/>
            <path id="Trazado_1265307" data-name="Trazado 1265307" d="M57.964,344.022a22,22,0,0,1,8.476-.194,14.114,14.114,0,0,1,7.466,3.852" transform="translate(-50.143 -129.135)" fill="none" stroke="#54683c" stroke-linejoin="round" stroke-width="1.5"/>
            <path id="Trazado_1265308" data-name="Trazado 1265308" d="M87.8,348.62c6.88.431,12.942,4.078,13.672,11.455a8.7,8.7,0,0,1-.869,5.169" transform="translate(-61.361 -131.059)" fill="none" stroke="#54683c" stroke-linejoin="round" stroke-width="1.5"/>
            <path id="Trazado_1265309" data-name="Trazado 1265309" d="M62.883,362.076a30.071,30.071,0,0,1,2.9,17.391" transform="translate(-51.992 -136.118)" fill="none" stroke="#54683c" stroke-linejoin="round" stroke-width="1.5"/>
            <path id="Trazado_1265310" data-name="Trazado 1265310" d="M121.589,416.355a1.318,1.318,0,0,1,.2-.723c.387-.565,1.232-.519,1.89-.328,4.843,1.406,7.41,6.742,11.763,9.287,2.371,1.386,5.144,1.868,7.836,2.416a124.361,124.361,0,0,1,15.274,4.138q-.783-5.915-2.1-11.742a20.948,20.948,0,0,0-2.023-5.9c-2.836-4.93-8.743-6.963-13.9-9.359-1.018-.473-2.179-1.223-2.122-2.344.07-1.383,1.864-1.887,3.248-1.838a16.792,16.792,0,0,1,7.8,2.249c-.4-.234-.829-1.223-1.125-1.611q-.649-.852-1.372-1.644a25.138,25.138,0,0,0-3.145-2.9A25.783,25.783,0,0,0,136.292,392c-2.709-.921-5.565-1.795-8.457-1.486a24.5,24.5,0,0,0-7.226,1.927c-2,.878-3.769,2.551-5.961,2.921a30.269,30.269,0,0,1-3.7.21c-7.947.359-17.469,7.451-13.669,16.437a13.11,13.11,0,0,0,4.9,5.534c7,4.735,16.03,4.821,24.167,7.107-2.254-2.227-4.538-4.821-4.745-7.982-.007-.1-.011-.207-.008-.311m15.969-19.415a1.249,1.249,0,0,1-.4,1.1,5.592,5.592,0,0,1-2.39,1.146c-2.992.8-9.6.911-5.969-2.125,3.229-2.7,8.429-2.227,8.763-.123" transform="translate(-64.598 -146.785)" fill="#7e9b6e"/>
            <path id="Trazado_1265311" data-name="Trazado 1265311" d="M125.632,398.319c3.346,1.189,8.424,4.128,12.4,6.428,12.983,7.512,21.4,16.126,31.522,29.406" transform="translate(-75.582 -149.743)" fill="none" stroke="#54683c" stroke-linejoin="round" stroke-width="1.5"/>
            <path id="Trazado_1265312" data-name="Trazado 1265312" d="M113.1,424.045a17.509,17.509,0,0,1,9.89-23.94" transform="translate(-70.251 -150.414)" fill="none" stroke="#54683c" stroke-linejoin="round" stroke-width="1.5"/>
            <path id="Trazado_1265313" data-name="Trazado 1265313" d="M162.816,436.461A16.082,16.082,0,0,1,160.5,418.85" transform="translate(-88.075 -157.461)" fill="none" stroke="#54683c" stroke-linejoin="round" stroke-width="1.5"/>
            <path id="Trazado_1265314" data-name="Trazado 1265314" d="M170.447,426.884a20.291,20.291,0,0,1,13.037,3.025" transform="translate(-92.429 -160.436)" fill="none" stroke="#54683c" stroke-linejoin="round" stroke-width="1.5"/>
            <path id="Trazado_1265315" data-name="Trazado 1265315" d="M135.055,399.99a19.126,19.126,0,0,1,10.044-4.372,30.27,30.27,0,0,1,11.115.722" transform="translate(-79.124 -148.64)" fill="none" stroke="#54683c" stroke-linejoin="round" stroke-width="1.5"/>
            <path id="Trazado_1265316" data-name="Trazado 1265316" d="M75.665,425.412c-3.8-2.393-8.575-2.617-13.037-2.128a6.176,6.176,0,0,1-1.794.033,5.931,5.931,0,0,1-2.053-.974l-.1-.065c-4.364-2.806-9.106-5.887-14.286-6.885-8.861-1.707-18.351,2.13-25.346,7.51a32.761,32.761,0,0,1,4.609-.154,14.757,14.757,0,0,1,6.095,1.313,5.31,5.31,0,0,1,2.717,2.707,2.874,2.874,0,0,1-1.038,3.454,4.321,4.321,0,0,1-1.917.417c-4.649.251-9.314-.177-13.965.054a36.136,36.136,0,0,0-4.858.552A75,75,0,0,0,.563,449.016c-.06.145,15.089,3.872,16.492,4.128a100.924,100.924,0,0,0,16.881,1.724,88.9,88.9,0,0,0,21.029-2.642c6.8-1.588,14.118-3.794,19.628-8.263,5.885-4.775,8.743-13.716,1.072-18.55M35.951,424.09a2.057,2.057,0,0,1-.895-1.7c.261-4.072,7.958-2.1,9.324.427,2.217,4.113-6.749,2.526-8.429,1.277M56.8,443.608a10.022,10.022,0,0,1-3.238,3.645c-1.708,1.223-5.171,2.932-7.16,1.527-.873-.617-.083-1.917.373-2.659a12.4,12.4,0,0,1,4.589-4.4c1.281-.69,4.3-2.307,5.374-.534a2.559,2.559,0,0,1,.062,2.418" transform="translate(-28.564 -156.007)" fill="#a8c38b"/>
            <path id="Trazado_1265317" data-name="Trazado 1265317" d="M60.245,428.79c-5.511,3.3-11.493,5.527-17.434,7.918C28.6,442.425,14.255,447.824.311,454.172" transform="translate(-28.469 -161.198)" fill="none" stroke="#54683c" stroke-linejoin="round" stroke-width="1.5"/>
            <path id="Trazado_1265318" data-name="Trazado 1265318" d="M48.624,464.519a64.036,64.036,0,0,0,7.749-8.535A33.7,33.7,0,0,0,62.316,440.9" transform="translate(-46.632 -165.752)" fill="none" stroke="#54683c" stroke-linejoin="round" stroke-width="1.5"/>
            <path id="Trazado_1265319" data-name="Trazado 1265319" d="M88.456,432.891c10.242,1.7,13.679,14.214,10.023,22.823" transform="translate(-61.606 -162.74)" fill="none" stroke="#54683c" stroke-linejoin="round" stroke-width="1.5"/>
            <path id="Trazado_1265320" data-name="Trazado 1265320" d="M143.444,315.511c-2.2-2.8-5.051-5.527-8.436-6.779a12.34,12.34,0,0,0-8.507-.055,23.428,23.428,0,0,0-5.275-1.981,11.078,11.078,0,0,0-7.61.768,6.946,6.946,0,0,0-3.786,6.344c.209,2.764,2.372,4.98,4.661,6.543a25.129,25.129,0,0,0,8.592,3.745,7.441,7.441,0,0,1,6.445-6.019,2.35,2.35,0,0,1,1.749.33,1.783,1.783,0,0,1,.572,1.639,3.648,3.648,0,0,1-.758,1.631c-.769,1.033-4.364,3.615-3.608,5.177.2.416.966.568,1.362.7a67.587,67.587,0,0,0,7.724,1.852c3.278.675,6.76,1.007,9.976,1.934.386-5.19.253-11.573-3.1-15.831m-18.2,1.724a7.6,7.6,0,0,1-4.578.13c-.579-.17-1.211-.5-1.323-1.094a1.216,1.216,0,0,1,.434-1.092,2.759,2.759,0,0,1,1.095-.535c1.412-.405,4.954-.79,5.967.7.019.028.037.056.054.086.533.905-1.025,1.6-1.649,1.81" transform="translate(-69.635 -115.174)" fill="#a8c38b"/>
            <path id="Trazado_1265321" data-name="Trazado 1265321" d="M136.795,310.035s14.959,13.524,20.044,22.665" transform="translate(-79.778 -116.554)" fill="none" stroke="#54683c" stroke-linejoin="round" stroke-width="1.5"/>
            <path id="Trazado_1265322" data-name="Trazado 1265322" d="M114.477,321.892a7.676,7.676,0,0,1,3.219-6.428,11.688,11.688,0,0,1,7-2.066,27.82,27.82,0,0,1,7.294,1.233" transform="translate(-71.384 -117.818)" fill="none" stroke="#54683c" stroke-linejoin="round" stroke-width="1.5"/>
            <path id="Trazado_1265323" data-name="Trazado 1265323" d="M146.213,336.848a10.633,10.633,0,0,1,2.3-6.445,5.865,5.865,0,0,1,3.115-2.079" transform="translate(-83.319 -123.429)" fill="none" stroke="#54683c" stroke-linejoin="round" stroke-width="1.5"/>
            <path id="Trazado_1265324" data-name="Trazado 1265324" d="M149.089,322.1a15.006,15.006,0,0,1,11.36,3.206" transform="translate(-84.4 -121.041)" fill="none" stroke="#54683c" stroke-linejoin="round" stroke-width="1.5"/>
            <rect id="Rectángulo_458152" data-name="Rectángulo 458152" width="50.293" height="32.289" transform="translate(18.879 300.856)" fill="#fff"/>
            <line id="Línea_3702" data-name="Línea 3702" x2="30.429" transform="translate(18.916 308.286)" fill="none" stroke="#7983ed" stroke-miterlimit="10" stroke-width="1.5"/>
            <line id="Línea_3703" data-name="Línea 3703" x2="11.88" transform="translate(57.291 308.286)" fill="none" stroke="#7983ed" stroke-miterlimit="10" stroke-width="1.5"/>
            <line id="Línea_3704" data-name="Línea 3704" x2="50.293" transform="translate(18.879 333.146)" fill="none" stroke="#7983ed" stroke-miterlimit="10" stroke-width="2"/>
            <line id="Línea_3705" data-name="Línea 3705" y2="109.206" transform="translate(18.879 300.856)" fill="none" stroke="#7983ed" stroke-miterlimit="10" stroke-width="2"/>
            <line id="Línea_3706" data-name="Línea 3706" y2="109.206" transform="translate(69.172 300.856)" fill="none" stroke="#7983ed" stroke-miterlimit="10" stroke-width="2"/>
            <line id="Línea_3707" data-name="Línea 3707" y2="76.917" transform="translate(53.533 333.146)" fill="none" stroke="#7983ed" stroke-miterlimit="10" stroke-width="2"/>
            <path id="Trazado_1265325" data-name="Trazado 1265325" d="M172.168,450.3l2.411,194.41-39.6-4.325L120.258,453.765" transform="translate(-73.562 -169.284)" fill="#f18c76"/>
            <path id="Trazado_1265326" data-name="Trazado 1265326" d="M255.374,455.305l29.41,191.51-41.656-4.549L204.886,455.647" transform="translate(-105.376 -171.166)" fill="#f18c76"/>
            <path id="Trazado_1265327" data-name="Trazado 1265327" d="M141.92,351.25s-16.858,18.338-21.853,41.59c-3.035,14.129,1.563,55.116,1.563,55.116H231.284s-5.042-32.026-10.076-48.353-18.172-42.876-18.172-42.876" transform="translate(-73.1 -132.048)" fill="#292749"/>
            <path id="Trazado_1265328" data-name="Trazado 1265328" d="M135.953,449.278s-4.564-43.871-.859-57.6c4.1-15.2,14.354-36.91,14.354-36.91" transform="translate(-78.594 -133.37)" fill="none" stroke="#434375" stroke-miterlimit="10" stroke-width="1.5"/>
            <path id="Trazado_1265329" data-name="Trazado 1265329" d="M157.079,445.573q26.666,8.489,53.779,15.98" transform="translate(-87.404 -167.507)" fill="none" stroke="#434375" stroke-miterlimit="10" stroke-width="1.5"/>
            <path id="Trazado_1265330" data-name="Trazado 1265330" d="M202.651,440.857a279.656,279.656,0,0,0,32.036,2.745" transform="translate(-104.536 -165.734)" fill="none" stroke="#434375" stroke-miterlimit="10" stroke-width="1.5"/>
            <path id="Trazado_1265331" data-name="Trazado 1265331" d="M306.78,199.576c.579-5.806,2.549-10.026,5.092-15.277a81.251,81.251,0,0,0,5.151-14.248c.211-.828.476-1.82,1.291-2.074,1.165-.361,2.018,1.112,2.253,2.308a18.611,18.611,0,0,1-.012,7.2A30.11,30.11,0,0,1,335.81,163.62c1.217-.493,1.6,1.161.925,2.686a4.423,4.423,0,0,1-1.43,1.54,24.277,24.277,0,0,0-7.708,10.419,27.2,27.2,0,0,1,16.795-10.741.9.9,0,0,1,.758.085.816.816,0,0,1,.2.672,2.9,2.9,0,0,1-2.114,2.959c.892-.2.837,1.146.685,2.048a17.229,17.229,0,0,1-2.749,4.563,26.847,26.847,0,0,0-5.951,7.968c.424-.8,1.822-1.625,2.516-2.212.982-.831,1.987-1.638,3.042-2.373s2.967-2.323,4.3-2.27c2.616.106-1.3,4.309-2.039,4.954a25.57,25.57,0,0,0-5.421,6.321c-1.1,1.9-1.852,3.975-2.906,5.9-2.51,4.571-6.588,8.04-10.575,11.4" transform="translate(-143.682 -61.478)" fill="#f18c76"/>
            <path id="Trazado_1265332" data-name="Trazado 1265332" d="M328,187.337a11.188,11.188,0,0,0,.23,3.844,41.106,41.106,0,0,1,.863,5.565,9.733,9.733,0,0,1-1.139,5.438" transform="translate(-151.627 -70.427)" fill="none" stroke="#2a282c" stroke-linejoin="round" stroke-width="1.5"/>
            <path id="Trazado_1265333" data-name="Trazado 1265333" d="M358.088,175.93a45.737,45.737,0,0,0-11.324,11.853" transform="translate(-158.713 -66.139)" fill="none" stroke="#2a282c" stroke-linejoin="round" stroke-width="1.5"/>
            <path id="Trazado_1265334" data-name="Trazado 1265334" d="M345.446,177.4l-2.127,1.927c-.778.7-1.558,1.41-2.286,2.168a22.849,22.849,0,0,0-2.541,3.158" transform="translate(-155.604 -66.693)" fill="none" stroke="#2a282c" stroke-linejoin="round" stroke-width="1.5"/>
            <path id="Trazado_1265335" data-name="Trazado 1265335" d="M343.478,202.724a70,70,0,0,0-7.446,9.127" transform="translate(-154.678 -76.212)" fill="none" stroke="#2a282c" stroke-linejoin="round" stroke-width="1.5"/>
            <path id="Trazado_1265336" data-name="Trazado 1265336" d="M192.509,179.22l2.443,12.7,10.635,1.411s-3.694,21.68-14.547,17.277S160.1,182.076,160.1,182.076l9.9,3.118,3.488-19.757" transform="translate(-88.539 -62.194)" fill="#f18c76"/>
            <path id="Trazado_1265337" data-name="Trazado 1265337" d="M199.868,201.5s-2.386,13.423-11.725,12.94-28.449-23.293-28.449-23.293-13.565-6.53-13.565-5.877-1.96,40.6,0,57.308,2.451,46.258,2.451,46.258l67.732,7.849s-6.428-29.228-6.058-35.456,8.776-23.679,6.719-31.425-11.243-27.213-11.243-27.213Z" transform="translate(-82.96 -69.632)" fill="#fcde9d"/>
            <path id="Trazado_1265338" data-name="Trazado 1265338" d="M225.553,209.019s6.359,34.41,6.773,50.116,4.468,50.826,6.706,54.263c5.2,7.982,25.459,22.32,25.459,22.32s-9.845-49.923-12.325-60.67-.207-32.239-1.24-36.579-14.04-27.918-14.04-27.918Z" transform="translate(-113.146 -78.578)" fill="#7983ed"/>
            <path id="Trazado_1265339" data-name="Trazado 1265339" d="M229.666,209.639s9.16.988,14.172,2.129,8.283,5.33,12.669,14.933c3.915,8.572,6.294,14.586,6.294,14.586l14.382-29.107,29.672,8.866s-16.4,37.8-21.085,46.374-11.53,21.533-27.869,18.794c-10.873-1.822-21.756-33.23-21.756-33.23" transform="translate(-114.692 -78.811)" fill="#7983ed"/>
            <path id="Trazado_1265340" data-name="Trazado 1265340" d="M240.815,212.045l-1.132,22.185a43.527,43.527,0,0,1,8.265,6.155c-1.616,9.37-9.451,39.953-9.451,39.953" transform="translate(-118.012 -79.716)" fill="none" stroke="#b1b1fc" stroke-miterlimit="10" stroke-width="1.5"/>
            <line id="Línea_3708" data-name="Línea 3708" x2="15.928" y2="6.004" transform="translate(125.887 214.459)" fill="none" stroke="#b1b1fc" stroke-miterlimit="10" stroke-width="4"/>
            <path id="Trazado_1265341" data-name="Trazado 1265341" d="M202.382,202.938c3.932,34.438-5.053,85.746-5.053,85.746s-11.89-71.037-27.909-95.841" transform="translate(-92.043 -72.498)" fill="none" stroke="#2a282c" stroke-linejoin="round" stroke-width="2"/>
            <path id="Trazado_1265342" data-name="Trazado 1265342" d="M197.655,367.924l17.715-1.605V342.807l-17.715,1.605Z" transform="translate(-102.658 -128.874)" fill="#625cd1"/>
            <path id="Trazado_1265343" data-name="Trazado 1265343" d="M202.92,362.544l10.1-.884a1.543,1.543,0,0,0,1.386-1.507v-10.1a1.25,1.25,0,0,0-1.386-1.265l-10.1.884a1.542,1.542,0,0,0-1.387,1.507v10.1a1.25,1.25,0,0,0,1.387,1.264" transform="translate(-104.116 -131.12)" fill="#7983ed"/>
            <path id="Trazado_1265344" data-name="Trazado 1265344" d="M209.529,356.376a1.806,1.806,0,0,1-1.586-1.827,2.242,2.242,0,0,1,2.014-2.19,1.816,1.816,0,0,1,2.014,1.838,2.247,2.247,0,0,1-1.586,2.1,2.817,2.817,0,0,1,2.71,2.869v2.211l-6.278.549V359.72a3.5,3.5,0,0,1,2.711-3.344" transform="translate(-106.102 -132.462)" fill="#fff"/>
            <rect id="Rectángulo_458153" data-name="Rectángulo 458153" width="11.653" height="1.249" transform="translate(98.041 234.725) rotate(-5.193)" fill="#7983ed"/>
            <path id="Trazado_1265345" data-name="Trazado 1265345" d="M265.513,296.509a129.984,129.984,0,0,1-3.778-31.377c.006-2.8.1-5.6-.129-8.392a42.519,42.519,0,0,0-6.507-18.753" transform="translate(-124.253 -89.468)" fill="none" stroke="#2a282c" stroke-linejoin="round" stroke-width="1.5"/>
            <path id="Trazado_1265346" data-name="Trazado 1265346" d="M277.776,260.352s-5.67,10.468-8.274,17.057" transform="translate(-129.668 -97.876)" fill="none" stroke="#2a282c" stroke-linejoin="round" stroke-width="1.5"/>
            <line id="Línea_3709" data-name="Línea 3709" x1="6.877" y2="13.915" transform="translate(161.381 135.092)" fill="none" stroke="#2a282c" stroke-linejoin="round" stroke-width="1.5"/>
            <path id="Trazado_1265347" data-name="Trazado 1265347" d="M315.047,224.374a1.876,1.876,0,1,0,1.876-1.875A1.876,1.876,0,0,0,315.047,224.374Z" transform="translate(-146.789 -83.646)" fill="none" stroke="#2a282c" stroke-linejoin="round" stroke-width="1.5"/>
            <path id="Trazado_1265348" data-name="Trazado 1265348" d="M310.892,234.633a1.876,1.876,0,1,0,1.875-1.875A1.876,1.876,0,0,0,310.892,234.633Z" transform="translate(-145.227 -87.503)" fill="none" stroke="#2a282c" stroke-linejoin="round" stroke-width="1.5"/>
            <path id="Trazado_1265349" data-name="Trazado 1265349" d="M175.774,197.214c3.253,1.621,6.683,3.085,9.584,5.31" transform="translate(-94.432 -74.14)" fill="none" stroke="#2a282c" stroke-linejoin="round" stroke-width="1.5"/>
            <path id="Trazado_1265350" data-name="Trazado 1265350" d="M244.684,297.26l51.847-11.95,12.721-77.674-51.847,11.95Z" transform="translate(-120.338 -78.058)" fill="#f99c6e"/>
            <path id="Trazado_1265351" data-name="Trazado 1265351" d="M251.648,294.862l44.868-10.341L307.525,217.3l-44.868,10.341Z" transform="translate(-122.956 -81.692)" fill="none" stroke="#ea7a4e" stroke-miterlimit="10" stroke-width="1.5"/>
            <path id="Trazado_1265352" data-name="Trazado 1265352" d="M279.4,201.956l49.664-11.028c-3.533,2.122-4.79,9.412-4.79,9.412l-52.554,12.008c.853-9.408,7.68-10.392,7.68-10.392" transform="translate(-130.502 -71.777)" fill="#ced3ef"/>
            <path id="Trazado_1265353" data-name="Trazado 1265353" d="M313.734,206.494l-.783,4.778-33.3,7.675.783-4.778Z" transform="translate(-133.482 -77.629)" fill="#ea7a4e"/>
            <path id="Trazado_1265354" data-name="Trazado 1265354" d="M289.393,204.946a6.481,6.481,0,0,0-5.363-3.279l49.664-11.028a5.483,5.483,0,0,1,2.163-.48,6.481,6.481,0,0,1,5.363,3.279,11.617,11.617,0,0,1,1.414,6.332l-1.166,6.737-4.952,30.237-51.847,11.95s6.021-33,6.138-37.416a11.617,11.617,0,0,0-1.414-6.332" transform="translate(-135.129 -71.488)" fill="#e5e7fc"/>
            <line id="Línea_3710" data-name="Línea 3710" x1="25.644" y2="5.911" transform="translate(164.368 161.485)" fill="none" stroke="#fff" stroke-miterlimit="10" stroke-width="1.5"/>
            <line id="Línea_3711" data-name="Línea 3711" x1="40.055" y2="9.232" transform="translate(160.242 152.877)" fill="none" stroke="#fff" stroke-miterlimit="10" stroke-width="1.5"/>
            <line id="Línea_3712" data-name="Línea 3712" x1="40.055" y2="9.232" transform="translate(160.848 147.164)" fill="none" stroke="#fff" stroke-miterlimit="10" stroke-width="1.5"/>
            <line id="Línea_3713" data-name="Línea 3713" x1="40.055" y2="9.232" transform="translate(161.454 141.45)" fill="none" stroke="#fff" stroke-miterlimit="10" stroke-width="1.5"/>
            <line id="Línea_3714" data-name="Línea 3714" x1="40.055" y2="9.232" transform="translate(162.059 135.737)" fill="none" stroke="#fff" stroke-miterlimit="10" stroke-width="1.5"/>
            <line id="Línea_3715" data-name="Línea 3715" x1="40.055" y2="9.232" transform="translate(162.665 130.024)" fill="none" stroke="#fff" stroke-miterlimit="10" stroke-width="1.5"/>
            <line id="Línea_3716" data-name="Línea 3716" x1="40.055" y2="9.232" transform="translate(161.398 124.934)" fill="none" stroke="#fff" stroke-miterlimit="10" stroke-width="1.5"/>
            <line id="Línea_3717" data-name="Línea 3717" x1="40.055" y2="9.232" transform="translate(157.786 121.287)" fill="none" stroke="#fff" stroke-miterlimit="10" stroke-width="1.5"/>
            <path id="Trazado_1265355" data-name="Trazado 1265355" d="M211.566,128.865a21.943,21.943,0,0,1,6.115,5.73c1.7,2.431,2.194,5.479,3.962,7.813a5.513,5.513,0,0,0,2.348,1.88c1.366.524,2.888.289,4.35.356,5.323.247,9.206,4.462,11.284,9.085,2.543,5.655,2.57,11.863,2.128,17.925l-32.619-1.128-7.4-35.138" transform="translate(-104.193 -48.446)" fill="#4f2d31"/>
            <path id="Trazado_1265356" data-name="Trazado 1265356" d="M225.567,138.658c3.125,1.372,4.35,5.27,7.2,7.151,2.645,1.747,5.813,1.326,8.761,1.978,12.174,2.7,14.08,17.527,12.725,27.85" transform="translate(-113.151 -52.127)" fill="none" stroke="#4f2d31" stroke-miterlimit="10" stroke-width="1.5"/>
            <path id="Trazado_1265357" data-name="Trazado 1265357" d="M228.713,152.9c1.495,4.015,4.869,5.882,8.8,6.9,4.6,1.186,7.433,4.528,9.021,8.914,1.231,3.4,1.035,7.823.788,11.428" transform="translate(-114.334 -57.48)" fill="none" stroke="#70474f" stroke-miterlimit="10" stroke-width="1.5"/>
            <path id="Trazado_1265358" data-name="Trazado 1265358" d="M171.763,138.045a19.83,19.83,0,0,1,3.568-12.307,16.044,16.044,0,0,1,15.4-6.342c7.611,1.164,11.061,7.478,13.067,14.337a101.943,101.943,0,0,1,2.02,10.22c.652,3.509,1.676,7.19.58,10.723a10.3,10.3,0,0,1-5.7,6.2,15.817,15.817,0,0,1-10.36.578c-10.34-2.648-18.174-12.973-18.569-23.4" transform="translate(-92.918 -44.817)" fill="#f18c76"/>
            <path id="Trazado_1265359" data-name="Trazado 1265359" d="M216.308,151.152a11.975,11.975,0,0,0,1.578,4.886,13.847,13.847,0,0,1,1.058,1.925,1.4,1.4,0,0,1,.114.754c-.129.681-.995,1.052-1.746,1.306" transform="translate(-109.67 -56.824)" fill="none" stroke="#2a282c" stroke-linejoin="round" stroke-width="1.5"/>
            <path id="Trazado_1265360" data-name="Trazado 1265360" d="M216.172,168.218a2.089,2.089,0,0,1-3.337-2.337" transform="translate(-108.298 -62.361)" fill="none" stroke="#2a282c" stroke-linejoin="round" stroke-width="1.5"/>
            <path id="Trazado_1265361" data-name="Trazado 1265361" d="M204.327,151.093c.21.922.877,1.556,1.491,1.417s.94-1,.73-1.923-.877-1.556-1.491-1.417-.94,1-.73,1.923" transform="translate(-105.142 -56.072)" fill="#2a282c"/>
            <path id="Trazado_1265362" data-name="Trazado 1265362" d="M220.608,150.892c.21.922.877,1.556,1.491,1.417s.94-1,.73-1.923-.877-1.556-1.491-1.417-.94,1-.73,1.923" transform="translate(-111.262 -55.996)" fill="#2a282c"/>
            <path id="Trazado_1265363" data-name="Trazado 1265363" d="M204.529,142.742a5.2,5.2,0,0,0-3.4-.05,3.649,3.649,0,0,0-2.308,2.405" transform="translate(-103.095 -53.545)" fill="none" stroke="#2a282c" stroke-linejoin="round" stroke-width="1.5"/>
            <path id="Trazado_1265364" data-name="Trazado 1265364" d="M221.634,141.957a3.087,3.087,0,0,0-4.358.547" transform="translate(-110.034 -53.119)" fill="none" stroke="#2a282c" stroke-linejoin="round" stroke-width="1.5"/>
            <path id="Trazado_1265365" data-name="Trazado 1265365" d="M204.315,186.451a20.634,20.634,0,0,1-12.958-3.311" transform="translate(-100.29 -68.849)" fill="none" stroke="#2a282c" stroke-linejoin="round" stroke-width="1.5"/>
            <path id="Trazado_1265366" data-name="Trazado 1265366" d="M149.129,136.547a28.951,28.951,0,0,0,8.7-1.073,13.264,13.264,0,0,0,7.584-6.741,14.686,14.686,0,0,0,.9-10.158s10.019.9,13.78,12.63c0,0,4.015-9.249-3.512-15.409-9.27-7.587-19.92-2.984-19.92-2.984a15.287,15.287,0,0,0-17.232.57c-8.449,6.013-4.53,19.83-10.364,22.763s-15.206.353-19.048,8.708-.662,16.7-.662,16.7l48.627,3.1s-4.59-3.939-4.686-9.883c-.088-5.423,1.5-4.483-.773-10.131s-3.389-8.095-3.389-8.095" transform="translate(-68.996 -41.504)" fill="#4f2d31"/>
            <path id="Trazado_1265367" data-name="Trazado 1265367" d="M187.111,124.478c.56,2.227-.416,5.214-1.169,7.293a13.183,13.183,0,0,1-5.524,6.558,22.994,22.994,0,0,1-6.205,2.571c-.973.263-.315,1.3-.137,2,.268,1.066.515,2.139.688,3.225a14.94,14.94,0,0,1-.185,6.42c-.745,2.634-2.478,4.925-3.085,7.594-.735,3.228.776,6.2,1.975,9.283" transform="translate(-92.75 -46.796)" fill="none" stroke="#70474f" stroke-miterlimit="10" stroke-width="1.5"/>
            <path id="Trazado_1265368" data-name="Trazado 1265368" d="M136.369,118.517c-5.34,4.277-3.693,14.513-9.209,18.616-4.438,3.3-11.025,2.654-16.068,4.539a13.318,13.318,0,0,0-8.043,9.164c-1.544,5.373-1.349,8.274-.411,13.7" transform="translate(-66.664 -44.555)" fill="none" stroke="#4f2d31" stroke-miterlimit="10" stroke-width="1.5"/>
            <path id="Trazado_1265369" data-name="Trazado 1265369" d="M140.517,141.552c-.951,3.626-2.011,7.449-4.485,9.86a13.416,13.416,0,0,1-5.349,2.912c-8.927,2.942-9.551,12-7.3,19.428" transform="translate(-74.322 -53.215)" fill="none" stroke="#70474f" stroke-miterlimit="10" stroke-width="1.5"/>
            <path id="Trazado_1265370" data-name="Trazado 1265370" d="M178.493,153.446c-.723-1.916-2.449-3.832-4.616-3.965a4.5,4.5,0,0,0-4.37,3.421,10.008,10.008,0,0,0,1.54,7.875c1.518,2.265,4.541,4.23,7.2,2.573a4.044,4.044,0,0,0,1.885-2.853" transform="translate(-91.975 -56.193)" fill="#f18c76"/>
            <path id="Trazado_1265371" data-name="Trazado 1265371" d="M174.782,156.612a56.807,56.807,0,0,1,5.032,4.726" transform="translate(-94.059 -58.877)" fill="none" stroke="#2a282c" stroke-linejoin="round" stroke-width="1.5"/>
            <path id="Trazado_1265372" data-name="Trazado 1265372" d="M180.882,151.176A9.845,9.845,0,0,1,183,154.393" transform="translate(-96.352 -56.833)" fill="none" stroke="#2a282c" stroke-linejoin="round" stroke-width="1.5"/>
            <path id="Trazado_1265373" data-name="Trazado 1265373" d="M178.445,171.029a4.414,4.414,0,0,0,5.044-2.287" transform="translate(-95.436 -63.437)" fill="none" stroke="#2a282c" stroke-linejoin="round" stroke-width="1.5"/>
            <path id="Trazado_1265374" data-name="Trazado 1265374" d="M178.209,171.864a1.552,1.552,0,1,0,1.377-1.709,1.552,1.552,0,0,0-1.377,1.709" transform="translate(-95.344 -63.965)" fill="#fff"/>
            <path id="Trazado_1265375" data-name="Trazado 1265375" d="M181.886,105a5.3,5.3,0,0,0,1.43-3.893c.127-4.39-2.23-8.99-6.283-10.682a5.571,5.571,0,0,0-3.887-.319,5.1,5.1,0,0,0-3.055,3.523c-.819,2.916.41,6.1,2.413,8.373a27.431,27.431,0,0,0,7.325,5.3" transform="translate(-92.199 -33.793)" fill="#4f2d31"/>
            <path id="Trazado_1265376" data-name="Trazado 1265376" d="M173.334,90.865a4.827,4.827,0,0,0-4.768,2.883,7.459,7.459,0,0,0,.1,6.129,9.353,9.353,0,0,0,4.2,4.327" transform="translate(-91.492 -34.148)" fill="none" stroke="#4f2d31" stroke-miterlimit="10" stroke-width="1.5"/>
            <path id="Trazado_1265377" data-name="Trazado 1265377" d="M144.758,183.721l11.445,7.892s11.348,26.563,11.375,56.5-1.088,51.587-5.542,56.408c-10.346,11.2-39.778,13.732-39.778,13.732l16.628-112.934Z" transform="translate(-74.314 -69.068)" fill="#7983ed"/>
            <path id="Trazado_1265378" data-name="Trazado 1265378" d="M163.283,189.914c5.421,18.29,4.808,17.3,11.389,35.289-2.494,1.072-8.025,7.9-8.025,7.9s13.082,28.619,15.13,44.767" transform="translate(-89.736 -71.396)" fill="none" stroke="#b1b1fc" stroke-miterlimit="10" stroke-width="1.5"/>
            <line id="Línea_3718" data-name="Línea 3718" x1="18.422" y2="6.603" transform="translate(57.359 219.889)" fill="none" stroke="#b1b1fc" stroke-miterlimit="10" stroke-width="4"/>
            <path id="Trazado_1265379" data-name="Trazado 1265379" d="M201.959,279.928l19.767-7.773a20.27,20.27,0,0,1,11.106-1.663c3.143.145,6.542.387,8.93,2.436a13.594,13.594,0,0,1,2.957,4.2q1.263,2.428,2.429,4.905c.283.6.542,1.383.094,1.877a1.393,1.393,0,0,1-.607.352,3.629,3.629,0,0,1-2.263,0l1.571,2.788a1.851,1.851,0,0,1,.328.98,1.263,1.263,0,0,1-1.147,1.051c-.557.074-.778-.761-1.311-.943a2.6,2.6,0,0,1,.375,1.89c-.871,1.5-3.859.227-3.859.227a6.068,6.068,0,0,1,1.14.832c1.053,1.194-1.15,1.773-1.91,1.624-3.435-.668-8.081-1.4-11.605-.9-4.062.575-7.392,3.429-11.194,4.972-4.259,1.728-8.986,1.764-13.582,1.776" transform="translate(-104.276 -101.654)" fill="#f18c76"/>
            <path id="Trazado_1265380" data-name="Trazado 1265380" d="M254.06,300.167a23.4,23.4,0,0,0-7.461-3.082,16.06,16.06,0,0,0-8.116.4" transform="translate(-118.006 -111.559)" fill="none" stroke="#2a282c" stroke-linejoin="round" stroke-width="1.5"/>
            <path id="Trazado_1265381" data-name="Trazado 1265381" d="M258.843,293.98c-3.019-3.942-7.37-7.373-12.44-7.961-.232-.027-.466-.048-.7-.063a19.348,19.348,0,0,0-3.767.142" transform="translate(-119.305 -107.488)" fill="none" stroke="#2a282c" stroke-linejoin="round" stroke-width="1.5"/>
            <path id="Trazado_1265382" data-name="Trazado 1265382" d="M261.8,286.8a24.686,24.686,0,0,0-5.572-6.592,13.521,13.521,0,0,0-7.914-3.08" transform="translate(-121.701 -104.182)" fill="none" stroke="#2a282c" stroke-linejoin="round" stroke-width="1.5"/>
            <path id="Trazado_1265383" data-name="Trazado 1265383" d="M194.34,281.877l10.4-2.781,8.942,25.343-24.842,9.5" transform="translate(-99.343 -104.923)" fill="#fff"/>
            <path id="Trazado_1265384" data-name="Trazado 1265384" d="M141.57,210.434l-6.209,38.313,31.376-6.91,9.224,28.4s-45.706,16.151-60.252,18.582-21.243-12.865-19.165-27.961,13.116-57.7,13.947-62.6,7.065-20.4,16.531-19.707c5.532.4,6.239,1.938,9.894,4.436" transform="translate(-64.508 -67.115)" fill="#7983ed"/>
            <path id="Trazado_1265385" data-name="Trazado 1265385" d="M168.041,336.383s-33.19,10.9-43.754,12.542" transform="translate(-75.076 -126.459)" fill="none" stroke="#2a282c" stroke-linejoin="round" stroke-width="1.5"/>
            <path id="Trazado_1265386" data-name="Trazado 1265386" d="M165.177,229.656l-6.208,38.313,22.411-4.936" transform="translate(-88.114 -86.336)" fill="none" stroke="#2a282c" stroke-linejoin="round" stroke-width="1.5"/>
            <path id="Trazado_1265387" data-name="Trazado 1265387" d="M148.456,290.924a168.526,168.526,0,0,0-18.248,5.25" transform="translate(-77.302 -109.369)" fill="none" stroke="#2a282c" stroke-linejoin="round" stroke-width="1.5"/>
            <line id="Línea_3719" data-name="Línea 3719" x1="15.027" y2="4.8" transform="translate(94.409 196.91)" fill="none" stroke="#2a282c" stroke-linejoin="round" stroke-width="1.5"/>
            <ellipse id="Elipse_13702" data-name="Elipse 13702" cx="1.46" cy="1.46" rx="1.46" ry="1.46" transform="matrix(0.957, -0.29, 0.29, 0.957, 101.088, 193.52)" fill="none" stroke="#2a282c" stroke-linejoin="round" stroke-width="1.5"/>
            <ellipse id="Elipse_13703" data-name="Elipse 13703" cx="1.46" cy="1.46" rx="1.46" ry="1.46" transform="matrix(0.957, -0.29, 0.29, 0.957, 94.563, 195.936)" fill="none" stroke="#2a282c" stroke-linejoin="round" stroke-width="1.5"/>
          </g>
        </g>
      </g>
    </g>
  </g>
</svg>
