<svg xmlns="http://www.w3.org/2000/svg" xmlns:xlink="http://www.w3.org/1999/xlink" width="96" height="96" viewBox="0 0 96 96">
  <defs>
    <clipPath id="clip-path">
      <rect id="Rectángulo_458173" data-name="Rectángulo 458173" width="56.441" height="56.217" fill="#fff"/>
    </clipPath>
  </defs>
  <g id="Grupo_1206110" data-name="Grupo 1206110" transform="translate(-383.746 -8400.001)">
    <path id="Trazado_997400" data-name="Trazado 997400" d="M48,0A48,48,0,1,1,0,48,48,48,0,0,1,48,0Z" transform="translate(383.746 8400.001)" fill="#5d0b80"/>
    <g id="Grupo_1099776" data-name="Grupo 1099776" transform="translate(401.746 8418)">
      <g id="Grupo_1099618" data-name="Grupo 1099618" transform="translate(-0.035 -0.777)">
        <rect id="Rectángulo_401104" data-name="Rectángulo 401104" width="59.378" height="60.093" transform="translate(0)" fill="none"/>
      </g>
      <g id="Grupo_1207328" data-name="Grupo 1207328" transform="translate(0.965 1.222)">
        <g id="Grupo_1207327" data-name="Grupo 1207327" clip-path="url(#clip-path)">
          <path id="Trazado_1265608" data-name="Trazado 1265608" d="M39.244,14.505H32.38a4.445,4.445,0,0,1-4.93-4.35V2.131H2.122V54.141H36.054a12.745,12.745,0,0,0,1.626-.887c1.432-1.1,1.775-3.424,1.473-5.113l-2.9.4c-16.943.983-19.628-23.424-3.788-26.6,12.626-2.533,21.125,11.9,13.171,21.831l.9.872c1.289-.454,1.848-.546,3.021.25a60.068,60.068,0,0,1,6.2,6.172,2.348,2.348,0,0,1,.2,3.068c-.985,1.506-2.88,2.693-4.539,1.463a77.783,77.783,0,0,1-6.464-6.49,2.305,2.305,0,0,1,.038-2.8l-1.013-.872L41.4,47.017c.3,4.151-.745,8.355-5.4,9.2L.58,56.166.1,55.683,0,.878A1.252,1.252,0,0,1,1.247,0L28.8.1,41.077,12.769a42.9,42.9,0,0,1,.06,6.239,1.069,1.069,0,0,1-1.893.234ZM29.577,3.871v5.9a2.525,2.525,0,0,0,2.8,2.61H37.7ZM34.37,23.649C17.919,25.177,22.645,50.6,38.617,45.877,51.6,42.034,47.664,22.415,34.37,23.649m13.5,22.771L46.68,47.563l.213.567,5.887,5.731c.478.246,1.146-.9,1.542-1.171Z" transform="translate(0.001)" fill="#fff"/>
          <path id="Trazado_1265609" data-name="Trazado 1265609" d="M31.334,54.318a1.114,1.114,0,0,1,.9-.462c2.413-.019,4.016-.159,6.745-.043,1.007.043,1.243.5,1.262,1.445.1,4.961.184,8.742-.009,14.832,0,.046.005.091,0,.137-.031.374-.065,1.163-.839,1.248-1.2.133-6.644.043-7.389-.055l-.014,0a1.1,1.1,0,0,1-.942-1.091l-.105-15.1a1.112,1.112,0,0,1,.209-.656ZM38.1,55.944H33.074V69.284H38.1Z" transform="translate(-24.958 -43.372)" fill="#fff"/>
          <path id="Trazado_1265610" data-name="Trazado 1265610" d="M33.064,196.116V199.4H46.888c.771,0,1.284,1.871,0,2.123l-15.362-.1a1.032,1.032,0,0,1-.595-.952c.02-2.161.118-3.436.007-5.233-.067-1.094.637-1.276,1.639-1.261,3.283.05,6.807.05,11.21.019,1.612.118,1.7,2.094-.021,2.094Z" transform="translate(-24.947 -156.476)" fill="#fff"/>
          <path id="Trazado_1265611" data-name="Trazado 1265611" d="M93.554,112.023h5.22c.725,0,.725,1.933,0,1.933h-5.22c-.575,0-.654-1.608,0-1.933" transform="translate(-75.094 -90.364)" fill="#fff"/>
          <path id="Trazado_1265612" data-name="Trazado 1265612" d="M93.554,88.467h9.28c.725,0,.725,1.933,0,1.933h-9.28c-.575,0-.654-1.608,0-1.933" transform="translate(-75.094 -71.362)" fill="#fff"/>
          <path id="Trazado_1265613" data-name="Trazado 1265613" d="M33.11,172.023h5.22c.725,0,.725,1.933,0,1.933H33.11c-.575,0-.654-1.608,0-1.933" transform="translate(-26.336 -138.763)" fill="#fff"/>
          <path id="Trazado_1265614" data-name="Trazado 1265614" d="M33.11,153.356h9.28c.725,0,.725,1.933,0,1.933H33.11c-.575,0-.654-1.608,0-1.933" transform="translate(-26.336 -123.706)" fill="#fff"/>
          <path id="Trazado_1265615" data-name="Trazado 1265615" d="M33.11,249.356h9.28c.725,0,.725,1.933,0,1.933H33.11c-.575,0-.654-1.608,0-1.933" transform="translate(-26.336 -201.145)" fill="#fff"/>
          <path id="Trazado_1265616" data-name="Trazado 1265616" d="M93.554,56.912h5.22c.725,0,.725,1.933,0,1.933h-5.22c-.575,0-.654-1.608,0-1.933" transform="translate(-75.094 -45.908)" fill="#fff"/>
          <path id="Trazado_1265617" data-name="Trazado 1265617" d="M143.671,185.882h-6.09c-.722,0-1.063-2.024-.114-2.042,4.486-.085,6.262-.228,7.278-.095a1.157,1.157,0,0,1,.952.595c.178.4.123,2.595.06,6.818-.022,1.466-2.085.8-2.085.041Z" transform="translate(-110.42 -148.175)" fill="#fff"/>
          <path id="Trazado_1265618" data-name="Trazado 1265618" d="M205.556,145.045c1.32-.382,3.061,2.336,3.487,3.4a8.447,8.447,0,0,1,.15,6.051c-.333.972-1.161,2.965-2.5,2.1-1.069-.691.275-2.1.559-3.073a6.266,6.266,0,0,0-.639-5.161c-.429-.685-3.086-2.725-1.057-3.312" transform="translate(-165.205 -116.972)" fill="#fff"/>
          <path id="Trazado_1265619" data-name="Trazado 1265619" d="M203.683,207.985a1.074,1.074,0,1,1-1.074-1.074,1.074,1.074,0,0,1,1.074,1.074" transform="translate(-162.57 -166.906)" fill="#fff"/>
        </g>
      </g>
    </g>
  </g>
</svg>
