<svg xmlns="http://www.w3.org/2000/svg" xmlns:xlink="http://www.w3.org/1999/xlink" width="70" height="70" viewBox="0 0 70 70">
  <defs>
    <clipPath id="clip-path">
      <rect id="Rectángulo_458377" data-name="Rectángulo 458377" width="40" height="39.466" fill="#5d0b80"/>
    </clipPath>
  </defs>
  <g id="Grupo_1206958" data-name="Grupo 1206958" transform="translate(0.36 0.275)">
    <circle id="Elipse_5614" data-name="Elipse 5614" cx="35" cy="35" r="35" transform="translate(-0.36 -0.275)" fill="#fff"/>
    <g id="Grupo_1207550" data-name="Grupo 1207550" transform="translate(14.64 14.725)">
      <g id="Grupo_1207549" data-name="Grupo 1207549" clip-path="url(#clip-path)">
        <path id="Trazado_1266447" data-name="Trazado 1266447" d="M19.663,63.77c7.326-.095,14.9,3.065,19.187,9.123a12.625,12.625,0,0,1,1.118,1.735c.223.617-.736,1.828-1.118,2.368-8.573,12.116-29.1,12.117-37.674,0C.828,76.507-.118,75.249.013,74.72a20.118,20.118,0,0,1,2.24-3.211A23.506,23.506,0,0,1,19.663,63.77m6.12,16.295c5.4-5.518.286-14.745-7.268-13.293A7.985,7.985,0,0,0,14.18,80.064a6.252,6.252,0,0,1,3.175-2.853c.081-.116-.738-1.1-.872-1.394a3.926,3.926,0,1,1,6.189,1.2l0,.19a5.749,5.749,0,0,1,3.112,2.853m-6.387-8.394a2.678,2.678,0,0,0-1.879,2.008,2.532,2.532,0,0,0,4.614,1.763,2.5,2.5,0,0,0-2.735-3.772m.134,6.356a5.368,5.368,0,0,0-4.246,3,7.784,7.784,0,0,0,9.457,0,5.315,5.315,0,0,0-5.212-3" transform="translate(-0.001 -55.503)" fill="#5d0b80"/>
        <path id="Trazado_1266448" data-name="Trazado 1266448" d="M147.886,7.6h0a.662.662,0,0,1-.663-.662V.661a.662.662,0,1,1,1.325,0V6.941a.662.662,0,0,1-.662.662" transform="translate(-128.14 0.001)" fill="#5d0b80"/>
        <path id="Trazado_1266449" data-name="Trazado 1266449" d="M81.731,16.291h0a.662.662,0,0,1-.855-.383L78.64,10.04a.662.662,0,1,1,1.238-.472l2.236,5.868a.662.662,0,0,1-.383.855" transform="translate(-68.409 -7.957)" fill="#5d0b80"/>
        <path id="Trazado_1266450" data-name="Trazado 1266450" d="M28.637,39.319h0a.662.662,0,0,1-.917-.191l-3.441-5.252a.662.662,0,0,1,1.108-.726L28.828,38.4a.662.662,0,0,1-.191.917" transform="translate(-21.037 -28.593)" fill="#5d0b80"/>
        <path id="Trazado_1266451" data-name="Trazado 1266451" d="M199.707,14.069h0a.662.662,0,0,0,.855-.383L202.8,7.818a.663.663,0,0,0-1.238-.472l-2.236,5.868a.662.662,0,0,0,.383.855" transform="translate(-173.451 -6.023)" fill="#5d0b80"/>
        <path id="Trazado_1266452" data-name="Trazado 1266452" d="M244.71,37.1h0a.662.662,0,0,0,.917-.191l3.441-5.252a.662.662,0,1,0-1.108-.726l-3.441,5.252a.662.662,0,0,0,.191.917" transform="translate(-212.731 -26.658)" fill="#5d0b80"/>
        <path id="Trazado_1266453" data-name="Trazado 1266453" d="M151.886,245.816h0a.662.662,0,0,0-.663.662v6.279a.662.662,0,0,0,1.325,0v-6.279a.662.662,0,0,0-.662-.662" transform="translate(-131.622 -213.954)" fill="#5d0b80"/>
        <path id="Trazado_1266454" data-name="Trazado 1266454" d="M85.731,239.891h0a.662.662,0,0,0-.855.383l-2.236,5.868a.662.662,0,1,0,1.238.472l2.236-5.868a.662.662,0,0,0-.383-.855" transform="translate(-71.89 -208.759)" fill="#5d0b80"/>
        <path id="Trazado_1266455" data-name="Trazado 1266455" d="M32.637,221h0a.662.662,0,0,0-.917.191l-3.441,5.252a.662.662,0,0,0,1.108.726l3.441-5.252a.662.662,0,0,0-.191-.917" transform="translate(-24.519 -192.258)" fill="#5d0b80"/>
        <path id="Trazado_1266456" data-name="Trazado 1266456" d="M203.707,242.113h0a.662.662,0,0,1,.855.383l2.236,5.868a.663.663,0,0,1-1.238.472l-2.236-5.868a.662.662,0,0,1,.383-.855" transform="translate(-176.932 -210.693)" fill="#5d0b80"/>
        <path id="Trazado_1266457" data-name="Trazado 1266457" d="M248.71,223.219h0a.662.662,0,0,1,.917.191l3.441,5.252a.662.662,0,0,1-1.108.726l-3.441-5.252a.662.662,0,0,1,.191-.917" transform="translate(-216.212 -194.192)" fill="#5d0b80"/>
      </g>
    </g>
  </g>
</svg>
