<svg xmlns="http://www.w3.org/2000/svg" xmlns:xlink="http://www.w3.org/1999/xlink" width="396.115" height="310.296" viewBox="0 0 396.115 310.296">
  <defs>
    <clipPath id="clip-path">
      <rect id="Rectángulo_458213" data-name="Rectángulo 458213" width="396" height="287.781" fill="none"/>
    </clipPath>
  </defs>
  <g id="Grupo_1207204" data-name="Grupo 1207204" transform="translate(0.596)">
    <g id="Grupo_1206741" data-name="Grupo 1206741" transform="translate(-0.711 0)">
      <g id="Grupo_1204235" data-name="Grupo 1204235" transform="translate(0.711)">
        <rect id="Rectángulo_402012" data-name="Rectángulo 402012" width="395.52" height="308.667" fill="#fbf1ff"/>
      </g>
      <g id="Grupo_1207370" data-name="Grupo 1207370" transform="translate(0.115 22.516)">
        <g id="Grupo_1207369" data-name="Grupo 1207369" transform="translate(0 -0.001)" clip-path="url(#clip-path)">
          <path id="Trazado_1265793" data-name="Trazado 1265793" d="M257.352,815.216c-1.716-4.155-3.3-7.891-4.8-11.42l-2.38,23.5c.117.207.232.407.349.618a.3.3,0,0,1-.1.4h0q1.783,3.251,3.8,7.006c1.547-.213,3.2-.366,4.861-.472.83-2.655,1.8-5.622,2.945-8.861l-4.342-10.617a.271.271,0,0,1-.323-.154" transform="translate(-212.157 -677.32)" fill="#96fef0"/>
          <path id="Trazado_1265794" data-name="Trazado 1265794" d="M511.3,1383.5l-.606,10.959,1.61.051-.94-10.957a.247.247,0,0,1-.064-.054" transform="translate(-433.103 -1165.808)" fill="#c36fa9"/>
          <path id="Trazado_1265795" data-name="Trazado 1265795" d="M858.065,896.879,861.8,862.9a.291.291,0,0,1-.256-.319c.847-9.556,1.738-18.224,2.586-26.04H849.024l-12.725,91.8-135.618-20.16.751-5.42-6.28-.934,9.5-68.566-5.639,5.22c-.547.276-1.061.541-1.548.794-2.056,2.114-5.3,3.257-10.339,2.332q-.778.679-1.6,1.337l-1.992-2.384c-2.125-1.3-4.184-3.99-6.064-7.258l-1.576-1.886c-.822,3.334-1.824,6.831-2.531,10.008a.282.282,0,0,1-.338.219s-.006-.006-.01-.007l-2,7.626A38.628,38.628,0,0,1,679.454,868c1.927,14.59,3.25,38.141,4.155,62.425L861.021,936.1c.243-14.1.337-27.529.847-39.218Z" transform="translate(-569.062 -700.596)" fill="#96fef0"/>
          <path id="Trazado_1265796" data-name="Trazado 1265796" d="M1096.145,22.3l81.344,12.092,27.861,31.988-.344,2.481,5.53,6.348-1.13,8.153,11.03-9.3a23.441,23.441,0,0,1,11.827-5.532l14.373-3.07c0,.009,0,.016,0,.025l.075-.025V56.273c-.173-.039-.344-.066-.52-.116-4.844-1.374-6.31-7.656-6.684-11.927-.478-5.466-.613-10.661.431-14.6a25.323,25.323,0,0,1-6.613-3.046l4.522-4.041-4.522-5.365c10.463-10.133,24.03-3.134,24.03-3.134a15.815,15.815,0,0,0-1.032-3.527c9.223,1.853,8.548,7.782,8.448,8.42a4.934,4.934,0,0,1,4.041-1.366,3.971,3.971,0,0,0-2.7,2.154c3.173,1.627,7.564,5.414,6.952,13.834-.517,6.195-4.783,14.458-8.614,20.419a3.793,3.793,0,0,1-.275-.344V65.456l.087.042,14.391,3.664a12.079,12.079,0,0,1,7.353,3.2L1282.933,0,1087.37,13.478a33.91,33.91,0,0,1,8.775,8.82" transform="translate(-922.155 0)" fill="#96fef0"/>
          <path id="Trazado_1265797" data-name="Trazado 1265797" d="M2176.985,1440.193l1.7.054-.667-12.073Z" transform="translate(-1846.213 -1203.453)" fill="#96fef0"/>
          <path id="Trazado_1265798" data-name="Trazado 1265798" d="M2440.484,1501.919l-.085-2.014c.008.662.012,1.34.018,2.012Z" transform="translate(-2069.604 -1263.897)" fill="#c36fa9"/>
          <path id="Trazado_1265799" data-name="Trazado 1265799" d="M204.391,1088.682l-5.655,55.835,9.558.305c.452-29.125,2.471-48.575,3.148-54.371a10.362,10.362,0,0,1-7.051-1.769" transform="translate(-168.54 -917.379)" fill="#96fef0"/>
          <path id="Trazado_1265800" data-name="Trazado 1265800" d="M887.581,705.054c-1.457.715-2.916,1.434-4.363,2.155-.018.077-.038.161-.056.24q1.967-.966,4.392-2.2Z" transform="translate(-748.974 -594.115)" fill="#c36fa9"/>
          <path id="Trazado_1265801" data-name="Trazado 1265801" d="M318.929,155.631c-1.407-8.16-1.841-14.2,3.331-21.193a20.183,20.183,0,0,1,2.771-3.016l-9.7.669L311.639,168.5c4.168-4.1,8.577-5.4,7.29-12.866" transform="translate(-264.288 -110.742)" fill="#96fef0"/>
          <path id="Trazado_1265802" data-name="Trazado 1265802" d="M611.285,131.974c.243,3.546-1.268,6.823-1.92,10.227-.675,3.516-.232,6.473.318,9.955.574,3.627-.056,6.308-1.511,8.3l3.883,1.41a19.061,19.061,0,0,1,6.758,4.455h0a16.039,16.039,0,0,1,2.265,2.943L641.511,195.8a35.243,35.243,0,0,1-.591,3.55c1.428-.71,2.867-1.418,4.3-2.121l4.708-33.966a32.247,32.247,0,0,1-14.644-5.406l-16.823,6.347,6.506-17.448a35.239,35.239,0,0,1,6.657-43.531L597.268,105.6a21.135,21.135,0,0,1,4.431,7.948c2.177,6.586,9.108,11.437,9.585,18.431" transform="translate(-506.519 -86.984)" fill="#96fef0"/>
          <path id="Trazado_1265803" data-name="Trazado 1265803" d="M1853.558,452.749l.738-.623,1.13-8.153-5.529-6.349-2.1,15.124Z" transform="translate(-1567.045 -368.765)" fill="#c4c0c0"/>
          <path id="Trazado_1265804" data-name="Trazado 1265804" d="M999.871,923.994h0l-3.525,25.423L867.01,930.191l-.751,5.42,135.618,20.16,12.725-91.8h-6.41Z" transform="translate(-734.639 -728.023)" fill="#c4c0c0"/>
          <path id="Trazado_1265805" data-name="Trazado 1265805" d="M1149.328,235.727l64.456,9.582.449-3.238a3.072,3.072,0,0,1-.79-.566c-.826-.869-1.774-.938-1.91-1.988-.038-.314-.667-.688-.786-.944-.438-.955.038-1.352-.661-2.446-.377-.587.527-1.357.17-1.953-.734-1.222.56-2.35.128-3.3a2.8,2.8,0,0,1,1.316-3.741l-3.435-14.388a28.411,28.411,0,0,1-28.68,14.067c-15.7-2.335-26.608-17.412-24.354-33.676s16.813-27.555,32.517-25.22q.754.112,1.492.263l.417-3.009c15.945,2.37,27.015,17.677,24.725,34.19l-2.041-.3c-.047.84-.12,1.684-.238,2.533-.123.882-.288,1.747-.481,2.6a6.8,6.8,0,0,1,3.177-.792h4.793l6.874-49.593-81.345-12.092h0l16.888,2.511Z" transform="translate(-971.132 -119.417)" fill="#e9eae9"/>
          <path id="Trazado_1265806" data-name="Trazado 1265806" d="M1207.407,784.593l-12.913-1.92.43-3.1,12.912,1.92.6-4.341-34.878-5.185.43-3.1,34.879,5.185.774-5.58-64.456-9.582-.774,5.581,21.254,3.159-.43,3.1-21.254-3.159-.6,4.34,45.648,6.786-.43,3.1-45.647-6.786-2.206,15.917,64.456,9.581Z" transform="translate(-967.42 -639.479)" fill="#e9eae9"/>
          <path id="Trazado_1265807" data-name="Trazado 1265807" d="M1166.231,1006l.43-3.1,12.912,1.92.6-4.341-34.879-5.184.43-3.1,34.879,5.185.774-5.581-64.456-9.581-.773,5.58,21.254,3.159-.43,3.1-21.254-3.159-.6,4.341,45.647,6.785-.43,3.1-45.647-6.786-1.527,11.013,64.456,9.581,1.526-11.013Z" transform="translate(-944.027 -827.661)" fill="#e9eae9"/>
          <path id="Trazado_1265808" data-name="Trazado 1265808" d="M1597.018,782.739l2.337.347-.745-3.121a6.834,6.834,0,0,1-1.143-.464Z" transform="translate(-1354.366 -656.847)" fill="#f4f4f4"/>
          <path id="Trazado_1265809" data-name="Trazado 1265809" d="M1545.236,825.366l2.581.383-.43,3.1-2.581-.384-.6,4.341,15.529,2.309-.43,3.1-15.529-2.308-2.206,15.916,15.529,2.308-.43,3.1-15.529-2.308-.774,5.581,2.58.383-.43,3.1-2.58-.384-.6,4.341,15.529,2.309-.43,3.1-15.529-2.309-1.526,11.013,31.643,4.7,8.321-60.026h-22.415a2.44,2.44,0,0,1-1.839-.853,7.286,7.286,0,0,1-3.681-5.595l-3.395-.5Zm10.228,40.548-6.244-.928.43-3.1,6.244.928Zm-.943-39.167,6.244.927-.43,3.1-6.244-.927Z" transform="translate(-1303.788 -690.794)" fill="#f4f4f4"/>
          <path id="Trazado_1265810" data-name="Trazado 1265810" d="M1635.251,268.158h32.3l2.1-15.124.344-2.481-31.643-4.7,3.782-27.284Z" transform="translate(-1386.79 -184.174)" fill="#f4f4f4"/>
          <path id="Trazado_1265811" data-name="Trazado 1265811" d="M969.014,315.389h0l-31.643-4.7L872.915,301.1l1.527-11.013-.945-.14.43-3.1.944.141.6-4.341-.944-.14.43-3.1.944.14.773-5.58-.944-.14.43-3.1.944.14,2.206-15.917-.944-.14.43-3.1.944.14.6-4.34-.944-.14.43-3.1.944.14.774-5.581-.944-.14.43-3.1.944.141,12.683-91.5-16.888-2.511a35.02,35.02,0,0,1,6.088,19.822c0,18.972-14.851,34.351-33.171,34.351a32.389,32.389,0,0,1-3.5-.191l-4.708,33.966c6.182-3.03,12.23-5.959,16.539-8.5a.276.276,0,0,1,.384.109.29.29,0,0,1,.021.177q2.5-1.377,5.258-2.916l-1.284-5.046-1.3-7.8c2.705-.878,4.082,4.359,4.082,4.359a110.283,110.283,0,0,0,7.046-8.922,26.87,26.87,0,0,1,3.057-3.9s1.181-.832,1.4.442c.009,0,.014-.01.022-.01a.265.265,0,0,1,.215.112c1.508-1.24,2.046.78,2.046.78a1.7,1.7,0,0,1-.049.714c.022.005.043-.007.065,0a.3.3,0,0,1,.133.389c-.05.109-.095.208-.142.312.615-.145.734.311.734.311a4.78,4.78,0,0,1,.284,2.732c.03,0,.06-.009.089.006a.3.3,0,0,1,.129.39c-.127.269-.243.512-.353.742,1.688-1.929-.277,5.182-.277,5.182-1.19,3.412-5.463,8.711-5.463,8.711l-4.943,5.342.094.107-30.892,28.593-9.5,68.566,6.28.934,129.337,19.227ZM867.039,279.178v0a8.265,8.265,0,0,1-8.075,7.255,8,8,0,0,1-1.17-.086,8.369,8.369,0,0,1-7.007-8.362,8.627,8.627,0,0,1,.085-1.214v0h0a8.264,8.264,0,0,1,8.074-7.253,7.892,7.892,0,0,1,1.169.087,8.371,8.371,0,0,1,7.006,8.364,8.911,8.911,0,0,1-.083,1.207m4.87-35.138-1.5-.22,1.5.222a8.265,8.265,0,0,1-8.076,7.256,7.98,7.98,0,0,1-1.165-.086h0a8.37,8.37,0,0,1-7.007-8.364,8.7,8.7,0,0,1,.084-1.212v0h0a8.263,8.263,0,0,1,8.074-7.254,7.806,7.806,0,0,1,1.171.088h0a8.368,8.368,0,0,1,7.005,8.361,8.887,8.887,0,0,1-.083,1.209" transform="translate(-703.781 -119.419)" fill="#dfdada"/>
          <path id="Trazado_1265812" data-name="Trazado 1265812" d="M912.07,688.978c1.851-.944,3.916-2.016,6.209-3.229-2.01.995-4.09,2.011-6.183,3.038Z" transform="translate(-773.49 -577.847)" fill="#dfdada"/>
          <path id="Trazado_1265813" data-name="Trazado 1265813" d="M1267.116,337.757l-26.828-3.989,3.727-26.889q-.738-.15-1.491-.263c-15.7-2.335-30.263,8.957-32.517,25.22s8.649,31.341,24.354,33.676a28.411,28.411,0,0,0,28.68-14.067l-.494-2.069a7.3,7.3,0,0,1,3.852-6.487c.193-.852.358-1.716.48-2.6.118-.849.191-1.693.238-2.533" transform="translate(-1025.907 -258.112)" fill="#e3a4fe"/>
          <path id="Trazado_1265814" data-name="Trazado 1265814" d="M1437.783,324.692l2.041.3c2.289-16.513-8.781-31.82-24.725-34.19l-.417,3.009-3.727,26.889Z" transform="translate(-1196.574 -245.047)" fill="#5d0b80"/>
          <path id="Trazado_1265815" data-name="Trazado 1265815" d="M1165.131,738.434l-.944-.141-.43,3.1.944.14,64.456,9.582,3.395.5a7.636,7.636,0,0,1-.049-.832l-.579-2.426-2.337-.347Z" transform="translate(-986.935 -622.123)" fill="#5d0b80"/>
          <path id="Trazado_1265816" data-name="Trazado 1265816" d="M1178.465,796.768l-21.253-3.159-.944-.14-.43,3.1.944.14,21.253,3.159Z" transform="translate(-980.219 -668.617)" fill="#5d0b80"/>
          <path id="Trazado_1265817" data-name="Trazado 1265817" d="M1356.717,825.4l34.878,5.185,2.581.383.43-3.1-2.58-.383-34.878-5.185Z" transform="translate(-1150.577 -692.912)" fill="#5d0b80"/>
          <path id="Trazado_1265903" data-name="Trazado 1265903" d="M.032.015,3.162,0,3.13,6.312,0,6.327Z" transform="translate(250.285 139.083) rotate(-81.838)" fill="#5d0b80"/>
          <path id="Trazado_1265818" data-name="Trazado 1265818" d="M1196.073,847.681l-45.648-6.786-.944-.14-.43,3.1.944.14,45.647,6.786Z" transform="translate(-974.464 -708.464)" fill="#5d0b80"/>
          <path id="Trazado_1265819" data-name="Trazado 1265819" d="M1494.5,893.445l12.913,1.92,15.529,2.308.43-3.1-15.529-2.308-12.912-1.919Z" transform="translate(-1267.422 -750.25)" fill="#5d0b80"/>
          <path id="Trazado_1265820" data-name="Trazado 1265820" d="M1029.775,755.847a5.269,5.269,0,0,0-4.412-5.261h0a4.953,4.953,0,0,0-.736-.055,5.2,5.2,0,0,0-5.08,4.569v0a5.5,5.5,0,0,0-.053.762,5.272,5.272,0,0,0,4.413,5.263,5.09,5.09,0,0,0,.738.055,5.205,5.205,0,0,0,5.082-4.568,5.694,5.694,0,0,0,.053-.766" transform="translate(-864.588 -632.436)" fill="#ffe9a1"/>
          <path id="Trazado_1265821" data-name="Trazado 1265821" d="M1008.912,730.713a7.824,7.824,0,0,0-1.171-.088,8.264,8.264,0,0,0-8.073,7.254,8.694,8.694,0,0,0-.085,1.212,8.371,8.371,0,0,0,7.007,8.364h0a7.989,7.989,0,0,0,1.165.086,8.265,8.265,0,0,0,8.076-7.256l-1.5-.222,1.5.22a8.89,8.89,0,0,0,.083-1.209,8.368,8.368,0,0,0-7.005-8.361m-1.154,13.7a5.122,5.122,0,0,1-.738-.054,5.272,5.272,0,0,1-4.413-5.263,5.472,5.472,0,0,1,.053-.762v0a5.2,5.2,0,0,1,5.08-4.569,4.936,4.936,0,0,1,.736.055h0a5.269,5.269,0,0,1,4.412,5.261,5.653,5.653,0,0,1-.053.766,5.205,5.205,0,0,1-5.082,4.568" transform="translate(-847.706 -615.662)" fill="#3f2c66"/>
          <path id="Trazado_1265822" data-name="Trazado 1265822" d="M1060.971,731.179h0Z" transform="translate(-899.767 -616.129)" fill="#3f2c66"/>
          <path id="Trazado_1265823" data-name="Trazado 1265823" d="M1000.136,776.724v0h0Z" transform="translate(-848.175 -654.505)" fill="#3f2c66"/>
          <path id="Trazado_1265824" data-name="Trazado 1265824" d="M1212.632,976.745l.43-3.1-15.529-2.308-64.455-9.581-.944-.14-.43,3.1.944.14,64.456,9.581Z" transform="translate(-959.752 -810.306)" fill="#5d0b80"/>
          <path id="Trazado_1265825" data-name="Trazado 1265825" d="M1146.412,1020.082l-21.254-3.159-.944-.14-.43,3.1.944.14,21.254,3.159Z" transform="translate(-953.036 -856.793)" fill="#5d0b80"/>
          <path id="Trazado_1265826" data-name="Trazado 1265826" d="M1324.657,1048.723l34.878,5.185,2.58.384.43-3.1-2.58-.383-34.879-5.185Z" transform="translate(-1123.388 -881.095)" fill="#5d0b80"/>
          <path id="Trazado_1265904" data-name="Trazado 1265904" d="M.032.015,3.162,0,3.13,6.312,0,6.327Z" transform="translate(245.414 174.222) rotate(-81.829)" fill="#3f2c66"/>
          <path id="Trazado_1265827" data-name="Trazado 1265827" d="M1164.013,1071l-45.647-6.785-.944-.141-.43,3.1.945.14,45.647,6.786Z" transform="translate(-947.275 -896.645)" fill="#5d0b80"/>
          <path id="Trazado_1265828" data-name="Trazado 1265828" d="M1462.443,1116.766l12.912,1.919,15.529,2.309.43-3.1-15.529-2.308-12.912-1.92Z" transform="translate(-1240.239 -938.431)" fill="#5d0b80"/>
          <path id="Trazado_1265829" data-name="Trazado 1265829" d="M993.306,973.9a4.943,4.943,0,0,0-.737-.055,5.2,5.2,0,0,0-5.081,4.569v0a5.479,5.479,0,0,0-.053.761,5.27,5.27,0,0,0,4.41,5.261,5.086,5.086,0,0,0,.741.055,5.2,5.2,0,0,0,5.081-4.567,5.689,5.689,0,0,0,.053-.766,5.272,5.272,0,0,0-4.414-5.263" transform="translate(-837.404 -820.614)" fill="#ffe9a1"/>
          <path id="Trazado_1265830" data-name="Trazado 1265830" d="M976.857,954.03a7.894,7.894,0,0,0-1.169-.087,8.264,8.264,0,0,0-8.074,7.253,8.635,8.635,0,0,0-.085,1.214,8.369,8.369,0,0,0,7.007,8.362,8,8,0,0,0,1.169.086,8.265,8.265,0,0,0,8.075-7.255v0a8.92,8.92,0,0,0,.082-1.207,8.371,8.371,0,0,0-7.006-8.364m3.929,9.13a5.2,5.2,0,0,1-5.081,4.567,5.069,5.069,0,0,1-.741-.055,5.27,5.27,0,0,1-4.41-5.261,5.472,5.472,0,0,1,.053-.761v0a5.2,5.2,0,0,1,5.081-4.57,4.933,4.933,0,0,1,.737.055,5.272,5.272,0,0,1,4.414,5.263,5.667,5.667,0,0,1-.053.766" transform="translate(-820.522 -803.841)" fill="#3f2c66"/>
          <path id="Trazado_1265831" data-name="Trazado 1265831" d="M968.083,1000.039v0h0Z" transform="translate(-820.992 -842.681)" fill="#3f2c66"/>
          <path id="Trazado_1265832" data-name="Trazado 1265832" d="M1655.6,245.85l31.643,4.7-27.861-31.988Z" transform="translate(-1404.051 -184.174)" fill="#d0cccc"/>
          <path id="Trazado_1265833" data-name="Trazado 1265833" d="M1920.861,1247.435c-.51,11.69-.6,25.121-.847,39.218-.073,4.213.83,48.016.715,52.319h38.1v-51.078l1.03-12.019-.11-2v-18.623h0a.284.284,0,1,1,.567,0v18.593l.943,17.078a.291.291,0,0,1-.267.31l.429,47.742h37.449c.016-3.536.029-46.484,0-49.8-.006-.672-.011-1.349-.019-2.012-.187-16.285-.868-29.735-1.576-39.726Z" transform="translate(-1628.054 -1051.152)" fill="#056154"/>
          <path id="Trazado_1265834" data-name="Trazado 1265834" d="M2137.622,393.568a.26.26,0,0,1,.257-.1,27.127,27.127,0,0,0,6.453.764,17.973,17.973,0,0,0,7.291-1.32c1.476-1.014,1.433-2.079,1.433-2.079l.164.042-.087-.042v-3.251c-3.13.591-15.3,3.251-17.46-1.446v4.7l-.075.025a3.022,3.022,0,0,0,2.024,2.706" transform="translate(-1811.115 -325.381)" fill="#f3a49a"/>
          <path id="Trazado_1265835" data-name="Trazado 1265835" d="M2153.553,318.1v-8.567a10.874,10.874,0,0,1-1.741-5.675c-.129-.053-.257-.113-.382-.178a12.69,12.69,0,0,1-1.268,1.574c-3.75,3.911-8.272,8.228-14.069,6.915v4.485c2.161,4.7,14.33,2.037,17.46,1.446" transform="translate(-1811.534 -255.899)" fill="#de6a66"/>
          <path id="Trazado_1265836" data-name="Trazado 1265836" d="M2107.94,204.374a12.663,12.663,0,0,0,1.268-1.574c.125.065.252.125.382.178a4.237,4.237,0,0,0,2.281.285c2.7-.424,4.5-3.4,4.024-6.638s-3.046-5.527-5.743-5.1c-2.435.382-4.135,2.842-4.094,5.7l0,0s-1.338.417-1.482-3.026c0,0,1.089-5.483,0-8.293a16.616,16.616,0,0,0-.923-1.946,26.764,26.764,0,0,1-16.554.689c-1.043,3.935-.908,9.129-.43,14.6.375,4.27,1.84,10.553,6.684,11.927.176.05.346.076.52.116,5.8,1.313,10.319-3,14.069-6.915m1.471-10.158a3.54,3.54,0,0,1,1.992-.682,2.906,2.906,0,0,1,2.281,1.162,4.166,4.166,0,0,1,.87,2.57,4,4,0,0,1-1.407,3.074.278.278,0,0,1-.4-.038.3.3,0,0,1,.037-.414,3.4,3.4,0,0,0,1.2-2.621,3.573,3.573,0,0,0-.741-2.2,2.343,2.343,0,0,0-1.843-.949,2.992,2.992,0,0,0-1.68.585h0a.278.278,0,0,1-.393-.084.3.3,0,0,1,.081-.408m-.115,1.928h0a.284.284,0,0,1,.334-.23.294.294,0,0,1,.222.346l-.012.138a2.142,2.142,0,0,0,.4,1.089,2.765,2.765,0,0,1,.564-.906,1.683,1.683,0,0,1,1.176-.564l.213.019h0a.293.293,0,0,1,.233.338.286.286,0,0,1-.327.241l-.12-.011a1.135,1.135,0,0,0-.776.394,2.2,2.2,0,0,0-.522.9l0,0a1.976,1.976,0,0,0,.985.343l.137-.01a.286.286,0,0,1,.322.248.293.293,0,0,1-.24.333l-.22.016a2.653,2.653,0,0,1-1.642-.705,2.681,2.681,0,0,1-.747-1.724Zm-12.549-5.04a3.585,3.585,0,0,1,1.783-.447,3.1,3.1,0,0,1,2.409,1h0a.3.3,0,0,1-.031.414.277.277,0,0,1-.4-.033,2.557,2.557,0,0,0-1.978-.793,3.039,3.039,0,0,0-1.5.372.279.279,0,0,1-.387-.111.3.3,0,0,1,.108-.4m1.9,3.117a.974.974,0,0,1-.868,1.062.96.96,0,0,1-1.026-.9.974.974,0,0,1,.867-1.062.961.961,0,0,1,1.026.9m-.23,1.528c1.262-.1,2.336.485,2.4,1.311s-.911,1.58-2.172,1.683-2.337-.485-2.4-1.311.91-1.581,2.172-1.683m-9.354,2.8c-1.259-.138-2.212-.917-2.128-1.742s1.173-1.382,2.432-1.245,2.212.917,2.129,1.742-1.173,1.382-2.432,1.245m-.447-4.351a.982.982,0,0,1,.761-1.145.953.953,0,0,1,1.107.788.983.983,0,0,1-.76,1.146.953.953,0,0,1-1.107-.789m3.511-2.653a.281.281,0,0,1-.372.157,4.381,4.381,0,0,0-1.722-.391,2.812,2.812,0,0,0-1.445.379.279.279,0,0,1-.387-.111.3.3,0,0,1,.108-.4,3.366,3.366,0,0,1,1.725-.454,4.925,4.925,0,0,1,1.942.437h0a.3.3,0,0,1,.152.385m.9,6.472a3.335,3.335,0,0,1-.689-.816.342.342,0,0,1-.026-.306,11.905,11.905,0,0,0,.851-4.326q0-.238-.011-.471h0a.319.319,0,1,1,.636-.034q.012.252.012.5a12.555,12.555,0,0,1-.838,4.4,2.618,2.618,0,0,0,.46.531.754.754,0,0,0,.431.207l.076-.014a.315.315,0,0,1,.408.2.333.333,0,0,1-.191.422.832.832,0,0,1-.293.053,1.343,1.343,0,0,1-.827-.35m.392,2.578a.293.293,0,0,1,.236-.337,3.758,3.758,0,0,0,1.536-.462,2.648,2.648,0,0,0,.853-1.318.28.28,0,0,1,.369-.162.3.3,0,0,1,.156.383,3.2,3.2,0,0,1-1.063,1.586,4.221,4.221,0,0,1-1.762.554h0a.285.285,0,0,1-.325-.244" transform="translate(-1769.312 -155.016)" fill="#f3a49a"/>
          <path id="Trazado_1265837" data-name="Trazado 1265837" d="M2237.973,245.974h0a2.988,2.988,0,0,1,1.679-.585,2.344,2.344,0,0,1,1.843.948,3.573,3.573,0,0,1,.741,2.2,3.4,3.4,0,0,1-1.2,2.621.3.3,0,0,0-.037.414.278.278,0,0,0,.4.038,4,4,0,0,0,1.408-3.074,4.169,4.169,0,0,0-.87-2.57,2.906,2.906,0,0,0-2.281-1.162,3.539,3.539,0,0,0-1.992.682.3.3,0,0,0-.081.408.279.279,0,0,0,.394.084" transform="translate(-1897.561 -206.282)" fill="#361802"/>
          <path id="Trazado_1265838" data-name="Trazado 1265838" d="M2239.853,262.8l.219-.016a.293.293,0,0,0,.24-.333.285.285,0,0,0-.322-.248l-.138.01a1.978,1.978,0,0,1-.985-.343l0,0a2.2,2.2,0,0,1,.522-.9,1.135,1.135,0,0,1,.776-.394l.12.011a.286.286,0,0,0,.327-.241.293.293,0,0,0-.233-.339h0l-.214-.019a1.682,1.682,0,0,0-1.175.564,2.753,2.753,0,0,0-.564.906,2.141,2.141,0,0,1-.4-1.089l.012-.137a.294.294,0,0,0-.222-.346.284.284,0,0,0-.334.23h0l-.023.253a2.68,2.68,0,0,0,.747,1.724,2.653,2.653,0,0,0,1.642.706" transform="translate(-1897.503 -218.992)" fill="#361802"/>
          <path id="Trazado_1265839" data-name="Trazado 1265839" d="M1952.882,863.968H1945.5l-2.9.622s-4.989,3.07-8.672,3l-19.507-1.494c-1.894-.375-1.653-1.816-1.577-2.13h-4.112c-.85,7.831-1.742,16.516-2.592,26.094a.287.287,0,0,1-.309.266h0l-3.739,33.979h84.623c-.636-10.162-1.249-21.248-1.812-32.2-.343-5.434-.764-12.3-1.149-18.793Z" transform="translate(-1613.081 -728.024)" fill="#fbce73"/>
          <path id="Trazado_1265840" data-name="Trazado 1265840" d="M1941.288,416.034l-.164-.042s.043,1.065-1.433,2.079c.145-.067.3-.13.434-.2h0a.279.279,0,0,1,.381.128.3.3,0,0,1-.124.4,17.727,17.727,0,0,1-7.983,1.588,27.649,27.649,0,0,1-6.588-.78.294.294,0,0,1-.208-.355.274.274,0,0,1,.085-.121,3.021,3.021,0,0,1-2.023-2.706c0-.009,0-.016,0-.025l-14.373,3.07a23.441,23.441,0,0,0-11.827,5.532l-11.03,9.3-.738.623h17.125c3.882,0,7.768,1.782,8.6,7.279l8.93,37.4c0,.178-.014.353-.026.528l3.586-.906,11.081-.731,2.347-.09s0,0,0-.008a.288.288,0,0,1,.281-.3c8.27-.079,20.283-.991,31.172-1.187-.028-.673-.043-1.159-.043-1.416a1.924,1.924,0,0,1,.009-.223h0a.285.285,0,0,1,.318-.253.292.292,0,0,1,.244.33l0,.145c0,.252.015.735.043,1.407,1.125-.018,2.242-.03,3.336-.03,1.158,0,2.285.016,3.4.04l1.489-.057s.97.019,2.442.207c.992.056,1.963.122,2.886.209h0a.291.291,0,0,1,.257.319c0,.015-.015.022-.019.036.686.161,1.4.354,2.119.59l4.867-3.87,4.833-3.843-24.587-37.741a34.434,34.434,0,0,0-7.338-9.462,12.078,12.078,0,0,0-7.352-3.2Z" transform="translate(-1599.182 -350.536)" fill="#fbce73"/>
          <path id="Trazado_1265841" data-name="Trazado 1265841" d="M1927.585,863.968c-.848,7.816-1.738,16.484-2.586,26.04a.291.291,0,0,0,.256.319h0a.287.287,0,0,0,.309-.266c.849-9.578,1.742-18.263,2.592-26.094Z" transform="translate(-1632.514 -728.024)" fill="#361802"/>
          <path id="Trazado_1265842" data-name="Trazado 1265842" d="M2063.742,784.3l-4.867,3.87c-.722-.236-1.433-.429-2.119-.59a.279.279,0,0,1-.29.23c-3.035-.286-6.492-.4-10.161-.4-11.791,0-25.764,1.137-35.07,1.227a.287.287,0,0,1-.283-.283l-2.346.09-11.081.731-3.586.906-8.829,2.23c-.928,1.552.51,2.209,2.659,2.425a.283.283,0,0,1,.266-.27h.04c.905,0,1.909.023,2.942.023a17.812,17.812,0,0,0,6.567-.882.281.281,0,0,1,.371.16.3.3,0,0,1-.154.384,18.248,18.248,0,0,1-6.783.927c-.7,0-1.364-.009-2.008-.016l-16.435,1.708s-.007.025-.017.063c-.076.313-.317,1.755,1.578,2.13l19.507,1.494c3.683.069,8.672-3,8.672-3l2.9-.622,4.323-.927,3.063.927,30.865,9.344.579.175,4.993,1.511s13.5,4.793,18.567-5.981a13.694,13.694,0,0,0,.347-3.907,17.883,17.883,0,0,0,.848-2.3Z" transform="translate(-1672.802 -660.89)" fill="#f19288"/>
          <path id="Trazado_1265843" data-name="Trazado 1265843" d="M2439.544,923.353c.385,6.492.805,13.359,1.149,18.793.339,5.378.6,9.354.68,10.168a.287.287,0,0,0,.311.264.291.291,0,0,0,.255-.321c-.153-1.6-1.052-15.866-1.815-28.728Z" transform="translate(-2068.878 -778.064)" fill="#361802"/>
          <path id="Trazado_1265844" data-name="Trazado 1265844" d="M2148.652,428.5a.261.261,0,0,0-.258.1.274.274,0,0,0-.085.12.294.294,0,0,0,.208.355,27.643,27.643,0,0,0,6.588.78,17.727,17.727,0,0,0,7.983-1.588.3.3,0,0,0,.124-.4.279.279,0,0,0-.382-.129h0c-.138.073-.288.136-.434.2a17.974,17.974,0,0,1-7.291,1.321,27.138,27.138,0,0,1-6.453-.764" transform="translate(-1821.887 -360.41)" fill="#361802"/>
          <path id="Trazado_1265845" data-name="Trazado 1265845" d="M2184.545,1331.191l-.944-17.078V1295.52a.284.284,0,1,0-.567,0h0v18.623l.111,2,.667,12.073.166,3.005a.288.288,0,0,0,.3.277h0a.291.291,0,0,0,.267-.31" transform="translate(-1851.343 -1091.423)" fill="#361802"/>
          <path id="Trazado_1265846" data-name="Trazado 1265846" d="M2154.5,227.47a3.038,3.038,0,0,1,1.5-.372,2.557,2.557,0,0,1,1.978.793.277.277,0,0,0,.4.033.3.3,0,0,0,.032-.414h0a3.1,3.1,0,0,0-2.409-1,3.586,3.586,0,0,0-1.783.447.3.3,0,0,0-.107.4.279.279,0,0,0,.387.111" transform="translate(-1826.783 -190.87)" fill="#361802"/>
          <path id="Trazado_1265847" data-name="Trazado 1265847" d="M2102.313,227.4a4.923,4.923,0,0,0-1.942-.437,3.369,3.369,0,0,0-1.725.454.3.3,0,0,0-.107.4.279.279,0,0,0,.387.111,2.811,2.811,0,0,1,1.445-.379,4.391,4.391,0,0,1,1.723.391.28.28,0,0,0,.371-.157.3.3,0,0,0-.152-.385Z" transform="translate(-1779.655 -191.248)" fill="#361802"/>
          <path id="Trazado_1265848" data-name="Trazado 1265848" d="M2155.892,243.442a.974.974,0,0,0-.867,1.062.96.96,0,0,0,1.026.9.974.974,0,0,0,.867-1.062.961.961,0,0,0-1.026-.9" transform="translate(-1827.587 -205.134)" fill="#361802"/>
          <path id="Trazado_1265849" data-name="Trazado 1265849" d="M2102.5,243.614a.983.983,0,0,0,.761-1.146.952.952,0,0,0-1.107-.788.981.981,0,0,0-.761,1.145.953.953,0,0,0,1.107.789" transform="translate(-1782.091 -203.638)" fill="#361802"/>
          <path id="Trazado_1265850" data-name="Trazado 1265850" d="M2127.51,240.058a.333.333,0,0,0,.191-.422.315.315,0,0,0-.408-.2l-.076.014a.754.754,0,0,1-.431-.207,2.61,2.61,0,0,1-.46-.531,12.555,12.555,0,0,0,.838-4.4q0-.253-.012-.5a.319.319,0,1,0-.636.034h0c.008.155.011.313.011.471a11.9,11.9,0,0,1-.852,4.326.342.342,0,0,0,.026.306,3.335,3.335,0,0,0,.689.816,1.343,1.343,0,0,0,.827.35.834.834,0,0,0,.293-.053" transform="translate(-1802.678 -196.756)" fill="#361802"/>
          <path id="Trazado_1265851" data-name="Trazado 1265851" d="M2154.081,261.808c1.261-.1,2.234-.855,2.172-1.683s-1.137-1.414-2.4-1.311-2.235.855-2.171,1.683,1.136,1.413,2.4,1.311" transform="translate(-1824.752 -218.08)" fill="#de6a66"/>
          <path id="Trazado_1265852" data-name="Trazado 1265852" d="M2092.818,257.6c-1.259-.138-2.346.421-2.431,1.245s.869,1.6,2.128,1.742,2.348-.42,2.432-1.245-.869-1.6-2.129-1.742" transform="translate(-1772.768 -217.051)" fill="#de6a66"/>
          <path id="Trazado_1265853" data-name="Trazado 1265853" d="M2135.163,277.069a3.206,3.206,0,0,0,1.063-1.586.3.3,0,0,0-.156-.383.28.28,0,0,0-.37.162,2.653,2.653,0,0,1-.853,1.318,3.758,3.758,0,0,1-1.535.461.292.292,0,0,0-.236.337.286.286,0,0,0,.325.244h0a4.225,4.225,0,0,0,1.763-.554" transform="translate(-1808.972 -231.795)" fill="#361802"/>
          <path id="Trazado_1265854" data-name="Trazado 1265854" d="M1642.6,859.4h1.458a6.8,6.8,0,0,1-3.3-.853,2.44,2.44,0,0,0,1.839.853" transform="translate(-1391.464 -723.457)" fill="#3c3d79"/>
          <path id="Trazado_1265855" data-name="Trazado 1265855" d="M2192.122,858.076,2187.8,859h7.386Z" transform="translate(-1855.383 -723.058)" fill="#3c3d79"/>
          <path id="Trazado_1265856" data-name="Trazado 1265856" d="M1633.039,541.023c-.828-5.5-4.713-7.279-8.6-7.279h-59.97a6.8,6.8,0,0,0-3.177.792,7.3,7.3,0,0,0-3.852,6.487l.494,2.069,3.435,14.388,8.077.973,1.505,1.028-.031,1.714.742,2.009-.72,2.14a.271.271,0,0,1-.022.064l.315,1.715-1.272,1.447c.013.012.032.011.043.026a.3.3,0,0,1-.05.412c-.015.012-.031.021-.047.033.345.727,1.255,2.722.947,2.925-.377.251-2.33,1.054-2.706,1.3a6.932,6.932,0,0,1-3.106-.391l.745,3.121.579,2.426a7.573,7.573,0,0,0,.049.832,7.285,7.285,0,0,0,3.681,5.595,6.8,6.8,0,0,0,3.3.852h47.16c.009-.039.017-.063.017-.063l16.435-1.708c-.316,0-.638-.008-.934-.008h-.027a.288.288,0,0,1-.29-.288c0-.012.01-.019.011-.03-2.15-.216-3.588-.873-2.66-2.425l8.83-2.23c.012-.175.026-.349.026-.527Zm-33.332,25.218a6.521,6.521,0,1,1,6.293-6.517,6.408,6.408,0,0,1-6.293,6.517" transform="translate(-1320.806 -449.76)" fill="#44468d"/>
          <path id="Trazado_1265857" data-name="Trazado 1265857" d="M1800.469,657.44a6.521,6.521,0,1,0,6.293,6.516,6.408,6.408,0,0,0-6.293-6.516" transform="translate(-1521.568 -553.992)" fill="#d1dce8"/>
          <path id="Trazado_1265858" data-name="Trazado 1265858" d="M2482.064,800.238l-1.489.058c1.354.029,2.669.078,3.931.149-1.471-.188-2.442-.207-2.442-.207" transform="translate(-2103.675 -674.321)" fill="#f19288"/>
          <path id="Trazado_1265859" data-name="Trazado 1265859" d="M2271.1,790.818h0c-.923-.087-1.894-.153-2.886-.209-1.263-.072-2.577-.12-3.931-.149-1.111-.024-2.238-.04-3.4-.04-1.094,0-2.211.013-3.336.03-.028-.672-.043-1.155-.043-1.407l0-.145a.292.292,0,0,0-.244-.33.285.285,0,0,0-.318.253h0a1.89,1.89,0,0,0-.009.223c0,.257.016.743.043,1.416-10.889.2-22.9,1.108-31.172,1.187a.288.288,0,0,0-.281.3s0,0,0,.008a.287.287,0,0,0,.284.283c9.306-.09,23.279-1.227,35.07-1.227,3.669,0,7.126.111,10.161.4a.279.279,0,0,0,.29-.23c0-.014.017-.021.019-.036a.292.292,0,0,0-.257-.319" transform="translate(-1887.38 -664.486)" fill="#361802"/>
          <path id="Trazado_1265860" data-name="Trazado 1265860" d="M1572.454,688.334c.432.945-.862,2.073-.128,3.3.356.6-.547,1.366-.17,1.953.7,1.094.224,1.49.661,2.445.12.256.749.63.787.944.136,1.05,1.084,1.119,1.909,1.988a3.078,3.078,0,0,0,.79.566,6.845,6.845,0,0,0,1.143.465,6.931,6.931,0,0,0,3.106.391c.377-.25,2.33-1.054,2.707-1.3.307-.2-.6-2.2-.948-2.925a4.612,4.612,0,0,1-2.939.784c-.131,0-.26,0-.388,0a17.716,17.716,0,0,1-4.2-.763.3.3,0,0,1-.193-.365.282.282,0,0,1,.352-.2,17.247,17.247,0,0,0,4.053.739c.127,0,.253,0,.378,0a4.04,4.04,0,0,0,2.637-.693h0a.268.268,0,0,1,.355.026l1.272-1.447-.315-1.715a.282.282,0,0,1-.095.147,4.973,4.973,0,0,1-3.121.889c-.4,0-.833-.02-1.307-.041a22.12,22.12,0,0,1-4.666-1.009.3.3,0,0,1-.179-.372.281.281,0,0,1,.359-.186,21.8,21.8,0,0,0,4.51.98c.474.021.9.04,1.282.04a4.413,4.413,0,0,0,2.806-.79h0a.278.278,0,0,1,.394.081.3.3,0,0,1,.038.2l.72-2.14-.742-2.009.031-1.714-1.505-1.028-8.077-.973a2.8,2.8,0,0,0-1.316,3.741m7.354.577a7.818,7.818,0,0,0,3.139-.472h0a.279.279,0,0,1,.378.14.3.3,0,0,1-.135.391,8.248,8.248,0,0,1-3.383.528,39.622,39.622,0,0,1-5.626-.509.293.293,0,0,1-.24-.334.286.286,0,0,1,.323-.248,39.019,39.019,0,0,0,5.543.5" transform="translate(-1333.202 -576.873)" fill="#f5a58e"/>
          <path id="Trazado_1265861" data-name="Trazado 1265861" d="M1584.417,709.071a.293.293,0,0,0,.24.334,39.617,39.617,0,0,0,5.626.509,8.25,8.25,0,0,0,3.383-.528.3.3,0,0,0,.135-.391.28.28,0,0,0-.378-.14h0a7.817,7.817,0,0,1-3.139.472,39.029,39.029,0,0,1-5.543-.5.285.285,0,0,0-.323.248" transform="translate(-1343.678 -597.288)" fill="#361802"/>
          <path id="Trazado_1265862" data-name="Trazado 1265862" d="M1593.386,731.49h0a4.412,4.412,0,0,1-2.806.79c-.385,0-.808-.019-1.282-.04a21.8,21.8,0,0,1-4.51-.98.282.282,0,0,0-.359.186.3.3,0,0,0,.179.372,22.128,22.128,0,0,0,4.666,1.009c.474.021.9.041,1.307.041a4.975,4.975,0,0,0,3.121-.889.283.283,0,0,0,.095-.147.265.265,0,0,0,.021-.064.3.3,0,0,0-.038-.2.277.277,0,0,0-.393-.081" transform="translate(-1343.678 -616.183)" fill="#361802"/>
          <path id="Trazado_1265863" data-name="Trazado 1265863" d="M1596.048,754.572h0a4.04,4.04,0,0,1-2.637.693c-.125,0-.252,0-.378,0a17.25,17.25,0,0,1-4.054-.74.282.282,0,0,0-.352.2.3.3,0,0,0,.193.365,17.719,17.719,0,0,0,4.2.763c.127,0,.257,0,.387,0a4.612,4.612,0,0,0,2.938-.784c.015-.012.032-.021.047-.033a.3.3,0,0,0,.05-.412c-.011-.015-.03-.013-.043-.025a.268.268,0,0,0-.355-.026" transform="translate(-1347.241 -635.788)" fill="#361802"/>
          <path id="Trazado_1265864" data-name="Trazado 1265864" d="M2071.156,85.292a16.669,16.669,0,0,1,.924,1.946c1.088,2.81,0,8.293,0,8.293.144,3.443,1.482,3.026,1.482,3.026l0,0c-.041-2.859,1.659-5.32,4.094-5.7,2.7-.424,5.268,1.861,5.743,5.1s-1.328,6.214-4.024,6.638a4.237,4.237,0,0,1-2.281-.284,10.883,10.883,0,0,0,1.741,5.675,3.769,3.769,0,0,0,.275.344c3.83-5.961,8.1-14.224,8.613-20.419.613-8.42-3.779-12.208-6.951-13.834a3.97,3.97,0,0,1,2.7-2.154,4.933,4.933,0,0,0-4.041,1.366c.1-.638.775-6.566-8.448-8.42a15.811,15.811,0,0,1,1.032,3.527s-13.567-7-24.03,3.134l4.522,5.365-4.522,4.041a25.326,25.326,0,0,0,6.613,3.046,26.762,26.762,0,0,0,16.554-.689" transform="translate(-1736.817 -56.345)" fill="#242e64"/>
          <path id="Trazado_1265865" data-name="Trazado 1265865" d="M2073.182,844.793h.027c.3,0,.618,0,.934.008.644.007,1.311.016,2.008.016a18.251,18.251,0,0,0,6.784-.927.3.3,0,0,0,.154-.384.28.28,0,0,0-.371-.159,17.813,17.813,0,0,1-6.567.882c-1.032,0-2.036-.023-2.942-.023h-.04a.282.282,0,0,0-.266.27c0,.012-.012.019-.011.031a.288.288,0,0,0,.29.287" transform="translate(-1757.936 -710.628)" fill="#361802"/>
          <path id="Trazado_1265866" data-name="Trazado 1265866" d="M288.607,148.009c.211-.051.409-.112.625-.16l19.5-4.777V131.3c.041.023.086.057.125.075a39.239,39.239,0,0,0,1.752-4.811h.043l-.035-.03a4.51,4.51,0,0,0,.257-1.525c-.084-.156-.156-.3-.229-.449a4.887,4.887,0,0,1-2.11,1.609,1.133,1.133,0,0,1-.84.381,1.112,1.112,0,0,1-.486-.118c-.049,0-.1.009-.146.009-2.706,0-4.9-2.639-4.9-5.892s2.194-5.89,4.9-5.89c2.444,0,4.464,2.152,4.834,4.964l0,0c.981-1.916,1.195-5.924,1.034-10.24-.969-4.526,5.986-6.664,5.986-6.664,6.31-2.3,9,.507,10.023,2.278,1.4,3.639,1.966,8.487,2.264,13.622.246,4.247-.29,10.636-4.842,12.728-.1.048-.206.078-.31.121v11.6l15.694,5.7c1.455-1.988,2.085-4.669,1.511-8.3-.55-3.482-.993-6.438-.318-9.954.652-3.4,2.163-6.681,1.92-10.227-.478-6.994-7.408-11.846-9.585-18.431a21.134,21.134,0,0,0-4.432-7.948,14.705,14.705,0,0,0-10.948-4.542c-6.625-.148-13.953,2.03-19.059,6.611A20.175,20.175,0,0,0,298.063,99c-5.171,7-4.737,13.033-3.331,21.193,1.287,7.464-3.122,8.763-7.29,12.866A20.4,20.4,0,0,0,286,134.62c-3.019,3.66-3.919,9.959-1.509,14.277a24.155,24.155,0,0,1,4.119-.889" transform="translate(-240.092 -75.304)" fill="#242e64"/>
          <path id="Trazado_1265867" data-name="Trazado 1265867" d="M825.494,519.331l-.094-.107,4.943-5.342s4.273-5.3,5.463-8.711c0,0,1.965-7.111.277-5.182a55.3,55.3,0,0,1-3.725,6.432.276.276,0,0,1-.39.086.3.3,0,0,1-.083-.4,51.551,51.551,0,0,0,4.045-7.113h0a.264.264,0,0,1,.287-.14,4.781,4.781,0,0,0-.284-2.732s-.119-.456-.734-.311a40.643,40.643,0,0,1-2.554,5.077,29.838,29.838,0,0,1-3.35,4.915.275.275,0,0,1-.4.008.3.3,0,0,1-.008-.413,29.347,29.347,0,0,0,3.277-4.817,43.512,43.512,0,0,0,2.667-5.334h0a.267.267,0,0,1,.311-.141,1.706,1.706,0,0,0,.049-.714s-.538-2.021-2.046-.78a.286.286,0,0,1,.074.172v.092a5.3,5.3,0,0,1-.767,2.456c-.426.778-.943,1.5-1.33,2.107a41,41,0,0,1-3.5,4.776.275.275,0,0,1-.4.034.3.3,0,0,1-.033-.411,40.356,40.356,0,0,0,3.464-4.723c.4-.619.906-1.333,1.309-2.071a4.741,4.741,0,0,0,.694-2.168V493.8h0a.283.283,0,0,1,.251-.289c-.218-1.275-1.4-.442-1.4-.442a26.883,26.883,0,0,0-3.057,3.9,110.287,110.287,0,0,1-7.046,8.922s-1.376-5.236-4.082-4.359l1.3,7.8,1.284,5.046q-2.753,1.537-5.258,2.916a.278.278,0,0,1-.127.22c-2.949,1.737-6.695,3.65-10.73,5.647-2.294,1.213-4.358,2.285-6.209,3.229q-2.43,1.24-4.392,2.2c-1.481,6.425-5.532,18.449-16.119,27.68,5.04.924,8.283-.218,10.339-2.332.487-.253,1-.518,1.548-.794l5.639-5.22Z" transform="translate(-659.007 -415.257)" fill="#f19288"/>
          <path id="Trazado_1265868" data-name="Trazado 1265868" d="M894.077,652.589c4.035-2,7.782-3.91,10.73-5.647a.278.278,0,0,0,.127-.22.29.29,0,0,0-.021-.177.276.276,0,0,0-.384-.109c-4.309,2.54-10.357,5.468-16.539,8.5-1.434.7-2.873,1.411-4.3,2.122-.049.234-.1.473-.158.726,1.446-.721,2.906-1.44,4.363-2.155,2.093-1.027,4.173-2.043,6.183-3.038" transform="translate(-749.287 -544.687)" fill="#361802"/>
          <path id="Trazado_1265869" data-name="Trazado 1265869" d="M1112.014,497.539h0v.077a4.736,4.736,0,0,1-.694,2.168c-.4.738-.911,1.452-1.309,2.071a40.381,40.381,0,0,1-3.464,4.723.3.3,0,0,0,.033.411.275.275,0,0,0,.4-.034,40.971,40.971,0,0,0,3.5-4.776c.387-.6.9-1.329,1.33-2.107a5.3,5.3,0,0,0,.767-2.455v-.092a.289.289,0,0,0-.074-.172.265.265,0,0,0-.215-.112c-.009,0-.014.01-.022.011a.283.283,0,0,0-.251.289" transform="translate(-938.362 -418.999)" fill="#361802"/>
          <path id="Trazado_1265870" data-name="Trazado 1265870" d="M1123.594,507.55h0a43.512,43.512,0,0,1-2.667,5.334,29.34,29.34,0,0,1-3.277,4.817.3.3,0,0,0,.008.413.275.275,0,0,0,.4-.008,29.859,29.859,0,0,0,3.35-4.915,40.7,40.7,0,0,0,2.554-5.076c.047-.1.092-.2.142-.313a.3.3,0,0,0-.132-.389c-.021-.01-.043,0-.065,0a.267.267,0,0,0-.311.141" transform="translate(-947.767 -427.562)" fill="#361802"/>
          <path id="Trazado_1265871" data-name="Trazado 1265871" d="M1141.594,531.392h0a51.545,51.545,0,0,1-4.045,7.113.3.3,0,0,0,.083.4.276.276,0,0,0,.39-.086,55.3,55.3,0,0,0,3.725-6.432c.11-.231.226-.473.353-.742a.3.3,0,0,0-.129-.39c-.029-.015-.059,0-.089-.006a.264.264,0,0,0-.287.14" transform="translate(-964.671 -447.658)" fill="#361802"/>
          <path id="Trazado_1265872" data-name="Trazado 1265872" d="M323.337,944.831c-.39.071-.781.133-1.171.2a.29.29,0,0,1-.215.337,81.066,81.066,0,0,1-18.488,1.84c-4.781,0-10.009-.22-16.446-.375h0a.287.287,0,0,1-.275-.3c0-.005,0-.008.005-.013-9.3-.6-15.5-1.691-15.5-1.691-1.14,3.239-2.115,6.205-2.945,8.861,2.044-.132,4.074-.2,5.852-.245,4.413-.115,18.2,1.569,16.531,6.883-2.8-.2-6.3-2.13-9.242-2.232,7.008,1.806,10.578,4.141,9.8,7.765-.362,1.374-4.967-2.68-6.731-3.645a17.614,17.614,0,0,0-8.165-1.71c3.865-.178,11.981,3.335,11.882,7.422-.919,1.879-3.937-1.681-6-2.609a12.909,12.909,0,0,0-6.149-1.218c4.625.62,8.565,2.127,8.312,5.607-1.9.658-4.57-2.28-8.15-2.207-3.506.071-6.4,1.355-9.9,1.594-.662.045-1.348.1-2.051.138-.677,5.795-2.7,25.246-3.148,54.371-.1,6.629-.094,52.294,0,59.877H297.9l1.081-58.668.606-10.96a.287.287,0,0,1-.07-.175V992.433l.083-.206.2-.085h4.318V968.761h0a.282.282,0,1,1,.563,0v23.673l-.082.206-.2.085h-4.318v20.956a.287.287,0,0,1-.282.292.262.262,0,0,1-.147-.063l.939,10.957,1.1,58.617H335.93s.236-51.172,0-57.487c-.9-24.284-2.228-47.835-4.155-62.425a38.628,38.628,0,0,0-8.438-18.739M298.4,989.717V968.761a.282.282,0,1,1,.563,0v20.956a.282.282,0,1,1-.563,0m-2.333-37.043c-14.7,0-23.739-2.423-23.757-2.428h0a.293.293,0,0,1-.2-.355.28.28,0,0,1,.343-.209s.136.037.409.1.68.159,1.214.272c1.069.226,2.649.527,4.687.828a119.144,119.144,0,0,0,17.3,1.206,141.147,141.147,0,0,0,25.776-2.413.282.282,0,0,1,.327.235.291.291,0,0,1-.227.338,141.627,141.627,0,0,1-25.876,2.423" transform="translate(-221.382 -796.163)" fill="#056154"/>
          <path id="Trazado_1265873" data-name="Trazado 1265873" d="M719.577,850.664l-6.064-7.258c1.88,3.267,3.939,5.954,6.064,7.258" transform="translate(-605.102 -710.698)" fill="#f19288"/>
          <path id="Trazado_1265874" data-name="Trazado 1265874" d="M421.407,197.235l-.222-.752c3.407,2.151,7.19,3.545,11.208,1.86.1-.043.206-.074.31-.121,4.553-2.092,5.089-8.481,4.842-12.728-.3-5.134-.864-9.983-2.264-13.622-1.019-1.771-3.713-4.579-10.023-2.278,0,0-6.956,2.138-5.986,6.664.161,4.316-.053,8.324-1.034,10.24l0,0c-.371-2.811-2.391-4.964-4.834-4.964-2.706,0-4.9,2.637-4.9,5.89s2.194,5.892,4.9,5.892c.049,0,.1-.007.146-.009a1.2,1.2,0,0,1-.676-1.086,1.163,1.163,0,1,1,2.324,0,1.216,1.216,0,0,1-.322.823,4.886,4.886,0,0,0,2.11-1.609c.074.147.145.293.229.449a4.511,4.511,0,0,1-.257,1.525l.035.03h-.043a39.213,39.213,0,0,1-1.752,4.811c-.039-.018-.084-.052-.125-.075v11.773a10.4,10.4,0,0,0,.413,3.534.27.27,0,0,1,.326.152,7.02,7.02,0,0,0,3.755,3.768,10.948,10.948,0,0,0,4.335.87,8.887,8.887,0,0,0,1.08-.06,8.045,8.045,0,0,0,4.392-1.814,7.88,7.88,0,0,0,2.409-4.239h0a.281.281,0,0,1,.341-.212h0a8.689,8.689,0,0,0,.268-2v-6.887c-2.395,0-7.1-1.749-10.986-5.823m10.643-16.917a.275.275,0,0,1-.4.019.3.3,0,0,1-.019-.412c.778-.887,1.371-1.21,1.932-1.21a2.831,2.831,0,0,1,1.059.293.3.3,0,0,1,.162.377.279.279,0,0,1-.364.168,2.417,2.417,0,0,0-.857-.255c-.328,0-.772.177-1.515,1.02Zm4.735,1.729c.083.817-.861,1.592-2.109,1.731s-2.329-.413-2.414-1.23.859-1.593,2.108-1.732,2.33.413,2.415,1.231m-6.447-5.433a7.047,7.047,0,0,1,3.619-1.289,3,3,0,0,1,.731.085.292.292,0,0,1,.207.352.281.281,0,0,1-.34.215,2.478,2.478,0,0,0-.6-.068,6.534,6.534,0,0,0-3.313,1.2h0a.276.276,0,0,1-.39-.086.3.3,0,0,1,.083-.4m-.1,4.951a.275.275,0,0,1,.4.046c.218.284.492.615.718.959a2.122,2.122,0,0,1,.421,1.1.9.9,0,0,1-.177.546,1.208,1.208,0,0,1-.513.378.278.278,0,0,1-.368-.159.3.3,0,0,1,.154-.38.655.655,0,0,0,.281-.194l.059-.189a1.614,1.614,0,0,0-.324-.768c-.2-.307-.467-.63-.693-.924h0a.3.3,0,0,1,.044-.41m-2.579,5.013a.275.275,0,0,1,.4-.02,4.485,4.485,0,0,0,3.006.9.292.292,0,0,1-.01.583,4.988,4.988,0,0,1-3.375-1.048h0a.3.3,0,0,1-.019-.412m-3.558-.511c-1.248.138-2.33-.413-2.414-1.23s.86-1.593,2.108-1.732,2.33.413,2.414,1.231-.859,1.592-2.108,1.731m-1.633-4.093a2.954,2.954,0,0,1,2.524-1.357,2.169,2.169,0,0,1,.9.18h0a.3.3,0,0,1,.143.385.278.278,0,0,1-.372.148,1.638,1.638,0,0,0-.676-.129,2.412,2.412,0,0,0-2.039,1.07.276.276,0,0,1-.385.1.3.3,0,0,1-.1-.4m-.964-3.209c1.362-1.053,2.8-1.018,4.3-1.03a.292.292,0,0,1,0,.583c-1.522.01-2.774-.006-3.962.914h0a.276.276,0,0,1-.394-.059.3.3,0,0,1,.057-.408m-9.382,11.783a.276.276,0,0,1-.387.1,4.078,4.078,0,0,1-1.06-5.865,2.8,2.8,0,0,1,2.237-1.113,3.734,3.734,0,0,1,1.607.4h0a.3.3,0,0,1,.138.387.278.278,0,0,1-.374.143,3.187,3.187,0,0,0-1.371-.343,2.242,2.242,0,0,0-1.8.9,3.483,3.483,0,0,0,.915,5,.3.3,0,0,1,.1.4m.632-1.6a.292.292,0,0,1,0-.583,1.813,1.813,0,0,0,1.055-.5s0,0-.005,0a1.767,1.767,0,0,0-1.344-1.074l-.227.037h0a.28.28,0,0,1-.356-.186.294.294,0,0,1,.179-.368,1.248,1.248,0,0,1,.4-.066,2.2,2.2,0,0,1,1.729,1.177,2.317,2.317,0,0,0,.235-.949.948.948,0,0,0-.042-.3h0a.294.294,0,0,1,.17-.373.279.279,0,0,1,.36.176,1.539,1.539,0,0,1,.075.5,2.774,2.774,0,0,1-.5,1.552,2.5,2.5,0,0,1-1.729.962" transform="translate(-346.434 -142.178)" fill="#f3a49a"/>
          <path id="Trazado_1265875" data-name="Trazado 1265875" d="M491.977,345.124l.221.752c3.888,4.075,8.592,5.824,10.987,5.824v-4.715c-4.018,1.685-7.8.29-11.208-1.86" transform="translate(-417.226 -290.819)" fill="#de6a66"/>
          <path id="Trazado_1265876" data-name="Trazado 1265876" d="M438.429,310.385a1.182,1.182,0,0,0-1.162,1.2,1.2,1.2,0,0,0,.676,1.086,1.112,1.112,0,0,0,.486.118,1.133,1.133,0,0,0,.84-.381,1.216,1.216,0,0,0,.322-.823,1.182,1.182,0,0,0-1.162-1.2" transform="translate(-370.828 -261.546)" fill="#fff"/>
          <path id="Trazado_1265877" data-name="Trazado 1265877" d="M418.019,267.239a3.4,3.4,0,0,1,.682-2.083,2.242,2.242,0,0,1,1.8-.9,3.187,3.187,0,0,1,1.371.343.278.278,0,0,0,.374-.143.3.3,0,0,0-.138-.387h0a3.733,3.733,0,0,0-1.607-.4,2.8,2.8,0,0,0-2.237,1.113,4.078,4.078,0,0,0,1.06,5.865.276.276,0,0,0,.387-.1.3.3,0,0,0-.1-.4,3.367,3.367,0,0,1-1.6-2.914" transform="translate(-354.027 -222.186)" fill="#361802"/>
          <path id="Trazado_1265878" data-name="Trazado 1265878" d="M433.207,279.112a2.772,2.772,0,0,0,.5-1.552,1.533,1.533,0,0,0-.075-.5.279.279,0,0,0-.36-.176.294.294,0,0,0-.17.373h0a.951.951,0,0,1,.042.3,2.311,2.311,0,0,1-.235.949,2.2,2.2,0,0,0-1.729-1.177,1.247,1.247,0,0,0-.4.066.294.294,0,0,0-.18.368.28.28,0,0,0,.356.186h0l.227-.037a1.767,1.767,0,0,1,1.344,1.074s0,0,.005,0a1.811,1.811,0,0,1-1.055.5.292.292,0,0,0,0,.583,2.5,2.5,0,0,0,1.729-.962" transform="translate(-365.163 -233.303)" fill="#361802"/>
          <path id="Trazado_1265879" data-name="Trazado 1265879" d="M500.658,245.931a2.412,2.412,0,0,1,2.039-1.07,1.644,1.644,0,0,1,.676.13.278.278,0,0,0,.371-.148.3.3,0,0,0-.143-.385h0a2.168,2.168,0,0,0-.9-.18,2.955,2.955,0,0,0-2.524,1.357.3.3,0,0,0,.1.4.277.277,0,0,0,.386-.1" transform="translate(-424.143 -205.841)" fill="#361802"/>
          <path id="Trazado_1265880" data-name="Trazado 1265880" d="M562.258,232.782a2.415,2.415,0,0,1,.857.255.279.279,0,0,0,.364-.168.3.3,0,0,0-.162-.377,2.83,2.83,0,0,0-1.059-.293c-.561,0-1.154.323-1.932,1.21a.3.3,0,0,0,.019.412.275.275,0,0,0,.4-.019h0c.743-.843,1.188-1.021,1.516-1.02" transform="translate(-475.127 -195.663)" fill="#361802"/>
          <path id="Trazado_1265881" data-name="Trazado 1265881" d="M469.567,443.551h0a7.881,7.881,0,0,1-2.409,4.239,8.047,8.047,0,0,1-4.392,1.814,8.924,8.924,0,0,1-1.08.06,10.949,10.949,0,0,1-4.335-.87,7.019,7.019,0,0,1-3.755-3.768.27.27,0,0,0-.326-.152c-.015,0-.029-.006-.044,0a.3.3,0,0,0-.146.384,7.6,7.6,0,0,0,4.049,4.071,11.479,11.479,0,0,0,4.558.918,9.489,9.489,0,0,0,1.148-.064,8.6,8.6,0,0,0,4.687-1.947,8.469,8.469,0,0,0,2.593-4.545.292.292,0,0,0-.2-.352h0a.281.281,0,0,0-.341.212" transform="translate(-384.219 -373.572)" fill="#361802"/>
          <path id="Trazado_1265882" data-name="Trazado 1265882" d="M188.283,852.338c-2.016-3.538-3.7-6.4-5.1-8.721,1.657,3.1,3.34,5.855,5.1,8.721" transform="translate(-155.348 -710.875)" fill="#f19288"/>
          <path id="Trazado_1265883" data-name="Trazado 1265883" d="M42.9,752.02c.7-.034,1.389-.092,2.051-.138,3.5-.239,6.4-1.523,9.9-1.594,3.58-.073,6.246,2.865,8.15,2.207.253-3.481-3.687-4.987-8.312-5.608a12.906,12.906,0,0,1,6.149,1.218c2.062.927,5.08,4.488,6,2.609.1-4.087-8.017-7.6-11.882-7.422A17.611,17.611,0,0,1,63.124,745c1.764.965,6.369,5.019,6.731,3.645.782-3.624-2.789-5.959-9.8-7.765,2.939.1,6.438,2.03,9.242,2.232,1.671-5.315-12.118-7-16.531-6.883-1.778.046-3.808.114-5.852.245-1.656.106-3.314.258-4.861.472q-2.023-3.764-3.8-7.006a.276.276,0,0,1-.382-.107C34,722.886,30.63,718.125,27.341,711.975c-.272.174-.544.357-.817.522a44.59,44.59,0,0,1-9.214-9.312,70.968,70.968,0,0,1-8.994-16.129L5.327,690c-12.814,9.2,1.517,26.618,1.517,26.618l23.6,26.721c-.028.069-.046.114-.046.114a4.337,4.337,0,0,1,.629.546l.1.118c1.417,1.537,2.531,4.259,3.947,5.512.258.228.517.429.776.618A10.362,10.362,0,0,0,42.9,752.02" transform="translate(0 -578.948)" fill="#f19288"/>
          <path id="Trazado_1265884" data-name="Trazado 1265884" d="M190.962,861.348c-.117-.211-.232-.411-.349-.618-1.787-3.171-3.465-5.9-5.075-8.514-1.762-2.866-3.445-5.622-5.1-8.721l-.012-.023c-.16.105-.32.2-.48.307,3.289,6.15,6.659,10.911,10.531,17.861a.276.276,0,0,0,.382.107h0a.3.3,0,0,0,.1-.4" transform="translate(-152.602 -710.753)" fill="#361802"/>
          <path id="Trazado_1265885" data-name="Trazado 1265885" d="M49.755,487.152a44.593,44.593,0,0,0,9.214,9.312c.272-.164.544-.348.817-.522.16-.1.32-.2.479-.307q.972-.641,1.942-1.328c3.11-2.211,6.441-4.521,9.749-6.983-2.171-5.105-4.173-9.847-6.144-14.9h0a.3.3,0,0,1,.155-.38.278.278,0,0,1,.366.161c3.562,9.127,7.228,17.252,11.825,28.376a.3.3,0,0,1-.148.383c-.015.007-.03,0-.046,0l4.342,10.617s6.2,1.092,15.5,1.691a.283.283,0,0,1,.283-.272c6.442.156,11.668.375,16.433.375a80.525,80.525,0,0,0,18.37-1.827.282.282,0,0,1,.334.224s0,.006,0,.009c.391-.067.781-.129,1.171-.2l2-7.626a.29.29,0,0,1-.2-.343c1.334-5.975,3.7-13.058,3.924-17.9q.079-1.682.077-3.356c0-5.235-.519-10.42-.92-15.56h0a.288.288,0,0,1,.258-.314.285.285,0,0,1,.3.267c.4,5.132.922,10.332.922,15.607q0,1.687-.077,3.384a44.455,44.455,0,0,1-1.407,7.995l1.576,1.886,6.064,7.258,1.992,2.384q.826-.657,1.6-1.337c10.587-9.231,14.637-21.255,16.119-27.68.018-.079.038-.162.056-.24.057-.253.108-.492.158-.726a35.189,35.189,0,0,0,.591-3.551L147,445.191a16.038,16.038,0,0,0-2.265-2.943h0a19.063,19.063,0,0,0-6.758-4.455l-3.883-1.41-15.694-5.7a8.7,8.7,0,0,1-.268,2,.292.292,0,0,1,.2.352,8.467,8.467,0,0,1-2.593,4.544,8.6,8.6,0,0,1-4.687,1.947,9.449,9.449,0,0,1-1.148.064,11.483,11.483,0,0,1-4.558-.918,7.6,7.6,0,0,1-4.049-4.071.3.3,0,0,1,.146-.383c.015-.006.029,0,.044,0a10.4,10.4,0,0,1-.413-3.535l-19.5,4.777c-.216.048-.414.108-.625.16a24.139,24.139,0,0,0-4.119.889c-8.827,2.7-17.117,10.04-23.76,15.235-4.838,3.782-9.978,8.432-14.823,12.153.715,2.4,1.56,4.784,2.5,7.124a70.972,70.972,0,0,0,8.994,16.129" transform="translate(-32.444 -362.916)" fill="#f0d5fe"/>
          <path id="Trazado_1265886" data-name="Trazado 1265886" d="M231.318,722.208a.271.271,0,0,0,.323.154c.016,0,.031.006.046,0a.3.3,0,0,0,.148-.383c-4.6-11.124-8.263-19.249-11.825-28.376a.278.278,0,0,0-.366-.161.294.294,0,0,0-.155.38h0c1.971,5.052,3.974,9.794,6.144,14.9l.879,2.068c1.5,3.529,3.089,7.266,4.8,11.42" transform="translate(-186.123 -584.311)" fill="#361802"/>
          <path id="Trazado_1265887" data-name="Trazado 1265887" d="M465.257,944.581a80.528,80.528,0,0,1-18.37,1.827c-4.764,0-9.99-.219-16.433-.375a.283.283,0,0,0-.283.272c0,.005-.005.008-.005.013a.287.287,0,0,0,.275.3h0c6.437.155,11.664.375,16.446.375a81.057,81.057,0,0,0,18.488-1.84.29.29,0,0,0,.215-.337s0-.006,0-.009a.282.282,0,0,0-.334-.224" transform="translate(-364.807 -795.947)" fill="#361802"/>
          <path id="Trazado_1265888" data-name="Trazado 1265888" d="M687.316,677.469q.079-1.7.077-3.384c0-5.275-.522-10.476-.922-15.607a.285.285,0,0,0-.3-.267.288.288,0,0,0-.258.314h0c.4,5.141.92,10.325.92,15.56q0,1.674-.077,3.356c-.226,4.842-2.59,11.924-3.924,17.9a.29.29,0,0,0,.2.343s.005.006.01.007a.282.282,0,0,0,.338-.219c.707-3.177,1.708-6.674,2.531-10.008a44.448,44.448,0,0,0,1.407-7.995" transform="translate(-579.074 -554.641)" fill="#361802"/>
          <path id="Trazado_1265889" data-name="Trazado 1265889" d="M514.358,1140.5a.262.262,0,0,0,.147.063.287.287,0,0,0,.282-.292v-20.956H519.1l.2-.085.082-.206v-23.673a.282.282,0,1,0-.563,0h0v23.381H514.5l-.2.085-.083.207v21.247a.287.287,0,0,0,.07.175.248.248,0,0,0,.064.054" transform="translate(-436.092 -922.754)" fill="#361802"/>
          <path id="Trazado_1265890" data-name="Trazado 1265890" d="M507.447,1116.307v-20.956a.282.282,0,1,0-.563,0v20.956a.282.282,0,1,0,.563,0" transform="translate(-429.868 -922.753)" fill="#361802"/>
          <path id="Trazado_1265891" data-name="Trazado 1265891" d="M383.857,975.836a.282.282,0,0,0-.327-.235,141.128,141.128,0,0,1-25.776,2.414,119.118,119.118,0,0,1-17.3-1.206c-2.038-.3-3.618-.6-4.687-.828-.534-.113-.942-.207-1.214-.272s-.408-.1-.409-.1a.281.281,0,0,0-.343.209.293.293,0,0,0,.2.355h0c.018,0,9.057,2.428,23.757,2.428a141.651,141.651,0,0,0,25.876-2.423.291.291,0,0,0,.227-.338" transform="translate(-283.071 -822.087)" fill="#361802"/>
          <path id="Trazado_1265892" data-name="Trazado 1265892" d="M537.541,283.115a.292.292,0,0,0,.01-.583,4.485,4.485,0,0,1-3.006-.9.275.275,0,0,0-.4.02.3.3,0,0,0,.019.412,4.987,4.987,0,0,0,3.375,1.048" transform="translate(-452.927 -237.257)" fill="#361802"/>
          <path id="Trazado_1265893" data-name="Trazado 1265893" d="M534.681,284.784Z" transform="translate(-453.441 -239.973)" fill="#361802"/>
          <path id="Trazado_1265894" data-name="Trazado 1265894" d="M493.754,227.462h0c1.188-.92,2.44-.9,3.962-.914a.292.292,0,0,0,0-.583c-1.5.011-2.933-.024-4.3,1.03a.3.3,0,0,0-.057.408.276.276,0,0,0,.394.059" transform="translate(-418.351 -190.409)" fill="#361802"/>
          <path id="Trazado_1265895" data-name="Trazado 1265895" d="M551.8,212.434h0a6.534,6.534,0,0,1,3.313-1.2,2.469,2.469,0,0,1,.6.068.281.281,0,0,0,.34-.215.292.292,0,0,0-.207-.352,2.991,2.991,0,0,0-.731-.085,7.046,7.046,0,0,0-3.619,1.289.3.3,0,0,0-.083.4.276.276,0,0,0,.39.086" transform="translate(-467.589 -177.509)" fill="#361802"/>
          <path id="Trazado_1265896" data-name="Trazado 1265896" d="M550.893,250.377c.226.294.491.617.693.924a1.615,1.615,0,0,1,.324.768l-.059.189a.657.657,0,0,1-.281.194.3.3,0,0,0-.154.381.278.278,0,0,0,.367.159,1.208,1.208,0,0,0,.513-.378.9.9,0,0,0,.177-.546,2.123,2.123,0,0,0-.421-1.1c-.226-.344-.5-.676-.718-.959a.275.275,0,0,0-.4-.046.3.3,0,0,0-.044.41Z" transform="translate(-467.138 -210.582)" fill="#361802"/>
          <path id="Trazado_1265897" data-name="Trazado 1265897" d="M497.331,259.977c-1.248.138-2.193.913-2.108,1.732s1.166,1.369,2.414,1.23,2.193-.914,2.108-1.731-1.165-1.37-2.414-1.231" transform="translate(-419.974 -219.052)" fill="#de6a66"/>
          <path id="Trazado_1265898" data-name="Trazado 1265898" d="M566.953,245.435c-1.249.139-2.193.915-2.108,1.732s1.165,1.369,2.414,1.23,2.192-.914,2.109-1.731-1.166-1.37-2.415-1.231" transform="translate(-479.018 -206.798)" fill="#de6a66"/>
          <path id="Trazado_1265899" data-name="Trazado 1265899" d="M738.557,83.733a35.1,35.1,0,0,0,4.713,17.652l-6.506,17.448,16.823-6.347a32.225,32.225,0,0,0,18.141,5.6c18.319,0,33.171-15.379,33.171-34.35A35.019,35.019,0,0,0,798.81,63.91h0a33.9,33.9,0,0,0-8.775-8.821,32.251,32.251,0,0,0-40.108,2.764,34.787,34.787,0,0,0-11.371,25.879m13.565,0a4.5,4.5,0,1,1,4.5,4.661,4.582,4.582,0,0,1-4.5-4.661m19.606,4.661a4.663,4.663,0,1,1,4.5-4.661,4.583,4.583,0,0,1-4.5,4.661m15.105,0a4.663,4.663,0,1,1,4.5-4.661,4.582,4.582,0,0,1-4.5,4.661" transform="translate(-624.82 -41.611)" fill="#2f3787"/>
          <path id="Trazado_1265900" data-name="Trazado 1265900" d="M846.843,242.737a4.5,4.5,0,1,0-4.5,4.661,4.583,4.583,0,0,0,4.5-4.661" transform="translate(-710.54 -200.616)" fill="#fff"/>
          <path id="Trazado_1265901" data-name="Trazado 1265901" d="M946.26,242.737a4.5,4.5,0,1,0-4.5,4.661,4.582,4.582,0,0,0,4.5-4.661" transform="translate(-794.852 -200.616)" fill="#fff"/>
          <path id="Trazado_1265902" data-name="Trazado 1265902" d="M1041.182,238.077a4.663,4.663,0,1,0,4.5,4.661,4.581,4.581,0,0,0-4.5-4.661" transform="translate(-879.169 -200.616)" fill="#fff"/>
        </g>
      </g>
    </g>
  </g>
</svg>
