<svg xmlns="http://www.w3.org/2000/svg" xmlns:xlink="http://www.w3.org/1999/xlink" width="70" height="70" viewBox="0 0 70 70">
  <defs>
    <clipPath id="clip-path">
      <rect id="Rectángulo_458480" data-name="Rectángulo 458480" width="37.918" height="35.447" transform="translate(0 0)" fill="#5d0b80"/>
    </clipPath>
  </defs>
  <g id="Grupo_1207082" data-name="Grupo 1207082" transform="translate(-268.711 -957.695)">
    <circle id="Elipse_5614" data-name="Elipse 5614" cx="35" cy="35" r="35" transform="translate(268.711 957.695)" fill="#fff"/>
    <g id="Grupo_1207667" data-name="Grupo 1207667" transform="translate(284.711 974.694)">
      <g id="Grupo_1207666" data-name="Grupo 1207666" transform="translate(0 0.001)" clip-path="url(#clip-path)">
        <path id="Trazado_1266939" data-name="Trazado 1266939" d="M37.153,59.57a1.063,1.063,0,0,1,.763.87l0,18.321c.015.687-.964,1.455-1.577,1.455H12.6V70.359a2.249,2.249,0,0,0-1.421-1.611A45.615,45.615,0,0,0,4.17,68.7c-.574.1-1.6.827-1.6,1.43v9.915l-.193.156C1.359,80.31.138,79.916,0,78.76l0-18.2a4.132,4.132,0,0,1,.871-1.812c3.495-2.295,6.878-5.25,10.407-7.439.856-.531,1.43-.855,2,.295l.019,7.446.169.414c.614.387.836-.228,1.246-.526C18.5,56.187,22.342,53.5,26.162,50.8c.6-.395,1.484.3,1.484.9v7.7l.175.175Zm-17.12,4.576a1.462,1.462,0,0,0-.994.873,18.013,18.013,0,0,0-.027,3.011,1.324,1.324,0,0,0,1.118,1.1,9.9,9.9,0,0,0,3.19-.177c.834-.469.785-2.286.708-3.138-.073-.8-.332-1.547-1.23-1.686a15.081,15.081,0,0,0-2.765.019m8.282,0a1.518,1.518,0,0,0-1.107,1.226c-.15.895-.214,3.075.682,3.578a9.585,9.585,0,0,0,3.084.187A1.326,1.326,0,0,0,32.2,68.029a18.249,18.249,0,0,0,0-2.807,1.392,1.392,0,0,0-1.121-1.1,15.081,15.081,0,0,0-2.765.019m-8.4,8.746a1.444,1.444,0,0,0-.893.974,17.227,17.227,0,0,0-.009,2.8A1.189,1.189,0,0,0,20,77.772a19.373,19.373,0,0,0,2.926,0c.8-.108,1.035-.888,1.1-1.582.093-.976.165-3.112-1.113-3.316a17.763,17.763,0,0,0-3,.018m8.284,0a1.461,1.461,0,0,0-1.008,1.325c-.119.87-.2,3.023.739,3.44a14.058,14.058,0,0,0,3.161.11,1.332,1.332,0,0,0,1.1-1,12.849,12.849,0,0,0-.125-3.244,1.46,1.46,0,0,0-.867-.65,16.967,16.967,0,0,0-3,.02" transform="translate(0.001 -44.769)" fill="#5d0b80"/>
        <path id="Trazado_1266940" data-name="Trazado 1266940" d="M266.088,34.851h-6.066V24.061l.175-.175h5.716l.175.175Z" transform="translate(-229.692 -21.1)" fill="#5d0b80"/>
        <path id="Trazado_1266941" data-name="Trazado 1266941" d="M260.724.368a.874.874,0,0,1-.5,1.479,44.707,44.707,0,0,1-6.4,0c-1.061-.165-1.071-1.6.343-1.744a39.875,39.875,0,0,1,5.717,0,2.278,2.278,0,0,1,.845.264" transform="translate(-223.541 -0.001)" fill="#5d0b80"/>
      </g>
    </g>
  </g>
</svg>
