<svg xmlns="http://www.w3.org/2000/svg" xmlns:xlink="http://www.w3.org/1999/xlink" width="96" height="96" viewBox="0 0 96 96">
  <defs>
    <clipPath id="clip-path">
      <rect id="Rectángulo_458168" data-name="Rectángulo 458168" width="44.328" height="58.532" fill="#fff"/>
    </clipPath>
  </defs>
  <g id="Grupo_1207243" data-name="Grupo 1207243" transform="translate(-383.746 -8400.001)">
    <path id="Trazado_997400" data-name="Trazado 997400" d="M48,0A48,48,0,1,1,0,48,48,48,0,0,1,48,0Z" transform="translate(383.746 8400.001)" fill="#5d0b80"/>
    <g id="Grupo_1099776" data-name="Grupo 1099776" transform="translate(401.746 8418)">
      <g id="Grupo_1099618" data-name="Grupo 1099618" transform="translate(-0.035 -0.777)">
        <rect id="Rectángulo_401104" data-name="Rectángulo 401104" width="59.378" height="60.093" transform="translate(0)" fill="none"/>
      </g>
      <g id="Grupo_1207318" data-name="Grupo 1207318" transform="translate(7.964 0.222)">
        <g id="Grupo_1207317" data-name="Grupo 1207317" clip-path="url(#clip-path)">
          <path id="Trazado_1265557" data-name="Trazado 1265557" d="M43.47,26.479a.857.857,0,0,0,.857-.857V12.311a1.66,1.66,0,0,0-1.658-1.658H40.776V8.76A1.66,1.66,0,0,0,39.119,7.1H37.225V5.209a1.66,1.66,0,0,0-1.658-1.658H8.817V2.633a2.633,2.633,0,1,0-5.266,0v.918H1.658A1.66,1.66,0,0,0,0,5.209v5.747a.857.857,0,1,0,1.715,0V5.266H3.551V8.3a2.636,2.636,0,0,0,2.633,2.633c2.6,0,3.435-3.491,1.776-3.491A.857.857,0,0,0,7.1,8.3a.918.918,0,0,1-1.837,0V5.266H35.511V44.388H31.842a1.66,1.66,0,0,0-1.658,1.658v3.669H1.715V14.693a.857.857,0,0,0-1.715,0V49.772A1.66,1.66,0,0,0,1.658,51.43H3.551v1.893a1.66,1.66,0,0,0,1.658,1.658H7.1v1.893A1.66,1.66,0,0,0,8.76,58.532H42.67a1.66,1.66,0,0,0,1.658-1.658V29.359a.857.857,0,1,0-1.715,0V56.817H8.817V54.981h23.32a.857.857,0,0,0,0-1.715H5.266V51.43h25.8a.847.847,0,0,0,.538-.208l.016-.014c.51-.461-1.774,1.774,5.357-5.356l.014-.014a.879.879,0,0,0,.236-.55v0c0-.006,0-.013,0-.019s0-.014,0-.021V8.817h1.836V53.266H35.873a.857.857,0,0,0,0,1.715h3.245a1.66,1.66,0,0,0,1.658-1.658V12.368h1.836V25.622A.858.858,0,0,0,43.47,26.479ZM5.266,2.633a.918.918,0,1,1,1.837,0v.918H5.266ZM34.3,46.1l-2.4,2.4V46.1Z" transform="translate(0)" fill="#fff"/>
          <path id="Trazado_1265558" data-name="Trazado 1265558" d="M95.943,57.714a.857.857,0,0,0,0-1.715H84.7a.857.857,0,1,0,0,1.715Z" transform="translate(-71.71 -47.894)" fill="#fff"/>
          <path id="Trazado_1265559" data-name="Trazado 1265559" d="M24.536,86.731V97.385a.857.857,0,0,0,.857.857H53.8a.857.857,0,0,0,.857-.857V86.731a.857.857,0,0,0-.857-.857H25.393A.857.857,0,0,0,24.536,86.731Zm21.9,9.8h-4.8V91.14h4.8Zm-6.51,0h-4.8V91.14h4.8Zm8.225-5.387h4.8v5.387h-4.8Zm4.8-1.715H35.128V87.589H52.944ZM26.251,87.589h7.163v8.938H26.251Z" transform="translate(-20.985 -73.445)" fill="#fff"/>
          <path id="Trazado_1265560" data-name="Trazado 1265560" d="M25.392,185.73h3.551a.857.857,0,1,0,0-1.715H25.392a.857.857,0,0,0,0,1.715" transform="translate(-20.984 -157.382)" fill="#fff"/>
          <path id="Trazado_1265561" data-name="Trazado 1265561" d="M25.392,210.265h3.551a.857.857,0,1,0,0-1.715H25.392a.857.857,0,1,0,0,1.715" transform="translate(-20.984 -178.366)" fill="#fff"/>
          <path id="Trazado_1265562" data-name="Trazado 1265562" d="M94.741,184.015H74.463a.857.857,0,1,0,0,1.715H94.741a.857.857,0,0,0,0-1.715Z" transform="translate(-62.953 -157.382)" fill="#fff"/>
          <path id="Trazado_1265563" data-name="Trazado 1265563" d="M95.6,209.407a.857.857,0,0,0-.858-.857H74.464a.857.857,0,1,0,0,1.715H94.742A.857.857,0,0,0,95.6,209.407Z" transform="translate(-62.954 -178.366)" fill="#fff"/>
          <path id="Trazado_1265564" data-name="Trazado 1265564" d="M24.535,249.762a.857.857,0,0,0,.857.857h3.551a.857.857,0,0,0,.857-.857V246.21a.857.857,0,0,0-.857-.857H25.392a.857.857,0,0,0-.857.857Zm1.715-2.694h1.836V248.9H26.25Z" transform="translate(-20.984 -209.842)" fill="#fff"/>
          <path id="Trazado_1265565" data-name="Trazado 1265565" d="M88.668,245.353h-14.2a.857.857,0,1,0,0,1.715h14.2a.857.857,0,1,0,0-1.715" transform="translate(-62.953 -209.842)" fill="#fff"/>
          <path id="Trazado_1265566" data-name="Trazado 1265566" d="M74.463,271.6H85.117a.857.857,0,1,0,0-1.715H74.463a.857.857,0,0,0,0,1.715" transform="translate(-62.953 -230.827)" fill="#fff"/>
          <path id="Trazado_1265567" data-name="Trazado 1265567" d="M89.525,295.281a.857.857,0,0,0-.857-.857h-14.2a.857.857,0,1,0,0,1.715h14.2a.857.857,0,0,0,.857-.857" transform="translate(-62.953 -251.811)" fill="#fff"/>
          <path id="Trazado_1265568" data-name="Trazado 1265568" d="M24.535,298.832a.857.857,0,0,0,.857.858h3.551a.857.857,0,0,0,.857-.858v-3.551a.857.857,0,0,0-.857-.857H25.392a.857.857,0,0,0-.857.857Zm1.715-2.694h1.836v1.836H26.25Z" transform="translate(-20.984 -251.811)" fill="#fff"/>
          <path id="Trazado_1265569" data-name="Trazado 1265569" d="M74.463,318.959a.857.857,0,1,0,0,1.715H85.117a.857.857,0,1,0,0-1.715Z" transform="translate(-62.953 -272.795)" fill="#fff"/>
        </g>
      </g>
    </g>
  </g>
</svg>
