<svg xmlns="http://www.w3.org/2000/svg" xmlns:xlink="http://www.w3.org/1999/xlink" width="96" height="96" viewBox="0 0 96 96">
  <defs>
    <clipPath id="clip-path">
      <rect id="Rectángulo_458276" data-name="Rectángulo 458276" width="59.926" height="60.093" fill="#fff"/>
    </clipPath>
  </defs>
  <g id="Grupo_1205988" data-name="Grupo 1205988" transform="translate(-383.746 -8400.001)">
    <path id="Trazado_997400" data-name="Trazado 997400" d="M48,0A48,48,0,1,1,0,48,48,48,0,0,1,48,0Z" transform="translate(383.746 8400.001)" fill="#5d0b80"/>
    <g id="Grupo_1099776" data-name="Grupo 1099776" transform="translate(401.746 8418)">
      <g id="Grupo_1099618" data-name="Grupo 1099618" transform="translate(-2.035 0.24)">
        <rect id="Rectángulo_401104" data-name="Rectángulo 401104" width="59.378" height="60.093" transform="translate(0)" fill="none"/>
      </g>
      <g id="Grupo_1207439" data-name="Grupo 1207439" transform="translate(-3.035 0.24)">
        <g id="Grupo_1207438" data-name="Grupo 1207438" clip-path="url(#clip-path)">
          <path id="Trazado_1266110" data-name="Trazado 1266110" d="M.649,49.06c-.645-.115-.8-1.089-.5-1.6l11.76-20.766L12.033.722,12.4.166,43.277,0l4.084,4,12.428.207.137,55.572-1.017.314-36.543-.178a1.239,1.239,0,0,1-.309-.473v-3.4H12.593a3.1,3.1,0,0,1-.643-.827V49.06ZM42.087,2.017H13.971V22.966l3.3-5.615a1.062,1.062,0,0,1,1.487,0L35.82,47.332c.4.469.179,1.728-.44,1.728H13.971v4.962h40.06V15.064H42.914a3.1,3.1,0,0,1-.827-.643ZM52.745,13.043,44.108,3.671v9.372ZM58.074,6.06H49.253l6.8,7.63-.091,41.983a1.64,1.64,0,0,1-.365.37H24.078v2.021h34ZM2.762,47.039h30.5L18.1,20.209Z" transform="translate(0)" fill="#fff"/>
          <path id="Trazado_1266111" data-name="Trazado 1266111" d="M119.161,56H98.029V53.978h20.857c.523.485.193,1.365.276,2.021" transform="translate(-80.015 -44.059)" fill="#fff"/>
          <rect id="Rectángulo_458269" data-name="Rectángulo 458269" width="18.009" height="2.021" transform="translate(34.001 18.005)" fill="#fff"/>
          <rect id="Rectángulo_458270" data-name="Rectángulo 458270" width="18.009" height="2.021" transform="translate(34.001 22.966)" fill="#fff"/>
          <path id="Trazado_1266112" data-name="Trazado 1266112" d="M202.914,152.978V155H185.181c-.523-.485-.193-1.365-.276-2.021Z" transform="translate(-150.904 -124.867)" fill="#fff"/>
          <rect id="Rectángulo_458271" data-name="Rectángulo 458271" width="12.128" height="2.021" transform="translate(27.018 4.958)" fill="#fff"/>
          <rect id="Rectángulo_458272" data-name="Rectángulo 458272" width="9.923" height="2.021" transform="translate(42.087 33.073)" fill="#fff"/>
          <rect id="Rectángulo_458273" data-name="Rectángulo 458273" width="6.064" height="2.021" transform="translate(18.014 4.958)" fill="#fff"/>
          <rect id="Rectángulo_458274" data-name="Rectángulo 458274" width="2.023" height="2.023" transform="translate(34 33.072)" fill="#fff"/>
          <rect id="Rectángulo_458275" data-name="Rectángulo 458275" width="2.023" height="2.023" transform="translate(38.043 33.072)" fill="#fff"/>
          <path id="Trazado_1266113" data-name="Trazado 1266113" d="M87.855,147.022l.192,11.222a.794.794,0,0,1-.335.4c-.6.461-4.871.493-5.34-.167l-.131-11a1.181,1.181,0,0,1,.409-.51c.483-.288,4.848-.3,5.205.055m-3.632,9.88c.477-.081,1.816.246,2-.3l-.055-7.612-1.941-.172Z" transform="translate(-67.128 -119.786)" fill="#fff"/>
          <path id="Trazado_1266114" data-name="Trazado 1266114" d="M82.308,222.689a1.441,1.441,0,0,1-.365-.37c-.207-.443-.186-4.045.133-4.364.888-.28,4.764-.453,5.364-.03a.553.553,0,0,1,.289.446,24.044,24.044,0,0,1,0,3.671c-.039.2-.317.648-.455.648Zm3.584-2.941H83.869v.921h2.023Z" transform="translate(-66.775 -177.671)" fill="#fff"/>
        </g>
      </g>
    </g>
  </g>
</svg>
