<svg xmlns="http://www.w3.org/2000/svg" xmlns:xlink="http://www.w3.org/1999/xlink" width="96" height="96" viewBox="0 0 96 96">
  <defs>
    <clipPath id="clip-path">
      <rect id="Rectángulo_458148" data-name="Rectángulo 458148" width="56" height="56" transform="translate(0 0)" fill="#fff"/>
    </clipPath>
  </defs>
  <g id="Grupo_1207228" data-name="Grupo 1207228" transform="translate(-383.746 -8400.001)">
    <path id="Trazado_997400" data-name="Trazado 997400" d="M48,0A48,48,0,1,1,0,48,48,48,0,0,1,48,0Z" transform="translate(383.746 8400.001)" fill="#5d0b80"/>
    <g id="Grupo_1099776" data-name="Grupo 1099776" transform="translate(401.746 8418)">
      <g id="Grupo_1099618" data-name="Grupo 1099618" transform="translate(-0.035 -0.156)">
        <rect id="Rectángulo_401104" data-name="Rectángulo 401104" width="59.378" height="60.093" transform="translate(0)" fill="none"/>
      </g>
      <g id="Grupo_1207266" data-name="Grupo 1207266" transform="translate(1.964 1.344)">
        <g id="Grupo_1207265" data-name="Grupo 1207265" transform="translate(0 0.499)" clip-path="url(#clip-path)">
          <path id="Trazado_1265267" data-name="Trazado 1265267" d="M46.035,0V30.236c.882.649,2.871,2.326,3.93,2.326H55.98v1.764h-6.5c-1.8,0-6.556-4.4-8.6-5.195-2.32-.9-1.732.767-2.372,2.376A4.235,4.235,0,0,1,40.423,32.8c1.327,1.945-.175,4.034-2.329,4.25-3.162.318-7.386-.475-10.386.04a2.709,2.709,0,0,0-1.791,1.255c-.208.38-.6,1.142-.173,1.434h9.464c1.4,0,3.944,1.28,5.5,1.563,4.325.789,7.09-1.2,11.047-1.542,1.377-.121,2.844.046,4.231-.021v1.766c-3.467-.306-6.651.564-9.946,1.443v7.539H34.326V55.98H0V5.454H11.709V0ZM44.271,29.033V2.005l-.241-.241H13.714l-.241.241V7.218H1.764V53.975l.241.241H32.321l.241-.241v-6.9c-1-.841-1.067.85-1.22.893l-1.653-.346c.331-1.426.051-1.019-.582-1.743-1.17-1.338-.992-2.775-.394-4.338H25.1a2.041,2.041,0,0,1-1.364-1.926,2.829,2.829,0,0,1-3.35-3.911c.442-.942,1.552-1.395,1.907-2.343H18.927V31.6H24.3l1.684-1.764H18.927c.08-.436-.226-1.742.263-1.9l8.647-.015a10.227,10.227,0,0,1,2.119-.768c.873-.117,1.921.184,2.605-.282V7.218H15.4V5.454H34.326V20.371l2.364-8.463a3.491,3.491,0,0,1,6.931.662L39.779,27.107c1.765-.134,3.009,1.243,4.491,1.926M40.738,16.678c0-1.31,2.035-5.119.173-5.7-2.891-.9-2.582,2.931-3.364,4.647a8.538,8.538,0,0,0,3.191,1.052m-.644,1.775-3.039-.969-.482,1.922,2.96.964a4.16,4.16,0,0,0,.561-1.917M32.4,35.128h3.128l3.6-12.766c.023-.222-.1-.267-.264-.359s-2.411-.833-2.545-.833a.326.326,0,0,0-.36.277Zm-.321-6.255-2.549.257-7.4,7.192A1,1,0,0,0,23.519,37.7c2.56-2.007,4.437-5.675,7.892-6.134Zm5.455,6.254c1.671.4,2.094-1.428.483-1.763Zm-7.074-.015.335-1.588a5.766,5.766,0,0,0-2.083,1.525Zm3.384,6.432H30.476c0,1.065-1.083,2.652.261,3.348,2.307,1.194,2.952-1.691,3.107-3.348m10.426,1.764H41.3l-5.432-1.432c-.287.095-.724,2.194-.875,2.663-.112.347-.67,1.184-.67,1.255v2.967h9.945Z" transform="translate(0 -0.396)" fill="#fff"/>
          <path id="Trazado_1265268" data-name="Trazado 1265268" d="M45.579,56v8.9l-.241.241h-23.1L22,64.9V56.241L22.241,56Zm-1.764,1.925H23.925v5.293h19.89Z" transform="translate(-18.471 -47.414)" fill="#fff"/>
          <path id="Trazado_1265269" data-name="Trazado 1265269" d="M29.378,243.764H23.925v7.218h7.218v-3.529h1.764v5.454H22.241L22,252.667V242.241l.241-.241h6.9c.457.423.168,1.191.241,1.764" transform="translate(-18.471 -203.579)" fill="#fff"/>
          <path id="Trazado_1265270" data-name="Trazado 1265270" d="M23.925,147.925v7.218H30.9l.241-.241v-3.449h1.764v5.454H22.241L22,156.667V146.241l.241-.241h6.9l.215.266a2.031,2.031,0,0,1,.034.448c.034.4.079.964-.249,1.211Z" transform="translate(-18.471 -122.978)" fill="#fff"/>
          <path id="Trazado_1265271" data-name="Trazado 1265271" d="M51.842,221.018c.234.349,1.34,1.037,1.132,1.439-1.183.806-9.111,9.7-9.713,9.394-.577-.294-1.6-1.825-2.244-2.255l1.222-1.191c.4-.07.872,1.121,1.34.88Z" transform="translate(-34.439 -185.963)" fill="#fff"/>
          <path id="Trazado_1265272" data-name="Trazado 1265272" d="M52.824,127.606,43.7,136.7l-.332.081-2.347-2.3,1.222-1.191c.414-.072.923,1.253,1.5.876l8.125-8.094,1.107.956Z" transform="translate(-34.439 -106.246)" fill="#fff"/>
          <rect id="Rectángulo_458140" data-name="Rectángulo 458140" width="12" height="1" transform="translate(19 24)" fill="#fff"/>
          <rect id="Rectángulo_458141" data-name="Rectángulo 458141" width="10" height="2" transform="translate(17 49)" fill="#fff"/>
          <rect id="Rectángulo_458142" data-name="Rectángulo 458142" width="1.766" height="1.766" transform="translate(28.871 49.327)" fill="#fff"/>
          <rect id="Rectángulo_458143" data-name="Rectángulo 458143" width="1.766" height="1.766" transform="translate(7.217 12.275)" fill="#fff"/>
          <rect id="Rectángulo_458144" data-name="Rectángulo 458144" width="1.766" height="1.766" transform="translate(10.906 12.275)" fill="#fff"/>
          <rect id="Rectángulo_458145" data-name="Rectángulo 458145" width="1.766" height="1.766" transform="translate(14.435 12.275)" fill="#fff"/>
          <rect id="Rectángulo_458146" data-name="Rectángulo 458146" width="1.766" height="1.766" transform="translate(18.125 12.275)" fill="#fff"/>
          <rect id="Rectángulo_458147" data-name="Rectángulo 458147" width="1.766" height="1.766" transform="translate(21.653 12.275)" fill="#fff"/>
        </g>
      </g>
    </g>
  </g>
</svg>
