<svg xmlns="http://www.w3.org/2000/svg" xmlns:xlink="http://www.w3.org/1999/xlink" width="70" height="70" viewBox="0 0 70 70">
  <defs>
    <clipPath id="clip-path">
      <rect id="Rectángulo_458379" data-name="Rectángulo 458379" width="43.1" height="40.858" fill="#5d0b80"/>
    </clipPath>
  </defs>
  <g id="Grupo_1206961" data-name="Grupo 1206961" transform="translate(-268.495 -957.695)">
    <circle id="Elipse_5614" data-name="Elipse 5614" cx="35" cy="35" r="35" transform="translate(268.495 957.695)" fill="#fff"/>
    <g id="Grupo_1207554" data-name="Grupo 1207554" transform="translate(282.495 972.695)">
      <g id="Grupo_1207553" data-name="Grupo 1207553" clip-path="url(#clip-path)">
        <path id="Trazado_1266462" data-name="Trazado 1266462" d="M56.385.074c11.48-1.118,19.751,10.695,14.22,20.952-5.563,10.316-20.772,9.787-25.553-.917C41.182,11.444,46.88,1,56.385.074m3.488,5.473H56.248v9.839h3.625Zm0,13.637H56.248v3.625h3.625Z" transform="translate(-36.26 0)" fill="#5d0b80"/>
        <path id="Trazado_1266463" data-name="Trazado 1266463" d="M153.217,147.689V150.8h10.864v8.976H153.217v3.28l-6.994-7.853Z" transform="translate(-120.981 -122.195)" fill="#5d0b80"/>
        <path id="Trazado_1266464" data-name="Trazado 1266464" d="M10.864,147.689V150.8H0v8.976H10.864v3.28l6.994-7.853Z" transform="translate(0 -122.195)" fill="#5d0b80"/>
      </g>
    </g>
  </g>
</svg>
