<svg xmlns="http://www.w3.org/2000/svg" xmlns:xlink="http://www.w3.org/1999/xlink" width="396" height="281.257" viewBox="0 0 396 281.257">
  <defs>
    <clipPath id="clip-path">
      <rect id="Rectángulo_457721" data-name="Rectángulo 457721" width="375.855" height="281.257" transform="translate(18)" fill="#fff7d9"/>
    </clipPath>
    <clipPath id="clip-path-2">
      <rect id="Rectángulo_458310" data-name="Rectángulo 458310" width="375.855" height="234.586" fill="none"/>
    </clipPath>
    <clipPath id="clip-path-3">
      <rect id="Rectángulo_458305" data-name="Rectángulo 458305" width="390.856" height="234.586" fill="none"/>
    </clipPath>
    <clipPath id="clip-path-4">
      <rect id="Rectángulo_458282" data-name="Rectángulo 458282" width="18.987" height="18.987" fill="#37dbc5"/>
    </clipPath>
    <clipPath id="clip-path-7">
      <rect id="Rectángulo_458285" data-name="Rectángulo 458285" width="62.674" height="8.586" fill="#37dbc5"/>
    </clipPath>
    <clipPath id="clip-path-10">
      <rect id="Rectángulo_458292" data-name="Rectángulo 458292" width="43.379" height="9.003" fill="none"/>
    </clipPath>
    <clipPath id="clip-path-12">
      <rect id="Rectángulo_458299" data-name="Rectángulo 458299" width="22.355" height="22.355" fill="none"/>
    </clipPath>
    <clipPath id="clip-path-13">
      <rect id="Rectángulo_458300" data-name="Rectángulo 458300" width="20.236" height="20.474" fill="none"/>
    </clipPath>
    <clipPath id="clip-path-14">
      <rect id="Rectángulo_458301" data-name="Rectángulo 458301" width="13.214" height="13.214" fill="none"/>
    </clipPath>
    <clipPath id="clip-path-18">
      <path id="Trazado_1266182" data-name="Trazado 1266182" d="M494.6,180.618c-13.864,22.915-4.68,93.607-2.95,112.28,1.591.2,21.593.356,22.971-.345-3.452-16.748-10.376-62.6-11.662-73.492a1.235,1.235,0,0,1,2.436-.352c2.264,9.534,15.624,58.684,20.906,73.817,1.66.092,19.106.184,21.733-.449-1.006-15.164-24.072-85.679-26.2-94.015a61.044,61.044,0,0,0-6.726-16.984c-4.688-.14-10.072-.785-15.1-.785a39.8,39.8,0,0,0-5.4.326" transform="translate(-487.067 -180.292)" fill="none"/>
    </clipPath>
    <clipPath id="clip-path-20">
      <path id="Trazado_1266212" data-name="Trazado 1266212" d="M111.829,200.846c-3.291,12.615-10.185,93.437-10.185,93.437l23.127.485,3.4-74.292a.945.945,0,0,1,1.852-.3l-.049,73.768,23.087-.381c-1.67-48.332-6.749-81.865-10.141-94.751-2.783-10.575-5.566-12.616-5.566-12.616L117.775,184.3s-2.844,4.653-5.946,16.544" transform="translate(-101.644 -184.302)" fill="none"/>
    </clipPath>
    <clipPath id="clip-path-22">
      <rect id="Rectángulo_458308" data-name="Rectángulo 458308" width="3.632" height="3.631" fill="none"/>
    </clipPath>
  </defs>
  <g id="Grupo_1207199" data-name="Grupo 1207199" transform="translate(-1017.711 -10829)">
    <rect id="Rectángulo_456940" data-name="Rectángulo 456940" width="396" height="281.257" transform="translate(1017.711 10829)" fill="#fff7d9"/>
    <g id="Enmascarar_grupo_1119247" data-name="Enmascarar grupo 1119247" transform="translate(1009.783 10829)" clip-path="url(#clip-path)">
      <g id="Grupo_1207500" data-name="Grupo 1207500" transform="translate(18 20.139)">
        <ellipse id="Elipse_13708" data-name="Elipse 13708" cx="179" cy="4.5" rx="179" ry="4.5" transform="translate(13.494 229.334)" fill="#e5dab1"/>
        <g id="Grupo_1207499" data-name="Grupo 1207499" clip-path="url(#clip-path-2)">
          <g id="Grupo_1207487" data-name="Grupo 1207487">
            <g id="Grupo_1207486" data-name="Grupo 1207486" clip-path="url(#clip-path-3)">
              <path id="Trazado_1266132" data-name="Trazado 1266132" d="M333.559,38.922H275.377v-9.8A10.393,10.393,0,0,1,285.77,18.729h37.4a10.393,10.393,0,0,1,10.393,10.393Z" transform="translate(-113.138 -7.695)" fill="#1b314f"/>
              <path id="Trazado_1266133" data-name="Trazado 1266133" d="M321.4,254.014H198.834V61.5H347.208V228.2L321.4,254.014" transform="translate(-81.69 -25.265)" fill="#e6fffa"/>
              <rect id="Rectángulo_458281" data-name="Rectángulo 458281" width="87.25" height="25.179" transform="translate(147.706 27.033)" fill="#4475ab"/>
              <path id="Trazado_1266134" data-name="Trazado 1266134" d="M406.864,370.31V354.761a10.2,10.2,0,0,1,10.2-10.2h15.61Z" transform="translate(-167.159 -141.561)" fill="#4475ab"/>
              <g id="Grupo_1207446" data-name="Grupo 1207446" transform="translate(150.426 78.535)" opacity="0.74">
                <g id="Grupo_1207445" data-name="Grupo 1207445">
                  <g id="Grupo_1207444" data-name="Grupo 1207444" clip-path="url(#clip-path-4)">
                    <path id="Trazado_1266135" data-name="Trazado 1266135" d="M274.313,142.8a9.493,9.493,0,1,0-9.494,9.494,9.494,9.494,0,0,0,9.494-9.494" transform="translate(-255.326 -133.302)" fill="#37dbc5"/>
                  </g>
                </g>
              </g>
              <g id="Grupo_1207449" data-name="Grupo 1207449" transform="translate(150.426 120.544)" opacity="0.74">
                <g id="Grupo_1207448" data-name="Grupo 1207448">
                  <g id="Grupo_1207447" data-name="Grupo 1207447" clip-path="url(#clip-path-4)">
                    <path id="Trazado_1266136" data-name="Trazado 1266136" d="M274.313,214.1a9.493,9.493,0,1,0-9.494,9.494,9.494,9.494,0,0,0,9.494-9.494" transform="translate(-255.326 -204.605)" fill="#37dbc5"/>
                  </g>
                </g>
              </g>
              <g id="Grupo_1207452" data-name="Grupo 1207452" transform="translate(150.426 167.447)" opacity="0.74">
                <g id="Grupo_1207451" data-name="Grupo 1207451">
                  <g id="Grupo_1207450" data-name="Grupo 1207450" clip-path="url(#clip-path-4)">
                    <path id="Trazado_1266137" data-name="Trazado 1266137" d="M274.313,293.71a9.493,9.493,0,1,0-9.494,9.494,9.494,9.494,0,0,0,9.494-9.494" transform="translate(-255.326 -284.216)" fill="#37dbc5"/>
                  </g>
                </g>
              </g>
              <path id="Trazado_1266138" data-name="Trazado 1266138" d="M254.83,203.953a58.9,58.9,0,0,1,7.591,8.756c.755,1.072,2.6,1.383,3.279,0a61.732,61.732,0,0,1,14.561-19.02A1.9,1.9,0,0,0,277.576,191a64.537,64.537,0,0,0-15.155,19.788H265.7a63.816,63.816,0,0,0-8.185-9.525c-1.771-1.684-4.46,1-2.685,2.685" transform="translate(-104.457 -78.251)" fill="#5d0b80"/>
              <path id="Trazado_1266139" data-name="Trazado 1266139" d="M254.83,134a58.9,58.9,0,0,1,7.591,8.756c.755,1.072,2.6,1.383,3.279,0a61.732,61.732,0,0,1,14.561-19.02,1.9,1.9,0,0,0-2.685-2.685,64.537,64.537,0,0,0-15.155,19.788H265.7a63.816,63.816,0,0,0-8.185-9.525c-1.771-1.684-4.46,1-2.685,2.685" transform="translate(-104.457 -49.512)" fill="#5d0b80"/>
              <g id="Grupo_1207455" data-name="Grupo 1207455" transform="translate(177.467 82.759)" opacity="0.74">
                <g id="Grupo_1207454" data-name="Grupo 1207454">
                  <g id="Grupo_1207453" data-name="Grupo 1207453" clip-path="url(#clip-path-7)">
                    <path id="Trazado_1266140" data-name="Trazado 1266140" d="M359.606,149.057H305.517a4.293,4.293,0,0,1,0-8.586h54.089a4.293,4.293,0,0,1,0,8.586" transform="translate(-301.224 -140.471)" fill="#37dbc5"/>
                  </g>
                </g>
              </g>
              <g id="Grupo_1207458" data-name="Grupo 1207458" transform="translate(177.467 127.404)" opacity="0.74">
                <g id="Grupo_1207457" data-name="Grupo 1207457">
                  <g id="Grupo_1207456" data-name="Grupo 1207456" clip-path="url(#clip-path-7)">
                    <path id="Trazado_1266141" data-name="Trazado 1266141" d="M359.606,224.834H305.517a4.293,4.293,0,0,1,0-8.586h54.089a4.293,4.293,0,0,1,0,8.586" transform="translate(-301.224 -216.249)" fill="#37dbc5"/>
                  </g>
                </g>
              </g>
              <g id="Grupo_1207461" data-name="Grupo 1207461" transform="translate(177.467 174.624)" opacity="0.74">
                <g id="Grupo_1207460" data-name="Grupo 1207460">
                  <g id="Grupo_1207459" data-name="Grupo 1207459" clip-path="url(#clip-path-7)">
                    <path id="Trazado_1266142" data-name="Trazado 1266142" d="M359.606,304.984H305.517a4.293,4.293,0,0,1,0-8.586h54.089a4.293,4.293,0,0,1,0,8.586" transform="translate(-301.224 -296.398)" fill="#37dbc5"/>
                  </g>
                </g>
              </g>
              <path id="Trazado_1266143" data-name="Trazado 1266143" d="M137.964,50.6h20.714a4.382,4.382,0,0,0,0-8.764H137.964a4.382,4.382,0,0,0,0,8.764" transform="translate(-54.882 -17.19)" fill="#1b314f"/>
              <rect id="Rectángulo_458288" data-name="Rectángulo 458288" width="3.862" height="3.862" transform="translate(94.922 38.254)" fill="#fff"/>
              <rect id="Rectángulo_458289" data-name="Rectángulo 458289" width="3.862" height="3.862" transform="translate(101.068 38.254)" fill="#fff"/>
              <rect id="Rectángulo_458290" data-name="Rectángulo 458290" width="3.862" height="3.862" transform="translate(101.068 43.987)" fill="#fff"/>
              <path id="Trazado_1266144" data-name="Trazado 1266144" d="M92.866,61.913A15.588,15.588,0,1,0,72.52,70.4a15.588,15.588,0,0,0,20.346-8.487" transform="translate(-25.825 -16.594)" fill="#056154"/>
              <path id="Trazado_1266145" data-name="Trazado 1266145" d="M103.871,62.671a15.588,15.588,0,0,0-8.487-20.346L89.428,56.8Z" transform="translate(-36.741 -17.389)" fill="#fff"/>
              <path id="Trazado_1266146" data-name="Trazado 1266146" d="M84.709,53.833l7.2-17.5a18.785,18.785,0,0,0-14.425.036Z" transform="translate(-31.834 -14.341)" fill="#37dbc5"/>
              <g id="Grupo_1207464" data-name="Grupo 1207464" transform="translate(80.52 12.237)" opacity="0.32" style="mix-blend-mode: multiply;isolation: isolate">
                <g id="Grupo_1207463" data-name="Grupo 1207463">
                  <g id="Grupo_1207462" data-name="Grupo 1207462" clip-path="url(#clip-path-10)">
                    <rect id="Rectángulo_458291" data-name="Rectángulo 458291" width="43.379" height="9.003" fill="#4475ab"/>
                  </g>
                </g>
              </g>
              <g id="Grupo_1207467" data-name="Grupo 1207467" transform="translate(249.44 30.696)" opacity="0.32" style="mix-blend-mode: multiply;isolation: isolate">
                <g id="Grupo_1207466" data-name="Grupo 1207466">
                  <g id="Grupo_1207465" data-name="Grupo 1207465" clip-path="url(#clip-path-10)">
                    <rect id="Rectángulo_458293" data-name="Rectángulo 458293" width="43.379" height="9.003" fill="#4475ab"/>
                  </g>
                </g>
              </g>
              <rect id="Rectángulo_458295" data-name="Rectángulo 458295" width="5.889" height="10.706" transform="translate(257.249 8.663)" fill="#ffe9a1"/>
              <rect id="Rectángulo_458296" data-name="Rectángulo 458296" width="5.889" height="13.239" transform="translate(267.955 6.131)" fill="#ffe9a1"/>
              <rect id="Rectángulo_458297" data-name="Rectángulo 458297" width="5.889" height="15.74" transform="translate(278.661 3.629)" fill="#ffe9a1"/>
              <rect id="Rectángulo_458298" data-name="Rectángulo 458298" width="5.889" height="19.37" transform="translate(289.367)" fill="#ffe9a1"/>
              <path id="Trazado_1266147" data-name="Trazado 1266147" d="M426.147,2.274V23.739h60.1" transform="translate(-175.081 -0.934)" fill="none" stroke="#ffe9a1" stroke-miterlimit="10" stroke-width="0.911"/>
              <path id="Trazado_1266148" data-name="Trazado 1266148" d="M563.55,90.213l-.986,1.113a.335.335,0,0,0,0,.438,17.145,17.145,0,0,0,5.674,4.353.335.335,0,0,0,.42-.117l.875-1.311a3.1,3.1,0,0,1,3.281-1.268l.22.047a3.153,3.153,0,0,1,2.421,2.228l.521,1.858a.335.335,0,0,0,.332.245,17.4,17.4,0,0,0,6.98-1.732.335.335,0,0,0,.174-.389l-.447-1.621a3.157,3.157,0,0,1,1.073-3.287l.09-.074.042-.035a3.179,3.179,0,0,1,3.355-.5l1.647.746a.335.335,0,0,0,.406-.1,17.4,17.4,0,0,0,2.989-6.54.334.334,0,0,0-.192-.376l-1.578-.7a3.113,3.113,0,0,1-1.88-2.8c0-.148,0-.3-.009-.443a3.116,3.116,0,0,1,1.946-3l1.348-.55a.335.335,0,0,0,.2-.394,17.161,17.161,0,0,0-3.253-6.4.333.333,0,0,0-.392-.1l-1.889.82a3.146,3.146,0,0,1-3.163-.4q-.109-.083-.219-.164a3.086,3.086,0,0,1-1.106-3.317l.4-1.456a.334.334,0,0,0-.186-.395,17.486,17.486,0,0,0-7.023-1.444.335.335,0,0,0-.323.261l-.415,1.829a3.163,3.163,0,0,1-2.352,2.359l-.147.037a3.187,3.187,0,0,1-3.352-1.1l-.991-1.288a.333.333,0,0,0-.419-.093,17.449,17.449,0,0,0-5.5,4.577.334.334,0,0,0,.017.431l1.078,1.183a3.1,3.1,0,0,1,.538,3.4q-.1.217-.2.438a3.1,3.1,0,0,1-2.945,1.843L559.024,77a.335.335,0,0,0-.339.27,17.482,17.482,0,0,0,.15,7.156.334.334,0,0,0,.346.256l1.607-.1a3.1,3.1,0,0,1,2.99,1.707q.1.215.217.427a3.1,3.1,0,0,1-.445,3.5m4.215-13.2a8.7,8.7,0,0,1,16.39,1.529,7.693,7.693,0,0,1-.507,5.427,8.7,8.7,0,0,1-16.388-1.529,7.7,7.7,0,0,1,.505-5.426" transform="translate(-229.411 -25.95)" fill="#ffe9a1"/>
              <g id="Grupo_1207470" data-name="Grupo 1207470" transform="translate(335.104 43.31)" opacity="0.54" style="mix-blend-mode: multiply;isolation: isolate">
                <g id="Grupo_1207469" data-name="Grupo 1207469">
                  <g id="Grupo_1207468" data-name="Grupo 1207468" clip-path="url(#clip-path-12)">
                    <path id="Trazado_1266149" data-name="Trazado 1266149" d="M580.138,73.93a10.931,10.931,0,1,0,10.931,10.932A10.931,10.931,0,0,0,580.138,73.93Z" transform="translate(-568.961 -73.684)" fill="none" stroke="#bfc8de" stroke-miterlimit="10" stroke-width="0.835"/>
                  </g>
                </g>
              </g>
              <g id="Grupo_1207473" data-name="Grupo 1207473" transform="translate(352.696 64.949)" opacity="0.32" style="mix-blend-mode: multiply;isolation: isolate">
                <g id="Grupo_1207472" data-name="Grupo 1207472">
                  <g id="Grupo_1207471" data-name="Grupo 1207471" clip-path="url(#clip-path-13)">
                    <path id="Trazado_1266150" data-name="Trazado 1266150" d="M601.7,126.231l-.583.658a.2.2,0,0,0,0,.259,10.137,10.137,0,0,0,3.354,2.573.2.2,0,0,0,.248-.07l.517-.775a1.835,1.835,0,0,1,1.939-.749l.13.028a1.863,1.863,0,0,1,1.432,1.317l.308,1.1a.2.2,0,0,0,.2.145,10.281,10.281,0,0,0,4.126-1.024.2.2,0,0,0,.1-.23l-.265-.959a1.866,1.866,0,0,1,.634-1.943l.053-.044.025-.021a1.879,1.879,0,0,1,1.983-.293l.974.441a.2.2,0,0,0,.24-.061,10.277,10.277,0,0,0,1.767-3.865.2.2,0,0,0-.113-.223l-.933-.414a1.839,1.839,0,0,1-1.111-1.653c0-.087,0-.175-.006-.262a1.842,1.842,0,0,1,1.151-1.772l.8-.325a.2.2,0,0,0,.117-.233,10.158,10.158,0,0,0-1.923-3.782.2.2,0,0,0-.232-.056l-1.116.485a1.86,1.86,0,0,1-1.87-.236l-.13-.1a1.825,1.825,0,0,1-.654-1.961l.238-.861a.2.2,0,0,0-.11-.233,10.342,10.342,0,0,0-4.152-.854.2.2,0,0,0-.191.154l-.245,1.082a1.87,1.87,0,0,1-1.39,1.394l-.087.022a1.883,1.883,0,0,1-1.981-.652l-.586-.762a.2.2,0,0,0-.248-.055,10.327,10.327,0,0,0-3.252,2.706.2.2,0,0,0,.01.255l.637.7a1.83,1.83,0,0,1,.318,2.013c-.041.085-.08.172-.118.259a1.833,1.833,0,0,1-1.74,1.09l-.934-.027a.2.2,0,0,0-.2.16,10.337,10.337,0,0,0,.088,4.23.2.2,0,0,0,.2.151l.95-.06a1.831,1.831,0,0,1,1.768,1.009c.041.085.084.169.128.252a1.833,1.833,0,0,1-.263,2.071m2.492-7.805a5.142,5.142,0,0,1,9.688.9,4.548,4.548,0,0,1-.3,3.208,5.142,5.142,0,0,1-9.687-.9,4.546,4.546,0,0,1,.3-3.207" transform="translate(-598.648 -110.241)" fill="#4475ab"/>
                  </g>
                </g>
              </g>
              <g id="Grupo_1207476" data-name="Grupo 1207476" transform="translate(356.318 68.553)" opacity="0.54" style="mix-blend-mode: multiply;isolation: isolate">
                <g id="Grupo_1207475" data-name="Grupo 1207475">
                  <g id="Grupo_1207474" data-name="Grupo 1207474" clip-path="url(#clip-path-14)">
                    <circle id="Elipse_13704" data-name="Elipse 13704" cx="6.462" cy="6.462" r="6.462" transform="matrix(0.851, -0.526, 0.526, 0.851, -2.287, 4.508)" fill="none" stroke="#bfc8de" stroke-miterlimit="10" stroke-width="0.493"/>
                  </g>
                </g>
              </g>
              <path id="Trazado_1266151" data-name="Trazado 1266151" d="M46.145,264.643l.986-1.113a.335.335,0,0,0,0-.438,17.145,17.145,0,0,0-5.674-4.353.335.335,0,0,0-.42.117l-.875,1.311a3.1,3.1,0,0,1-3.281,1.268l-.219-.047a3.153,3.153,0,0,1-2.422-2.228l-.521-1.859a.334.334,0,0,0-.332-.244,17.4,17.4,0,0,0-6.98,1.731.335.335,0,0,0-.174.389l.447,1.621a3.157,3.157,0,0,1-1.073,3.287l-.09.074-.042.035a3.179,3.179,0,0,1-3.355.5l-1.647-.746a.335.335,0,0,0-.406.1,17.4,17.4,0,0,0-2.989,6.539.334.334,0,0,0,.192.377l1.578.7a3.113,3.113,0,0,1,1.88,2.8q0,.221.01.443a3.116,3.116,0,0,1-1.947,3l-1.348.55a.334.334,0,0,0-.2.394,17.166,17.166,0,0,0,3.253,6.4.334.334,0,0,0,.392.1l1.889-.82a3.144,3.144,0,0,1,3.163.4q.109.083.219.164a3.086,3.086,0,0,1,1.106,3.317l-.4,1.456a.334.334,0,0,0,.186.395,17.485,17.485,0,0,0,7.023,1.444.335.335,0,0,0,.323-.261l.415-1.83a3.163,3.163,0,0,1,2.352-2.358l.147-.037a3.187,3.187,0,0,1,3.352,1.1l.991,1.288a.333.333,0,0,0,.419.093,17.451,17.451,0,0,0,5.5-4.577.335.335,0,0,0-.017-.431L46.486,283.5a3.1,3.1,0,0,1-.538-3.4c.07-.145.136-.291.2-.438a3.1,3.1,0,0,1,2.945-1.843l1.58.045a.335.335,0,0,0,.338-.27,17.48,17.48,0,0,0-.15-7.155.335.335,0,0,0-.346-.256l-1.607.1a3.1,3.1,0,0,1-2.991-1.706q-.1-.215-.217-.427a3.1,3.1,0,0,1,.445-3.5m-4.215,13.2a8.7,8.7,0,0,1-16.39-1.529,7.693,7.693,0,0,1,.507-5.427,8.7,8.7,0,0,1,16.388,1.529,7.7,7.7,0,0,1-.505,5.426" transform="translate(-7.015 -105.611)" fill="#ffe9a1"/>
              <g id="Grupo_1207479" data-name="Grupo 1207479" transform="translate(15.811 157.63)" opacity="0.54" style="mix-blend-mode: multiply;isolation: isolate">
                <g id="Grupo_1207478" data-name="Grupo 1207478">
                  <g id="Grupo_1207477" data-name="Grupo 1207477" clip-path="url(#clip-path-12)">
                    <path id="Trazado_1266152" data-name="Trazado 1266152" d="M38.185,289.833A10.931,10.931,0,1,0,27.254,278.9,10.931,10.931,0,0,0,38.185,289.833Z" transform="translate(-27.008 -267.724)" fill="none" stroke="#bfc8de" stroke-miterlimit="10" stroke-width="0.835"/>
                  </g>
                </g>
              </g>
              <g id="Grupo_1207482" data-name="Grupo 1207482" transform="translate(0.338 137.872)" opacity="0.32" style="mix-blend-mode: multiply;isolation: isolate">
                <g id="Grupo_1207481" data-name="Grupo 1207481">
                  <g id="Grupo_1207480" data-name="Grupo 1207480" clip-path="url(#clip-path-13)">
                    <path id="Trazado_1266153" data-name="Trazado 1266153" d="M17.757,238.5l.583-.658a.2.2,0,0,0,0-.259,10.132,10.132,0,0,0-3.354-2.573.2.2,0,0,0-.248.07l-.517.775a1.835,1.835,0,0,1-1.939.749l-.13-.028a1.864,1.864,0,0,1-1.432-1.317l-.308-1.1a.2.2,0,0,0-.2-.145,10.283,10.283,0,0,0-4.126,1.024.2.2,0,0,0-.1.23l.265.959a1.867,1.867,0,0,1-.634,1.944l-.053.044-.025.021a1.879,1.879,0,0,1-1.983.293l-.974-.441a.2.2,0,0,0-.24.061,10.278,10.278,0,0,0-1.767,3.865.2.2,0,0,0,.113.223l.933.414A1.839,1.839,0,0,1,2.735,244.3c0,.088,0,.175.006.262a1.842,1.842,0,0,1-1.151,1.772l-.8.325a.2.2,0,0,0-.117.233A10.147,10.147,0,0,0,2.6,250.679a.2.2,0,0,0,.232.056l1.117-.485a1.859,1.859,0,0,1,1.869.236l.13.1a1.826,1.826,0,0,1,.654,1.961l-.238.861a.2.2,0,0,0,.11.233,10.342,10.342,0,0,0,4.152.854.2.2,0,0,0,.191-.154l.245-1.082a1.87,1.87,0,0,1,1.39-1.394l.087-.022a1.883,1.883,0,0,1,1.981.652l.586.762a.2.2,0,0,0,.248.055,10.328,10.328,0,0,0,3.252-2.706.2.2,0,0,0-.01-.255l-.637-.7a1.83,1.83,0,0,1-.318-2.013c.041-.085.08-.172.118-.259a1.833,1.833,0,0,1,1.74-1.09l.934.027a.2.2,0,0,0,.2-.16,10.347,10.347,0,0,0-.088-4.23.2.2,0,0,0-.205-.151l-.95.06a1.831,1.831,0,0,1-1.768-1.009c-.041-.085-.084-.169-.128-.252a1.833,1.833,0,0,1,.263-2.071m-2.492,7.805a5.142,5.142,0,0,1-9.688-.9,4.548,4.548,0,0,1,.3-3.208,5.142,5.142,0,0,1,9.687.9,4.546,4.546,0,0,1-.3,3.207" transform="translate(-0.573 -234.017)" fill="#4475ab"/>
                  </g>
                </g>
              </g>
              <g id="Grupo_1207485" data-name="Grupo 1207485" transform="translate(3.737 141.527)" opacity="0.54" style="mix-blend-mode: multiply;isolation: isolate">
                <g id="Grupo_1207484" data-name="Grupo 1207484">
                  <g id="Grupo_1207483" data-name="Grupo 1207483" clip-path="url(#clip-path-14)">
                    <circle id="Elipse_13705" data-name="Elipse 13705" cx="6.462" cy="6.462" r="6.462" transform="translate(0.145 0.145)" fill="none" stroke="#bfc8de" stroke-miterlimit="10" stroke-width="0.493"/>
                  </g>
                </g>
              </g>
              <path id="Trazado_1266154" data-name="Trazado 1266154" d="M501.853,94.058c-.275-1.278,1.79-4.579,2.866-5.328a12.812,12.812,0,0,1,4.326-1.907,9.012,9.012,0,0,1,8.676,2.632c7.625,7.5-5.163,16.013-5.163,16.013" transform="translate(-206.174 -35.565)" fill="#fae9cf"/>
              <path id="Trazado_1266155" data-name="Trazado 1266155" d="M526.561,111.953a3.541,3.541,0,1,1,3.542,3.541,3.541,3.541,0,0,1-3.542-3.541" transform="translate(-216.336 -44.541)" fill="#fae9cf"/>
              <path id="Trazado_1266156" data-name="Trazado 1266156" d="M514.286,98.713a.3.3,0,0,0,.331.287c.719-.067,2.367-.367,2.768,1.5a2.867,2.867,0,0,1-2.4,3.27,9.037,9.037,0,0,0-2.011,1.531c-.593.772.858,8.371,1.181,10.732.6,4.415-5.9,6.547-5.9,6.547s-3.727-.992-4.112-6.547c0,0,.172-10.741.115-10.789-.956-.8-4.4-.876-2.9-8.338,1.392-6.911,6.376-6.868,7.653-6.757,1.076.094,4.777,0,5.277,8.568" transform="translate(-205.827 -37.026)" fill="#d4603f"/>
              <path id="Trazado_1266157" data-name="Trazado 1266157" d="M508.605,89.334s7.711,8.52,8.982,9.172c0,0,3.723-11.559-8.982-9.172" transform="translate(-208.959 -36.569)" fill="#fae9cf"/>
              <path id="Trazado_1266158" data-name="Trazado 1266158" d="M525.777,108.244s-1.342-2.287-2.5,1.039" transform="translate(-214.989 -44.157)" fill="#ad4021"/>
              <path id="Trazado_1266159" data-name="Trazado 1266159" d="M511.842,105.655a1.7,1.7,0,1,0,1.8,1.582,1.7,1.7,0,0,0-1.8-1.582" transform="translate(-209.637 -43.407)" fill="#ad4021"/>
              <path id="Trazado_1266160" data-name="Trazado 1266160" d="M501.036,105.577a1.7,1.7,0,0,0,.29-3.164,8.272,8.272,0,0,0-.29,3.164" transform="translate(-205.819 -42.076)" fill="#ad4021"/>
              <path id="Trazado_1266161" data-name="Trazado 1266161" d="M503.371,106.092l2.691,1.056s-1.18,1.028-1.905.586a2.28,2.28,0,0,1-.785-1.643" transform="translate(-206.808 -43.588)" fill="#fff"/>
              <path id="Trazado_1266162" data-name="Trazado 1266162" d="M505.506,102.621l-.245,1.875-.93-.316a.239.239,0,0,1-.085-.4Z" transform="translate(-207.136 -42.161)" fill="#ad4021"/>
              <path id="Trazado_1266163" data-name="Trazado 1266163" d="M510.965,100.172c.251.293.025-.786-.364-1a.76.76,0,0,0-1.047.214,2.374,2.374,0,0,1,1.411.79" transform="translate(-209.348 -40.695)"/>
              <path id="Trazado_1266164" data-name="Trazado 1266164" d="M503.354,98.067c-.361.137.355-.7.8-.707a.76.76,0,0,1,.817.689,2.373,2.373,0,0,0-1.617.018" transform="translate(-206.761 -40)"/>
              <path id="Trazado_1266165" data-name="Trazado 1266165" d="M509.2,103.006c-.1.319-.3.54-.456.493s-.2-.344-.1-.663.3-.539.456-.492.2.343.1.663" transform="translate(-208.953 -42.045)"/>
              <path id="Trazado_1266166" data-name="Trazado 1266166" d="M505,101.456c-.093.3-.288.516-.435.47s-.193-.328-.1-.633.287-.516.435-.471.192.329.1.633" transform="translate(-207.238 -41.42)"/>
              <path id="Trazado_1266167" data-name="Trazado 1266167" d="M506.533,115.784a27.149,27.149,0,0,0,4.879.082c1.613-.247-5.1,5.018-4.879-.082" transform="translate(-208.105 -47.569)" fill="#ad4021"/>
              <ellipse id="Elipse_13706" data-name="Elipse 13706" cx="2.039" cy="2.307" rx="2.039" ry="2.307" transform="translate(294.591 57.217)" fill="none" stroke="#fff" stroke-miterlimit="10" stroke-width="0.548"/>
              <ellipse id="Elipse_13707" data-name="Elipse 13707" cx="2.039" cy="2.307" rx="2.039" ry="2.307" transform="translate(298.883 58.881)" fill="none" stroke="#fff" stroke-miterlimit="10" stroke-width="0.548"/>
              <line id="Línea_3720" data-name="Línea 3720" x2="5.667" y2="0.748" transform="translate(302.962 61.188)" fill="none" stroke="#fff" stroke-miterlimit="10" stroke-width="0.548"/>
              <path id="Trazado_1266168" data-name="Trazado 1266168" d="M504.42,368.347l-1.173,8.33s-1.881,5.524-3.629,3.386a17.212,17.212,0,0,0-3.476-3.269l-.573-8.66Z" transform="translate(-203.603 -151.247)" fill="#d4603f"/>
              <path id="Trazado_1266169" data-name="Trazado 1266169" d="M557.847,367.409l2.592,8.309s1.973,1.73,2.685,1.686c1.295-.081,1.974-2.316,1.974-2.316l.213-7.678Z" transform="translate(-229.189 -150.949)" fill="#d4603f"/>
              <path id="Trazado_1266170" data-name="Trazado 1266170" d="M490.584,381.794l-6.976,5.655c-.356.265-.1.711.408.715l10.3.084a.6.6,0,0,0,.553-.28l.777-1.592c.224-.46.671-.5.63-.01l.381,1.537c-.021.243,2.441.176,2.463-.044a43.482,43.482,0,0,0-.395-7.082.512.512,0,0,0-.461-.356h0a.7.7,0,0,0-.576.158c-.7.673-2.918,2.7-4.1,2.287a8.684,8.684,0,0,1-2.143-1.049.731.731,0,0,0-.855-.021" transform="translate(-198.62 -156.291)" fill="#1b314f"/>
              <path id="Trazado_1266171" data-name="Trazado 1266171" d="M566.168,379.916l3.962,6.635a1.293,1.293,0,0,1-.577,1.871c-1.239.737-2.251,2.208-3.031,2.229-1.408.039-3.6-1.444-4.873-2-.856-.374-1.527-.92-1.421-1.636l.985-6.656c.012-.082.157-.112.229-.048l1.517,1.375a1.781,1.781,0,0,0,2.181-.15c.239-.385.8-1.626.8-1.626a.155.155,0,0,1,.229.005" transform="translate(-230.163 -156.065)" fill="#1b314f"/>
              <path id="Trazado_1266172" data-name="Trazado 1266172" d="M515.1,181.077a61.047,61.047,0,0,1,6.726,16.984c2.132,8.337,25.2,78.852,26.2,94.015-2.627.633-20.073.541-21.733.449-5.281-15.134-18.642-64.283-20.906-73.817a1.235,1.235,0,0,0-2.436.352c1.286,10.887,8.21,56.744,11.662,73.492-1.378.7-21.379.545-22.97.346-1.73-18.674-10.915-89.366,2.95-112.28,6.34-.874,14.077.268,20.5.46" transform="translate(-200.109 -74.072)" fill="#056154"/>
              <path id="Trazado_1266173" data-name="Trazado 1266173" d="M449.648,182.744a121.085,121.085,0,0,0,17.445-5.157c-2.206-1.715-4.369-3.487-6.466-5.34l-9.558,5.08c-.509.222-.316,1.012-5.874,3Z" transform="translate(-182.906 -70.767)" fill="#d4603f"/>
              <path id="Trazado_1266174" data-name="Trazado 1266174" d="M450.234,181s-6.589,1.61-7.01,2.16,3.985-.029,3.8.554A24.911,24.911,0,0,0,450.234,181" transform="translate(-182.085 -74.365)" fill="#d4603f"/>
              <path id="Trazado_1266175" data-name="Trazado 1266175" d="M483.151,133.253c-1.692,3.458-7.889,17.927-7.889,17.927l-7.3,4.078,4.829,7.512s6.868-1.61,10.3-4.722c3.311-3,7.562-22.771,7.512-27.486,0,0-5.765-.768-7.457,2.69" transform="translate(-192.261 -53.612)" fill="#37dbc5"/>
              <path id="Trazado_1266176" data-name="Trazado 1266176" d="M499.141,129.68c.185.447-5.258,13.419-5.038,17.809.221,4.423,3.241,11.863,3.006,12.528,0,0,3.431,2.707,22.36-.274,5.82-5.091.707-22.395-1.248-27.874,0,0-6.044-4.76-7.648-4.879,0,0-3.967,4.905-11.433,2.689" transform="translate(-202.998 -52.174)" fill="#37dbc5"/>
            </g>
          </g>
          <g id="Grupo_1207489" data-name="Grupo 1207489" transform="translate(286.957 106.22)">
            <g id="Grupo_1207488" data-name="Grupo 1207488" clip-path="url(#clip-path-18)">
              <path id="Trazado_1266177" data-name="Trazado 1266177" d="M472.6,207.743c1.012,5.371,4.043,10.909,8.681,13.982a10.483,10.483,0,0,0,7.767,1.453c2.884-.485,5.612-1.632,8.5-2.089a11.38,11.38,0,0,1,8.337,1.773c2.665,1.826,3.909,4.569,4.971,7.516a21.45,21.45,0,0,0,3.938,7.2,21.927,21.927,0,0,0,6.224,4.807c6.186,3.266,13.353,3.706,20.214,3.653a.242.242,0,0,0,0-.484c-6.293.049-12.841-.289-18.654-2.94a22.626,22.626,0,0,1-6.6-4.488,18.986,18.986,0,0,1-4.39-7.146c-.948-2.592-1.836-5.219-3.846-7.207a11.654,11.654,0,0,0-6.62-3.251c-5.675-.744-10.971,3.511-16.614,2.135-3.211-.784-5.775-3.431-7.63-6.041a22.826,22.826,0,0,1-3.811-9c-.057-.306-.524-.177-.467.128" transform="translate(-481.123 -191.445)" fill="#fff"/>
              <path id="Trazado_1266178" data-name="Trazado 1266178" d="M475.4,244.675c10.026,2.981,15.883,13.076,18.449,22.6,2.985,11.079,2.11,23.589-5.156,32.869a26.859,26.859,0,0,1-13.548,9.4.242.242,0,0,0,.128.467c10.165-2.927,17.425-12.087,19.746-22.17a42.109,42.109,0,0,0-.133-18.359,43,43,0,0,0-6.3-15.139c-3.186-4.651-7.585-8.51-13.061-10.138a.242.242,0,0,0-.128.467" transform="translate(-482.097 -206.547)" fill="#fff"/>
              <path id="Trazado_1266179" data-name="Trazado 1266179" d="M524.154,318.695a28.4,28.4,0,0,0-7.932,17.076c-.647,6.277.731,13.094,4.664,18.141a13.243,13.243,0,0,0,8.6,5.315c.308.039.305-.445,0-.484-6.4-.829-10.407-7.133-11.979-12.866a28.356,28.356,0,0,1,1.2-18.076,26.88,26.88,0,0,1,5.789-8.764.242.242,0,0,0-.342-.342" transform="translate(-498.982 -237.125)" fill="#fff"/>
              <path id="Trazado_1266180" data-name="Trazado 1266180" d="M522.066,277.03a26.61,26.61,0,0,0,7.736,9.084,12.215,12.215,0,0,0,5.463,2.519,10.182,10.182,0,0,0,5.6-1.115,51.838,51.838,0,0,1,6.06-2.762,12.116,12.116,0,0,1,6.983-.223c3.915,1.146,6.809,4.409,9,7.694,2.524,3.789,5.18,9.088,2.7,13.531-.151.273.266.517.418.245,2.032-3.649.73-7.935-1.111-11.378a24.556,24.556,0,0,0-7.548-8.981,12.578,12.578,0,0,0-11.95-.863c-2.047.828-3.915,2.05-5.99,2.813a8.38,8.38,0,0,1-6.759-.275c-4.4-2.112-7.962-6.272-10.184-10.533-.144-.276-.561-.032-.418.245" transform="translate(-501.434 -219.886)" fill="#fff"/>
              <path id="Trazado_1266181" data-name="Trazado 1266181" d="M535.651,319.071c.263,1.148,1.392,1.63,2.428,1.915,1.568.432,3.141.8,4.689,1.311a47.454,47.454,0,0,1,9.238,4.124,36.392,36.392,0,0,1,13.663,13.74,29.894,29.894,0,0,1,3.4,10.132c.044.307.51.177.467-.129a31.921,31.921,0,0,0-7.827-16.46,41.243,41.243,0,0,0-15.77-10.769,52.221,52.221,0,0,0-5.189-1.756c-.843-.237-1.7-.425-2.543-.658-.866-.239-1.867-.6-2.09-1.577-.07-.3-.536-.176-.467.128" transform="translate(-507.024 -237.185)" fill="#fff"/>
            </g>
          </g>
          <g id="Grupo_1207491" data-name="Grupo 1207491">
            <g id="Grupo_1207490" data-name="Grupo 1207490" clip-path="url(#clip-path-3)">
              <path id="Trazado_1266183" data-name="Trazado 1266183" d="M392.823,143.273l-13.731-28.035,28.781-1.911,35.909,18.048L428.732,161.32Z" transform="translate(-155.749 -46.56)" fill="#fae9cf"/>
              <path id="Trazado_1266184" data-name="Trazado 1266184" d="M386.387,126.539c2.064-3.67,3.6-7.585,5.369-11.4l-12.664.841,6.161,12.578q.567-1.011,1.134-2.024" transform="translate(-155.749 -47.307)" fill="#e37059"/>
              <rect id="Rectángulo_458306" data-name="Rectángulo 458306" width="33.516" height="121.171" transform="translate(237.631 96.993) rotate(-63.316)" fill="#ffb264"/>
              <path id="Trazado_1266185" data-name="Trazado 1266185" d="M570.821,227.921l15.051-29.946,15.01,7.544a9.363,9.363,0,0,1,4.161,12.571L598.4,231.3a9.363,9.363,0,0,1-12.571,4.161Z" transform="translate(-234.52 -81.337)" fill="#4475ab"/>
              <path id="Trazado_1266186" data-name="Trazado 1266186" d="M427.009,128.174l13.743,6.991,1.985,1.009a2.284,2.284,0,1,0,2.306-3.944L431.3,125.239l-1.985-1.01a2.285,2.285,0,0,0-2.306,3.945" transform="translate(-174.981 -50.924)" fill="#d4603f"/>
              <path id="Trazado_1266187" data-name="Trazado 1266187" d="M586.357,196.274l-9.013,18.04a2.284,2.284,0,1,0,3.944,2.306l9.014-18.04a2.285,2.285,0,0,0-3.945-2.306" transform="translate(-237.085 -80.185)" fill="#fff"/>
              <path id="Trazado_1266188" data-name="Trazado 1266188" d="M523.22,183.9s21.96-4.255,21.258-8.816l-12.894-1.615c.234.2-15.3,5.634-15.3,5.634s-8.318,3.854-7.472,4.644c.587.549,4.64-2.011,4.363-1.58-.03.047-3.917,2.069-3.78,2.7.2.929,4.7-1.656,4.981-1.4,0,0-4.224,2.077-3.85,2.515s5.061-1.539,5.14-1.357-3.282,1.633-2.857,2.3S523.22,183.9,523.22,183.9" transform="translate(-209.018 -71.268)" fill="#d4603f"/>
              <path id="Trazado_1266189" data-name="Trazado 1266189" d="M514.407,184.187s-4.967.155-4.041-.366,8.358-1.684,8.358-1.684" transform="translate(-209.635 -74.83)" fill="#d4603f"/>
              <path id="Trazado_1266190" data-name="Trazado 1266190" d="M521.917,134.467s4.162,6.946,6.371,9.828,8.28,12.431,8.28,12.431l14.067,2.711s-15.167-32.432-28.718-24.97" transform="translate(-214.428 -54.787)" fill="#37dbc5"/>
              <path id="Trazado_1266191" data-name="Trazado 1266191" d="M446.938,182.812l-1.744,1.717s.242.966.993.913,1.556-1.986,1.556-2.441c0-1.073-.8-.188-.8-.188" transform="translate(-182.906 -74.966)" fill="#d4603f"/>
              <path id="Trazado_1266192" data-name="Trazado 1266192" d="M448.486,183.618l-1.225,2.119s.49.867,1.2.615.972-2.328.851-2.767c-.285-1.035-.826.033-.826.033" transform="translate(-183.756 -75.24)" fill="#d4603f"/>
              <path id="Trazado_1266193" data-name="Trazado 1266193" d="M450.307,184.62l-1.225,2.119s.49.867,1.2.615.972-2.328.851-2.767c-.285-1.035-.826.033-.826.033" transform="translate(-184.504 -75.652)" fill="#d4603f"/>
              <path id="Trazado_1266194" data-name="Trazado 1266194" d="M451.769,186.67l-.957,1.657s.383.678.938.481.76-1.82.665-2.164c-.223-.809-.646.026-.646.026" transform="translate(-185.214 -76.537)" fill="#d4603f"/>
              <path id="Trazado_1266195" data-name="Trazado 1266195" d="M81.79,219.137,71.574,235.494l-11.16-6.971-1.376,2.2-17.11-10.687,1.376-2.2,3.9-6.241,6.319-10.116Z" transform="translate(-17.226 -82.777)" fill="#4475ab"/>
              <path id="Trazado_1266196" data-name="Trazado 1266196" d="M171.885,366.427l.931,11.447,16.47,3.5-8.494-8.458-2.051-7.174Z" transform="translate(-70.618 -150.263)" fill="#ffa47e"/>
              <path id="Trazado_1266197" data-name="Trazado 1266197" d="M179.761,376.214l11.653,10.268-22.05.229,1.485-10.382,4.341,4.227Z" transform="translate(-69.583 -154.566)" fill="#4475ab"/>
              <line id="Línea_3721" data-name="Línea 3721" x1="2.031" y2="1.303" transform="translate(110.329 222.957)" fill="none" stroke="#fff" stroke-miterlimit="10" stroke-width="0.532"/>
              <line id="Línea_3722" data-name="Línea 3722" x1="2.031" y2="1.303" transform="translate(112.143 223.811)" fill="none" stroke="#fff" stroke-miterlimit="10" stroke-width="0.532"/>
              <path id="Trazado_1266198" data-name="Trazado 1266198" d="M127.489,370.365l1.522,9.716-17.1,3.809,9.15-8.63-.579-5.281Z" transform="translate(-45.979 -152.004)" fill="#ffa47e"/>
              <path id="Trazado_1266199" data-name="Trazado 1266199" d="M119.02,377.959l-10.179,9.726,19.766-.228-1.519-9.082-3.041,4.154Z" transform="translate(-44.717 -155.283)" fill="#4475ab"/>
              <line id="Línea_3723" data-name="Línea 3723" x2="2.09" y2="1.207" transform="translate(72.33 223.912)" fill="none" stroke="#fff" stroke-miterlimit="10" stroke-width="0.532"/>
              <line id="Línea_3724" data-name="Línea 3724" x2="2.09" y2="1.206" transform="translate(70.559 224.85)" fill="none" stroke="#fff" stroke-miterlimit="10" stroke-width="0.532"/>
              <path id="Trazado_1266200" data-name="Trazado 1266200" d="M117.775,184.3l19.582,1.891s2.783,2.04,5.566,12.616c3.391,12.886,8.471,46.418,10.14,94.751l-23.087.38.05-73.767a.945.945,0,0,0-1.853.3l-3.4,74.292-23.128-.485s6.894-80.821,10.186-93.437c3.1-11.891,5.945-16.544,5.945-16.544" transform="translate(-41.76 -75.719)" fill="#fbce73"/>
            </g>
          </g>
          <g id="Grupo_1207493" data-name="Grupo 1207493" transform="translate(59.884 108.582)">
            <g id="Grupo_1207492" data-name="Grupo 1207492" clip-path="url(#clip-path-20)">
              <path id="Trazado_1266201" data-name="Trazado 1266201" d="M106.788,185.672c9.259,3.961,12.109,15.581,11.886,24.726a44.66,44.66,0,0,1-9.8,26.552,41.761,41.761,0,0,1-12.3,10.444c-.454.252-.048.949.407.7A44.211,44.211,0,0,0,116.111,226.2c3.733-9.064,4.734-19.811,1.366-29.146-1.839-5.1-5.161-9.888-10.282-12.079-.472-.2-.884.493-.407.7" transform="translate(-99.477 -184.564)" fill="#1b314f"/>
              <path id="Trazado_1266202" data-name="Trazado 1266202" d="M147.152,174.266c-3.132,5.028-.12,11.384,2.478,15.95,2.922,5.137,6.941,9.815,12.291,12.5a20.3,20.3,0,0,0,9.6,2.249.4.4,0,0,0,0-.807c-5.745.146-11.169-2.528-15.233-6.471a33.756,33.756,0,0,1-5.2-6.6,35.408,35.408,0,0,1-3.636-7.5c-.947-2.924-1.3-6.2.4-8.92.276-.442-.422-.847-.7-.407" transform="translate(-119.791 -180.101)" fill="#1b314f"/>
              <path id="Trazado_1266203" data-name="Trazado 1266203" d="M176,245.16c-5.183,1.506-8.921,6.194-10.128,11.345-1.525,6.51.558,13.241,3.736,18.92a92.468,92.468,0,0,0,6.514,9.663c.305.413,1.006.011.7-.407-3.794-5.135-7.678-10.436-9.545-16.625-1.707-5.656-1.6-12,1.911-16.963a13.243,13.243,0,0,1,7.029-5.155.4.4,0,0,0-.214-.778" transform="translate(-127.821 -209.298)" fill="#1b314f"/>
              <path id="Trazado_1266204" data-name="Trazado 1266204" d="M91.441,324.218c3.192-1.058,6.878.343,9.773,1.724a31.144,31.144,0,0,1,7.531,5.126,45.149,45.149,0,0,1,10.787,15.979,92.973,92.973,0,0,1,3.773,11.043.4.4,0,0,0,.778-.214c-3.59-12.723-9.567-26.22-22.049-32.428-3.179-1.581-7.264-3.183-10.809-2.008-.491.163-.28.942.214.778" transform="translate(-97.249 -241.3)" fill="#1b314f"/>
              <path id="Trazado_1266205" data-name="Trazado 1266205" d="M148.023,331.441a50.84,50.84,0,0,0,28.641,10.793c.519.028.517-.779,0-.807a49.911,49.911,0,0,1-28.07-10.556c-.4-.318-.978.249-.57.57" transform="translate(-120.641 -244.481)" fill="#1b314f"/>
              <path id="Trazado_1266206" data-name="Trazado 1266206" d="M127.881,304.9a1.615,1.615,0,0,0,0-3.227,1.615,1.615,0,0,0,0,3.227" transform="translate(-111.783 -232.524)" fill="#1b314f"/>
              <path id="Trazado_1266207" data-name="Trazado 1266207" d="M161.4,197.064a1.615,1.615,0,0,0,0-3.227,1.615,1.615,0,0,0,0,3.227" transform="translate(-125.553 -188.219)" fill="#1b314f"/>
              <path id="Trazado_1266208" data-name="Trazado 1266208" d="M159.212,239.324a1.615,1.615,0,0,0,0-3.227,1.615,1.615,0,0,0,0,3.227" transform="translate(-124.655 -205.582)" fill="#1b314f"/>
              <path id="Trazado_1266209" data-name="Trazado 1266209" d="M135.167,197.792a1.615,1.615,0,0,0,0-3.227,1.615,1.615,0,0,0,0,3.227" transform="translate(-114.776 -188.519)" fill="#1b314f"/>
              <path id="Trazado_1266210" data-name="Trazado 1266210" d="M167.956,321.66a1.615,1.615,0,0,0,0-3.227,1.615,1.615,0,0,0,0,3.227" transform="translate(-128.248 -239.409)" fill="#1b314f"/>
              <path id="Trazado_1266211" data-name="Trazado 1266211" d="M116.951,354.448a1.615,1.615,0,0,0,0-3.227,1.615,1.615,0,0,0,0,3.227" transform="translate(-107.292 -252.88)" fill="#1b314f"/>
            </g>
          </g>
          <g id="Grupo_1207498" data-name="Grupo 1207498">
            <g id="Grupo_1207497" data-name="Grupo 1207497" clip-path="url(#clip-path-3)">
              <path id="Trazado_1266213" data-name="Trazado 1266213" d="M160.614,125.97c.124-1.251,2.491-4.723,2.491-4.723s2.165,3.922,2.041,5.173a2.277,2.277,0,0,1-4.532-.45Z" transform="translate(-65.983 -49.814)" fill="none" stroke="#fff" stroke-miterlimit="10" stroke-width="0.894"/>
              <path id="Trazado_1266214" data-name="Trazado 1266214" d="M211.85,118.684c-2.267,1.65-4.925,4.389-9.823,6.776,0,0-14.378,12.264-19.923,15.168-5.945,3.114-18.664,5.909-33.849-1.046,0,0-5.879-3.186-2.38-7.82s7.835-2.547,7.835-2.547c10.422,6.846,14.932,6.947,24.947,4.118l19.155-11.417c1.342-.85,1.062-1.268,1.964-2.557,1.4-2,3.493-4.887,4.049-5.069.855-.281-1.836,4.468-1.836,4.468s6.749-5.075,7.58-5.236-4.257,4.893-4.257,4.893l6.543-3.923a.141.141,0,0,1,.17.223l-5.419,5.173,5.338-3.024c.173-.1.85-.216.7-.084l-5.649,4.8,4.745-3.238s.4.03.11.341" transform="translate(-59.476 -46.638)" fill="#ffa47e"/>
              <path id="Trazado_1266215" data-name="Trazado 1266215" d="M211.85,118.684c-2.267,1.65-4.925,4.389-9.823,6.776,0,0-14.378,12.264-19.923,15.168-5.945,3.114-18.664,5.909-33.849-1.046,0,0-5.879-3.186-2.38-7.82s7.835-2.547,7.835-2.547c10.422,6.846,14.932,6.947,24.947,4.118l19.155-11.417c1.342-.85,1.062-1.268,1.964-2.557,1.4-2,3.493-4.887,4.049-5.069.855-.281-1.836,4.468-1.836,4.468s6.749-5.075,7.58-5.236-4.257,4.893-4.257,4.893l6.543-3.923a.141.141,0,0,1,.17.223l-5.419,5.173,5.338-3.024c.173-.1.85-.216.7-.084l-5.649,4.8,4.745-3.238S212.138,118.373,211.85,118.684Z" transform="translate(-59.476 -46.638)" fill="none" stroke="#ffa47e" stroke-miterlimit="10" stroke-width="1"/>
              <path id="Trazado_1266216" data-name="Trazado 1266216" d="M166.723,143.165c-.986-.118-10.959-3.214-12.361-6.211,0,0-2.75-.618-6.249,4.015s6.3,14.5,6.3,14.5c1.531.919,9.241.295,9.241.295Z" transform="translate(-60.541 -56.256)" fill="#e3a4fe"/>
              <path id="Trazado_1266217" data-name="Trazado 1266217" d="M140.44,106.361c2.361,10.41,5.86,4.939,11.411,6.169a6.343,6.343,0,0,0,5.883-1.836c0-.008.007-.017.01-.025.612-1.555.865-1.923.478-3.554l.2-.878c1.432-1.911.306-4.564-1.379-6.045a10.246,10.246,0,0,0-4.109-1.861c-1.772-.546-5.128-.709-7.238.7-1.435.961-.9-1.231-2.077-.09l-.34.325c-2.2.974-2.919,6.752-2.842,7.092" transform="translate(-57.697 -40.236)" fill="#000b33"/>
              <path id="Trazado_1266218" data-name="Trazado 1266218" d="M147.064,97.47a3.366,3.366,0,0,0-3.986-5.185,4.863,4.863,0,0,0-1.493,1.1,8.689,8.689,0,0,0-1.234,1.621c-.725,1.233-1.1,2.9-.226,4.03a3.963,3.963,0,0,0,1.168.939,5.362,5.362,0,0,0,2.141.805,2.424,2.424,0,0,0,2.09-.738" transform="translate(-57.362 -37.805)" fill="#000b33"/>
              <path id="Trazado_1266219" data-name="Trazado 1266219" d="M146.612,109.782c-.062.149.162.12.026.047-.569-.309-1.228-.673-2.138.831-.92,1.521,1.419,2.97,2.4,3.1.306.039-.953,5.067-1.639,8.721a51.912,51.912,0,0,0-.563,6.587s5.132,3.894,7.952-.1c0,0,1.254-7.948,1.223-10.723,0-.048,3.871.341,4.82-6.62.876-6.419-3.565-7.774-4.644-8.119-.911-.291.019,4.955-7.433,6.277" transform="translate(-59.281 -42.52)" fill="#ffa47e"/>
              <path id="Trazado_1266220" data-name="Trazado 1266220" d="M165.44,120.752l-2.7-.37s.527,1.369,1.574,1.356c.751-.009,1.122-.986,1.122-.986" transform="translate(-66.863 -49.459)" fill="#fff"/>
              <path id="Trazado_1266221" data-name="Trazado 1266221" d="M147.662,115.557c-.46-.21-1.148-.353-1.359.107a1.434,1.434,0,0,0,.6,1.559" transform="translate(-60.083 -47.395)" fill="#d17b62"/>
              <path id="Trazado_1266222" data-name="Trazado 1266222" d="M147.662,115.557c-.46-.21-1.148-.353-1.359.107a1.434,1.434,0,0,0,.6,1.559" transform="translate(-60.083 -47.395)" fill="none" stroke="#d17b62" stroke-miterlimit="10" stroke-width="0.245"/>
              <path id="Trazado_1266223" data-name="Trazado 1266223" d="M165.854,116.426l-.394,1.991.654.033a.16.16,0,0,0,.151-.229Z" transform="translate(-67.979 -47.833)" fill="#d17b62"/>
              <path id="Trazado_1266224" data-name="Trazado 1266224" d="M165.854,116.426l-.394,1.991.654.033a.16.16,0,0,0,.151-.229Z" transform="translate(-67.979 -47.833)" fill="none" stroke="#d17b62" stroke-miterlimit="10" stroke-width="0.286"/>
              <path id="Trazado_1266225" data-name="Trazado 1266225" d="M158.314,101.786s-5.685,8.418-10.586,6.089c-4.023-1.911.192-12.251,4.883-9.647a35.637,35.637,0,0,1,5.7,3.558" transform="translate(-60.031 -40.185)" fill="#000b33"/>
              <path id="Trazado_1266226" data-name="Trazado 1266226" d="M157.582,127.147a7.391,7.391,0,0,1-4.084-1.866c-1.042-.959.716,3.165,3.823,3.524,0,0,.035-.344.261-1.658" transform="translate(-62.94 -51.412)" fill="#d17b62"/>
              <path id="Trazado_1266227" data-name="Trazado 1266227" d="M157.582,127.147a7.391,7.391,0,0,1-4.084-1.866c-1.042-.959.716,3.165,3.823,3.524C157.321,128.805,157.356,128.461,157.582,127.147Z" transform="translate(-62.94 -51.412)" fill="none" stroke="#d17b62" stroke-miterlimit="10" stroke-width="0.286"/>
              <path id="Trazado_1266228" data-name="Trazado 1266228" d="M162.307,113.29c-.252.3-.04-.805.356-1.036a.78.78,0,0,1,1.077.2,2.438,2.438,0,0,0-1.433.835" transform="translate(-66.638 -46.067)" fill="#000b33"/>
              <path id="Trazado_1266229" data-name="Trazado 1266229" d="M168.387,113.232c-.431-.156-.554-.035-.689.336,0,0,.562.095.741.386" transform="translate(-68.898 -46.493)" fill="#000b33"/>
              <path id="Trazado_1266230" data-name="Trazado 1266230" d="M164.014,116.417c-.026.318.077.586.232.6s.3-.235.326-.553-.077-.585-.232-.6-.3.234-.326.551" transform="translate(-67.383 -47.603)" fill="#000b33"/>
              <path id="Trazado_1266231" data-name="Trazado 1266231" d="M166.872,116.529c-.025.3.074.559.221.571s.287-.224.312-.527-.074-.559-.221-.571-.286.224-.312.527" transform="translate(-68.557 -47.659)" fill="#000b33"/>
              <g id="Grupo_1207496" data-name="Grupo 1207496" transform="translate(91.188 68.88)" opacity="0.37">
                <g id="Grupo_1207495" data-name="Grupo 1207495">
                  <g id="Grupo_1207494" data-name="Grupo 1207494" clip-path="url(#clip-path-22)">
                    <path id="Trazado_1266232" data-name="Trazado 1266232" d="M154.924,118.9a1.731,1.731,0,1,0,1.615-1.84,1.732,1.732,0,0,0-1.615,1.84" transform="translate(-154.837 -116.972)" fill="#ff764f"/>
                    <path id="Trazado_1266233" data-name="Trazado 1266233" d="M154.924,118.9a1.731,1.731,0,1,0,1.615-1.84A1.732,1.732,0,0,0,154.924,118.9Z" transform="translate(-154.837 -116.972)" fill="none" stroke="#ff764f" stroke-miterlimit="10" stroke-width="0.286"/>
                  </g>
                </g>
              </g>
              <path id="Trazado_1266234" data-name="Trazado 1266234" d="M144.618,136.025c1.46,2.624,7.186,11.231,6.485,15.689-.47,2.988.8,13.809.8,13.809a57.864,57.864,0,0,1-28.761-3.22c.064-7.642.01-15.9,4.557-23.517,0,0,7.562-4.782,9.123-4.733,0,0,9.257,9.457,7.8,1.973" transform="translate(-50.591 -55.075)" fill="#e3a4fe"/>
              <path id="Trazado_1266235" data-name="Trazado 1266235" d="M114.117,138.5c-22.271-2.742-35.866,30.515-35.866,30.515L75.757,176.8c-4.662,6.756-5.411,10.275-5.411,10.275l2.988-4.456-2.563,6.956c-.066.188.466-.247.569-.417L74.5,183.9l-2.18,7.168a.141.141,0,0,0,.257.111l3.773-6.63s-1.95,6.9-1.3,6.353,3.7-7.287,3.7-7.287,3.217,2.416,3.521,2.23c.5-.305-.8-2.783-1.063-5.264-.167-1.564,5.385-13,5.385-13,4.458-8.742,15.081-19.821,29.41-17.778" transform="translate(-28.901 -56.836)" fill="#ffa47e"/>
              <path id="Trazado_1266236" data-name="Trazado 1266236" d="M134.6,134.43c-6.54,1.668-15.683,3.888-15.683,3.888l3.994,13.125s9.385-4.448,14.3-2.4" transform="translate(-48.856 -55.23)" fill="#e3a4fe"/>
              <path id="Trazado_1266237" data-name="Trazado 1266237" d="M144.949,133.977l-1.409-2.492,11.018,1.86-.43,3.72s5.008,10.731-1.86,4.293-7.32-7.381-7.32-7.381" transform="translate(-58.973 -54.02)" fill="#e3a4fe"/>
              <path id="Trazado_1266238" data-name="Trazado 1266238" d="M144.584,123.3c.124-1.251,2.491-4.723,2.491-4.723s2.165,3.922,2.041,5.173a2.277,2.277,0,1,1-4.532-.45Z" transform="translate(-59.397 -48.716)" fill="none" stroke="#fff" stroke-miterlimit="10" stroke-width="0.894"/>
              <path id="Trazado_1266239" data-name="Trazado 1266239" d="M61.985,162.356a2.575,2.575,0,1,0-2.576,2.576,2.576,2.576,0,0,0,2.576-2.576" transform="translate(-23.35 -65.645)" fill="#fff"/>
              <path id="Trazado_1266240" data-name="Trazado 1266240" d="M38.115,42.488a6.766,6.766,0,1,0-6.766,6.766A6.766,6.766,0,0,0,38.115,42.488Z" transform="translate(-10.1 -14.676)" fill="none" stroke="#fff" stroke-miterlimit="10" stroke-width="1.096"/>
              <path id="Trazado_1266241" data-name="Trazado 1266241" d="M651.258,306.982a6.766,6.766,0,1,0-6.766,6.766A6.766,6.766,0,0,0,651.258,306.982Z" transform="translate(-262.007 -123.343)" fill="none" stroke="#fff" stroke-miterlimit="10" stroke-width="1.096"/>
              <path id="Trazado_1266242" data-name="Trazado 1266242" d="M32.65,359.443a6.766,6.766,0,1,0-6.766,6.766A6.766,6.766,0,0,0,32.65,359.443Z" transform="translate(-7.855 -144.896)" fill="none" stroke="#fff" stroke-miterlimit="10" stroke-width="1.096"/>
              <path id="Trazado_1266243" data-name="Trazado 1266243" d="M611.357,28.28a6.766,6.766,0,1,0-6.766,6.766A6.766,6.766,0,0,0,611.357,28.28Z" transform="translate(-245.614 -8.839)" fill="none" stroke="#fff" stroke-miterlimit="10" stroke-width="1.096"/>
              <path id="Trazado_1266244" data-name="Trazado 1266244" d="M606.273,315.368a2.576,2.576,0,1,0-2.576,2.576,2.576,2.576,0,0,0,2.576-2.576" transform="translate(-246.968 -128.509)" fill="#fff"/>
              <path id="Trazado_1266245" data-name="Trazado 1266245" d="M546.161,45.41a2.576,2.576,0,1,0-2.576,2.576,2.576,2.576,0,0,0,2.576-2.576" transform="translate(-222.272 -17.598)" fill="#1b314f"/>
              <path id="Trazado_1266246" data-name="Trazado 1266246" d="M68.542,343.785a2.576,2.576,0,1,0-2.576,2.576,2.576,2.576,0,0,0,2.576-2.576" transform="translate(-26.044 -140.184)" fill="#1b314f"/>
              <path id="Trazado_1266247" data-name="Trazado 1266247" d="M249.972,13.715a2.576,2.576,0,1,0-2.576,2.576,2.576,2.576,0,0,0,2.576-2.576" transform="translate(-100.583 -4.576)" fill="#4475ab"/>
              <path id="Trazado_1266249" data-name="Trazado 1266249" d="M5.152,123.01a2.576,2.576,0,1,0-2.576,2.576,2.576,2.576,0,0,0,2.576-2.576" transform="translate(0 -49.48)" fill="#4475ab"/>
            </g>
          </g>
        </g>
      </g>
    </g>
  </g>
</svg>
