<svg xmlns="http://www.w3.org/2000/svg" xmlns:xlink="http://www.w3.org/1999/xlink" width="96" height="96" viewBox="0 0 96 96">
  <defs>
    <clipPath id="clip-path">
      <rect id="Rectángulo_458169" data-name="Rectángulo 458169" width="54.641" height="57.795" fill="#fff"/>
    </clipPath>
  </defs>
  <g id="Grupo_1207244" data-name="Grupo 1207244" transform="translate(-383.746 -8400.001)">
    <path id="Trazado_997400" data-name="Trazado 997400" d="M48,0A48,48,0,1,1,0,48,48,48,0,0,1,48,0Z" transform="translate(383.746 8400.001)" fill="#5d0b80"/>
    <g id="Grupo_1099776" data-name="Grupo 1099776" transform="translate(401.746 8418)">
      <g id="Grupo_1099618" data-name="Grupo 1099618" transform="translate(-0.035 -0.777)">
        <rect id="Rectángulo_401104" data-name="Rectángulo 401104" width="59.378" height="60.093" transform="translate(0)" fill="none"/>
      </g>
      <g id="Grupo_1207320" data-name="Grupo 1207320" transform="translate(1.965 1.223)">
        <g id="Grupo_1207319" data-name="Grupo 1207319" clip-path="url(#clip-path)">
          <path id="Trazado_1265570" data-name="Trazado 1265570" d="M10.568,6.737A1.968,1.968,0,0,0,9.482,8.47V47.953c.032.612.273,1.517.878,1.775l23.93.281c1.272,1.782-.683,1.309-1.593,1.577-1.745.515-5.457,3.359-7.451,4.323-4.429,2.142-4.761-1.557-6.913-4.371-2.431-.243-5.215.231-7.6-.027a3.2,3.2,0,0,1-2.739-2.567c-.582-4.774.471-10.664-.031-15.557C5.791,29.132,2.793,25.025.673,20.779c-.824-1.65-1.064-2.924.279-4.422l6.965-4.146C8.245,9.655,7,5.482,10.734,5.079c3.006-.325,6.519.275,9.581-.037,2.742-1.087,5.8-3.85,8.461-4.806a3.239,3.239,0,0,1,3.838,1.04c.4.536,1.927,3.661,2.11,3.776.231.146,1.289-.05,1.711.031.919.176,7.438,7.583,8.75,8.662l.165,9.618,7.762,13.63c.562,1.477-.308,2.575-1.172,3.654.94,1.034.6,2.492,1.079,3.569.707,1.592,1.9,1.612,1.562,4.047-.194,1.395-1.474,2.092-1.732,3.076-.358,1.366.05,2.365-1.255,3.554-1.257,1.146-2.394.663-3.632,1.177-1.287.534-1.592,1.755-3.548,1.723-1.726-.028-2.29-1.323-3.535-1.771-1.557-.56-2.438.115-3.78-1.526-1.109-1.356-.584-2.053-.983-3.328-.3-.973-1.586-1.45-1.751-3.057-.256-2.486,1.194-2.539,1.7-4.108.38-1.183.033-2.281,1.049-3.428,1.25-1.412,2.68-.915,4.01-1.462,1.37-.564,1.7-2,3.9-1.659,1.5.231,2.03,1.394,2.934,1.708,1.566.545,3.843.628,3.621-1.626l-6.267-10.9v9.535c0,.838-1.658.576-1.658,0V15.029c-2.7-.215-5.373.226-8.019-.317a2.2,2.2,0,0,1-.273-.595V6.737Zm22.3-1.658c-.832-1.211-1.449-3.931-3.321-3.4l-5.8,3.4Zm9.618,8.292L37.018,7.9v5.472ZM8,14.2,2.2,17.441c-1.409,1.2.583,3.725,1.291,5,1.229,2.208,2.736,5.105,4.136,7.134.1.147-.029.305.37.217ZM38.4,53.611c.766.795,2.334.57,3.374,1.021.863.374,1.638,1.488,2.625,1.533,1.289.059,1.838-1.179,2.9-1.583.823-.312,1.542-.206,2.354-.465,1.885-.6,1.217-1.965,1.71-3.431.476-1.416,1.732-1.628,1.582-3.414-.089-1.063-1.137-1.552-1.535-2.613-.41-1.1-.072-2.4-.956-3.19-.784-.7-1.773-.443-2.664-.653-1.669-.393-2.188-2.465-4.292-1.477-.651.306-1.126,1.022-1.843,1.308-.855.341-1.578.157-2.394.425-1.777.584-1.2,2.383-1.745,3.728-.445,1.091-1.512,1.434-1.512,2.813s1.067,1.722,1.512,2.813c.412,1.01.149,2.426.879,3.184m-9.011-2.1H20.435c.5,1.094,1.492,3.537,2.888,3.472Z" transform="translate(0 0)" fill="#fff"/>
          <path id="Trazado_1265571" data-name="Trazado 1265571" d="M73.778,166.056c.054.163-.166.36-.166.415v3.98l.249.249h4.146c.861-.594-.17-2.485,1.165-2.42.97.047.859,1.962.707,2.633a2.5,2.5,0,0,1-1.453,1.367,24.8,24.8,0,0,1-4.859.04,2.1,2.1,0,0,1-1.508-1.643c-.237-1.028-.256-4.3.251-5.177a2.232,2.232,0,0,1,1.717-1.1,11.5,11.5,0,0,1,2.744.075c1.16.356.428,1.584.075,1.584Z" transform="translate(-59.975 -137.097)" fill="#fff"/>
          <path id="Trazado_1265572" data-name="Trazado 1265572" d="M73.649,238.528h4.229c.911-.81-.3-2.921,1.628-2.334.639,1.317.428,3.447-1.244,3.879a20.282,20.282,0,0,1-4.658.075,2.492,2.492,0,0,1-1.705-1.777c-.257-1.222-.291-4.784.671-5.649.657-.59,3.317-.693,4.112-.461,1.031.3.449,1.623-.131,1.623H73.732l-.249.249v3.98c0,.055.22.252.166.415" transform="translate(-59.847 -193.649)" fill="#fff"/>
          <path id="Trazado_1265573" data-name="Trazado 1265573" d="M73.56,102.337c.178.59,3.592.487,4.2.374,1.08-.2.268-1.7.845-2.3,1.578-1.253,1.985,3.166-.06,3.753a23.019,23.019,0,0,1-5.268-.051,2.145,2.145,0,0,1-1.357-1.794c-.138-1.014-.142-4.111.342-4.935a2.487,2.487,0,0,1,2.041-1.11c.892-.079,2.993-.269,3.056.92.078,1.467-3.8.187-3.8,1.16Z" transform="translate(-59.924 -80.26)" fill="#fff"/>
          <path id="Trazado_1265574" data-name="Trazado 1265574" d="M139.591,107.072h13.432c.525,0,.525,1.492,0,1.492H139.591c-.436,0-.631-1.275,0-1.492" transform="translate(-116.106 -89.316)" fill="#fff"/>
          <path id="Trazado_1265575" data-name="Trazado 1265575" d="M90.973,229.546a.754.754,0,0,1,1.043.867c-.094.951-3.85,3.908-4.552,4.917-.419.673-2.194-1.214-2.327-1.5-.341-.746.051-1.419.877-1.215.516.127.631.582,1.087.708.452-.08,3.233-3.583,3.872-3.774" transform="translate(-70.916 -191.438)" fill="#fff"/>
          <path id="Trazado_1265576" data-name="Trazado 1265576" d="M89.7,98.1c-.514.529-1.883,2.208-2.5,2.242-.641.036-2.052-1.34-2.09-1.924-.092-1.421,1.4-.955,1.947-.1.54.092,2.951-3.258,3.616-3.644.752-.437,1.667-.047,1.39.885-.049.166-2.034,2.2-2.362,2.537" transform="translate(-70.992 -78.827)" fill="#fff"/>
          <path id="Trazado_1265577" data-name="Trazado 1265577" d="M92.127,161.918a1.174,1.174,0,0,1,.123,1.116l-4.332,4.459c-.929.8-3.373-1.971-2.218-2.549.943-.472,1.309.808,1.719.736.854-.673,3.234-3.9,4.169-3.951a.916.916,0,0,1,.54.19" transform="translate(-71.235 -134.908)" fill="#fff"/>
          <path id="Trazado_1265578" data-name="Trazado 1265578" d="M139.591,123.4h5.638c.463,0,.463,1.492,0,1.492h-5.638c-.436,0-.631-1.275,0-1.492" transform="translate(-116.106 -102.941)" fill="#fff"/>
          <path id="Trazado_1265579" data-name="Trazado 1265579" d="M139.591,170.183h13.432c.525,0,.525,1.492,0,1.492H139.591c-.436,0-.631-1.275,0-1.492" transform="translate(-116.106 -141.961)" fill="#fff"/>
          <path id="Trazado_1265580" data-name="Trazado 1265580" d="M139.591,186.516h5.638c.463,0,.463,1.492,0,1.492h-5.638c-.436,0-.631-1.275,0-1.492" transform="translate(-116.106 -155.586)" fill="#fff"/>
          <path id="Trazado_1265581" data-name="Trazado 1265581" d="M139.54,243.96h11.713c.458,0,.458,1.492,0,1.492H139.54c-.38,0-.55-1.275,0-1.492" transform="translate(-116.106 -203.504)" fill="#fff"/>
          <path id="Trazado_1265582" data-name="Trazado 1265582" d="M139.591,260.294h5.638c.463,0,.463,1.492,0,1.492h-5.638c-.436,0-.631-1.275,0-1.492" transform="translate(-116.106 -217.129)" fill="#fff"/>
          <path id="Trazado_1265583" data-name="Trazado 1265583" d="M239.045,252.6c7.968-1,8.838,10.569,1.594,11.377-7.608.849-8.7-10.487-1.594-11.377m-.007,1.651c-4.915.843-3.973,9.027,1.745,8.047,4.939-.847,4.051-9.04-1.745-8.047" transform="translate(-195.43 -210.661)" fill="#fff"/>
          <path id="Trazado_1265584" data-name="Trazado 1265584" d="M253.993,272.52c.813-.248,1.423.288,1.088,1.08a49.012,49.012,0,0,1-3.7,3.776.877.877,0,0,1-.824,0,21.425,21.425,0,0,1-1.574-1.576c-.731-1.593,1.363-1.589,1.986-.332.216,0,2.51-2.793,3.019-2.949" transform="translate(-207.57 -227.277)" fill="#fff"/>
        </g>
      </g>
    </g>
  </g>
</svg>
