<svg xmlns="http://www.w3.org/2000/svg" xmlns:xlink="http://www.w3.org/1999/xlink" width="96" height="96" viewBox="0 0 96 96">
  <defs>
    <clipPath id="clip-path">
      <rect id="Rectángulo_458149" data-name="Rectángulo 458149" width="46.739" height="60.093" fill="#fff"/>
    </clipPath>
  </defs>
  <g id="Grupo_1207227" data-name="Grupo 1207227" transform="translate(-383.746 -8400.001)">
    <path id="Trazado_997400" data-name="Trazado 997400" d="M48,0A48,48,0,1,1,0,48,48,48,0,0,1,48,0Z" transform="translate(383.746 8400.001)" fill="#5d0b80"/>
    <g id="Grupo_1099776" data-name="Grupo 1099776" transform="translate(401.746 8418)">
      <g id="Grupo_1099618" data-name="Grupo 1099618" transform="translate(-0.035 -0.156)">
        <rect id="Rectángulo_401104" data-name="Rectángulo 401104" width="59.378" height="60.093" transform="translate(0)" fill="none"/>
      </g>
      <g id="Grupo_1207268" data-name="Grupo 1207268" transform="translate(5.964 -0.156)">
        <g id="Grupo_1207267" data-name="Grupo 1207267" clip-path="url(#clip-path)">
          <path id="Trazado_1265273" data-name="Trazado 1265273" d="M45.626,41.175a1.113,1.113,0,0,0,1.113-1.113V5.565a1.113,1.113,0,0,0-1.113-1.113H42.287V1.114A1.113,1.113,0,0,0,41.175,0H10.016a1.113,1.113,0,0,0-.787.326l-8.9,8.9A1.113,1.113,0,0,0,0,10.017v6.29a1.113,1.113,0,1,0,2.226,0V11.129h7.79a1.113,1.113,0,0,0,1.113-1.113V2.227H40.062v51.19H2.226v-28.9a1.113,1.113,0,1,0-2.226,0V54.529a1.113,1.113,0,0,0,1.113,1.113H4.451v3.339a1.113,1.113,0,0,0,1.113,1.113H45.626a1.113,1.113,0,0,0,1.113-1.113V45.726a1.113,1.113,0,0,0-2.226,0V57.868H6.677V55.642h34.5a1.113,1.113,0,0,0,1.113-1.113V6.678h2.226V40.063a1.113,1.113,0,0,0,1.113,1.113M3.8,8.9,8.9,3.8V8.9Z" transform="translate(0 -0.001)" fill="#fff"/>
          <path id="Trazado_1265274" data-name="Trazado 1265274" d="M1.113,47.514A1.113,1.113,0,0,0,2.226,46.4v-1.02a1.113,1.113,0,0,0-2.226,0V46.4a1.113,1.113,0,0,0,1.113,1.113" transform="translate(0 -25.303)" fill="#fff"/>
          <path id="Trazado_1265275" data-name="Trazado 1265275" d="M67.53,32.284a1.113,1.113,0,0,0-1.113-1.113H53.064a1.113,1.113,0,0,0-1.113,1.113v15.58a1.113,1.113,0,0,0,1.113,1.113H66.417a1.113,1.113,0,0,0,1.113-1.113ZM65.3,46.75H54.177V33.4H65.3Z" transform="translate(-29.694 -17.817)" fill="#fff"/>
          <path id="Trazado_1265276" data-name="Trazado 1265276" d="M10.39,32.284v15.58A1.113,1.113,0,0,0,11.5,48.976H24.857a1.113,1.113,0,0,0,1.113-1.113V32.284a1.113,1.113,0,0,0-1.113-1.113H11.5a1.113,1.113,0,0,0-1.113,1.113M12.616,33.4H23.744V46.75H12.616Z" transform="translate(-5.939 -17.817)" fill="#fff"/>
          <path id="Trazado_1265277" data-name="Trazado 1265277" d="M66.417,77.926H53.064a1.113,1.113,0,0,0-1.113,1.113V94.618a1.113,1.113,0,0,0,1.113,1.113H66.417a1.113,1.113,0,0,0,1.113-1.113V79.039a1.113,1.113,0,0,0-1.113-1.113M65.3,93.506H54.177V80.152H65.3Z" transform="translate(-29.694 -44.541)" fill="#fff"/>
          <path id="Trazado_1265278" data-name="Trazado 1265278" d="M10.39,94.618A1.113,1.113,0,0,0,11.5,95.731H24.857a1.113,1.113,0,0,0,1.113-1.113V79.039a1.113,1.113,0,0,0-1.113-1.113H11.5a1.113,1.113,0,0,0-1.113,1.113Zm2.226-14.467H23.744V93.505H12.616Z" transform="translate(-5.939 -44.541)" fill="#fff"/>
          <path id="Trazado_1265279" data-name="Trazado 1265279" d="M26.7,45.186,24.1,47.781l-1.439-1.439a1.113,1.113,0,1,0-1.574,1.574l2.226,2.226a1.112,1.112,0,0,0,1.574,0l3.38-3.382A1.113,1.113,0,0,0,26.7,45.186" transform="translate(-11.863 -25.649)" fill="#fff"/>
          <path id="Trazado_1265280" data-name="Trazado 1265280" d="M64.877,50.141a1.112,1.112,0,0,0,1.574,0l3.381-3.382a1.113,1.113,0,0,0-1.573-1.574l-2.594,2.595-1.439-1.439a1.113,1.113,0,1,0-1.574,1.574Z" transform="translate(-35.618 -25.649)" fill="#fff"/>
          <path id="Trazado_1265281" data-name="Trazado 1265281" d="M26.7,91.941,24.1,94.536,22.665,93.1a1.113,1.113,0,1,0-1.574,1.574L23.317,96.9a1.112,1.112,0,0,0,1.574,0l3.38-3.382A1.113,1.113,0,0,0,26.7,91.941" transform="translate(-11.863 -52.373)" fill="#fff"/>
          <path id="Trazado_1265282" data-name="Trazado 1265282" d="M63.453,93.14H67.9a1.113,1.113,0,1,0,0-2.226H63.453a1.113,1.113,0,1,0,0,2.226" transform="translate(-35.632 -51.965)" fill="#fff"/>
          <path id="Trazado_1265283" data-name="Trazado 1265283" d="M63.453,103.53H67.9a1.113,1.113,0,1,0,0-2.226H63.453a1.113,1.113,0,1,0,0,2.226" transform="translate(-35.632 -57.904)" fill="#fff"/>
          <path id="Trazado_1265284" data-name="Trazado 1265284" d="M55.652,11.5a1.113,1.113,0,0,0-1.113-1.113H32.283A1.113,1.113,0,0,0,31.17,11.5v4.451a1.113,1.113,0,0,0,1.113,1.113H54.539a1.113,1.113,0,0,0,1.113-1.113Zm-2.226,3.339H33.4V12.617H53.427Z" transform="translate(-17.816 -5.939)" fill="#fff"/>
        </g>
      </g>
    </g>
  </g>
</svg>
