<svg xmlns="http://www.w3.org/2000/svg" xmlns:xlink="http://www.w3.org/1999/xlink" width="70" height="70" viewBox="0 0 70 70">
  <defs>
    <clipPath id="clip-path">
      <rect id="Rectángulo_458378" data-name="Rectángulo 458378" width="40.245" height="37.158" fill="#5d0b80"/>
    </clipPath>
  </defs>
  <g id="Grupo_1206960" data-name="Grupo 1206960" transform="translate(-268.711 -957.726)">
    <circle id="Elipse_5614" data-name="Elipse 5614" cx="35" cy="35" r="35" transform="translate(268.711 957.726)" fill="#fff"/>
    <g id="Grupo_1207552" data-name="Grupo 1207552" transform="translate(281.25 974.147)">
      <g id="Grupo_1207551" data-name="Grupo 1207551" clip-path="url(#clip-path)">
        <path id="Trazado_1266458" data-name="Trazado 1266458" d="M84.9,23.712c-1.869,2.253-2.75,3.165-2.454,6.432.159,1.758,1.188,2.932.285,4.767C81.99,36.425,80.5,36.7,78.964,36.8c-3.355.223-6.754.193-10.113.356a3.439,3.439,0,0,1-2.8-2.466c-.272-1.071.078-2.2-1.573-2.11-1.485.078-2.665.935-4.2.247-2.2-.986-1.767-3.479-.476-5.056,0-.409-1.062-.648-.764-1.946.11-.477.708-.754.887-1.215-1.167-.74-1.68-1.665-.782-2.893-1.131-.607-3.095-.78-3.023-2.494.066-1.582,3.647-3.958,3.928-6.613C60.423,9.006,60.8,6.759,63.415,4c5.616-5.916,17.869-5.137,22.776,1.462C90.638,11.443,89.4,18.3,84.9,23.712" transform="translate(-48.721 0)" fill="#5d0b80"/>
        <path id="Trazado_1266459" data-name="Trazado 1266459" d="M3.005,139.439c.559-.107.917.426.825.962a14.19,14.19,0,0,1-1.164,1.478,7.9,7.9,0,0,0-.131,8.251c.388.647,1.6,1.581,1.228,2.329-.6,1.214-2.17-1.138-2.459-1.625a9.305,9.305,0,0,1-.568-8.384c.279-.67,1.607-2.885,2.269-3.012" transform="translate(0 -121.061)" fill="#5d0b80"/>
        <path id="Trazado_1266460" data-name="Trazado 1266460" d="M21.183,152.581a.937.937,0,0,1,.809.809c-.025.258-1,1.352-1.221,1.8a5.36,5.36,0,0,0-.092,4.433c.355.845,1.764,1.934,1.084,2.617-1,1-2.47-1.981-2.68-2.733a6.945,6.945,0,0,1,1.229-6.226c.188-.212.6-.675.872-.7" transform="translate(-16.346 -132.483)" fill="#5d0b80"/>
        <path id="Trazado_1266461" data-name="Trazado 1266461" d="M39.667,166.6a.868.868,0,0,1,.58.29c.5.7-.369,1.2-.6,1.789a2.585,2.585,0,0,0,0,1.97c.177.477,1.534,2.049.127,2.124-1.08.057-1.791-2.211-1.788-3.108,0-.837.718-2.986,1.68-3.066" transform="translate(-32.984 -144.659)" fill="#5d0b80"/>
      </g>
    </g>
  </g>
</svg>
