<svg xmlns="http://www.w3.org/2000/svg" xmlns:xlink="http://www.w3.org/1999/xlink" width="75.044" height="78.565" viewBox="0 0 75.044 78.565">
  <defs>
    <clipPath id="clip-path">
      <rect id="Rectángulo_458372" data-name="Rectángulo 458372" width="75.044" height="78.565" fill="#fff"/>
    </clipPath>
  </defs>
  <g id="Grupo_1207542" data-name="Grupo 1207542" transform="translate(27.166)">
    <g id="Grupo_1207541" data-name="Grupo 1207541" transform="translate(-27.166 0)" clip-path="url(#clip-path)">
      <path id="Trazado_1266427" data-name="Trazado 1266427" d="M212.887,115.895l-1.336.406c3.007,2.287,6.052,6.409,6.478,10.246a107.033,107.033,0,0,1,.035,15.316c-.132,1.465-.56,1.623-1.976,1.74-8.483.7-18.041-.46-26.62-.11-1.857-.275-1.083-3.409-.881-4.86.74-5.3,3.267-10.952,8.062-13.658-.493-2.247-2.837-3.129.212-4.947-.546-3.457-3.519-1.128-5.833-2.484-2.439-1.43-1.252-5.076-1.825-7-.189-.635-1.821-1.566-2-2.189-.4-1.355,2.23-4.016,2.64-5.4.6-2.011-.092-4.288,1.044-6.156-3.133-.9-4.846-3.017-4.074-6.4.743-3.25,4.137-3.65,6.9-4.252,7.289-1.59,18.5-2.637,22.759,5.029,4.105,7.382-.164,17.786-3.58,24.717m-1.367-2.06c2.916-6.487,7.732-18.529.94-23.993-4.272-3.437-11.213-2.792-16.282-1.921-1.038.178-5.831,1.162-6.4,1.619a3,3,0,0,0,.178,4.453,10.392,10.392,0,0,0,4.262,1.032c.73-.023,2.3-.865,2.816.021.2.344.141,1.456.394,2.159.406,1.13,1.545,2.01,1.756,3.358.282,1.8-1.242,3.859.17,5.4.581-6.909,10.44-5.527,9.07.944-.148.7-.7,1.308-.811,1.974-.473,2.932.84,4.948,3.9,4.952M195.027,97.172a3.538,3.538,0,0,0-1.441.007c-1.547.525-1.135,5.138-1.608,6.52-.283.829-2.294,3.512-2.215,3.967.177.7,1.368,1.431,1.53,1.949.585,1.87-.161,4.264.787,6.067a14.433,14.433,0,0,0,4.21.225c1.126-.338,3.273-3.94,4.518-2.683,1.479,1.493-2.216,3.025-2.462,4.053-.045.189.076,1.417.54,1.228l7.068-5.37a8.637,8.637,0,0,1-.384-5.367c.136-.474.539-.773.627-1.23.775-4.011-4.9-3.742-4.4-.24.1.7.963,1.908-.592,2.218-2.717.542-4.893-1.92-4.76-4.514.055-1.067.636-2.079.455-3.246-.118-.762-1.022-1.563-1.423-2.3-.162-.3-.369-1.23-.456-1.286m12.267,17.67-9.349,7.145,2.339,3.718,8.474-10.1a2.92,2.92,0,0,0-1.465-.763m8.437,26.43c.022-3.6-.025-7.207-.01-10.81,0-.671.266-1.317.26-2.085-.036-4.234-2.876-8.123-6.148-10.555l-8.9,10.687c-1.629.8-2.008-.8-2.747-1.876-5.183,2.8-7.305,9.029-7.544,14.639h15.562v-8.246c0-.648,2.09-.648,2.09,0v8.246Z" transform="translate(-143.277 -65.272)" fill="#fff"/>
      <path id="Trazado_1266428" data-name="Trazado 1266428" d="M8.579,126.223c-6.984-1.155-8.318-7.833-6.22-13.77.256-.726,1.56-2.945,1.581-3.324.025-.453-.9-1.557-1.061-2.407-.789-4.185,3.4-7.258,7.265-5.873.679.243,1.85,1.409,2.252,1.433.583.035,2.385-.612,3.271-.678,5.115-.378,12.084,2.647,11.475,8.688-.05.493-.391.92-.406,1.4-.013.411.385,4.212.474,4.606.194.857,1.946,2.5,2.325,3.48.832,2.153-1.091,2.325-1.4,3.352-.219.737.126,1.73-.095,2.46-.125.413-.645.584-.776.864-.117.249.122.872.036,1.395-.564,3.436-2.744,4.227-5.958,3.576l-.92,3.734c1.59,1.949,3.186,3.951,4.879,5.808.626.687,1.617,1.256,2.314,2.1a11.571,11.571,0,0,1,2.57,8.828c-.157,2.039-.2,3.4-2.438,3.6-8.109.746-17.339-.583-25.568,0-1.419-.119-1.841-.272-1.976-1.74C-.1,150.393-.154,140.24.7,137.269a16.2,16.2,0,0,1,2.676-4.989c1.68-2.1,4.413-3.428,5.207-6.057M5.555,107.174l1.507-1.863,2.564-2.085c-1.389-1.229-4.236,0-4.519,1.756-.088.542-.144,1.917.447,2.192m6.74,16.49c-1.318-1.795-1.411-5.368.929-6.385,2.4-1.042,4.955-1.138,7.589-2.631,8.391-4.754,2.472-11.3-5.158-10.733-5.513.408-9.862,4.827-11.424,9.946-1.87,6.127,1.2,11.85,8.064,9.8m13.432.894c.217-.352-.1-1.713.087-2.353.16-.539,1.243-1.116,1.523-1.67.029-.367-2.033-2.611-2.213-3.31a22.841,22.841,0,0,0-.289-2.616,24.571,24.571,0,0,1-7.207,3.823c-1.737.619-4.495.378-3.983,2.82.263,1.255.99,1.165,1.411,1.86,1.08,1.784-2.918,2.8-4.038,3.343L9.551,129.41a13.6,13.6,0,0,0,11.8,10.514L18.1,135.851l1.141-5.416c-.963-.709-3.825-1.393-3.429-2.884.564-2.122,3.811.828,4.912,1.272,1.854.748,3.91,1.348,4.335-1.189-3.619-2.048.412-2.666.667-3.078M2.539,153.165H9.508v-8.478c0-.236-1.615-.988-.907-2.058.973-1.471,3,.939,3,1.129v9.407H27.509c1.278-2.537.351-6.184-1.391-8.365-2.033-2.545-3.6-2.033-6.441-2.85-5.776-1.664-9.963-4.757-11.915-10.622a12.244,12.244,0,0,0-5.477,9.643c0,.659.261,1.239.263,1.849.012,3.448-.029,6.9-.009,10.346" transform="translate(0 -77.166)" fill="#fff"/>
      <path id="Trazado_1266429" data-name="Trazado 1266429" d="M61.962.116C69.2-.5,79.4,1.216,83.7,7.733c5.448,8.247-3.5,15.361-10.9,17.157-.262.395-.217,4.9-.4,5.876-.2,1.1-.818,1.6-1.881,1.069-2.431-1.224-5.378-4.619-7.877-6.064-6.224-.738-15.344-3.659-17.194-10.446C42.9,5.96,54.4.755,61.962.116M70.889,23.1c5.669-1.238,14.86-5.982,11.529-13.149C77.72-.165,54-.233,48.35,9.268c-3.862,6.49,3.519,11.623,9.013,13.192,1.819.52,4.8.575,6.2,1.23,1.96.911,4.424,3.8,6.459,4.924.472.06.3-.018.345-.341.124-.94.024-4.681.519-5.176" transform="translate(-34.616 0)" fill="#fff"/>
      <path id="Trazado_1266430" data-name="Trazado 1266430" d="M132.864,219.153c-.868.9.7,4.307-2.1,5.455-4.308,1.766-4.857-3.3-4.447-6.305.528-3.881,5.463-3.691,6.327-6.68,1.1-3.814-2.628-6.582-5.537-4.144-1.4,1.17-.766,2.518-1.416,3.926a3.109,3.109,0,0,1-5.9-1.019c-.472-4.43,3.151-8.831,7.385-9.8,10.047-2.308,16.2,10.409,8.531,16.892-.768.649-2.551,1.367-2.85,1.678m-4.24-1.1v4.181c0,.391,1.6.866,1.842-.713.272-1.786-.592-2.942,1.291-4.283,1.607-1.145,2.657-1.035,3.93-3.038,4.943-7.778-5.374-15.673-11.627-9.421-.928.928-3.364,5.589-1.554,6.165,1.416.451,1.272-1.8,1.595-2.756a5.662,5.662,0,0,1,9.865-1.516,6.222,6.222,0,0,1-1.51,8.71c-.777.59-3.585,1.8-3.832,2.671" transform="translate(-91.94 -153.78)" fill="#fff"/>
      <path id="Trazado_1266431" data-name="Trazado 1266431" d="M150.995,309.424c3.877-.21,4.528,5.7.85,6.193-4.886.658-4.892-5.974-.85-6.193m.956,2.529c-.188-.295-1.86-.559-1.59.765.362,1.776,2.241.255,1.59-.765" transform="translate(-113.673 -237.548)" fill="#fff"/>
      <path id="Trazado_1266432" data-name="Trazado 1266432" d="M100.282,25.08c.9.586,4.23,3.257,4.315,4.146a.96.96,0,0,1-.994,1.035c-1.247.064-3.193-2.679-4.416-3.269-1.473,2.455-3.669,6.845-6.962,6.975-4.648.184-5.655-7.2-3.565-10.312,2.149-3.2,6.749-2.162,9.368-.16.482,0,1.737-4.841-1.619-4.641a14.38,14.38,0,0,0-7.678,3.014c-2.185,2.011-3.64,6.371-7.486,5.06-.935-2.057.664-1.739,1.81-2.141,1.319-.462,1.987-2.154,2.892-3.148a13.005,13.005,0,0,1,6.108-4.112c5.256-1.673,9.246-1.533,8.646,5.162-.074.82-.662,1.554-.419,2.391m-3.082.3c-2.164-1.051-5.86-3.019-7.02.264-1.034,2.924.314,8.413,3.933,4.978.584-.554,3.448-4.74,3.087-5.242" transform="translate(-62.158 -12.77)" fill="#fff"/>
    </g>
  </g>
</svg>
