<svg xmlns="http://www.w3.org/2000/svg" xmlns:xlink="http://www.w3.org/1999/xlink" width="96" height="96" viewBox="0 0 96 96">
  <defs>
    <clipPath id="clip-path">
      <rect id="Rectángulo_458221" data-name="Rectángulo 458221" width="56.289" height="49.579" fill="#fff"/>
    </clipPath>
  </defs>
  <g id="Grupo_1207211" data-name="Grupo 1207211" transform="translate(-383.746 -8400.001)">
    <path id="Trazado_997400" data-name="Trazado 997400" d="M48,0A48,48,0,1,1,0,48,48,48,0,0,1,48,0Z" transform="translate(383.746 8400.001)" fill="#5d0b80"/>
    <g id="Grupo_1099776" data-name="Grupo 1099776" transform="translate(401.746 8418)">
      <g id="Grupo_1099618" data-name="Grupo 1099618" transform="translate(-0.035 0.334)">
        <rect id="Rectángulo_401104" data-name="Rectángulo 401104" width="59.378" height="60.093" transform="translate(0)" fill="none"/>
      </g>
      <g id="Grupo_1207376" data-name="Grupo 1207376" transform="translate(1.964 5.334)">
        <g id="Grupo_1207375" data-name="Grupo 1207375" clip-path="url(#clip-path)">
          <path id="Trazado_1265920" data-name="Trazado 1265920" d="M10.36,4.663H12.78V1.84c0-.782,1.568-1.82,2.354-1.84.842-.021,2.484,1.006,2.484,1.84V4.663H38.747V1.84c0-.834,1.642-1.861,2.484-1.84.786.02,2.354,1.089,2.354,1.84V4.663h2.419V1.84C46.005,1,47.653-.021,48.49,0c2.436.062,2.546,2.836,2.353,4.663,2.373-.194,4.962.318,5.443,3.025l0,38.952c-.522,1.927-1.811,2.715-3.746,2.867-.882.069-3.779.334-3.783-.892,0-1.49,3.783-.639,4.834-.96a2.651,2.651,0,0,0,1.12-1.3V18.534H1.651V46.356c0,.343.984,1.521,1.529,1.375l42.106-.01c1.708-.087,1.708,1.873,0,1.787H3.982A3.667,3.667,0,0,1,.031,46.2l0-32.6c.165-1.261,1.621-.936,1.621-.314v3.629H54.715V7.969a6.906,6.906,0,0,0-.406-.884c-.775-1.039-2.339-.54-3.465-.648V9.259a3.75,3.75,0,0,1-.813,1.284,2.6,2.6,0,0,1-3.115.064,4.708,4.708,0,0,1-.91-1.186V6.437H43.586V9.259a3.749,3.749,0,0,1-.813,1.284,2.6,2.6,0,0,1-3.115.064,4.708,4.708,0,0,1-.91-1.186V6.437H17.618V9.421a4.708,4.708,0,0,1-.91,1.186,2.6,2.6,0,0,1-3.115-.064,3.749,3.749,0,0,1-.813-1.284V6.437H10.36V9.421a4.708,4.708,0,0,1-.91,1.186,2.6,2.6,0,0,1-3.115-.064,3.749,3.749,0,0,1-.813-1.284V6.437c-1.635.023-3.57-.46-3.857,1.708-.14,1.053.492,2.608-1.2,2.3-.593-.2-.479-2.074-.412-2.618C.4,5.036,3.142,4.453,5.523,4.663,5.33,2.836,5.44.062,7.876,0c.838-.021,2.484,1,2.484,1.84Zm-3.226-2.5V8.937c0,.6,1.613.6,1.613,0V2.163c0-.434-1.434-.638-1.613,0m7.258,0V8.937c0,.6,1.613.6,1.613,0V2.163c0-.434-1.434-.638-1.613,0m25.968,0V8.937c0,.6,1.613.6,1.613,0V2.163c0-.434-1.434-.638-1.613,0m7.258,0V8.937c0,.6,1.613.6,1.613,0V2.163c0-.434-1.434-.638-1.613,0" transform="translate(0 0)" fill="#fff"/>
          <path id="Trazado_1265921" data-name="Trazado 1265921" d="M152.622,134.138l23.6.035a2.319,2.319,0,0,1,1.285,1.618c-.442,6.281.575,13.339,0,19.527a2,2,0,0,1-2.018,1.853c-7.047.662-15.115-.514-22.27,0a2.06,2.06,0,0,1-2.014-1.7l.08-20.089a1.865,1.865,0,0,1,1.332-1.249m6.818,1.576h-6.371l-.242.242V141.2h6.613Zm8.226,0h-6.613V141.2h6.613Zm8.226,5.484v-5.242l-.242-.242h-6.371V141.2Zm-16.451,1.613h-6.613v5.484h6.613Zm8.226,0h-6.613v5.484h6.613Zm8.226,0h-6.613v5.484h6.613Zm-16.451,7.258h-6.613v5.242l.242.242h6.371Zm8.226,0h-6.613v5.484h6.613Zm8.226,0h-6.613v5.484h6.371l.242-.242Z" transform="translate(-126.822 -112.503)" fill="#fff"/>
          <path id="Trazado_1265922" data-name="Trazado 1265922" d="M41.047,128.747c.3,3.412-.563,6.422-3.564,8.289,3.062,1.779,3.844,4.933,3.561,8.291a2.449,2.449,0,0,1-.088,4.862c-4.36-.323-9.27.4-13.563,0a2.437,2.437,0,0,1-2.319-2.814c.211-1.733,1.9-1.844,2.057-2.3-.3-3.359.561-6.283,3.571-8.039-3.105-1.8-3.876-4.867-3.564-8.289a2.46,2.46,0,0,1-.066-4.86l14.321.041a2.483,2.483,0,0,1-.348,4.819m-14.173-1.83c.178.178.591.185.841.206,4.134.345,8.733-.278,12.918,0,1.166-.15,1.164-1.478,0-1.63L27,125.584c-.428.205-.412,1.043-.122,1.333m12.542,1.813H28.771v3.145c0,1.7,2.544,3.918,4.185,4.2,2.866.5,6.46-1.593,6.46-4.686Zm0,16.451V142.52a6.127,6.127,0,0,0-1.286-2.746,5.3,5.3,0,0,0-8.52.52,8.39,8.39,0,0,0-.838,1.9v2.984Zm1.9,3.187c.289-.29.306-1.128-.122-1.333l-13.638-.089c-1.164.152-1.166,1.48,0,1.63,4.185-.28,8.785.343,12.918,0,.25-.021.663-.028.841-.206" transform="translate(-20.992 -103.905)" fill="#fff"/>
          <path id="Trazado_1265923" data-name="Trazado 1265923" d="M64.464,168.233a3.7,3.7,0,0,1-5.779-.961c-.326-.65-.851-2.055.033-2.445a45.552,45.552,0,0,1,6.448,0c1.091.525-.094,2.812-.7,3.411m-.749-1.878H60.166a1.9,1.9,0,0,0,3.548,0" transform="translate(-48.839 -138.144)" fill="#fff"/>
          <path id="Trazado_1265924" data-name="Trazado 1265924" d="M61.307,217.914A3.75,3.75,0,0,1,65.3,219.97c.435.986.778,2.255-.642,2.423a43.977,43.977,0,0,1-5.775-.037c-1.147-.329-.348-2.34.138-3.02a3.9,3.9,0,0,1,2.286-1.423m2.461,2.864c-.543-1.618-3.121-1.742-3.548,0Z" transform="translate(-48.892 -182.728)" fill="#fff"/>
        </g>
      </g>
    </g>
  </g>
</svg>
