<svg xmlns="http://www.w3.org/2000/svg" xmlns:xlink="http://www.w3.org/1999/xlink" width="169" height="111" viewBox="0 0 169 111">
  <defs>
    <clipPath id="clip-path">
      <rect id="Rectángulo_458540" data-name="Rectángulo 458540" width="99" height="99" fill="none"/>
    </clipPath>
  </defs>
  <g id="Grupo_1207115" data-name="Grupo 1207115" transform="translate(-1121.422 -1019)">
    <rect id="Rectángulo_455283" data-name="Rectángulo 455283" width="169" height="111" rx="19" transform="translate(1121.422 1019)" fill="#e3a4fe"/>
    <g id="Grupo_1207727" data-name="Grupo 1207727" transform="translate(1161.422 1028)">
      <g id="Grupo_1207726" data-name="Grupo 1207726" clip-path="url(#clip-path)">
        <path id="Trazado_1267163" data-name="Trazado 1267163" d="M68,12.019a27.414,27.414,0,0,0-6.387-2.284V4.227a1.6,1.6,0,0,1,1.6-1.6H117.5a1.6,1.6,0,0,1,1.6,1.6V84.065a1.6,1.6,0,0,1-1.6,1.6H64.805A3.218,3.218,0,0,0,68,82.468a3.2,3.2,0,0,0-3.194-3.193A3.218,3.218,0,0,0,68,76.081a3.2,3.2,0,0,0-3.194-3.193H61.612a2.8,2.8,0,0,0-.639.064l-.016-.16A4.693,4.693,0,0,0,63.4,71.483,4.781,4.781,0,0,0,64.805,68.1a1.6,1.6,0,0,0-1.6-1.6H55.225a28.73,28.73,0,0,0,25.74-41.516h30.147a1.6,1.6,0,0,0,1.6-1.6V10.614a1.6,1.6,0,0,0-1.6-1.6L69.6,8.969a1.6,1.6,0,0,0-1.6,1.6v1.453Z" transform="translate(-21.693 -1.033)" fill="#fff9e9"/>
        <path id="Trazado_1267164" data-name="Trazado 1267164" d="M77.86,13.07l41.516.048a1.6,1.6,0,0,1,1.6,1.6V27.489a1.6,1.6,0,0,1-1.6,1.6H89.229A28.637,28.637,0,0,0,76.263,16.12V14.667a1.6,1.6,0,0,1,1.6-1.6" transform="translate(-29.957 -5.134)" fill="#ffe9a1"/>
        <path id="Trazado_1267165" data-name="Trazado 1267165" d="M139.567,104.158v12.774a1.6,1.6,0,0,1-1.6,1.6H125.2a1.6,1.6,0,0,1-1.6-1.6V104.158a1.6,1.6,0,0,1,1.6-1.6H137.97a1.6,1.6,0,0,1,1.6,1.6" transform="translate(-48.551 -40.287)" fill="#ffe9a1"/>
        <path id="Trazado_1267166" data-name="Trazado 1267166" d="M102.75,104.158v12.774a1.6,1.6,0,0,1-1.6,1.6H88.379a1.6,1.6,0,0,1-1.6-1.6V104.158a1.6,1.6,0,0,1,1.6-1.6h12.774a1.6,1.6,0,0,1,1.6,1.6" transform="translate(-34.089 -40.287)" fill="#fbce73"/>
        <path id="Trazado_1267181" data-name="Trazado 1267181" d="M63.681,44.99A23.952,23.952,0,1,0,39.73,68.942,23.979,23.979,0,0,0,63.681,44.99m-44.709,0A20.758,20.758,0,1,1,39.73,65.748,20.782,20.782,0,0,1,18.972,44.99" transform="translate(-6.198 -8.264)" fill="#5d0b80"/>
        <path id="Trazado_1267182" data-name="Trazado 1267182" d="M95.806,0H41.516a3.2,3.2,0,0,0-3.194,3.194V6.8A30.3,30.3,0,0,0,21.131,64.385a18.163,18.163,0,0,0-9.975,6.306,3.153,3.153,0,0,0-1.576-.433H0V92.613H9.581A3.153,3.153,0,0,0,11.57,91.9a17.809,17.809,0,0,0,11.171,3.91h6.295A4.783,4.783,0,0,0,33.532,99h3.194a4.8,4.8,0,0,0,4.79-4.791v-1.6h1.6a4.8,4.8,0,0,0,4.79-4.791,4.727,4.727,0,0,0-.294-1.6h48.2A3.2,3.2,0,0,0,99,83.032V3.194A3.2,3.2,0,0,0,95.806,0M9.581,89.419H3.194V73.451H9.581ZM6.387,36.726A27.145,27.145,0,1,1,33.532,63.871,27.175,27.175,0,0,1,6.387,36.726M47.9,9.531l41.518.05V22.355H60.241A30.539,30.539,0,0,0,47.9,10.017Zm-9.579,71.9a1.6,1.6,0,0,1,1.6-1.6h3.194a1.6,1.6,0,0,1,0,3.194H39.919a1.6,1.6,0,0,1-1.6-1.6m4.791-4.79H39.919a1.6,1.6,0,1,1,0-3.194h3.194a1.6,1.6,0,0,1,0,3.194M12.774,88.715V73.945a14.914,14.914,0,0,1,12.5-6.881H41.516a3.2,3.2,0,0,1-3.194,3.194H32.545l-.441.883a6.98,6.98,0,0,1-4.06,3.522l-1.4.468,1.011,3.027,1.091-.364V85a16.373,16.373,0,0,0-5.882-3.48l-1.011,3.027a13.2,13.2,0,0,1,6.767,5.169l.126.19v2.71h-6A14.64,14.64,0,0,1,12.774,88.715Zm23.952,7.091H33.532a1.6,1.6,0,0,1-1.6-1.6V76.169a10.1,10.1,0,0,0,2.528-2.718h.96a4.644,4.644,0,0,0,.951,4.791,4.717,4.717,0,0,0,0,6.387,4.747,4.747,0,0,0,1.948,7.69v1.89a1.6,1.6,0,0,1-1.6,1.6m7.983-7.984a1.6,1.6,0,0,1-1.6,1.6H39.919a1.6,1.6,0,1,1,0-3.193h3.194a1.6,1.6,0,0,1,1.6,1.6m51.1-4.79h-48.2a4.643,4.643,0,0,0-.951-4.79,4.751,4.751,0,0,0-2.873-7.915,6.332,6.332,0,0,0,.924-3.262,3.16,3.16,0,0,0-.658-1.919,30.222,30.222,0,0,0,17.659-39.6H89.419a3.2,3.2,0,0,0,3.193-3.193V9.581a3.2,3.2,0,0,0-3.191-3.194L47.9,6.338A3.189,3.189,0,0,0,44.863,8.6a30.238,30.238,0,0,0-3.347-1.114v-4.3h54.29Z" fill="#5d0b80"/>
        <path id="Trazado_1267183" data-name="Trazado 1267183" d="M136.937,99.931H124.163a3.2,3.2,0,0,0-3.194,3.194V115.9a3.2,3.2,0,0,0,3.194,3.194h12.774a3.2,3.2,0,0,0,3.194-3.194V103.125a3.2,3.2,0,0,0-3.194-3.194M124.163,115.9V103.125h12.774l0,12.774Z" transform="translate(-47.518 -39.254)" fill="#5d0b80"/>
        <path id="Trazado_1267184" data-name="Trazado 1267184" d="M100.12,99.931H87.346a3.2,3.2,0,0,0-3.194,3.194V115.9a3.2,3.2,0,0,0,3.194,3.194H100.12a3.2,3.2,0,0,0,3.194-3.194V103.125a3.2,3.2,0,0,0-3.194-3.194M87.346,115.9V103.125H100.12l0,12.774Z" transform="translate(-33.056 -39.254)" fill="#5d0b80"/>
        <rect id="Rectángulo_458532" data-name="Rectángulo 458532" width="3.194" height="3.194" transform="translate(76.645 54.291)" fill="#5d0b80"/>
        <rect id="Rectángulo_458533" data-name="Rectángulo 458533" width="3.194" height="3.194" transform="translate(83.032 54.291)" fill="#5d0b80"/>
        <rect id="Rectángulo_458534" data-name="Rectángulo 458534" width="3.194" height="3.194" transform="translate(89.419 54.291)" fill="#5d0b80"/>
        <rect id="Rectángulo_458535" data-name="Rectángulo 458535" width="25.548" height="3.194" transform="translate(67.064 47.903)" fill="#5d0b80"/>
        <rect id="Rectángulo_458536" data-name="Rectángulo 458536" width="25.548" height="3.194" transform="translate(67.064 41.516)" fill="#5d0b80"/>
        <rect id="Rectángulo_458537" data-name="Rectángulo 458537" width="25.548" height="3.194" transform="translate(67.064 35.129)" fill="#5d0b80"/>
        <rect id="Rectángulo_458538" data-name="Rectángulo 458538" width="15.968" height="3.194" transform="translate(76.645 28.742)" fill="#5d0b80"/>
        <rect id="Rectángulo_458539" data-name="Rectángulo 458539" width="6.387" height="3.194" transform="translate(67.064 28.742)" fill="#5d0b80"/>
      </g>
    </g>
  </g>
</svg>
