<svg xmlns="http://www.w3.org/2000/svg" xmlns:xlink="http://www.w3.org/1999/xlink" width="79.17" height="80.124" viewBox="0 0 79.17 80.124">
  <defs>
    <clipPath id="clip-path">
      <rect id="Rectángulo_458371" data-name="Rectángulo 458371" width="76.459" height="68.495" fill="#fff"/>
    </clipPath>
  </defs>
  <g id="Grupo_1099776" data-name="Grupo 1099776" transform="translate(0.289 -0.277)">
    <g id="Grupo_1099618" data-name="Grupo 1099618" transform="translate(-0.289 0.277)">
      <rect id="Rectángulo_401104" data-name="Rectángulo 401104" width="79.17" height="80.124" transform="translate(0)" fill="none"/>
    </g>
    <g id="Grupo_1207540" data-name="Grupo 1207540" transform="translate(1.711 6.277)">
      <g id="Grupo_1207539" data-name="Grupo 1207539" clip-path="url(#clip-path)">
        <path id="Trazado_1266412" data-name="Trazado 1266412" d="M10.026,0H66.435l.781.533,8.976,13.36.213,1.226L67.216,29.158l-.781.533H10.026l-.781-.533c-2.5-4.4-6.27-8.627-8.664-13.017C.167,15.38-.31,14.759.266,13.89,2.687,10.7,4.677,7.212,6.933,3.914A39.042,39.042,0,0,1,9.338.407,1.277,1.277,0,0,1,10.026,0M65.233,2.846,11.339,2.8l-8,12.119,7.528,11.311.655.44H64.944l.65-.445,7.532-11.306Z" transform="translate(0)" fill="#fff"/>
        <path id="Trazado_1266413" data-name="Trazado 1266413" d="M71.607,238.271c.723,1.509,4.909,6.407,4.909,7.7a2.737,2.737,0,0,1-.494,1.271,69.566,69.566,0,0,1-4.653,6.735.921.921,0,0,1-.455.2l-28.451-.009a1.331,1.331,0,0,1-.874-.44c-.587-.553-2.916-4.8-3.3-4.8-1.272,1.123-2.177,3.74-3.3,4.8a1.331,1.331,0,0,1-.874.44l-28.451.009a.921.921,0,0,1-.455-.2,69.546,69.546,0,0,1-4.653-6.735c-.4-.794-.677-1.025-.311-1.976a57.255,57.255,0,0,1,4.124-6.172c.494-.668.786-1.23,1.72-1.344l27.809.022c1.561.247,3.184,4.337,4.392,5.458.506.018,3.066-5.521,4.392-5.458l28.185.046Zm-38.51,2.6-25.9-.042c-.26,0-.387.163-.56.316-1.021.905-2.142,3.722-3.206,4.828a42.285,42.285,0,0,0,3.116,4.915c.2.2.306.446.65.445l25.394,0c1.081-.2,2.9-4.273,3.795-5.18Zm10.381,0-3.286,5.281c.857.892,2.789,4.991,3.795,5.18l25.394,0c.344,0,.452-.244.65-.445a42.285,42.285,0,0,0,3.116-4.915c-1.064-1.105-2.185-3.923-3.206-4.828-.173-.153-.3-.318-.56-.316Z" transform="translate(-0.056 -185.679)" fill="#fff"/>
        <path id="Trazado_1266414" data-name="Trazado 1266414" d="M71.621,165.723l-1.562.52-27.373-.025c-1.324.039-3.838-5.458-4.393-5.458-1.257,1.063-2.855,5.218-4.393,5.458H6.115a2.63,2.63,0,0,1-1.228-.585c-.465-.479-4.281-6.146-4.555-6.771-.463-1.055-.231-1.2.227-2.114a69.584,69.584,0,0,1,4.653-6.735.918.918,0,0,1,.455-.2l28.451.009a1.331,1.331,0,0,1,.874.44c.587.553,2.916,4.8,3.3,4.8,1.272-1.123,2.177-3.74,3.3-4.8a1.331,1.331,0,0,1,.874-.44l28.451-.009a.919.919,0,0,1,.455.2,69.566,69.566,0,0,1,4.653,6.735,2.737,2.737,0,0,1,.494,1.271c0,1.335-4.24,6.1-4.9,7.7M33.1,163.12l3.285-5.281c-.813-.922-2.734-4.98-3.795-5.18l-25.394,0c-.344,0-.452.244-.65.445a41.791,41.791,0,0,0-3.117,4.915c1.065,1.105,2.185,3.922,3.207,4.828.173.153.3.318.56.316Zm10.381,0,25.9.042c.26,0,.387-.163.56-.316,1.021-.905,2.142-3.723,3.207-4.828a40.952,40.952,0,0,0-3.117-4.915c-.2-.2-.305-.446-.65-.445l-25.394,0c-1.053.2-2.956,4.267-3.795,5.18Z" transform="translate(-0.062 -117.003)" fill="#fff"/>
        <path id="Trazado_1266415" data-name="Trazado 1266415" d="M156.724,26.859c3.82-.527,6.425,2.815,5.357,6.45-.45,1.532-2.444,2.555-2.949,3.84-.386.982.257,2.4-1.39,2.571-1.773.179-1.826-1.6-1.609-2.942.346-2.133,3.534-3.834,3.23-5.432a1.892,1.892,0,0,0-2.894-1.238c-.789.5-.613,1.667-.993,2.291-.606,1-2.4.983-2.637-.237a4.685,4.685,0,0,1,3.884-5.3" transform="translate(-119.313 -20.934)" fill="#fff"/>
        <path id="Trazado_1266416" data-name="Trazado 1266416" d="M214.1,33.884l13.517-.033c1.569.1,1.587,2.569.228,2.829H214.062a1.472,1.472,0,0,1,.042-2.8" transform="translate(-166.41 -26.438)" fill="#fff"/>
        <path id="Trazado_1266417" data-name="Trazado 1266417" d="M57.661,33.884l13.517-.033c1.569.1,1.587,2.569.228,2.829H57.618a1.472,1.472,0,0,1,.042-2.8" transform="translate(-44.227 -26.438)" fill="#fff"/>
        <path id="Trazado_1266418" data-name="Trazado 1266418" d="M57.661,57.884l13.517-.033c1.569.1,1.587,2.569.228,2.829H57.618a1.472,1.472,0,0,1,.042-2.8" transform="translate(-44.227 -45.182)" fill="#fff"/>
        <path id="Trazado_1266419" data-name="Trazado 1266419" d="M57.661,87.218l13.517-.033c1.569.1,1.587,2.569.228,2.829H57.618a1.472,1.472,0,0,1,.042-2.8" transform="translate(-44.227 -68.092)" fill="#fff"/>
        <path id="Trazado_1266420" data-name="Trazado 1266420" d="M51.438,180.551l13.517-.033c1.569.1,1.587,2.569.228,2.829H51.4a1.472,1.472,0,0,1,.042-2.8" transform="translate(-39.367 -140.985)" fill="#fff"/>
        <path id="Trazado_1266421" data-name="Trazado 1266421" d="M49.661,268.551l13.517-.033c1.569.1,1.587,2.569.228,2.829H49.618a1.472,1.472,0,0,1,.042-2.8" transform="translate(-37.979 -209.713)" fill="#fff"/>
        <path id="Trazado_1266422" data-name="Trazado 1266422" d="M222.1,180.551l13.517-.033c1.569.1,1.587,2.569.228,2.829H222.062a1.472,1.472,0,0,1,.042-2.8" transform="translate(-172.658 -140.985)" fill="#fff"/>
        <path id="Trazado_1266423" data-name="Trazado 1266423" d="M220.327,268.551l13.517-.033c1.569.1,1.587,2.569.228,2.829H220.284a1.472,1.472,0,0,1,.042-2.8" transform="translate(-171.269 -209.713)" fill="#fff"/>
        <path id="Trazado_1266424" data-name="Trazado 1266424" d="M214.1,57.884l13.517-.033c1.569.1,1.587,2.569.228,2.829H214.062a1.472,1.472,0,0,1,.042-2.8" transform="translate(-166.41 -45.182)" fill="#fff"/>
        <path id="Trazado_1266425" data-name="Trazado 1266425" d="M214.1,87.218l13.517-.033c1.569.1,1.587,2.569.228,2.829H214.062a1.472,1.472,0,0,1,.042-2.8" transform="translate(-166.41 -68.092)" fill="#fff"/>
        <path id="Trazado_1266426" data-name="Trazado 1266426" d="M170.335,97.131A1.543,1.543,0,0,1,168.1,95c1.342-1.556,3.463.826,2.234,2.127" transform="translate(-130.957 -73.801)" fill="#fff"/>
      </g>
    </g>
  </g>
</svg>
