<svg xmlns="http://www.w3.org/2000/svg" xmlns:xlink="http://www.w3.org/1999/xlink" width="70" height="70" viewBox="0 0 70 70">
  <defs>
    <clipPath id="clip-path">
      <rect id="Rectángulo_458482" data-name="Rectángulo 458482" width="41" height="41.058" fill="#5d0b80"/>
    </clipPath>
  </defs>
  <g id="Grupo_1207081" data-name="Grupo 1207081" transform="translate(0.145 0.275)">
    <circle id="Elipse_5614" data-name="Elipse 5614" cx="35" cy="35" r="35" transform="translate(-0.145 -0.275)" fill="#fff"/>
    <g id="Grupo_1207672" data-name="Grupo 1207672" transform="translate(14.855 13.725)">
      <g id="Grupo_1207671" data-name="Grupo 1207671" clip-path="url(#clip-path)">
        <path id="Trazado_1266949" data-name="Trazado 1266949" d="M35.829,40.977V20.009a2.244,2.244,0,0,0-1.171-1.178L6.636,18.773c-.4-.082-1.466.842-1.466,1.119V40.977H1.353A1.827,1.827,0,0,1,0,39.391l.089-25.4.7-.715C6.653,9.393,12.307,5.178,18.172,1.3,19.057.71,20.267-.514,21.3.238c5.9,4.318,12.2,8.12,18.089,12.452a5.831,5.831,0,0,1,1.519,1.3L41,39.391a1.827,1.827,0,0,1-1.351,1.585Z" transform="translate(0 0)" fill="#5d0b80"/>
        <path id="Trazado_1266950" data-name="Trazado 1266950" d="M134.291,188.841v1.7c0,.362.837.883,1.233.883s1.233-.521,1.233-.883v-1.7h3.23c.111,0,.664.445.643.649-.185,2.226.258,4.874.006,7.047-.074.64-.406.83-1,.884-2.65.24-5.658-.193-8.348,0a.894.894,0,0,1-.881-.881c-.249-2.144.2-4.744,0-6.939-.086-.25.51-.758.652-.758Z" transform="translate(-115.024 -166.659)" fill="#5d0b80"/>
        <path id="Trazado_1266951" data-name="Trazado 1266951" d="M80.211,275.486a18.472,18.472,0,0,1,2.975.023c.191.923-.121,2.548,1.344,2.544,1.847-.005.971-2.285,1.343-2.544,1.167.1,3.624-.686,3.772.942.2,2.168-.163,4.624,0,6.824-.06.543-.51.718-1,.763-2.646.244-5.662-.2-8.348,0a.9.9,0,0,1-.884-.76c.2-2.2-.244-4.792,0-6.939a.85.85,0,0,1,.794-.85" transform="translate(-70.019 -243.056)" fill="#5d0b80"/>
        <path id="Trazado_1266952" data-name="Trazado 1266952" d="M182.211,275.486a17.906,17.906,0,0,1,2.975.023c.372.259-.5,2.539,1.343,2.544,1.464,0,1.153-1.621,1.344-2.544,1.167.1,3.624-.686,3.772.942.2,2.168-.163,4.624,0,6.824-.06.543-.51.718-1,.763-2.646.244-5.662-.2-8.348,0a.9.9,0,0,1-.884-.76c.2-2.2-.244-4.792,0-6.939a.85.85,0,0,1,.794-.85" transform="translate(-160.038 -243.056)" fill="#5d0b80"/>
      </g>
    </g>
  </g>
</svg>
