<svg xmlns="http://www.w3.org/2000/svg" xmlns:xlink="http://www.w3.org/1999/xlink" width="96" height="96" viewBox="0 0 96 96">
  <defs>
    <clipPath id="clip-path">
      <rect id="Rectángulo_458334" data-name="Rectángulo 458334" width="45.988" height="60.093" fill="#fff"/>
    </clipPath>
  </defs>
  <g id="Grupo_1205911" data-name="Grupo 1205911" transform="translate(-383.746 -8400.001)">
    <path id="Trazado_997400" data-name="Trazado 997400" d="M48,0A48,48,0,1,1,0,48,48,48,0,0,1,48,0Z" transform="translate(383.746 8400.001)" fill="#5d0b80"/>
    <g id="Grupo_1099776" data-name="Grupo 1099776" transform="translate(401.746 8418)">
      <g id="Grupo_1099618" data-name="Grupo 1099618" transform="translate(-2.035 0)">
        <rect id="Rectángulo_401104" data-name="Rectángulo 401104" width="59.378" height="60.093" transform="translate(0)" fill="none"/>
      </g>
      <g id="Grupo_1207516" data-name="Grupo 1207516" transform="translate(7.965)">
        <g id="Grupo_1207515" data-name="Grupo 1207515" clip-path="url(#clip-path)">
          <path id="Trazado_1266300" data-name="Trazado 1266300" d="M62.405,74.533a1.38,1.38,0,0,1-.52-.247c-4.769-4.648-9.362-9.481-14.121-14.14l-.221-.048A18.36,18.36,0,0,1,44.3,61.33,13.825,13.825,0,1,1,49.316,36.91l-.962,1.306a22.018,22.018,0,0,0-4.238-1.957c-15.345-3.913-21.238,18.486-7.058,23.072C47.766,62.794,56.6,51.724,51.544,41.92l1.56-.792a14.611,14.611,0,0,1,.03,13.492l4.954,5.167c-.306.275-.956,1.277-1.364,1.067l-4.588-4.56-2.8,2.8L63.262,73.074a2.015,2.015,0,0,0,3.138-2.45L58.285,62.37l1.255-1.255,2.865,2.743V54.043h1.722V65.665c1.435,1.727,4.312,3.378,4.319,5.854a3.929,3.929,0,0,1-4.319,3.874V88.308H35.372V86.586H62.405Z" transform="translate(-22.458 -28.215)" fill="#fff"/>
          <path id="Trazado_1266301" data-name="Trazado 1266301" d="M56.933,54.71c15.548-1.948,15.689,21.764.647,20.443-12.119-1.064-12.032-19.017-.647-20.443M64.479,58.7c-8.784-8.04-20.362,5.723-11.03,13,8.367,6.529,18.824-5.872,11.03-13" transform="translate(-40.1 -45.195)" fill="#fff"/>
          <path id="Trazado_1266302" data-name="Trazado 1266302" d="M128.589,24.106h-1.722V9.987H118.6V1.722H105V0h14.894l8.7,8.7Zm-3.1-15.841L120.5,3.1V8.265Z" transform="translate(-86.921)" fill="#fff"/>
          <path id="Trazado_1266303" data-name="Trazado 1266303" d="M16.358,0V1.722H1.722V26.517H0V0Z" fill="#fff"/>
          <path id="Trazado_1266304" data-name="Trazado 1266304" d="M1.722,165v29.96h9.47v1.722H0V165Z" transform="translate(0 -136.589)" fill="#fff"/>
          <rect id="Rectángulo_458323" data-name="Rectángulo 458323" width="10" height="2" transform="translate(13 51)" fill="#fff"/>
          <rect id="Rectángulo_458324" data-name="Rectángulo 458324" width="7" height="2" transform="translate(7 39)" fill="#fff"/>
          <rect id="Rectángulo_458325" data-name="Rectángulo 458325" width="7" height="2" transform="translate(20 39)" fill="#fff"/>
          <rect id="Rectángulo_458326" data-name="Rectángulo 458326" width="6" height="2" transform="translate(22 44)" fill="#fff"/>
          <rect id="Rectángulo_458327" data-name="Rectángulo 458327" width="7" height="2" transform="translate(7 47)" fill="#fff"/>
          <rect id="Rectángulo_458328" data-name="Rectángulo 458328" width="6" height="2" transform="translate(20 47)" fill="#fff"/>
          <rect id="Rectángulo_458329" data-name="Rectángulo 458329" width="6" height="2" transform="translate(7 44)" fill="#fff"/>
          <rect id="Rectángulo_458330" data-name="Rectángulo 458330" width="5" height="2" transform="translate(15 44)" fill="#fff"/>
          <path id="Trazado_1266305" data-name="Trazado 1266305" d="M42.835,296v1.894h-3.96c.078-.615-.232-1.44.258-1.894Z" transform="translate(-32.159 -245.033)" fill="#fff"/>
          <rect id="Rectángulo_458331" data-name="Rectángulo 458331" width="3" height="2" transform="translate(32 47)" fill="#fff"/>
          <path id="Trazado_1266306" data-name="Trazado 1266306" d="M159.6,59.591l-1.279.849-1.075-1.263,1.226-1.1c.267.173,1.337,1.217,1.129,1.518" transform="translate(-130.169 -48.074)" fill="#fff"/>
          <path id="Trazado_1266307" data-name="Trazado 1266307" d="M91.891,274.995v1.724c-.425-.064-1.593.164-1.82-.162l-.076-1.562Z" transform="translate(-74.499 -227.645)" fill="#fff"/>
          <rect id="Rectángulo_458332" data-name="Rectángulo 458332" width="1.724" height="1.724" transform="translate(15.84 39.774)" fill="#fff"/>
          <rect id="Rectángulo_458333" data-name="Rectángulo 458333" width="1.724" height="1.724" transform="translate(27.893 47.35)" fill="#fff"/>
          <path id="Trazado_1266308" data-name="Trazado 1266308" d="M85.731,98.548a42.65,42.65,0,0,1-3.844,3.832l-3.212-2.022-3.492,3.4-1.077-.969.144-.49,4.4-4.375,2.929,2.2L84.7,97.073l1.187,1.017c.09.19-.068.32-.157.458" transform="translate(-61.346 -80.358)" fill="#fff"/>
        </g>
      </g>
    </g>
  </g>
</svg>
