<svg xmlns="http://www.w3.org/2000/svg" xmlns:xlink="http://www.w3.org/1999/xlink" width="79.17" height="80.124" viewBox="0 0 79.17 80.124">
  <defs>
    <clipPath id="clip-path">
      <rect id="Rectángulo_458370" data-name="Rectángulo 458370" width="79.17" height="70.21" fill="#fff"/>
    </clipPath>
  </defs>
  <g id="Grupo_1099776" data-name="Grupo 1099776" transform="translate(0.289 -0.277)">
    <g id="Grupo_1099618" data-name="Grupo 1099618" transform="translate(-0.289 0.277)">
      <rect id="Rectángulo_401104" data-name="Rectángulo 401104" width="79.17" height="80.124" transform="translate(0)" fill="none"/>
    </g>
    <g id="Grupo_1207538" data-name="Grupo 1207538" transform="translate(-0.289 5.277)">
      <g id="Grupo_1207537" data-name="Grupo 1207537" clip-path="url(#clip-path)">
        <path id="Trazado_1266402" data-name="Trazado 1266402" d="M104.774,39.749a8.373,8.373,0,0,1-6.309-5.729c-.067-8.336-.974-17.888-.321-26.179.383-4.863,3.932-7.288,8.544-7.586,12.521-.81,25.915.627,38.527.015,4.176.192,7.706,3.043,8.077,7.331.685,7.915-.537,16.795,0,24.814a8.022,8.022,0,0,1-6.9,7.308l-15.71.059a10.711,10.711,0,0,1-6.956,7.368c-1.617.577-7.416,1.738-7.537-.773-.07-1.458,1.419-1.251,2.407-1.95a5.455,5.455,0,0,0,1.942-4.678Zm16.973,5.294a8.626,8.626,0,0,0,6.063-4.888c.374-.94.31-2.6,1.386-2.948l16.96-.133a5.205,5.205,0,0,0,4.49-4.658c.7-7.89-.545-16.808-.009-24.807a5.6,5.6,0,0,0-5.409-4.7c-12.449-1.071-26.41.827-39.019,0-3.023.26-5.151,2.081-5.417,5.176-.66,7.691.519,16.3,0,24.093a5.232,5.232,0,0,0,4.49,4.9l16.7.151c2.076,2.185,1.139,5.5-.236,7.818" transform="translate(-74.338 0)" fill="#fff"/>
        <path id="Trazado_1266403" data-name="Trazado 1266403" d="M32.964,132.92a5.718,5.718,0,0,0,1.695,4.444c1.039.841,2.943.582,2.641,2.405-.264,1.588-4.377,1.256-5.593,1.029a11.051,11.051,0,0,1-8.886-7.846l-15.869-.141a7.957,7.957,0,0,1-6.737-7.226c-.681-7.919.534-16.792,0-24.814A7.99,7.99,0,0,1,6.148,93.7c2.652-.623,11.716-.55,14.67-.279,1.821.167,2.511,1.53.846,2.553-4.495.556-9.654-.392-14.071.133a5.32,5.32,0,0,0-4.731,4.9c-.691,7.741.544,16.486,0,24.335a5.328,5.328,0,0,0,4.948,4.923l16.558.054c1,.287,1.059,2.354,1.5,3.318.921,2.033,3.625,4.225,5.9,4.332-1.539-2.119-2.063-5.184-.561-7.479,5.3-.8,11.284.3,16.568-.226a5.35,5.35,0,0,0,4.911-4.718c.262-2.2-.365-5.386.079-7.384a1.327,1.327,0,0,1,2.232-.651,1.821,1.821,0,0,1,.368,1.076c.363,3.066.285,8.655-1.585,11.182-.862,1.165-3.874,3.146-5.28,3.146Z" transform="translate(0 -70.781)" fill="#fff"/>
        <path id="Trazado_1266404" data-name="Trazado 1266404" d="M13.777,26.426c1-.472,1.037-1.754,2.291-1.7a1.384,1.384,0,0,1,1.281,1.526,41.906,41.906,0,0,1-3.313,4.4,1.23,1.23,0,0,1-1.289.3,34.5,34.5,0,0,1-4.762-4.4c-.347-.605-.452-1.607.151-2.041,1.429-1.028,2.827,1.389,2.989,1.185A13.366,13.366,0,0,1,25.9,12.974c1.889.208,3.844,1.113,1.661,2.813-2.894-.3-5.357-.482-8.02.879a10.874,10.874,0,0,0-5.766,9.76" transform="translate(-5.848 -9.789)" fill="#fff"/>
        <path id="Trazado_1266405" data-name="Trazado 1266405" d="M253.063,180.966v3.491c0,3.3-4.113,8.165-6.907,9.7-1.634.9-7.322,2.574-8.517.907-1.7-2.377,2.732-1.989,3.718-2.095,5.77-.622,9.748-6.366,9.057-12.006-.826-.083-.814,1.1-1.3,1.461a1.49,1.49,0,0,1-2.294-.849c.781-1.556,2.337-6.205,4.552-5.3a51.123,51.123,0,0,1,4.938,3.966c1.108,2.44-2.159,2.29-3.244.718" transform="translate(-180.135 -133.754)" fill="#fff"/>
        <path id="Trazado_1266406" data-name="Trazado 1266406" d="M72.156,176.108c.521-.522,4.362-.669,4.824.5.845,2.138-3.01,2.152-4.229,1.8a1.5,1.5,0,0,1-.595-2.3" transform="translate(-54.543 -133.413)" fill="#fff"/>
        <path id="Trazado_1266407" data-name="Trazado 1266407" d="M137.868,175.831c.853-.256,3.854-.268,4.283.681,1.184,2.617-5.161,2.628-5.154.6a1.641,1.641,0,0,1,.871-1.277" transform="translate(-104.015 -133.387)" fill="#fff"/>
        <path id="Trazado_1266408" data-name="Trazado 1266408" d="M40.032,175.7c1.188-.357,4.876-.406,4.311,1.642-.392,1.42-4.209,1.259-4.833.473a1.363,1.363,0,0,1,.522-2.115" transform="translate(-29.773 -133.257)" fill="#fff"/>
        <path id="Trazado_1266409" data-name="Trazado 1266409" d="M109.431,175.984a1.5,1.5,0,0,1-.595,2.3c-.74.213-3.837.242-4.122-.59-.964-2.816,4.205-2.222,4.717-1.709" transform="translate(-79.414 -133.289)" fill="#fff"/>
        <path id="Trazado_1266410" data-name="Trazado 1266410" d="M193.121,46.66c-.822.833-2.084,1.37-2.93,2.246-.954.99-1.743,3.578-2.877,3.631-2.891.136-.279-3.948.589-4.956,1.47-1.706,3.909-2.5,4.565-4.824,1.457-5.155-5.082-8.365-8.128-4.276-1.291,1.733-.725,2.832-1.36,4.658-3.788,1.4-2.189-4.271-.954-6.009,6.055-8.523,18.584,1.938,11.095,9.53" transform="translate(-137.131 -25.774)" fill="#fff"/>
        <path id="Trazado_1266411" data-name="Trazado 1266411" d="M204.433,117.191c1.076,1.076-.557,3.261-1.863,1.984-1.331-1.3.706-3.141,1.863-1.984" transform="translate(-153.471 -88.699)" fill="#fff"/>
      </g>
    </g>
  </g>
</svg>
