<svg xmlns="http://www.w3.org/2000/svg" xmlns:xlink="http://www.w3.org/1999/xlink" width="96" height="96" viewBox="0 0 96 96">
  <defs>
    <clipPath id="clip-path">
      <rect id="Rectángulo_458268" data-name="Rectángulo 458268" width="57" height="56.706" fill="#fff"/>
    </clipPath>
  </defs>
  <g id="Grupo_1207196" data-name="Grupo 1207196" transform="translate(-383.746 -8400.001)">
    <path id="Trazado_997400" data-name="Trazado 997400" d="M48,0A48,48,0,1,1,0,48,48,48,0,0,1,48,0Z" transform="translate(383.746 8400.001)" fill="#5d0b80"/>
    <g id="Grupo_1099776" data-name="Grupo 1099776" transform="translate(401.746 8418)">
      <g id="Grupo_1099618" data-name="Grupo 1099618" transform="translate(-0.035 0.24)">
        <rect id="Rectángulo_401104" data-name="Rectángulo 401104" width="59.378" height="60.093" transform="translate(0)" fill="none"/>
      </g>
      <g id="Grupo_1207437" data-name="Grupo 1207437" transform="translate(0.965 1.24)">
        <g id="Grupo_1207436" data-name="Grupo 1207436" clip-path="url(#clip-path)">
          <path id="Trazado_1266108" data-name="Trazado 1266108" d="M45.936,9.135h7.118c2.017,0,4.055,2.823,3.942,4.767V51.764c-.23,3.08-1.863,4.71-4.941,4.941l-46.74,0C2.169,56.5.447,54.951.209,51.764-.448,42.974.7,33.356.236,24.48a5.988,5.988,0,0,1,3.642-5.067c.161-1.746-.222-3.636.208-5.319l7.156-5.907c.291-1.33-.358-7.1.182-7.857A1.429,1.429,0,0,1,11.931,0l33.46.051a1.915,1.915,0,0,1,.545.459ZM44.094,1.767H13.111V6.623l1.383-1.046,21.313-.13c.365-.081,1.086.446,1.086.757v4.773h4.522V12.82H36.892v1.842h4.522V16.5H36.892v1.842h4.522v1.675H36.892v1.842h4.522v1.842H36.892v1.842h7.2ZM35.05,7.293H15.791v7.62a.976.976,0,0,1-.586.586H5.742v3.684H28.268a4.437,4.437,0,0,1,1.578.767c1.336,1.109,1.212,2.806,1.775,4.254.685,1.763,1.836,1.308,3.43,1.343Zm-21.1,6.364V8.466L7.584,13.657ZM45.936,25.715A4.5,4.5,0,0,1,49.6,29.669c.517,7.234-.626,15.294.011,22.43.329,3.687,5.205,3.588,5.54-.167V13.9c.161-1.086-1.195-2.925-2.267-2.925h-6.95Zm2.68,29.141a7.37,7.37,0,0,1-.836-2.43c-.7-7.029.638-15.213.005-22.279a2.761,2.761,0,0,0-2.6-2.757c-3.8-.428-8.373.353-12.233.007a3.33,3.33,0,0,1-2.624-1.563c-.928-1.571-.579-4.619-2.721-4.816-7.062-.65-15.116.5-22.283.007a3.914,3.914,0,0,0-3.271,3.763l.006,27.3c-.05,1.072,1.413,2.763,2.429,2.763Z" transform="translate(0)" fill="#fff"/>
          <path id="Trazado_1266109" data-name="Trazado 1266109" d="M33.7,179.665c.3-.028.518.218.732.382.894.685,5.238,5.533,5.63,5.6,1.31-.653,5.395-5.838,6.378-5.991.354-.055.542.125.8.31a50.729,50.729,0,0,1,3.812,3.9.785.785,0,0,1,.1.5c-.143.9-5.227,5.1-5.991,6.257l5.982,6.367c.028.3-.217.518-.382.732-.305.4-3.532,3.649-3.773,3.76a1.088,1.088,0,0,1-1.1-.072l-5.708-5.69c-.523-.092-5.33,5.7-6.182,5.851a1.038,1.038,0,0,1-.839-.161l-3.839-3.863.072-1.1,5.69-5.708c.1-.544-5.746-5.28-5.85-6.357a.787.787,0,0,1,.16-.663Zm0,2.322-2.281,2.249c0,.4,4.929,4.708,5.611,5.607.212.279.461.526.42.918-.065.622-5.269,5.2-5.96,6.12-.112.126-.066.2,0,.332a15.818,15.818,0,0,0,2.332,2.166l5.876-5.859.5-.161.772.419,5.607,5.611,2.249-2.4-5.69-5.708a1.039,1.039,0,0,1-.161-.839c.134-.778,5.061-4.938,5.789-5.955.112-.126.066-.2,0-.332a15.81,15.81,0,0,0-2.332-2.166l-5.708,5.69a1.039,1.039,0,0,1-.839.161c-.851-.147-5.658-5.943-6.182-5.851" transform="translate(-24.328 -149.56)" fill="#fff"/>
          <rect id="Rectángulo_458266" data-name="Rectángulo 458266" width="14.57" height="1.842" transform="translate(17.633 15.499)" fill="#fff"/>
          <rect id="Rectángulo_458267" data-name="Rectángulo 458267" width="10.886" height="1.842" transform="translate(21.317 11.815)" fill="#fff"/>
        </g>
      </g>
    </g>
  </g>
</svg>
