<svg id="Grupo_1207092" data-name="Grupo 1207092" xmlns="http://www.w3.org/2000/svg" xmlns:xlink="http://www.w3.org/1999/xlink" width="395.52" height="361.284" viewBox="0 0 395.52 361.284">
  <defs>
    <clipPath id="clip-path">
      <rect id="Rectángulo_458504" data-name="Rectángulo 458504" width="332.759" height="361.284" fill="none"/>
    </clipPath>
    <clipPath id="clip-path-3">
      <rect id="Rectángulo_458487" data-name="Rectángulo 458487" width="147.325" height="108.952" fill="none"/>
    </clipPath>
    <clipPath id="clip-path-4">
      <rect id="Rectángulo_458488" data-name="Rectángulo 458488" width="151.789" height="108.952" fill="none"/>
    </clipPath>
    <clipPath id="clip-path-5">
      <rect id="Rectángulo_458489" data-name="Rectángulo 458489" width="136.859" height="73.019" fill="none"/>
    </clipPath>
    <clipPath id="clip-path-6">
      <rect id="Rectángulo_458490" data-name="Rectángulo 458490" width="141.323" height="73.019" fill="none"/>
    </clipPath>
    <clipPath id="clip-path-7">
      <rect id="Rectángulo_458491" data-name="Rectángulo 458491" width="153.598" height="130.489" fill="none"/>
    </clipPath>
    <clipPath id="clip-path-8">
      <rect id="Rectángulo_458492" data-name="Rectángulo 458492" width="158.062" height="130.489" fill="none"/>
    </clipPath>
    <clipPath id="clip-path-11">
      <rect id="Rectángulo_458500" data-name="Rectángulo 458500" width="99.233" height="73.629" fill="none"/>
    </clipPath>
    <clipPath id="clip-path-12">
      <path id="Trazado_1267064" data-name="Trazado 1267064" d="M381.227,457.586a14.4,14.4,0,0,0-13.63,14.7l1.3,60.123h20.324l-2.541-55.489h2.878l7.718,55.489H417.6l-9.057-55.489h12.633l-.936-21.394c-.266,0-23.418,1.233-39.016,2.065" transform="translate(-367.593 -455.521)" fill="none"/>
    </clipPath>
  </defs>
  <g id="Grupo_1206741" data-name="Grupo 1206741" transform="translate(0 0)">
    <g id="Grupo_1204235" data-name="Grupo 1204235">
      <rect id="Rectángulo_402012" data-name="Rectángulo 402012" width="395.52" height="361.284" fill="#fbf1ff"/>
    </g>
    <g id="Grupo_1207709" data-name="Grupo 1207709" transform="translate(11)">
      <g id="Grupo_1207708" data-name="Grupo 1207708" clip-path="url(#clip-path)">
        <g id="Grupo_1207696" data-name="Grupo 1207696">
          <g id="Grupo_1207695" data-name="Grupo 1207695" clip-path="url(#clip-path)">
            <g id="Grupo_1207679" data-name="Grupo 1207679" transform="translate(144.4 75.328)" style="mix-blend-mode: soft-light;isolation: isolate">
              <g id="Grupo_1207678" data-name="Grupo 1207678">
                <g id="Grupo_1207677" data-name="Grupo 1207677" clip-path="url(#clip-path-3)">
                  <path id="Trazado_1266968" data-name="Trazado 1266968" d="M391.493,236.326,359.759,127.373H244.168L275.9,236.326Z" transform="translate(-244.168 -127.373)" fill="#a3c4e8"/>
                </g>
              </g>
            </g>
            <g id="Grupo_1207682" data-name="Grupo 1207682" transform="translate(21.941 75.328)" style="mix-blend-mode: soft-light;isolation: isolate">
              <g id="Grupo_1207681" data-name="Grupo 1207681">
                <g id="Grupo_1207680" data-name="Grupo 1207680" clip-path="url(#clip-path-4)">
                  <path id="Trazado_1266969" data-name="Trazado 1266969" d="M157.155,127.373H37.1L68.834,236.326H188.889Z" transform="translate(-37.1 -127.373)" fill="#a3c4e8"/>
                </g>
              </g>
            </g>
            <g id="Grupo_1207685" data-name="Grupo 1207685" transform="translate(122.46)" style="mix-blend-mode: soft-light;isolation: isolate">
              <g id="Grupo_1207684" data-name="Grupo 1207684">
                <g id="Grupo_1207683" data-name="Grupo 1207683" clip-path="url(#clip-path-5)">
                  <path id="Trazado_1266970" data-name="Trazado 1266970" d="M228.337,73.019H343.928L322.659,0H207.068Z" transform="translate(-207.069 0)" fill="#a3c4e8"/>
                </g>
              </g>
            </g>
            <g id="Grupo_1207688" data-name="Grupo 1207688" style="mix-blend-mode: soft-light;isolation: isolate">
              <g id="Grupo_1207687" data-name="Grupo 1207687">
                <g id="Grupo_1207686" data-name="Grupo 1207686" clip-path="url(#clip-path-6)">
                  <path id="Trazado_1266971" data-name="Trazado 1266971" d="M141.323,73.019,120.056,0H0L21.268,73.019Z" transform="translate(0 0)" fill="#a3c4e8"/>
                </g>
              </g>
            </g>
            <g id="Grupo_1207691" data-name="Grupo 1207691" transform="translate(176.807 186.589)" style="mix-blend-mode: soft-light;isolation: isolate">
              <g id="Grupo_1207690" data-name="Grupo 1207690">
                <g id="Grupo_1207689" data-name="Grupo 1207689" clip-path="url(#clip-path-7)">
                  <path id="Trazado_1266972" data-name="Trazado 1266972" d="M298.966,315.506l38.007,130.489h115.59L414.557,315.506Z" transform="translate(-298.966 -315.506)" fill="#a3c4e8"/>
                </g>
              </g>
            </g>
            <g id="Grupo_1207694" data-name="Grupo 1207694" transform="translate(54.348 186.589)" style="mix-blend-mode: soft-light;isolation: isolate">
              <g id="Grupo_1207693" data-name="Grupo 1207693">
                <g id="Grupo_1207692" data-name="Grupo 1207692" clip-path="url(#clip-path-8)">
                  <path id="Trazado_1266973" data-name="Trazado 1266973" d="M211.952,315.506H91.9L129.9,445.995H249.959Z" transform="translate(-91.897 -315.506)" fill="#a3c4e8"/>
                </g>
              </g>
            </g>
          </g>
        </g>
        <rect id="Rectángulo_458494" data-name="Rectángulo 458494" width="160.946" height="117.206" transform="translate(171.813 16.171)" fill="#a3c4e8"/>
        <rect id="Rectángulo_458495" data-name="Rectángulo 458495" width="160.946" height="11.619" transform="translate(171.813 16.171)" fill="#769fc4"/>
        <rect id="Rectángulo_458496" data-name="Rectángulo 458496" width="29.391" height="19.753" transform="translate(182.323 67.612)" fill="none" stroke="#f0f7ff" stroke-miterlimit="10" stroke-width="1"/>
        <rect id="Rectángulo_458497" data-name="Rectángulo 458497" width="29.391" height="23.927" transform="translate(182.323 91.76)" fill="none" stroke="#f0f7ff" stroke-miterlimit="10" stroke-width="1"/>
        <rect id="Rectángulo_458498" data-name="Rectángulo 458498" width="104.692" height="48.295" transform="translate(217.132 67.612)" fill="none" stroke="#f0f7ff" stroke-miterlimit="10" stroke-width="1"/>
        <g id="Grupo_1207698" data-name="Grupo 1207698">
          <g id="Grupo_1207697" data-name="Grupo 1207697" clip-path="url(#clip-path)">
            <path id="Trazado_1266974" data-name="Trazado 1266974" d="M330.675,75.676a11.192,11.192,0,1,0-11.192,11.192,11.192,11.192,0,0,0,11.192-11.192" transform="translate(-125.969 -26.348)" fill="#fff"/>
            <path id="Trazado_1266975" data-name="Trazado 1266975" d="M469.936,75.608H369.058a1.906,1.906,0,0,1-1.907-1.907V72.553a1.907,1.907,0,0,1,1.907-1.907H469.936a1.907,1.907,0,0,1,1.907,1.907V73.7a1.907,1.907,0,0,1-1.907,1.907" transform="translate(-150.019 -28.866)" fill="#f0f7ff"/>
            <path id="Trazado_1266976" data-name="Trazado 1266976" d="M438.577,92.741H369.633a2.481,2.481,0,1,1,0-4.962h68.944a2.481,2.481,0,0,1,0,4.962" transform="translate(-150.019 -35.867)" fill="#f0f7ff"/>
            <path id="Trazado_1266977" data-name="Trazado 1266977" d="M135.75,52.374A25.03,25.03,0,1,0,110.72,77.4a25.03,25.03,0,0,0,25.03-25.03" transform="translate(-35.013 -11.173)" fill="#f0f7ff"/>
            <path id="Trazado_1266978" data-name="Trazado 1266978" d="M134.074,56.121a19.605,19.605,0,1,0-19.605,19.605,19.606,19.606,0,0,0,19.605-19.605" transform="translate(-38.761 -14.921)" fill="#cddff7"/>
            <path id="Trazado_1266979" data-name="Trazado 1266979" d="M128.014,48.153V60.876h11.628" transform="translate(-52.307 -19.675)" fill="none" stroke="#f0f7ff" stroke-linecap="round" stroke-miterlimit="10" stroke-width="1"/>
          </g>
        </g>
        <path id="Trazado_1266980" data-name="Trazado 1266980" d="M295.883,335.014H319.45l6.446,18.707H295.883Z" transform="translate(-120.899 -136.888)"/>
        <path id="Trazado_1266981" data-name="Trazado 1266981" d="M287.064,337.76,300.615,483.8H277.733l-9.073-116.4L250.323,483.8H226l28.5-147.038Z" transform="translate(-92.345 -137.604)" fill="#6e94f4"/>
        <path id="Trazado_1266982" data-name="Trazado 1266982" d="M267.478,357.918l9.992-.927,1.318-18.544h-1.6l-2.214,16.677H268.02Z" transform="translate(-109.293 -138.291)"/>
        <path id="Trazado_1266983" data-name="Trazado 1266983" d="M298.133,383.032l3.3-8.026-.689,41.507Z" transform="translate(-121.818 -153.229)"/>
        <g id="Grupo_1207703" data-name="Grupo 1207703">
          <g id="Grupo_1207702" data-name="Grupo 1207702" clip-path="url(#clip-path)">
            <path id="Trazado_1266984" data-name="Trazado 1266984" d="M303.712,359.675c4-2.4,4.285-8.369,3.841-22.189" transform="translate(-124.098 -137.898)" fill="none" stroke="#000" stroke-miterlimit="10" stroke-width="1"/>
            <line id="Línea_3732" data-name="Línea 3732" x1="0.575" y2="22.746" transform="translate(179.614 199.032)" fill="none" stroke="#000" stroke-miterlimit="10" stroke-width="1"/>
            <line id="Línea_3733" data-name="Línea 3733" x2="28.094" transform="translate(167.511 203.05)" fill="none" stroke="#000" stroke-miterlimit="10" stroke-width="1"/>
            <path id="Trazado_1266985" data-name="Trazado 1266985" d="M340.758,585.394l.381,3.391,15.722,7.569,1.358,4.076H324.246l.333-15.036Z" transform="translate(-132.488 -239.194)"/>
            <path id="Trazado_1266986" data-name="Trazado 1266986" d="M238.793,585.394l-2.717,15.036H202.5s3.3-3.105,3.882-3.493,16.11-8.152,16.11-8.152l2.135-3.391Z" transform="translate(-82.741 -239.194)"/>
            <path id="Trazado_1266987" data-name="Trazado 1266987" d="M285.208,255.239l-12.852,2.809-4.878,46.4h40.928l-1.071-45.925-10.18-3.284Z" transform="translate(-109.293 -104.292)"/>
            <path id="Trazado_1266988" data-name="Trazado 1266988" d="M297.458,253.835s5.276,7.511,10.957,6.8c4.685-.588.989-6.8.989-6.8l-7.319-2.032Z" transform="translate(-121.542 -102.888)" fill="#9a3608"/>
            <path id="Trazado_1266989" data-name="Trazado 1266989" d="M375.714,273.651s-.3,2.714-1.057,6.716c-.238,1.264-.528,2.656-.863,4.126-.213.941-.451,1.914-.709,2.914-1.463,5.7-3.661,12.15-6.82,17.165a24.075,24.075,0,0,1-4.171,5.1l-.012.013a12.4,12.4,0,0,1-8.432,3.481c-17.681,0-26.39-34.086-26.8-34.086l4.744-18.287.606.174a16.083,16.083,0,0,1,10.146,8.753l10.011,21.9,9.74-17.849,2.759-5.047Z" transform="translate(-133.551 -106.56)" fill="#9a3608"/>
            <path id="Trazado_1266990" data-name="Trazado 1266990" d="M391.111,266.9l2.151-4.231a8.451,8.451,0,0,1,4.567-4.09c3.191-1.2,7.722-2.764,7.876-2.1.238,1.031-3.733,4.013-3.733,4.013s13.395-2.937,13.276-1.528-5.129,2.646-5.129,2.646,5.727-1.107,5.13.915c-.391,1.324-12.592,6.611-12.592,6.611l-.684,2.687Z" transform="translate(-159.809 -104.734)" fill="#9a3608"/>
            <path id="Trazado_1266991" data-name="Trazado 1266991" d="M399.009,289.337c-.238,1.263-.529,2.656-.864,4.126-.212.941-.451,1.914-.708,2.913l-10.991-13.633Z" transform="translate(-157.903 -115.53)"/>
            <path id="Trazado_1266992" data-name="Trazado 1266992" d="M375.714,286.252a100.387,100.387,0,0,1-9.45,18.319,36.192,36.192,0,0,1-4.171,5.1l-.012.013a12.4,12.4,0,0,1-8.432,3.48c-4.66,0-8.7-2.372-12.125-5.859-6.968-7.091-11.409-18.816-13.427-24.669-.754-2.191-1.166-3.558-1.25-3.558l4.744-18.287c.206.058.406.116.606.174a16.084,16.084,0,0,1,10.146,8.754l10.011,21.9,9.74-17.848,11.7,10.719Z" transform="translate(-133.551 -106.56)" fill="#6e94f4"/>
            <path id="Trazado_1266993" data-name="Trazado 1266993" d="M369.977,306.353l1.955,2.451,3.235-11.961Z" transform="translate(-151.174 -121.291)"/>
            <path id="Trazado_1266994" data-name="Trazado 1266994" d="M342.389,318.7c-6.968-7.09-11.409-18.816-13.427-24.668l6.562-5.35s5.466,25.165,6.865,30.019" transform="translate(-134.415 -117.957)"/>
            <path id="Trazado_1266995" data-name="Trazado 1266995" d="M404.146,307.43a1.635,1.635,0,1,1-1.635-1.635,1.635,1.635,0,0,1,1.635,1.635" transform="translate(-163.799 -124.949)"/>
            <line id="Línea_3734" data-name="Línea 3734" x2="13.684" y2="11.066" transform="translate(223.393 177.768)" fill="none" stroke="#000" stroke-miterlimit="10" stroke-width="1"/>
            <path id="Trazado_1266996" data-name="Trazado 1266996" d="M224.167,398.892c-2.228,6.81-5.145,14.393-9.617,14.782s-26.056.173-26.056.173c7.953-5.667,18.861-9.117,18.861-9.117l2.794-5.838Z" transform="translate(-77.02 -162.989)" fill="#9a3608"/>
            <path id="Trazado_1266997" data-name="Trazado 1266997" d="M252.071,259.988l-.181.046a16.05,16.05,0,0,0-11.3,10.628l-22.758,71.473h18.323l18.534-64.42Z" transform="translate(-89.007 -106.232)" fill="#6e94f4"/>
            <path id="Trazado_1266998" data-name="Trazado 1266998" d="M245.5,391.351a1.635,1.635,0,1,1-1.635-1.635,1.635,1.635,0,0,1,1.635,1.635" transform="translate(-98.978 -159.239)"/>
            <line id="Línea_3735" data-name="Línea 3735" x2="17.249" y2="0.122" transform="translate(132.673 223.818)" fill="none" stroke="#000" stroke-miterlimit="10" stroke-width="1"/>
            <path id="Trazado_1266999" data-name="Trazado 1266999" d="M321.847,256.59l2.958,20.772,3.382,44.315h8.319l-3.891-46.109-3.063-16.493Z" transform="translate(-131.508 -104.844)" fill="#6e94f4"/>
            <path id="Trazado_1267000" data-name="Trazado 1267000" d="M321.847,256.59l7.329,11.448L325.511,288.9" transform="translate(-131.508 -104.844)" fill="none" stroke="#000" stroke-miterlimit="10" stroke-width="1"/>
            <line id="Línea_3736" data-name="Línea 3736" x2="5.486" transform="translate(197.062 205.483)" fill="none" stroke="#000" stroke-miterlimit="10" stroke-width="1"/>
            <path id="Trazado_1267001" data-name="Trazado 1267001" d="M277.965,255.806l-8.7,65.55H253.506l10.674-45.539,2.468-17.538Z" transform="translate(-103.584 -104.523)" fill="#6e94f4"/>
            <path id="Trazado_1267002" data-name="Trazado 1267002" d="M271.138,289.964l-9.057,45.35h-3.99Z" transform="translate(-105.457 -118.48)"/>
            <path id="Trazado_1267003" data-name="Trazado 1267003" d="M288.852,255.806l-8.7,11.912,4.833,17.223" transform="translate(-114.471 -104.523)" fill="none" stroke="#000" stroke-miterlimit="10" stroke-width="1"/>
            <line id="Línea_3737" data-name="Línea 3737" x1="6.79" transform="translate(158.891 205.483)" fill="none" stroke="#000" stroke-miterlimit="10" stroke-width="1"/>
            <path id="Trazado_1267004" data-name="Trazado 1267004" d="M300.073,234.9c-.121.182-2.615,12.031-2.615,12.031H309.4V236.891Z" transform="translate(-121.542 -95.979)" fill="#9a3608"/>
            <path id="Trazado_1267005" data-name="Trazado 1267005" d="M314.132,246.736a11.837,11.837,0,0,1-5.1-4.317l5.1.491Z" transform="translate(-126.269 -99.053)"/>
            <path id="Trazado_1267006" data-name="Trazado 1267006" d="M330.569,210.565s4.074,1.319,3.891,4.863-4.3,5.589-8.1,4.4l.659-8.854Z" transform="translate(-133.354 -86.038)"/>
            <path id="Trazado_1267007" data-name="Trazado 1267007" d="M312.657,207.308c4.312.173,5.951,6.468,5.606,10.177,0,0,3.622,12.246-5,12.246s-12.85-5.088-12.85-5.088-3.046-9.4,1.466-14.92c2.846-3.482,6.468-2.587,10.78-2.415" transform="translate(-122.338 -84.613)" fill="#9a3608"/>
            <path id="Trazado_1267008" data-name="Trazado 1267008" d="M325.788,223.293a2.528,2.528,0,0,1,.962,2.188,2.5,2.5,0,0,1-1.295,1.928c-.334.183-.036.694.3.51a3.107,3.107,0,0,0,1.581-2.371,3.071,3.071,0,0,0-1.128-2.674c-.295-.235-.716.18-.418.418" transform="translate(-132.922 -91.039)"/>
            <path id="Trazado_1267009" data-name="Trazado 1267009" d="M320.156,233.708a1.891,1.891,0,0,0,1.467,1.151,2.653,2.653,0,0,0,1.857-.257c.334-.183.036-.694-.3-.51a2.013,2.013,0,0,1-1.359.206c-.4-.082-.978-.309-1.1-.748a.3.3,0,0,0-.57.157" transform="translate(-130.812 -95.344)"/>
            <path id="Trazado_1267010" data-name="Trazado 1267010" d="M319.7,221.663a3.432,3.432,0,0,1,.14.386,3.558,3.558,0,0,1,.1.428c.013.077.013.08.021.163s.012.151.015.227a3.55,3.55,0,0,1-.014.455.3.3,0,0,0,.3.3.3.3,0,0,0,.3-.3,3.917,3.917,0,0,0-.342-1.959.3.3,0,0,0-.4-.106.3.3,0,0,0-.106.4" transform="translate(-130.618 -90.391)"/>
            <path id="Trazado_1267011" data-name="Trazado 1267011" d="M328.242,220.708a4.958,4.958,0,0,1,.3,1.882.3.3,0,0,0,.3.3.3.3,0,0,0,.3-.3,5.5,5.5,0,0,0-.322-2.039.3.3,0,0,0-.364-.206.3.3,0,0,0-.206.364" transform="translate(-134.115 -90.029)"/>
            <path id="Trazado_1267012" data-name="Trazado 1267012" d="M317.132,219.155c.043-.067.088-.134.135-.2l.043-.058c-.025.033-.012.017.005-.006s.051-.062.077-.092a3.625,3.625,0,0,1,.345-.35c.03-.027.06-.053.091-.078l.046-.038c.022-.018.038-.03.006-.005.063-.048.128-.095.2-.139a3.617,3.617,0,0,1,.438-.248.3.3,0,0,0,.106-.4.3.3,0,0,0-.4-.106,3.932,3.932,0,0,0-1.594,1.423.3.3,0,0,0,.106.4.3.3,0,0,0,.4-.106" transform="translate(-129.356 -88.829)"/>
            <path id="Trazado_1267013" data-name="Trazado 1267013" d="M327.091,217.6a2.083,2.083,0,0,1,.258,0c.043,0,.086.006.128.01s-.034-.007.021,0l.056.009a2.147,2.147,0,0,1,.25.063c.046.015.09.031.135.048.017.007.038.015.009,0l.065.03a2.159,2.159,0,0,1,.227.124c.036.023.072.047.107.072l.046.034c-.032-.025.007.006.018.016a2.131,2.131,0,0,1,.187.177c.03.031.057.064.085.1.011.013.025.033.007.008l.05.07a.3.3,0,0,0,.4.106.3.3,0,0,0,.106-.4,2.447,2.447,0,0,0-2.161-1.054.3.3,0,1,0,0,.591" transform="translate(-133.529 -88.667)"/>
            <path id="Trazado_1267014" data-name="Trazado 1267014" d="M294.062,211.99s.8,2,1.711,1.42,1.072-6.1,1.072-6.1a6.927,6.927,0,0,0,5.11-.989c2.473-1.649,2.1-3.462,2.1-3.462s7.621,5.687,11.989-1.319-3.709-10.632-8.407-7.582c0,0-2.434-7.521-10.88-3.05a6.458,6.458,0,0,0-2.925,7.928s-4.493-2.079-6.718,1.055a5.152,5.152,0,0,0,0,6.018,5.847,5.847,0,0,0-2.72,5.308c.33,3.511,4.369,4.335,6.347,3.923Z" transform="translate(-116.196 -77.426)"/>
            <path id="Trazado_1267015" data-name="Trazado 1267015" d="M297.142,226.939l1.33,5.381s-7.084,1.245-6.53-3.144c.665-5.259,5.2-2.237,5.2-2.237" transform="translate(-119.276 -92.375)" fill="#9a3608"/>
            <path id="Trazado_1267016" data-name="Trazado 1267016" d="M295.768,228.064a8.865,8.865,0,0,1,3.024,2.208.3.3,0,0,0,.4.106.3.3,0,0,0,.106-.4,9.447,9.447,0,0,0-3.236-2.419c-.335-.18-.635.33-.3.51" transform="translate(-120.792 -92.964)"/>
            <path id="Trazado_1267017" data-name="Trazado 1267017" d="M298.678,230.135a2.259,2.259,0,0,0,.774,2.835.3.3,0,0,0,.4-.106.3.3,0,0,0-.106-.4,1.69,1.69,0,0,1-.562-2.026.3.3,0,0,0-.106-.4.3.3,0,0,0-.4.106" transform="translate(-121.953 -93.975)"/>
            <path id="Trazado_1267018" data-name="Trazado 1267018" d="M253.743,437.178h36.206v1.532H250.316a4.6,4.6,0,0,1,3.427-1.532" transform="translate(-102.28 -178.632)"/>
            <path id="Trazado_1267019" data-name="Trazado 1267019" d="M308.044,415.753h54.64l9.51-30.987a2.916,2.916,0,0,0-2.788-3.772H320.867a2.916,2.916,0,0,0-2.788,2.06Z" transform="translate(-125.868 -155.675)"/>
            <path id="Trazado_1267020" data-name="Trazado 1267020" d="M309.505,415.753h54.64l9.51-30.987a2.917,2.917,0,0,0-2.788-3.772H322.328a2.916,2.916,0,0,0-2.788,2.06Z" transform="translate(-126.465 -155.675)" fill="#fff"/>
            <path id="Trazado_1267021" data-name="Trazado 1267021" d="M358.7,412.342a2.321,2.321,0,0,0,2.214,1.316,4.85,4.85,0,0,0,4.235-3.146,2.758,2.758,0,0,0,.13-1.425,2.274,2.274,0,0,0-2.433-1.727,4.577,4.577,0,0,0-4.242,3.152,2.7,2.7,0,0,0,.1,1.83" transform="translate(-146.48 -166.449)" fill="#ff98b6"/>
            <path id="Trazado_1267022" data-name="Trazado 1267022" d="M103.178,382.144,95.8,359.169l45.5-52.861h48.594" transform="translate(-39.143 -125.158)" fill="none" stroke="#fff" stroke-miterlimit="10" stroke-width="1"/>
            <path id="Trazado_1267023" data-name="Trazado 1267023" d="M109.566,434.541H81.375a4.766,4.766,0,0,0-4.441,3.036h37.073a4.766,4.766,0,0,0-4.441-3.036" transform="translate(-31.435 -177.555)" fill="#fff"/>
            <path id="Trazado_1267024" data-name="Trazado 1267024" d="M189.687,306.308l-2.422,5.3h41.79l-1.793-5.3Z" transform="translate(-76.517 -125.159)" fill="#fff"/>
            <g id="Grupo_1207701" data-name="Grupo 1207701" transform="translate(79.371 186.448)" style="mix-blend-mode: soft-light;isolation: isolate">
              <g id="Grupo_1207700" data-name="Grupo 1207700">
                <g id="Grupo_1207699" data-name="Grupo 1207699" clip-path="url(#clip-path-11)">
                  <path id="Trazado_1267025" data-name="Trazado 1267025" d="M165.586,315.268,134.208,388.9h99.233l-26.066-73.63Z" transform="translate(-134.209 -315.268)" fill="#a3c4e8"/>
                </g>
              </g>
            </g>
            <rect id="Rectángulo_458501" data-name="Rectángulo 458501" width="285.667" height="11.345" transform="translate(38.725 260.022)" fill="#a3c4e8"/>
            <path id="Trazado_1267026" data-name="Trazado 1267026" d="M351.148,548.727V458.858H65.481v89.869" transform="translate(-26.756 -187.491)" fill="none" stroke="#000" stroke-miterlimit="10" stroke-width="1"/>
            <path id="Trazado_1267027" data-name="Trazado 1267027" d="M444.719,439.675l-6.233,11.345h56.67l-.644-11.29Z" transform="translate(-179.167 -179.653)" fill="#231f20"/>
            <path id="Trazado_1267028" data-name="Trazado 1267028" d="M90.22,439.731V451.02H146.35l-6.244-11.345Z" transform="translate(-36.864 -179.653)" fill="#231f20"/>
            <path id="Trazado_1267029" data-name="Trazado 1267029" d="M487.269,336.072l-1.515,11.437s-2.552.375-12.98,1.55c-9.5,1.082-8.711-17.458-8.494-21.309l.144-.072,10.189-4.846c.014-.007.021-.007.036-.014,16.693-5.372,12.619,13.254,12.619,13.254" transform="translate(-189.661 -131.507)" fill="#efa47b"/>
            <path id="Trazado_1267030" data-name="Trazado 1267030" d="M463.559,342.412s-2.338,5.025-1.8,5.924,2.878,1.439,2.878,1.439Z" transform="translate(-188.644 -139.911)" fill="#efa47b"/>
            <path id="Trazado_1267031" data-name="Trazado 1267031" d="M476.354,363.63l3.973,9.406H496.1l-5.366-8.454Z" transform="translate(-194.64 -148.58)" fill="#efa47b"/>
            <path id="Trazado_1267032" data-name="Trazado 1267032" d="M478.168,367.4l6.564-.753-5.514,3.24Z" transform="translate(-195.381 -149.815)"/>
            <path id="Trazado_1267033" data-name="Trazado 1267033" d="M465.971,340.572a2.125,2.125,0,0,0,.453,1.747" transform="translate(-190.382 -139.159)" fill="none" stroke="#231f20" stroke-linecap="round" stroke-miterlimit="10" stroke-width="1"/>
            <path id="Trazado_1267034" data-name="Trazado 1267034" d="M467.813,354.967a1.059,1.059,0,0,0,1.062-1.02" transform="translate(-191.15 -144.624)" fill="none" stroke="#231f20" stroke-linecap="round" stroke-miterlimit="10" stroke-width="1"/>
            <path id="Trazado_1267035" data-name="Trazado 1267035" d="M464.854,337.367a4.762,4.762,0,0,1,2.335.881" transform="translate(-189.941 -137.849)" fill="none" stroke="#231f20" stroke-linecap="round" stroke-miterlimit="10" stroke-width="1"/>
            <path id="Trazado_1267036" data-name="Trazado 1267036" d="M484.895,332.506l-1.515,11.437h-3.793a4.508,4.508,0,0,1-3.88-2.207l-2.6-4.348-1.666-5.444s-1.832,3.93-2.862,0-1.241-4.586-1.241-4.586-2.718-1.543-5.292-3.245a10.253,10.253,0,0,1-3.516-4.6c-1.14-4.445,3.2-11.711,13.7-.245.014-.007.021-.007.036-.014,16.693-5.372,12.619,13.254,12.619,13.254" transform="translate(-187.286 -127.942)" fill="#231f20"/>
            <path id="Trazado_1267037" data-name="Trazado 1267037" d="M477.065,320.855a2.334,2.334,0,0,0,.308-2.2,7.744,7.744,0,0,0-5.964-5.571" transform="translate(-192.619 -127.927)" fill="none" stroke="#231f20" stroke-linecap="round" stroke-miterlimit="10" stroke-width="1"/>
            <path id="Trazado_1267038" data-name="Trazado 1267038" d="M481.165,323.12a1.894,1.894,0,0,1,.649-1.154,8,8,0,0,1,7.336-2.122" transform="translate(-196.606 -130.611)" fill="none" stroke="#231f20" stroke-linecap="round" stroke-miterlimit="10" stroke-width="1"/>
            <path id="Trazado_1267039" data-name="Trazado 1267039" d="M480.491,342.761l1.668,5.443a4.783,4.783,0,0,0,5.179-4.156c.773-4.748-3.248-4.886-4.916-4.1a3.884,3.884,0,0,0-1.931,2.809" transform="translate(-196.33 -138.757)" fill="#efa47b"/>
            <path id="Trazado_1267040" data-name="Trazado 1267040" d="M485.4,342.412a4.008,4.008,0,0,0-2.322,3.835" transform="translate(-197.385 -139.911)" fill="none" stroke="#231f20" stroke-linecap="round" stroke-miterlimit="10" stroke-width="1"/>
            <path id="Trazado_1267041" data-name="Trazado 1267041" d="M382.258,585.522c.612,4.187,2.7,14.96,2.7,14.96H352.25l1.091-3.14,17.354-9.086-.182-2.733Z" transform="translate(-143.931 -239.246)" fill="#efa47b"/>
            <path id="Trazado_1267042" data-name="Trazado 1267042" d="M394.876,585.522l-11.616,1.939-.129-1.939Z" transform="translate(-156.549 -239.246)"/>
            <path id="Trazado_1267043" data-name="Trazado 1267043" d="M370.695,590.145l8.614,2.864,3.392-2.864,2.26,12.227H352.25l1.09-3.14Z" transform="translate(-143.931 -241.135)" fill="#6e94f4"/>
            <line id="Línea_3738" data-name="Línea 3738" x2="30.74" transform="translate(209.41 358.095)" fill="none" stroke="#000" stroke-miterlimit="10" stroke-width="1"/>
            <path id="Trazado_1267044" data-name="Trazado 1267044" d="M431.422,585.522c.612,4.187,2.7,14.96,2.7,14.96h-32.71l1.091-3.14,17.355-9.086-.182-2.733Z" transform="translate(-164.019 -239.246)" fill="#efa47b"/>
            <path id="Trazado_1267045" data-name="Trazado 1267045" d="M432.3,585.522H444.04s-11.607,2.068-11.616,1.939-.129-1.939-.129-1.939" transform="translate(-176.637 -239.246)"/>
            <path id="Trazado_1267046" data-name="Trazado 1267046" d="M419.859,590.145l8.107,3.257,3.9-3.257,2.26,12.227h-32.71l1.09-3.14Z" transform="translate(-164.019 -241.135)" fill="#6e94f4"/>
            <line id="Línea_3739" data-name="Línea 3739" x2="30.249" transform="translate(238.485 358.095)" fill="none" stroke="#000" stroke-miterlimit="10" stroke-width="1"/>
            <path id="Trazado_1267047" data-name="Trazado 1267047" d="M433.325,551.1H413l-6.929-49.816h19.122Z" transform="translate(-165.923 -204.828)"/>
            <path id="Trazado_1267048" data-name="Trazado 1267048" d="M420.243,455.522c-.266,0-23.418,1.232-39.016,2.064a14.4,14.4,0,0,0-13.63,14.7l1.3,60.123h20.323l-2.54-55.489h34.5Z" transform="translate(-150.2 -186.128)"/>
            <path id="Trazado_1267049" data-name="Trazado 1267049" d="M422.337,374.2H406.57a1.159,1.159,0,0,1-1.033-.635l-8.647-17.077a1.157,1.157,0,0,1,1.033-1.68H413.69a1.157,1.157,0,0,1,1.032.635l8.647,17.077a1.157,1.157,0,0,1-1.033,1.68" transform="translate(-162.119 -144.977)" fill="#231f20"/>
            <path id="Trazado_1267050" data-name="Trazado 1267050" d="M423.681,374.2H407.914a1.145,1.145,0,0,1-1.029-.633l-1.656-3.27-7-13.809a1.158,1.158,0,0,1,1.035-1.68h15.767a1.166,1.166,0,0,1,1.035.639l7.523,14.85,1.124,2.224a1.158,1.158,0,0,1-1.035,1.68" transform="translate(-162.668 -144.976)" fill="#fff"/>
            <path id="Trazado_1267051" data-name="Trazado 1267051" d="M428.6,384.9H412.835a1.145,1.145,0,0,1-1.029-.633L410.15,381h18.363l1.124,2.224a1.158,1.158,0,0,1-1.035,1.68" transform="translate(-167.589 -155.677)" fill="#231f20"/>
            <path id="Trazado_1267052" data-name="Trazado 1267052" d="M450.305,373.558l-9.161,17.961-7.428,11.035-4.087,6.068a9.713,9.713,0,0,1-16.376-.958L398.28,380.69h10.85l12.486,14.643,1.313-2.442,4.388-8.173a19.057,19.057,0,0,1,1.6-2.5l.012-.018.7-.881v-.006a19.652,19.652,0,0,1,12.739-6.831Z" transform="translate(-162.739 -152.637)" fill="#efa47b"/>
            <path id="Trazado_1267053" data-name="Trazado 1267053" d="M408.678,377.824s-1.375-8.433-2.572-8.3-1.639,6.421-1.639,6.421l-4.747-9.4s-4.1,6.356-1.892,11.281Z" transform="translate(-162.287 -149.771)" fill="#efa47b"/>
            <path id="Trazado_1267054" data-name="Trazado 1267054" d="M434.773,406.9s-2.048,3.575-2.048,3.2-2.246-8.238-2.246-8.238Z" transform="translate(-175.895 -164.202)"/>
            <path id="Trazado_1267055" data-name="Trazado 1267055" d="M466.318,373.558l-9.161,17.961-7.428,11.035-10.787-9.663-1.473-1.319,7.457-9.35.012-.018.7-.881v-.006a19.652,19.652,0,0,1,12.739-6.831Z" transform="translate(-178.752 -152.637)" fill="#fff"/>
            <path id="Trazado_1267056" data-name="Trazado 1267056" d="M483.566,373.561l3.474.6a12.928,12.928,0,0,1,10.695,11.763l-3.846,38.917-45.862-.8,7.621-31.688,14.982-18.788Z" transform="translate(-183.065 -152.638)" fill="#fff"/>
            <path id="Trazado_1267057" data-name="Trazado 1267057" d="M521.637,398.073l.935,15.713s-2.15.374-2.15,0Z" transform="translate(-212.646 -162.654)"/>
            <path id="Trazado_1267058" data-name="Trazado 1267058" d="M451.466,404.015h45.752l-10.265,52.4a6.346,6.346,0,0,1-5.185,5.038l-.024.089H434.972Z" transform="translate(-177.731 -165.082)" fill="#769fc4"/>
            <path id="Trazado_1267059" data-name="Trazado 1267059" d="M435.9,404.015l-10.265,52.4a6.347,6.347,0,0,1-6.229,5.127h-22.53a6.728,6.728,0,0,1,6.728-6.728h12.265a6.347,6.347,0,0,0,6.187-4.933l9.73-42.585a4.219,4.219,0,0,1,4.113-3.28" transform="translate(-162.165 -165.082)" fill="#a3c4e8"/>
            <path id="Trazado_1267060" data-name="Trazado 1267060" d="M487.23,566.064l-8.642-61.631a3.652,3.652,0,0,0-3.617-3.145h-34.94a3.652,3.652,0,0,0-3.6,3.053l-10.258,61.722" transform="translate(-174.135 -204.828)" fill="none" stroke="#000" stroke-miterlimit="10" stroke-width="1"/>
            <line id="Línea_3740" data-name="Línea 3740" x1="51.561" transform="translate(257.241 330.618)" fill="none" stroke="#000" stroke-miterlimit="10" stroke-width="1"/>
            <path id="Trazado_1267061" data-name="Trazado 1267061" d="M444.408,566.064l-8.642-61.631a3.652,3.652,0,0,0-3.617-3.145H397.21a3.652,3.652,0,0,0-3.6,3.053l-10.258,61.722" transform="translate(-156.638 -204.828)" fill="none" stroke="#000" stroke-miterlimit="10" stroke-width="1"/>
            <line id="Línea_3741" data-name="Línea 3741" x1="51.561" transform="translate(231.916 330.618)" fill="none" stroke="#000" stroke-miterlimit="10" stroke-width="1"/>
          </g>
        </g>
        <g id="Grupo_1207705" data-name="Grupo 1207705" transform="translate(217.393 269.394)">
          <g id="Grupo_1207704" data-name="Grupo 1207704" clip-path="url(#clip-path-12)">
            <path id="Trazado_1267062" data-name="Trazado 1267062" d="M487.23,566.064l-8.642-61.631a3.652,3.652,0,0,0-3.617-3.145h-34.94a3.652,3.652,0,0,0-3.6,3.053l-10.258,61.722" transform="translate(-391.528 -474.222)" fill="none" stroke="#fff" stroke-miterlimit="10" stroke-width="1"/>
            <line id="Línea_3742" data-name="Línea 3742" x1="51.561" transform="translate(39.848 61.225)" fill="none" stroke="#fff" stroke-miterlimit="10" stroke-width="1"/>
            <path id="Trazado_1267063" data-name="Trazado 1267063" d="M444.408,566.064l-8.642-61.631a3.652,3.652,0,0,0-3.617-3.145H397.21a3.652,3.652,0,0,0-3.6,3.053l-10.258,61.722" transform="translate(-374.031 -474.222)" fill="none" stroke="#fff" stroke-miterlimit="10" stroke-width="1"/>
            <line id="Línea_3743" data-name="Línea 3743" x1="51.561" transform="translate(14.523 61.225)" fill="none" stroke="#fff" stroke-miterlimit="10" stroke-width="1"/>
          </g>
        </g>
        <g id="Grupo_1207707" data-name="Grupo 1207707">
          <g id="Grupo_1207706" data-name="Grupo 1207706" clip-path="url(#clip-path)">
            <path id="Trazado_1267065" data-name="Trazado 1267065" d="M248.316,426.323H237.043L235.86,406.86H249.5Z" transform="translate(-96.373 -166.244)" fill="#fff"/>
            <path id="Trazado_1267066" data-name="Trazado 1267066" d="M249.1,405.964H235.414l-.591,2.363h14.867Z" transform="translate(-95.949 -165.878)"/>
            <path id="Trazado_1267067" data-name="Trazado 1267067" d="M236.583,417.784l12.869-1.4-.652,10.74-11.738-1.451Z" transform="translate(-96.669 -170.135)"/>
            <path id="Trazado_1267068" data-name="Trazado 1267068" d="M159.812,325.258c1.8.288,1.656,2.952,1.3,7.631s.72,15.551-5.9,14.975a95.49,95.49,0,0,1-10.367-1.368l2.952-23.038Z" transform="translate(-59.181 -132.166)" fill="#e07269"/>
            <path id="Trazado_1267069" data-name="Trazado 1267069" d="M172.1,344.884s1.625.359,1.409,1.223-1.489,1.153-1.489,1.153Z" transform="translate(-70.289 -140.921)" fill="#e07269"/>
            <path id="Trazado_1267070" data-name="Trazado 1267070" d="M149.464,358.32l-.955,5.873H136.72l5.434-10.152Z" transform="translate(-55.864 -144.662)" fill="#e07269"/>
            <path id="Trazado_1267071" data-name="Trazado 1267071" d="M168.757,351.946a1.146,1.146,0,0,0,1.093.187" transform="translate(-68.955 -143.806)" fill="none" stroke="#231f20" stroke-linecap="round" stroke-miterlimit="10" stroke-width="1"/>
            <path id="Trazado_1267072" data-name="Trazado 1267072" d="M170.542,340.992a3.573,3.573,0,0,1-.066,1.922" transform="translate(-69.657 -139.331)" fill="none" stroke="#231f20" stroke-linecap="round" stroke-miterlimit="10" stroke-width="1"/>
            <path id="Trazado_1267073" data-name="Trazado 1267073" d="M120.91,368.9c-5.507.736-12.859,4.094-16.852,19.8s-3.631,22.117,5.99,22.117Z" transform="translate(-41.539 -150.733)" fill="#fff"/>
            <path id="Trazado_1267074" data-name="Trazado 1267074" d="M115.769,395.692l-1.911,4.975h1.474Z" transform="translate(-46.523 -161.681)"/>
            <path id="Trazado_1267075" data-name="Trazado 1267075" d="M134.006,368.389c-6.131,0-16.187-2.1-17.9,16.117s-1.4,27.246-1.4,27.246h23.751s6.965-16.347,7.487-28.958-11.937-14.4-11.937-14.4" transform="translate(-46.86 -150.495)" fill="#fff"/>
            <path id="Trazado_1267076" data-name="Trazado 1267076" d="M150.227,397.727s-.513,12.6,5.376,19.066l2.3-7.407Z" transform="translate(-61.379 -162.513)"/>
            <path id="Trazado_1267077" data-name="Trazado 1267077" d="M221.2,424.287s9.51,1.62,12.73,3.306a64.647,64.647,0,0,1,8.237,5.85H219.362Z" transform="translate(-89.632 -173.365)" fill="#e07269"/>
            <path id="Trazado_1267078" data-name="Trazado 1267078" d="M221.2,424.287v9.156h-1.84Z" transform="translate(-89.632 -173.365)"/>
            <path id="Trazado_1267079" data-name="Trazado 1267079" d="M147.357,368.44h4.862c2.545,0,8.482,1.311,15.16,13.224s14.293,18.415,24.658,18.541l-2.1,10.364s-20.034,1.14-27.8-6.888a92.452,92.452,0,0,1-13.085-17.92Z" transform="translate(-60.211 -150.546)" fill="#fff"/>
            <line id="Línea_3744" data-name="Línea 3744" x2="6.545" y2="9.707" transform="translate(112.311 238.933)" fill="none" stroke="#000" stroke-miterlimit="10" stroke-width="1"/>
            <path id="Trazado_1267080" data-name="Trazado 1267080" d="M176.46,574.933l-.812,10.544-12.787-1.207,1.633-11.868Z" transform="translate(-66.546 -233.885)" fill="#e07269"/>
            <path id="Trazado_1267081" data-name="Trazado 1267081" d="M177.092,577.141l-12.607,1.95.314-2.282Z" transform="translate(-67.209 -235.686)"/>
            <path id="Trazado_1267082" data-name="Trazado 1267082" d="M160.089,584.693l-1.269.582s-3.553,6.247-3.553,12.606h38.119L191.4,593.84,172.98,582.307l5.8-2.768-6.194-.382-3.747,4.512-4.206,3.747Z" transform="translate(-63.443 -236.646)" fill="#fff"/>
            <line id="Línea_3745" data-name="Línea 3745" x1="36.804" transform="translate(91.874 358.665)" fill="none" stroke="#000" stroke-miterlimit="10" stroke-width="1"/>
            <path id="Trazado_1267083" data-name="Trazado 1267083" d="M193.139,495.243l-15.792,48.65L159.2,543.4l12.12-48.161Z" transform="translate(-65.051 -202.358)" fill="#ff98b6"/>
            <line id="Línea_3746" data-name="Línea 3746" y1="39.484" x2="10.391" transform="translate(105.193 299.406)" fill="none" stroke="#fff" stroke-miterlimit="10" stroke-width="1"/>
            <path id="Trazado_1267084" data-name="Trazado 1267084" d="M200,501.288l-22.6,4.176,1.051-4.176Z" transform="translate(-72.486 -204.828)"/>
            <path id="Trazado_1267085" data-name="Trazado 1267085" d="M285.931,573.033a84.1,84.1,0,0,1,3.471,8.551l-11.773,5.135-4.317-11.175Z" transform="translate(-111.677 -234.143)" fill="#e07269"/>
            <path id="Trazado_1267086" data-name="Trazado 1267086" d="M286.964,573.033l-10.383,8.3-.74-1.917Z" transform="translate(-112.709 -234.143)"/>
            <path id="Trazado_1267087" data-name="Trazado 1267087" d="M275.14,584.693l-1.269.582a40.718,40.718,0,0,0-2.371,12.606h36.936l-1.988-4.042-18.417-11.532,5.8-2.768-6.194-.382-3.747,4.512-4.206,3.747Z" transform="translate(-110.936 -236.646)" fill="#fff"/>
            <line id="Línea_3747" data-name="Línea 3747" x2="35.261" transform="translate(160.666 358.868)" fill="none" stroke="#000" stroke-miterlimit="10" stroke-width="1"/>
            <path id="Trazado_1267088" data-name="Trazado 1267088" d="M110.689,441.762s-5.635,18.969-4.132,24.164,6.915,4.311,6.915,4.311l59.1.474,26.406,59.075L217.1,519.4s-22.006-52.045-25.017-58.9-9.715-8.536-21.844-9.645c-8.932-.817-32.649-2.648-32.649-2.648l-3.147-6.44Z" transform="translate(-43.435 -180.505)" fill="#ff98b6"/>
            <line id="Línea_3748" data-name="Línea 3748" x2="7.054" transform="translate(127.123 290.205)" fill="none" stroke="#000" stroke-miterlimit="10" stroke-width="1"/>
            <path id="Trazado_1267089" data-name="Trazado 1267089" d="M182.128,473.437l23.677.92a12.019,12.019,0,0,1,10.5,7.093l22.82,50.887" transform="translate(-74.418 -193.448)" fill="none" stroke="#fff" stroke-miterlimit="10" stroke-width="1"/>
            <path id="Trazado_1267090" data-name="Trazado 1267090" d="M138.354,334.594a7.031,7.031,0,0,0,6.344-4.968c1.489-4.134-1.52-4.392-1.52-4.392s-9.935-1.512-12.023-1.8-7.2,1.082-11.231,13.86-9.935,4.066-12.671,15.8c-.749,3.214-4.679,4.535-2.448,9.575h24.982l7.2-23.614Z" transform="translate(-42.547 -132.143)" fill="#231f20"/>
            <path id="Trazado_1267091" data-name="Trazado 1267091" d="M109.434,360.521a23.346,23.346,0,0,1-.268-5.069,7.864,7.864,0,0,1,.683-3.118c.959-1.907,3.072-2.935,5.121-3.533a10.5,10.5,0,0,0,3.742-1.51,8.032,8.032,0,0,0,1.59-1.9,73.67,73.67,0,0,0,4.886-8.518l12.911,8.936c-1.165,2.581-1.053,5.547-.689,8.356a28.4,28.4,0,0,1,.4,4.367,7.011,7.011,0,0,1-1.282,4.122,7.383,7.383,0,0,1-1.314,1.274c-1.76,1.38-4.079,2.34-6.224,1.709" transform="translate(-44.591 -137.647)" fill="none" stroke="#231f20" stroke-miterlimit="10" stroke-width="1"/>
            <path id="Trazado_1267092" data-name="Trazado 1267092" d="M158.113,340.524l-1.368,4.464s-4.535.526-4.247-3.409,2.664-4.007,4.032-3.359a3.186,3.186,0,0,1,1.584,2.3" transform="translate(-62.306 -138.073)" fill="#e07269"/>
            <path id="Trazado_1267093" data-name="Trazado 1267093" d="M156.654,340.242a3.288,3.288,0,0,1,1.9,3.146" transform="translate(-64.009 -139.024)" fill="none" stroke="#231f20" stroke-linecap="round" stroke-miterlimit="10" stroke-width="1"/>
            <path id="Trazado_1267094" data-name="Trazado 1267094" d="M128.967,404.015H83.215l10.265,52.4a6.346,6.346,0,0,0,5.186,5.038l.024.089h46.771Z" transform="translate(-34.002 -165.082)" fill="#769fc4"/>
            <path id="Trazado_1267095" data-name="Trazado 1267095" d="M160.578,404.015l10.265,52.4a6.347,6.347,0,0,0,6.229,5.127H199.6a6.728,6.728,0,0,0-6.728-6.728H180.609a6.346,6.346,0,0,1-6.187-4.933l-9.73-42.585a4.219,4.219,0,0,0-4.113-3.28" transform="translate(-65.613 -165.082)" fill="#a3c4e8"/>
            <path id="Trazado_1267096" data-name="Trazado 1267096" d="M94.023,566.064l8.642-61.631a3.652,3.652,0,0,1,3.617-3.145h34.94a3.653,3.653,0,0,1,3.6,3.053l10.258,61.722" transform="translate(-38.418 -204.828)" fill="none" stroke="#000" stroke-miterlimit="10" stroke-width="1"/>
            <line id="Línea_3749" data-name="Línea 3749" x2="51.561" transform="translate(59.898 330.618)" fill="none" stroke="#000" stroke-miterlimit="10" stroke-width="1"/>
            <path id="Trazado_1267097" data-name="Trazado 1267097" d="M136.845,566.064l8.642-61.631a3.652,3.652,0,0,1,3.617-3.145h34.94a3.652,3.652,0,0,1,3.6,3.053L197.9,566.064" transform="translate(-55.915 -204.828)" fill="none" stroke="#000" stroke-miterlimit="10" stroke-width="1"/>
            <line id="Línea_3750" data-name="Línea 3750" x2="51.561" transform="translate(85.223 330.618)" fill="none" stroke="#000" stroke-miterlimit="10" stroke-width="1"/>
          </g>
        </g>
      </g>
    </g>
  </g>
</svg>
