<svg xmlns="http://www.w3.org/2000/svg" xmlns:xlink="http://www.w3.org/1999/xlink" width="96" height="96" viewBox="0 0 96 96">
  <defs>
    <clipPath id="clip-path">
      <rect id="Rectángulo_458265" data-name="Rectángulo 458265" width="56.088" height="46.243" fill="#fff"/>
    </clipPath>
  </defs>
  <g id="Grupo_1207195" data-name="Grupo 1207195" transform="translate(-383.746 -8400.001)">
    <path id="Trazado_997400" data-name="Trazado 997400" d="M48,0A48,48,0,1,1,0,48,48,48,0,0,1,48,0Z" transform="translate(383.746 8400.001)" fill="#5d0b80"/>
    <g id="Grupo_1099776" data-name="Grupo 1099776" transform="translate(401.746 8418)">
      <g id="Grupo_1099618" data-name="Grupo 1099618" transform="translate(-0.035 0.239)">
        <rect id="Rectángulo_401104" data-name="Rectángulo 401104" width="59.378" height="60.093" transform="translate(0)" fill="none"/>
      </g>
      <g id="Grupo_1207435" data-name="Grupo 1207435" transform="translate(1.965 7.24)">
        <g id="Grupo_1207434" data-name="Grupo 1207434" clip-path="url(#clip-path)">
          <path id="Trazado_1266106" data-name="Trazado 1266106" d="M8.2,4.885l32.063.007c2.259-1.349,4.051-2.147,6.659-1.049.535.225,1.363.976,1.693,1.039.749.143,1.908-.06,2.735,0,2.511.173,4.459,1.23,4.739,3.938l-.048,34.67a3.343,3.343,0,0,1-2.624,2.679,20.224,20.224,0,0,1-3.805-.022c-.54-.11-1.724-1.15-1.724-1.65V41.359c-2.087-.277-5.292.4-7.241-.07a.884.884,0,0,1-.794-.83.91.91,0,0,1,.729-.864c3.95.246,8.314-.341,12.213-.01a3.932,3.932,0,0,1,1.681.488V8.661c0-.542-1.338-2.008-1.848-2.008H49.816c.338.981,1.214,3.945-.571,3.848-.917-.05-.65-1.681-.753-2.283a4.055,4.055,0,0,0-5.509-2.854c-4.364,1.832-2.159,7.915.163,10.611.249.289,1.213,1.374,1.527,1.213a18.22,18.22,0,0,0,1.675-1.71c.455-.575,1.526-2.8,1.864-2.961a.786.786,0,0,1,1.038.407c.432.959-.818,2.286-1.2,3.126.048.217,2.582.846,2.978,2.328.764,2.863-3.652,3.873-5.709,3.861l0,4.226a2.653,2.653,0,0,1,1.534,3.332c-.307,1.175-1.41,1.136-1.7,1.551-.184.26-.292,1-.491,1.4A7.511,7.511,0,0,1,42.732,35c-1.259.964-.971.35-1.88,1.815a2.484,2.484,0,0,1-3.767.531c-.42-.376-.543-1.1-.853-1.441-.476-.52-1.625-.923-2.326-1.691-.877-.962-1.036-2.151-1.53-2.809-.164-.219-.837-.477-1.2-.886a2.265,2.265,0,0,1-.155-3.056c.306-.408,1.055-.763,1.125-1.125l-.035-5.03a2.46,2.46,0,0,1-.6-4.285c.167-.143.567-.207.608-.272.71-1.117-1.848-5.07-2.862-4.563-.659.33-.722,1.066-2.013,1.066-1.173,0-1.983-1.208-2.37-1.114-1.323.321-2.867,3.19-2.536,4.53a3.1,3.1,0,0,1,1.543,1.866c.4,1.995-1.292,2.209-1.511,2.846a15.676,15.676,0,0,0-.028,2.222c-.256,2.617-1.533,4.406-4.331,4.427a4.07,4.07,0,0,1-8.045-1.218c.335-4.612,7.259-4.935,8.051-.408,2.981.007,2.608-2.847,2.562-5.016a2.569,2.569,0,0,1-.814-4.218,5.3,5.3,0,0,1,.782-.425c.087-.133.285-1.88.439-2.372a6.765,6.765,0,0,1,2.974-3.615c.247-.167.653-.2.756-.286.137-.118.221-.716.384-.984a2.475,2.475,0,0,1,4.08-.27c.295.414.31.948.56,1.208.211.219.865.375,1.175.592a6.842,6.842,0,0,1,2.822,4.409c.07.363-.086.9.094,1.192.108.177.586.277.81.476a2.68,2.68,0,0,1,.593,3.01c-.379.771-1.383.96-1.488,1.725a33.09,33.09,0,0,0,.041,4.474c.114.389.862.684,1.163,1.086a2.525,2.525,0,0,1-.853,3.783A4.934,4.934,0,0,0,36.436,34.1l.268.016a2.573,2.573,0,0,1,4.218-.016,4.771,4.771,0,0,0,2.619-2.956,2.552,2.552,0,0,1,.145-4.677l.026-4.233c-1.945.091-6.3-1.128-5.717-3.705a3.564,3.564,0,0,1,2.985-2.24c-.3-1.042-1.01-1.954-1.409-3.009a9.424,9.424,0,0,1-.359-6.631H8.2V13.8a.877.877,0,0,1-1.6-.325L6.51,2.157c-.309-.7-2.79-.574-3.493-.448-.526.095-1.4.849-1.4,1.328V35.092c.865-.812,4.3-.2,4.744-.639a1.034,1.034,0,0,0,.165-.317l.069-16.8c.008-.909.784-1.175,1.465-.655l.107,17.813c-.8,2.567-3.3,1.6-5.175,1.9a1.619,1.619,0,0,0,.3,3.212l33.432-.01c1.616.184.933,1.928-.479,1.777-10.5-.559-21.735.722-32.149,0C1.855,41.21.215,40.549,0,38.071L.048,2.757A3.343,3.343,0,0,1,2.671.079,20.224,20.224,0,0,1,6.476.1c.54.11,1.724,1.15,1.724,1.65Zm18.752,5.168a.736.736,0,0,0,0,1.394.748.748,0,1,0,0-1.394m15.106,7.561c-.534-.008-2.638.815-2.344,1.619.476,1.659,8.7,2.014,9.768-.151-.435-.993-1.587-1.22-2.513-1.469-.387,0-1.4,1.471-2.533,1.422-.986-.042-1.89-1.415-2.378-1.422m-20.889.63c-.706.192-.647,1.708.409,1.556s.715-1.861-.409-1.556m11.569,0c-.687.186-.622,1.632.262,1.549,1.115-.1.946-1.875-.262-1.549m-19.116,6.6a2.432,2.432,0,1,0,1.049,4.746c2.719-.564,2.162-5.253-1.049-4.746M32.33,28.371c-.47.748.651,1.815,1.272,1.033.743-.935-.831-1.737-1.272-1.033m11.809-.162a.782.782,0,0,0,.136,1.425.782.782,0,1,0-.136-1.425m-6.016,7.808c.573.644,1.973-.125,1.264-1.02-.637-.8-1.908.295-1.264,1.02m11.372,5.342V44.01c0,.734,2.73.626,3.294.562a1.67,1.67,0,0,0,1.279-2.725,2.069,2.069,0,0,0-.636-.489Z" transform="translate(0 0)" fill="#fff"/>
          <path id="Trazado_1266107" data-name="Trazado 1266107" d="M263.822,40.491c3.179-.385,3.889,4.862.435,5.114-3.373.247-3.737-4.714-.435-5.114m.8,1.936c-.825-.828-2.008.78-1.088,1.327a.865.865,0,0,0,1.088-1.327" transform="translate(-219.505 -33.968)" fill="#fff"/>
        </g>
      </g>
    </g>
  </g>
</svg>
