<svg xmlns="http://www.w3.org/2000/svg" xmlns:xlink="http://www.w3.org/1999/xlink" width="169" height="111" viewBox="0 0 169 111">
  <defs>
    <clipPath id="clip-path">
      <rect id="Rectángulo_458264" data-name="Rectángulo 458264" width="99.437" height="100" fill="none"/>
    </clipPath>
  </defs>
  <g id="Grupo_1205961" data-name="Grupo 1205961" transform="translate(-1121.422 -1019)">
    <rect id="Rectángulo_455283" data-name="Rectángulo 455283" width="169" height="111" rx="19" transform="translate(1121.422 1019)" fill="#e3a4fe"/>
    <g id="Grupo_1207433" data-name="Grupo 1207433" transform="translate(1156.422 1025)">
      <g id="Grupo_1207432" data-name="Grupo 1207432" clip-path="url(#clip-path)">
        <path id="Trazado_1266087" data-name="Trazado 1266087" d="M126.908,45.751a.964.964,0,0,0-.964-.964H117.06a.965.965,0,0,0-.965.964V96.47h10.812Z" transform="translate(-34.725 -13.396)" fill="#fbce73"/>
        <path id="Trazado_1266088" data-name="Trazado 1266088" d="M116.1,118.526l4.948,8.363a.476.476,0,0,0,.916,0l4.948-8.363Z" transform="translate(-34.725 -35.452)" fill="#fbce73"/>
        <path id="Trazado_1266089" data-name="Trazado 1266089" d="M125.279,34.742a1.363,1.363,0,0,0-1.447-1.26H121.6a1.364,1.364,0,0,0-1.447,1.26V41.4h5.13Z" transform="translate(-35.937 -10.015)" fill="#fbce73"/>
        <path id="Trazado_1266090" data-name="Trazado 1266090" d="M127.461,45.751a.964.964,0,0,0-.964-.964h-4.43a.964.964,0,0,1,.964.964V96.47h4.429Z" transform="translate(-34.725 -13.396)" fill="#e8b95a"/>
        <path id="Trazado_1266091" data-name="Trazado 1266091" d="M22.556,11.474A9.384,9.384,0,0,0,13.172,2.09C7.99,2.09,2.629,4.228,2.629,9.412l-.414,2.063V90.427c0,1.4,2.71.971,4.112.971H70.38V11.474Z" transform="translate(-0.663 -0.625)" fill="#ffe9a1"/>
        <path id="Trazado_1266092" data-name="Trazado 1266092" d="M76.05,28.131H16.794v75.763a2.539,2.539,0,0,0,2.539,2.539H79.478a2.539,2.539,0,0,0,2.539-2.539V26.407A11.015,11.015,0,0,1,76.05,28.131Z" transform="translate(-5.023 -7.899)" fill="#fff9e9"/>
        <path id="Trazado_1266093" data-name="Trazado 1266093" d="M45.355,44.261A10.561,10.561,0,1,1,34.8,54.821a10.561,10.561,0,0,1,10.56-10.56" transform="translate(-10.407 -13.239)" fill="#fbce73"/>
        <path id="Trazado_1266094" data-name="Trazado 1266094" d="M124.513,118.526l-3.469,5.862,1.48,2.5a.887.887,0,0,0,1.469,0l4.948-8.363Z" transform="translate(-36.205 -35.452)" fill="#ffe9a1"/>
        <path id="Trazado_1266095" data-name="Trazado 1266095" d="M123.015,34.741V41.4h3.322V34.741a1.364,1.364,0,0,0-1.447-1.261c-3.006,0-2.86-.009-3.056.022A1.322,1.322,0,0,1,123.015,34.741Z" transform="translate(-36.441 -10.014)" fill="#ffe9a1"/>
        <path id="Trazado_1266096" data-name="Trazado 1266096" d="M100.868,28.123v75.772a2.539,2.539,0,0,1-2.539,2.539h5.536a2.539,2.539,0,0,0,2.539-2.539V26.407A10.979,10.979,0,0,1,100.868,28.123Z" transform="translate(-29.411 -7.899)" fill="#ffe9a1"/>
        <path id="Trazado_1266097" data-name="Trazado 1266097" d="M91.129,11.474c0-5.183-4.627-9.384-10.335-9.384H17.848a9.384,9.384,0,0,1,0,18.769H80.795c5.707,0,10.335-4.2,10.335-9.384" transform="translate(-5.338 -0.625)" fill="#fff9e9"/>
        <path id="Trazado_1266098" data-name="Trazado 1266098" d="M104.065,2.09H98.529c5.707,0,10.335,4.2,10.335,9.384s-4.627,9.384-10.335,9.384h5.536c5.707,0,10.335-4.2,10.335-9.384S109.773,2.09,104.065,2.09" transform="translate(-29.471 -0.625)" fill="#fbce73"/>
        <path id="Trazado_1266099" data-name="Trazado 1266099" d="M86.148,10.848C86.148,4.866,80.855,0,74.349,0h-63.5A10.861,10.861,0,0,0,0,10.848V63.526a1.465,1.465,0,0,0,2.93,0V10.848a7.919,7.919,0,1,1,7.919,7.919H10.11a1.465,1.465,0,0,0-1.465,1.465V89.308H4A1.075,1.075,0,0,1,2.93,88.233V70.362a1.465,1.465,0,0,0-2.93,0V88.233a4.008,4.008,0,0,0,4,4H8.646V96a4.008,4.008,0,0,0,4,4H72.793a4.009,4.009,0,0,0,4-4V21.461c5.334-1.04,9.351-5.4,9.351-10.613M18.257,2.929H74.349c4.891,0,8.87,3.553,8.87,7.919s-3.994,7.919-8.87,7.919H18.257a10.834,10.834,0,0,0,0-15.839M73.868,96a1.075,1.075,0,0,1-1.074,1.074H12.649A1.075,1.075,0,0,1,11.575,96V21.7H73.868Z" transform="translate(0 0)"/>
        <path id="Trazado_1266100" data-name="Trazado 1266100" d="M44.73,66.221a12.021,12.021,0,0,0,10.544-17.8l5.15-3.319h13.76a1.465,1.465,0,0,0,0-2.93H59.993a1.469,1.469,0,0,0-.793.233L53.557,46.04A12.022,12.022,0,1,0,44.73,66.221Zm0-21.121a9.062,9.062,0,0,1,6.314,2.558l-3.692,2.379A1.465,1.465,0,0,0,48.94,52.5L52.8,50.011A9.093,9.093,0,1,1,44.73,45.1" transform="translate(-9.782 -12.613)"/>
        <path id="Trazado_1266101" data-name="Trazado 1266101" d="M32.816,91.684H76.957a1.465,1.465,0,0,0,0-2.93H32.816a1.465,1.465,0,0,0,0,2.93Z" transform="translate(-9.377 -26.547)"/>
        <path id="Trazado_1266102" data-name="Trazado 1266102" d="M32.816,107.482H76.957a1.465,1.465,0,1,0,0-2.93H32.816a1.465,1.465,0,1,0,0,2.93Z" transform="translate(-9.377 -31.272)"/>
        <path id="Trazado_1266103" data-name="Trazado 1266103" d="M32.816,123.28H76.957a1.465,1.465,0,1,0,0-2.93H32.816a1.465,1.465,0,1,0,0,2.93Z" transform="translate(-9.377 -35.997)"/>
        <path id="Trazado_1266104" data-name="Trazado 1266104" d="M85.7,69.247H72.685a1.465,1.465,0,1,0,0,2.93H85.7a1.465,1.465,0,1,0,0-2.93" transform="translate(-21.302 -20.712)"/>
        <path id="Trazado_1266105" data-name="Trazado 1266105" d="M133.537,48.223a3.735,3.735,0,0,0-3.876-3.565H128.3V41.745a2.432,2.432,0,0,0-2.429-2.429h-.412v-5.2a2.826,2.826,0,0,0-2.912-2.725h-2.79a2.826,2.826,0,0,0-2.911,2.726v5.2h-.412a2.432,2.432,0,0,0-2.429,2.429V92.464a1.5,1.5,0,0,0,.2.746l4.948,8.362a2.352,2.352,0,0,0,3.991,0l4.948-8.362a1.491,1.491,0,0,0,.2-.74V86.056a1.465,1.465,0,1,0-2.929,0V91h-8.437V47.588h8.437V78.244a1.465,1.465,0,1,0,2.929,0V47.588h1.36c.558,0,.946.335.946.636V69.413a1.465,1.465,0,1,0,2.93,0Zm-13.76-13.9h2.753v4.994h-2.753Zm4.491,59.606-3.114,5.263-3.114-5.263Zm-7.332-51.682h8.437v2.412h-8.437Z" transform="translate(-34.1 -9.39)"/>
      </g>
    </g>
  </g>
</svg>
