<svg xmlns="http://www.w3.org/2000/svg" xmlns:xlink="http://www.w3.org/1999/xlink" width="96" height="96" viewBox="0 0 96 96">
  <defs>
    <clipPath id="clip-path">
      <rect id="Rectángulo_458170" data-name="Rectángulo 458170" width="59.378" height="59.362" fill="#fff"/>
    </clipPath>
  </defs>
  <g id="Grupo_1206111" data-name="Grupo 1206111" transform="translate(-383.746 -8400.001)">
    <path id="Trazado_997400" data-name="Trazado 997400" d="M48,0A48,48,0,1,1,0,48,48,48,0,0,1,48,0Z" transform="translate(383.746 8400.001)" fill="#5d0b80"/>
    <g id="Grupo_1099776" data-name="Grupo 1099776" transform="translate(401.746 8418)">
      <g id="Grupo_1099618" data-name="Grupo 1099618" transform="translate(-0.035 -0.777)">
        <rect id="Rectángulo_401104" data-name="Rectángulo 401104" width="59.378" height="60.093" transform="translate(0)" fill="none"/>
      </g>
      <g id="Grupo_1207322" data-name="Grupo 1207322" transform="translate(-0.035 0.223)">
        <g id="Grupo_1207321" data-name="Grupo 1207321" clip-path="url(#clip-path)">
          <path id="Trazado_1265585" data-name="Trazado 1265585" d="M45.588,11.911H57.069A4.011,4.011,0,0,1,59,13.382a2.957,2.957,0,0,1-2.364,4.389l-.14.2c-.623,5.929,2.046,13.991-4.1,17.666,6.126,3.627,3.522,11.752,4.068,17.67,3.759.652,3.918,5.472.093,6.054l-22.4-.042a2.975,2.975,0,0,1,.551-5.908V41.5H32.237c-.15,0-.584-.687-.583-.935,0-1.545,2.629-.674,3.562-1.018a8.631,8.631,0,0,1,3.4-3.914,8.9,8.9,0,0,1-3.481-4.169c-.7-1.92-.29-3.641-.5-5.622-.376-.54-2.737.491-2.96-.963-.27-1.76,2.778-.636,3.011-1.346V17.886c-2.371-.216-3.916-2.535-2.5-4.672.287-.434,1.259-1.3,1.758-1.3h9.61V2.641a3.971,3.971,0,0,0-.6-.6H7.83V3.918c2.592-.4,2.876,2.247.16,2.114l-.16,1.8c2.548-.344,2.923,2.273.16,2.114L7.9,11.751c.265.379,1.912-.262,1.978,1.09.062,1.277-1.131.762-1.773.964-.464.145-.294,1.435-.2,1.858.252.362,1.96-.229,1.98,1.09.017,1.124-1.182,1.162-2.055,1.11v1.873c1.13-.1,2.373.144,1.959,1.53-.486.63-1.242.525-1.959.509L7.9,23.657l1.683.316a1.038,1.038,0,0,1-.23,1.626c-1.126.489-1.9-.595-1.453,1.97.265.379,1.912-.262,1.978,1.089.052,1.068-1.249,1.121-2.053,1.11v1.873c2.8-.428,2.729,2.448,0,2.039v1.873c1.409-.568,2.962,1.329,1.529,1.952-1.126.489-1.9-.595-1.453,1.97l1.683.316a1.027,1.027,0,0,1,.286.779c0,1.529-1.8.544-2.02,1.214l.05,1.6c.252.362,1.96-.229,1.98,1.09C9.9,45.6,8.7,45.638,7.829,45.586v1.873c2.788-.411,2.789,2.45,0,2.039L7.9,51.38l.513.168,21.446-.016c1.209.1.947,1.81-.169,1.888l-26.889,0A3.034,3.034,0,0,1,0,50.611V2.975A3.038,3.038,0,0,1,2.977,0L42.783,0a2.923,2.923,0,0,1,2.475,1.777c.056.14.331,1.138.331,1.2ZM5.959,2.046H2.643a1.147,1.147,0,0,0-.437.286L2.04,50.612c-.227,1.176,3.47,1.056,3.76.853L5.96,49.5c-2.686.4-2.6-2.416,0-2.039V45.586c-2.6.23-2.777-2.425,0-2.039V41.5c-2.7.478-2.7-2.347,0-1.869V37.592c-2.779.413-2.587-2.337,0-2.039V33.68c-2.6.4-2.683-2.506,0-2.039V29.769c-2.6.23-2.777-2.425,0-2.039V25.686c-2.7.478-2.7-2.347,0-1.869V21.775c-2.734.425-2.579-2.359,0-2.039V17.863c-2.582.318-2.731-2.466,0-2.039L5.8,13.855c-2.633.187-2.4-2.413.16-1.944V9.869c-2.777.386-2.6-2.269,0-2.039V5.957c-2.734.425-2.579-2.359,0-2.039ZM34.834,13.827a1.02,1.02,0,0,0-.637,1.906l22.2.1c1.489-.335,1.179-2.068-.349-2.05Zm19.6,4.036H36.574V29.344c0,1.921,2.24,4.422,4.044,4.97.882.268,2.948.112,2.947,1.323,0,1.158-1.816.958-2.705,1.224-1.917.574-4.286,3-4.286,5.069V53.411H54.433V41.76a14.257,14.257,0,0,0-.587-1.794A5.885,5.885,0,0,0,50.4,36.951c-.96-.336-2.925-.168-2.926-1.314,0-1.226,2.152-1.073,3.045-1.365,1.68-.55,3.916-2.943,3.916-4.758Zm2.68,37.8c-.188-.188-.623-.2-.887-.217l-21.617,0a.94.94,0,1,0,.006,1.88c7-.438,14.7.583,21.61.007,1.027-.086,1.582-.973.887-1.667" transform="translate(0 0.001)" fill="#fff"/>
          <path id="Trazado_1265586" data-name="Trazado 1265586" d="M79.152,134.21c.227-.821,1.811-.96,2.025.527.273,1.9.3,4.608-2.1,4.84a54.2,54.2,0,0,1-7.832-.008,1.978,1.978,0,0,1-1.964-1.947,56.743,56.743,0,0,1,0-8.177,1.966,1.966,0,0,1,1.631-1.771,25.41,25.41,0,0,1,4.548.03c1.062.2.741,2-.307,2h-4v7.824h7.994c.157-.887-.213-2.544,0-3.317" transform="translate(-57.375 -105.886)" fill="#fff"/>
          <path id="Trazado_1265587" data-name="Trazado 1265587" d="M71.159,222.689v7.824h7.994V227.2c0-.413,1.159-.848,1.657-.38.522.49.469,3.161.343,3.911a2.162,2.162,0,0,1-2.248,1.834,54.763,54.763,0,0,1-7.5,0c-1.27-.12-2-.648-2.128-1.954a56.743,56.743,0,0,1,0-8.177,1.966,1.966,0,0,1,1.631-1.771,28.137,28.137,0,0,1,4.407-.007,1.036,1.036,0,0,1-.166,2.037Z" transform="translate(-57.375 -183.054)" fill="#fff"/>
          <path id="Trazado_1265588" data-name="Trazado 1265588" d="M79.154,41.211a1.124,1.124,0,0,1,1.7-.337c.48.462.422,3.155.3,3.868a2.162,2.162,0,0,1-2.248,1.834,54.707,54.707,0,0,1-7.326,0c-1.322-.112-2.166-.551-2.3-1.953a56.811,56.811,0,0,1,0-8.176,1.966,1.966,0,0,1,1.631-1.771,25.442,25.442,0,0,1,4.548.03c.705.135.734.89.541,1.487l-.338.343H71.415l-.255.255v7.484l.255.255h7.739c.157-.886-.214-2.545,0-3.317" transform="translate(-57.377 -28.704)" fill="#fff"/>
          <path id="Trazado_1265589" data-name="Trazado 1265589" d="M96.949,28.987a1.028,1.028,0,0,1,1.15,1.5l-7.228,7.228c-.966.7-3.361-1.966-3.5-2.632a.871.871,0,0,1,.351-.856c1.218-1.1,2.2,1.434,2.808,1.119Z" transform="translate(-72.499 -24.019)" fill="#fff"/>
          <path id="Trazado_1265590" data-name="Trazado 1265590" d="M97.15,215.138a1.018,1.018,0,0,1,.979,1.5l-7.139,7.148a1.255,1.255,0,0,1-.682.263c-.666,0-3.108-2.39-2.9-3.162a1.148,1.148,0,0,1,.925-.759c1-.119,1.682,1.654,2.233,1.37,1.123-.814,5.693-6.223,6.588-6.362" transform="translate(-72.529 -178.538)" fill="#fff"/>
          <path id="Trazado_1265591" data-name="Trazado 1265591" d="M97.147,122.138a1.018,1.018,0,0,1,.979,1.5L90.9,130.867c-.966.7-3.361-1.966-3.5-2.632a1.157,1.157,0,0,1,.9-1.169c.834-.116,1.745,1.7,2.255,1.433,1.123-.814,5.693-6.223,6.588-6.362" transform="translate(-72.526 -101.355)" fill="#fff"/>
          <path id="Trazado_1265592" data-name="Trazado 1265592" d="M151.915,139.9a11.93,11.93,0,0,1,2.945.051,1.117,1.117,0,0,1,.072,1.6,8.166,8.166,0,0,1-3.016.15.994.994,0,0,1,0-1.805" transform="translate(-125.598 -116.051)" fill="#fff"/>
          <path id="Trazado_1265593" data-name="Trazado 1265593" d="M151.915,166.568a11.931,11.931,0,0,1,2.945.051,1.117,1.117,0,0,1,.072,1.6,8.165,8.165,0,0,1-3.016.15.994.994,0,0,1,0-1.805" transform="translate(-125.598 -138.182)" fill="#fff"/>
          <path id="Trazado_1265594" data-name="Trazado 1265594" d="M151.915,51.6a11.93,11.93,0,0,1,2.945.051,1.117,1.117,0,0,1,.072,1.6,8.165,8.165,0,0,1-3.016.15.994.994,0,0,1,0-1.805" transform="translate(-125.598 -42.772)" fill="#fff"/>
          <path id="Trazado_1265595" data-name="Trazado 1265595" d="M151.915,78.271a11.931,11.931,0,0,1,2.945.051,1.117,1.117,0,0,1,.072,1.6,8.165,8.165,0,0,1-3.016.15.994.994,0,0,1,0-1.805" transform="translate(-125.598 -64.903)" fill="#fff"/>
          <path id="Trazado_1265596" data-name="Trazado 1265596" d="M151.915,259.012a11.927,11.927,0,0,1,2.945.051,1.117,1.117,0,0,1,.072,1.6,8.165,8.165,0,0,1-3.016.15.994.994,0,0,1,0-1.805" transform="translate(-125.598 -214.903)" fill="#fff"/>
          <path id="Trazado_1265597" data-name="Trazado 1265597" d="M151.915,232.9a11.93,11.93,0,0,1,2.945.051,1.117,1.117,0,0,1,.072,1.6,8.165,8.165,0,0,1-3.016.15.994.994,0,0,1,0-1.805" transform="translate(-125.598 -193.233)" fill="#fff"/>
          <path id="Trazado_1265598" data-name="Trazado 1265598" d="M229.822,147.979a4.4,4.4,0,0,1-3.03-2.923,22.892,22.892,0,0,1-.123-4.823.881.881,0,0,1,1.105-1.105,92.2,92.2,0,0,1,11.41,0c.587.04,1.1-.051,1.227.636a19.652,19.652,0,0,1-.234,5.815c-.351.881-1.936,2.4-2.872,2.4H234.5c-.157,1.246.215,2.986,0,4.163a.947.947,0,0,1-1.862,0c-.219-1.177.152-2.917,0-4.163-.862-.1-1.985.136-2.806,0m8.759-3.827c.128-.869-.093-1.988,0-2.891l-.255-.255h-9.61v3.657c0,.369,1.016,1.2,1.455,1.266a43.953,43.953,0,0,0,6.628.014,2.091,2.091,0,0,0,1.781-1.791" transform="translate(-188.06 -115.318)" fill="#fff"/>
          <path id="Trazado_1265599" data-name="Trazado 1265599" d="M234.5,235.9h2.636c1.4,0,3.064,1.836,3.272,3.191a26.261,26.261,0,0,1,0,5.025c-.122.631-.827.756-1.4.807a79.016,79.016,0,0,1-11.068,0c-.952-.105-1.2-.371-1.279-1.273a22.853,22.853,0,0,1,.124-4.823c.3-1.205,1.941-2.923,3.2-2.923h2.636c.134-.966-.51-2.927.936-2.9,1.521.032.769,1.853.935,2.9m-5.783,3.317c-.21.97.155,2.6,0,3.657h9.61l.255-.255v-2.891a2.115,2.115,0,0,0-1.781-1.791,43.953,43.953,0,0,0-6.628.014,2.425,2.425,0,0,0-1.455,1.266" transform="translate(-188.06 -193.371)" fill="#fff"/>
        </g>
      </g>
    </g>
  </g>
</svg>
