<svg xmlns="http://www.w3.org/2000/svg" xmlns:xlink="http://www.w3.org/1999/xlink" width="84" height="84" viewBox="0 0 84 84">
  <defs>
    <clipPath id="clip-path">
      <rect id="Rectángulo_458486" data-name="Rectángulo 458486" width="73.711" height="66.959" fill="#5d0b80"/>
    </clipPath>
  </defs>
  <g id="Grupo_1207097" data-name="Grupo 1207097" transform="translate(-289.711 -1155.941)">
    <rect id="Rectángulo_455579" data-name="Rectángulo 455579" width="84" height="84" rx="12" transform="translate(289.711 1155.941)" fill="#ffe9a1"/>
    <g id="Grupo_1207676" data-name="Grupo 1207676" transform="translate(294.711 1164.942)">
      <g id="Grupo_1207675" data-name="Grupo 1207675" clip-path="url(#clip-path)">
        <path id="Trazado_1266955" data-name="Trazado 1266955" d="M26.811,5.565c-.268-2.122.567-4.665,2.8-5.322.952-.28,4.665-.553,4.974.622.519,1.975-2.908,1.145-4.034,1.372-.415.084-1.42.69-1.42,1.112V15.272l1.689-.21c-.4-2.463.873-4.821,3.47-5.076,2.4-.235,11.076-.335,13.212.1,2.336.48,3.212,2.794,2.941,4.972l1.689.21V8.414c0-2.688-4.243-6.225-6.858-6.225H38.1c-.689,0-.689-2.11,0-2.11h8.019c2.448,0,6.125,3.106,7.183,5.267,1.916,3.913.492,7.26,1.162,10.866.1.526.762,1.158,1.018,1.725a5.276,5.276,0,0,1-5.039,7.674,6.71,6.71,0,0,1-2.317,5.382c.807.418,1.012,1.785,1.6,2.192.332.228,5.207,2.3,5.505,2.3.537.005.991-1.245,2.608-.71.407.134.7.649.963.7,1.412.271.6-1.281,1.337-2.115.718-.809,4.007-.791,4.849-.25,1.011.65.233,2.289,1.423,2.382.467.036,1.058-1.348,2.756-.651a11.976,11.976,0,0,1,2.491,2.571,2.232,2.232,0,0,1-.714,2.469c.188,1.58,1.9.326,2.513,1.852.363.9.386,3.87-.324,4.563-.8.777-2.456-.126-2.175,1.336.11.572,1.106.734.75,2.3a9.217,9.217,0,0,1-2.687,2.8c-1.629.513-2.137-.973-2.906-.6s-.3,1.163-.715,1.834c-.21.34-.783.459-.931.757-.61,1.226.271,7.743-.151,9.767a3.609,3.609,0,0,1-2.266,2.377l-42.515.085a3.294,3.294,0,0,1-2.6-2.463A23.553,23.553,0,0,1,16.9,60.12a1.1,1.1,0,0,1,1.753-.549c.943.6-.48,5.291,1.3,5.291h3.693V49.352c0-.845,2.321-1.052,2.321.211v15.3H55.3V51.884c0-.349-2.148-1.223-1.638-3.114.16-.594,1.206-1.123.6-1.932-.2-.266-1.292.066-1.974-.538-.839-.743-.8-4.063-.161-4.914.761-1.012,2.212-.076,2.286-1.16.056-.812-1.5-1.75-.594-3l-4.22-1.7v8.124L41.242,61.042a.986.986,0,0,1-1.218,0l-8.36-17.177V35.53L21.117,39.86A3.407,3.407,0,0,0,19,42.81c-.451,4,.38,8.747-.051,12.832-.24,1.249-2.059.748-2.059.252V52.412H1.8A2.765,2.765,0,0,1,.006,50.2L.025,7.583A2.731,2.731,0,0,1,1.645,5.616c.626-.158,5.1-.14,5.454.139.736.582-.061,1.92-.441,1.92H2.438l-.317.317V49.985l.317.317H16.893V44.6c-3.284.563-3.3-2.658-.008-2.119A5.348,5.348,0,0,1,18.9,38.7c.533-.421,1.189-.56,1.577-1.061H15.1c-.417,0-1.249-1.575.093-2.017l10.831-.142c.4-.075,5.207-2.069,5.518-2.29.553-.393.615-2,1.6-2.1a6.827,6.827,0,0,1-2.32-5.483c-1.839.214-3.136-.718-4.543-1.682-3.1-.435-7.992.6-10.877-.1a1.119,1.119,0,0,1,.12-2.23h9.813a5.362,5.362,0,0,1,1.055-4.642H15.31c-1.09,0-1.217-2.321.211-2.321h11.29V7.675H11.09c-.939,0-.9-2.11-.211-2.11Zm7.54,6.59c-1.133.226-1.342.912-1.428,1.948-.2,2.349-.294,11.551.331,13.4a4.023,4.023,0,0,0,3.58,2.751,50.741,50.741,0,0,0,7.6,0c2.485-.28,3.7-2.222,3.9-4.541a83.96,83.96,0,0,0,.011-11.4c-.132-1.417-.552-2.041-2.013-2.207a81.783,81.783,0,0,0-11.979.049M30.82,17.171a3.176,3.176,0,1,0,0,6.331ZM50.445,23.5a3.175,3.175,0,1,0,0-6.331ZM33.775,33.525V41.65l6.119-3.379c-.77-1.219-3.972-2.046-4.207-3.491-.086-.53.212-2.521-.334-2.627-.339-.066-1.5.992-1.578,1.373M47.28,41.65V33.1c0-.162-1.442-1.2-1.687-.949.74,3.6-1.7,4.261-4.224,5.8-.061.287.166.358.351.493,1.594,1.163,3.949,1.946,5.56,3.2m-3.8-9.285h-5.7c.09.472-.157,1.514.044,1.857.134.229,2.392,1.354,2.8,1.661l2.815-1.652ZM63.53,34.9h-1.69c.625,1.882-2.405,3.245-3.763,2.816-.41-.129-.893-.695-1.09-.609l-1.049,1.065c1.792,1.28.246,5-1.915,4.843l-.2,1.594c1.818-.637,3.212,2.3,2.914,3.645-.109.492-.813.964-.707,1.208l1.064,1.049c1.3-1.77,5.32-.153,4.747,2.118h1.69c-.51-2.224,3.393-3.914,4.744-2.164l1.135-1.069c-1.61-1.5-.242-5.2,2.137-4.788V42.916c-2.293.4-3.844-3.335-2.126-4.778l-.962-1.117c-1.586,1.628-5.349.285-4.929-2.125M43.235,41.683a10.017,10.017,0,0,0-2.969-1.262,22.2,22.2,0,0,0-2.225,1.271c-.857,1.479,1.685,2.607,2.751,2.876.458-.454,2.107-.994,2.372-1.442a2.542,2.542,0,0,0,.072-1.443m-6.509,7.562c-.006-.927.963-3.3.529-4.007-.279-.454-1.689-.977-1.685-2.109l-1.32.944Zm8.018-.211,2.3-4.963-1.348-.942c-.484-.149-.233.686-.512,1.17a2.526,2.526,0,0,1-1.485.949ZM41.791,46.5a2.028,2.028,0,0,1-2.317,0l-1.21,6.053,2.37,4.918,2.329-4.951ZM57.62,52.939V64.862h3.693a2.081,2.081,0,0,0,.717-.549c.77-1.226-.1-7.742.234-9.581-1.079.1-2.268-.207-2.523-1.382-.139-.644.275-1.537-.934-1.308a9.723,9.723,0,0,0-1.188.9" transform="translate(0 0)" fill="#5d0b80"/>
        <path id="Trazado_1266956" data-name="Trazado 1266956" d="M31.936,56.388a1.152,1.152,0,0,1,1.214,1.651c-.91.771-2.554,3.964-3.355,4.453-1.575.962-5.053-3.191-3.137-3.771,1.154-.349,1.55.569,2.278,1.221.293,0,2.211-3.336,3-3.554" transform="translate(-20.589 -44.463)" fill="#5d0b80"/>
        <path id="Trazado_1266957" data-name="Trazado 1266957" d="M32.99,89.476a1.282,1.282,0,0,1,.1,1.364,42.1,42.1,0,0,1-3.477,4.55c-1.455.694-4.667-2.983-3.115-3.751,1.132-.56,1.734.506,2.428,1.157.919-.654,2.623-4.764,4.063-3.321" transform="translate(-20.581 -70.354)" fill="#5d0b80"/>
        <path id="Trazado_1266958" data-name="Trazado 1266958" d="M26.309,190.487c1.108-1.113,1.961,1.147,2.78,1.019.2-.032,1.9-3.021,2.442-3.287,1.208-.6,2.063.455,1.449,1.659a31.863,31.863,0,0,1-3.706,4.538c-.7.077-2.917-2.062-3.121-2.508a1.5,1.5,0,0,1,.156-1.421" transform="translate(-20.55 -148.364)" fill="#5d0b80"/>
        <path id="Trazado_1266959" data-name="Trazado 1266959" d="M32.881,122.484a1.286,1.286,0,0,1,.1,1.364,41.965,41.965,0,0,1-3.476,4.549,1.031,1.031,0,0,1-1,.052,33.213,33.213,0,0,1-2.43-2.433,1.064,1.064,0,0,1,.589-1.531c.916-.373,1.536.836,2.151,1.32.883-.7,2.635-4.749,4.063-3.321" transform="translate(-20.472 -96.398)" fill="#5d0b80"/>
        <path id="Trazado_1266960" data-name="Trazado 1266960" d="M33.053,155.5a1.3,1.3,0,0,1,.106,1.369,46.556,46.556,0,0,1-3.486,4.562,1.168,1.168,0,0,1-.471.116c-.746-.029-4.491-3.24-2.419-4.1,1.021-.449,1.61,1.3,2.4,1.182.724-.794,2.5-4.495,3.87-3.129" transform="translate(-20.644 -122.446)" fill="#5d0b80"/>
        <path id="Trazado_1266961" data-name="Trazado 1266961" d="M97.79,135.1a48.759,48.759,0,0,1,6.694-.03c1.6.251,1.307,2.057-.209,2.295a35.184,35.184,0,0,1-5.876-.008c-1.648-.237-1.836-1.9-.609-2.256" transform="translate(-76.528 -106.486)" fill="#5d0b80"/>
        <path id="Trazado_1266962" data-name="Trazado 1266962" d="M73.013,136.85c-.589.727-4.8.976-4.751-.859.158-1.762,6.5-1.3,4.751.859" transform="translate(-53.857 -106.441)" fill="#5d0b80"/>
        <path id="Trazado_1266963" data-name="Trazado 1266963" d="M174.248,114.427c.96-.147,1.711,1.762,4.074,1.132.66-.176,2.4-2.078,2.912-.6.813,2.333-3.413,3.048-5.084,2.764a5.13,5.13,0,0,1-2.745-1.7,1.136,1.136,0,0,1,.844-1.595" transform="translate(-136.733 -90.258)" fill="#5d0b80"/>
        <path id="Trazado_1266964" data-name="Trazado 1266964" d="M181.722,80.5a1.206,1.206,0,0,1,1.279.949c.071.809-1.228,1.637-1.228,2.077.161.7,1.263,1.06,1.176,1.816-.287,2.5-3.865-.64-3.914-1.623-.031-.627,2.056-3.119,2.688-3.219" transform="translate(-141.254 -63.501)" fill="#5d0b80"/>
        <path id="Trazado_1266965" data-name="Trazado 1266965" d="M166.33,80.017c-.747-.424-.91-4.316,1.073-3.716,1.076.326,1.063,3.444.22,3.728a2.667,2.667,0,0,1-1.293-.012" transform="translate(-130.823 -60.151)" fill="#5d0b80"/>
        <path id="Trazado_1266966" data-name="Trazado 1266966" d="M208.476,76.361c1.885-.5,1.74,3.569.575,3.766-2.015.34-1.678-3.473-.575-3.766" transform="translate(-163.786 -60.214)" fill="#5d0b80"/>
        <path id="Trazado_1266967" data-name="Trazado 1266967" d="M279.551,186.115c6.993-1.427,7.533,9.471.585,8.816-4.982-.47-5.09-7.9-.585-8.816m.637,2.106c-2.811.539-2.165,4.938.772,4.594,3.052-.358,2.469-5.215-.772-4.594" transform="translate(-217.98 -146.738)" fill="#5d0b80"/>
      </g>
    </g>
  </g>
</svg>
