<svg xmlns="http://www.w3.org/2000/svg" xmlns:xlink="http://www.w3.org/1999/xlink" width="160.5" height="160.501" viewBox="0 0 160.5 160.501">
  <defs>
    <clipPath id="clip-path">
      <rect id="Rectángulo_455261" data-name="Rectángulo 455261" width="38.951" height="37.623" fill="#e6fffa"/>
    </clipPath>
    <clipPath id="clip-path-2">
      <rect id="Rectángulo_458394" data-name="Rectángulo 458394" width="80.185" height="91.661" fill="#5d0b80"/>
    </clipPath>
  </defs>
  <g id="Grupo_1178127" data-name="Grupo 1178127" transform="translate(-307.436 -10011.92)">
    <path id="Sustracción_130" data-name="Sustracción 130" d="M26.051,25.795H0V11.245H11.352V0h14.7V25.795Z" transform="translate(441.641 10038.471) rotate(-90)" fill="#e3a4fe" stroke="rgba(0,0,0,0)" stroke-miterlimit="10" stroke-width="1"/>
    <g id="Grupo_1178100" data-name="Grupo 1178100" transform="translate(307.436 10172.421) rotate(-90)">
      <path id="Trazado_998183" data-name="Trazado 998183" d="M0,0V37.623H25.58V24.056H38.951V0Z" transform="translate(0 0)" fill="#5d0b80"/>
      <g id="Grupo_1178099" data-name="Grupo 1178099" transform="translate(0 0)">
        <g id="Grupo_1178098" data-name="Grupo 1178098" clip-path="url(#clip-path)">
          <path id="Trazado_998184" data-name="Trazado 998184" d="M0,9.021a9.025,9.025,0,1,1,9.025,9.021A9.023,9.023,0,0,1,0,9.021" transform="translate(4.434 5.629)" fill="#e3a4fe"/>
        </g>
      </g>
    </g>
    <g id="Grupo_1177470" data-name="Grupo 1177470" transform="translate(308.059 10012.421)">
      <circle id="Elipse_13609" data-name="Elipse 13609" cx="79.688" cy="79.688" r="79.688" fill="#f0d5fe"/>
      <g id="Grupo_1099776" data-name="Grupo 1099776" transform="translate(33.723 33.96)">
        <g id="Grupo_1099618" data-name="Grupo 1099618" transform="translate(-0.346 0.264)">
          <rect id="Rectángulo_401104" data-name="Rectángulo 401104" width="90.569" height="91.661" transform="translate(0)" fill="none"/>
        </g>
        <g id="Grupo_1207582" data-name="Grupo 1207582" transform="translate(5.654 0.264)">
          <g id="Grupo_1207581" data-name="Grupo 1207581" clip-path="url(#clip-path-2)">
            <path id="Trazado_1266572" data-name="Trazado 1266572" d="M38.651,13.967c-14.1.141-26.8,10.989-29.768,24.649C5.8,52.784,11.488,65.136,23.2,73.083c.984.668,3.625,1.54,3.585,2.86a38.746,38.746,0,0,1-2.815,5.817c-1.194.726-4.365-1.419-5.489-2.122A40.191,40.191,0,0,1,1.016,54.88C-4.552,30.191,13.448,6.594,38.653,5.839c-.51-2.627.29-7.713,3.943-5.126A79.321,79.321,0,0,1,49.8,7.928c.992,1.328,1.1,2.17.126,3.55a84.124,84.124,0,0,1-7.52,7.428c-1.126.7-1.931.864-2.983-.075a4.65,4.65,0,0,1-.775-1.061Zm2.887,1.573,5.748-5.674L41.666,4c.127,5.6-1.776,4.236-5.734,4.753C3.548,12.991-8.924,53.007,15.974,74.276c1.043.891,4.98,3.813,6.083,4.152a.976.976,0,0,0,.584.039l.8-2.081C4.217,66.267-.624,40.811,12.959,23.808,18.185,17.266,27.5,11.859,35.932,11.116c4.052-.357,6.144-.422,5.607,4.424" transform="translate(0 0)" fill="#5d0b80"/>
            <path id="Trazado_1266573" data-name="Trazado 1266573" d="M124.745,105.13c14.1-.141,26.8-10.989,29.768-24.649,3.07-14.116-2.6-26.579-14.316-34.468-.985-.663-3.625-1.544-3.585-2.86a38.731,38.731,0,0,1,2.815-5.817c1.194-.726,4.365,1.419,5.489,2.122A40.139,40.139,0,0,1,162.38,64.217c5.564,24.67-12.431,48.286-37.637,49.042.51,2.627-.29,7.713-3.943,5.126a79.322,79.322,0,0,1-7.209-7.215c-.992-1.327-1.1-2.17-.126-3.55a84.156,84.156,0,0,1,7.52-7.427c1.126-.7,1.931-.864,2.983.075a4.655,4.655,0,0,1,.775,1.061Zm-2.887,9.965c-.056-2.349-.315-4.32,2.517-4.7,6.823-.908,10.483-1,16.806-4.437,24.27-13.189,26.1-48.367,2.948-63.616-.532-.351-2.948-2-3.363-1.708l-.811,2.073c19.2,10.055,24.087,35.66,10.483,52.577-5.406,6.723-14.986,12.239-23.713,12.739-4.17.239-5.069.007-4.994-4.469l-5.621,5.863Z" transform="translate(-83.209 -27.437)" fill="#5d0b80"/>
            <path id="Trazado_1266574" data-name="Trazado 1266574" d="M78.111,86.605a8.308,8.308,0,0,0,2.192.842c.859.027,1.528-.78,2.852-.513.612.123.849.795,1.315.795.212,0,2.562-1.758,3.185-2.072A14.3,14.3,0,1,1,98,112.131c1.228,4.677,1.093,8.627-1.489,12.8-7.867,12.722-27.866,5.7-26.3-9.255.144-1.373,1.535-4.455,1.09-5.347a6.512,6.512,0,0,0-2.346-1.323c-.614-.039-1.4,1.13-2.986.622a8.458,8.458,0,0,1-2.826-2.962c-.26-1.265.726-1.778.723-2.561a14.552,14.552,0,0,0-.791-2.075c-.708-.945-2.418-.348-2.8-2.445-.26-1.428-.212-3.394,1.155-4.225.453-.276,1.367-.383,1.607-.623a19.731,19.731,0,0,0,.8-1.972c.143-.944-1.09-1.513-.629-2.964a14.937,14.937,0,0,1,2.514-2.736c1.472-.627,2.354.581,4.071.137,2.219-.575,1.146-1.428,2.2-2.519.839-.866,3.619-.859,4.668-.44,1.343.536.958,1.826,1.444,2.36M86.16,97.7c-.115-.138-1.693-.13-2.4-1.4-.157-.283-1.446-3.337-1.474-3.526-.147-.976,1.377-1.857.362-2.713-.579-.488-1.3.473-2.143.538a19.242,19.242,0,0,1-4.169-1.559c-.945-.672-.7-2.24-1.828-2.122-.792.083-.713,1.514-1.568,2.122a19.242,19.242,0,0,1-4.169,1.559c-.848-.065-1.565-1.026-2.143-.538-1,.847.48,1.707.359,2.71a20.841,20.841,0,0,1-2.062,4.25c-.562.452-1.849.5-1.838,1.06.026,1.242,1.422.925,2.226,1.983A19.9,19.9,0,0,1,67,104.113c-.015.688-1.272,1.849-.508,2.367.664.451,1.369-.315,2-.4,1.043-.143,4.159,1.238,4.96,2.087a14.887,14.887,0,0,1,5.57-4.126c.846-.328,3.015-.688,3.468-.991.628-.42.993-2.433,1.576-3.145.492-.6,2.936-1.195,2.09-2.206m7.621,8.641,2.8,3.11a11.4,11.4,0,1,0-6.022-21.935c-.908.318-3.772,1.849-4.24,2.578-.071.111-.915,2.345-.914,2.477a22.1,22.1,0,0,0,.831,2.165c.238.274,1.44.371,2.052.965,1.152,1.118,1.158,4.632-.3,5.506-.923.554-2.212.248-2.079,1.984a11.152,11.152,0,0,1,6.95,2.622c.83-2.249-.819-1.8-1.928-3.055-.764-.862-1.743-2.988-.117-3.46,1.8-.522,1.635,1.121,2.563,1.8s2.839.561,2.5-.656c-.183-.647-5.016-.592-5.488-3.691a3.658,3.658,0,0,1,1.424-3.787c.285-.243.9-.275,1.061-.512.414-.626-.376-2.038,1.3-2.134,1.811-.1,1.248,1.41,1.84,2.117.376.449,1.644.682,2.19,1.743.388.754.631,2.355-.414,2.67-2.041.615-1.737-1.418-2.679-1.676-1.154-.315-2.692.254-1.6,1.34.936.93,3.654.392,4.836,2.506,1.075,1.922.178,3.438-1.288,4.7-.28.241-.8.238-1.045.529-.635.759-.107,2.541-2.235,2.095m-10.549-.454c-14.8,1.545-12.839,24.585,3.047,22.714,13.8-1.625,12.194-24.305-3.047-22.714" transform="translate(-44.378 -61.948)" fill="#5d0b80"/>
            <path id="Trazado_1266575" data-name="Trazado 1266575" d="M149.86,180.392H157.6c1,0,1.859,2.352.207,2.829a75.115,75.115,0,0,1-9.4.069,1.485,1.485,0,0,1-1.442-1.442,62.617,62.617,0,0,1,.07-9.136,1.453,1.453,0,0,1,2.829-.056Z" transform="translate(-108.324 -126.563)" fill="#5d0b80"/>
            <path id="Trazado_1266576" data-name="Trazado 1266576" d="M99.412,117.4c6.316-.659,8.574,8.26,2.785,10.665-7.916,3.289-11.084-9.8-2.785-10.665m2.6,3.691c-2.506-2.835-6.749,1.582-3.6,4,2.7,2.073,5.591-1.745,3.6-4" transform="translate(-69.736 -86.583)" fill="#5d0b80"/>
          </g>
        </g>
      </g>
    </g>
  </g>
</svg>
