<svg xmlns="http://www.w3.org/2000/svg" xmlns:xlink="http://www.w3.org/1999/xlink" width="140.5" height="140" viewBox="0 0 140.5 140">
  <defs>
    <clipPath id="clip-path">
      <rect id="Rectángulo_454807" data-name="Rectángulo 454807" width="129.392" height="128.578" fill="#ffdc6b"/>
    </clipPath>
    <clipPath id="clip-path-2">
      <rect id="Rectángulo_455239" data-name="Rectángulo 455239" width="21.905" height="21.167" fill="#f0d5fe"/>
    </clipPath>
    <clipPath id="clip-path-3">
      <rect id="Rectángulo_456963" data-name="Rectángulo 456963" width="88" height="88" transform="translate(-0.213)" fill="#fff" stroke="#707070" stroke-width="1"/>
    </clipPath>
    <clipPath id="clip-path-4">
      <rect id="Rectángulo_458545" data-name="Rectángulo 458545" width="66.024" height="73.922" fill="none"/>
    </clipPath>
  </defs>
  <g id="Grupo_1205857" data-name="Grupo 1205857" transform="translate(-925.044 -4485.507)">
    <g id="Grupo_1205854" data-name="Grupo 1205854" transform="translate(925.044 4485.507)">
      <g id="Grupo_1177797" data-name="Grupo 1177797" transform="translate(3.608 3.493)">
        <rect id="Rectángulo_454806" data-name="Rectángulo 454806" width="129.392" height="128.578" rx="7" transform="translate(0.059)" fill="#e3a4fe"/>
        <path id="Rectángulo_454808" data-name="Rectángulo 454808" d="M0,0H90.392a12,12,0,0,1,12,12v88.578a0,0,0,0,1,0,0H12a12,12,0,0,1-12-12V0A0,0,0,0,1,0,0Z" transform="translate(15.059 14)" fill="#fff"/>
      </g>
      <g id="OBJECTS" transform="translate(0 0)">
        <g id="Grupo_1178078" data-name="Grupo 1178078">
          <path id="Trazado_998163" data-name="Trazado 998163" d="M0,0V21.167H14.386V13.534h7.52V0Z" transform="translate(0 0)" fill="#5d0b80"/>
          <g id="Grupo_1178077" data-name="Grupo 1178077" transform="translate(0 0)">
            <g id="Grupo_1178076" data-name="Grupo 1178076" clip-path="url(#clip-path-2)">
              <path id="Trazado_998164" data-name="Trazado 998164" d="M13.917,22.751a5.075,5.075,0,1,1,5.075,5.075,5.075,5.075,0,0,1-5.075-5.075" transform="translate(-11.423 -14.509)" fill="#fbf1ff"/>
            </g>
          </g>
        </g>
      </g>
      <rect id="Rectángulo_455274" data-name="Rectángulo 455274" width="13.423" height="19.449" transform="translate(108.404 120.551)" fill="#f0d5fe"/>
      <path id="Sustracción_129" data-name="Sustracción 129" d="M17.284,16.99H7.538V9.581H0V0H17.284Z" transform="translate(140 117.538) rotate(180)" fill="#5d0b80" stroke="rgba(0,0,0,0)" stroke-miterlimit="10" stroke-width="1"/>
    </g>
    <g id="Grupo_1119223" data-name="Grupo 1119223" transform="translate(948.896 4510.767)" clip-path="url(#clip-path-3)">
      <g id="Grupo_1207732" data-name="Grupo 1207732" transform="translate(12.076 7.039)">
        <g id="Grupo_1207731" data-name="Grupo 1207731" clip-path="url(#clip-path-4)">
          <path id="Trazado_1267205" data-name="Trazado 1267205" d="M64.136,61.393a13.724,13.724,0,0,1-4.045-.606V93.4a3.81,3.81,0,0,1-3.81,3.811H24.556v3.956a3.81,3.81,0,0,0,3.811,3.81H66.116a3.81,3.81,0,0,0,3.811-3.81V60.114a13.67,13.67,0,0,1-5.791,1.279" transform="translate(-13.276 -32.501)" fill="#96fef0"/>
          <path id="Trazado_1267206" data-name="Trazado 1267206" d="M43.552,9.947H6.954a3.811,3.811,0,0,0-3.811,3.811V66.279A3.811,3.811,0,0,0,6.954,70.09H44.7a3.811,3.811,0,0,0,3.811-3.811V33.953" transform="translate(-1.699 -5.378)" fill="#faf7f5"/>
          <path id="Trazado_1267207" data-name="Trazado 1267207" d="M94.571,3.143A13.724,13.724,0,1,1,80.849,16.867,13.723,13.723,0,0,1,94.571,3.143" transform="translate(-43.711 -1.699)" fill="#fbce73"/>
          <rect id="Rectángulo_458544" data-name="Rectángulo 458544" width="26.017" height="6.098" transform="translate(11.121 15.971)" fill="#ffe6b4"/>
          <path id="Trazado_1267208" data-name="Trazado 1267208" d="M109.035,38.52a1.444,1.444,0,0,1-1.444-1.444V27.2a1.444,1.444,0,0,1,2.887,0v9.873a1.444,1.444,0,0,1-1.444,1.444" transform="translate(-58.17 -13.927)"/>
          <path id="Trazado_1267209" data-name="Trazado 1267209" d="M109.022,15.646a1.444,1.444,0,1,1-1.444,1.444,1.444,1.444,0,0,1,1.444-1.444" transform="translate(-58.163 -8.459)"/>
          <path id="Trazado_1267210" data-name="Trazado 1267210" d="M66.024,15.168A15.158,15.158,0,0,0,41.648,3.125H5.254A5.26,5.26,0,0,0,0,8.379V60.9a5.26,5.26,0,0,0,5.254,5.255H9.836v2.512a5.261,5.261,0,0,0,5.254,5.254H52.839a5.261,5.261,0,0,0,5.254-5.254V48.642a1.444,1.444,0,1,0-2.887,0V68.668a2.37,2.37,0,0,1-2.367,2.367H15.09a2.37,2.37,0,0,1-2.367-2.367V66.155H43A5.261,5.261,0,0,0,48.258,60.9V30.113a15.218,15.218,0,0,0,6.948-.412v5.887a1.444,1.444,0,1,0,2.887,0V28.5A15.181,15.181,0,0,0,66.024,15.168ZM45.371,60.9A2.37,2.37,0,0,1,43,63.268H5.254A2.37,2.37,0,0,1,2.887,60.9V8.379A2.369,2.369,0,0,1,5.254,6.013h33.52a15.088,15.088,0,0,0-3.068,8.514H11.121a1.444,1.444,0,0,0-1.444,1.444v6.1a1.444,1.444,0,0,0,1.444,1.444H37.138a1.437,1.437,0,0,0,.873-.294,15.254,15.254,0,0,0,7.36,6.09ZM35.694,17.415v3.21H12.564v-3.21ZM50.859,27.448A12.28,12.28,0,1,1,63.136,15.168,12.293,12.293,0,0,1,50.859,27.448"/>
          <path id="Trazado_1267211" data-name="Trazado 1267211" d="M121.631,91.377a1.444,1.444,0,1,1,1.407-1.116,1.458,1.458,0,0,1-1.407,1.116" transform="translate(-64.982 -47.844)"/>
          <path id="Trazado_1267212" data-name="Trazado 1267212" d="M48.528,65.006H22.511a1.444,1.444,0,1,1,0-2.887H48.528a1.444,1.444,0,0,1,0,2.887" transform="translate(-11.39 -33.585)"/>
          <path id="Trazado_1267213" data-name="Trazado 1267213" d="M48.528,79.914H22.511a1.444,1.444,0,1,1,0-2.887H48.528a1.444,1.444,0,1,1,0,2.887" transform="translate(-11.39 -41.645)"/>
          <path id="Trazado_1267214" data-name="Trazado 1267214" d="M48.528,94.822H22.511a1.444,1.444,0,0,1,0-2.887H48.528a1.444,1.444,0,0,1,0,2.887" transform="translate(-11.39 -49.705)"/>
          <path id="Trazado_1267215" data-name="Trazado 1267215" d="M48.528,109.73H22.511a1.444,1.444,0,1,1,0-2.887H48.528a1.444,1.444,0,1,1,0,2.887" transform="translate(-11.39 -57.765)"/>
        </g>
      </g>
    </g>
  </g>
</svg>
