<svg xmlns="http://www.w3.org/2000/svg" xmlns:xlink="http://www.w3.org/1999/xlink" width="396" height="361.284" viewBox="0 0 396 361.284">
  <defs>
    <clipPath id="clip-path">
      <rect id="Rectángulo_458547" data-name="Rectángulo 458547" width="396" height="338.302" fill="none"/>
    </clipPath>
  </defs>
  <g id="Grupo_1207118" data-name="Grupo 1207118" transform="translate(0.48)">
    <g id="Grupo_1206741" data-name="Grupo 1206741" transform="translate(0 0)">
      <g id="Grupo_1204235" data-name="Grupo 1204235">
        <rect id="Rectángulo_402012" data-name="Rectángulo 402012" width="395.52" height="361.284" fill="#fbf1ff"/>
      </g>
      <g id="Grupo_1207734" data-name="Grupo 1207734" transform="translate(-0.48 22.983)">
        <g id="Grupo_1207733" data-name="Grupo 1207733" clip-path="url(#clip-path)">
          <path id="Trazado_1267216" data-name="Trazado 1267216" d="M306.035,203.389l-13.211-5.9A13.24,13.24,0,0,1,286.136,180l22.489-50.342a13.241,13.241,0,0,1,17.489-6.689l13.21,5.9a13.241,13.241,0,0,1,6.689,17.489L323.524,196.7a13.24,13.24,0,0,1-17.489,6.688" transform="translate(45.398 19.405)" fill="#3e4e79"/>
          <rect id="Rectángulo_458546" data-name="Rectángulo 458546" width="396" height="132.079" transform="translate(0 206.222)" fill="#ffe9a1"/>
          <path id="Trazado_1267217" data-name="Trazado 1267217" d="M131.438,224.783l45.79-14.911v-3.808l-66.544-32.94L90.158,186.532Z" transform="translate(14.362 27.579)" fill="#77ac9a"/>
          <path id="Trazado_1267218" data-name="Trazado 1267218" d="M125.491,215.212l36.356-12.4L133,190.061l-7.153,5.125Z" transform="translate(19.991 30.277)" fill="#c4bdb2"/>
          <path id="Trazado_1267219" data-name="Trazado 1267219" d="M109.784,76.211s0,10.677-9.811,20.632l20.777,20.921,11.4-6.06v-11.11s-5.339-7.647-.289-19.19Z" transform="translate(15.926 12.141)" fill="#c7653b"/>
          <path id="Trazado_1267220" data-name="Trazado 1267220" d="M106.788,48.74a11.359,11.359,0,0,0-3.251,8.084,33.706,33.706,0,0,0,1.329,8.822l2.621,10.8c.941,3.877,2.037,8.017,5.059,10.622a14.056,14.056,0,0,0,4.928,2.574c5.317,1.711,11.776,1.371,15.691-2.612,2.109-2.147,3.222-5.064,4.128-7.933,1.6-5.062,1.485-10.455,1.571-15.772.093-5.748-.458-11.616-2.831-16.918-.907-2.024-2.057-4.449-4.278-5.092-2.239-.648-5.5-.225-7.8-.06-4.17.3-8.4.834-12.194,2.6s-7.111,4.947-8.13,9" transform="translate(16.493 6.526)" fill="#c7653b"/>
          <path id="Trazado_1267221" data-name="Trazado 1267221" d="M111.655,65.944c3.2,5.545,2.65,11.856-1.231,14.1S100.8,79.6,97.6,74.059s-2.65-11.856,1.231-14.1,9.623.437,12.824,5.982" transform="translate(15.216 9.426)" fill="#c7653b"/>
          <path id="Trazado_1267222" data-name="Trazado 1267222" d="M111.334,46.48a25.449,25.449,0,0,1-1.621,12.437c-.871,2.177-2.069,4.383-1.811,6.716.22,1.977,1.461,4.059.51,5.8a25.172,25.172,0,0,0-3.607-5.576c-1.346-1.579-3.273-3.106-5.295-2.629A22.6,22.6,0,0,1,102.1,47.947a8.589,8.589,0,0,1,2.324-2.81,3.924,3.924,0,0,1,3.474-.668,7.053,7.053,0,0,1,2.226-4.587c4.178-4.244,10.746-5.577,16.569-4.327s9.725,6.493,15.1,9.069c2.885,1.382.25,1.432.111,1.81-.063.172-.259.112-.107.214,1.922,1.279-.639,1.631-.561,2.793l.47,6.976c.151,2.257-.379,3.426-.835,5.642q-.734,3.56-1.467,7.118a19.931,19.931,0,0,0-.5-6.564A36.6,36.6,0,0,1,137.4,57.7c-.443-3.31-2.557-5.976-4.841-8.412a8.453,8.453,0,0,0-3.819-2.544,2.867,2.867,0,0,1-1.563-.685c-.569-.682.071-1.181.487-1.966a6.476,6.476,0,0,0-3.869,1.589c-.369.381.844-1.462,1.079-1.87l-2.666,1.959c.045-.454-.161-.937-1.07-.269-.966.708-1-.218-1.238-.6-3.237,2.563-5.653,2.117-8.563,1.579" transform="translate(15.792 5.592)" fill="#21252b"/>
          <path id="Trazado_1267223" data-name="Trazado 1267223" d="M118.311,62.609c0,1.463-.748,2.648-1.669,2.648s-1.669-1.185-1.669-2.648.748-2.648,1.669-2.648,1.669,1.185,1.669,2.648" transform="translate(18.315 9.552)" fill="#21252b"/>
          <path id="Trazado_1267224" data-name="Trazado 1267224" d="M129.286,60.622c0,1.463-.748,2.648-1.669,2.648s-1.669-1.185-1.669-2.648.748-2.648,1.669-2.648,1.669,1.185,1.669,2.648" transform="translate(20.064 9.235)" fill="#21252b"/>
          <path id="Trazado_1267225" data-name="Trazado 1267225" d="M121.427,55.865a14.392,14.392,0,0,0,1.169,7.119c.468,1.113,1.107,2.1,1.659,3.167.677,1.309-.22,2.256-1.148,3.127-.545.512.276,1.331.82.82a4.665,4.665,0,0,0,1.761-2.8c.107-1.256-.815-2.31-1.367-3.357a14.11,14.11,0,0,1-1.734-8.073c.08-.741-1.079-.735-1.159,0" transform="translate(19.332 8.811)" fill="#21252b"/>
          <path id="Trazado_1267226" data-name="Trazado 1267226" d="M127.243,75.179a8.186,8.186,0,0,1-5.159,2.064c-3.849.209-5.808-1.8-6.608-3.559a4.729,4.729,0,0,1-.441-1.646c-.1-1.751,5.9-1.113,11.941-2.029,2.852-.429,2.759,2.875.267,5.17" transform="translate(18.325 11.146)" fill="#21252b"/>
          <path id="Trazado_1267227" data-name="Trazado 1267227" d="M127.182,74.813a8.186,8.186,0,0,1-5.159,2.064c-3.849.209-5.808-1.8-6.608-3.559a10.389,10.389,0,0,1,8.011-.464,12.064,12.064,0,0,1,3.756,1.959" transform="translate(18.386 11.513)" fill="#d56273"/>
          <path id="Trazado_1267228" data-name="Trazado 1267228" d="M100.4,62.936c-1.461,1.4-1.376,3.668-1.045,5.5a12.253,12.253,0,0,0,2.719,5.693c.481.572,1.3-.253.82-.82a11.085,11.085,0,0,1-2.353-4.841c-.315-1.49-.532-3.559.679-4.717.54-.517-.281-1.336-.82-.82" transform="translate(15.795 10)" fill="#21252b"/>
          <path id="Trazado_1267229" data-name="Trazado 1267229" d="M100.18,69.084c1.031-.066,1.848.8,2.5,1.492a13.416,13.416,0,0,1,1.942,2.7c.359.654,1.361.07,1-.584a14.668,14.668,0,0,0-2.242-3.059,4.322,4.322,0,0,0-3.2-1.706.592.592,0,0,0-.58.58.585.585,0,0,0,.58.58" transform="translate(15.866 10.82)" fill="#21252b"/>
          <path id="Trazado_1267230" data-name="Trazado 1267230" d="M112.02,82.208a18.857,18.857,0,0,0,14.192,3.442c.735-.117.423-1.234-.308-1.118a17.72,17.72,0,0,1-13.3-3.325c-.6-.446-1.178.559-.585,1" transform="translate(17.805 12.919)" fill="#21252b"/>
          <path id="Trazado_1267231" data-name="Trazado 1267231" d="M113.259,56.45a6.8,6.8,0,0,1,6.534-2.491c.052-.379.1-.759.154-1.138-2.932-.318-5.608,1.142-7.825,2.912-.53.423.146,1.214.7.91a17.122,17.122,0,0,1,6.074-1.965c-.051-.379-.1-.758-.154-1.138-.576.128-1.157.235-1.742.313a.6.6,0,0,0-.58.58.584.584,0,0,0,.58.58c.689-.092,1.371-.205,2.051-.354.626-.138.5-1.22-.154-1.14a18.633,18.633,0,0,0-6.659,2.124l.7.91c1.992-1.591,4.382-2.857,7.006-2.572.647.07.794-1.014.154-1.138a7.934,7.934,0,0,0-7.662,2.789.6.6,0,0,0,0,.82.582.582,0,0,0,.82,0" transform="translate(17.831 8.395)" fill="#21252b"/>
          <path id="Trazado_1267232" data-name="Trazado 1267232" d="M125.512,53.246c1.42-.652,2.99.362,4.155,1.089q.224-.53.446-1.06a16.661,16.661,0,0,0-5.085-.5c.051.379.1.758.154,1.138a8.1,8.1,0,0,1,4.531.614q.224-.53.447-1.06a11.636,11.636,0,0,0-3.025-.624.584.584,0,0,0-.58.58.591.591,0,0,0,.58.58,10.492,10.492,0,0,1,2.716.582c.612.216,1.048-.788.446-1.06a9.521,9.521,0,0,0-5.424-.732.581.581,0,0,0,.154,1.14,15.607,15.607,0,0,1,4.777.457.582.582,0,0,0,.446-1.06,9.929,9.929,0,0,0-2.559-1.264,4.006,4.006,0,0,0-2.767.176.584.584,0,0,0-.208.793.593.593,0,0,0,.793.208" transform="translate(19.826 8.269)" fill="#21252b"/>
          <path id="Trazado_1267233" data-name="Trazado 1267233" d="M106.58,61.961a55.084,55.084,0,0,0-.6,5.951c-.034.747,1.126.744,1.159,0a52.289,52.289,0,0,1,.561-5.642.6.6,0,0,0-.4-.713.585.585,0,0,0-.713.4" transform="translate(16.882 9.803)" fill="#21252b"/>
          <path id="Trazado_1267234" data-name="Trazado 1267234" d="M107.136,64.018q-.334,2.9-.667,5.794a.584.584,0,0,0,.58.58.594.594,0,0,0,.58-.58q.334-2.9.667-5.794a.583.583,0,0,0-.58-.58.594.594,0,0,0-.58.58" transform="translate(16.96 10.106)" fill="#21252b"/>
          <path id="Trazado_1267235" data-name="Trazado 1267235" d="M107.581,66.516q-.243,1.965-.357,3.942a.58.58,0,1,0,1.159,0q.113-1.977.357-3.942a.584.584,0,0,0-.58-.58.594.594,0,0,0-.58.58" transform="translate(17.081 10.504)" fill="#21252b"/>
          <path id="Trazado_1267236" data-name="Trazado 1267236" d="M99.973,95.336l4.553-9.663,12.494,5.1-4.11,13.644,10.356,8.712s8.384-16.11,7.891-16.11-2.138-5.918-1.644-7.4c0,0,5.1-.658,6.576.493s-1.644,8.549-1.644,8.549v92.715h-24l-.987-83.674Z" transform="translate(15.926 13.648)" fill="#f9f3ed"/>
          <path id="Trazado_1267237" data-name="Trazado 1267237" d="M111.585,94.009c-.734-.242-24.893,7.2-27.961,8.514s-17.971,48.364-18.265,48.949-15.926-32.586-15.926-32.586L27.078,135.4l18.849,54.5h76.129l-.987-83.524s-4.317-10.648-9.484-12.365" transform="translate(4.314 14.975)" fill="#5d71e0"/>
          <path id="Trazado_1267238" data-name="Trazado 1267238" d="M130.06,95.176l-1.9,43.98.584,3.361,1.209,47.344H141.9l6.429-37.7s13.442,18.7,12.858,19-19.872,13.15-19.872,13.15l15.342,13.588s34.629-13.442,36.382-21.771-27.908-66.044-32.145-70.135-30.83-10.813-30.83-10.813" transform="translate(20.416 15.162)" fill="#5d71e0"/>
          <path id="Trazado_1267239" data-name="Trazado 1267239" d="M51.216,120.2l-2.858-16.038L30.732,98.608,27.4,103.372s10.8,3.812,10.8,3.335-30.33,2.381-30.33,2.381l-1.9,4.6,16.831-.159S1.039,119.727,1.2,120.2s.794,3.652.794,3.652L23.9,119.886l-16.355,4.6.159,3.811,16.038-2.381-13.02,6.034,1.429,3.017s23.818-2.222,24.135-2.858S51.216,120.2,51.216,120.2" transform="translate(0.191 15.708)" fill="#c7653b"/>
          <path id="Trazado_1267240" data-name="Trazado 1267240" d="M144.969,173.53c-1.112.159-20.8,5.4-20.8,5.4l-.794,30.011L131,207.669l7.3-11.114s16.2-4.447,18.1-12.068Z" transform="translate(19.654 27.644)" fill="#c7653b"/>
          <path id="Trazado_1267241" data-name="Trazado 1267241" d="M108.767,105.07a53.209,53.209,0,0,0,2.441-7.04,13.582,13.582,0,0,1,1.185-3.262,32.887,32.887,0,0,1,2.162-3.023c.443-.6-.562-1.18-1-.585-.708.96-1.494,1.9-2.1,2.926a12.878,12.878,0,0,0-1.238,3.2,56.281,56.281,0,0,1-2.445,7.2c-.291.678.707,1.269,1,.585" transform="translate(17.159 14.482)" fill="#21252b"/>
          <path id="Trazado_1267242" data-name="Trazado 1267242" d="M113.391,91.449q-1.073,5.808-2.612,11.515a.58.58,0,0,0,1.118.308q1.539-5.7,2.612-11.515c.134-.729-.982-1.042-1.118-.308" transform="translate(17.644 14.501)" fill="#21252b"/>
          <path id="Trazado_1267243" data-name="Trazado 1267243" d="M127.366,95.592q-4.247,7.944-8.374,15.952c-.341.662.658,1.249,1,.584q4.127-8.006,8.374-15.951c.352-.658-.648-1.244-1-.585" transform="translate(18.945 15.182)" fill="#21252b"/>
          <path id="Trazado_1267244" data-name="Trazado 1267244" d="M130.337,89.183a142.968,142.968,0,0,1-1.291,16.339c-.1.729,1.017,1.046,1.118.308A145.735,145.735,0,0,0,131.5,89.183a.58.58,0,0,0-1.159,0" transform="translate(20.556 14.118)" fill="#21252b"/>
          <path id="Trazado_1267245" data-name="Trazado 1267245" d="M124.6,107.116a7.391,7.391,0,0,1,.894-2.076q.576-1.151,1.152-2.3l2.263-4.524-.793.208c.247.16.279.525.308.792.042.385.061.774.09,1.16q.1,1.294.2,2.588c.057.738,1.217.745,1.159,0q-.125-1.64-.253-3.277a2.633,2.633,0,0,0-.919-2.263.583.583,0,0,0-.793.208q-1.172,2.342-2.343,4.684l-1.152,2.3a7.793,7.793,0,0,0-.931,2.195.6.6,0,0,0,.4.713.583.583,0,0,0,.713-.4" transform="translate(19.669 15.507)" fill="#21252b"/>
          <path id="Trazado_1267246" data-name="Trazado 1267246" d="M103.742,86.167A81.445,81.445,0,0,0,114.636,90.1a.58.58,0,0,0,.307-1.118,79.537,79.537,0,0,1-10.616-3.815c-.676-.3-1.267.7-.585,1" transform="translate(16.478 13.558)" fill="#21252b"/>
          <path id="Trazado_1267247" data-name="Trazado 1267247" d="M118.686,110.011q.463,26.536,1.279,53.064.231,7.5.492,14.993c.026.744,1.185.748,1.159,0q-.918-26.524-1.482-53.059-.158-7.5-.289-15a.58.58,0,0,0-1.159,0" transform="translate(18.907 17.436)" fill="#21252b"/>
          <path id="Trazado_1267248" data-name="Trazado 1267248" d="M147.035,131.152q-1.969,13-3.938,26c-.11.728,1.006,1.045,1.118.307q1.97-13,3.938-25.994c.111-.732-1.006-1.045-1.118-.31" transform="translate(22.794 20.826)" fill="#21252b"/>
          <path id="Trazado_1267249" data-name="Trazado 1267249" d="M147.637,134.568l.73-.867a.64.64,0,0,0,.17-.41.592.592,0,0,0-.17-.41.583.583,0,0,0-.409-.169.575.575,0,0,0-.41.169l-.73.868a.427.427,0,0,0-.119.187.434.434,0,0,0-.051.223.59.59,0,0,0,.17.41.583.583,0,0,0,.409.169.568.568,0,0,0,.41-.169" transform="translate(23.361 21.141)" fill="#21252b"/>
          <path id="Trazado_1267250" data-name="Trazado 1267250" d="M79.031,130.165q1.188,9.569,3.044,19.038c.144.732,1.261.422,1.118-.307q-1.829-9.31-3-18.731c-.09-.73-1.251-.74-1.159,0" transform="translate(12.589 20.648)" fill="#21252b"/>
          <path id="Trazado_1267251" data-name="Trazado 1267251" d="M77.439,130.6a11.906,11.906,0,0,0,1.868,2.713.583.583,0,0,0,.82,0,.592.592,0,0,0,0-.82q-.263-.287-.5-.591a.675.675,0,0,1-.057-.072c.024.039.045.06.007.008s-.083-.109-.124-.165c-.077-.1-.151-.21-.224-.316a11.338,11.338,0,0,1-.785-1.342.582.582,0,0,0-.793-.208.594.594,0,0,0-.208.793" transform="translate(12.325 20.666)" fill="#21252b"/>
          <path id="Trazado_1267252" data-name="Trazado 1267252" d="M59.035,144.084a19.839,19.839,0,0,1,.786,6.6q.063,3.462-.159,6.919c-.048.745,1.112.743,1.159,0,.15-2.394.205-4.791.153-7.19a20.139,20.139,0,0,0-.822-6.632c-.257-.693-1.378-.393-1.118.308" transform="translate(9.398 22.841)" fill="#21252b"/>
          <path id="Trazado_1267253" data-name="Trazado 1267253" d="M59.079,143.229a56.827,56.827,0,0,1,2.947,8.449.58.58,0,0,0,1.118-.308,58.6,58.6,0,0,0-3.064-8.726c-.3-.681-1.3-.092-1,.585" transform="translate(9.403 22.675)" fill="#21252b"/>
          <path id="Trazado_1267254" data-name="Trazado 1267254" d="M26.424,119.495a10.044,10.044,0,0,1,4.665-2.95,17.666,17.666,0,0,1,5.647-1.077.58.58,0,0,0,0-1.159,18.628,18.628,0,0,0-6.318,1.257,10.978,10.978,0,0,0-4.994,3.345c-.445.6.561,1.179,1,.585" transform="translate(4.032 18.209)" fill="#21252b"/>
          <path id="Trazado_1267255" data-name="Trazado 1267255" d="M27.994,132.157a113.358,113.358,0,0,0,17.343-13.049c.552-.5-.27-1.323-.82-.82a111.688,111.688,0,0,1-17.109,12.868c-.635.388-.053,1.391.585,1" transform="translate(4.323 18.818)" fill="#21252b"/>
          <path id="Trazado_1267256" data-name="Trazado 1267256" d="M140.034,172.336q6.738,6.349,13.951,12.162c.576.464,1.4-.351.82-.82q-7.208-5.81-13.951-12.162c-.543-.511-1.365.307-.82.82" transform="translate(22.279 27.297)" fill="#21252b"/>
          <path id="Trazado_1267257" data-name="Trazado 1267257" d="M126.851,201.9l2.417-4.015a28.369,28.369,0,0,1,2.421-3.872,17.853,17.853,0,0,1,3.442-2.628l3.838-2.7c.605-.427.027-1.432-.585-1l-3.945,2.772a18.873,18.873,0,0,0-3.569,2.735,26.555,26.555,0,0,0-2.394,3.762l-2.625,4.359a.58.58,0,0,0,1,.585" transform="translate(20.034 29.883)" fill="#21252b"/>
          <path id="Trazado_1267258" data-name="Trazado 1267258" d="M125.9,194.666q1.456-2.527,2.975-5.015a9.745,9.745,0,0,1,.7-1.122c.232-.283.706-.332,1.034-.443a14.746,14.746,0,0,0,2.556-1.158.58.58,0,0,0-.585-1,13.11,13.11,0,0,1-2.621,1.154,2.614,2.614,0,0,0-1.138.556,6.019,6.019,0,0,0-.781,1.167q-1.605,2.617-3.135,5.277a.58.58,0,0,0,1,.585" transform="translate(19.883 29.605)" fill="#21252b"/>
          <path id="Trazado_1267259" data-name="Trazado 1267259" d="M125.943,186.735a9.245,9.245,0,0,1,1.209-1.247c.051-.044.1-.087.155-.13.03-.023.059-.048.088-.071s.1-.09.008-.007a4.13,4.13,0,0,1,.347-.253q.362-.25.747-.466a.58.58,0,1,0-.585-1,9.642,9.642,0,0,0-2.788,2.356.629.629,0,0,0-.17.409.58.58,0,0,0,.99.41" transform="translate(19.905 29.229)" fill="#21252b"/>
          <path id="Trazado_1267260" data-name="Trazado 1267260" d="M135.282,230.052,66.023,195.715v-55.67l69.259,34.337Z" transform="translate(10.518 22.309)" fill="#77ac9a"/>
          <path id="Trazado_1267261" data-name="Trazado 1267261" d="M96.762,179.379c0,4.657-1.63,8.433-3.64,8.433s-3.639-3.776-3.639-8.433,1.629-8.433,3.639-8.433,3.64,3.776,3.64,8.433" transform="translate(14.255 27.232)" fill="#f9f3ed"/>
          <path id="Trazado_1267262" data-name="Trazado 1267262" d="M123.428,116.547c0,1.019-.461,1.846-1.032,1.846s-1.031-.827-1.031-1.846.461-1.846,1.031-1.846,1.032.827,1.032,1.846" transform="translate(19.334 18.272)" fill="#21252b"/>
          <path id="Trazado_1267263" data-name="Trazado 1267263" d="M123.9,132.465c0,1.019-.461,1.846-1.032,1.846s-1.031-.827-1.031-1.846.461-1.846,1.031-1.846,1.032.827,1.032,1.846" transform="translate(19.408 20.808)" fill="#21252b"/>
          <path id="Trazado_1267264" data-name="Trazado 1267264" d="M124.271,148.1c0,1.019-.461,1.846-1.032,1.846s-1.031-.827-1.031-1.846.461-1.846,1.031-1.846,1.032.827,1.032,1.846" transform="translate(19.468 23.299)" fill="#21252b"/>
          <path id="Trazado_1267265" data-name="Trazado 1267265" d="M125.02,161.024c0,1.019-.461,1.846-1.032,1.846s-1.031-.827-1.031-1.846.461-1.846,1.031-1.846,1.032.827,1.032,1.846" transform="translate(19.587 25.357)" fill="#21252b"/>
          <path id="Trazado_1267266" data-name="Trazado 1267266" d="M156.644,161.649c3.874-2.674,8.727-2.339,13.192-1.991.744.058.74-1.1,0-1.159-4.665-.364-9.733-.642-13.777,2.149-.61.421-.03,1.426.585,1" transform="translate(24.819 25.213)" fill="#21252b"/>
          <path id="Trazado_1267267" data-name="Trazado 1267267" d="M157.941,160.7a10.725,10.725,0,0,1,7.8-3.632.58.58,0,0,0,0-1.159,11.874,11.874,0,0,0-8.616,3.972c-.492.558.325,1.381.82.82" transform="translate(25.005 24.837)" fill="#21252b"/>
          <path id="Trazado_1267268" data-name="Trazado 1267268" d="M99.787,94.9a68.257,68.257,0,0,1-4.025,30.317.558.558,0,0,0,.15.563c3.59,2.963,8.915,2.847,12.194,6.221.521.537,1.34-.284.82-.82-3.327-3.423-8.6-3.253-12.194-6.221q.073.282.148.565A69.058,69.058,0,0,0,100.946,94.9c-.07-.736-1.23-.743-1.159,0" transform="translate(15.251 15.029)" fill="#21252b"/>
          <path id="Trazado_1267269" data-name="Trazado 1267269" d="M107.677,126.343a23.458,23.458,0,0,1-6.252,5.276c-.612.362-1.329.765-1.475,1.522a5.788,5.788,0,0,0,.758,2.9c1.086,2.637,2.52,5.125,3.651,7.746a59.1,59.1,0,0,1,2.912,8.312,41.29,41.29,0,0,1,1.42,9.941.58.58,0,0,0,1.159,0,47.193,47.193,0,0,0-3.478-16.377c-1.009-2.589-2.183-5.1-3.432-7.582a27.222,27.222,0,0,1-1.653-3.814,1.949,1.949,0,0,1-.2-.911c.078-.293.519-.49.754-.633a25.517,25.517,0,0,0,6.658-5.559c.471-.572-.344-1.4-.82-.82" transform="translate(15.917 20.095)" fill="#21252b"/>
          <path id="Trazado_1267270" data-name="Trazado 1267270" d="M130.76,96.071q1.581,7.975,3.3,15.921.854,3.939,1.744,7.867.461,2.036.931,4.068c.14.607.284,1.215.423,1.822.07.3.22.719.054,1.009-.151.262-.554.436-.791.6l-7.466,5.128c-.612.42-.032,1.425.584,1l7-4.806c.9-.62,1.963-1.127,1.887-2.379a24.979,24.979,0,0,0-.866-3.943q-1.949-8.484-3.733-17.006-1-4.789-1.953-9.589c-.145-.732-1.262-.422-1.118.308" transform="translate(20.502 15.189)" fill="#21252b"/>
          <path id="Trazado_1267271" data-name="Trazado 1267271" d="M128.868,128.858l2.212,2.506,1.106,1.253c.417.472.905.829.752,1.52-.473,2.124-1.151,4.211-1.643,6.336a124.811,124.811,0,0,0-2.271,12.975c-.09.738,1.07.733,1.159,0a121.732,121.732,0,0,1,2.554-14.03q.414-1.7.876-3.389c.239-.874.786-2,.422-2.905a4.222,4.222,0,0,0-.846-1.118l-1.106-1.253-2.4-2.715c-.5-.561-1.312.262-.82.82" transform="translate(20.505 20.367)" fill="#21252b"/>
          <path id="Trazado_1267272" data-name="Trazado 1267272" d="M258.517,188.2H174.236l13.32-27.394-.151-2.852c-.441-1.8,2.4-2.991,2.852-3.142s-2.852-22-2.852-22l56.18-10.77a24.072,24.072,0,0,1,2.829,2.481,28.035,28.035,0,0,1,3.153,3.756c14.259,20.044,8.95,59.924,8.95,59.924" transform="translate(27.756 19.441)" fill="#77ac9a"/>
          <path id="Trazado_1267273" data-name="Trazado 1267273" d="M189.179,10.658c.461-.77,4.779-8.407,17.546-10.466,4.772-.77,6,1.077,10.312.308a11.62,11.62,0,0,1-6.926,3.232s9.542-.308,14.621,21.085,22.318,10.466,28.474,10.312c0,0-4.925,5.387-10.312,5.541,0,0,18.162,12.774,14.776,38.324,0,0-10.446,42.3-21.7,33.861-.616-.463-28.782-52.638-28.782-52.638Z" transform="translate(30.137 0)" fill="#c7653b"/>
          <path id="Trazado_1267274" data-name="Trazado 1267274" d="M194.857,52.437c-.924.154-14.621,0-23.086,4.463s-11.852,48.175-11.852,48.175-17.546,22.471-14.775,36.323,19.967,24.944,22.471,14.929c.154-.616,34.938-12,34.938-12s31.86,2.154,45.712-10.775c0,0,1.847-8,2-11.236L245.34,90.761l20.008,43.1,36.786-5.849S264.425,70.445,261.348,63.98s-6.311-14.621-29.243-14.16a319.766,319.766,0,0,0-37.247,2.617" transform="translate(23.074 7.934)" fill="#f9f3ed"/>
          <path id="Trazado_1267275" data-name="Trazado 1267275" d="M185.994,16.377c-3.007.166-5.635,2.123-7.633,4.379a24.159,24.159,0,0,0-4.627,7.81,20.06,20.06,0,0,0-.75,11.688c1.089,4.231,3.747,7.858,6.35,11.367a57.742,57.742,0,0,0,6.573,7.852,28.99,28.99,0,0,0,7.855,5.271,12.339,12.339,0,0,0,3.871,1.167,12.851,12.851,0,0,0,4.355-.49c3.1-.783,6.2-2.06,8.348-4.423,2.852-3.132,3.576-7.6,4.177-11.791.692-4.834,1.381-9.8.314-14.564-1.835-8.2-8.832-14.619-16.786-17.333-5.468-1.865-11.94-2.057-16.621,1.33" transform="translate(27.469 2.546)" fill="#de9d8f"/>
          <path id="Trazado_1267276" data-name="Trazado 1267276" d="M178.28,50.022s9.851-14.314,9.851-30.936c0,0,11.852,20.931,26.934,19.239,0,0,2.925-7.7.77-14.314s-10-18.47-29.859-14.16-18.162,34.784-7.7,40.171" transform="translate(27.184 1.422)" fill="#c7653b"/>
          <path id="Trazado_1267277" data-name="Trazado 1267277" d="M217.685,35.451c-.766,5.044-3.84,8.761-6.865,8.3s-4.856-4.92-4.091-9.964,3.84-8.761,6.865-8.3,4.857,4.92,4.091,9.964" transform="translate(32.905 4.054)" fill="#de9d8f"/>
          <path id="Trazado_1267278" data-name="Trazado 1267278" d="M145.5,104.564l27.242,50.022,39.094-8.927L190.9,94.559Z" transform="translate(23.178 15.063)" fill="#21252b"/>
          <path id="Trazado_1267279" data-name="Trazado 1267279" d="M145.633,112.842,148.557,121l-.616,2.309,4.31,4.925,2.462-.307,2.155,6.771,4.309.308,2.155,3.694,7.541-3.848-1.231-3.386,1.693-1.077-1.847-6-3.386.77-1.847-5.079,2.464-1.847-3.233-8Z" transform="translate(23.2 17.559)" fill="#de9d8f"/>
          <path id="Trazado_1267280" data-name="Trazado 1267280" d="M193.059,58.075s2.8,10,5.3,10.741,7.357-11.477,7.21-14.714Z" transform="translate(30.755 8.619)" fill="#de9d8f"/>
          <path id="Trazado_1267281" data-name="Trazado 1267281" d="M185.14,17.5a35.839,35.839,0,0,0,6.5,19.724c.425.605,1.432.027,1-.585A34.75,34.75,0,0,1,186.3,17.5a.58.58,0,0,0-1.159,0" transform="translate(29.493 2.698)" fill="#c7653b"/>
          <path id="Trazado_1267282" data-name="Trazado 1267282" d="M185.893,18.617a22.278,22.278,0,0,0,7.837,16.4c.568.478,1.392-.339.82-.82a21.145,21.145,0,0,1-7.5-15.58.58.58,0,0,0-1.159,0" transform="translate(29.613 2.877)" fill="#c7653b"/>
          <path id="Trazado_1267283" data-name="Trazado 1267283" d="M185.245,18.964a36.2,36.2,0,0,0,1.793,17.781c.255.694,1.375.394,1.118-.308a35.011,35.011,0,0,1-1.793-17.165c.109-.73-1.009-1.045-1.118-.308" transform="translate(29.446 2.954)" fill="#c7653b"/>
          <path id="Trazado_1267284" data-name="Trazado 1267284" d="M186.206,20.12a24.4,24.4,0,0,0,18.239,15.054c.73.128,1.043-.989.308-1.119a23.239,23.239,0,0,1-17.43-14.243c-.267-.689-1.388-.39-1.118.308" transform="translate(29.656 3.094)" fill="#c7653b"/>
          <path id="Trazado_1267285" data-name="Trazado 1267285" d="M204.855,33.8a17.878,17.878,0,0,0,.647,7.239.581.581,0,0,0,1.119-.308,17.062,17.062,0,0,1-.606-6.93.584.584,0,0,0-.58-.58.592.592,0,0,0-.58.58" transform="translate(32.615 5.293)" fill="#c7653b"/>
          <path id="Trazado_1267286" data-name="Trazado 1267286" d="M205.678,34.171a20.332,20.332,0,0,0,1.654,7.081.584.584,0,0,0,.794.208.594.594,0,0,0,.206-.793,18.7,18.7,0,0,1-1.5-6.5c-.037-.743-1.2-.747-1.159,0" transform="translate(32.765 5.354)" fill="#c7653b"/>
          <path id="Trazado_1267287" data-name="Trazado 1267287" d="M211.1,29.587a7.2,7.2,0,0,1,1.077,9.565c-.43.611.575,1.191,1,.585a8.35,8.35,0,0,0-1.259-10.97c-.554-.5-1.377.321-.82.82" transform="translate(33.599 4.558)" fill="#21252b"/>
          <path id="Trazado_1267288" data-name="Trazado 1267288" d="M213.454,33.481a8.531,8.531,0,0,0-3.223,3.492.579.579,0,1,0,1,.584,8.065,8.065,0,0,1,.555-.953c.049-.072.1-.144.151-.214l.094-.126c-.049.066,0,0,.023-.028q.172-.216.358-.419a8.134,8.134,0,0,1,.78-.742l.1-.083c.007,0,.143-.108.049-.038.07-.052.14-.1.211-.155.158-.111.32-.216.485-.316a.58.58,0,1,0-.585-1" transform="translate(33.479 5.321)" fill="#21252b"/>
          <path id="Trazado_1267289" data-name="Trazado 1267289" d="M213.98,42.425a2.606,2.606,0,1,1-2.606-2.606,2.606,2.606,0,0,1,2.606,2.606" transform="translate(33.257 6.343)" fill="#f9f3ed"/>
          <path id="Trazado_1267290" data-name="Trazado 1267290" d="M186.976,38.7a7.733,7.733,0,0,1,1.675,3.2c.2,1.272-.439,2.512-.6,3.756a4.162,4.162,0,0,0,.707,3.2,2.743,2.743,0,0,0,2.713,1.014c.729-.153.421-1.271-.308-1.118-.969.2-1.727-.677-1.931-1.534a7.189,7.189,0,0,1,.408-3.321,5.249,5.249,0,0,0-.074-3.073,11,11,0,0,0-1.585-2.706c-.436-.6-1.442-.017-1,.585" transform="translate(29.768 6.032)" fill="#21252b"/>
          <path id="Trazado_1267291" data-name="Trazado 1267291" d="M189.747,52.16c3.752.995,7.342-.834,10.293-3,.595-.437.017-1.443-.585-1-2.685,1.973-5.961,3.8-9.4,2.886a.58.58,0,0,0-.308,1.118" transform="translate(30.162 7.654)" fill="#21252b"/>
          <path id="Trazado_1267292" data-name="Trazado 1267292" d="M190.949,59.435c4.736,1.724,9.613-.169,13.981-2.04.684-.293.094-1.293-.585-1-4.09,1.753-8.657,3.537-13.087,1.924-.7-.256-1.005.864-.308,1.118" transform="translate(30.356 8.975)" fill="#21252b"/>
          <path id="Trazado_1267293" data-name="Trazado 1267293" d="M202.5,58.477A37.068,37.068,0,0,1,197.668,69.2c-.413.624.591,1.206,1,.584a38.081,38.081,0,0,0,4.951-10.994.58.58,0,0,0-1.118-.308" transform="translate(31.473 9.25)" fill="#21252b"/>
          <path id="Trazado_1267294" data-name="Trazado 1267294" d="M194.29,63.143a16.1,16.1,0,0,0,4.68,5.181.584.584,0,0,0,.793-.208.592.592,0,0,0-.208-.793,14.8,14.8,0,0,1-4.265-4.766.58.58,0,0,0-1,.585" transform="translate(30.938 9.92)" fill="#21252b"/>
          <path id="Trazado_1267295" data-name="Trazado 1267295" d="M188.778,60.851c.626,3.84.042,7.784.907,11.6a10.675,10.675,0,0,0,5.924,7.6c.675.3,1.265-.693.584-1a9.836,9.836,0,0,1-5.539-7.641c-.645-3.585-.172-7.264-.759-10.86-.119-.734-1.237-.423-1.116.308" transform="translate(30.071 9.578)" fill="#21252b"/>
          <path id="Trazado_1267296" data-name="Trazado 1267296" d="M196.458,67.8a12.065,12.065,0,0,0-1.5,6.584c.052,1.92.335,4.7,2.77,4.9.743.06.74-1.1,0-1.159-1.791-.147-1.633-3.244-1.616-4.46a10.449,10.449,0,0,1,1.352-5.275.58.58,0,0,0-1-.585" transform="translate(31.055 10.756)" fill="#21252b"/>
          <path id="Trazado_1267297" data-name="Trazado 1267297" d="M200.074,65.107c-.607,1.092.226,2.122.791,3.032a16.811,16.811,0,0,1,1.806,3.594c.7,2.141.585,4.721-1.236,6.28-.567.485.256,1.3.821.82a6.461,6.461,0,0,0,1.891-5.915,11.556,11.556,0,0,0-1.233-3.545c-.32-.623-.678-1.224-1.048-1.819-.27-.435-1.084-1.332-.791-1.86.364-.654-.636-1.238-1-.587" transform="translate(31.838 10.326)" fill="#21252b"/>
          <path id="Trazado_1267298" data-name="Trazado 1267298" d="M198.008,70.526a27.478,27.478,0,0,0,.031,5.139c.129,1.231.489,2.549,1.758,3.029.7.264,1-.856.308-1.118-.905-.343-.912-1.866-.969-2.644a28.1,28.1,0,0,1,.031-4.407c.063-.743-1.1-.74-1.159,0" transform="translate(31.526 11.146)" fill="#21252b"/>
          <path id="Trazado_1267299" data-name="Trazado 1267299" d="M199.863,70.937q-.577,2.408-1.313,4.775c-.223.714.9,1.02,1.118.308q.737-2.365,1.314-4.775c.174-.726-.944-1.035-1.118-.308" transform="translate(31.625 11.234)" fill="#21252b"/>
          <path id="Trazado_1267300" data-name="Trazado 1267300" d="M207.925,56.757a43.576,43.576,0,0,1-3.254,17.017c-.283.69.838.991,1.118.308a44.437,44.437,0,0,0,3.3-17.326.58.58,0,0,0-1.159,0" transform="translate(32.597 8.952)" fill="#21252b"/>
          <path id="Trazado_1267301" data-name="Trazado 1267301" d="M196.131,78.862a40.824,40.824,0,0,1-4.98,17.975c-.359.655.642,1.24,1,.585a42.132,42.132,0,0,0,5.139-18.56c.029-.747-1.13-.744-1.159,0" transform="translate(30.438 12.474)" fill="#21252b"/>
          <path id="Trazado_1267302" data-name="Trazado 1267302" d="M199.685,80.667a68.622,68.622,0,0,0-.187,29.16,17.731,17.731,0,0,0,2.63,6.933c.436.6,1.442.019,1-.585a15.454,15.454,0,0,1-2.341-5.863,65.144,65.144,0,0,1-1.2-7.167,67.8,67.8,0,0,1-.1-14.03,66.847,66.847,0,0,1,1.311-8.139c.163-.727-.954-1.038-1.118-.308" transform="translate(31.545 12.784)" fill="#21252b"/>
          <path id="Trazado_1267303" data-name="Trazado 1267303" d="M202.933,80.548c.3,9.4-.4,18.88,1.164,28.2a13.416,13.416,0,0,0,2.342,6.217c.457.588,1.272-.238.82-.82-1.629-2.095-1.973-4.969-2.32-7.518a84.49,84.49,0,0,1-.671-8.692c-.183-5.8.013-11.594-.175-17.39-.024-.744-1.184-.748-1.159,0" transform="translate(32.327 12.742)" fill="#21252b"/>
          <path id="Trazado_1267304" data-name="Trazado 1267304" d="M191.191,94.62a16.136,16.136,0,0,0,6.76,5.7.6.6,0,0,0,.793-.209.584.584,0,0,0-.208-.793,15.058,15.058,0,0,1-6.345-5.279c-.415-.614-1.42-.035-1,.585" transform="translate(30.441 14.938)" fill="#21252b"/>
          <path id="Trazado_1267305" data-name="Trazado 1267305" d="M202.625,112.961a24.089,24.089,0,0,0,6.576-2.932c.626-.4.045-1.405-.585-1a23.032,23.032,0,0,1-6.3,2.815.58.58,0,0,0,.308,1.118" transform="translate(32.164 17.353)" fill="#21252b"/>
          <path id="Trazado_1267306" data-name="Trazado 1267306" d="M203.489,75.308a76.077,76.077,0,0,0,2.144,14.38c1.076,4.3,2.338,8.921,5.082,12.495q.174-.426.347-.852c-2.787.6-3.837,3.567-6.064,5-.625.4-.044,1.407.585,1a13.452,13.452,0,0,0,2.761-2.681,5.777,5.777,0,0,1,3.026-2.2.583.583,0,0,0,.347-.852c-2.69-3.5-3.913-8-4.965-12.218a74.54,74.54,0,0,1-2.1-14.072c-.039-.742-1.2-.747-1.159,0" transform="translate(32.416 11.908)" fill="#21252b"/>
          <path id="Trazado_1267307" data-name="Trazado 1267307" d="M230.113,76.835q1.7,12.842,3.4,25.684c.1.729,1.257.738,1.159,0q-1.7-12.842-3.4-25.684c-.1-.729-1.257-.738-1.159,0" transform="translate(36.656 12.152)" fill="#21252b"/>
          <path id="Trazado_1267308" data-name="Trazado 1267308" d="M231.518,80a4.989,4.989,0,0,1,.136-.533c.028-.087.058-.174.092-.26.015-.043.037-.085.05-.128-.048.161-.015.038,0,0a4.911,4.911,0,0,1,.553-.929.581.581,0,0,0,.058-.447.594.594,0,0,0-.265-.347.587.587,0,0,0-.447-.058.681.681,0,0,0-.347.267,5.275,5.275,0,0,0-.949,2.131.617.617,0,0,0,.058.446.58.58,0,0,0,1.06-.138" transform="translate(36.7 12.309)" fill="#21252b"/>
          <path id="Trazado_1267309" data-name="Trazado 1267309" d="M177.613,72.645c2.438,10.253-5.893,21.2-.161,31.022a.58.58,0,0,0,1-.585c-2.569-4.4-2.009-9.753-1.046-14.538,1.074-5.326,2.615-10.773,1.323-16.207-.173-.726-1.29-.419-1.118.308" transform="translate(27.941 11.457)" fill="#21252b"/>
          <path id="Trazado_1267310" data-name="Trazado 1267310" d="M176.153,73.776a6.1,6.1,0,0,0,1.585,3.91.583.583,0,0,0,.82,0,.591.591,0,0,0,0-.82,5.219,5.219,0,0,1-.883-1.395,5.787,5.787,0,0,1-.267-.88,3.656,3.656,0,0,1-.1-.816.58.58,0,0,0-1.159,0" transform="translate(28.061 11.66)" fill="#21252b"/>
          <path id="Trazado_1267311" data-name="Trazado 1267311" d="M208.176,126.242a16.818,16.818,0,0,0,4.575,5.713.6.6,0,0,0,.82,0,.583.583,0,0,0,0-.82,16.042,16.042,0,0,1-4.394-5.479.585.585,0,0,0-.793-.208.592.592,0,0,0-.208.793" transform="translate(33.151 19.972)" fill="#21252b"/>
          <path id="Trazado_1267312" data-name="Trazado 1267312" d="M212.461,125.965a29.876,29.876,0,0,0,1.4,5.415.594.594,0,0,0,.713.4.585.585,0,0,0,.4-.713,29.878,29.878,0,0,1-1.4-5.415.584.584,0,0,0-.713-.4.593.593,0,0,0-.4.713" transform="translate(33.844 19.95)" fill="#21252b"/>
          <path id="Trazado_1267313" data-name="Trazado 1267313" d="M223.456,122.77q.179,2.436.359,4.871a.594.594,0,0,0,.58.58.584.584,0,0,0,.58-.58q-.179-2.435-.359-4.871a.6.6,0,0,0-.58-.58.584.584,0,0,0-.58.58" transform="translate(35.597 19.465)" fill="#21252b"/>
          <path id="Trazado_1267314" data-name="Trazado 1267314" d="M227.235,119.579a65.073,65.073,0,0,1-.172,6.89c-.059.743,1.1.74,1.159,0a65.073,65.073,0,0,0,.172-6.89.58.58,0,0,0-1.159,0" transform="translate(36.171 18.96)" fill="#21252b"/>
          <path id="Trazado_1267315" data-name="Trazado 1267315" d="M247.6,127.935c-7.559,3.362-33.828,14.12-60.481,14.6l-.556-3.675s31.51-1.751,57.884-14.677a28.035,28.035,0,0,1,3.153,3.756" transform="translate(29.72 19.782)" fill="#21252b"/>
          <path id="Trazado_1267316" data-name="Trazado 1267316" d="M226.006,128.134s2,7.454,2.336,7.343,3.672-1.447,3.672-1.447-1.78-7.9-2.225-7.454a22.832,22.832,0,0,1-3.783,1.558" transform="translate(36.003 20.161)" fill="#77ac9a"/>
          <path id="Trazado_1267317" data-name="Trazado 1267317" d="M203.263,134.339c-.111.334,1,5.451,1.336,5.34s6.787-1.557,6.787-1.557L209.271,133Z" transform="translate(32.379 21.188)" fill="#f9f3ed"/>
          <path id="Trazado_1267318" data-name="Trazado 1267318" d="M204.707,135.268c-.223.334.445,2.336.445,2.336l4.562-.778-1.113-2.671Z" transform="translate(32.603 21.371)" fill="#21252b"/>
          <path id="Trazado_1267319" data-name="Trazado 1267319" d="M225.607,136.247a32.114,32.114,0,0,0,7.765,10.977,31.535,31.535,0,0,0,5.364,3.989,13.574,13.574,0,0,0,6.924,2.174.58.58,0,0,0,0-1.159,12.9,12.9,0,0,1-6.752-2.263,30.406,30.406,0,0,1-5.053-3.873,31.328,31.328,0,0,1-7.249-10.43c-.292-.684-1.289-.094-1,.585" transform="translate(35.931 21.563)" fill="#21252b"/>
          <path id="Trazado_1267320" data-name="Trazado 1267320" d="M205.042,141.112l1.221,17.947q.151,2.226.3,4.451a38.564,38.564,0,0,0,.319,4.207c.228,1.274,1.229,1.8,2.3,2.335a29.583,29.583,0,0,0,3.733,1.543c.709.24,1.014-.88.31-1.118a27.108,27.108,0,0,1-3.688-1.544c-.55-.279-1.239-.544-1.46-1.17a7.785,7.785,0,0,1-.2-1.956q-.28-4.092-.558-8.185L206.2,141.112c-.051-.741-1.211-.745-1.159,0" transform="translate(32.663 22.391)" fill="#21252b"/>
          <path id="Trazado_1267321" data-name="Trazado 1267321" d="M209.258,166.574q-.219,7.121-.437,14.241c-.023.747,1.136.745,1.159,0q.219-7.121.437-14.241c.023-.747-1.136-.745-1.159,0" transform="translate(33.265 26.446)" fill="#21252b"/>
          <path id="Trazado_1267322" data-name="Trazado 1267322" d="M204.719,165.706l6.346,1.429c.726.163,1.036-.954.307-1.119l-6.345-1.428c-.727-.163-1.038.953-.308,1.118" transform="translate(32.546 26.217)" fill="#21252b"/>
          <path id="Trazado_1267323" data-name="Trazado 1267323" d="M210.884,167.438a24.048,24.048,0,0,1,5.519-.766.58.58,0,0,0,0-1.159,25.438,25.438,0,0,0-5.828.808.58.58,0,0,0,.308,1.118" transform="translate(33.479 26.366)" fill="#21252b"/>
          <path id="Trazado_1267324" data-name="Trazado 1267324" d="M210.485,167.608q2.781,1.155,5.663,2.033c.715.218,1.021-.9.308-1.119q-2.88-.876-5.663-2.032a.582.582,0,0,0-.713.4.594.594,0,0,0,.4.713" transform="translate(33.463 26.517)" fill="#21252b"/>
          <path id="Trazado_1267325" data-name="Trazado 1267325" d="M240.612,137.627a160.862,160.862,0,0,1,3.4,33.277q-.012,4.72-.3,9.432c-.045.745,1.114.743,1.159,0a162.3,162.3,0,0,0-1.457-33.588q-.7-4.739-1.686-9.429c-.152-.729-1.269-.421-1.118.308" transform="translate(38.328 21.809)" fill="#21252b"/>
          <path id="Trazado_1267326" data-name="Trazado 1267326" d="M228.668,154.772a259.533,259.533,0,0,0,.4,27.045c.05.741,1.209.745,1.159,0a259.533,259.533,0,0,1-.4-27.045c.028-.747-1.132-.745-1.159,0" transform="translate(36.398 24.566)" fill="#21252b"/>
          <path id="Trazado_1267327" data-name="Trazado 1267327" d="M197.343,150.486a4.585,4.585,0,0,1-1.724,2.139,10.393,10.393,0,0,0-2.4,1.962,1.68,1.68,0,0,0,.594,2.545c.22.1.461.167.677.282.075.039.223.105.257.185.044.1,0,.079-.039.181a4.813,4.813,0,0,1-1.193,1.381c-.548.508.272,1.326.82.82a8.877,8.877,0,0,0,1.245-1.424,1.344,1.344,0,0,0,.226-1.442,2.17,2.17,0,0,0-1.231-.914c-.2-.08-.445-.151-.531-.364a.737.737,0,0,1,.177-.661,5.414,5.414,0,0,1,1.224-1c.423-.3.844-.6,1.244-.934a5.272,5.272,0,0,0,1.773-2.451c.225-.713-.894-1.019-1.118-.308" transform="translate(30.725 23.908)" fill="#21252b"/>
          <path id="Trazado_1267328" data-name="Trazado 1267328" d="M195.042,158.145q-4.789,10.286-10.031,20.353c-.344.661.656,1.247,1,.585q5.241-10.063,10.03-20.353c.313-.672-.685-1.262-1-.585" transform="translate(29.461 25.145)" fill="#21252b"/>
          <path id="Trazado_1267329" data-name="Trazado 1267329" d="M186.242,41.518c.612,1.329.429,2.717-.408,3.1s-2.013-.378-2.625-1.706-.429-2.717.408-3.1,2.013.378,2.625,1.706" transform="translate(29.128 6.326)" fill="#21252b"/>
          <path id="Trazado_1267330" data-name="Trazado 1267330" d="M196.192,38.723c.612,1.329.428,2.717-.409,3.1s-2.013-.378-2.625-1.706-.429-2.717.408-3.1,2.013.378,2.626,1.706" transform="translate(30.713 5.881)" fill="#21252b"/>
          <path id="Trazado_1267331" data-name="Trazado 1267331" d="M175.059,21.8a21.714,21.714,0,0,0-4.943,11.31,33.707,33.707,0,0,0-.322,6.33,15.276,15.276,0,0,0,1.523,6.643,7.876,7.876,0,0,0,4.847,4.005.58.58,0,0,0,.308-1.118c-5.407-1.391-5.742-8.305-5.5-12.824.257-4.86,1.638-9.813,4.91-13.527.492-.558-.326-1.381-.82-.82" transform="translate(27.043 3.443)" fill="#c7653b"/>
          <path id="Trazado_1267332" data-name="Trazado 1267332" d="M172.054,30.138a18.167,18.167,0,0,0-.1,10.529,16.927,16.927,0,0,0,2.21,4.768c.963,1.41,2.368,2.531,4.167,2.171.732-.145.422-1.264-.308-1.118-1.722.344-2.833-1.486-3.542-2.757a16.645,16.645,0,0,1-1.651-4.3,16.975,16.975,0,0,1,.344-8.99c.225-.713-.894-1.019-1.118-.308" transform="translate(27.276 4.737)" fill="#c7653b"/>
          <path id="Trazado_1267333" data-name="Trazado 1267333" d="M206.574,4.817c3.149-.169,5.624,2.249,7.495,4.5a34.758,34.758,0,0,1,4.915,8.09c2.4,5.357,3.843,12.105,9.424,15.168a8.49,8.49,0,0,0,8.631-.03c.621-.407.042-1.412-.585-1a7.455,7.455,0,0,1-8.049-.32,15.479,15.479,0,0,1-5.285-6.736c-1.34-2.884-2.279-5.937-3.663-8.8a34.474,34.474,0,0,0-4.891-7.57c-2.017-2.337-4.709-4.631-7.991-4.455-.742.041-.747,1.2,0,1.159" transform="translate(32.819 0.581)" fill="#c7653b"/>
          <path id="Trazado_1267334" data-name="Trazado 1267334" d="M234.107,36.018c9.032,3.262,16.685,10.932,17.757,20.79a28.43,28.43,0,0,1-.741,9.226c-.161.727.956,1.036,1.119.307a30.737,30.737,0,0,0,.864-8.567,23.335,23.335,0,0,0-1.782-7.535,26.746,26.746,0,0,0-9.371-11.463,31.835,31.835,0,0,0-7.538-3.874c-.7-.254-1.006.866-.308,1.118" transform="translate(37.231 5.554)" fill="#c7653b"/>
          <path id="Trazado_1267335" data-name="Trazado 1267335" d="M190.231,9.877a16.7,16.7,0,0,1,12.236,1.289,20.188,20.188,0,0,1,8.179,8.927,54.743,54.743,0,0,1,2.788,6.584c.252.7,1.374.4,1.119-.308-1.5-4.127-3.225-8.259-6.039-11.679a17.754,17.754,0,0,0-18.592-5.93.58.58,0,0,0,.308,1.118" transform="translate(30.19 1.291)" fill="#21252b"/>
          <path id="Trazado_1267336" data-name="Trazado 1267336" d="M155.508,98.85l4.3,7.373,14.541-3.072-4.1-8.806Z" transform="translate(24.773 15.029)" fill="#c4bdb2"/>
          <path id="Trazado_1267337" data-name="Trazado 1267337" d="M159.623,155.844l-.205.205a.438.438,0,0,0-.119.187.431.431,0,0,0-.05.223.437.437,0,0,0,.05.224.445.445,0,0,0,.119.187l.118.09a.575.575,0,0,0,.292.079l.154-.021a.563.563,0,0,0,.255-.148l.205-.205a.428.428,0,0,0,.119-.187.514.514,0,0,0,0-.446.428.428,0,0,0-.119-.187l-.117-.09a.576.576,0,0,0-.292-.079l-.154.02a.58.58,0,0,0-.256.15" transform="translate(25.368 24.799)" fill="#c4bdb2"/>
          <path id="Trazado_1267338" data-name="Trazado 1267338" d="M148.541,119.934l15.034-2.176c.736-.107.423-1.223-.307-1.118l-15.035,2.176c-.735.107-.423,1.223.308,1.118" transform="translate(23.547 18.58)" fill="#21252b"/>
          <path id="Trazado_1267339" data-name="Trazado 1267339" d="M151.6,126.508q7.288-1.363,14.484-3.16a.581.581,0,0,0-.308-1.119q-7.192,1.8-14.484,3.161c-.733.137-.422,1.254.308,1.118" transform="translate(24.035 19.468)" fill="#21252b"/>
          <path id="Trazado_1267340" data-name="Trazado 1267340" d="M157.334,132.648a104.625,104.625,0,0,1,11.282-4.058.581.581,0,0,0-.308-1.119,107.113,107.113,0,0,0-11.559,4.176c-.684.291-.094,1.29.585,1" transform="translate(24.922 20.302)" fill="#21252b"/>
          <path id="Trazado_1267341" data-name="Trazado 1267341" d="M161.955,190.378l-.365,1.71,13.688,32.42S213.461,212.14,213.1,212.14s-.6-2.521-.6-2.521Z" transform="translate(25.742 30.328)" fill="#d56273"/>
          <path id="Trazado_1267342" data-name="Trazado 1267342" d="M162.96,186.79c-.527.351-1.055,4.747-1.055,4.747l14.242,32.881s37.629-12.661,37.1-12.485-.7-4.4-.7-4.4l-10.2-24.44Z" transform="translate(25.792 29.168)" fill="#f9f3ed"/>
          <path id="Trazado_1267343" data-name="Trazado 1267343" d="M163.422,187.623q5.09,13.28,10.966,26.243,1.678,3.7,3.42,7.37c.319.674,1.319.086,1-.585q-6.06-12.778-11.35-25.9-1.49-3.7-2.919-7.432c-.264-.69-1.385-.39-1.118.308" transform="translate(26.027 29.777)" fill="#21252b"/>
          <path id="Trazado_1267344" data-name="Trazado 1267344" d="M164.5,194.438a215.949,215.949,0,0,0,10.943,25.573c.337.665,1.338.08,1-.585a213.533,213.533,0,0,1-10.827-25.3c-.247-.7-1.367-.4-1.118.308" transform="translate(26.2 30.862)" fill="#21252b"/>
          <path id="Trazado_1267345" data-name="Trazado 1267345" d="M176.607,218.163c9.395-5.191,20.231-6.992,29.6-12.239a.58.58,0,0,0-.585-1c-9.369,5.245-20.205,7.046-29.6,12.239-.653.361-.068,1.362.585,1" transform="translate(27.995 32.632)" fill="#21252b"/>
          <path id="Trazado_1267346" data-name="Trazado 1267346" d="M180.508,217.682q12.613-4.641,25.121-9.56c.686-.27.387-1.391-.308-1.118q-12.508,4.918-25.121,9.56c-.694.255-.394,1.376.308,1.118" transform="translate(28.643 32.969)" fill="#21252b"/>
          <path id="Trazado_1267347" data-name="Trazado 1267347" d="M196.824,187.608a7.09,7.09,0,0,1,2.329-1.244,2.1,2.1,0,0,1,1.88.352,2.055,2.055,0,0,1,.523,1.8,6.711,6.711,0,0,1-1.09,2.447.58.58,0,0,0,1,.585c.815-1.348,1.671-2.956,1.079-4.564a3.039,3.039,0,0,0-3.783-1.717,8.128,8.128,0,0,0-2.526,1.34.6.6,0,0,0-.208.793.585.585,0,0,0,.793.208" transform="translate(31.216 29.493)" fill="#c7653b"/>
          <path id="Trazado_1267348" data-name="Trazado 1267348" d="M198.456,191.811a.547.547,0,0,1,.058-.148c.012-.021.121-.189.079-.136a1.492,1.492,0,0,1,.123-.134c.019-.019.168-.14.118-.1a1.73,1.73,0,0,1,.212-.13s.159-.073.09-.045a1.77,1.77,0,0,1,.241-.078c.023-.007.23-.05.159-.039a1.9,1.9,0,0,1,1.585.565c.9.843,1.63,2.527.821,3.6a.582.582,0,0,0,.208.793.594.594,0,0,0,.793-.208c.929-1.229.446-3.039-.341-4.209a3.289,3.289,0,0,0-3.654-1.582,2.41,2.41,0,0,0-1.609,1.55c-.225.713.894,1.019,1.118.308" transform="translate(31.432 30.239)" fill="#c7653b"/>
          <path id="Trazado_1267349" data-name="Trazado 1267349" d="M200.223,196.12a3.472,3.472,0,0,1,3.728-.281,1.524,1.524,0,0,1,.675,1.572,4.6,4.6,0,0,1-.708,2.1c-.4.635.606,1.217,1,.584a5.806,5.806,0,0,0,.873-2.774,2.625,2.625,0,0,0-1.121-2.4,4.564,4.564,0,0,0-5.033.195.6.6,0,0,0-.208.793.585.585,0,0,0,.793.208" transform="translate(31.757 30.945)" fill="#c7653b"/>
          <path id="Trazado_1267350" data-name="Trazado 1267350" d="M201.538,199.91a2.8,2.8,0,0,1,4.484,3.132.6.6,0,0,0,.208.793.584.584,0,0,0,.793-.209,4.089,4.089,0,0,0-.4-3.972,3.9,3.9,0,0,0-3.717-1.572,4,4,0,0,0-2.185,1.007c-.553.5.268,1.32.82.82" transform="translate(31.945 31.549)" fill="#c7653b"/>
          <path id="Trazado_1267351" data-name="Trazado 1267351" d="M203.683,203.185a3.311,3.311,0,0,1,.345-.2c.06-.027.06-.028,0,0q.047-.019.094-.035.094-.033.191-.059c.064-.016.13-.028.195-.043s.065-.012-.006,0l.1-.01a2.707,2.707,0,0,1,.4,0c.028,0,.236.031.1.007.066.01.131.023.2.038a2.544,2.544,0,0,1,.38.121c-.124-.051.067.035.088.046.059.031.116.065.173.1.02.013.187.134.086.054.052.042.1.086.151.132s.094.094.138.145c.022.024.044.05.065.077-.041-.052-.041-.051,0,0a3.173,3.173,0,0,1,.2.344q.023.045.042.09c-.027-.061-.027-.061,0,0s.043.125.061.19.034.129.048.195c.006.027.03.236.017.093a2.9,2.9,0,0,1,.014.4c0,.066-.008.133-.015.2.015-.144-.015.066-.021.092a2.593,2.593,0,0,1-.115.383c.048-.125-.035.066-.046.088-.03.059-.065.116-.1.173a.585.585,0,0,0,.209.793.592.592,0,0,0,.793-.208,3.209,3.209,0,0,0,.085-3.143,3.124,3.124,0,0,0-4.442-1.058.58.58,0,0,0,.585,1" transform="translate(32.308 32.125)" fill="#c7653b"/>
          <path id="Trazado_1267352" data-name="Trazado 1267352" d="M170.148,192.87a14.583,14.583,0,0,1,4.056-1.726c.428-.105.569-.1.809.278a1.18,1.18,0,0,0,.38.454,1.413,1.413,0,0,0,1.384-.123c.6-.33,1.157-.735,1.77-1.05.4-.2.757-.468,1.2-.275a6.755,6.755,0,0,0,.728.347c1.377.415,2.7-.306,3.838-1.011.632-.394.051-1.4-.585-1a5.157,5.157,0,0,1-2.2.965c-.749.059-1.174-.465-1.858-.556a3.246,3.246,0,0,0-1.821.589q-.5.263-.981.56c-.2.122-.632.531-.873.521.073,0,.046.019-.023-.157a1.144,1.144,0,0,0-.7-.679,2.638,2.638,0,0,0-1.62.086,16.09,16.09,0,0,0-4.095,1.78.58.58,0,0,0,.585,1" transform="translate(26.968 30.056)" fill="#c4bdb2"/>
          <path id="Trazado_1267353" data-name="Trazado 1267353" d="M171.52,196.38c.992-.242,1.81-.951,2.8-1.162a5.244,5.244,0,0,1,1.606.172,3.372,3.372,0,0,0,1.457-.235,9.4,9.4,0,0,1,2.88-1.071c1.106-.032,2.268.3,3.1-.654.488-.56-.329-1.383-.821-.82a1.674,1.674,0,0,1-1.514.356,5.033,5.033,0,0,0-1.56.06c-.963.225-1.77.846-2.714,1.118s-1.851-.276-2.825-.026-1.754.908-2.72,1.144c-.725.176-.417,1.295.308,1.118" transform="translate(27.208 30.653)" fill="#c4bdb2"/>
          <path id="Trazado_1267354" data-name="Trazado 1267354" d="M172.886,199.813l3.049-1.371c.461-.208.905-.525,1.4-.3a1.965,1.965,0,0,0,1.1.3,11.268,11.268,0,0,0,2.51-.947,13.481,13.481,0,0,1,2.974-.658c.735-.077.743-1.237,0-1.159a14.83,14.83,0,0,0-3.092.636c-.429.14-.85.3-1.264.481-.441.19-1.014.62-1.5.436-.456-.172-.7-.42-1.229-.348a4.753,4.753,0,0,0-1.271.47l-3.253,1.463c-.679.3-.09,1.3.585,1" transform="translate(27.4 31.171)" fill="#c4bdb2"/>
          <path id="Trazado_1267355" data-name="Trazado 1267355" d="M184.955,188.542l-.066-.032c.1.167.192.333.288.5-.009.043-.019.085-.029.126l-.345.267.087-.023-.446-.058c-.117-.077-.007.274,0,.328q.054.285.115.57c.08.379.167.758.262,1.134q.283,1.129.652,2.234a32.687,32.687,0,0,0,1.749,4.221.587.587,0,0,0,.793.208,18.7,18.7,0,0,1,6.2-2.214c1.4-.234,4.074,0,3.658-2.182-.221-1.164-.536-2.319-.8-3.472-.256-1.1-.428-2.279-.789-3.353a1.2,1.2,0,0,0-1.755-.827,11.461,11.461,0,0,1-2.7.985c-2.211.445-4.513.39-6.628,1.26-.68.281-.383,1.4.308,1.118,2.048-.843,4.279-.818,6.428-1.222a12.846,12.846,0,0,0,2.81-.936c.33-.144.384-.223.483.148.086.318.15.643.224.963q.224.965.447,1.929t.447,1.928c.074.321.15.642.224.963.052.225.277.743.211.963-.1.348-.613.352-.923.381-.577.056-1.151.108-1.724.2a19.647,19.647,0,0,0-6.7,2.367l.793.209A30.633,30.633,0,0,1,186,191.271q-.19-.732-.343-1.473a3.27,3.27,0,0,0-.312-1.2.718.718,0,0,0-1.326.412.574.574,0,0,0,.288.5l.065.032c.665.334,1.253-.665.585-1" transform="translate(29.314 29.601)" fill="#c4bdb2"/>
          <path id="Trazado_1267356" data-name="Trazado 1267356" d="M175.3,203.77a.851.851,0,0,0-.4.987.58.58,0,0,0,.559.425c2.206-.2,4.064-1.384,6.147-2.018,1.087-.332,2.263-.318,3.321-.742a21.234,21.234,0,0,1,2.73-1.37c.725-.176.417-1.295-.308-1.118a13.825,13.825,0,0,0-2.614,1.312,19.728,19.728,0,0,1-3.245.743c-2.039.577-3.887,1.837-6.031,2.033l.559.425.025.05c-.088.116-.177.231-.267.347l.114-.074c.621-.406.042-1.41-.585-1" transform="translate(27.857 31.847)" fill="#c4bdb2"/>
          <path id="Trazado_1267357" data-name="Trazado 1267357" d="M190.125,198.828a13.41,13.41,0,0,1,3.842-.8,5.633,5.633,0,0,0,3.247-1.5c.515-.54-.3-1.361-.82-.82a5.024,5.024,0,0,1-3.054,1.247,12.089,12.089,0,0,0-3.8.867c-.669.329-.082,1.33.585,1" transform="translate(30.147 31.149)" fill="#c4bdb2"/>
          <path id="Trazado_1267358" data-name="Trazado 1267358" d="M184.889,204.527a6.269,6.269,0,0,0-5.186,1.332,3.962,3.962,0,0,0-1.548,2.5,2.927,2.927,0,0,0,1.1,2.454,5.436,5.436,0,0,0,2.824,1.071,5.737,5.737,0,0,0,3.021-.277,4.945,4.945,0,0,0,2.755-4.728,3.033,3.033,0,0,0-1.72-2.392,7,7,0,0,0-3.617-.466c-.742.041-.747,1.2,0,1.159,1.333-.074,3.375-.2,4.054,1.275a2.945,2.945,0,0,1-.206,2.219,3.588,3.588,0,0,1-1.258,1.623,5,5,0,0,1-4.459.034,2.181,2.181,0,0,1-1.332-1.537,2.306,2.306,0,0,1,.924-1.863,5.031,5.031,0,0,1,4.34-1.286c.729.14,1.041-.977.308-1.118" transform="translate(28.379 32.495)" fill="#c4bdb2"/>
          <path id="Trazado_1267359" data-name="Trazado 1267359" d="M180.57,205.493a25.659,25.659,0,0,0,1.946,3.859.586.586,0,0,0,1,0,12.923,12.923,0,0,0,1.471-3.863.583.583,0,0,0-.335-.683.576.576,0,0,0-.723.237l-.356.692a.58.58,0,0,0,1,.585l.355-.692-1.058-.446a11.743,11.743,0,0,1-1.356,3.585h1a24.335,24.335,0,0,1-1.832-3.582.593.593,0,0,0-.712-.4.585.585,0,0,0-.4.713" transform="translate(28.76 32.618)" fill="#c4bdb2"/>
          <path id="Trazado_1267360" data-name="Trazado 1267360" d="M187.706,205.9a27.2,27.2,0,0,0,8.465-2.919c.656-.355.072-1.356-.585-1a26.251,26.251,0,0,1-8.188,2.8c-.734.122-.423,1.239.308,1.118" transform="translate(29.786 32.164)" fill="#c4bdb2"/>
          <path id="Trazado_1267361" data-name="Trazado 1267361" d="M189.468,207.44a24.145,24.145,0,0,0,7.84-2.093.584.584,0,0,0,.208-.793.592.592,0,0,0-.793-.208,22.5,22.5,0,0,1-7.255,1.934c-.736.068-.744,1.229,0,1.159" transform="translate(30.094 32.542)" fill="#c4bdb2"/>
          <path id="Trazado_1267362" data-name="Trazado 1267362" d="M183.35,204.235c.726-.726,47.406-25.155,47.406-25.155l71.109,25.155-25.638,14.754,7.014,4.111-22.494,11.61Z" transform="translate(29.208 28.528)" fill="#5d71e0"/>
          <path id="Trazado_1267363" data-name="Trazado 1267363" d="M231.7,182.419c-1.935.726-29.991,19.108-29.991,19.108L243.069,214.1l25.4-16.689Z" transform="translate(32.133 29.06)" fill="#e9e1d4"/>
          <path id="Trazado_1267364" data-name="Trazado 1267364" d="M259,189.929c-1.935,1.209-34.345,22.252-34.345,22.252l30.476,9.191,30.475-23.944Z" transform="translate(35.789 30.256)" fill="#e9e1d4"/>
          <path id="Trazado_1267365" data-name="Trazado 1267365" d="M210.952,195.315c.122,1.092-.444,2.183.031,3.245a1.789,1.789,0,0,0,2.105.99,5.223,5.223,0,0,0,1.618-.779c.23-.145.457-.291.685-.436a4.365,4.365,0,0,0,.912-.582q.41-.108.082-.277a1.31,1.31,0,0,1,.058.361c.02.173.015.347.048.519a2.52,2.52,0,0,0,.616,1.221,2.547,2.547,0,0,0,2.571.737c1.053-.264,2.195-1.439,3.317-1.116.562.161.954.779,1.389,1.149a8.809,8.809,0,0,0,1.244.892,8.586,8.586,0,0,0,3.173,1.092c.729.1,1.045-1.016.308-1.118a7.766,7.766,0,0,1-2.9-.976,7.176,7.176,0,0,1-1.351-1.018,6.781,6.781,0,0,0-.927-.86,2.725,2.725,0,0,0-2.572-.072c-.919.371-2.091,1.4-3.1.764-.887-.562-.414-1.485-.917-2.22-.552-.807-1.354-.253-1.969.139-.494.315-.983.64-1.483.946-.423.26-1.047.7-1.55.464-.487-.228-.434-.878-.372-1.334a6.935,6.935,0,0,0,.139-1.73c-.081-.734-1.242-.742-1.159,0" transform="translate(33.579 31.026)" fill="#c4bdb2"/>
          <path id="Trazado_1267366" data-name="Trazado 1267366" d="M216.559,192.26a4.333,4.333,0,0,0,2.783,1.827c1.1.315,2.482.558,2.9,1.781a2.531,2.531,0,0,0,.727,1.329,4.241,4.241,0,0,0,1.731.5,15.721,15.721,0,0,1,4.3,1.661.58.58,0,0,0,.584-1,16.933,16.933,0,0,0-3.835-1.594c-.61-.167-1.325-.187-1.909-.41-.472-.181-.493-.976-.714-1.388a4.108,4.108,0,0,0-2.55-1.739c-1.063-.328-2.41-.49-3.011-1.552a.58.58,0,0,0-1,.585" transform="translate(34.485 30.489)" fill="#c4bdb2"/>
          <path id="Trazado_1267367" data-name="Trazado 1267367" d="M233.526,206.994a1.81,1.81,0,0,0,1.628,1.544,8.568,8.568,0,0,1,2.757.732,4.771,4.771,0,0,1,1.023,1,3.263,3.263,0,0,0,1.181.856,6.515,6.515,0,0,0,2.957.3c.741-.049.747-1.208,0-1.159a5.77,5.77,0,0,1-2.455-.176c-.81-.318-1.2-1.169-1.887-1.665a5.446,5.446,0,0,0-2.327-.86c-.321-.052-1.679-.082-1.717-.57-.058-.738-1.217-.745-1.159,0" transform="translate(37.201 32.886)" fill="#c4bdb2"/>
          <path id="Trazado_1267368" data-name="Trazado 1267368" d="M236.936,205.343l5.813,3.6c.635.394,1.218-.609.584-1l-5.812-3.6c-.636-.394-1.22.609-.585,1" transform="translate(37.701 32.538)" fill="#c4bdb2"/>
          <path id="Trazado_1267369" data-name="Trazado 1267369" d="M239.847,202.95a22.846,22.846,0,0,0,4.488,2.734.6.6,0,0,0,.793-.208.585.585,0,0,0-.207-.793,21.7,21.7,0,0,1-4.253-2.553.6.6,0,0,0-.82,0,.583.583,0,0,0,0,.82" transform="translate(38.181 32.174)" fill="#c4bdb2"/>
          <path id="Trazado_1267370" data-name="Trazado 1267370" d="M251.655,206.939a5.593,5.593,0,0,0-5.261,2.967,4.1,4.1,0,0,0,1.371,5.42c3.265,2.262,9.9.224,8.672-4.513-.627-2.413-2.978-3.713-5.295-4.058a.6.6,0,0,0-.713.406.585.585,0,0,0,.4.713,5.423,5.423,0,0,1,4.16,2.423,2.918,2.918,0,0,1-.949,3.99,5.692,5.692,0,0,1-4.832.492,3.065,3.065,0,0,1-2.013-3.871,4.464,4.464,0,0,1,4.455-2.809c.742.075.736-1.084,0-1.159" transform="translate(39.169 32.935)" fill="#c4bdb2"/>
          <path id="Trazado_1267371" data-name="Trazado 1267371" d="M249.641,207.437q-.6,2.182-1,4.411c-.072.4.26.872.713.713l5.38-1.878a.6.6,0,0,0,.4-.713.585.585,0,0,0-.713-.406l-5.38,1.879.714.713q.4-2.228,1-4.411a.58.58,0,0,0-1.118-.308" transform="translate(39.607 32.98)" fill="#c4bdb2"/>
          <path id="Trazado_1267372" data-name="Trazado 1267372" d="M246.908,201.581c2.319,1.42,5.113,1.937,7.624,2.93a84.272,84.272,0,0,1,8.061,3.866c.66.345,1.247-.654.585-1-2.568-1.344-5.14-2.681-7.825-3.778-1.341-.547-2.708-1.023-4.089-1.461a16.774,16.774,0,0,1-3.77-1.557c-.639-.391-1.222.611-.585,1" transform="translate(39.289 31.939)" fill="#c4bdb2"/>
          <path id="Trazado_1267373" data-name="Trazado 1267373" d="M254.349,200.284a16.489,16.489,0,0,0,8.226,3.625.6.6,0,0,0,.713-.4.583.583,0,0,0-.4-.713,15.428,15.428,0,0,1-7.715-3.327c-.572-.47-1.4.345-.82.82" transform="translate(40.487 31.753)" fill="#c4bdb2"/>
          <path id="Trazado_1267374" data-name="Trazado 1267374" d="M230.723,205.648a76.283,76.283,0,0,0,6.507-5.727c.531-.524-.289-1.344-.821-.82a76.1,76.1,0,0,1-6.506,5.727.582.582,0,0,0,0,.82.594.594,0,0,0,.82,0" transform="translate(36.597 31.69)" fill="#c4bdb2"/>
          <path id="Trazado_1267375" data-name="Trazado 1267375" d="M230.562,198.148a12.815,12.815,0,0,0,5.02,2.16.594.594,0,0,0,.713-.4.585.585,0,0,0-.4-.713,12.035,12.035,0,0,1-4.743-2.043.583.583,0,0,0-.793.208.591.591,0,0,0,.208.793" transform="translate(36.683 31.393)" fill="#c4bdb2"/>
          <path id="Trazado_1267376" data-name="Trazado 1267376" d="M229.91,199.38l-1.327,1.52a.611.611,0,0,0-.169.409.578.578,0,0,0,.58.58.577.577,0,0,0,.409-.169l1.326-1.52a.609.609,0,0,0,.17-.409.585.585,0,0,0-.17-.41.579.579,0,0,0-.409-.169.572.572,0,0,0-.409.169" transform="translate(36.387 31.735)" fill="#c4bdb2"/>
          <path id="Trazado_1267377" data-name="Trazado 1267377" d="M231.692,199.527l-1.674,1.842a.58.58,0,1,0,.82.82l1.674-1.842a.58.58,0,1,0-.82-.82" transform="translate(36.616 31.758)" fill="#c4bdb2"/>
          <path id="Trazado_1267378" data-name="Trazado 1267378" d="M232.883,199.82l-.837.837a.6.6,0,0,0-.17.41.589.589,0,0,0,.17.409.579.579,0,0,0,.409.17.6.6,0,0,0,.41-.17q.419-.417.837-.837a.6.6,0,0,0,.17-.409.59.59,0,0,0-.17-.41.583.583,0,0,0-.409-.169.6.6,0,0,0-.41.169" transform="translate(36.938 31.805)" fill="#c4bdb2"/>
          <path id="Trazado_1267379" data-name="Trazado 1267379" d="M227.785,210.5l25.4-17.2c.614-.416.035-1.421-.585-1l-25.4,17.2c-.614.415-.035,1.42.585,1" transform="translate(36.152 30.617)" fill="#21252b"/>
          <path id="Trazado_1267380" data-name="Trazado 1267380" d="M247.289,224.5l3.12,2.694,18.718-10.069-4.679-2.694Z" transform="translate(39.393 34.159)" fill="#f9f3ed"/>
          <path id="Trazado_1267381" data-name="Trazado 1267381" d="M250.7,224.426c.546-.333,1.083-.7,1.649-1,.08-.042.25-.152.344-.128-.109-.029-.059.054-.013.117.153.21.23.39.487.5,1.071.478,2.023-1.123,2.714-1.682a4.8,4.8,0,0,1,1.462-.524,5.545,5.545,0,0,0,1.468-.8c.814-.623,1.507-1.523,2.561-1.725.732-.139.422-1.257-.308-1.118a5.768,5.768,0,0,0-2.576,1.617,4.789,4.789,0,0,1-1.453.91,8.506,8.506,0,0,0-1.584.523,8.4,8.4,0,0,0-1.331,1.206,3.326,3.326,0,0,0-.383.372l-.14.115c.09.045.109.031.056-.044-.139-.17-.212-.358-.414-.481a1.464,1.464,0,0,0-1.411.1c-.589.3-1.147.693-1.713,1.039-.635.387-.054,1.39.585,1" transform="translate(39.8 34.736)" fill="#21252b"/>
          <path id="Trazado_1267382" data-name="Trazado 1267382" d="M260.423,217.989l.3.7a.451.451,0,0,0,.15.163.6.6,0,0,0,.643.045.587.587,0,0,0,.267-.347l.021-.154a.575.575,0,0,0-.079-.292c-.1-.234-.2-.467-.3-.7a.558.558,0,0,0-.577-.276.43.43,0,0,0-.216.068.586.586,0,0,0-.265.347l-.021.154a.576.576,0,0,0,.079.292" transform="translate(41.473 34.587)" fill="#21252b"/>
          <path id="Trazado_1267383" data-name="Trazado 1267383" d="M261.766,217.112c.019.021.036.042.053.064l-.09-.117a1.159,1.159,0,0,1,.136.235l-.059-.138a1.073,1.073,0,0,1,.074.275l-.021-.154a1.144,1.144,0,0,1,.009.141.6.6,0,0,0,.169.41.434.434,0,0,0,.187.119.426.426,0,0,0,.224.05.581.581,0,0,0,.409-.169.608.608,0,0,0,.17-.41,2.017,2.017,0,0,0-.037-.343,1.021,1.021,0,0,0-.056-.2,2.007,2.007,0,0,0-.141-.308,1.781,1.781,0,0,0-.207-.275.428.428,0,0,0-.187-.119.514.514,0,0,0-.446,0,.428.428,0,0,0-.187.119.583.583,0,0,0-.169.409c.007.052.013.1.02.154a.579.579,0,0,0,.15.256" transform="translate(41.673 34.429)" fill="#21252b"/>
          <path id="Trazado_1267384" data-name="Trazado 1267384" d="M268.917,117.642c-11.7.7-28.631,3.143-34.568,9.951s-18.855,42.075-17.807,61.278S297.026,218.551,297.9,218.9s16.76-1.746,22-17.982,21.207-45.111,21.635-53.67c.342-6.817-1.086-25.783-23.381-28.384s-49.232-1.222-49.232-1.222" transform="translate(34.486 18.682)" fill="#f9f3ed"/>
          <path id="Trazado_1267385" data-name="Trazado 1267385" d="M260.871,128.105s14.111,19.57,13.937,19.046,14.315-28.805,14.315-28.805-1.571,50.8-.873,59.007l-9.078,11-25.139-6.81s-.494-33.535,6.839-53.438" transform="translate(40.467 18.853)" fill="#ed8a7e"/>
          <path id="Trazado_1267386" data-name="Trazado 1267386" d="M261.25,122.849l-1.637,8.633,16.374,24.711,11.462-30.813,1.191-12.5Z" transform="translate(41.357 17.981)" fill="#c7653b"/>
          <path id="Trazado_1267387" data-name="Trazado 1267387" d="M271.328,80.182c-1.4-3.047-7.615-2.793-13.708.888s-15.484,17.769-10.027,25.512l10.788,16.753,34.518-7.586s4.192-10.817,3.558-17.544-3.6-18.858-12.438-19.926c-11.55-1.4-12.692,1.9-12.692,1.9" transform="translate(39.181 12.415)" fill="#3e4e79"/>
          <path id="Trazado_1267388" data-name="Trazado 1267388" d="M247.721,99.69c-.73,3.793.485,7.722,2.319,11.122s4.275,6.432,6.281,9.735c2.054,3.384,3.655,7.06,6.069,10.2s5.888,5.779,9.845,5.945a15.26,15.26,0,0,0,4.572-.65,18.316,18.316,0,0,0,7.214-3.42,22.147,22.147,0,0,0,4.107-5.129,35.614,35.614,0,0,0,3.131-5.713,20.068,20.068,0,0,0,1.451-6.613,37.718,37.718,0,0,0-.721-7.912c-1.1-6.593-2.557-13.468-6.876-18.57-5.519-6.521-15.347-8.8-23.338-5.781a23.669,23.669,0,0,0-14.634,19.448" transform="translate(39.37 12.997)" fill="#c7653b"/>
          <path id="Trazado_1267389" data-name="Trazado 1267389" d="M261.454,102.774a73.418,73.418,0,0,0,7.4-13.5c-.259,3,1.25,5.832,2.712,8.462a8.848,8.848,0,0,0,2.306,3.021c1.295.941,2.974,1.106,4.529,1.485a15.6,15.6,0,0,1,7.941,4.8,1.249,1.249,0,0,0,.763.524c.713.053.868-.968.859-1.684-.038-2.854,1.645-5.406,2.577-8.1,1.464-4.236.894-9.352-2.207-12.588a15,15,0,0,0-7.522-3.834,34.289,34.289,0,0,0-19.455,1.458c-5.632,2.367-8.986,6.6-12.147,11.823a17.029,17.029,0,0,0-2.8,9.072c.07,2.724,2.09,8.864,5.8,7.8,3.578-1.027,7.168-5.875,9.248-8.728" transform="translate(39.252 12.835)" fill="#3e4e79"/>
          <path id="Trazado_1267390" data-name="Trazado 1267390" d="M293.7,104.327c-.671,5.739-4.477,10.008-8.5,9.538s-6.74-5.5-6.068-11.242,4.476-10.008,8.5-9.538,6.739,5.5,6.068,11.242" transform="translate(44.45 14.823)" fill="#c7653b"/>
          <path id="Trazado_1267391" data-name="Trazado 1267391" d="M268.579,107.162c.612,1.329.429,2.717-.408,3.1s-2.013-.378-2.625-1.706-.429-2.717.408-3.1,2.013.378,2.625,1.706" transform="translate(42.244 16.783)" fill="#21252b"/>
          <path id="Trazado_1267392" data-name="Trazado 1267392" d="M258.892,110.89c.612,1.329.429,2.717-.408,3.1s-2.013-.378-2.625-1.706-.429-2.717.408-3.1,2.013.378,2.625,1.706" transform="translate(40.701 17.377)" fill="#21252b"/>
          <path id="Trazado_1267393" data-name="Trazado 1267393" d="M259.576,105.823a6.623,6.623,0,0,1,1.566,8.116c-.661,1.376-1.4,3.021-.29,4.384,1.076,1.317,2.854,1.315,4.4,1.194.738-.057.744-1.217,0-1.159-1.369.107-4.024.163-3.818-1.911a7.777,7.777,0,0,1,.905-2.344,7.756,7.756,0,0,0,.623-1.971A7.642,7.642,0,0,0,260.4,105c-.575-.466-1.4.35-.82.82" transform="translate(41.319 16.705)" fill="#21252b"/>
          <path id="Trazado_1267394" data-name="Trazado 1267394" d="M263.637,121.258a10.308,10.308,0,0,0,11.858-5.013c.352-.657-.648-1.244-1-.585a9.135,9.135,0,0,1-10.549,4.481.58.58,0,0,0-.308,1.118" transform="translate(41.933 18.379)" fill="#21252b"/>
          <path id="Trazado_1267395" data-name="Trazado 1267395" d="M266.221,126.727a10.351,10.351,0,0,0,1.275,2.559,4.117,4.117,0,0,0,2.195,1.572A.58.58,0,1,0,270,129.74c-.094-.024-.186-.053-.277-.086-.029-.009-.08-.03-.023-.006-.044-.02-.088-.041-.131-.063a3.25,3.25,0,0,1-.47-.289c.066.049-.033-.027-.044-.036l-.111-.1c-.072-.066-.143-.134-.211-.2s-.121-.13-.177-.2c-.033-.037-.064-.074-.094-.112.048.059-.019-.025-.034-.046a9.332,9.332,0,0,1-1.089-2.188.593.593,0,0,0-.713-.4.585.585,0,0,0-.4.713" transform="translate(42.405 20.07)" fill="#3e4e79"/>
          <path id="Trazado_1267396" data-name="Trazado 1267396" d="M268.365,126.37a9.953,9.953,0,0,0,4.656,4.957.593.593,0,0,0,.793-.209.585.585,0,0,0-.208-.793,8.984,8.984,0,0,1-4.241-4.541.583.583,0,0,0-.793-.208.6.6,0,0,0-.208.793" transform="translate(42.74 19.993)" fill="#3e4e79"/>
          <path id="Trazado_1267397" data-name="Trazado 1267397" d="M270.581,125.558a13.02,13.02,0,0,0,1.749,3.327,4.82,4.82,0,0,0,2.745,1.777.594.594,0,0,0,.713-.4.584.584,0,0,0-.4-.713c-2.048-.406-2.971-2.535-3.685-4.3a.6.6,0,0,0-.713-.4.583.583,0,0,0-.4.713" transform="translate(43.099 19.885)" fill="#3e4e79"/>
          <path id="Trazado_1267398" data-name="Trazado 1267398" d="M273.449,126.346a10.959,10.959,0,0,0,1.832,2.288,4.325,4.325,0,0,0,2.63,1.136.58.58,0,0,0,0-1.159,2.9,2.9,0,0,1-.966-.245,3.754,3.754,0,0,1-.941-.638,10.054,10.054,0,0,1-1.555-1.968.593.593,0,0,0-.793-.208.585.585,0,0,0-.208.793" transform="translate(43.548 19.988)" fill="#3e4e79"/>
          <path id="Trazado_1267399" data-name="Trazado 1267399" d="M260.437,125.3a18.219,18.219,0,0,0,8.639,4.79c.726.17,1.035-.947.307-1.118a17.076,17.076,0,0,1-8.127-4.492.58.58,0,0,0-.82.82" transform="translate(41.461 19.802)" fill="#21252b"/>
          <path id="Trazado_1267400" data-name="Trazado 1267400" d="M278.555,128.217a64.177,64.177,0,0,0,4.549-4.9,13.3,13.3,0,0,0,2.909-5.136.58.58,0,0,0-1.118-.308,12.46,12.46,0,0,1-2.823,4.877c-1.368,1.617-2.822,3.163-4.337,4.643-.534.522.285,1.341.82.82" transform="translate(44.216 18.712)" fill="#21252b"/>
          <path id="Trazado_1267401" data-name="Trazado 1267401" d="M285.406,96.858a6.643,6.643,0,0,1,3.032,4.895,8.723,8.723,0,0,1-1.892,6.171c-.451.595.555,1.173,1,.585a9.674,9.674,0,0,0,2.009-7.087,7.79,7.79,0,0,0-3.564-5.565c-.638-.393-1.221.61-.585,1" transform="translate(45.422 15.256)" fill="#21252b"/>
          <path id="Trazado_1267402" data-name="Trazado 1267402" d="M288.207,100.071a3.672,3.672,0,0,0-3.236,1.62,6.276,6.276,0,0,0-.975,3.822.58.58,0,0,0,1.159,0,5.342,5.342,0,0,1,.733-3.116,2.525,2.525,0,0,1,2.319-1.166.584.584,0,0,0,.58-.58.593.593,0,0,0-.58-.58" transform="translate(45.241 15.939)" fill="#21252b"/>
          <path id="Trazado_1267403" data-name="Trazado 1267403" d="M276.874,100.783a26.234,26.234,0,0,0,2.335,6.9c.263.474,1.145.3,1.079-.292q-.417-3.735-.837-7.468a.6.6,0,0,0-.58-.58.585.585,0,0,0-.58.58,37.727,37.727,0,0,0,.781,5.722c.147.661,1.108.478,1.138-.154a25.551,25.551,0,0,0-.516-6.418.576.576,0,0,0-.635-.415.591.591,0,0,0-.5.569,18.628,18.628,0,0,0,.3,6.326c.137.627,1.2.5,1.138-.154a27.045,27.045,0,0,0-.546-3.378q-.193-.833-.442-1.653c-.132-.435-.293-.949-.808-1.038a.591.591,0,0,0-.713.4,3.778,3.778,0,0,0,.452,2.868c.329.536,1.3.192,1.06-.447q-.384-1.033-.767-2.067a.582.582,0,0,0-1.138.154,2.246,2.246,0,0,0,.6,1.621c.4.45,1.1-.03.969-.565q-.238-.943-.475-1.884a.58.58,0,0,0-1.118.308q.238.941.474,1.884l.969-.563a1.063,1.063,0,0,1-.259-.8l-1.138.154q.383,1.033.767,2.067l1.058-.446a2.584,2.584,0,0,1-.335-1.974l-.713.4c-.131-.022-.082-.107-.048.079a3.041,3.041,0,0,0,.09.3c.067.224.13.449.19.675q.17.638.308,1.286a24.558,24.558,0,0,1,.4,2.614l1.138-.154a17.7,17.7,0,0,1-.254-6.018l-1.138.154a24.292,24.292,0,0,1,.474,6.11l1.138-.154a35.636,35.636,0,0,1-.74-5.414h-1.159q.419,3.734.837,7.468l1.081-.293a25.183,25.183,0,0,1-2.218-6.625c-.169-.726-1.288-.419-1.118.308" transform="translate(44.104 15.716)" fill="#3e4e79"/>
          <path id="Trazado_1267404" data-name="Trazado 1267404" d="M265.92,89.157c.377,3.572-1.182,6.916-3.392,9.636a26.4,26.4,0,0,1-3.472,3.589,5.989,5.989,0,0,1-4.948,1.649c-.728-.151-1.04.967-.308,1.118,3.93.814,7.12-2.61,9.388-5.341,2.474-2.982,4.311-6.681,3.892-10.65-.078-.734-1.238-.742-1.159,0" transform="translate(40.364 14.115)" fill="#3e4e79"/>
          <path id="Trazado_1267405" data-name="Trazado 1267405" d="M255.168,84.637a29.184,29.184,0,0,0-9.04,8.545c-2.207,3.478-3.571,8.1-2.373,12.175a5.582,5.582,0,0,0,4.213,4.176c.729.119,1.043-1,.308-1.118-2.518-.412-3.561-2.953-3.735-5.237a14.711,14.711,0,0,1,1.388-7.212c2.042-4.432,5.8-7.722,9.825-10.329.624-.4.043-1.407-.585-1" transform="translate(38.76 13.468)" fill="#3e4e79"/>
          <path id="Trazado_1267406" data-name="Trazado 1267406" d="M248.392,90.558a16.862,16.862,0,0,0-3.64,10.44,9.883,9.883,0,0,0,1.207,5.312,4,4,0,0,0,4.3,1.872.58.58,0,0,0-.308-1.118c-1.649.435-2.978-.936-3.5-2.367a11.843,11.843,0,0,1-.516-4.638,15.587,15.587,0,0,1,3.275-8.681c.456-.58-.359-1.406-.82-.82" transform="translate(38.989 14.394)" fill="#3e4e79"/>
          <path id="Trazado_1267407" data-name="Trazado 1267407" d="M268.126,80.381c2.739-2.744,6.89-3.37,10.588-2.738,3.849.656,7.861,2.606,9.728,6.2a8.028,8.028,0,0,1,.459,6.634c-.274.694.847,1,1.118.308,1.669-4.244-.517-8.848-4-11.409a17.008,17.008,0,0,0-12.53-2.9,11.291,11.291,0,0,0-6.179,3.08.58.58,0,0,0,.82.82" transform="translate(42.555 12.149)" fill="#3e4e79"/>
          <path id="Trazado_1267408" data-name="Trazado 1267408" d="M268.014,80.81a10.992,10.992,0,0,1,4.2-7.447.6.6,0,0,0,.207-.793.583.583,0,0,0-.793-.209,12.281,12.281,0,0,0-4.773,8.449.584.584,0,0,0,.58.58.593.593,0,0,0,.58-.58" transform="translate(42.51 11.514)" fill="#3e4e79"/>
          <path id="Trazado_1267409" data-name="Trazado 1267409" d="M267.5,80.909q-.268-3.671-.534-7.342c-.054-.74-1.214-.745-1.159,0q.268,3.671.534,7.342c.053.74,1.214.745,1.159,0" transform="translate(42.343 11.631)" fill="#3e4e79"/>
          <path id="Trazado_1267410" data-name="Trazado 1267410" d="M278.214,99.966a18.307,18.307,0,0,0-1.056,2.408,3.293,3.293,0,0,0-.307,1.223.8.8,0,0,0,.816.743,1.567,1.567,0,0,0,1.025-.6q.5-.5.994-1,1.014-1.029,2-2.086-.483-.283-.968-.565c-.75,1.878-2.442,3.279-2.742,5.354-.077.531.525,1.017.969.563l2.488-2.538-.911-.7-.9,2.132a4.585,4.585,0,0,0-.558,2.13.586.586,0,0,0,.873.5,10.684,10.684,0,0,0,2.046-1.632l-.969-.565a20.476,20.476,0,0,1-.734,2.419c-.262.7.859,1,1.118.308a20.062,20.062,0,0,0,.734-2.419.584.584,0,0,0-.968-.563,9.467,9.467,0,0,1-1.812,1.451l.872.5a3.979,3.979,0,0,1,.512-1.812q.395-.932.792-1.864a.593.593,0,0,0-.15-.748.581.581,0,0,0-.762.045l-2.487,2.538.969.565c.293-2.028,2-3.5,2.741-5.354.219-.55-.594-.965-.969-.565q-.836.894-1.69,1.769-.414.424-.832.845c-.139.14-.279.279-.42.42a1.486,1.486,0,0,0-.21.209.59.59,0,0,1-.079.073c-.115.082-.016.133.3.151.027.1.053.195.079.292a1.908,1.908,0,0,1,.176-.655c.1-.283.2-.563.307-.842a16.187,16.187,0,0,1,.721-1.549c.348-.66-.653-1.246-1-.585" transform="translate(44.102 15.879)" fill="#3e4e79"/>
          <path id="Trazado_1267411" data-name="Trazado 1267411" d="M260.59,125.741a140.9,140.9,0,0,0-5.886,30.248q-.365,4.413-.447,8.844a.58.58,0,0,0,1.159,0,139.426,139.426,0,0,1,3.956-30.386q1.036-4.234,2.336-8.4c.223-.714-.9-1.019-1.118-.308" transform="translate(40.504 19.966)" fill="#21252b"/>
          <path id="Trazado_1267412" data-name="Trazado 1267412" d="M283.421,130.327a207.5,207.5,0,0,1-.661,30.828c-.072.742,1.089.737,1.159,0a207.5,207.5,0,0,0,.661-30.828c-.039-.742-1.2-.747-1.159,0" transform="translate(45.044 20.672)" fill="#21252b"/>
          <path id="Trazado_1267413" data-name="Trazado 1267413" d="M287,117.752a59.982,59.982,0,0,0,9.723,19.524l.209-.793a44.916,44.916,0,0,0-4.4,2.739q-2.181,1.438-4.359,2.882l-2.12,1.4c-.476.316-1.247.684-1.192,1.374.049.61.755.912,1.2,1.194q1.125.7,2.283,1.358,1.042.584,2.109,1.126a16.767,16.767,0,0,1,2.264,1.1c.4.294.316.459.115.859-.172.337-.342.678-.5,1.022-.327.692-.628,1.4-.911,2.109a79.4,79.4,0,0,0-2.825,9.216,69.225,69.225,0,0,1-3.284,10.257c-.3.676.7,1.267,1,.585,2.535-5.776,3.5-12.043,5.566-17.976a35.8,35.8,0,0,1,1.843-4.4,2.4,2.4,0,0,0,.471-1.645,2.073,2.073,0,0,0-1.236-1.2c-1.433-.706-2.865-1.391-4.253-2.183q-1.038-.589-2.051-1.227a2.983,2.983,0,0,1-.56-.357l-.111-.071a.349.349,0,0,0,.541-.059,7.087,7.087,0,0,0,1.178-.778l4.948-3.273a50.493,50.493,0,0,1,4.875-3.05.581.581,0,0,0,.209-.793,59.076,59.076,0,0,1-9.607-19.246.58.58,0,0,0-1.118.307" transform="translate(45.378 18.644)" fill="#21252b"/>
          <path id="Trazado_1267414" data-name="Trazado 1267414" d="M257.437,118.879a87.3,87.3,0,0,1-5.626,14.847c-.53,1.171-1.062,2.342-1.584,3.517q-.431.972-.851,1.949a3.143,3.143,0,0,0-.43,1.413,2.195,2.195,0,0,0,.687,1.218c.461.536.941,1.056,1.429,1.567.917.958,1.879,1.871,2.875,2.746.559.49,1.382-.327.82-.82q-1.395-1.226-2.691-2.556-.645-.666-1.264-1.359a2.05,2.05,0,0,1-.59-.835,1.618,1.618,0,0,1,.269-1.035c.965-2.24,1.987-4.454,2.988-6.678a81.458,81.458,0,0,0,5.085-13.668.58.58,0,0,0-1.118-.308" transform="translate(39.657 18.872)" fill="#21252b"/>
          <path id="Trazado_1267415" data-name="Trazado 1267415" d="M254.75,141.76a22.46,22.46,0,0,1-6.067,7.6c-.757.612-1.589,1.083-1.646,2.16a11.7,11.7,0,0,0,.763,3.387q.494,1.857.966,3.72.941,3.728,1.78,7.48.965,4.307,1.795,8.644c.14.732,1.258.422,1.118-.308q-1.395-7.272-3.161-14.465-.866-3.527-1.824-7.029c-.143-.519-.473-1.274-.16-1.786a5.205,5.205,0,0,1,1.191-.983,22.7,22.7,0,0,0,2.283-2.12,23.766,23.766,0,0,0,3.965-5.718c.33-.667-.669-1.254-1-.585" transform="translate(39.353 22.536)" fill="#21252b"/>
          <path id="Trazado_1267416" data-name="Trazado 1267416" d="M245.877,180.852l-13.606-13.287-9.248,2.657s-4.57-1.594-5-1.063-2.657,6.06-2.657,6.06l.638,15.731,18.176,6.272,7.442.319Z" transform="translate(34.309 26.693)" fill="#c7653b"/>
          <path id="Trazado_1267417" data-name="Trazado 1267417" d="M260.967,137.885a95.434,95.434,0,0,0,13.713,19.454c.5.553,1.322-.269.82-.82a94.18,94.18,0,0,1-13.533-19.22c-.35-.658-1.351-.074-1,.585" transform="translate(41.561 21.826)" fill="#21252b"/>
          <path id="Trazado_1267418" data-name="Trazado 1267418" d="M284.918,134.877Q279.435,146.382,273,157.4a.58.58,0,0,0,1,.585q6.425-11.008,11.914-22.523c.32-.67-.679-1.259-1-.585" transform="translate(43.477 21.439)" fill="#21252b"/>
          <path id="Trazado_1267419" data-name="Trazado 1267419" d="M243.315,173.03q-2.873,13.232-5.747,26.462c-.158.727.96,1.038,1.118.308q2.874-13.232,5.747-26.462c.159-.728-.959-1.039-1.118-.308" transform="translate(37.843 27.498)" fill="#21252b"/>
          <path id="Trazado_1267420" data-name="Trazado 1267420" d="M274.237,178.762a6.146,6.146,0,0,1,5,4.049c.237.7,1.358.4,1.118-.307a7.35,7.35,0,0,0-6.121-4.9.583.583,0,0,0-.58.58.593.593,0,0,0,.58.58" transform="translate(43.594 28.292)" fill="#21252b"/>
          <path id="Trazado_1267421" data-name="Trazado 1267421" d="M276.27,179.036c1.476-1.091,3.2.3,4.313,1.268a.594.594,0,0,0,.82,0,.584.584,0,0,0,0-.82,8.34,8.34,0,0,0-2.758-1.8,3.321,3.321,0,0,0-2.96.35.6.6,0,0,0-.208.793.584.584,0,0,0,.793.208" transform="translate(43.871 28.275)" fill="#21252b"/>
          <path id="Trazado_1267422" data-name="Trazado 1267422" d="M276.992,183.054q9.307-12.147,19.236-23.8,2.812-3.3,5.671-6.555c.49-.559-.327-1.382-.82-.82q-10.19,11.609-19.765,23.737-2.687,3.4-5.323,6.849c-.454.592.552,1.17,1,.585" transform="translate(43.948 24.165)" fill="#21252b"/>
          <path id="Trazado_1267423" data-name="Trazado 1267423" d="M296.616,154.683a9.95,9.95,0,0,1,.233-3.52.58.58,0,0,0-1.118-.308,10.947,10.947,0,0,0-.275,3.828.594.594,0,0,0,.58.58.585.585,0,0,0,.58-.58" transform="translate(47.057 23.964)" fill="#21252b"/>
          <path id="Trazado_1267424" data-name="Trazado 1267424" d="M249.394,172.759a124.779,124.779,0,0,1,15.386,3.093.58.58,0,0,0,.307-1.118,124.756,124.756,0,0,0-15.385-3.093c-.729-.1-1.046,1.017-.308,1.118" transform="translate(39.662 27.342)" fill="#21252b"/>
          <path id="Trazado_1267425" data-name="Trazado 1267425" d="M239.728,148.862a28.248,28.248,0,0,0,.111,4.406.6.6,0,0,0,.58.58.583.583,0,0,0,.58-.58,28.248,28.248,0,0,1-.111-4.406.58.58,0,0,0-1.159,0" transform="translate(38.183 23.622)" fill="#21252b"/>
          <path id="Trazado_1267426" data-name="Trazado 1267426" d="M240.711,151.742q-.377,1.318-.756,2.636a.58.58,0,1,0,1.118.308q.377-1.318.756-2.636a.58.58,0,1,0-1.118-.308" transform="translate(38.222 24.106)" fill="#21252b"/>
          <path id="Trazado_1267427" data-name="Trazado 1267427" d="M240.784,151.9l-2.149,21.864c-.073.742,1.086.737,1.159,0l2.149-21.864c.073-.742-1.087-.737-1.159,0" transform="translate(38.014 24.109)" fill="#21252b"/>
          <path id="Trazado_1267428" data-name="Trazado 1267428" d="M221.034,170.52q6.276,1.562,12.467,3.437a.58.58,0,0,0,.308-1.118q-6.189-1.876-12.467-3.437a.58.58,0,0,0-.308,1.118" transform="translate(35.145 26.983)" fill="#21252b"/>
          <path id="Trazado_1267429" data-name="Trazado 1267429" d="M215.266,174.432l5.07,4.149a.6.6,0,0,0,.82,0,.583.583,0,0,0,0-.82l-5.07-4.149a.6.6,0,0,0-.82,0,.584.584,0,0,0,0,.82" transform="translate(34.265 27.631)" fill="#21252b"/>
          <path id="Trazado_1267430" data-name="Trazado 1267430" d="M214.895,178.964a18.044,18.044,0,0,0,2.984,3.1.594.594,0,0,0,.82,0,.584.584,0,0,0,0-.82,17.492,17.492,0,0,1-1.518-1.383q-.355-.362-.686-.747-.165-.191-.326-.387c-.057-.07-.112-.138-.167-.209l-.066-.083c-.109-.139.067.088-.041-.052a.6.6,0,0,0-.793-.208.586.586,0,0,0-.208.793" transform="translate(34.219 28.37)" fill="#21252b"/>
          <path id="Trazado_1267431" data-name="Trazado 1267431" d="M215.35,183.35a6.709,6.709,0,0,0,2.685,1.977.584.584,0,0,0,.446-.058.6.6,0,0,0,.267-.347.588.588,0,0,0-.059-.446.68.68,0,0,0-.347-.267c.059.024.083.036.01,0l-.09-.041c-.054-.025-.109-.051-.162-.078-.108-.053-.213-.11-.316-.169-.22-.126-.427-.27-.633-.417-.064-.046.085.067.023.017l-.079-.063c-.046-.037-.092-.075-.137-.115-.1-.082-.19-.167-.281-.256a6.123,6.123,0,0,1-.508-.561.577.577,0,0,0-.409-.17.59.59,0,0,0-.41.17.6.6,0,0,0,0,.82" transform="translate(34.28 29.05)" fill="#21252b"/>
          <path id="Trazado_1267432" data-name="Trazado 1267432" d="M278.815,231.728l2.69,30.424H300.33l4.208-30.424s-10.817-3.313-25.724,0" transform="translate(44.416 36.68)" fill="#e9e1d4"/>
          <path id="Trazado_1267433" data-name="Trazado 1267433" d="M304,231.8c0,1.085-5.637,1.965-12.59,1.965s-12.59-.88-12.59-1.965,5.637-1.965,12.59-1.965,12.59.88,12.59,1.965" transform="translate(44.416 36.612)" fill="#c7653b"/>
          <path id="Trazado_1267434" data-name="Trazado 1267434" d="M301.271,235.041c2.37-.139,6.134,3.9,5.576,9.758s-3.9,9.2-10.315,9.2v-5.158s6.161.693,5.938-4.323-3.011-5.588-3.011-5.588" transform="translate(47.238 37.442)" fill="#e9e1d4"/>
          <path id="Trazado_1267435" data-name="Trazado 1267435" d="M279.886,233.211a42.282,42.282,0,0,0,19.606.5c.729-.154.421-1.272-.308-1.118a40.978,40.978,0,0,1-18.989-.5.58.58,0,0,0-.308,1.118" transform="translate(44.521 36.969)" fill="#21252b"/>
          <path id="Trazado_1267436" data-name="Trazado 1267436" d="M300.031,237.968q-1.092,10.769-2.912,21.444c-.125.73.992,1.043,1.118.308q1.845-10.821,2.954-21.752c.075-.742-1.085-.736-1.159,0" transform="translate(47.33 37.82)" fill="#21252b"/>
          <path id="Trazado_1267437" data-name="Trazado 1267437" d="M282.787,253.523a3.832,3.832,0,0,0,.479,2.146.58.58,0,0,0,1-.585,3.448,3.448,0,0,1-.158-.322c.02.046.038.093.058.138a3.411,3.411,0,0,1-.224-.815l.021.154a3.353,3.353,0,0,1-.019-.715.578.578,0,0,0-.58-.58.6.6,0,0,0-.58.58" transform="translate(45.046 40.294)" fill="#21252b"/>
          <path id="Trazado_1267438" data-name="Trazado 1267438" d="M284.067,252.842l.995,2.126a.582.582,0,0,0,.793.208.6.6,0,0,0,.208-.793l-.995-2.126a.583.583,0,0,0-.793-.208.6.6,0,0,0-.208.793" transform="translate(45.241 40.139)" fill="#21252b"/>
          <path id="Trazado_1267439" data-name="Trazado 1267439" d="M290.677,204.813c-2.782,3.306-6.021,7.064-6.431,11.558a5.287,5.287,0,0,0,2.234,5.072,27.229,27.229,0,0,1,2.692,1.695,4.293,4.293,0,0,1,1.368,2.518,4.886,4.886,0,0,1-.765,3.3,3.254,3.254,0,0,0-.466,3.019c.3.683,1.3.094,1-.584-.4-.915.629-2.042.987-2.836a5.293,5.293,0,0,0,.452-2.453,5.541,5.541,0,0,0-2.4-4.281c-.789-.552-1.694-.927-2.466-1.506a3.729,3.729,0,0,1-1.475-2.61,10.465,10.465,0,0,1,1.668-6.082,39.331,39.331,0,0,1,4.418-5.991c.478-.567-.339-1.391-.82-.82" transform="translate(45.276 32.596)" fill="#21252b"/>
          <path id="Trazado_1267440" data-name="Trazado 1267440" d="M293.042,216.407a5.872,5.872,0,0,0-1.2,2.939c-.036,1.087.713,1.861.879,2.882a5.472,5.472,0,0,1-.565,2.511,3.933,3.933,0,0,0-.167,2.626c.25.7,1.371.4,1.118-.308a3.365,3.365,0,0,1,.268-2.3,6.173,6.173,0,0,0,.521-2.4,14.214,14.214,0,0,0-.84-2.475c-.254-1.05.442-2.062.992-2.895.414-.624-.59-1.206-1-.585" transform="translate(46.488 34.432)" fill="#21252b"/>
          <path id="Trazado_1267441" data-name="Trazado 1267441" d="M46.066,248.709l31.927,31.948,40.272-12.4-36.1-31.5Z" transform="translate(7.338 37.715)" fill="#e9e1d4"/>
          <path id="Trazado_1267442" data-name="Trazado 1267442" d="M19.332,244.525l31.927,31.948,40.272-12.4-36.1-31.5Z" transform="translate(3.08 37.049)" fill="#f9f3ed"/>
          <path id="Trazado_1267443" data-name="Trazado 1267443" d="M14.5,246.915l30.2,29.064,39.151-12.119L71.477,252.68h-4.79S52.485,234.9,51.341,235.7,14.5,246.915,14.5,246.915" transform="translate(2.31 37.544)" fill="#ed8a7e"/>
          <path id="Trazado_1267444" data-name="Trazado 1267444" d="M40.806,248.048,72.733,280l40.272-12.4-36.1-31.5Z" transform="translate(6.501 37.61)" fill="#f9f3ed"/>
          <path id="Trazado_1267445" data-name="Trazado 1267445" d="M35.976,250.438,66.18,279.5l39.152-12.119L92.952,256.2h-4.79s-14.2-17.785-15.346-16.976-36.84,11.21-36.84,11.21" transform="translate(5.731 38.105)" fill="#5d71e0"/>
          <path id="Trazado_1267446" data-name="Trazado 1267446" d="M65.37,268.5a37.09,37.09,0,0,1,4.194-3.1,5.762,5.762,0,0,1,.555-.347c.121-.058-.137-.253.052-.02.175.214.248.449.508.6a1.709,1.709,0,0,0,1.706-.071c.663-.369,1.246-.891,1.9-1.283a20.724,20.724,0,0,1,2.113-1.1,49.861,49.861,0,0,1,4.826-1.786c.7-.234.4-1.354-.308-1.118-1.564.519-3.128,1.047-4.643,1.7a22.341,22.341,0,0,0-2.249,1.108c-.715.407-1.347.919-2.038,1.356a1.164,1.164,0,0,1-.453.225c-.371.012-.3-.166-.419-.38a.97.97,0,0,0-.595-.464c-.634-.151-1.274.394-1.763.71a39.228,39.228,0,0,0-4.208,3.138c-.569.485.254,1.3.82.82" transform="translate(10.252 41.459)" fill="#21252b"/>
          <path id="Trazado_1267447" data-name="Trazado 1267447" d="M67.415,269.44q6.252-2.431,12.379-5.161c.681-.3.092-1.3-.585-1q-5.989,2.669-12.1,5.045c-.687.267-.388,1.389.308,1.118" transform="translate(10.628 41.931)" fill="#21252b"/>
          <path id="Trazado_1267448" data-name="Trazado 1267448" d="M22.95,247.754a37.149,37.149,0,0,0,3.472-1.85l-.7-.09a1.73,1.73,0,0,0,2.224.2,6.964,6.964,0,0,0,1.047-.918c.232-.22.669-.6,1.023-.443a.6.6,0,0,0,.793-.207.582.582,0,0,0-.208-.793,2.165,2.165,0,0,0-2.429.624c-.327.311-1.144,1.32-1.63.722a.582.582,0,0,0-.7-.09,37.7,37.7,0,0,1-3.472,1.85c-.675.315-.087,1.315.585,1" transform="translate(3.515 38.787)" fill="#21252b"/>
          <path id="Trazado_1267449" data-name="Trazado 1267449" d="M31.317,242.551a.853.853,0,0,0-.38.487,1.952,1.952,0,0,0-.034.248.859.859,0,0,0,.1.379.642.642,0,0,0,.347.267.594.594,0,0,0,.446-.058l.364-.221.18-.109c.058-.035.115-.075.176-.1l-.139.058a.173.173,0,0,1,.035-.01l-.154.021a.069.069,0,0,1,.022,0l-.154-.021a.07.07,0,0,1,.021.006l-.139-.058.009.006-.117-.09,0,0-.09-.117,0,.006c-.02-.046-.039-.093-.058-.139v.007l-.021-.154v.006l.021-.153,0,.013.059-.139-.007.013.09-.117-.009.009.117-.09L32,242.5l.138-.059h0l.154-.02h0l.292.079h0l.117.09,0,0,.089.118,0-.007a.558.558,0,0,0-.577-.276.442.442,0,0,0-.216.068.586.586,0,0,0-.265.347.624.624,0,0,0,.058.446.6.6,0,0,0,.82.217.528.528,0,0,0,.128-.1.87.87,0,0,0,.1-.128.825.825,0,0,0,.064-.152.9.9,0,0,0,.022-.167.621.621,0,0,0-.619-.609.782.782,0,0,0-.408.125l-.661.4.793.209,0-.01c.019.046.038.093.058.139a.3.3,0,0,1-.016-.061l.021.154a.39.39,0,0,1,0-.064l-.021.154a.308.308,0,0,1,.021-.071l-.059.138a.321.321,0,0,1,.032-.055l-.09.117a.272.272,0,0,1,.045-.044l-.117.09.027-.017a.6.6,0,0,0,.267-.345.45.45,0,0,0,.009-.232.43.43,0,0,0-.068-.216.586.586,0,0,0-.347-.265.611.611,0,0,0-.446.058" transform="translate(4.923 38.606)" fill="#21252b"/>
          <path id="Trazado_1267450" data-name="Trazado 1267450" d="M24.173,249.607c1.89-.96,3.767-1.956,5.677-2.874,1.683-.809,3.616-1.148,5.187-2.176.623-.406.042-1.411-.584-1a10.821,10.821,0,0,1-2.556,1.109,22.88,22.88,0,0,0-2.632,1.065c-1.911.919-3.786,1.914-5.677,2.875-.665.337-.079,1.338.585,1" transform="translate(3.711 38.783)" fill="#21252b"/>
          <path id="Trazado_1267451" data-name="Trazado 1267451" d="M53.569,255.642c.122.364,6.424,6.96,6.424,6.96l18.289-6.647-6.894-6.737Z" transform="translate(8.534 39.701)" fill="#77ac9a"/>
        </g>
      </g>
    </g>
  </g>
</svg>
