<svg xmlns="http://www.w3.org/2000/svg" xmlns:xlink="http://www.w3.org/1999/xlink" width="84" height="84" viewBox="0 0 84 84">
  <defs>
    <clipPath id="clip-path">
      <rect id="Rectángulo_458174" data-name="Rectángulo 458174" width="64.799" height="64.553" fill="#5d0b80"/>
    </clipPath>
  </defs>
  <g id="Grupo_1205918" data-name="Grupo 1205918" transform="translate(-185.988 -1047.091)">
    <rect id="Rectángulo_455472" data-name="Rectángulo 455472" width="84" height="84" rx="12" transform="translate(185.988 1047.091)" fill="#ffe9a1"/>
    <g id="Grupo_1207330" data-name="Grupo 1207330" transform="translate(195.989 1056.091)">
      <g id="Grupo_1207329" data-name="Grupo 1207329" clip-path="url(#clip-path)">
        <path id="Trazado_1265620" data-name="Trazado 1265620" d="M4.966,10.564V28.71a4.226,4.226,0,0,1,2.716,2.6l6.883-.037a4,4,0,0,1,2.591-2.591l.026-15.066a1.2,1.2,0,0,1,.841-1.2l31.954.077c.526.111.51.673.547,1.114a57.379,57.379,0,0,1,0,8.159,1.4,1.4,0,0,1-.467,1.015H25.242c-.6,0-.529-1.852.37-1.852H48.667V14.267H19.224v6.666H22.28c.636,0,.909,1.852.185,1.852H19.224V28.71a4.226,4.226,0,0,1,2.716,2.6h6.788c1.519-3.707,5.951-3.707,7.47,0l6.883-.037a3.764,3.764,0,0,1,7.251.03h11.11c-.233-.543-1.378-1.166-1.407-1.755a1.031,1.031,0,0,1,1.273-1,37.937,37.937,0,0,1,3.291,3.2.9.9,0,0,1,0,1.132,37.913,37.913,0,0,1-3.291,3.2,1.031,1.031,0,0,1-1.273-1c.029-.588,1.174-1.212,1.407-1.755H50.333a4.226,4.226,0,0,1-2.6,2.716L47.657,63.9l-.471.64-32.237.011c-.46-.087-.5-.54-.539-.934a57.218,57.218,0,0,1-.009-8.159c.043-.462.271-1.38.842-1.38H45.7V35.932a4.226,4.226,0,0,1-2.716-2.6L36.1,33.37a4,4,0,0,1-2.592,2.592l-.026,15.066a1.2,1.2,0,0,1-.841,1.2L.691,52.146c-.526-.111-.51-.673-.547-1.114a57.379,57.379,0,0,1,0-8.159,1.4,1.4,0,0,1,.467-1.015H31.446V35.932a4.226,4.226,0,0,1-2.716-2.6H21.941c-1.519,3.707-5.952,3.706-7.47,0H7.683C4.124,40.464-4.2,32.146,2.936,28.586l0-27.548C3.034.51,3.347-.015,3.938,0L35.573.048a1.107,1.107,0,0,1,.7.97,56.69,56.69,0,0,1,0,8.166c-.043.462-.271,1.38-.842,1.38Zm29.442-8.7H4.966V8.527H34.408ZM3.624,30.412a1.948,1.948,0,0,0,.49,3.852c2.578-.249,1.992-4.326-.49-3.852m14.258,0a1.948,1.948,0,0,0,.49,3.852c2.633-.255,2-4.327-.49-3.852m14.258,0a1.948,1.948,0,0,0,.49,3.852c2.633-.255,2-4.327-.49-3.852m14.258,0a1.948,1.948,0,0,0,.49,3.852c2.633-.255,2-4.327-.49-3.852m-14.953,13.3H2v6.666H31.446ZM45.7,56.116H16.262v6.666H45.7Z" transform="translate(0 0.001)" fill="#5d0b80"/>
        <path id="Trazado_1265621" data-name="Trazado 1265621" d="M60.091,19.234a1.646,1.646,0,1,1-1.646-1.646,1.646,1.646,0,0,1,1.646,1.646" transform="translate(-46.281 -14.331)" fill="#5d0b80"/>
        <path id="Trazado_1265622" data-name="Trazado 1265622" d="M89.128,19.234a1.646,1.646,0,1,1-1.646-1.646,1.646,1.646,0,0,1,1.646,1.646" transform="translate(-69.942 -14.331)" fill="#5d0b80"/>
        <path id="Trazado_1265623" data-name="Trazado 1265623" d="M118.165,19.234a1.646,1.646,0,1,1-1.646-1.646,1.646,1.646,0,0,1,1.646,1.646" transform="translate(-93.602 -14.331)" fill="#5d0b80"/>
        <path id="Trazado_1265624" data-name="Trazado 1265624" d="M147.795,87.382a1.646,1.646,0,1,1-1.646-1.646,1.646,1.646,0,0,1,1.646,1.646" transform="translate(-117.745 -69.86)" fill="#5d0b80"/>
        <path id="Trazado_1265625" data-name="Trazado 1265625" d="M176.832,87.382a1.646,1.646,0,1,1-1.646-1.646,1.646,1.646,0,0,1,1.646,1.646" transform="translate(-141.405 -69.86)" fill="#5d0b80"/>
        <path id="Trazado_1265626" data-name="Trazado 1265626" d="M205.869,87.382a1.646,1.646,0,1,1-1.646-1.646,1.646,1.646,0,0,1,1.646,1.646" transform="translate(-165.066 -69.86)" fill="#5d0b80"/>
        <path id="Trazado_1265627" data-name="Trazado 1265627" d="M54.165,245.6a1.646,1.646,0,1,1-1.646-1.646,1.646,1.646,0,0,1,1.646,1.646" transform="translate(-41.453 -198.784)" fill="#5d0b80"/>
        <path id="Trazado_1265628" data-name="Trazado 1265628" d="M83.2,245.6a1.646,1.646,0,1,1-1.646-1.646A1.646,1.646,0,0,1,83.2,245.6" transform="translate(-65.113 -198.784)" fill="#5d0b80"/>
        <path id="Trazado_1265629" data-name="Trazado 1265629" d="M112.239,245.6a1.646,1.646,0,1,1-1.646-1.646,1.646,1.646,0,0,1,1.646,1.646" transform="translate(-88.773 -198.784)" fill="#5d0b80"/>
        <path id="Trazado_1265630" data-name="Trazado 1265630" d="M130.017,313.752a1.646,1.646,0,1,1-1.646-1.646,1.646,1.646,0,0,1,1.646,1.646" transform="translate(-103.259 -254.313)" fill="#5d0b80"/>
        <path id="Trazado_1265631" data-name="Trazado 1265631" d="M159.054,313.752a1.646,1.646,0,1,1-1.646-1.646,1.646,1.646,0,0,1,1.646,1.646" transform="translate(-126.919 -254.313)" fill="#5d0b80"/>
        <path id="Trazado_1265632" data-name="Trazado 1265632" d="M188.091,313.752a1.646,1.646,0,1,1-1.646-1.646,1.646,1.646,0,0,1,1.646,1.646" transform="translate(-150.579 -254.313)" fill="#5d0b80"/>
      </g>
    </g>
  </g>
</svg>
