<svg xmlns="http://www.w3.org/2000/svg" xmlns:xlink="http://www.w3.org/1999/xlink" width="96" height="96" viewBox="0 0 96 96">
  <defs>
    <clipPath id="clip-path">
      <rect id="Rectángulo_458387" data-name="Rectángulo 458387" width="57.043" height="58.058" fill="#fff"/>
    </clipPath>
  </defs>
  <g id="Grupo_1205946" data-name="Grupo 1205946" transform="translate(-383.746 -8400.001)">
    <path id="Trazado_997400" data-name="Trazado 997400" d="M48,0A48,48,0,1,1,0,48,48,48,0,0,1,48,0Z" transform="translate(383.746 8400.001)" fill="#5d0b80"/>
    <g id="Grupo_1099776" data-name="Grupo 1099776" transform="translate(401.746 8418)">
      <g id="Grupo_1099618" data-name="Grupo 1099618" transform="translate(0 -0.137)">
        <rect id="Rectángulo_401104" data-name="Rectángulo 401104" width="59.378" height="60.093" transform="translate(0)" fill="none"/>
      </g>
      <g id="Grupo_1207568" data-name="Grupo 1207568" transform="translate(1 0.863)">
        <g id="Grupo_1207567" data-name="Grupo 1207567" clip-path="url(#clip-path)">
          <path id="Trazado_1266508" data-name="Trazado 1266508" d="M83.666,118.013c-1.117-.983-.712-2.4-.769-3.721-9.495-8.266-2.084-19.635,8.97-20.376,7.713-.517,16.471,4.422,15.727,13.062-.626,7.275-9.2,11.176-15.736,10.749-.889-.058-2.5-.579-3.182-.532-1.422.1-2.946,2.636-5.01.819m1.182-4.291a20.26,20.26,0,0,1,0,2.665c0,.183.356.272.581.238.79-.12,2.406-1.543,3.059-1.553.616-.009,2.3.618,3.2.69,6.494.517,14.487-3.289,13.951-10.753-.511-7.111-9.472-9.973-15.5-8.916-6.932,1.215-12.92,8.445-7.772,14.959.546.691,2.371,2.02,2.483,2.669" transform="translate(-64.588 -77.2)" fill="#fff"/>
          <path id="Trazado_1266509" data-name="Trazado 1266509" d="M234.217,237.209c.067-.87.057-3.415,1.018-3.7a1.038,1.038,0,0,1,1.259.63,50.7,50.7,0,0,1-.717,5.427.982.982,0,0,1-.8.8,34.1,34.1,0,0,1-4.761.759c-1.282.038-1.641-1.245-.866-1.768a16.794,16.794,0,0,1,2.836-.541c.247-.053.514.151.435-.268l-5.23-5.251c-.762-1.093.272-2.18,1.413-1.415,1.616,1.083,3.195,3.772,4.883,5.066.178.137.225.345.533.265" transform="translate(-186.775 -190.473)" fill="#fff"/>
          <path id="Trazado_1266510" data-name="Trazado 1266510" d="M138.709,270.857c.276.321,2.776-2.756,3.747-1.527.881,1.115-1.7,2.626-2.519,3.2-.845.591-1.835,1.7-2.895,1.146a46.763,46.763,0,0,1-3.849-2.9c-.744-.814-.394-1.849.792-1.692.865.115,1.869,1.554,2.769,1.773v-7.906c0-.756,1.954-.756,1.954,0Z" transform="translate(-109.21 -215.77)" fill="#fff"/>
          <path id="Trazado_1266511" data-name="Trazado 1266511" d="M138.867,3.034v7.906c0,.756-1.954.756-1.954,0V3.034c-.916.206-2.678,2.558-3.646,1.6a1.369,1.369,0,0,1-.235-1.123A28.066,28.066,0,0,1,137.887,0a1.356,1.356,0,0,1,.69.217,44.978,44.978,0,0,1,3.852,2.9c.744.814.394,1.849-.792,1.692-.865-.115-1.869-1.554-2.769-1.773" transform="translate(-109.368 0)" fill="#fff"/>
          <path id="Trazado_1266512" data-name="Trazado 1266512" d="M234.084,45.968c-.308-.08-.355.128-.533.265-1.748,1.34-3.164,3.627-4.875,5.073-1.218.6-2.23-.208-1.423-1.422l5.231-5.251c.078-.4-.169-.227-.415-.289-.995-.251-3.236-.033-3.269-1.339-.022-.878.779-.973,1.459-.945a46.834,46.834,0,0,1,4.967.9,1.25,1.25,0,0,1,.412.832,40.562,40.562,0,0,1,.686,5.2,1.023,1.023,0,0,1-1.345.618c-.812-.365-.837-2.8-.894-3.643" transform="translate(-186.642 -34.584)" fill="#fff"/>
          <path id="Trazado_1266513" data-name="Trazado 1266513" d="M45.007,239.031c.125.109,2.776.209,3.273.546a1.022,1.022,0,0,1-.2,1.729,31.815,31.815,0,0,1-5.428-.721.919.919,0,0,1-.569-.32c-.583-.772-.52-4.342-.972-5.433-.074-.949,1.2-1.6,1.772-.7a10.922,10.922,0,0,1,.531,2.846c.035.254-.167.524.256.447l5.144-5.337c1.214-.581,2.226.159,1.422,1.422-.987,1.553-3.744,3.387-4.967,4.981-.137.178-.345.225-.265.533" transform="translate(-33.805 -190.696)" fill="#fff"/>
          <path id="Trazado_1266514" data-name="Trazado 1266514" d="M265.648,141.378H257.92c-.756,0-.756-1.954,0-1.954h7.728c-.22-1.093-2.417-2.529-1.612-3.655a1.009,1.009,0,0,1,1.592.034,48.566,48.566,0,0,1,2.875,4.051.954.954,0,0,1,0,1.094c-.172.388-2.535,3.7-2.876,4.051a1.009,1.009,0,0,1-1.592.034c-.805-1.126,1.391-2.562,1.612-3.655" transform="translate(-211.633 -111.34)" fill="#fff"/>
          <path id="Trazado_1266515" data-name="Trazado 1266515" d="M3.028,139.423h7.728c.756,0,.756,1.954,0,1.954H3.028c.243,1.09,2.5,2.663,1.519,3.74a.99.99,0,0,1-1.5-.119c-.341-.355-2.7-3.663-2.876-4.051a.956.956,0,0,1,0-1.1c.171-.388,2.535-3.7,2.876-4.051a1.009,1.009,0,0,1,1.592-.034c.805,1.126-1.391,2.562-1.612,3.655" transform="translate(0 -111.34)" fill="#fff"/>
          <path id="Trazado_1266516" data-name="Trazado 1266516" d="M45.018,44.361c-.08.308.128.355.265.533,1.231,1.6,3.957,3.411,4.966,4.981.765,1.191-.246,2.044-1.422,1.422l-5.144-5.337c-.424-.076-.222.193-.256.448a10.936,10.936,0,0,1-.531,2.847c-.568.9-1.775.4-1.772-.7a40.093,40.093,0,0,1,.737-4.782,1.61,1.61,0,0,1,.8-.978,37.552,37.552,0,0,1,4.767-.753c.685-.019,1.14.091,1.233.867.178,1.478-2.66,1.227-3.64,1.447" transform="translate(-33.816 -34.576)" fill="#fff"/>
          <path id="Trazado_1266517" data-name="Trazado 1266517" d="M127.944,170.131l10.262-.034a1,1,0,0,1,0,1.947h-10.3a1.088,1.088,0,0,1-.79-.973,1.037,1.037,0,0,1,.824-.94" transform="translate(-104.536 -139.878)" fill="#fff"/>
          <path id="Trazado_1266518" data-name="Trazado 1266518" d="M127.942,140.563c3.117.2,6.873-.4,9.914-.041,1.49.175,1.47,1.74.163,1.946-3.078-.246-6.76.368-9.763.014-1.332-.157-1.57-1.453-.314-1.919" transform="translate(-104.535 -115.461)" fill="#fff"/>
        </g>
      </g>
    </g>
  </g>
</svg>
