<svg id="Grupo_1207337" data-name="Grupo 1207337" xmlns="http://www.w3.org/2000/svg" xmlns:xlink="http://www.w3.org/1999/xlink" width="84" height="83.96" viewBox="0 0 84 83.96">
  <defs>
    <clipPath id="clip-path">
      <rect id="Rectángulo_458177" data-name="Rectángulo 458177" width="84" height="83.96" fill="#fff"/>
    </clipPath>
  </defs>
  <g id="Grupo_1207336" data-name="Grupo 1207336" clip-path="url(#clip-path)">
    <path id="Trazado_1265648" data-name="Trazado 1265648" d="M19.581,1.177c.1-.454.837-1.277,1.4-1.167l39.3.064a1.047,1.047,0,0,1,.735.3L77.825,17.054a1.053,1.053,0,0,1,.226.333l.219.514a1.049,1.049,0,0,1,.084.41l-.007,36.352a.847.847,0,0,0,.034.264c.27.817,1.55,1.4,2.147,2.051A12.87,12.87,0,0,1,78.753,76.13a1.07,1.07,0,0,0-.416.763c-.148,1.905.233,4.043-.021,5.864-.07.5-.172.949-.723,1.057l-56.613.125c-.506.18-1.4-.856-1.4-1.167V40.634a1.047,1.047,0,0,0-1.7-.816L5.238,49.969a1.015,1.015,0,0,1-.3.167c-1.44.507-1.926-.018-2.049-1.48-.25-2.956.207-6.254.012-9.25-.126-.664-1.291-1.011-1.862-1.73a4.164,4.164,0,0,1-.972-2.62c-.1-12.431-.1-12.583.033-23.081-.146-1.1,2.076-3.487,2.928-3.487H18.61a1.045,1.045,0,0,0,1.047-1.023c.038-2.034-.425-4.644-.076-6.29M57.793,2.844H23.45A1.047,1.047,0,0,0,22.4,3.891V7.443A1.047,1.047,0,0,0,23.45,8.489H33.565c1.064,0,2.968,2.592,2.928,3.743.122,12.522.274,12.522.033,22.568a4.421,4.421,0,0,1-2.3,3.855,12.863,12.863,0,0,1-1.684.625H23.45A1.047,1.047,0,0,0,22.4,40.326v39.73A1.047,1.047,0,0,0,23.45,81.1H74.47a1.046,1.046,0,0,0,1.047-1.047v-1.02a1.047,1.047,0,0,0-1.275-1.021,10.641,10.641,0,0,1-1.664.277,97.832,97.832,0,0,1-12.081,0c-1.435-.119-1.548-.245-1.667-1.667-.087-1.039-.209-6,.521-6.429.789-.466,9.583.029,11.43-.116,6.765-.531,6.025-8.193.451-8.509a1.046,1.046,0,0,0-1.083.909c-.12.846-.6,1.75-1.335,1.914a.979.979,0,0,1-.779-.186c-2.311-1.678-4.92-3.052-7.223-4.7-1.689-1.212-3.037-1.887-.923-3.65a97.72,97.72,0,0,1,8.587-5.54c1.135-.113,1.557.884,1.653,1.865a1.044,1.044,0,0,0,1.025.948,13.222,13.222,0,0,1,3.065.343,1.057,1.057,0,0,0,1.3-1.034V20.569a1.047,1.047,0,0,0-1.047-1.047H60.784a1.951,1.951,0,0,1-1.945-1.945V3.891a1.047,1.047,0,0,0-1.047-1.047M71.678,14.913l-8.23-8.23a1.047,1.047,0,0,0-1.787.74v8.23A1.047,1.047,0,0,0,62.708,16.7h8.23a1.047,1.047,0,0,0,.74-1.787M7.419,44.619l10.06-7.91a1.043,1.043,0,0,1,.544-.221c4.474-.431,9.662.478,14.007-.026,1.329-.154,1.632-.671,1.675-1.917.326-9.487.173-11.159,0-21.581a1.44,1.44,0,0,0-.44-1.236,1.012,1.012,0,0,0-.717-.28l-28.588.094A1.047,1.047,0,0,0,3,12.192l-.029.072a1.045,1.045,0,0,0-.077.4L2.909,35.3c.141,1.282,2.817,1.041,2.817,2.315V43.8a1.047,1.047,0,0,0,1.693.823M61.662,74.412a1.047,1.047,0,0,0,1.047,1.047H73.336a10.853,10.853,0,0,0,3.549-1.583,9.815,9.815,0,0,0-4.606-17.886c-1.732-.179-4.915.8-5.1-1.57-1.026.923-3.115,1.733-3.985,2.689-.359.395-.192.314.138.642.931.923,2.807,1.66,3.848,2.568-.11-2.126,3.81-1.688,5.32-1.471a7.015,7.015,0,0,1,3.28,12.384,11.957,11.957,0,0,1-2.7,1.4H62.708a1.047,1.047,0,0,0-1.047,1.047Z" transform="translate(0 0)" fill="#fff"/>
    <path id="Trazado_1265649" data-name="Trazado 1265649" d="M153.642,61.993a2.015,2.015,0,0,1-.509-.517,44.192,44.192,0,0,1-.127-6.79c.153-.8.932-1.082,1.657-1.166a71.763,71.763,0,0,1,10.282-.006c.793.071,1.727.227,1.907,1.172.156.815.083,6.367-.232,6.876a1.728,1.728,0,0,1-.66.432h-4.747v5.645h4.747a1.726,1.726,0,0,1,.66.432c.384.619.4,6.864,0,7.413a4.857,4.857,0,0,1-.917.623h-4.49v5.388h4.234a5.168,5.168,0,0,1,1.179.617c.391.5.374,6.808-.005,7.418a1.729,1.729,0,0,1-.66.432h-4.747v5.645h4.747a2.516,2.516,0,0,1,.892,1.16,39.355,39.355,0,0,1,.018,5.908c-.076.556-.649,1.4-1.167,1.4h-4.49v5.26l.385.385h4.619a2.071,2.071,0,0,1,.654,1.656c.089.966.169,5.934-.44,6.319a2.85,2.85,0,0,1-1.23.247,79.052,79.052,0,0,1-10.8,0c-.722-.071-1.225-.048-1.389-.92a44.412,44.412,0,0,1,0-6.4c.054-.281.443-.9.635-.9h4.747v-5.645H153.9a4.443,4.443,0,0,1-.765-.775,36.477,36.477,0,0,1,0-7.179,3.306,3.306,0,0,1,.77-.513h4.49V89.961h-4.747c-.192,0-.581-.623-.635-.9a45.449,45.449,0,0,1,0-6.4,1.841,1.841,0,0,1,1.405-1.161h3.977V76.105h-4.234c-.518,0-1.091-.843-1.167-1.4a47.663,47.663,0,0,1,.141-6.555,3.306,3.306,0,0,1,.77-.513h4.49V61.993Zm10.392-5.645h-8.211V59.17h8.211Zm0,14.112h-8.211v2.822h8.211Zm0,13.856h-8.211v2.822h8.211Zm0,14.112h-8.211v2.822h8.211Zm0,13.856h-8.211v2.822h8.211Z" transform="translate(-113.662 -39.647)" fill="#fff"/>
    <path id="Trazado_1265650" data-name="Trazado 1265650" d="M107.456,218.1c6.787-1.1,6.259,9.548.054,8.293-4.678-.946-4.278-7.61-.054-8.293m1.8,3.08c-1.122-1.129-3.445.686-1.986,2.113,1.389,1.357,3.133-.958,1.986-2.113" transform="translate(-77.421 -162.078)" fill="#fff"/>
    <path id="Trazado_1265651" data-name="Trazado 1265651" d="M111.139,274a4.207,4.207,0,1,1-6.633.757c1.235-2.291,4.909-2.573,6.633-.757m-3.122,1.553a1.391,1.391,0,1,0,.5,2.721c1.5-.246,1.18-2.79-.5-2.721" transform="translate(-77.279 -202.812)" fill="#fff"/>
    <path id="Trazado_1265652" data-name="Trazado 1265652" d="M105.9,171.824a33.827,33.827,0,0,1-1.548-3.2c-.488-2.419,1.992-2.682,2.9-.587.32.011,2.373-3.456,3.064-3.857,1.448-.839,2.706.213,2.056,1.8-.191.466-3.459,4.729-3.974,5.261-.644.665-1.556,1.486-2.494.583" transform="translate(-77.526 -121.833)" fill="#fff"/>
    <path id="Trazado_1265653" data-name="Trazado 1265653" d="M46.065,67.533H26.6a1.825,1.825,0,0,1,0-3.649H46.065a1.825,1.825,0,1,1,0,3.649" transform="translate(-18.42 -47.492)" fill="#fff"/>
    <path id="Trazado_1265654" data-name="Trazado 1265654" d="M46.065,93.607H26.6a1.825,1.825,0,0,1,0-3.649H46.065a1.825,1.825,0,0,1,0,3.649" transform="translate(-18.42 -66.876)" fill="#fff"/>
    <path id="Trazado_1265655" data-name="Trazado 1265655" d="M37.55,117.9H26.6a1.825,1.825,0,0,1,0-3.649H37.55a1.825,1.825,0,1,1,0,3.649" transform="translate(-18.42 -84.938)" fill="#fff"/>
    <path id="Trazado_1265656" data-name="Trazado 1265656" d="M238.439,114.348H227.492a1.825,1.825,0,0,1,0-3.649h10.948a1.825,1.825,0,0,1,0,3.649" transform="translate(-167.764 -82.295)" fill="#fff"/>
    <path id="Trazado_1265657" data-name="Trazado 1265657" d="M240.809,172.422H229.862a1.825,1.825,0,0,1,0-3.649h10.948a1.825,1.825,0,1,1,0,3.649" transform="translate(-169.526 -125.468)" fill="#fff"/>
  </g>
</svg>
