<svg xmlns="http://www.w3.org/2000/svg" xmlns:xlink="http://www.w3.org/1999/xlink" width="96" height="96" viewBox="0 0 96 96">
  <defs>
    <clipPath id="clip-path">
      <rect id="Rectángulo_458386" data-name="Rectángulo 458386" width="59.378" height="59.214" fill="#fff"/>
    </clipPath>
  </defs>
  <g id="Grupo_1205945" data-name="Grupo 1205945" transform="translate(-383.746 -8399.863)">
    <path id="Trazado_997400" data-name="Trazado 997400" d="M48,0A48,48,0,1,1,0,48,48,48,0,0,1,48,0Z" transform="translate(383.746 8399.863)" fill="#5d0b80"/>
    <g id="Grupo_1099776" data-name="Grupo 1099776" transform="translate(401.746 8418)">
      <g id="Grupo_1099618" data-name="Grupo 1099618" transform="translate(0 -0.137)">
        <rect id="Rectángulo_401104" data-name="Rectángulo 401104" width="59.378" height="60.093" transform="translate(0)" fill="none"/>
      </g>
      <g id="Grupo_1207566" data-name="Grupo 1207566" transform="translate(0 0.864)">
        <g id="Grupo_1207565" data-name="Grupo 1207565" clip-path="url(#clip-path)">
          <path id="Trazado_1266498" data-name="Trazado 1266498" d="M39.6,41.087c-.1.093-.277.574-.219.654,5.5,2.2,11.4,3.883,16.843,6.171a5.007,5.007,0,0,1,2.553,1.647,3.555,3.555,0,0,1-3.548,5.472L37.367,46.839c-.959.892.775,2.193.584,3.346a12.707,12.707,0,0,1-1.12,2.395,2.317,2.317,0,0,1-2.351.453c-3.523-1.714-7.465-2.715-10.764-4.811H2.193A2.669,2.669,0,0,1,.144,46.6L0,2.274A2.686,2.686,0,0,1,1.613.036L39.74,0c1.33.573,1.642,1.616,1.748,2.976l-.007,32.03.173.352a1.867,1.867,0,0,1,1.416,2.1,8.539,8.539,0,0,1-.882,2.45c-.514.625-2.177.784-2.587,1.175m-.044-6.693V2.458a2.677,2.677,0,0,0-.437-.612H2.2l-.262.262v44.01l21.931.181c.222-.053.53-1.395.894-1.768,1.011-1.034,1.957-.16,2.928-2.146a46.189,46.189,0,0,0,2.037-4.975c.194-1.144-.9-1.95-.854-2.926a10.08,10.08,0,0,1,.791-2.025,2.171,2.171,0,0,1,1.624-1.177c1.274-.112,7.979,3.443,8.272,3.111m1.178,4.153a11.269,11.269,0,0,0,.4-1.1l-.179-.339-9.6-3.741c-.7,1.117-.237,1.915.27,2.964,1.458.316,6.345,3.11,7.447,2.932a13.822,13.822,0,0,0,1.662-.717m-3.1,2.325L31.346,38.43l-2.113,5.236,6.293,2.447ZM57,50.373,38.867,43.562c-.323-.053-1.384,1.68-.368,1.778l16.937,7.737c1.563.569,2.711-1.668,1.567-2.7m-21.487.8c.6-1.129.235-2-.338-3.041l-6.953-2.858c-1.268-.008-2.531.591-2.478,2.049Z" transform="translate(-0.001)" fill="#fff"/>
          <path id="Trazado_1266499" data-name="Trazado 1266499" d="M143.953,312.734l-16.641.188a.589.589,0,0,1-.337-.362,20.2,20.2,0,0,1-.1-4.387,1.25,1.25,0,0,1,1.1-.65l15.366.041a1.022,1.022,0,0,1,.814.936c.093.591.1,3.932-.206,4.235m-1.708-3.283H128.771v1.575h13.474Z" transform="translate(-104.613 -253.708)" fill="#fff"/>
          <path id="Trazado_1266500" data-name="Trazado 1266500" d="M93.53,93.719c.312.313.355,1.385-.133,1.622l-22.49.087a.967.967,0,1,1-.006-1.934l21.715,0c.271.023.721.03.913.224" transform="translate(-57.69 -77.133)" fill="#fff"/>
          <path id="Trazado_1266501" data-name="Trazado 1266501" d="M70.488,144.546l22.368-.047c1.244.106.974,1.862-.174,1.942l-21.712-.005c-1.175.052-1.7-1.626-.482-1.89" transform="translate(-57.578 -119.213)" fill="#fff"/>
          <path id="Trazado_1266502" data-name="Trazado 1266502" d="M70.246,205.875l14.629-.043c.814.1.637,1.694-.114,1.767l-14.2,0c-.769.047-1.115-1.479-.315-1.72" transform="translate(-57.578 -169.813)" fill="#fff"/>
          <path id="Trazado_1266503" data-name="Trazado 1266503" d="M70.488,54.768l22.368-.047c1.244.106.974,1.862-.174,1.942L70.97,56.658c-1.175.052-1.7-1.626-.482-1.89" transform="translate(-57.578 -45.145)" fill="#fff"/>
          <path id="Trazado_1266504" data-name="Trazado 1266504" d="M28.653,194.29c.714-.157,3.851-.193,4.263.387a18.746,18.746,0,0,1,.17,4.221.8.8,0,0,1-.254.621,19.431,19.431,0,0,1-4.225.166.8.8,0,0,1-.621-.254,20.147,20.147,0,0,1-.155-4.388,1.029,1.029,0,0,1,.821-.753m2.5,1.886h-1.4v1.577h1.4Z" transform="translate(-22.919 -160.209)" fill="#fff"/>
          <path id="Trazado_1266505" data-name="Trazado 1266505" d="M28.832,42.37c.728-.129,3.649-.193,4.087.38a19.251,19.251,0,0,1,.167,4.224.8.8,0,0,1-.254.621,19.431,19.431,0,0,1-4.225.166.8.8,0,0,1-.621-.254,20.114,20.114,0,0,1-.154-4.388c.1-.5.544-.669,1-.75m2.322,1.882h-1.4v1.577h1.4Z" transform="translate(-22.92 -34.883)" fill="#fff"/>
          <path id="Trazado_1266506" data-name="Trazado 1266506" d="M32.852,98.4c-.383.383-4.116.305-4.817,0-.291-.291-.3-3.659-.226-4.255a.991.991,0,0,1,.962-.962,21.6,21.6,0,0,1,3.343,0c.728.093.9.467.964,1.136.059.622.076,3.778-.227,4.082m-1.707-3.284h-1.4V96.7h1.4Z" transform="translate(-22.91 -76.827)" fill="#fff"/>
          <path id="Trazado_1266507" data-name="Trazado 1266507" d="M28.341,144.336c.634-.138,4.224-.18,4.513.309a28.112,28.112,0,0,1,.094,4.123c-.175,1.316-2.9,1.058-3.954.962-.706-.064-1.207-.177-1.313-.962a25.686,25.686,0,0,1,.009-3.859c.066-.36.309-.5.652-.573m2.674,1.885h-1.4V147.8h1.4Z" transform="translate(-22.78 -119.002)" fill="#fff"/>
        </g>
      </g>
    </g>
  </g>
</svg>
