<svg xmlns="http://www.w3.org/2000/svg" xmlns:xlink="http://www.w3.org/1999/xlink" width="160.5" height="160.501" viewBox="0 0 160.5 160.501">
  <defs>
    <clipPath id="clip-path">
      <rect id="Rectángulo_455261" data-name="Rectángulo 455261" width="38.951" height="37.623" fill="#e6fffa"/>
    </clipPath>
    <clipPath id="clip-path-2">
      <rect id="Rectángulo_458505" data-name="Rectángulo 458505" width="87.654" height="87.23" fill="#5d0b80"/>
    </clipPath>
  </defs>
  <g id="Grupo_1207096" data-name="Grupo 1207096" transform="translate(-307.436 -10011.92)">
    <path id="Sustracción_130" data-name="Sustracción 130" d="M26.051,25.795H0V11.245H11.352V0h14.7V25.795Z" transform="translate(441.641 10038.471) rotate(-90)" fill="#e3a4fe" stroke="rgba(0,0,0,0)" stroke-miterlimit="10" stroke-width="1"/>
    <g id="Grupo_1178100" data-name="Grupo 1178100" transform="translate(307.436 10172.421) rotate(-90)">
      <path id="Trazado_998183" data-name="Trazado 998183" d="M0,0V37.623H25.58V24.056H38.951V0Z" transform="translate(0 0)" fill="#5d0b80"/>
      <g id="Grupo_1178099" data-name="Grupo 1178099" transform="translate(0 0)">
        <g id="Grupo_1178098" data-name="Grupo 1178098" clip-path="url(#clip-path)">
          <path id="Trazado_998184" data-name="Trazado 998184" d="M0,9.021a9.025,9.025,0,1,1,9.025,9.021A9.023,9.023,0,0,1,0,9.021" transform="translate(4.434 5.629)" fill="#e3a4fe"/>
        </g>
      </g>
    </g>
    <g id="Grupo_1177470" data-name="Grupo 1177470" transform="translate(308.059 10012.421)">
      <circle id="Elipse_13609" data-name="Elipse 13609" cx="79.688" cy="79.688" r="79.688" fill="#f0d5fe"/>
      <g id="Grupo_1099776" data-name="Grupo 1099776" transform="translate(33.723 33.96)">
        <g id="Grupo_1099618" data-name="Grupo 1099618" transform="translate(0.365 0.078)">
          <rect id="Rectángulo_401104" data-name="Rectángulo 401104" width="90.569" height="91.661" transform="translate(0)" fill="none"/>
        </g>
        <g id="Grupo_1207711" data-name="Grupo 1207711" transform="translate(1.365 2.078)">
          <g id="Grupo_1207710" data-name="Grupo 1207710" clip-path="url(#clip-path-2)">
            <path id="Trazado_1267098" data-name="Trazado 1267098" d="M75.957,24.742H85.33a3.275,3.275,0,0,1,2.13,2.619c-.474,6.6.611,14.017,0,20.512a2.911,2.911,0,0,1-1.422,2.577,11.534,11.534,0,0,1-1.212.538H75.957V71.235H86.33c.625,0,1.062,1.052,1.129,1.62.243,2.036.182,7.952-.492,9.765a7.656,7.656,0,0,1-5.913,4.585l-62.711.024a7.658,7.658,0,0,1-6.627-7.121V50.988H2.842a11.535,11.535,0,0,1-1.212-.538A2.911,2.911,0,0,1,.208,47.873c-.658-7.036.5-15.1.022-22.243.046-.775,1.447-2.388,2.112-2.388h9.374V15.993H2.342c-.695,0-1.987-1.629-2.112-2.388A33.619,33.619,0,0,1,.537,5.19,7.518,7.518,0,0,1,7.1,0H69.078a7.591,7.591,0,0,1,6.878,7.12ZM11.716,12.994V5.87a11.425,11.425,0,0,0-.75-1.249,4.364,4.364,0,0,0-6.474-.476A11.982,11.982,0,0,0,3.217,6.12v6.874ZM72.957,24.742V6.62C72.957,5.564,70.782,3,69.832,3H13.466c.268.695,1.25,2.207,1.25,2.875V23.242H18.34c.846,0,2.613,1.947,2.125,3L39.323,27.5c2.406-1.65,4.005-3.766,7.251-3.761L66.832,28.5c.521.049.328-.033.377-.376.1-.733-.139-1.151.281-1.974a4.965,4.965,0,0,1,1.593-1.407Zm-55.242,1.5H3.217V47.989h14.5ZM67.166,46.948,67.1,31.727l-19.825-4.92a4.114,4.114,0,0,0-2.729.392c-1.41.64-7.371,6.231-8.834,7.663-.789.773-1.743,1.473-1.665,2.72.137,2.191,2.392,2.623,4.042,1.407,2.967-2.187,6.008-5.98,9-8A1.8,1.8,0,0,1,48.47,30.6c1.773.9,1.115,1.778.349,3.144L62.571,48.253c1.086.644,3.383-1.03,4.6-1.305M84.455,27.492H70.332l-.375.375V47.989h14.5Zm-63.991,1.75V44.864c.4.541,1.142.33,1.762.487.9.229,2.776.96,3.469,1.025.318.03,1.863-1.069,2.9-1.144a4.392,4.392,0,0,1,4.635,4.239,4.105,4.105,0,0,1,3.674,2.2c.231.482.215,1.256.435,1.564.362.506,2.671.6,3.752,2.747.2.4.26,1.243.429,1.445.2.243,1.325.4,1.755.622a4.408,4.408,0,0,1,2.169,2.827c.305,1.883-.953,2.809.892,4.107.687.483,1.106.729,1.869.121,2.09-1.663-2.722-3.544-.343-5.091,1.879-1.222,2.946,2,4.235,2.225,1.311.226,2.354-.9,1.625-2.141-1.09-1.85-9.116-6.712-3.948-7.826l7.19,6.839c1.687.589,2.481-.847,1.757-2.263l-6.478-6.516c-.9-1.68.559-3,2.205-1.956,1.328.844,4.716,5.267,5.688,5.563a1.513,1.513,0,0,0,2.055-1.326c.005-1.283-13.95-14.927-15.64-17.1-.47-.082-6.166,5.5-7.256,6.19a5.228,5.228,0,0,1-8.06-5.312c.354-2.588,3.688-4.24,5.226-6.143ZM14.716,50.988V80.609c0,1.188,1.859,3.21,2.992,3.507a4.459,4.459,0,0,0,5.734-3.529c.255-1.85-.454-7.792.409-8.839a2.832,2.832,0,0,1,.738-.512H72.957V50.988a26.642,26.642,0,0,1-3.059-.065c-.9-.138-1.82-.9-2.307-.912-.545-.01-2.549.785-2.647,1.356-.182,1.072.4,1.631-.3,3.181-.766,1.692-2.5,2-2.645,2.228-.163.262.018,1.456-.1,2.03-.42,2.1-3.127,4-5.186,3.18a4.3,4.3,0,0,1-3.241,3.139c-.565.124-1.77.023-1.977.15-.322.2-.721,2.157-2.6,2.769-2.718.883-3.737-.506-5.772-1.782-1.99,2.513-6.027,2.931-7.712-.1-.3-.543-.416-1.527-.692-1.808-.321-.328-1.068-.286-1.48-.52-1.014-.575-2.277-1.592-2.277-2.851a4.365,4.365,0,0,1-5.471-4.15c-.007-.688.575-1.746.446-2.184-.068-.231-1.213-.921-1.581-1.43a5.079,5.079,0,0,1-.646-4.473l-2.885-.693c-.349.066-.588,1.358-.9,1.772-1.08,1.456-3.617,1.141-5.214,1.16m12.058.69c1.118,1.119,3.449-.631,3.452-2.063.007-3.428-5.35.163-3.452,2.063m5.873.6a19.079,19.079,0,0,0-3.9,3.617c-.871,1.655.562,2.848,2.059,2.061A31.964,31.964,0,0,0,34.18,54.58a1.482,1.482,0,0,0-1.532-2.3m4.727,7.373c.611-.661,1.227-1.3,1.04-2.227-.665-3.3-6.666,2.476-4.2,3.689,1.111.547,2.441-.68,3.164-1.463m3.521.876a10.324,10.324,0,0,0-3,2.778A1.462,1.462,0,0,0,39.7,65.365a26.486,26.486,0,0,0,2.823-2.949,1.388,1.388,0,0,0-1.632-1.89m43.559,13.71H26.464v6.374c0,1.013-1.019,2.609-1.25,3.624H81.331c1,0,3.125-2.132,3.125-3.125Z" transform="translate(0)" fill="#5d0b80"/>
          </g>
        </g>
      </g>
    </g>
  </g>
</svg>
