<svg xmlns="http://www.w3.org/2000/svg" xmlns:xlink="http://www.w3.org/1999/xlink" width="96" height="96" viewBox="0 0 96 96">
  <defs>
    <clipPath id="clip-path">
      <rect id="Rectángulo_458171" data-name="Rectángulo 458171" width="59.378" height="55.351" fill="#fff"/>
    </clipPath>
  </defs>
  <g id="Grupo_1206113" data-name="Grupo 1206113" transform="translate(-383.711 -8399.591)">
    <path id="Trazado_997400" data-name="Trazado 997400" d="M48,0A48,48,0,1,1,0,48,48,48,0,0,1,48,0Z" transform="translate(383.711 8399.591)" fill="#5d0b80"/>
    <g id="Grupo_1099776" data-name="Grupo 1099776" transform="translate(401.746 8418)">
      <g id="Grupo_1099618" data-name="Grupo 1099618" transform="translate(-0.035 0.223)">
        <rect id="Rectángulo_401104" data-name="Rectángulo 401104" width="59.378" height="60.093" transform="translate(0)" fill="none"/>
      </g>
      <g id="Grupo_1207324" data-name="Grupo 1207324" transform="translate(-0.035 2.223)">
        <g id="Grupo_1207323" data-name="Grupo 1207323" clip-path="url(#clip-path)">
          <path id="Trazado_1265600" data-name="Trazado 1265600" d="M45.6,42.892l0,9.434a1.364,1.364,0,0,0,2.726,0c.217-1.836-.377-4.942.071-6.561.2-.718,1.492-.618,1.625.1-.268,2.144.378,5.247-.039,7.268-.618,3-5.5,2.974-6.037-.172l-.064-14.379c-.111-.328-1.284-.537-1.673-.706a12.742,12.742,0,0,1-3.826-2.458l-3.744,3.4c-.157.356.221,1.066.266,1.6.542,6.293-9.051,5.511-7.566-.765-1.913-1.093-3.723-2.57-5.742-3.367a4.031,4.031,0,0,1-4.935.345L7.7,44.159c-.377.625.193,1.324.193,2.047A3.947,3.947,0,0,1,.745,48.414c-2.536-3.552,1.934-7.777,5.52-5.41l9.183-7.754c-2.282-7,8.449-7.894,7.29-.514l5.474,3.372a4.9,4.9,0,0,1,5.2-.5L37.091,34a10.459,10.459,0,0,1-1.466-2.283c-.474-1-.7-2.127-1.166-3.077C21.687,32.9,10.145,19.212,16.919,7.329c6.062-10.636,22.166-9.457,26.477,2,.31.824,1.065,2.423-.326,2.559-.894.087-1.428-2.348-1.823-3.128C36.374-.855,22.306-.508,17.876,9.3A12.955,12.955,0,0,0,34.309,26.758l.077-1.366c-3.632,1.246-7.216,1.266-10.586-.713a11.6,11.6,0,0,1,.108-20.046C31.857.057,41.4,6.084,41.354,15.026a12.671,12.671,0,0,1,16.009,4.465,12.457,12.457,0,0,1-7.327,18.831c-.2.773.435,4.571-.612,4.571ZM28.574,4.882c-11.763,1.2-11.39,18.976.462,19.658,1.232.071,4.909-.454,5.7-1.435a11.467,11.467,0,0,0,.643-1.736,16.072,16.072,0,0,1,2.58-3.877c.323-.355,1.239-.836,1.44-1.278.4-.882-.03-3.59-.344-4.578A9.936,9.936,0,0,0,28.574,4.882M44.3,23.411a3.92,3.92,0,1,1,.452,6.132l-4.915,4.623c2.191,2.595,6.48,3.336,9.707,2.559C58.4,34.592,60.555,22.6,52.961,17.437,43.8,11.208,32.416,21.172,37.245,31.113c.2.4,1.029,2.072,1.48,1.59l4.762-4.428c.11-.223-.377-1.211-.417-1.63a4.061,4.061,0,0,1,1.23-3.234m2.106.832c-2.193.395-2.04,3.849.14,4.2,3.272.525,3.533-4.86-.14-4.2M17.453,35.019a2.163,2.163,0,0,0,3.315-2.72c-1.625-2.759-5.582.555-3.315,2.72M48.32,38.644l-2.553.074L45.6,41.193H48.32Zm-15.69.737A2.156,2.156,0,0,0,29.318,42.1c1.647,2.655,5.5-.526,3.312-2.717M3.416,44.121a2.156,2.156,0,0,0,0,4.169c3.513.722,3.515-4.89,0-4.169" transform="translate(0 -0.001)" fill="#fff"/>
          <path id="Trazado_1265601" data-name="Trazado 1265601" d="M170.571,49.437c.235.268,1.759-1.651,2.637-.853.612.557.094,1.126-.348,1.528a26.384,26.384,0,0,1-2.636,1.783c-.97.361-1.284-.329-1.36-1.175a39.5,39.5,0,0,1,.045-6.089c.279-1.244,1.663-.574,1.663-.206Z" transform="translate(-140.093 -36.45)" fill="#fff"/>
        </g>
      </g>
    </g>
  </g>
</svg>
