<svg xmlns="http://www.w3.org/2000/svg" xmlns:xlink="http://www.w3.org/1999/xlink" width="96" height="96" viewBox="0 0 96 96">
  <defs>
    <clipPath id="clip-path">
      <rect id="Rectángulo_458384" data-name="Rectángulo 458384" width="46.633" height="60.093" fill="#fff"/>
    </clipPath>
  </defs>
  <g id="Grupo_1206970" data-name="Grupo 1206970" transform="translate(-383.746 -8400.001)">
    <path id="Trazado_997400" data-name="Trazado 997400" d="M48,0A48,48,0,1,1,0,48,48,48,0,0,1,48,0Z" transform="translate(383.746 8400.001)" fill="#5d0b80"/>
    <g id="Grupo_1099776" data-name="Grupo 1099776" transform="translate(401.746 8418)">
      <g id="Grupo_1099618" data-name="Grupo 1099618" transform="translate(0 -0.137)">
        <rect id="Rectángulo_401104" data-name="Rectángulo 401104" width="59.378" height="60.093" transform="translate(0)" fill="none"/>
      </g>
      <g id="Grupo_1207562" data-name="Grupo 1207562" transform="translate(6 -0.137)">
        <g id="Grupo_1207561" data-name="Grupo 1207561" clip-path="url(#clip-path)">
          <path id="Trazado_1266482" data-name="Trazado 1266482" d="M1.823,53.832l1.9-.075c.5-.346-.408-2.353.935-2.347a.993.993,0,0,1,.953.953c.112.876-.219,5.725-.01,5.935l1.719.084c.395.193.409.784.316,1.174a.587.587,0,0,1-.357.332,41.406,41.406,0,0,1-6.232.129,1.243,1.243,0,0,1-.858-.345C.266,56.541-.2,52.876.108,49.8A5.489,5.489,0,0,1,5.6,45.072c.086-.073-.847-1.588-.943-1.89A5.319,5.319,0,0,1,9.38,36.228,18.664,18.664,0,0,1,4.391,25.844c-1.62.009-3.691.323-3.946-1.808-.4-3.376.736-3.944,3.946-3.705A19.4,19.4,0,0,1,20.522,4c-.037-1.515-.1-3.637,1.842-3.912,3.2-.453,4.092.84,3.871,3.912a19.4,19.4,0,0,1,16.13,16.331c3.243-.3,4.451.487,3.931,3.862-.3,1.961-2.442,1.66-3.931,1.651a18.664,18.664,0,0,1-4.988,10.384A5.319,5.319,0,0,1,42.1,43.182c-.1.3-1.028,1.816-.943,1.89a5.485,5.485,0,0,1,5.476,4.571l-.065,10.031a1.243,1.243,0,0,1-.858.345c-2,.227-4.446-.146-6.5-.036-1.66-1.54.6-1.905,1.942-1.684V52.029c0-.257,1.017-.888,1.375-.517.7.351.061,1.938.5,2.245l1.9.075V49.8c0-.993-2.015-3.006-3.006-3.006H32.911L33.083,58.3h2.662a3.258,3.258,0,0,1,.521.521.942.942,0,0,1-.856,1.2l-24.823-.1c-.811-.36-.524-1.628.082-1.628h3.006l.172-11.508H4.829c-.993,0-3.006,2.015-3.006,3.006Zm22.5-42.424V2.048c-.218-.325-.593-.268-.945-.268a3.01,3.01,0,0,0-.66.038l-.284.23v9.361Zm-3.779-5.5A17.4,17.4,0,0,0,6.118,20.338l2.038-.021a32.658,32.658,0,0,1,1.022-3.358,17.59,17.59,0,0,1,1.87-3.156.953.953,0,0,1,1.427.768c-.022.368-1.3,2.277-1.579,2.9a8.351,8.351,0,0,0-.829,2.863l1.956.011a11.744,11.744,0,0,1,8.694-8.6l-.261-2.062a16.738,16.738,0,0,0-2.692.915c-.773.346-2.588,1.695-3.018,1.8-.8.2-1.524-.352-1.161-1.163.5-1.116,5.543-3.281,6.951-3.276Zm20.1,14.427A17.4,17.4,0,0,0,26.213,5.912V7.972C32.471,8.9,37.438,14.18,38.6,20.317Zm-3.95,0A13.486,13.486,0,0,0,26.214,9.691L26.04,11.75a11.449,11.449,0,0,1,8.606,8.572ZM22.742,13.178a9.9,9.9,0,1,0,8.274,16.173,9.935,9.935,0,0,0-8.274-16.173M2.167,22.057c.089.663-.246,1.562.258,2.061h9.1c.351-.265.3-.871.266-1.3a2.177,2.177,0,0,0-.036-.479l-.23-.285Zm42.424,0H35.23c-.351.265-.3.871-.266,1.3a2.176,2.176,0,0,0,.036.479l.23.285h9.1c.5-.5.168-1.4.258-2.061m-36.435,3.8-2.041.066A17.687,17.687,0,0,0,18.138,39.748l.1-2.062A15.938,15.938,0,0,1,8.155,25.858m3.956,0a11.227,11.227,0,0,0-1.792-.019c-.256.037-.274-.1-.256.259a13.454,13.454,0,0,0,1.055,3.07c1.462,3.022,4.841,6.169,8.192,6.775l1.576-1.513a11.541,11.541,0,0,1-8.775-8.572m24.579-.017-2.044.017a11.878,11.878,0,0,1-8.776,8.655l1.8,1.475A13.223,13.223,0,0,0,36.69,25.837m3.949,0-2.038.021A15.947,15.947,0,0,1,28.519,37.686l.1,2.062A17.62,17.62,0,0,0,40.639,25.837m-17.73,9.832c-4.34.536-3.8,7.184.632,7,4.69-.19,4.233-7.6-.632-7m-13.918,2.4A3.7,3.7,0,0,0,6.128,41.7a3.516,3.516,0,1,0,2.863-3.627m27.481,0c-4.9.822-2.908,8.657,2,6.634,3.816-1.574,2.07-7.317-2-6.634M19.342,42.667c-.666-1.637-3.165-1.366-4.463-2.4a7.108,7.108,0,0,1-.538,3.672c-.209.443-.606.68-.665,1.136,1.317.309,1.308-.512,2.15-1.2a5.485,5.485,0,0,1,3.516-1.207m13.741,2.4c-.06-.457-.457-.693-.666-1.136a7.108,7.108,0,0,1-.538-3.672c-1.375.972-3.373.847-4.463,2.149l2.692.911a7.324,7.324,0,0,1,.915.631c.8.681.746,1.412,2.058,1.117m-1.888,6.356V47.391a6.466,6.466,0,0,0-1.049-1.871,4.7,4.7,0,0,0-2.17-1.093,55.446,55.446,0,0,0-8.554-.049,4.453,4.453,0,0,0-2.808,1.142,6.466,6.466,0,0,0-1.049,1.871v4.036h1.89c.026-.761-.245-2.035.678-2.335.535-.173,1.21.256,1.21.7v8.5h8.073V49.8c0-.446.675-.875,1.21-.7.924.3.652,1.573.678,2.335ZM17.453,53.145H15.564V58.3h1.889Zm13.741,0H29.3V58.3h1.889ZM3.884,55.55H1.823V58.3H3.884Zm41.05,0H42.873V58.3h2.061Z" transform="translate(0 0)" fill="#fff"/>
          <path id="Trazado_1266483" data-name="Trazado 1266483" d="M98,88.5c9.922-.957,11.879,13.542,2.485,15.538C89.756,106.317,87.235,89.538,98,88.5m.521,1.708c-8.04.39-7.575,13.043,1.144,12.151,7.4-.757,6.648-12.529-1.144-12.151" transform="translate(-75.432 -73.262)" fill="#fff"/>
          <path id="Trazado_1266484" data-name="Trazado 1266484" d="M116.087,110.381c5.654-.863,6.421,8,.771,8.155-5.076.143-5.671-7.407-.771-8.155m.646,1.77a2.288,2.288,0,1,0,.346,4.548c2.731-.283,2.558-4.548-.346-4.548" transform="translate(-93.355 -91.373)" fill="#fff"/>
        </g>
      </g>
    </g>
  </g>
</svg>
