<svg xmlns="http://www.w3.org/2000/svg" xmlns:xlink="http://www.w3.org/1999/xlink" width="396" height="308.667" viewBox="0 0 396 308.667">
  <defs>
    <clipPath id="clip-path">
      <rect id="Rectángulo_458551" data-name="Rectángulo 458551" width="396" height="297.429" fill="none"/>
    </clipPath>
  </defs>
  <g id="Grupo_1207117" data-name="Grupo 1207117" transform="translate(0.48)">
    <g id="Grupo_1206741" data-name="Grupo 1206741" transform="translate(-0.711 0)">
      <g id="Grupo_1204235" data-name="Grupo 1204235" transform="translate(0.711)">
        <rect id="Rectángulo_402012" data-name="Rectángulo 402012" width="395.52" height="308.667" fill="#fbf1ff"/>
      </g>
      <g id="Grupo_1207736" data-name="Grupo 1207736" transform="translate(0.231 11.238)">
        <g id="Grupo_1207735" data-name="Grupo 1207735" clip-path="url(#clip-path)">
          <path id="Trazado_1267452" data-name="Trazado 1267452" d="M53.2,181.666h0a6.24,6.24,0,0,1-7.317-4.93L26.919,79.374a6.239,6.239,0,1,1,12.247-2.387l18.967,97.362a6.238,6.238,0,0,1-4.93,7.317" transform="translate(15.711 42.17)" fill="#3e4e79"/>
          <rect id="Rectángulo_458548" data-name="Rectángulo 458548" width="396" height="82.876" transform="translate(0 214.553)" fill="#ffe9a1"/>
          <path id="Trazado_1267453" data-name="Trazado 1267453" d="M193.644,91.06l44.421-34.908s32.445,29.855,31.717,29.877S215.1,123.055,215.1,123.055Z" transform="translate(113.508 32.915)" fill="#f9f3ed"/>
          <path id="Trazado_1267454" data-name="Trazado 1267454" d="M120.3,30.92a126.046,126.046,0,0,0-5.284,26.429c-.723,8.017-1,16.932,3.672,23.915a16.955,16.955,0,0,0,9.006,6.992c.979.3,1.4-1.231.422-1.529-7.07-2.164-10.718-9.447-11.608-16.319a58.037,58.037,0,0,1,.029-12.307,122.434,122.434,0,0,1,1.775-12.867,125.754,125.754,0,0,1,3.517-13.892c.308-.977-1.225-1.394-1.529-.422" transform="translate(67.176 17.8)" fill="#21252b"/>
          <path id="Trazado_1267455" data-name="Trazado 1267455" d="M175.811,93.666l19.028-9.955s4.04-15.652,9.09-17.167,25.92,8.584,25.92,8.584l-3.539,8.921-13.628-5.218L204.1,85.058,211.5,92.97Z" transform="translate(103.055 38.915)" fill="#c7653b"/>
          <path id="Trazado_1267456" data-name="Trazado 1267456" d="M85.059,61.632l38.317-1.256,10.052,38.736-7.958,78.939-43.551.692Z" transform="translate(48.018 35.391)" fill="#21252b"/>
          <path id="Trazado_1267457" data-name="Trazado 1267457" d="M156.113,10.3c-2.3-4.016-5.677-8.515-17.029-9.934S110.7,1.788,107.862,6.045c0,0-11.352-1.42-17.029,11.352S83.738,54.3,75.222,65.649s-17.606,21.589-21.984,34.1c-2.931,8.375,1.675,28.686,1.675,28.686l95.524-28.722s-11.443-11.173,4.257-42.574c4.257-8.515,12.773-26.963,1.42-46.832" transform="translate(30.634 0)" fill="#21252b"/>
          <path id="Trazado_1267458" data-name="Trazado 1267458" d="M98.15,40s0,25.379-20.62,28.551c0,0,11.359,18.755,49.427,7.652,0,0,1.331-6.066-.255-6.066s-11.1-4.759-1.586-19.034Z" transform="translate(45.446 23.447)" fill="#c7653b"/>
          <path id="Trazado_1267459" data-name="Trazado 1267459" d="M115.643,2.06c6.4-1.64,13.383,1.478,17.573,6.584s5.921,11.852,6.237,18.449-.665,13.178-1.3,19.751c-.479,4.931-.784,9.956-2.482,14.61-3.3,9.049-12.39,15.885-22.022,15.828s-18.915-7.5-20.389-17.021c-.988.75-2.035.132-2.966-.687a8.174,8.174,0,0,1-1.907-3.155c-1.965-4.763-3.969-9.726-3.693-14.87.206-3.829,1.665-7.466,3.153-11,2.63-6.25,5.466-12.529,9.836-17.714s11.4-9.09,17.963-10.775" transform="translate(49.628 0.95)" fill="#c7653b"/>
          <path id="Trazado_1267460" data-name="Trazado 1267460" d="M85.8,50.869a9.889,9.889,0,0,1,7.734-.617c1.994.647,3.977,1.876,6.138,1.234,3.274-.972,4.906-4.83,5.877-7.763.523-1.575.772-3.348,1.886-4.649,1.131-1.324,2.933-1.975,4.3-3.012a87.291,87.291,0,0,0,8.911-7.709c5.723-5.705,10.624-12.412,13.367-20.068,0,0-4.256-11.352-26.963-5.677-4.819,1.205-9.715,5.341-13.192,8.651C83.176,21.431,79.466,37.179,85.8,50.869" transform="translate(48.476 0.597)" fill="#21252b"/>
          <path id="Trazado_1267461" data-name="Trazado 1267461" d="M99.912,33.836c2.444,6.2.585,12.737-4.154,14.605S85.2,46.8,82.75,40.606,82.166,27.869,86.905,26s10.562,1.639,13.007,7.836" transform="translate(47.875 14.946)" fill="#c7653b"/>
          <rect id="Rectángulo_458549" data-name="Rectángulo 458549" width="2.838" height="21.286" transform="translate(135.659 59.973)" fill="#f9f3ed"/>
          <path id="Trazado_1267462" data-name="Trazado 1267462" d="M89.289,27.144c-2.406.766-3.591,3.248-4.267,5.5a10.224,10.224,0,0,0,.42,7.741c.476.9,1.846.1,1.37-.8a8.526,8.526,0,0,1-.319-6.322c.49-1.718,1.34-3.991,3.217-4.589.969-.308.555-1.84-.422-1.529" transform="translate(49.511 15.887)" fill="#21252b"/>
          <path id="Trazado_1267463" data-name="Trazado 1267463" d="M85.769,33.658a14.222,14.222,0,0,1,7.691,7.969.815.815,0,0,0,.975.555.8.8,0,0,0,.554-.976,15.962,15.962,0,0,0-8.8-9.078.8.8,0,0,0-.975.554.813.813,0,0,0,.554.975" transform="translate(49.933 18.808)" fill="#21252b"/>
          <path id="Trazado_1267464" data-name="Trazado 1267464" d="M124.8,5.625a13.3,13.3,0,0,0-.89,3.934,30.773,30.773,0,0,1-.942,4.241,30.968,30.968,0,0,1-3.588,7.84,30.48,30.48,0,0,1-12.886,11.2A30.583,30.583,0,0,1,97,35.469c-1,.109-1.015,1.7,0,1.586a32.4,32.4,0,0,0,26.716-20.547,31.29,31.29,0,0,0,1.439-4.941c.338-1.665.271-3.594,1.007-5.141.438-.917-.929-1.723-1.369-.8" transform="translate(56.416 3.059)" fill="#21252b"/>
          <path id="Trazado_1267465" data-name="Trazado 1267465" d="M109.242,28.043c0,1.791-.915,3.242-2.043,3.242s-2.045-1.451-2.045-3.242.915-3.242,2.045-3.242,2.043,1.451,2.043,3.242" transform="translate(61.638 14.538)" fill="#21252b"/>
          <path id="Trazado_1267466" data-name="Trazado 1267466" d="M118.189,27.149c0,1.791-.915,3.242-2.043,3.242S114.1,28.94,114.1,27.149s.915-3.242,2.045-3.242,2.043,1.451,2.043,3.242" transform="translate(66.883 14.014)" fill="#21252b"/>
          <path id="Trazado_1267467" data-name="Trazado 1267467" d="M111.387,22.587c-1.271,2.887.222,5.564,1.242,8.259a5.906,5.906,0,0,1,.33,4.514,8.159,8.159,0,0,1-2.628,3.294c-.853.554-.059,1.927.8,1.369a9.874,9.874,0,0,0,2.744-3.064,5.964,5.964,0,0,0,.91-4.278,21.409,21.409,0,0,0-1.569-4.538c-.582-1.475-1.136-3.22-.46-4.755.408-.926-.958-1.734-1.369-.8" transform="translate(64.458 12.997)" fill="#21252b"/>
          <path id="Trazado_1267468" data-name="Trazado 1267468" d="M88.119,24.423A63.21,63.21,0,0,1,79.795,44.61,62.076,62.076,0,0,1,73.149,53.3a108.616,108.616,0,0,1-8.567,8.066c-7.014,6.158-13.909,12.98-15.843,22.479-1.483,7.282-.054,14.758,2.589,21.6.365.942,1.9.533,1.529-.422-2.378-6.159-3.848-12.884-2.815-19.492a28,28,0,0,1,4.928-11.92A63.905,63.905,0,0,1,65.027,63.081c2.922-2.578,5.893-5.1,8.572-7.939a64.075,64.075,0,0,0,6.578-8.221,64.514,64.514,0,0,0,9.471-22.076c.22-.995-1.309-1.42-1.529-.422" transform="translate(28.219 13.983)" fill="#21252b"/>
          <path id="Trazado_1267469" data-name="Trazado 1267469" d="M95.938,45.967c3.818,6.326,11.665,7.61,18.4,6.246,1-.2.577-1.732-.422-1.531-6.018,1.221-13.173.168-16.606-5.517a.793.793,0,0,0-1.369.8" transform="translate(56.166 26.253)" fill="#21252b"/>
          <path id="Trazado_1267470" data-name="Trazado 1267470" d="M105.416,56.152s6.491,18.217,7.537,33.711-.209,47.95-1.466,54.65-5.653,19.892-6.072,36.016h19.473s-6.911-37.481-4.187-44.809,4.187-9.422,4.187-9.422l25.964,27.43,6.491-42.506S131.171,70.6,122.377,65.574s-16.961-9.422-16.961-9.422" transform="translate(61.792 32.915)" fill="#ed8a7e"/>
          <path id="Trazado_1267471" data-name="Trazado 1267471" d="M235.117,145.737l-110.862,5.494v-7.377l110.862-5.494Z" transform="translate(72.834 81.103)" fill="#5d71e0"/>
          <rect id="Rectángulo_458550" data-name="Rectángulo 458550" width="87.395" height="6.437" transform="translate(109.695 225.898)" fill="#5d71e0"/>
          <path id="Trazado_1267472" data-name="Trazado 1267472" d="M84.084,57.393A89.842,89.842,0,0,0,90.92,68.884c2.349,3.345,4.989,6.2,8.727,7.988,3.423,1.639,7.861,3.315,11.649,2.049a11.452,11.452,0,0,0,6.648-6.884c1.784-4.508,1.635-9.709,1.945-14.475.067-1.02-1.52-1.015-1.586,0-.254,3.919-.235,8-1.182,11.828-.774,3.128-2.5,6.27-5.521,7.707-3.437,1.632-7.788-.013-11-1.521a21.144,21.144,0,0,1-8.313-7.493,89.916,89.916,0,0,1-6.836-11.492c-.455-.912-1.824-.111-1.369.8" transform="translate(49.234 32.937)" fill="#f9f3ed"/>
          <path id="Trazado_1267473" data-name="Trazado 1267473" d="M106.266,54.3s10.849,83.585,1.332,128H51.879l4.483-18.092S42.18,157.194,50.5,134.716c5.747-15.532,4.051-57.589,24.153-66.173S106.266,54.3,106.266,54.3" transform="translate(28.067 31.831)" fill="#ed8a7e"/>
          <path id="Trazado_1267474" data-name="Trazado 1267474" d="M103.749,35.566c1.535,2.162,4.506,3.007,7.017,3.3a14.532,14.532,0,0,0,8-1.388c.918-.444.114-1.811-.8-1.369a12.98,12.98,0,0,1-6.733,1.217c-2.007-.167-4.868-.814-6.112-2.563-.585-.825-1.962-.033-1.369.8" transform="translate(60.729 20.174)" fill="#21252b"/>
          <path id="Trazado_1267475" data-name="Trazado 1267475" d="M80.88,60.471a192.568,192.568,0,0,1-2.511,24.843q-.219,1.449-.443,2.9a9.509,9.509,0,0,0-.3,2.682,3.423,3.423,0,0,0,1.118,1.838q1.071,1.152,2.146,2.3,4.292,4.59,8.583,9.181c.7.747,1.818-.378,1.121-1.123l-8.047-8.6q-1.073-1.149-2.145-2.3a7.606,7.606,0,0,1-.982-1.055,1.889,1.889,0,0,1-.148-1.337c.216-2,.617-4,.912-5.991a185.667,185.667,0,0,0,2.278-23.331.794.794,0,0,0-1.586,0" transform="translate(45.485 34.997)" fill="#21252b"/>
          <path id="Trazado_1267476" data-name="Trazado 1267476" d="M86.963,88.281l-3.374,7.561q-.842,1.892-1.686,3.781a2.894,2.894,0,0,0-.333,2.587,29.475,29.475,0,0,0,1.927,3.112q1.08,1.725,2.149,3.456,2.189,3.545,4.329,7.12a.793.793,0,0,0,1.369-.8q-3.783-6.317-7.715-12.545c-.274-.435-.719-.926-.646-1.45a6.839,6.839,0,0,1,.69-1.58L85.2,96.1l3.131-7.02c.412-.925-.953-1.732-1.369-.8" transform="translate(47.7 51.505)" fill="#21252b"/>
          <path id="Trazado_1267477" data-name="Trazado 1267477" d="M107.741,59.084q4,9.186,7.338,18.644,1.668,4.728,3.168,9.514.338,1.083.669,2.17a3.086,3.086,0,0,1-.062,2.479c-.68,1.537-1.4,3.057-2.1,4.586q-2.417,5.289-4.838,10.58c-.422.922.945,1.729,1.37.8q2.258-4.937,4.514-9.876,1.13-2.47,2.259-4.938a4.907,4.907,0,0,0,.438-3.873c-2.037-6.762-4.36-13.443-6.914-20.027q-2.125-5.475-4.476-10.861c-.406-.933-1.773-.127-1.369.8" transform="translate(63.111 33.921)" fill="#21252b"/>
          <path id="Trazado_1267478" data-name="Trazado 1267478" d="M110.591,90.165q2.108,2.867,4.024,5.867a21.006,21.006,0,0,1,1.951,3.2c.416,1.047-.692,2.639-1.14,3.628l-6.234,13.731c-.419.922.947,1.729,1.369.8q3.44-7.58,6.881-15.157c.425-.934,1.153-2.014.836-3.084a14.315,14.315,0,0,0-1.794-3.125q-2.129-3.417-4.524-6.659c-.6-.814-1.975-.022-1.369.8" transform="translate(63.959 52.182)" fill="#21252b"/>
          <path id="Trazado_1267479" data-name="Trazado 1267479" d="M118.706,84.621a64.374,64.374,0,0,1-4.459,38.019c-.414.923.952,1.732,1.369.8a66.242,66.242,0,0,0,4.619-39.24c-.189-1-1.718-.577-1.529.422" transform="translate(66.923 49.02)" fill="#21252b"/>
          <path id="Trazado_1267480" data-name="Trazado 1267480" d="M78.92,88.69l-8.729,30a.794.794,0,0,0,1.529.422q4.364-15,8.729-30a.794.794,0,0,0-1.529-.422" transform="translate(41.123 51.661)" fill="#21252b"/>
          <path id="Trazado_1267481" data-name="Trazado 1267481" d="M75.917,93.871a14.021,14.021,0,0,1,1.453-.941q.371-.209.755-.395c.133-.063.265-.125.4-.186.067-.029.133-.062.2-.087-.216.078.022-.008.065-.025a.87.87,0,0,0,.474-.365.813.813,0,0,0,.079-.611.8.8,0,0,0-.975-.554A14.784,14.784,0,0,0,75.116,92.5a.858.858,0,0,0-.363.473.793.793,0,0,0,1.164.9" transform="translate(43.802 53.145)" fill="#21252b"/>
          <path id="Trazado_1267482" data-name="Trazado 1267482" d="M87.934,117.748,122.679,136.9s17.288-6.779,22.034-6.1,20,12.2,20,12.2L159.2,156.879s-16.694-3.708-20.933-4.386-8.643,6.1-24.067.677-49.571-17.2-49.571-17.2Z" transform="translate(37.886 69.02)" fill="#c7653b"/>
          <path id="Trazado_1267483" data-name="Trazado 1267483" d="M51.792,135.17s12.542-24.7,31.355-27.771c0,0,3.559-.2,2.543,5.737,0,0,7.626-3.145,7.626,1.732l-1.526,6.416s2.373-.52,3.729,2.53c0,0-20.847,16.948-25.931,20s-5.594-2.371-5.594-2.371-5.931,2.881-6.1-2.2c0,0-7.119,2.712-6.1-4.067" transform="translate(30.3 62.954)" fill="#f9f3ed"/>
          <path id="Trazado_1267484" data-name="Trazado 1267484" d="M59.47,134.345a45.4,45.4,0,0,1,8.749-12.767,36.429,36.429,0,0,1,12.263-7.845c.942-.363.533-1.9-.422-1.531a38.383,38.383,0,0,0-12.734,8.036A46.344,46.344,0,0,0,58.1,133.544c-.454.912.915,1.716,1.369.8" transform="translate(34.004 65.736)" fill="#21252b"/>
          <path id="Trazado_1267485" data-name="Trazado 1267485" d="M65.807,125.751a30.728,30.728,0,0,1,8.423-7.257.793.793,0,0,0-.8-1.369,31.894,31.894,0,0,0-8.745,7.5.816.816,0,0,0,0,1.121.8.8,0,0,0,1.121,0" transform="translate(37.786 68.588)" fill="#21252b"/>
          <path id="Trazado_1267486" data-name="Trazado 1267486" d="M235.368,171.575l-111.276,6.584,21.256-89.872L256.626,81.7Z" transform="translate(72.739 47.892)" fill="#5d71e0"/>
          <path id="Trazado_1267487" data-name="Trazado 1267487" d="M184.151,118.059A10.66,10.66,0,1,1,173.49,107.4a10.66,10.66,0,0,1,10.661,10.661" transform="translate(95.447 62.953)" fill="#f9f3ed"/>
          <path id="Trazado_1267488" data-name="Trazado 1267488" d="M114.149,136.833a150.242,150.242,0,0,0,16.388,7.76c.947.381,1.359-1.153.422-1.529a146.807,146.807,0,0,1-16.009-7.6c-.895-.493-1.7.876-.8,1.369" transform="translate(66.681 79.343)" fill="#21252b"/>
          <path id="Trazado_1267489" data-name="Trazado 1267489" d="M115.628,133.944a116.489,116.489,0,0,0,14.986,9.1c.909.462,1.713-.906.8-1.369a116.665,116.665,0,0,1-14.986-9.1c-.831-.6-1.624.779-.8,1.369" transform="translate(67.574 77.626)" fill="#21252b"/>
          <path id="Trazado_1267490" data-name="Trazado 1267490" d="M116.312,130.59a85.734,85.734,0,0,0,12.141,8.484.793.793,0,0,0,.8-1.369,83.557,83.557,0,0,1-11.819-8.237c-.779-.65-1.907.466-1.121,1.121" transform="translate(68.023 75.775)" fill="#21252b"/>
          <path id="Trazado_1267491" data-name="Trazado 1267491" d="M127.175,162.539l45.41-12.16,10.421,1.242-9.181,5.458-46.154,12.407Z" transform="translate(74.546 88.148)" fill="#d56273"/>
          <path id="Trazado_1267492" data-name="Trazado 1267492" d="M136.549,155.953a26.489,26.489,0,0,0,.385,6.882.8.8,0,0,0,.977.554.811.811,0,0,0,.554-.976,24.843,24.843,0,0,1-.33-6.46.8.8,0,0,0-.793-.793.809.809,0,0,0-.793.793" transform="translate(79.997 90.95)" fill="#21252b"/>
          <path id="Trazado_1267493" data-name="Trazado 1267493" d="M130.173,159.816c-.565-1.475,2.838-1.675,3.71-1.875,1.532-.349,3.05-.761,4.571-1.159l9.776-2.56a.794.794,0,0,0-.422-1.531q-5.924,1.554-11.85,3.1c-.885.228-1.772.454-2.665.655s-1.826.3-2.692.582c-1.339.439-2.525,1.724-1.957,3.206.362.944,1.9.535,1.529-.422" transform="translate(75.322 89.486)" fill="#21252b"/>
          <path id="Trazado_1267494" data-name="Trazado 1267494" d="M156.087,150.706a9.706,9.706,0,0,0,.232,6.624.819.819,0,0,0,.976.554.8.8,0,0,0,.554-.976,8.336,8.336,0,0,1-.232-5.78.793.793,0,0,0-1.529-.422" transform="translate(91.216 87.998)" fill="#21252b"/>
          <path id="Trazado_1267495" data-name="Trazado 1267495" d="M163.007,150.884a2.973,2.973,0,0,0-2.7.776.8.8,0,0,0-.124.961.933.933,0,0,0,.284.284.844.844,0,0,0,.611.081,7.8,7.8,0,0,0,2.113-.688.8.8,0,0,0,.365-.473.817.817,0,0,0-.079-.612.807.807,0,0,0-.474-.363.879.879,0,0,0-.611.079c-.108.051-.216.1-.324.146.063-.025.125-.052.189-.079a7.107,7.107,0,0,1-1.6.46q.388.664.772,1.326a2.137,2.137,0,0,1,.181-.157l-.162.124a2.286,2.286,0,0,1,.49-.282c-.063.025-.125.052-.189.079a2.423,2.423,0,0,1,.546-.151l-.211.029a2.346,2.346,0,0,1,.6,0c-.071-.008-.141-.017-.211-.027.04,0,.078.013.117.019a.851.851,0,0,0,.611-.079.794.794,0,0,0,.285-1.085.781.781,0,0,0-.474-.365" transform="translate(93.831 88.406)" fill="#21252b"/>
          <path id="Trazado_1267496" data-name="Trazado 1267496" d="M87.736,153.875c-.744.247-5.46,16.874-5.46,16.874l.993,4.467,55.088-1.986-.247-5.707s2.481-14.64,1.737-14.64-52.11.993-52.11.993" transform="translate(48.228 89.615)" fill="#f9f3ed"/>
          <path id="Trazado_1267497" data-name="Trazado 1267497" d="M82.681,165.844q21.4.043,42.762-1.646,6.067-.483,12.123-1.106c1.006-.1,1.017-1.691,0-1.586q-21.292,2.184-42.711,2.639-6.086.126-12.174.113a.794.794,0,0,0,0,1.586" transform="translate(48.016 94.667)" fill="#21252b"/>
          <path id="Trazado_1267498" data-name="Trazado 1267498" d="M83.941,166.83q20.519-.178,41.036-.358,5.848-.05,11.7-.1a.794.794,0,0,0,0-1.586l-41.036.358-11.7.1a.794.794,0,0,0,0,1.586" transform="translate(48.755 96.591)" fill="#21252b"/>
          <path id="Trazado_1267499" data-name="Trazado 1267499" d="M90.4,156.978H103.01a.794.794,0,0,0,0-1.586H90.4a.794.794,0,0,0,0,1.586" transform="translate(52.54 91.086)" fill="#21252b"/>
          <path id="Trazado_1267500" data-name="Trazado 1267500" d="M90.04,159.128a62.219,62.219,0,0,0,11.5.1c1.01-.084,1.018-1.672,0-1.586a62.219,62.219,0,0,1-11.5-.1c-1.015-.1-1.007,1.483,0,1.586" transform="translate(52.334 92.343)" fill="#21252b"/>
          <path id="Trazado_1267501" data-name="Trazado 1267501" d="M100.923,156.718l10.57.4c1.021.038,1.02-1.548,0-1.586l-10.57-.4c-1.021-.038-1.02,1.548,0,1.586" transform="translate(58.709 90.933)" fill="#21252b"/>
          <path id="Trazado_1267502" data-name="Trazado 1267502" d="M101.633,158.4a34.009,34.009,0,0,1,6.838.332.818.818,0,0,0,.975-.554.8.8,0,0,0-.554-.976,35.876,35.876,0,0,0-7.26-.389.81.81,0,0,0-.793.793.8.8,0,0,0,.793.793" transform="translate(59.109 91.894)" fill="#21252b"/>
          <path id="Trazado_1267503" data-name="Trazado 1267503" d="M116.136,154.883a36.939,36.939,0,0,0-4.419,1.421.813.813,0,0,0-.554.975.8.8,0,0,0,.975.554,37.124,37.124,0,0,1,4.419-1.421.793.793,0,0,0-.422-1.529" transform="translate(65.141 90.772)" fill="#21252b"/>
          <path id="Trazado_1267504" data-name="Trazado 1267504" d="M114.365,155.931a.945.945,0,0,1,.033.162l-.029-.211a1.147,1.147,0,0,1,0,.285c.008-.071.017-.141.027-.211a1.1,1.1,0,0,1-.075.274c.027-.062.054-.125.081-.189a1.124,1.124,0,0,1-.117.209.579.579,0,0,0-.094.3.715.715,0,0,0,.155.585.587.587,0,0,0,.222.2.81.81,0,0,0,.612.081l.189-.081a.786.786,0,0,0,.284-.284,1.917,1.917,0,0,0,.2-.4,1.18,1.18,0,0,0,.07-.246,2.07,2.07,0,0,0,.041-.443,3.212,3.212,0,0,0-.04-.324.985.985,0,0,0-.03-.132.827.827,0,0,0-.365-.474.593.593,0,0,0-.293-.094.6.6,0,0,0-.317.014.8.8,0,0,0-.474.365.819.819,0,0,0-.079.611" transform="translate(66.927 90.813)" fill="#21252b"/>
          <path id="Trazado_1267505" data-name="Trazado 1267505" d="M117.859,156.771q-2.981.128-5.943.52a.818.818,0,0,0-.793.793c0,.384.365.85.793.793q2.96-.393,5.943-.52a.809.809,0,0,0,.793-.793.8.8,0,0,0-.793-.793" transform="translate(65.137 91.894)" fill="#21252b"/>
          <path id="Trazado_1267506" data-name="Trazado 1267506" d="M114.207,157.8c.065.246.132.492.2.739a.9.9,0,0,0,.365.474.892.892,0,0,0,.611.079c.063-.027.127-.054.19-.079a.8.8,0,0,0,.284-.286l.081-.189a.827.827,0,0,0,0-.422l-.2-.739a.59.59,0,0,0-.141-.27.605.605,0,0,0-.224-.2.593.593,0,0,0-.293-.094.6.6,0,0,0-.317.014c-.063.027-.125.054-.189.079a.82.82,0,0,0-.286.286c-.025.063-.052.125-.079.189a.794.794,0,0,0,0,.422" transform="translate(66.928 91.907)" fill="#21252b"/>
          <path id="Trazado_1267507" data-name="Trazado 1267507" d="M90.163,161.1a4.426,4.426,0,0,0-3.172,1.708,8.685,8.685,0,0,0-1.84,3.212,3.916,3.916,0,0,0,.579,3.59,7.413,7.413,0,0,0,2.963,2.007,4.044,4.044,0,0,0,3.915-.116.814.814,0,0,0,.284-1.085.8.8,0,0,0-1.085-.286,2.852,2.852,0,0,1-2.95-.173c-.928-.466-2.116-1.107-2.3-2.236a4.61,4.61,0,0,1,1.031-3.11c.587-.861,1.445-1.894,2.573-1.924a.794.794,0,0,0,0-1.586" transform="translate(49.801 94.432)" fill="#d56273"/>
          <path id="Trazado_1267508" data-name="Trazado 1267508" d="M95.481,161.04a5.842,5.842,0,0,0-4.108,5.076,5.657,5.657,0,0,0,3.5,5.644,4.035,4.035,0,0,0,3.805-.395.817.817,0,0,0,.284-1.085.8.8,0,0,0-1.085-.285,2.664,2.664,0,0,1-2.925.07,4.006,4.006,0,0,1-1.865-2.514,4.166,4.166,0,0,1,2.82-4.981c.972-.3.558-1.83-.422-1.529" transform="translate(53.551 94.374)" fill="#d56273"/>
          <path id="Trazado_1267509" data-name="Trazado 1267509" d="M101.1,160.941a5.4,5.4,0,0,0,2.122,10.483c1.015-.059,1.021-1.646,0-1.586a3.817,3.817,0,0,1-1.7-7.368.816.816,0,0,0,.554-.975.8.8,0,0,0-.974-.554" transform="translate(57.153 94.316)" fill="#d56273"/>
          <path id="Trazado_1267510" data-name="Trazado 1267510" d="M107.636,160.6c-2.479,1.531-4.333,4.189-3.743,7.211a4.488,4.488,0,0,0,6.248,3.32c.915-.454.113-1.823-.8-1.37a2.643,2.643,0,0,1-2.5-.2,3.186,3.186,0,0,1-1.455-2.381c-.279-2.229,1.258-4.107,3.049-5.212.866-.535.071-1.907-.8-1.369" transform="translate(60.834 94.068)" fill="#d56273"/>
          <path id="Trazado_1267511" data-name="Trazado 1267511" d="M113.327,160.764a5.819,5.819,0,0,0-3.71,5.027,5.422,5.422,0,0,0,3.21,5.22,5.653,5.653,0,0,0,3.718.4c.991-.238.571-1.769-.422-1.529a3.982,3.982,0,0,1-2.374-7.59.814.814,0,0,0,.554-.976.8.8,0,0,0-.976-.554" transform="translate(64.246 94.213)" fill="#d56273"/>
          <path id="Trazado_1267512" data-name="Trazado 1267512" d="M24.878,150.692c-1.24.247-16.13,12.9-16.13,12.9S9.741,176.746,10.237,176s76.179-.993,76.179-1.737,4.467-8.933,4.467-8.933L88.9,154.662Z" transform="translate(5.128 88.331)" fill="#f9f3ed"/>
          <path id="Trazado_1267513" data-name="Trazado 1267513" d="M12.66,156.19h8.683l-8.683,7.693s66.751-5.46,70.719-3.846,5.956,15.261-3.226,16L12.66,177.778v2.233l70.719-1.737s4.965,2.118,9.182-19.661c0,0,2.481-11.6-9.679-11.108s-63.028-.776-63.774-.016-6.449,8.7-6.449,8.7" transform="translate(7.421 86.308)" fill="#77ac9a"/>
          <path id="Trazado_1267514" data-name="Trazado 1267514" d="M8.556,163.105c19.8-2.248,39.756-2.322,59.654-2.987,5.594-.186,11.189-.424,16.777-.765,1.015-.063,1.021-1.65,0-1.586-19.886,1.217-39.829,1.058-59.713,2.3-5.583.351-11.159.815-16.718,1.447-1,.114-1.014,1.7,0,1.586" transform="translate(4.572 92.478)" fill="#21252b"/>
          <path id="Trazado_1267515" data-name="Trazado 1267515" d="M8.9,164.47l33.95-2.062c1.015-.062,1.021-1.648,0-1.586L8.9,162.884c-1.014.062-1.021,1.648,0,1.586" transform="translate(4.767 94.268)" fill="#21252b"/>
          <path id="Trazado_1267516" data-name="Trazado 1267516" d="M32.4,162.766l41.924-.9a.794.794,0,0,0,0-1.586l-41.924.9a.794.794,0,0,0,0,1.586" transform="translate(18.543 93.951)" fill="#21252b"/>
          <path id="Trazado_1267517" data-name="Trazado 1267517" d="M10.059,167.113q23.819-1.251,47.649-2.3,6.7-.295,13.392-.574c1.018-.043,1.023-1.629,0-1.586q-23.831.992-47.653,2.187-6.7.335-13.387.688c-1.015.054-1.021,1.64,0,1.586" transform="translate(5.449 95.341)" fill="#21252b"/>
          <path id="Trazado_1267518" data-name="Trazado 1267518" d="M51.813,164.221l7.79-.213a.794.794,0,0,0,0-1.586l-7.79.213a.794.794,0,0,0,0,1.586" transform="translate(29.922 95.207)" fill="#21252b"/>
          <path id="Trazado_1267519" data-name="Trazado 1267519" d="M29.23,151.9a.975.975,0,0,0-.268,1.491c.547.627,1.429.251,2.1.073q1.6-.419,3.193-.841a23.374,23.374,0,0,1,2.987-.75c.942-.114,1.061.7,1.808,1.047a5.132,5.132,0,0,0,2.617.149c1.973-.213,3.988-.83,5.913-.063.947.378,1.359-1.156.42-1.529a8.879,8.879,0,0,0-4.655-.232,23.1,23.1,0,0,1-2.62.309c-.463.013-.857.076-1.2-.282a3.583,3.583,0,0,0-.611-.639c-1.205-.8-2.828-.132-4.073.2l-2.69.707-1.345.354a3.413,3.413,0,0,1-1.014.255c.159.122.317.243.474.365.017.046.033.094.051.14l-.393.685.1-.067c.86-.544.065-1.918-.8-1.369" transform="translate(16.835 88.078)" fill="#21252b"/>
        </g>
      </g>
    </g>
  </g>
</svg>
