<svg xmlns="http://www.w3.org/2000/svg" xmlns:xlink="http://www.w3.org/1999/xlink" width="96" height="96" viewBox="0 0 96 96">
  <defs>
    <clipPath id="clip-path">
      <rect id="Rectángulo_458172" data-name="Rectángulo 458172" width="56.367" height="59.134" fill="#fff"/>
    </clipPath>
  </defs>
  <g id="Grupo_1207246" data-name="Grupo 1207246" transform="translate(-383.711 -8399.591)">
    <path id="Trazado_997400" data-name="Trazado 997400" d="M48,0A48,48,0,1,1,0,48,48,48,0,0,1,48,0Z" transform="translate(383.711 8399.591)" fill="#5d0b80"/>
    <g id="Grupo_1099776" data-name="Grupo 1099776" transform="translate(401.746 8418)">
      <g id="Grupo_1099618" data-name="Grupo 1099618" transform="translate(0 -0.777)">
        <rect id="Rectángulo_401104" data-name="Rectángulo 401104" width="59.378" height="60.093" transform="translate(0)" fill="none"/>
      </g>
      <g id="Grupo_1207326" data-name="Grupo 1207326" transform="translate(2 -0.777)">
        <g id="Grupo_1207325" data-name="Grupo 1207325" clip-path="url(#clip-path)">
          <path id="Trazado_1265602" data-name="Trazado 1265602" d="M29.882,9.132c-.028-1.536-.257-2.4,1.126-3.35A85.723,85.723,0,0,1,41.928.321,2.223,2.223,0,0,1,43.57.086L55.8,6.268a2.278,2.278,0,0,1,.438,1.251,50.593,50.593,0,0,1-.224,9.588c-.924,6.058-4.981,10.375-9.92,13.593l-.073,22.857-.76.76-23.484.076v3.124c0,.516-1.323,1.556-1.942,1.436-5.74-.418-12.265.555-17.911.008A1.937,1.937,0,0,1,0,57.338L.025,43.873c.473-1.193,1.456-1.454,2.668-1.3.006-2.814-.305-5.615,1.28-8.093.446-.7,1.032-1.1,1.418-1.791L5.428,10.1a1.689,1.689,0,0,1,1.589-.944c2.5.018,3.405.018,6.383,0a.962.962,0,0,1,.522,1.842H7.082v20.6a8.367,8.367,0,0,1,8.051.309c1.016.618,1.553,1.426,2.508,2.051l10.06.078c1.036-.093.961,1.784-.1,1.615H18.4l.508,2.363,16.617.018c1.7.245,1.1,1.842.354,1.842h-16.8v2.364h16.8c.687,0,1.067,1.258.338,1.689H21.775v3.462c0,.854-1.689.587-1.689,0V44.26H1.678V57.011l.253.253h17.9l.253-.253V50.762c0-.121.416-.391.6-.423,1.508-.26,1.031,1.384,1.089,2.365H44.406V31.763a4.212,4.212,0,0,1-1.281.5c-1.643.071-6.113-4.032-7.621-5.021L23.891,27.2c-.981-.184-.664-1.684,0-1.684H33.935L32.3,23.146l-16.332-.012c-1.8-.249-1.056-1.842-.353-1.842H31.4l-.956-2.372-14.83,0c-1.08-.2-.817-1.684-.342-1.684H29.966c.379-.494-.059-1.455-.091-2.1-.068-1.373.064-2.771.007-4.145H17.638c-.926,0-1.089-1.858.169-1.858ZM43,1.739l-11.345,5.7c-.5,7.744-.19,13.9,5.918,19.25a33.934,33.934,0,0,0,5.026,3.59c.878.334,2.488-.977,3.282-1.522,4.393-3.014,7.709-6.856,8.467-12.305a45.34,45.34,0,0,0,.2-8.6c-.028-.244-.017-.443-.281-.564ZM17.215,42.571V37.42a11.176,11.176,0,0,0-.774-1.76,6.442,6.442,0,0,0-11.853,1.8L4.38,38.94v3.378c.214.32.583.264.929.264a2.959,2.959,0,0,0,.649-.037l.28-.226v-4.56a9.188,9.188,0,0,1,.845-1.689,4.665,4.665,0,0,1,6.667-.925C16.3,37.136,15.3,39.608,15.6,42.413Zm-3.378,0V38.265a9.862,9.862,0,0,0-.471-1.049,3,3,0,0,0-4.838-.207,9.862,9.862,0,0,0-.6,1.087v4.222l.253.253Z" transform="translate(0 0)" fill="#fff"/>
          <path id="Trazado_1265603" data-name="Trazado 1265603" d="M211.677,35.453a8.849,8.849,0,0,1,8.166,5.59c.424,1.115,1.067,2.875-.849,2.538-.619-.748-.6-1.681-1.094-2.622a7.022,7.022,0,0,0-11.489-1.35c-4.931,5.744,1.413,14.148,8.367,10.9,2.006-.937,2.846-2.561,3.879-4.4,2.429-.295.829,2.185.139,3.179a8.744,8.744,0,1,1-7.118-13.838" transform="translate(-168.678 -29.465)" fill="#fff"/>
          <path id="Trazado_1265604" data-name="Trazado 1265604" d="M238.949,71.928c.959-.292,1.5.368,1.1,1.275a43.919,43.919,0,0,1-4.428,4.367c-.431.134-.6-.04-.932-.272a32.922,32.922,0,0,1-2.757-2.822,1.009,1.009,0,0,1,.6-1.205c.846-.228,1.962,1.869,2.81,2.158.441-.077,2.972-3.308,3.605-3.5" transform="translate(-192.734 -59.723)" fill="#fff"/>
          <path id="Trazado_1265605" data-name="Trazado 1265605" d="M110.242,178.54H90.5a.788.788,0,1,1,0-1.576h19.741a.788.788,0,1,1,0,1.576" transform="translate(-74.562 -147.077)" fill="#fff"/>
          <path id="Trazado_1265606" data-name="Trazado 1265606" d="M182.874,202.321H171.39a.788.788,0,0,1-.788-.788v-.225a.788.788,0,0,1,.788-.788h11.484a.788.788,0,0,1,.788.788v.225a.788.788,0,0,1-.788.788" transform="translate(-141.79 -166.654)" fill="#fff"/>
          <path id="Trazado_1265607" data-name="Trazado 1265607" d="M95.842,152.468h-6.23a.788.788,0,0,1-.788-.788v-.15a.788.788,0,0,1,.788-.788h6.23a.788.788,0,0,1,.788.788v.15a.788.788,0,0,1-.788.788" transform="translate(-73.823 -125.284)" fill="#fff"/>
        </g>
      </g>
    </g>
  </g>
</svg>
