<svg id="Grupo_1099776" data-name="Grupo 1099776" xmlns="http://www.w3.org/2000/svg" xmlns:xlink="http://www.w3.org/1999/xlink" width="80.078" height="80.401" viewBox="0 0 80.078 80.401">
  <defs>
    <clipPath id="clip-path">
      <rect id="Rectángulo_458175" data-name="Rectángulo 458175" width="80.078" height="80.124" fill="#fff"/>
    </clipPath>
  </defs>
  <g id="Grupo_1099618" data-name="Grupo 1099618" transform="translate(0 0)">
    <rect id="Rectángulo_401104" data-name="Rectángulo 401104" width="79.17" height="80.124" transform="translate(0)" fill="none"/>
  </g>
  <g id="Grupo_1207332" data-name="Grupo 1207332" transform="translate(0 0.278)">
    <g id="Grupo_1207331" data-name="Grupo 1207331" clip-path="url(#clip-path)">
      <path id="Trazado_1265633" data-name="Trazado 1265633" d="M41.521,9.191l-.038,2.853a30.886,30.886,0,0,1,11.488,3.11c1.932.979,3.532,2.429,5.436,3.428l9.775-9.174c.144-1.137-.281-1.984-.073-3.217.559-3.3,4.816-4.771,7.429-2.822a4.766,4.766,0,0,1-2.7,8.607c-.982.032-1.918-.67-2.78-.165l-9.639,9.047c4.748,4.733,7.193,11.117,7.923,17.716l2.555,0c1.223-4.344,7.517-4.3,8.9-.017,1.942,5.988-6.988,8.923-8.9,2.991l-2.565-.012a30.4,30.4,0,0,1-7.357,17.774c2.321,2.569,4.843,5.362,7.454,7.716.37.333,2.36,2.158,2.512,2.228.779.359,1.417-.15,2.216-.141A5.074,5.074,0,0,1,77.3,72.1c2.014,4.6-3.733,8.672-7.5,5.4-1.833-1.592-1.641-3.875-1.083-6-3.44-3.227-6.455-6.951-10.268-9.749a28.922,28.922,0,0,1-16.718,6.7L41.465,70.8a4.791,4.791,0,0,1,1.156,8.538c-4.979,3.079-9.949-3.583-5.884-7.462.443-.422,1.658-.918,1.806-1.349.973-2.833-1.975-2.131-3.949-2.539a28.9,28.9,0,0,1-8.281-3.028c-1.722-.951-3.2-2.226-4.914-3.161l-9.76,9.416c1.271,4.172-1.722,8.762-6.366,6.632-3.859-1.77-3.124-8.2,1.159-8.923,1.232-.208,2.079.218,3.217.073l9.736-9.475a29.169,29.169,0,0,1-7.636-18l-2.579.026C7.89,46,1.432,45.8.205,41.357c-1.648-5.971,7.139-8.567,8.962-2.787l2.555,0c.324-1.84,1.349-9.251,3-10.029a1.567,1.567,0,0,1,2.256,1.049c.089.586-1.506,4.6-1.722,5.8C10.5,61.84,44.18,76.5,60,55.68,77.269,32.943,49.535,3.662,25.987,19.3c-1.246.827-3.934,3.7-5.138,3.533-1.293-.183-1.006-1.6-1.576-2.392L9.668,11.4c-2.668.97-6.46.057-6.856-3.159C1.773-.2,14.364,1.17,11.885,9.41l10,9.151a29.758,29.758,0,0,1,16.7-6.517l-.038-2.853C32.433,7.228,35.722-1.886,41.736.351c4.1,1.525,4.038,7.663-.215,8.841M39.57,3.151A1.727,1.727,0,0,0,40.5,6.478a1.727,1.727,0,0,0-.927-3.327M6.957,5.518a1.727,1.727,0,0,0,.927,3.327,1.727,1.727,0,0,0-.927-3.327m65.491-.005a1.727,1.727,0,1,0,.712,3.38c1.889-.322,1.609-3.8-.712-3.38M4.327,38.394a1.727,1.727,0,0,0,.927,3.327,1.727,1.727,0,0,0-.927-3.327m70.487,0a1.727,1.727,0,0,0,.927,3.327,1.727,1.727,0,0,0-.927-3.327M7.42,71.867a1.7,1.7,0,0,0-1.2,2.926c2.526,2.31,4.4-2.927,1.2-2.926M74.288,75.1a1.8,1.8,0,0,0-2.45-2.582c-1.964,1.387.74,4.394,2.45,2.582M39.57,73.638a1.727,1.727,0,0,0,.927,3.327,1.727,1.727,0,0,0-.927-3.327" transform="translate(-0.001 0)" fill="#fff"/>
      <path id="Trazado_1265634" data-name="Trazado 1265634" d="M103.408,122.874V104.989l-7.059,3.724c-.381.609.216,9.249-.105,11.076-.4,2.253-2.735,1.336-4.409,1.51.435.914,1.392,1.629,1.772,2.565a4,4,0,0,1-6.382,4.542c-1.515-1.325-4.3-6.479-5.193-7.036-.366-.229-1.576-.327-2.308-.717-1.887-1.006-2.229-2.752-2.366-4.735-.241-3.5-.5-8.929,4.079-9.359,4-.376,8.559.311,12.623,0,3.142-1.117,6.989-4.58,9.943-5.571,1.531-.514,2.358-.121,2.567,1.5-.5,7.208.65,15.27.007,22.374-.12,1.329-.759,2.507-2.25,1.978a54.8,54.8,0,0,1-6.951-3.849c-.959-.722-1.689-1.862-.384-2.716,1.514-.991,4.82,2.111,6.416,2.6M93.15,109.461h-11.7a1.771,1.771,0,0,0-.677.443c-.325.523-.4,6.465-.237,7.309.055.289.454.927.651.927H93.15ZM88.1,121.353a5.049,5.049,0,0,0-2.311.073c.848.836,3.172,5.3,4.3,5.091.626-.115.815-1.048.646-1.611a40.216,40.216,0,0,0-2.637-3.553" transform="translate(-56.931 -74.268)" fill="#fff"/>
      <path id="Trazado_1265635" data-name="Trazado 1265635" d="M191.6,143.933c.482-.459,6.437-.467,7.412-.315,1.846.289,1.917,2.564.273,2.87a51.017,51.017,0,0,1-7.089,0,1.494,1.494,0,0,1-.6-2.557" transform="translate(-140.851 -105.78)" fill="#fff"/>
      <path id="Trazado_1265636" data-name="Trazado 1265636" d="M192.446,109.11c.228-.626,5.558-3.282,6.5-3.578,1.782-.562,2.857,1.443,1.521,2.449a50.9,50.9,0,0,1-6.349,3.155,1.494,1.494,0,0,1-1.671-2.025" transform="translate(-141.764 -77.704)" fill="#fff"/>
      <path id="Trazado_1265637" data-name="Trazado 1265637" d="M202.751,175.48c-.228-.626-5.558-3.282-6.5-3.579-1.782-.562-2.857,1.443-1.521,2.449a50.975,50.975,0,0,0,6.349,3.155,1.494,1.494,0,0,0,1.671-2.025" transform="translate(-143.074 -126.618)" fill="#fff"/>
    </g>
  </g>
</svg>
