<svg xmlns="http://www.w3.org/2000/svg" xmlns:xlink="http://www.w3.org/1999/xlink" width="160.5" height="160.501" viewBox="0 0 160.5 160.501">
  <defs>
    <clipPath id="clip-path">
      <rect id="Rectángulo_455261" data-name="Rectángulo 455261" width="38.951" height="37.623" fill="#e6fffa"/>
    </clipPath>
    <clipPath id="clip-path-2">
      <rect id="Rectángulo_458393" data-name="Rectángulo 458393" width="90.569" height="89.347" fill="#5d0b80"/>
    </clipPath>
  </defs>
  <g id="Grupo_1178126" data-name="Grupo 1178126" transform="translate(-307.436 -10011.92)">
    <path id="Sustracción_130" data-name="Sustracción 130" d="M26.051,25.795H0V11.245H11.352V0h14.7V25.795Z" transform="translate(441.641 10038.471) rotate(-90)" fill="#e3a4fe" stroke="rgba(0,0,0,0)" stroke-miterlimit="10" stroke-width="1"/>
    <g id="Grupo_1178100" data-name="Grupo 1178100" transform="translate(307.436 10172.421) rotate(-90)">
      <path id="Trazado_998183" data-name="Trazado 998183" d="M0,0V37.623H25.58V24.056H38.951V0Z" transform="translate(0 0)" fill="#5d0b80"/>
      <g id="Grupo_1178099" data-name="Grupo 1178099" transform="translate(0 0)">
        <g id="Grupo_1178098" data-name="Grupo 1178098" clip-path="url(#clip-path)">
          <path id="Trazado_998184" data-name="Trazado 998184" d="M0,9.021a9.025,9.025,0,1,1,9.025,9.021A9.023,9.023,0,0,1,0,9.021" transform="translate(4.434 5.629)" fill="#e3a4fe"/>
        </g>
      </g>
    </g>
    <g id="Grupo_1177470" data-name="Grupo 1177470" transform="translate(308.059 10012.421)">
      <circle id="Elipse_13609" data-name="Elipse 13609" cx="79.688" cy="79.688" r="79.688" fill="#f0d5fe"/>
      <g id="Grupo_1099776" data-name="Grupo 1099776" transform="translate(33.723 33.96)">
        <g id="Grupo_1099618" data-name="Grupo 1099618" transform="translate(0 0)">
          <rect id="Rectángulo_401104" data-name="Rectángulo 401104" width="90.569" height="91.661" transform="translate(0)" fill="none"/>
        </g>
        <g id="Grupo_1207580" data-name="Grupo 1207580">
          <g id="Grupo_1207579" data-name="Grupo 1207579" clip-path="url(#clip-path-2)">
            <path id="Trazado_1266567" data-name="Trazado 1266567" d="M70.1,119.514a5.983,5.983,0,0,1-6.238,6.222,6.427,6.427,0,0,1-6.49,6.488c-.016,6.051-6.615,8.088-11,4.436-3.848,4.469-10.926,2.884-11.589-3.141a6.144,6.144,0,0,1-7.268-6.227,6.271,6.271,0,0,1-6.24-7.258,6.274,6.274,0,0,1-5.227-8.5c.291-.779,1.244-1.658.962-2.4-2.6-3.106-4.832-7.19-7.53-10.141C6.69,95.939,2.451,93.659,0,90.289l.124-.9,17.1-21.451c1.08-.734,1.353-.651,2.432-.126,3.217,1.565,6.754,4.907,9.886,6.205,1.7.7,9.524,2.828,11.031,2.6,3-.451,6.676-2.41,9.693-2.764,4.049-.475,8.766.348,12.888-.09,1.97-.819,8.918-6.359,10.439-6.4a2.888,2.888,0,0,1,.988.286L89.923,87.342c1.405,1.8.267,2.632-1.007,3.876-1.971,1.924-4.724,3.636-6.629,5.571-2.853,2.9-4.372,9.085-6.575,12.651-.138.667.668,1.792.8,2.733.562,4.069-2.411,7.157-6.409,7.341M18.874,71.767,4.455,89.573,10.52,95.1,25.938,76.245c.1-.335-.188-.415-.4-.568-1.921-1.38-4.156-2.406-6.077-3.8ZM66.2,75.9,79.958,93.7c.433.212,1.035-.376,1.416-.675.592-.464,4.557-3.867,4.687-4.152s.207-.487,0-.767l-12.6-16.244-.766.013Zm7,30.883,4.3-9.341.065-.842L62.379,77.509c-3.762.192-8.174-.458-11.858-.026-3.921.46-8.871,2.944-12.863,3.748L30.7,93.476a2.682,2.682,0,0,0,3.589,3.329c2.03-.634,5.039-8.991,7-10.651,3.72-.4,7.453.35,11.171.5l20.1,19.874ZM34.53,79.015c-1.246.088-4.46-1.661-5.334-1.064L13.007,97.793l6.732,8.882.337.077c3.657-2.993,9.608-.888,10.043,3.93a6.3,6.3,0,0,1,7.794,6.219c4.386.081,6.785,3.58,6.247,7.77,4.625.816,6.127,5.16,4.685,9.325,2.126,2.144,5.775.59,4.945-2.452-.493-1.809-5.657-5.132-5.456-6.914a1.652,1.652,0,0,1,1.9-1.507c2.7.166,5.819,7.919,9.2,4.8,1.506-1.386.736-3-.264-4.318-1.909-2.518-5.914-5.214-7.508-7.605a1.75,1.75,0,0,1,2.469-2.468c2.551,1.71,5.316,5.988,7.907,7.924,1.458,1.089,3.421,1.136,4.254-.678.743-1.617.293-2.306-.74-3.615-3.1-3.934-8.142-7.491-11.41-11.43a1.791,1.791,0,0,1,2.337-2.6l12.5,12.413c3.206,1.361,5.26-2.153,3.062-4.618L51.005,90.181,43.266,89.7c-.624.207-4.115,7.422-5.141,8.615-4.733,5.5-13.8.3-10.219-7.364,1.87-4,4.911-7.8,6.625-11.932m-10.965,29.9c-.9.158-3.975,3.009-4.232,3.83A2.638,2.638,0,0,0,22.2,116.4c1.442-.137,3.979-2.58,4.367-3.951a2.709,2.709,0,0,0-3-3.539m7.524,5.2c-1.078.21-5.718,4.777-6.136,5.811-1.1,2.723,1.8,4.791,4.368,3.072a31.828,31.828,0,0,0,4.664-4.94c.887-2.182-.511-4.407-2.9-3.943m5.969,6.5c-.644.167-5.445,4.814-5.706,5.452a2.773,2.773,0,0,0,4.2,3.421,41.35,41.35,0,0,0,4.741-4.862,2.741,2.741,0,0,0-3.233-4.011m5.717,7.513c-.917.134-3.976,3-4.235,3.828a2.7,2.7,0,0,0,3.874,3.356,14.572,14.572,0,0,0,3.221-3.526,2.634,2.634,0,0,0-2.86-3.659" transform="translate(0 -49.876)" fill="#5d0b80"/>
            <path id="Trazado_1266568" data-name="Trazado 1266568" d="M85.158,19.235a1.654,1.654,0,0,1,.921,0L99.26,32.025a1.786,1.786,0,0,1-2.494,2.494L83.979,21.338c-.352-.715.536-1.914,1.18-2.1" transform="translate(-62.122 -14.195)" fill="#5d0b80"/>
            <path id="Trazado_1266569" data-name="Trazado 1266569" d="M218.27,19.313a1.754,1.754,0,0,1,1.627,2.939L207.582,34.594a1.786,1.786,0,0,1-2.494-2.494Z" transform="translate(-151.624 -14.27)" fill="#5d0b80"/>
            <path id="Trazado_1266570" data-name="Trazado 1266570" d="M168.7,27.263a1.647,1.647,0,0,1,2.149,1.637c.383,3.285-.287,7.274-.012,10.64a1.737,1.737,0,0,1-3.381-.24,72.074,72.074,0,0,1,.03-10.639,1.545,1.545,0,0,1,1.213-1.4" transform="translate(-123.858 -20.145)" fill="#5d0b80"/>
            <path id="Trazado_1266571" data-name="Trazado 1266571" d="M168.876.12a1.77,1.77,0,1,1,0,3.263c-1.335-.394-1.342-2.867,0-3.263" transform="translate(-124.299 0)" fill="#5d0b80"/>
          </g>
        </g>
      </g>
    </g>
  </g>
</svg>
