<svg xmlns="http://www.w3.org/2000/svg" xmlns:xlink="http://www.w3.org/1999/xlink" width="96" height="96" viewBox="0 0 96 96">
  <defs>
    <clipPath id="clip-path">
      <rect id="Rectángulo_458382" data-name="Rectángulo 458382" width="54.289" height="54.289" fill="#fff"/>
    </clipPath>
  </defs>
  <g id="Grupo_1206968" data-name="Grupo 1206968" transform="translate(-383.746 -8400.001)">
    <path id="Trazado_997400" data-name="Trazado 997400" d="M48,0A48,48,0,1,1,0,48,48,48,0,0,1,48,0Z" transform="translate(383.746 8400.001)" fill="#5d0b80"/>
    <g id="Grupo_1099776" data-name="Grupo 1099776" transform="translate(401.746 8418)">
      <g id="Grupo_1099618" data-name="Grupo 1099618" transform="translate(-0.035 -0.137)">
        <rect id="Rectángulo_401104" data-name="Rectángulo 401104" width="59.378" height="60.093" transform="translate(0)" fill="none"/>
      </g>
      <g id="Grupo_1207558" data-name="Grupo 1207558" transform="translate(1.965 3.863)">
        <g id="Grupo_1207557" data-name="Grupo 1207557" clip-path="url(#clip-path)">
          <path id="Trazado_1266468" data-name="Trazado 1266468" d="M25.035,21.112a1.006,1.006,0,0,0-1.005-1.005H17.4a1,1,0,0,0-.826.433l-3.35,4.838L9.875,20.54a1.006,1.006,0,0,0-.827-.433H3.016A1.006,1.006,0,0,1,2.011,19.1V3.016A1.006,1.006,0,0,1,3.016,2.011H39.209a1.006,1.006,0,0,1,1.005,1.005V19.1a1.006,1.006,0,0,1-1.005,1.005H29.635a1.005,1.005,0,1,0,0,2.011h9.573A3.019,3.019,0,0,0,42.225,19.1V3.016A3.02,3.02,0,0,0,39.209,0H3.016A3.02,3.02,0,0,0,0,3.016V19.1a3.019,3.019,0,0,0,3.016,3.016h5.5l3.876,5.6a1.005,1.005,0,0,0,1.653,0l3.876-5.6h6.1a1.006,1.006,0,0,0,1.005-1.005" fill="#fff"/>
          <path id="Trazado_1266469" data-name="Trazado 1266469" d="M80.718,68.671H50.557a3.019,3.019,0,0,0-3.016,3.016V87.773a3.019,3.019,0,0,0,3.016,3.016h15.25l3.876,5.6a1.005,1.005,0,0,0,1.653,0l3.876-5.6h5.505a3.02,3.02,0,0,0,3.016-3.016V84.126a1.005,1.005,0,0,0-2.011,0v3.647a1.007,1.007,0,0,1-1.005,1.006H74.686a1,1,0,0,0-.827.433L70.509,94.05l-3.35-4.838a1,1,0,0,0-.826-.433H50.557a1.007,1.007,0,0,1-1.005-1.006V71.687a1.007,1.007,0,0,1,1.005-1.006h30.16a1.007,1.007,0,0,1,1.005,1.006V76.6a1.005,1.005,0,0,0,2.011,0V71.687a3.02,3.02,0,0,0-3.016-3.016" transform="translate(-29.445 -42.532)" fill="#fff"/>
          <path id="Trazado_1266470" data-name="Trazado 1266470" d="M138.346,95.537a1.006,1.006,0,0,0-1.005,1.005v.746a1.005,1.005,0,0,0,2.011,0v-.746a1.006,1.006,0,0,0-1.005-1.005" transform="translate(-85.063 -59.171)" fill="#fff"/>
          <path id="Trazado_1266471" data-name="Trazado 1266471" d="M16.852,28.424H45a1.005,1.005,0,0,0,0-2.011H16.852a1.005,1.005,0,0,0,0,2.011" transform="translate(-9.815 -16.359)" fill="#fff"/>
          <path id="Trazado_1266472" data-name="Trazado 1266472" d="M16.852,17.859H45a1.005,1.005,0,0,0,0-2.011H16.852a1.005,1.005,0,1,0,0,2.011" transform="translate(-9.815 -9.816)" fill="#fff"/>
          <path id="Trazado_1266473" data-name="Trazado 1266473" d="M16.852,38.988H45a1.005,1.005,0,0,0,0-2.011H16.852a1.005,1.005,0,0,0,0,2.011" transform="translate(-9.815 -22.902)" fill="#fff"/>
          <path id="Trazado_1266474" data-name="Trazado 1266474" d="M86.511,95.083H64.393a1.005,1.005,0,0,0,0,2.011H86.511a1.005,1.005,0,1,0,0-2.011" transform="translate(-39.26 -58.89)" fill="#fff"/>
          <path id="Trazado_1266475" data-name="Trazado 1266475" d="M86.511,84.518H64.393a1.005,1.005,0,0,0,0,2.011H86.511a1.005,1.005,0,1,0,0-2.011" transform="translate(-39.26 -52.347)" fill="#fff"/>
          <path id="Trazado_1266476" data-name="Trazado 1266476" d="M86.511,105.647H64.393a1.005,1.005,0,0,0,0,2.011H86.511a1.005,1.005,0,1,0,0-2.011" transform="translate(-39.26 -65.433)" fill="#fff"/>
        </g>
      </g>
    </g>
  </g>
</svg>
