<svg xmlns="http://www.w3.org/2000/svg" xmlns:xlink="http://www.w3.org/1999/xlink" width="96" height="96" viewBox="0 0 96 96">
  <defs>
    <clipPath id="clip-path">
      <rect id="Rectángulo_458383" data-name="Rectángulo 458383" width="59.378" height="59.226" fill="#fff"/>
    </clipPath>
  </defs>
  <g id="Grupo_1206969" data-name="Grupo 1206969" transform="translate(-383.746 -8400.001)">
    <path id="Trazado_997400" data-name="Trazado 997400" d="M48,0A48,48,0,1,1,0,48,48,48,0,0,1,48,0Z" transform="translate(383.746 8400.001)" fill="#5d0b80"/>
    <g id="Grupo_1099776" data-name="Grupo 1099776" transform="translate(401.746 8418)">
      <g id="Grupo_1099618" data-name="Grupo 1099618" transform="translate(-0.035 -0.137)">
        <rect id="Rectángulo_401104" data-name="Rectángulo 401104" width="59.378" height="60.093" transform="translate(0)" fill="none"/>
      </g>
      <g id="Grupo_1207560" data-name="Grupo 1207560" transform="translate(-0.035 1.97)">
        <g id="Grupo_1207559" data-name="Grupo 1207559" clip-path="url(#clip-path)">
          <path id="Trazado_1266477" data-name="Trazado 1266477" d="M46.126,50.526h4.626a4.1,4.1,0,0,1,1.822,1.262,7.288,7.288,0,0,1,.627,1.368v4.263H87.212a3.028,3.028,0,0,0,.453-.453v-5.9c-.818.313-1.547.842-2.361,1.176a16.849,16.849,0,1,1-3.252-32.114,26.128,26.128,0,0,1,5.613,2.1V2.547a1.619,1.619,0,0,0-.366-.36L50.2,2.1A1.015,1.015,0,1,1,50.381.09H86.857a3.054,3.054,0,0,1,2.719,2l.089,21.5c.1.534,1.627,1.729,2.084,2.269a16.917,16.917,0,0,1-2.059,23.7c-.3,2.341.308,5.318-.041,7.578a3.106,3.106,0,0,1-2.017,2.155l-36.018-.013L44.35,52.03l-.033-15.558c.243-1.3,1.809-.687,1.809-.186ZM77.29,21.919C65.675,23.007,59.9,37.079,67.355,46.076A14.842,14.842,0,1,0,77.29,21.919M51.205,55.968v-2.63a3.068,3.068,0,0,0-.635-.816H47.759Z" transform="translate(-36.278 -0.064)" fill="#fff"/>
          <path id="Trazado_1266478" data-name="Trazado 1266478" d="M25.384,16.243c1.02,1.186-.2,2.218-1.307,1.577L9.762,3.658c-3.879-4.217-10.134.4-6.8,5.17C8.24,13.55,13.025,19.31,18.278,23.983c1.19,1.059,2.692,2.668,4.276,1.183,2.178-2.042-1.393-4.3-2.644-5.537C15.837,15.6,11.862,11.474,7.662,7.573c-.72-1.24.639-2.235,1.65-1.287L24.439,21.269A4.137,4.137,0,0,1,18.1,26.522L1.141,9.739a6.213,6.213,0,0,1,9.253-8.165Z" transform="translate(0 0)" fill="#fff"/>
          <path id="Trazado_1266479" data-name="Trazado 1266479" d="M44.292,109.675a1.145,1.145,0,0,1,1.814,0v7.981a1.145,1.145,0,0,1-1.814,0Z" transform="translate(-36.258 -89.416)" fill="#fff"/>
          <path id="Trazado_1266480" data-name="Trazado 1266480" d="M44.647,169.272c1.822-.315,1.578,3.715-.319,2.782-.522-.257-.738-2.6.319-2.782" transform="translate(-35.932 -138.552)" fill="#fff"/>
          <path id="Trazado_1266481" data-name="Trazado 1266481" d="M188.2,152.308a2.975,2.975,0,0,1,3.108,4.2,12.26,12.26,0,0,1-1.522,1.925c-3.2,3.667-6.79,7.024-9.89,10.789a3.069,3.069,0,0,1-3.693.612,83.132,83.132,0,0,1-5.889-5.9,2.941,2.941,0,0,1,3.95-4.132c1.152.606,2.263,2.475,3.1,2.9.14.072.223.121.36,0l8.8-9.538a2.961,2.961,0,0,1,1.685-.857m.177,1.978-10.3,10.945a1.194,1.194,0,0,1-1.258-.189c-.855-.542-3.174-3.52-3.766-3.684-.822-.228-1.44.863-1.045,1.6,1.027.746,4.6,5.1,5.478,5.235.629.1,1.356-.805,1.776-1.239,3.415-3.527,6.5-7.408,9.961-10.9.74-.785.29-1.978-.85-1.774" transform="translate(-139.029 -124.656)" fill="#fff"/>
        </g>
      </g>
    </g>
  </g>
</svg>
