<svg xmlns="http://www.w3.org/2000/svg" xmlns:xlink="http://www.w3.org/1999/xlink" width="84" height="84" viewBox="0 0 84 84">
  <defs>
    <clipPath id="clip-path">
      <rect id="Rectángulo_458280" data-name="Rectángulo 458280" width="67.577" height="67.593" fill="#5d0b80"/>
    </clipPath>
  </defs>
  <g id="Grupo_1207198" data-name="Grupo 1207198" transform="translate(-185.133 -1045.876)">
    <rect id="Rectángulo_455472" data-name="Rectángulo 455472" width="84" height="84" rx="12" transform="translate(185.133 1045.876)" fill="#ffe9a1"/>
    <g id="Grupo_1207443" data-name="Grupo 1207443" transform="translate(194.133 1053.876)">
      <g id="Grupo_1207442" data-name="Grupo 1207442" clip-path="url(#clip-path)">
        <path id="Trazado_1266119" data-name="Trazado 1266119" d="M106.623,28.187c.282-1.989,2.164-3.505,3.875-4.256,1.222-.536,3.342-.98,4.4-1.6,1.214-.719-.1-1.492-.495-2.111-1.438-2.227-1.1-1.251-2.84-2.581a4.357,4.357,0,0,1-1.653-3.187C109.291,7.32,111.5-.272,120.089.008c8.1.265,9.971,7.689,9.387,14.439a4.357,4.357,0,0,1-1.653,3.187c-1.737,1.33-1.4.354-2.84,2.581-.423.656-1.555,1.176-.627,2.049,2.5,1.176,6.2,1.549,7.668,4.142a7.06,7.06,0,0,1,.736,1.974v6.486H106.623c.21-2.071-.284-4.678,0-6.679m20.715-17.909a7.83,7.83,0,0,0-3.5-6.855,7.668,7.668,0,0,0-11.8,6.173c-.019.305-.139.79.3.686,1.209-.612,2.639-.354,3.934-.715a7.9,7.9,0,0,0,3.423-2.382c1.958,2.6,4.749,2.51,7.646,3.093m-3.289,1.549a8.3,8.3,0,0,1-4.357-1.546,8.3,8.3,0,0,1-4.357,1.546c.227,2.741-.835,5.83,1.548,7.843a4.376,4.376,0,0,0,7.143-2.734c.194-1.613-.1-3.469.023-5.11m-10.843.582c-1.459.412-1.589,3.134,0,3.485Zm12.972,3.485c1.589-.35,1.459-3.073,0-3.485Zm-4.454,6.777a15.514,15.514,0,0,1-2.429.2c-.224,0-1.846-.45-1.633.085l2.031,3.194Zm-3.685,5.411-2.02-3.691-1.377.4,1.284,4.067Zm5.426.782L124.8,24.89l-1.235-.621a15.982,15.982,0,0,0-2.234,3.713Zm-14.711-.1c-.169,1.2.124,2.728,0,3.969H130.63V28.767c0-1.538-2.455-3.1-3.871-3.195l-1.939,6.39-5.129-2.31-5.029,2.313-2.04-6.394c-1.654.3-3.617,1.4-3.87,3.2" transform="translate(-85.907 -0.001)" fill="#5d0b80"/>
        <path id="Trazado_1266120" data-name="Trazado 1266120" d="M218.6,201.5l3.107.9-.018,8.189-3.09.59,1.462,3.1L214.34,220l-3.1-1.462-.59,3.09-8.189.018-.9-3.107-3.1,1.458-5.585-5.66,1.518-2.865-3.262-1.185V202.3l3.266-.8-1.56-3.167,5.569-5.518,3.153,1.523.9-3.3,7.882.034,1.185,3.262c.718-.263,2.334-1.755,3-1.454l5.53,5.521Zm-9.7-8.111-4.7.007-.942,2.641c-.858.038-1.594.893-2.344.611-.649-.244-1.572-1.367-2.251-1.058a34.254,34.254,0,0,0-3.079,3.144c-.123.691,1.258,1.969,1.263,2.476a16.992,16.992,0,0,1-.805,1.839c-.54.686-2.383.486-2.586,1.092l-.007,4.7c1.664.313,2.855.383,3.237,2.293.238,1.188-1.336,2.349-1.04,2.948l3.3,3.251c.3.022,1.578-1.191,2.179-1.277a7.24,7.24,0,0,1,2.064.761c.62.533.458,2.478,1.012,2.667l4.7.006.644-2.646c.7-.125,1.686-.944,2.325-.784.655.164,1.549,1.365,2.271,1.036a34.146,34.146,0,0,0,3.079-3.144c.164-.637-.969-1.664-1.138-2.294l.759-2.09,2.739-.824-.1-4.733-2.424-.674a8.28,8.28,0,0,1-.942-1.976c-.094-.759,1.362-2.288,1.238-2.566l-3.332-3.26c-1.026.208-1.707,1.319-2.829,1.1-1.862-.372-1.973-1.6-2.293-3.237" transform="translate(-154.125 -154.051)" fill="#5d0b80"/>
        <path id="Trazado_1266121" data-name="Trazado 1266121" d="M21.878,231.35H0V203.083H21.878Zm-2.323-26.137H2.13v23.717l.29.29H19.554Z" transform="translate(0 -163.765)" fill="#5d0b80"/>
        <path id="Trazado_1266122" data-name="Trazado 1266122" d="M58.938,59.117H54.195c-.278,0-1.065.57-1.065.871V79.833H51V59.408c0-.829,1.813-2.42,2.614-2.42h5.518l-2.309-2.447c-.043-.245,1.175-1.56,1.593-1.405l4.972,4.916L58.26,63.18l-1.438-1.616c.079-.454,2.107-1.7,2.116-2.447" transform="translate(-41.126 -42.838)" fill="#5d0b80"/>
        <path id="Trazado_1266123" data-name="Trazado 1266123" d="M244.605,89.7c.256.29,2.3-2.115,2.614-2.32L248.657,89l-4.95,4.95L238.618,89l1.438-1.616,2.42,2.32V75.86c0-.3-.787-.871-1.065-.871h-5.518c.086-.5-.26-1.914.318-2.1,2.068.183,5.513-.615,7.222.661a6.608,6.608,0,0,1,1.172,1.538Z" transform="translate(-190.202 -58.71)" fill="#5d0b80"/>
        <path id="Trazado_1266124" data-name="Trazado 1266124" d="M120.274,250.293l2.309,2.447c.043.245-1.175,1.561-1.593,1.4l-4.972-4.916,5.127-5.127,1.4,1.446c.024.172-1.917,2.262-2.275,2.232-.053.075.256.384.29.384h7.841v2.13Z" transform="translate(-93.556 -196.841)" fill="#5d0b80"/>
        <path id="Trazado_1266125" data-name="Trazado 1266125" d="M233.422,225.178c11.643-1.09,12.8,16.389,1.876,17.364-11.879,1.059-13.119-16.312-1.876-17.364m.751,2.146c-8.682.18-8.272,13.216.163,13.105,8.678-.114,8.388-13.283-.163-13.105" transform="translate(-181.963 -181.543)" fill="#5d0b80"/>
        <path id="Trazado_1266126" data-name="Trazado 1266126" d="M35.043,225.083v2.13H21.878c.087-.692-.261-1.619.29-2.13Z" transform="translate(-17.619 -181.505)" fill="#5d0b80"/>
        <path id="Trazado_1266127" data-name="Trazado 1266127" d="M35.043,270.083v2.13H21.878c.087-.692-.261-1.619.29-2.13Z" transform="translate(-17.619 -217.793)" fill="#5d0b80"/>
        <path id="Trazado_1266128" data-name="Trazado 1266128" d="M35.043,293.083v2.13H22.168c-.551-.51-.2-1.438-.29-2.13Z" transform="translate(-17.619 -236.34)" fill="#5d0b80"/>
        <path id="Trazado_1266129" data-name="Trazado 1266129" d="M22.2,315.083H30.52l.26.321a2.452,2.452,0,0,1,.041.54c.042.481.1,1.164-.3,1.462H22.2l-.26-.321a2.452,2.452,0,0,1-.041-.54c-.025-.284-.051-1.462.3-1.462" transform="translate(-17.646 -254.081)" fill="#5d0b80"/>
        <rect id="Rectángulo_458278" data-name="Rectángulo 458278" width="8.712" height="2.13" transform="translate(8.712 48.03)" fill="#5d0b80"/>
        <rect id="Rectángulo_458279" data-name="Rectángulo 458279" width="2.132" height="2.325" transform="translate(15.294 61.001)" fill="#5d0b80"/>
        <path id="Trazado_1266130" data-name="Trazado 1266130" d="M24.32,248.077v2.132c-.5-.08-1.978.193-2.24-.182l-.085-1.949Z" transform="translate(-17.737 -200.048)" fill="#5d0b80"/>
        <path id="Trazado_1266131" data-name="Trazado 1266131" d="M251.314,247.956c5.772-.994,7.375,6.718,2.566,8.375-6.055,2.086-8.082-7.425-2.566-8.375m.584,2.124c-2.716.442-2.025,5.018,1.258,4.169,2.137-.552,1.7-4.65-1.258-4.169" transform="translate(-200.059 -199.879)" fill="#5d0b80"/>
      </g>
    </g>
  </g>
</svg>
