<svg xmlns="http://www.w3.org/2000/svg" xmlns:xlink="http://www.w3.org/1999/xlink" width="96" height="96" viewBox="0 0 96 96">
  <defs>
    <clipPath id="clip-path">
      <rect id="Rectángulo_458390" data-name="Rectángulo 458390" width="56.377" height="56.051" fill="#fff"/>
    </clipPath>
  </defs>
  <g id="Grupo_1206973" data-name="Grupo 1206973" transform="translate(-383.746 -8400.001)">
    <path id="Trazado_997400" data-name="Trazado 997400" d="M48,0A48,48,0,1,1,0,48,48,48,0,0,1,48,0Z" transform="translate(383.746 8400.001)" fill="#5d0b80"/>
    <g id="Grupo_1099776" data-name="Grupo 1099776" transform="translate(401.746 8418)">
      <g id="Grupo_1099618" data-name="Grupo 1099618" transform="translate(0 -0.137)">
        <rect id="Rectángulo_401104" data-name="Rectángulo 401104" width="59.378" height="60.093" transform="translate(0)" fill="none"/>
      </g>
      <g id="Grupo_1207574" data-name="Grupo 1207574" transform="translate(2 1.863)">
        <g id="Grupo_1207573" data-name="Grupo 1207573" clip-path="url(#clip-path)">
          <path id="Trazado_1266539" data-name="Trazado 1266539" d="M20.48,54.439V47.934c0-.524,1.606-.524,1.606,0v6.506H32.368V37.412H22.087v7.309c0,.812-1.606.558-1.606,0V1.59H3.372a3.867,3.867,0,0,0-1.052.554C1.1,3.263,1.978,6.416,1.682,7.932a.814.814,0,0,1-1.6,0A24.781,24.781,0,0,1,.25,2.483,3.678,3.678,0,0,1,3.23,0L43.261.093c1.9.573,2.616,1.917,2.766,3.82V51.957c-.152,2.191-1.015,3.686-3.3,4.09l-39.2.005A3.647,3.647,0,0,1,.074,52.6l0-40.976c.143-1.068,1.467-1.19,1.623,0L1.685,52.432a2.2,2.2,0,0,0,1.687,2.007ZM32.368,1.59H22.087V18.617H32.368ZM44.255,18.617V2.955A3.106,3.106,0,0,0,42.729,1.59H33.974V18.617ZM32.368,20.384H22.087V35.645H32.368Zm11.887,0H33.974V35.645H44.255Zm0,17.028H33.974V54.439h8.755a3.106,3.106,0,0,0,1.526-1.365Z" transform="translate(0 -0.001)" fill="#fff"/>
          <path id="Trazado_1266540" data-name="Trazado 1266540" d="M297.514,68.376c-.223,1.038-1.949.766-1.766-.483.33-5.8-.441-12.09-.007-17.837.227-3,2.122-4.82,5.213-4.4,1.934.264,3.177,2.243,3.314,4.075.728,9.741-.564,20.377,0,30.212-.109,1.263-1.779,4.513-2.493,5.7-.629,1.044-1.757,2.024-2.919.906a43.179,43.179,0,0,1-2.655-5.136c-.672-1.781-.63-6.834-.459-8.87.041-.493.091-1.125.645-1.3a.877.877,0,0,1,1.094.694c.3,2.576-.277,5.649.031,8.162a3.77,3.77,0,0,0,.646,1.453,7.063,7.063,0,0,1,3.84.057c.029-.391.658-1.237.658-1.514V56.57h-5.14Zm5.14-13.413V49.421a8.975,8.975,0,0,0-.508-1.1,2.632,2.632,0,0,0-4.061-.257,4.845,4.845,0,0,0-.572,1.035v5.863Zm-1.606,28.113a3.789,3.789,0,0,0-2.089,0l.966,2.247a4.91,4.91,0,0,0,1.123-2.247" transform="translate(-248.119 -38.275)" fill="#fff"/>
          <path id="Trazado_1266541" data-name="Trazado 1266541" d="M34.987,73.4a34.634,34.634,0,0,1,5.745-.039,3.7,3.7,0,0,1,3.248,3.5c.163,1.366.216,3.1-1.474,3.256a66.463,66.463,0,0,1-9.011,0c-.828-.075-1.26-.35-1.361-1.209-.264-2.251.207-5.063,2.853-5.507m2.13,1.568c-2.657-.322-3.724.937-3.373,3.534h3.373Zm5.14,3.534c.391-2.666-.7-3.817-3.373-3.534v3.534Z" transform="translate(-26.918 -61.495)" fill="#fff"/>
          <path id="Trazado_1266542" data-name="Trazado 1266542" d="M32.633,291.809c-.626-.573-.44-3.481-.129-4.284a3.771,3.771,0,0,1,2.326-2.012,36.018,36.018,0,0,1,6.469-.04c2.281.388,3.114,3.146,2.836,5.168-.153,1.111-.6,1.447-1.666,1.546a63.651,63.651,0,0,1-8.689,0,2.064,2.064,0,0,1-1.146-.381m4.608-4.768c-2.715-.343-3.737.881-3.373,3.534h3.373Zm5.14,3.534c.348-2.734-.578-3.85-3.373-3.534v3.534Z" transform="translate(-27.042 -239.51)" fill="#fff"/>
          <path id="Trazado_1266543" data-name="Trazado 1266543" d="M34.972,179.544a28.007,28.007,0,0,1,6.787.2c1.883.73,2.489,3.133,2.237,4.964-.134.974-.525,1.459-1.5,1.548a63.207,63.207,0,0,1-9.007,0c-.762-.091-1.272-.411-1.364-1.206-.266-2.281.163-5.055,2.852-5.507m2.13,1.568c-2.681-.342-3.728.915-3.373,3.534H37.1Zm5.14,3.534c.348-2.734-.578-3.85-3.373-3.534v3.534Z" transform="translate(-26.903 -150.609)" fill="#fff"/>
          <path id="Trazado_1266544" data-name="Trazado 1266544" d="M53.294,27.043c-.727-.727-.988-2.86-.818-3.843a2.676,2.676,0,0,1,4.945-.845,5.608,5.608,0,0,1-.161,4.185,2.567,2.567,0,0,1-3.966.5m1.669-4.418a1.221,1.221,0,0,0-.909,1.158,11.606,11.606,0,0,0,.268,1.83.869.869,0,0,0,1.613-.077c.26-.849.426-3.125-.972-2.911" transform="translate(-44.005 -17.637)" fill="#fff"/>
          <path id="Trazado_1266545" data-name="Trazado 1266545" d="M56.855,238.91a2.564,2.564,0,0,1-3.936-.53,8.229,8.229,0,0,1-.5-3.34,2.725,2.725,0,0,1,4.945-.949c.635,1.088.427,3.936-.514,4.819m-.956-4.074a1.053,1.053,0,0,0-1.815.431,10.5,10.5,0,0,0,.13,1.978.9.9,0,0,0,1.7.164,5.016,5.016,0,0,0-.018-2.574" transform="translate(-43.981 -195.452)" fill="#fff"/>
          <path id="Trazado_1266546" data-name="Trazado 1266546" d="M54.734,126.879c3.1-.515,3.7,3.185,2.676,5.406-.92,1.988-4.079,1.608-4.65-.617-.478-1.859-.357-4.4,1.975-4.789m.32,1.593a1.283,1.283,0,0,0-.914,1.027,16.487,16.487,0,0,0,.225,1.849.938.938,0,0,0,.814.62,1.1,1.1,0,0,0,.852-.581,16.7,16.7,0,0,0,.206-1.9,1.188,1.188,0,0,0-1.183-1.017" transform="translate(-44.095 -106.456)" fill="#fff"/>
          <path id="Trazado_1266547" data-name="Trazado 1266547" d="M154.34,271.739c.912-.277,1.425.35,1.049,1.213a26.9,26.9,0,0,1-2.605,2.7c-.615.475-1.043.77-1.763.309-.511-.327-2.36-2.09-2.194-2.644.605-2.016,2.462,1.029,2.887.955.654-.374,2.074-2.359,2.626-2.527" transform="translate(-124.911 -228.032)" fill="#fff"/>
          <path id="Trazado_1266548" data-name="Trazado 1266548" d="M148.733,50.494c.964-.95,1.958,1.092,2.749,1.395.361-.063,2.082-2.34,2.721-2.6a.814.814,0,0,1,.923,1.259c-.106.181-2.789,2.866-2.971,2.971-1.116.645-2.59-.931-3.224-1.772-.261-.346-.618-.837-.2-1.249" transform="translate(-124.679 -41.316)" fill="#fff"/>
          <path id="Trazado_1266549" data-name="Trazado 1266549" d="M228.487,49.088a1.1,1.1,0,0,1,.78.448.864.864,0,0,1,0,.8,37.165,37.165,0,0,1-3.244,3.183c-1.313.4-2.714-1.558-3.4-2.494.69-2.415,2.394.842,2.929.748.654-.408,2.326-2.629,2.939-2.686" transform="translate(-186.858 -41.201)" fill="#fff"/>
          <path id="Trazado_1266550" data-name="Trazado 1266550" d="M228.373,271.739c.912-.277,1.425.35,1.049,1.213a26.821,26.821,0,0,1-2.6,2.7c-.667.518-1.082.748-1.852.237-.443-.293-2.231-2.1-2.1-2.575.544-2.017,2.489,1.025,2.885.956.654-.374,2.074-2.359,2.626-2.527" transform="translate(-187.057 -228.032)" fill="#fff"/>
          <path id="Trazado_1266551" data-name="Trazado 1266551" d="M158.689,158.813c.895.891-1.091,1.72-1.091,2.29.227.7,1.926,1.459,1.091,2.29-.968.964-1.992-1.15-2.429-1.074-.633.415-1.242,1.762-2.122,1.124-1.039-.753.587-1.781,1.053-2.341-.466-.56-2.092-1.588-1.053-2.341.88-.637,1.489.709,2.122,1.124.436.076,1.461-2.038,2.429-1.074" transform="translate(-129.092 -133.09)" fill="#fff"/>
          <path id="Trazado_1266552" data-name="Trazado 1266552" d="M233.271,159.053c.632,1.01-.487,1.619-1.082,2.291.6.672,1.714,1.28,1.082,2.29-1.089.68-1.571-.488-2.29-1.083-1.976,2.561-3.8.753-1.208-1.208-2.59-1.957-.773-3.771,1.208-1.208.719-.6,1.2-1.762,2.29-1.083" transform="translate(-191.787 -133.33)" fill="#fff"/>
        </g>
      </g>
    </g>
  </g>
</svg>
