<svg xmlns="http://www.w3.org/2000/svg" xmlns:xlink="http://www.w3.org/1999/xlink" width="96" height="96" viewBox="0 0 96 96">
  <defs>
    <clipPath id="clip-path">
      <rect id="Rectángulo_458391" data-name="Rectángulo 458391" width="52.31" height="60.094" fill="#fff"/>
    </clipPath>
  </defs>
  <g id="Grupo_1206975" data-name="Grupo 1206975" transform="translate(-383.746 -8400.001)">
    <path id="Trazado_997400" data-name="Trazado 997400" d="M48,0A48,48,0,1,1,0,48,48,48,0,0,1,48,0Z" transform="translate(383.746 8400.001)" fill="#5d0b80"/>
    <g id="Grupo_1099776" data-name="Grupo 1099776" transform="translate(401.746 8418)">
      <g id="Grupo_1099618" data-name="Grupo 1099618" transform="translate(0 -0.136)">
        <rect id="Rectángulo_401104" data-name="Rectángulo 401104" width="59.378" height="60.093" transform="translate(0)" fill="none"/>
      </g>
      <g id="Grupo_1207576" data-name="Grupo 1207576" transform="translate(4 -0.137)">
        <g id="Grupo_1207575" data-name="Grupo 1207575" clip-path="url(#clip-path)">
          <path id="Trazado_1266553" data-name="Trazado 1266553" d="M16.269,2.717a10.686,10.686,0,0,1,2.944,8.275c-.151,1.311-.977,2.5-1,3.837L35.9,21.6l14.691-4.858c1.1-.325,1.728.428,1.716,1.493l-.1,35.257-.449.584-15.9,6.016L18.08,53.485,2.025,57.574l-.579-.3L1.363,20.008l1.758-.941C2.046,16.094-.151,12.834.008,9.56.41,1.315,10.129-3.248,16.269,2.717M9.625,2.349C3.874,2.35.771,8.871,3.282,13.741l6.344,13.9c2.457-5.3,5.105-10.569,7.07-16.072a7.464,7.464,0,0,0-7.07-9.225m7.336,36.46V17.524L10.877,30.761c-.607,1.215-1.554,1.482-2.353.264l-4.48-9.781-.514.309V54.929l13.433-3.823V47.179l-.31-.31H9.005a12.027,12.027,0,0,1-1.33-.737,4.309,4.309,0,0,1-1.012-5.325,5.024,5.024,0,0,1,2.962-2ZM34.528,28.27V23.62L19.235,17.73V28.27Zm15.5-8.68L36.8,23.723V28.27h7.75a13.715,13.715,0,0,1,1.246.614,4.1,4.1,0,0,1,.167,6.792,11.547,11.547,0,0,1-1.413.653H36.8V57.2l13.226-5.063Zm-15.5,10.953H19.235v3.513H34.528ZM36.8,34.056h7.336c.95,0,1.539-2.042.82-2.887a6.2,6.2,0,0,0-1.027-.627H36.8ZM34.528,36.33H19.235v2.48H34.528ZM16.962,44.6v-3.2a.668.668,0,0,0-.517-.31c-.982-.18-6.3-.058-7.125.315-1.389.625-.789,3.2.305,3.2Zm17.566-3.307H19.235V44.6H34.528Zm0,5.58H19.235v4.443L34.528,57.2Z" transform="translate(0 0)" fill="#fff"/>
          <path id="Trazado_1266554" data-name="Trazado 1266554" d="M24.768,19.949c7.715-.726,8.39,11.386.757,11.73-7.058.318-7.928-11.056-.757-11.73m-.426,2.471c-3.374.695-2.873,7.157,1.141,6.928,4.545-.259,4.225-8.034-1.141-6.928" transform="translate(-15.702 -15.801)" fill="#fff"/>
        </g>
      </g>
    </g>
  </g>
</svg>
