<svg xmlns="http://www.w3.org/2000/svg" xmlns:xlink="http://www.w3.org/1999/xlink" width="160.5" height="160.501" viewBox="0 0 160.5 160.501">
  <defs>
    <clipPath id="clip-path">
      <rect id="Rectángulo_455261" data-name="Rectángulo 455261" width="38.951" height="37.623" fill="#e6fffa"/>
    </clipPath>
    <clipPath id="clip-path-2">
      <rect id="Rectángulo_458407" data-name="Rectángulo 458407" width="84" height="83.994" fill="#5d0b80"/>
    </clipPath>
  </defs>
  <g id="Grupo_1206978" data-name="Grupo 1206978" transform="translate(-307.436 -10011.92)">
    <path id="Sustracción_130" data-name="Sustracción 130" d="M26.051,25.795H0V11.245H11.352V0h14.7V25.795Z" transform="translate(441.641 10038.471) rotate(-90)" fill="#e3a4fe" stroke="rgba(0,0,0,0)" stroke-miterlimit="10" stroke-width="1"/>
    <g id="Grupo_1178100" data-name="Grupo 1178100" transform="translate(307.436 10172.421) rotate(-90)">
      <path id="Trazado_998183" data-name="Trazado 998183" d="M0,0V37.623H25.58V24.056H38.951V0Z" transform="translate(0 0)" fill="#5d0b80"/>
      <g id="Grupo_1178099" data-name="Grupo 1178099" transform="translate(0 0)">
        <g id="Grupo_1178098" data-name="Grupo 1178098" clip-path="url(#clip-path)">
          <path id="Trazado_998184" data-name="Trazado 998184" d="M0,9.021a9.025,9.025,0,1,1,9.025,9.021A9.023,9.023,0,0,1,0,9.021" transform="translate(4.434 5.629)" fill="#e3a4fe"/>
        </g>
      </g>
    </g>
    <g id="Grupo_1177470" data-name="Grupo 1177470" transform="translate(308.059 10012.421)">
      <circle id="Elipse_13609" data-name="Elipse 13609" cx="79.688" cy="79.688" r="79.688" fill="#f0d5fe"/>
      <g id="Grupo_1099776" data-name="Grupo 1099776" transform="translate(33.723 33.96)">
        <g id="Grupo_1099618" data-name="Grupo 1099618" transform="translate(0 0)">
          <rect id="Rectángulo_401104" data-name="Rectángulo 401104" width="90.569" height="91.661" transform="translate(0)" fill="none"/>
        </g>
        <g id="Grupo_1207588" data-name="Grupo 1207588" transform="translate(3.654 4.495)">
          <g id="Grupo_1207587" data-name="Grupo 1207587" clip-path="url(#clip-path-2)">
            <path id="Trazado_1266597" data-name="Trazado 1266597" d="M31.688,6.736c.642.127,1.436.9,2.072.767,1.461-.309,4-3.814,5.9-3.237a66.489,66.489,0,0,1,6.741,6.86c.344,1.256-3.447,4.774-3.429,5.724a10.855,10.855,0,0,0,.763,1.918c1.024.654,5.861.2,6.476,1.593a76.455,76.455,0,0,1,.127,9.337c-.326,1.749-5.1,1.535-6.61,1.972-.388.75-1.144,2.416-.29,3.025.182.131,3.375-1.724,4.023-1.984C75.15,21.6,97.125,57.98,74.941,77.355,54.03,95.619,22.36,73.291,32.731,47.441c.26-.647,2.115-3.84,1.984-4.022-.61-.854-2.276-.1-3.026.29-.337,1.322-.407,5.962-1.587,6.484a76.822,76.822,0,0,1-9.337.127c-1.976-.369-1.306-6.055-2.087-6.681a8.175,8.175,0,0,0-1.983-.687c-.372.075-3.155,2.35-3.871,2.77-.4.234-1.062.749-1.5.708l-6.95-6.61c-.941-1.884,3.341-5.13,3.158-6.463a9.256,9.256,0,0,0-.721-1.612c-.711-.469-4.55-.5-5.7-.957a1.669,1.669,0,0,1-.832-.705c-.267-.6-.257-7.76-.149-8.847.286-2.859,5.959-1.437,6.886-2.848A4.655,4.655,0,0,0,7.524,16.7c-.338-1.624-4.282-4.145-3.045-6.226C5.853,9.62,9.725,4.6,10.823,4.265c1.97-.594,4.465,2.939,5.9,3.237a5.74,5.74,0,0,0,1.955-.7c.7-.55.249-6.328,2.086-6.682A77.711,77.711,0,0,1,30.1.252c1.179.52,1.252,5.163,1.586,6.485M28.3,2.949,22.17,2.938,21.117,8.673a26.914,26.914,0,0,1-4.008,1.9c-1.741.342-4.931-3.516-5.7-3.166L7.371,11.514l3.271,4.89A22.34,22.34,0,0,1,9.074,20.71c-.737,1.058-4.758,1.188-6.116,1.441v6.143l5.735,1.053a26.99,26.99,0,0,1,1.9,4.008c.337,1.714-3.467,5.042-3.165,5.7l4.106,4.033,4.891-3.271A25.292,25.292,0,0,1,20.873,41.5c.843.647,1.044,4.807,1.3,6l6.133-.012,1.056-5.732a34.7,34.7,0,0,1,4.233-1.942c1.42-.2,4.771,3.54,5.487,3.215l4.033-4.106-3.275-4.894a30.9,30.9,0,0,1,1.686-4.445c.677-.892,5.939-.968,6.02-1.444l-.017-6L41.785,21.1a33.845,33.845,0,0,1-1.895-4.014c-.329-1.674,2.816-3.984,3.166-5.7L38.95,7.351l-4.891,3.272a26.8,26.8,0,0,1-4.3-1.57c-1.048-.726-1.076-4.783-1.452-6.1M55.981,33.675A25.409,25.409,0,0,0,45.49,36.762c-.126,1.048,1.273,1.635.829,2.728a82.548,82.548,0,0,1-6.085,6.231c-1.829,1.472-1.634-.016-3.452-.25a25.407,25.407,0,0,0-3.087,10.491h4.1v2.818h-4.1A23.938,23.938,0,0,0,55.981,81.065v-4.1H58.8v4.1A23.944,23.944,0,0,0,81.085,58.779h-4.1V55.961h4.1A23.927,23.927,0,0,0,58.8,33.675v4.1H55.981Z" transform="translate(-0.038 -0.029)" fill="#5d0b80"/>
            <path id="Trazado_1266598" data-name="Trazado 1266598" d="M246.009,1.881c.863-.144,1.351-.821,2.3-.382a53,53,0,0,1,4.573,4.665c.257.875-.357,1.327-.469,2.118a3.493,3.493,0,0,1,1.267.4c.753.562.64,5.267.537,6.4-.123,1.36-.408,1.711-1.8,1.913.143.863.821,1.351.382,2.3a61.558,61.558,0,0,1-4.486,4.486c-.946.439-1.434-.238-2.3-.382-.141.829-.293,1.534-1.212,1.737a33.991,33.991,0,0,1-6.075.039c-1.082-.169-1.272-.793-1.429-1.776-.863.144-1.351.821-2.3.382A61.558,61.558,0,0,1,230.51,19.3c-.439-.946.238-1.434.382-2.3-.829-.141-1.533-.293-1.737-1.212a33.99,33.99,0,0,1-.039-6.075c.169-1.082.793-1.272,1.776-1.429-.143-.863-.821-1.351-.382-2.3A61.511,61.511,0,0,1,235,1.5c.946-.439,1.434.238,2.3.382.141-.829.293-1.534,1.212-1.737a34.238,34.238,0,0,1,6.292,0c.919.2,1.071.908,1.212,1.737m-2.59,1.05h-3.537c-.206.948-.292,2.572-1.492,2.751-1.022.152-1.758-1.257-2.624-.866a19.448,19.448,0,0,0-2.029,2.113c-.05.779.846,1.334.953,2.058.273,1.841-2.683,1.628-2.788,2.017l.027,3.419c.952.033,2.6.363,2.765,1.478.152,1.022-1.257,1.758-.866,2.624a19.449,19.449,0,0,0,2.113,2.029c.779.05,1.334-.846,2.057-.953,1.812-.268,1.759,2.746,2.008,2.787l3.414-.04c.206-.948.292-2.572,1.492-2.751,1.022-.152,1.758,1.257,2.624.866a19.42,19.42,0,0,0,2.029-2.112c.05-.779-.846-1.334-.953-2.058-.273-1.841,2.683-1.628,2.788-2.017l-.041-3.405c-.948-.206-2.572-.292-2.751-1.492-.152-1.022,1.257-1.758.866-2.624a19.4,19.4,0,0,0-2.113-2.029c-.779-.05-1.334.846-2.057.953-1.482.22-1.7-1.7-1.885-2.747" transform="translate(-170.338 0)" fill="#5d0b80"/>
            <path id="Trazado_1266599" data-name="Trazado 1266599" d="M17.01,230.881c.863-.144,1.351-.821,2.3-.382a52.967,52.967,0,0,1,4.573,4.665c.257.875-.357,1.327-.469,2.118a3.5,3.5,0,0,1,1.267.4c.753.562.64,5.267.537,6.4-.123,1.36-.407,1.711-1.8,1.913.144.863.821,1.351.382,2.3a61.61,61.61,0,0,1-4.486,4.486c-.946.439-1.434-.238-2.3-.382-.141.829-.292,1.534-1.212,1.737a33.965,33.965,0,0,1-6.075.039c-1.082-.169-1.272-.793-1.429-1.776-.863.144-1.351.821-2.3.382A61.562,61.562,0,0,1,1.511,248.3c-.439-.946.238-1.434.382-2.3-.829-.141-1.534-.293-1.737-1.212a33.961,33.961,0,0,1-.038-6.074c.249-1.587,1.666-1.03,1.777-1.56-.255-.782-.789-1.293-.383-2.167A61.514,61.514,0,0,1,6,230.5c.946-.439,1.434.239,2.3.382.141-.829.293-1.534,1.212-1.737a34.239,34.239,0,0,1,6.292,0c.92.2,1.071.908,1.212,1.737m-2.575,1.036-3.551.014c-.206.948-.292,2.572-1.492,2.751-1.022.152-1.758-1.257-2.624-.866a19.423,19.423,0,0,0-2.029,2.113c-.05.779.846,1.334.953,2.058C5.959,239.8,2.945,239.746,2.9,240l.04,3.414c.947.206,2.573.293,2.751,1.492.155,1.046-1.3,1.781-.912,2.829.051.137,1.918,1.486,2.159,1.825.793.2,1.713-1.573,2.992-.715.854.572.734,2.456,1.083,2.551l3.405-.041c.206-.948.292-2.572,1.492-2.751,1.022-.152,1.758,1.257,2.624.866a19.444,19.444,0,0,0,2.029-2.112c.05-.779-.846-1.334-.953-2.058-.273-1.841,2.683-1.628,2.788-2.017l-.027-3.419c-.952-.033-2.6-.364-2.765-1.478-.152-1.022,1.257-1.758.866-2.624a19.4,19.4,0,0,0-2.112-2.029c-.779-.05-1.334.846-2.058.953-1.393.206-1.852-1.681-1.871-2.761" transform="translate(0 -170.338)" fill="#5d0b80"/>
            <path id="Trazado_1266600" data-name="Trazado 1266600" d="M186.828.346V3.164H175.172l-2.332,3.351-2.392-1.426c.614-.7,2.781-4.743,3.443-4.743Z" transform="translate(-126.786 -0.257)" fill="#5d0b80"/>
            <path id="Trazado_1266601" data-name="Trazado 1266601" d="M105.043,306.617l2.33-3.351,2.394,1.426c-.614.7-2.781,4.743-3.443,4.743H93.388v-2.818Z" transform="translate(-69.465 -225.58)" fill="#5d0b80"/>
            <path id="Trazado_1266602" data-name="Trazado 1266602" d="M221.206,158.346v15.37h9.734v2.818H219.285a6.006,6.006,0,0,1-.9-.9V158.346Z" transform="translate(-162.445 -117.783)" fill="#5d0b80"/>
            <path id="Trazado_1266603" data-name="Trazado 1266603" d="M75.546,54h6.02c.282,0,1.287,1.312.784,1.8-2.237,4.355-3.867,9.045-6.072,13.408-.436.862-1.213,3.031-2.357,2.928a1.733,1.733,0,0,1-1.143-.892c-.523-1.725.213-6.032-.036-8.161-.044-.373-.032-.659-.4-.884H66.452c-.257,0-1.144-1.3-.731-1.732l7.048-15.518c.5-1.324,2.777-.576,2.777.472Zm3.074,2.818H73.881a4.327,4.327,0,0,1-1.153-.9V52.206L69.4,59.635H74.65a2.568,2.568,0,0,1,.842,1.207l.307,2.89Z" transform="translate(-48.806 -32.905)" fill="#5d0b80"/>
            <path id="Trazado_1266604" data-name="Trazado 1266604" d="M96.2,22.341c-.1.633.243,2.37-.241,2.707l-2.579.113v-2.82Z" transform="translate(-69.462 -16.618)" fill="#5d0b80"/>
            <path id="Trazado_1266605" data-name="Trazado 1266605" d="M25.2,93.341c-.1.633.243,2.37-.241,2.707l-2.579.113v-2.82Z" transform="translate(-16.649 -69.43)" fill="#5d0b80"/>
            <path id="Trazado_1266606" data-name="Trazado 1266606" d="M166.2,93.341v2.82c-.633-.1-2.37.243-2.707-.241l-.113-2.579Z" transform="translate(-121.53 -69.43)" fill="#5d0b80"/>
            <path id="Trazado_1266607" data-name="Trazado 1266607" d="M96.2,166.162h-2.82v-2.82l2.579.113c.485.338.146,2.075.241,2.707" transform="translate(-69.462 -121.5)" fill="#5d0b80"/>
            <path id="Trazado_1266608" data-name="Trazado 1266608" d="M143.142,141.419l1.9,1.9L143.363,145l-1.9-1.709Z" transform="translate(-105.223 -105.192)" fill="#5d0b80"/>
            <path id="Trazado_1266609" data-name="Trazado 1266609" d="M144.116,41.946c.358.325,1.085.7.876,1.212l-1.851,1.7-1.682-1.868,1.691-1.672c.622-.22.672.365.965.63" transform="translate(-105.223 -30.696)" fill="#5d0b80"/>
            <path id="Trazado_1266610" data-name="Trazado 1266610" d="M42.769,144.925,41.458,143.1l1.868-1.682,1.682,1.867c-.525.495-1.469,1.979-2.239,1.638" transform="translate(-30.838 -105.193)" fill="#5d0b80"/>
            <rect id="Rectángulo_458406" data-name="Rectángulo 458406" width="2.513" height="2.513" transform="matrix(0.669, -0.743, 0.743, 0.669, 10.621, 12.477)" fill="#5d0b80"/>
            <path id="Trazado_1266611" data-name="Trazado 1266611" d="M261.536,27.361c7.371-1.133,8.918,10.342,1.452,11.189-7,.794-8.7-10.075-1.452-11.189m.257,2.81c-3.418.662-2.62,5.992.938,5.575,3.7-.434,2.9-6.319-.938-5.575" transform="translate(-191.059 -20.293)" fill="#5d0b80"/>
            <path id="Trazado_1266612" data-name="Trazado 1266612" d="M32.516,256.363c7.321-1.126,8.916,10.344,1.452,11.189-7.126.807-8.611-10.088-1.452-11.189m.257,2.81c-3.418.662-2.62,5.992.938,5.575,3.7-.434,2.9-6.319-.938-5.575" transform="translate(-20.7 -190.634)" fill="#5d0b80"/>
          </g>
        </g>
      </g>
    </g>
  </g>
</svg>
