<svg xmlns="http://www.w3.org/2000/svg" xmlns:xlink="http://www.w3.org/1999/xlink" width="160.5" height="160.501" viewBox="0 0 160.5 160.501">
  <defs>
    <clipPath id="clip-path">
      <rect id="Rectángulo_455261" data-name="Rectángulo 455261" width="38.951" height="37.623" fill="#e6fffa"/>
    </clipPath>
    <clipPath id="clip-path-2">
      <rect id="Rectángulo_458418" data-name="Rectángulo 458418" width="84" height="83.914" fill="#5d0b80"/>
    </clipPath>
  </defs>
  <g id="Grupo_1206977" data-name="Grupo 1206977" transform="translate(-307.436 -10011.92)">
    <path id="Sustracción_130" data-name="Sustracción 130" d="M26.051,25.795H0V11.245H11.352V0h14.7V25.795Z" transform="translate(441.641 10038.471) rotate(-90)" fill="#e3a4fe" stroke="rgba(0,0,0,0)" stroke-miterlimit="10" stroke-width="1"/>
    <g id="Grupo_1178100" data-name="Grupo 1178100" transform="translate(307.436 10172.421) rotate(-90)">
      <path id="Trazado_998183" data-name="Trazado 998183" d="M0,0V37.623H25.58V24.056H38.951V0Z" transform="translate(0 0)" fill="#5d0b80"/>
      <g id="Grupo_1178099" data-name="Grupo 1178099" transform="translate(0 0)">
        <g id="Grupo_1178098" data-name="Grupo 1178098" clip-path="url(#clip-path)">
          <path id="Trazado_998184" data-name="Trazado 998184" d="M0,9.021a9.025,9.025,0,1,1,9.025,9.021A9.023,9.023,0,0,1,0,9.021" transform="translate(4.434 5.629)" fill="#e3a4fe"/>
        </g>
      </g>
    </g>
    <g id="Grupo_1177470" data-name="Grupo 1177470" transform="translate(308.059 10012.421)">
      <circle id="Elipse_13609" data-name="Elipse 13609" cx="79.688" cy="79.688" r="79.688" fill="#f0d5fe"/>
      <g id="Grupo_1099776" data-name="Grupo 1099776" transform="translate(33.723 33.96)">
        <g id="Grupo_1099618" data-name="Grupo 1099618" transform="translate(0 0)">
          <rect id="Rectángulo_401104" data-name="Rectángulo 401104" width="90.569" height="91.661" transform="translate(0)" fill="none"/>
        </g>
        <g id="Grupo_1207590" data-name="Grupo 1207590" transform="translate(3.654 4.412)">
          <g id="Grupo_1207589" data-name="Grupo 1207589" clip-path="url(#clip-path-2)">
            <path id="Trazado_1266613" data-name="Trazado 1266613" d="M1.16,35.293a2.592,2.592,0,0,1-.677-.8L.291,2.1C.447.755,1.143.356,2.382.243A97.289,97.289,0,0,1,16.217.25a1.866,1.866,0,0,1,1.228.5l7.169,7.389.108,13.832C36.462,20.721,43,35.626,33.857,43.315a12.111,12.111,0,0,1-19.851-7.791l-2.853-.232V48.864H17.2l3.328,3.208c.083-.944-.344-2.41.6-2.976l16-.179,7.45,7.108.005,27.138-1.716.752L1.517,83.792A1.942,1.942,0,0,1,.285,81.817C1,71.807-.625,60.566.285,50.7c.042-.455.375-1.839.875-1.839H8.439V35.293ZM15.1,2.969H3.381l-.37.37V32.579H13.744c.621-1.227.757-2.746,1.388-4.041,1.471-3.019,4.047-4.625,6.839-6.239L22.01,9.878H16.458A3.07,3.07,0,0,1,15.1,8.521Zm4.687,4.193c.3-.263-1.72-2.27-1.972-1.972l0,1.974Zm4.383,17.584C13.192,26.24,14.534,44.483,26.792,43.4c12.349-1.087,11-20.51-2.621-18.657M15.1,51.578H3.01V80.818l.37.37H22.01V58.241h-5.8a2.409,2.409,0,0,1-1.11-1.11Zm20.233,0H23.244c.133.966-.213,2.395.05,3.281.139.47,1.43,1.327,1.43,1.778V81.188H42V58.241H36.445a2.408,2.408,0,0,1-1.11-1.11ZM19.789,55.524l-1.972-1.971,0,1.975Zm20.233,0-1.972-1.971,0,1.975Z" transform="translate(0 0)" fill="#5d0b80"/>
            <path id="Trazado_1266614" data-name="Trazado 1266614" d="M237.943,21.1l-.742,2.259c.509.838,1.96,1.488,1.6,2.648a43.624,43.624,0,0,1-4.347,4.554c-1.514.7-2.067-.814-3.077-1.528l-2.306.957c-.219.81.35,2.616-.534,3.045a41.71,41.71,0,0,1-6.737.073c-1.12-.329-.488-2.239-.708-3.118l-2.061-.968c-.447.013-1.35,2.163-3.15,1.621a48.31,48.31,0,0,1-4.243-4.152c-.834-1.811,1.527-2.864,1.54-3.322l-.968-2.061c-.81-.218-2.615.35-3.045-.534a41.714,41.714,0,0,1-.073-6.737c.329-1.119,2.24-.488,3.118-.708l.784-2.3c-.1-.972-1.955-1.208-1.435-2.915a45.819,45.819,0,0,1,4.17-4.23c1.809-1.074,2.409,1.458,3.492,1.305.472-.067,1.276-.69,1.879-.738.21-1.124-.482-2.679.838-3.233a24.091,24.091,0,0,1,5.928-.135c2.016.444.593,2.611,1.518,3.417a5.092,5.092,0,0,0,1.937.693c.658-.167,1.366-1.945,2.652-1.592a34.937,34.937,0,0,1,4.748,4.66c.6,1.5-1.652,2.185-1.513,3.193a4.932,4.932,0,0,0,.947,1.794c.957.478,2.428-.5,3.024.924a20.349,20.349,0,0,1,0,6.287c-.552,1.318-2.1.629-3.233.838m.708-2.746-.109-2.484c-.394-.567-1.884.167-2.621-.586a17.9,17.9,0,0,1-1.175-3.02c-.338-.845-1.13-1.014-.6-2.235.7-1.6,2.479-1.006-.342-3.255-.527-.092-1.228,1.543-2.417,1.461-.6-.041-1.067-.638-1.625-.858-.72-.284-2.82-.808-3.081-1.361l-.156-2.064c-.235-.731-2.045-.3-2.682-.4.34,2.959-.475,2.5-2.391,3.408-.941.447-2.307,1.481-3.291,1.181-1.583-.484-1.122-2.749-3.428.258-.092.528,1.541,1.224,1.46,2.415-1.4,2.14-.935,5.662-4.44,4.829v2.717c.826.019,1.99-.2,2.586.5.453,2.625,3.389,4.755.381,6.779l1.846,1.846c.624-.566,1.25-1.539,2.2-1.473,2.158,1.476,5.842.891,5.075,4.44h2.717c-.783-3.568,2.5-2.884,4.626-4.4,1.482-.255,2.043,1.707,2.773,1.331.388-.2,1.074-1.18,1.465-1.529.092-.526-1.527-1.211-1.459-2.415,1.5-2.2,1.08-5.89,4.685-5.076" transform="translate(-157.42 -0.576)" fill="#5d0b80"/>
            <path id="Trazado_1266615" data-name="Trazado 1266615" d="M227.428,219.857c21.64-2.6,22.526,29.4,2.387,29.55-18.4.135-19.87-27.452-2.387-29.55m-.005,2.709c-4.982.674-9.309,5.783-9.78,10.7-.989,10.319,11.1,17.375,19.334,10.944,10.065-7.86,3.465-23.406-9.553-21.644" transform="translate(-162.045 -165.496)" fill="#5d0b80"/>
            <path id="Trazado_1266616" data-name="Trazado 1266616" d="M121.611,46.376h-9.993a2.2,2.2,0,0,1-.49-.5,42.286,42.286,0,0,1-.121-6.529c.052-.271.426-.87.61-.87h9.993c.092-1.531-.625-4.364,1.73-4.095l8.613,6.952a1.486,1.486,0,0,1,.52,1.206c-.113,1.066-7.843,6.83-9.13,7.93-2.359.263-1.641-2.561-1.733-4.1m-8.143-2.714h9.746c.946,0,1.18,1.809,1.232,2.466l4.308-3.6c.107-.51-3.73-3.425-4.428-3.8.039.622.048,1.943-.66,2.18l-9.968.148Z" transform="translate(-83.562 -25.888)" fill="#5d0b80"/>
            <path id="Trazado_1266617" data-name="Trazado 1266617" d="M253.711,145.73c1.539.033,4.618-.5,4.094,1.982-2.29,2.465-4.346,5.795-6.681,8.138-.818.821-1.435,1.148-2.451.224a73.438,73.438,0,0,1-6.311-7.506c-1.952-2.822,1.27-3.041,3.454-2.838v-7.279a2.2,2.2,0,0,1,.5-.49,42.291,42.291,0,0,1,6.529-.121c.271.052.87.426.87.61Zm-2.467-5.182h-2.714v6.785a3.362,3.362,0,0,1-.738.989c-.486.236-1.985-.13-1.727.488l3.824,4.321,3.575-4.32c.257-.6-1.157-.3-1.551-.418a1.714,1.714,0,0,1-.668-.566Z" transform="translate(-182.105 -103.775)" fill="#5d0b80"/>
            <rect id="Rectángulo_458408" data-name="Rectángulo 458408" width="13.571" height="2.714" transform="translate(5.725 59.474)" fill="#5d0b80"/>
            <rect id="Rectángulo_458409" data-name="Rectángulo 458409" width="13.571" height="2.714" transform="translate(5.725 64.903)" fill="#5d0b80"/>
            <rect id="Rectángulo_458410" data-name="Rectángulo 458410" width="13.571" height="2.714" transform="translate(5.725 70.331)" fill="#5d0b80"/>
            <rect id="Rectángulo_458411" data-name="Rectángulo 458411" width="4.195" height="2.467" transform="translate(8.439 54.293)" fill="#5d0b80"/>
            <rect id="Rectángulo_458412" data-name="Rectángulo 458412" width="13.571" height="2.714" transform="translate(25.958 64.903)" fill="#5d0b80"/>
            <rect id="Rectángulo_458413" data-name="Rectángulo 458413" width="13.571" height="2.714" transform="translate(25.958 70.331)" fill="#5d0b80"/>
            <path id="Trazado_1266618" data-name="Trazado 1266618" d="M118.772,243.749H105.2v-2.714h13.2c.7.651.259,1.832.37,2.714" transform="translate(-79.243 -181.561)" fill="#5d0b80"/>
            <rect id="Rectángulo_458414" data-name="Rectángulo 458414" width="3.948" height="2.467" transform="translate(28.672 54.293)" fill="#5d0b80"/>
            <rect id="Rectángulo_458415" data-name="Rectángulo 458415" width="13.571" height="2.714" transform="translate(5.725 16.541)" fill="#5d0b80"/>
            <rect id="Rectángulo_458416" data-name="Rectángulo 458416" width="13.571" height="2.714" transform="translate(5.725 11.112)" fill="#5d0b80"/>
            <rect id="Rectángulo_458417" data-name="Rectángulo 458417" width="10.857" height="2.714" transform="translate(5.725 21.969)" fill="#5d0b80"/>
            <path id="Trazado_1266619" data-name="Trazado 1266619" d="M38.4,25.749H34.2V23.035h3.825c.7.651.259,1.832.37,2.714" transform="translate(-25.762 -17.351)" fill="#5d0b80"/>
            <path id="Trazado_1266620" data-name="Trazado 1266620" d="M102.915,116.035v3.948H108.1V122.7h-7.279a4.121,4.121,0,0,1-.617-.617v-6.045Z" transform="translate(-75.477 -87.404)" fill="#5d0b80"/>
            <path id="Trazado_1266621" data-name="Trazado 1266621" d="M248.887,34.056c9.394-1.231,12.718,12.289,4.177,15.526-11.61,4.4-15.8-14-4.177-15.526m4.907,4.218c-4.747-4.747-12.357,1.977-7.937,7.32,4.666,5.639,13.183-2.073,7.937-7.32" transform="translate(-182.276 -25.593)" fill="#5d0b80"/>
            <path id="Trazado_1266622" data-name="Trazado 1266622" d="M238.944,252.845l5.4-5.611a1.5,1.5,0,0,1,1.687-.018c.264.153,4.163,4.054,4.317,4.317.53.909.171,1.38-.378,2.116a105.474,105.474,0,0,1-10.239,10.239c-.339.258-.644.6-1.116.6-.55-.018-.856-.412-1.24-.718a62.714,62.714,0,0,1-6.413-6.415c-.253-.33-.584-.608-.562-1.078.049-.528,4.524-5.057,5.125-5.245,1.491-.466,2.376,2.279,3.414,1.818m6.338-2.651c-1.335.967-5.4,6.079-6.68,6.162-1.313.085-2.308-2.059-2.91-1.954l-1.867,2.046,4.76,4.581,8.789-8.742Z" transform="translate(-173.553 -186.027)" fill="#5d0b80"/>
          </g>
        </g>
      </g>
    </g>
  </g>
</svg>
