<svg xmlns="http://www.w3.org/2000/svg" xmlns:xlink="http://www.w3.org/1999/xlink" width="396" height="189" viewBox="0 0 396 189">
  <defs>
    <clipPath id="clip-path">
      <rect id="Rectángulo_458434" data-name="Rectángulo 458434" width="207.25" height="181.689" fill="none"/>
    </clipPath>
    <clipPath id="clip-path-2">
      <rect id="Rectángulo_458443" data-name="Rectángulo 458443" width="126.76" height="181.689" fill="none"/>
    </clipPath>
    <clipPath id="clip-path-4">
      <rect id="Rectángulo_458441" data-name="Rectángulo 458441" width="49.035" height="43.143" fill="none"/>
    </clipPath>
  </defs>
  <g id="Grupo_1207600" data-name="Grupo 1207600" transform="translate(-185.711 -6772)">
    <rect id="Rectángulo_457844" data-name="Rectángulo 457844" width="396" height="189" transform="translate(185.711 6772)" fill="#fbf1ff"/>
    <g id="Grupo_1207592" data-name="Grupo 1207592" transform="translate(210.75 6779.311)">
      <g id="Grupo_1207591" data-name="Grupo 1207591" clip-path="url(#clip-path)">
        <path id="Trazado_1266623" data-name="Trazado 1266623" d="M50.178,55.561,38.654,62.63a3.618,3.618,0,0,1-4.972-1.165A14.788,14.788,0,0,1,31.7,51.226l7.831-4.791,1.309,3.955L46.06,45.5Z" fill="#e9ae8f"/>
        <path id="Trazado_1266624" data-name="Trazado 1266624" d="M168.572,82.485H.555a.556.556,0,1,1,0-1.111H168.572a.556.556,0,0,1,0,1.111" fill="#e0e0e0"/>
        <path id="Trazado_1266625" data-name="Trazado 1266625" d="M168.572,105.923H.555a.556.556,0,1,1,0-1.111H168.572a.556.556,0,0,1,0,1.111" fill="#e0e0e0"/>
        <path id="Trazado_1266626" data-name="Trazado 1266626" d="M168.572,129.361H.555a.555.555,0,1,1,0-1.111H168.572a.555.555,0,0,1,0,1.111" fill="#e0e0e0"/>
        <path id="Trazado_1266627" data-name="Trazado 1266627" d="M168.572,152.8H.555a.556.556,0,1,1,0-1.111H168.572a.556.556,0,0,1,0,1.111" fill="#e0e0e0"/>
        <path id="Trazado_1266628" data-name="Trazado 1266628" d="M4.684,178.757a.555.555,0,0,1-.556-.555V78.492a.556.556,0,0,1,1.111,0V178.2a.554.554,0,0,1-.555.555" fill="#e0e0e0"/>
        <path id="Trazado_1266629" data-name="Trazado 1266629" d="M168.572,176.238H.555a.556.556,0,1,1,0-1.111H168.572a.556.556,0,0,1,0,1.111" fill="#e0e0e0"/>
        <path id="Trazado_1266630" data-name="Trazado 1266630" d="M34.406,178.757a.554.554,0,0,1-.555-.555v-2.519a.556.556,0,1,1,1.111,0V178.2a.555.555,0,0,1-.556.555" fill="#e0e0e0"/>
        <path id="Trazado_1266631" data-name="Trazado 1266631" d="M67.019,178.757a.555.555,0,0,1-.556-.555v-2.519a.556.556,0,1,1,1.112,0V178.2a.555.555,0,0,1-.556.555" fill="#e0e0e0"/>
        <path id="Trazado_1266632" data-name="Trazado 1266632" d="M99.631,178.757a.554.554,0,0,1-.555-.555v-2.519a.556.556,0,1,1,1.111,0V178.2a.555.555,0,0,1-.556.555" fill="#e0e0e0"/>
        <path id="Trazado_1266633" data-name="Trazado 1266633" d="M132.244,178.757a.555.555,0,0,1-.556-.555v-2.519a.556.556,0,1,1,1.112,0V178.2a.555.555,0,0,1-.556.555" fill="#e0e0e0"/>
        <path id="Trazado_1266634" data-name="Trazado 1266634" d="M164.856,178.757a.555.555,0,0,1-.556-.555v-2.519a.555.555,0,1,1,1.111,0V178.2a.554.554,0,0,1-.555.555" fill="#e0e0e0"/>
        <path id="Trazado_1266635" data-name="Trazado 1266635" d="M161.37,105.367l-3.4-5.881-1.593,2.758L103.443,115.22l-1.2-2.075-1.264,2.189-56.276-8.441-2.578-4.466-3.4,5.88h1.944L14.038,150l-.938-1.625-3.4,5.881h6.79l-1.831-3.172,27.331-42.774h3.528l-.106-.184,54.968,8.246-1.534,2.657h6.79l-1.619-2.8,51.592-12.645-1.033,1.789Z" fill="#fbce73"/>
        <path id="Trazado_1266636" data-name="Trazado 1266636" d="M144.912,89.769a2.056,2.056,0,0,0-1.535,3.433l-27.411,42.86a2.024,2.024,0,0,0-2.648,1.828L57.694,149.553a2.052,2.052,0,0,0-3.793,1.532L22.725,170.671a2.142,2.142,0,1,0,.589.942L54.49,152.027a2.049,2.049,0,0,0,3.432-1.386l55.623-11.664a2.057,2.057,0,1,0,3.357-2.318L144.314,93.8a2.06,2.06,0,1,0,.6-4.03" fill="#e3a4fe"/>
        <rect id="Rectángulo_458419" data-name="Rectángulo 458419" width="79.423" height="44.172" transform="translate(85.345 44.069)" fill="#5d0b80"/>
        <path id="Trazado_1266637" data-name="Trazado 1266637" d="M156.837,80.433H93.118V51.519h63.719Zm-63.164-.556h62.608v-27.8H93.673Z" fill="#fff"/>
        <rect id="Rectángulo_458420" data-name="Rectángulo 458420" width="63.164" height="0.556" transform="translate(93.395 70.424)" fill="#fff"/>
        <rect id="Rectángulo_458421" data-name="Rectángulo 458421" width="63.164" height="0.556" transform="translate(93.395 60.971)" fill="#fff"/>
        <rect id="Rectángulo_458422" data-name="Rectángulo 458422" width="0.556" height="28.358" transform="translate(143.648 51.797)" fill="#fff"/>
        <rect id="Rectángulo_458423" data-name="Rectángulo 458423" width="0.555" height="28.358" transform="translate(131.016 51.797)" fill="#fff"/>
        <rect id="Rectángulo_458424" data-name="Rectángulo 458424" width="0.556" height="28.358" transform="translate(118.383 51.797)" fill="#fff"/>
        <rect id="Rectángulo_458425" data-name="Rectángulo 458425" width="0.556" height="28.358" transform="translate(105.75 51.797)" fill="#fff"/>
        <path id="Trazado_1266638" data-name="Trazado 1266638" d="M97.592,57.12a1.484,1.484,0,0,1-.194.845.807.807,0,0,1-1.212.006,1.4,1.4,0,0,1-.2-.807v-.433a1.454,1.454,0,0,1,.194-.835.822.822,0,0,1,1.215-.009,1.4,1.4,0,0,1,.2.813Zm-.324-.443a1.19,1.19,0,0,0-.116-.6.4.4,0,0,0-.365-.188.394.394,0,0,0-.363.188,1.148,1.148,0,0,0-.117.575v.519a1.208,1.208,0,0,0,.12.61.4.4,0,0,0,.363.2.39.39,0,0,0,.356-.186,1.164,1.164,0,0,0,.122-.584Z" fill="#fff"/>
        <path id="Trazado_1266639" data-name="Trazado 1266639" d="M100.3,57.12a1.484,1.484,0,0,1-.194.845.807.807,0,0,1-1.212.006,1.411,1.411,0,0,1-.2-.807v-.433a1.445,1.445,0,0,1,.195-.835.82.82,0,0,1,1.214-.009,1.4,1.4,0,0,1,.2.813Zm-.324-.443a1.192,1.192,0,0,0-.115-.6.4.4,0,0,0-.366-.188.394.394,0,0,0-.363.188,1.159,1.159,0,0,0-.117.575v.519a1.208,1.208,0,0,0,.12.61.4.4,0,0,0,.363.2.39.39,0,0,0,.356-.186,1.153,1.153,0,0,0,.122-.584Z" fill="#fff"/>
        <path id="Trazado_1266640" data-name="Trazado 1266640" d="M103,57.12a1.484,1.484,0,0,1-.194.845.807.807,0,0,1-1.212.006,1.411,1.411,0,0,1-.2-.807v-.433a1.445,1.445,0,0,1,.195-.835.82.82,0,0,1,1.214-.009,1.4,1.4,0,0,1,.2.813Zm-.324-.443a1.192,1.192,0,0,0-.115-.6.4.4,0,0,0-.366-.188.394.394,0,0,0-.363.188,1.159,1.159,0,0,0-.117.575v.519a1.208,1.208,0,0,0,.12.61.4.4,0,0,0,.363.2.39.39,0,0,0,.356-.186,1.153,1.153,0,0,0,.122-.584Z" fill="#fff"/>
        <path id="Trazado_1266641" data-name="Trazado 1266641" d="M97.592,66.164a1.484,1.484,0,0,1-.194.845.807.807,0,0,1-1.212.006,1.4,1.4,0,0,1-.2-.807v-.433a1.454,1.454,0,0,1,.194-.835.822.822,0,0,1,1.215-.009,1.4,1.4,0,0,1,.2.813Zm-.324-.443a1.19,1.19,0,0,0-.116-.6.447.447,0,0,0-.728,0,1.155,1.155,0,0,0-.117.576v.519a1.208,1.208,0,0,0,.12.61.4.4,0,0,0,.363.2.39.39,0,0,0,.356-.186,1.165,1.165,0,0,0,.122-.585Z" fill="#fff"/>
        <path id="Trazado_1266642" data-name="Trazado 1266642" d="M100.3,66.164a1.484,1.484,0,0,1-.194.845.807.807,0,0,1-1.212.006,1.411,1.411,0,0,1-.2-.807v-.433a1.445,1.445,0,0,1,.195-.835.82.82,0,0,1,1.214-.009,1.4,1.4,0,0,1,.2.813Zm-.324-.443a1.192,1.192,0,0,0-.115-.6.4.4,0,0,0-.366-.188.4.4,0,0,0-.363.187,1.166,1.166,0,0,0-.117.576v.519a1.208,1.208,0,0,0,.12.61.4.4,0,0,0,.363.2.39.39,0,0,0,.356-.186,1.154,1.154,0,0,0,.122-.585Z" fill="#fff"/>
        <path id="Trazado_1266643" data-name="Trazado 1266643" d="M103,66.164a1.484,1.484,0,0,1-.194.845.807.807,0,0,1-1.212.006,1.411,1.411,0,0,1-.2-.807v-.433a1.445,1.445,0,0,1,.195-.835.82.82,0,0,1,1.214-.009,1.4,1.4,0,0,1,.2.813Zm-.324-.443a1.192,1.192,0,0,0-.115-.6.448.448,0,0,0-.729,0,1.166,1.166,0,0,0-.117.576v.519a1.208,1.208,0,0,0,.12.61.4.4,0,0,0,.363.2.39.39,0,0,0,.356-.186,1.154,1.154,0,0,0,.122-.585Z" fill="#fff"/>
        <path id="Trazado_1266644" data-name="Trazado 1266644" d="M110.481,75.746a1.479,1.479,0,0,1-.194.845.808.808,0,0,1-1.212.007,1.405,1.405,0,0,1-.2-.807v-.434a1.445,1.445,0,0,1,.195-.835.821.821,0,0,1,1.214-.008,1.391,1.391,0,0,1,.2.812Zm-.324-.443a1.182,1.182,0,0,0-.116-.6.448.448,0,0,0-.728,0,1.17,1.17,0,0,0-.117.577V75.8a1.21,1.21,0,0,0,.12.61.4.4,0,0,0,.363.2.389.389,0,0,0,.356-.185,1.155,1.155,0,0,0,.122-.585Z" fill="#fff"/>
        <path id="Trazado_1266645" data-name="Trazado 1266645" d="M113.187,75.746a1.479,1.479,0,0,1-.194.845.808.808,0,0,1-1.212.007,1.405,1.405,0,0,1-.2-.807v-.434a1.445,1.445,0,0,1,.195-.835.821.821,0,0,1,1.214-.008,1.391,1.391,0,0,1,.2.812Zm-.324-.443a1.182,1.182,0,0,0-.116-.6.448.448,0,0,0-.728,0,1.159,1.159,0,0,0-.117.577V75.8a1.21,1.21,0,0,0,.12.61.4.4,0,0,0,.363.2.389.389,0,0,0,.356-.185,1.154,1.154,0,0,0,.122-.585Z" fill="#fff"/>
        <path id="Trazado_1266646" data-name="Trazado 1266646" d="M115.894,75.746a1.487,1.487,0,0,1-.194.845.808.808,0,0,1-1.212.007,1.39,1.39,0,0,1-.2-.807v-.434a1.454,1.454,0,0,1,.194-.835.821.821,0,0,1,1.214-.008,1.383,1.383,0,0,1,.2.812Zm-.324-.443a1.17,1.17,0,0,0-.117-.6.447.447,0,0,0-.727,0,1.147,1.147,0,0,0-.118.577V75.8a1.2,1.2,0,0,0,.121.61.4.4,0,0,0,.362.2.391.391,0,0,0,.357-.185,1.176,1.176,0,0,0,.122-.585Z" fill="#fff"/>
        <path id="Trazado_1266647" data-name="Trazado 1266647" d="M123.076,66.342a1.493,1.493,0,0,1-.194.846.807.807,0,0,1-1.212.006,1.4,1.4,0,0,1-.2-.807v-.434a1.462,1.462,0,0,1,.194-.835.823.823,0,0,1,1.215-.008,1.386,1.386,0,0,1,.2.813Zm-.324-.443a1.193,1.193,0,0,0-.116-.6.4.4,0,0,0-.365-.187.391.391,0,0,0-.363.187,1.143,1.143,0,0,0-.118.576v.519a1.2,1.2,0,0,0,.12.61.4.4,0,0,0,.363.2.392.392,0,0,0,.357-.186,1.169,1.169,0,0,0,.122-.584Z" fill="#fff"/>
        <path id="Trazado_1266648" data-name="Trazado 1266648" d="M125.782,66.342a1.485,1.485,0,0,1-.194.846.807.807,0,0,1-1.212.006,1.405,1.405,0,0,1-.2-.807v-.434a1.454,1.454,0,0,1,.194-.835.823.823,0,0,1,1.215-.008,1.4,1.4,0,0,1,.2.813Zm-.324-.443a1.193,1.193,0,0,0-.116-.6.4.4,0,0,0-.365-.187.393.393,0,0,0-.363.187,1.155,1.155,0,0,0-.117.576v.519a1.205,1.205,0,0,0,.12.61.4.4,0,0,0,.363.2.39.39,0,0,0,.356-.186,1.158,1.158,0,0,0,.122-.584Z" fill="#fff"/>
        <path id="Trazado_1266649" data-name="Trazado 1266649" d="M128.488,66.342a1.485,1.485,0,0,1-.194.846.807.807,0,0,1-1.212.006,1.413,1.413,0,0,1-.2-.807v-.434a1.454,1.454,0,0,1,.194-.835.823.823,0,0,1,1.215-.008,1.4,1.4,0,0,1,.2.813Zm-.324-.443a1.205,1.205,0,0,0-.115-.6.4.4,0,0,0-.366-.187.393.393,0,0,0-.363.187,1.155,1.155,0,0,0-.117.576v.519a1.2,1.2,0,0,0,.12.61.4.4,0,0,0,.363.2.39.39,0,0,0,.356-.186,1.148,1.148,0,0,0,.122-.584Z" fill="#fff"/>
        <path id="Trazado_1266650" data-name="Trazado 1266650" d="M135.9,56.076a1.485,1.485,0,0,1-.194.846.807.807,0,0,1-1.212.006,1.411,1.411,0,0,1-.2-.807v-.433a1.452,1.452,0,0,1,.194-.835.822.822,0,0,1,1.215-.009,1.394,1.394,0,0,1,.2.813Zm-.324-.443a1.19,1.19,0,0,0-.115-.6.4.4,0,0,0-.366-.188.4.4,0,0,0-.363.187,1.166,1.166,0,0,0-.117.576v.519a1.21,1.21,0,0,0,.12.61.4.4,0,0,0,.363.2.39.39,0,0,0,.356-.186,1.154,1.154,0,0,0,.122-.585Z" fill="#fff"/>
        <path id="Trazado_1266651" data-name="Trazado 1266651" d="M138.6,56.076a1.485,1.485,0,0,1-.194.846.807.807,0,0,1-1.212.006,1.4,1.4,0,0,1-.2-.807v-.433a1.452,1.452,0,0,1,.194-.835.822.822,0,0,1,1.215-.009,1.394,1.394,0,0,1,.2.813Zm-.324-.443a1.188,1.188,0,0,0-.116-.6.447.447,0,0,0-.728,0,1.155,1.155,0,0,0-.117.576v.519a1.21,1.21,0,0,0,.12.61.4.4,0,0,0,.363.2.39.39,0,0,0,.356-.186,1.154,1.154,0,0,0,.122-.585Z" fill="#fff"/>
        <path id="Trazado_1266652" data-name="Trazado 1266652" d="M141.311,56.076a1.485,1.485,0,0,1-.194.846.807.807,0,0,1-1.212.006,1.411,1.411,0,0,1-.2-.807v-.433a1.452,1.452,0,0,1,.194-.835.822.822,0,0,1,1.215-.009,1.394,1.394,0,0,1,.2.813Zm-.324-.443a1.19,1.19,0,0,0-.115-.6.4.4,0,0,0-.366-.188.4.4,0,0,0-.363.187,1.166,1.166,0,0,0-.117.576v.519a1.21,1.21,0,0,0,.12.61.4.4,0,0,0,.363.2.39.39,0,0,0,.356-.186,1.155,1.155,0,0,0,.122-.585Z" fill="#fff"/>
        <path id="Trazado_1266653" data-name="Trazado 1266653" d="M147.867,66.164a1.484,1.484,0,0,1-.194.845.807.807,0,0,1-1.212.006,1.4,1.4,0,0,1-.2-.807v-.433a1.454,1.454,0,0,1,.194-.835.822.822,0,0,1,1.215-.009,1.4,1.4,0,0,1,.2.813Zm-.324-.443a1.2,1.2,0,0,0-.115-.6.4.4,0,0,0-.366-.188.4.4,0,0,0-.363.187,1.155,1.155,0,0,0-.117.576v.519a1.208,1.208,0,0,0,.12.61.4.4,0,0,0,.363.2.39.39,0,0,0,.356-.186,1.155,1.155,0,0,0,.122-.585Z" fill="#fff"/>
        <path id="Trazado_1266654" data-name="Trazado 1266654" d="M150.573,66.164a1.484,1.484,0,0,1-.194.845.807.807,0,0,1-1.212.006,1.4,1.4,0,0,1-.2-.807v-.433a1.454,1.454,0,0,1,.194-.835.822.822,0,0,1,1.215-.009,1.4,1.4,0,0,1,.2.813Zm-.324-.443a1.2,1.2,0,0,0-.115-.6.4.4,0,0,0-.366-.188.4.4,0,0,0-.363.187,1.155,1.155,0,0,0-.117.576v.519a1.207,1.207,0,0,0,.12.61.4.4,0,0,0,.363.2.39.39,0,0,0,.356-.186,1.154,1.154,0,0,0,.122-.585Z" fill="#fff"/>
        <path id="Trazado_1266655" data-name="Trazado 1266655" d="M153.279,66.164a1.484,1.484,0,0,1-.194.845.807.807,0,0,1-1.212.006,1.4,1.4,0,0,1-.2-.807v-.433a1.445,1.445,0,0,1,.2-.835.82.82,0,0,1,1.214-.009,1.4,1.4,0,0,1,.2.813Zm-.324-.443a1.19,1.19,0,0,0-.116-.6.447.447,0,0,0-.728,0,1.155,1.155,0,0,0-.117.576v.519a1.208,1.208,0,0,0,.12.61.4.4,0,0,0,.363.2.39.39,0,0,0,.356-.186,1.154,1.154,0,0,0,.122-.585Z" fill="#fff"/>
        <path id="Trazado_1266656" data-name="Trazado 1266656" d="M131.1,11.946c-1.1,2.6-2.607,4.455-3.366,4.134s-.48-2.691.621-5.3,2.607-4.454,3.365-4.134.481,2.691-.62,5.3" fill="#e9ae8f"/>
        <path id="Trazado_1266657" data-name="Trazado 1266657" d="M174.377,150.316a11,11,0,1,1,.76-18.124l3.834-4.833A17.17,17.17,0,1,0,179.4,154.3Z" fill="#e3a4fe"/>
        <path id="Trazado_1266658" data-name="Trazado 1266658" d="M163.122,131.529a11,11,0,1,1,3.489,20.355l-1.275,6.036a17.17,17.17,0,1,0-7.5-30.236Z" fill="#e6fffa"/>
        <path id="Trazado_1266659" data-name="Trazado 1266659" d="M155.715,129.818a17.087,17.087,0,1,1,7.115,27.257L159.335,166a26.664,26.664,0,1,0-12.884-39.807Z" fill="#5d0b80"/>
        <path id="Trazado_1266660" data-name="Trazado 1266660" d="M180.972,152.6a17.08,17.08,0,1,1-14.439-28.637l-.851-9.544A26.664,26.664,0,1,0,190.57,155.9Z" fill="#96fef0"/>
        <path id="Trazado_1266661" data-name="Trazado 1266661" d="M34.886,22.862a2.284,2.284,0,0,0-3.22-.7,3.09,3.09,0,0,0-1.423,3.815c.272.237.94-.34,1.455-1.8-1.459,2.826-1.359,3.461-.379,3.7s1.287-2.02,1.287-2.02-1.372,3.107-.63,3.483,5.042-.239,2.91-6.481" fill="#e9ae8f"/>
        <path id="Trazado_1266662" data-name="Trazado 1266662" d="M34.211,24.447a56.313,56.313,0,0,1-.179-7.255c.271-1.4,1.065-.784,1.187.628.063.734,1.1,4.654,1.042,6.518s.7,4.987.007,7.186-3.879,2.215-5.274-.1a11.722,11.722,0,0,1-1.652-7.463c.358-2.285,2.375,2.352,2.694,2.972s2.344.173,2.175-2.487" fill="#e9ae8f"/>
        <path id="Trazado_1266663" data-name="Trazado 1266663" d="M32.32,33.1a.209.209,0,0,1-.069-.012c-.085-.031-.872-.371-2.183-2.9-1.107-2.139-1.666-6.353-.68-6.925.615-.36,1.292.685,1.514,1.028.8,1.232,1.539,1.821,2.087,1.667.605-.171.952-1.208.972-2.1.038-1.717-.135-6.6-.137-6.653a.209.209,0,0,1,.2-.216.217.217,0,0,1,.216.2c0,.049.175,4.948.136,6.678-.023,1.031-.431,2.249-1.274,2.488-.759.219-1.62-.4-2.551-1.841-.5-.778-.828-.971-.955-.9-.593.344-.332,4.108.841,6.373,1.228,2.373,1.952,2.7,1.959,2.7a.212.212,0,0,1,.115.27.208.208,0,0,1-.192.133" fill="#3d3d3d"/>
        <path id="Trazado_1266664" data-name="Trazado 1266664" d="M31.7,24.385a.2.2,0,0,1-.121-.039.208.208,0,0,1-.048-.291,1.525,1.525,0,0,1,1.074-.708,1.572,1.572,0,0,1,1.115.392.208.208,0,0,1-.283.305,1.188,1.188,0,0,0-.794-.282,1.14,1.14,0,0,0-.774.536.205.205,0,0,1-.169.087" fill="#3d3d3d"/>
        <path id="Trazado_1266665" data-name="Trazado 1266665" d="M79.67,30.6s24.871,16.094,42.543-9.307c5.392-9.825,8.743-14.436,12.521-13.916,6.713.925,3.594,4.722-1.8,12.182s-11.117,17.912-25.777,22.571-26.095,1.731-26.095,1.731S77.615,40.367,79.67,30.6" fill="#e9ae8f"/>
        <path id="Trazado_1266666" data-name="Trazado 1266666" d="M109.008,29.119s-1.148,6.171,6.357,9.938c-25.144,10.656-42.1,4.805-42.1,4.805l8.166-13.648s14.411,5.535,27.579-1.1" fill="#fbce73"/>
        <path id="Trazado_1266667" data-name="Trazado 1266667" d="M76.25,79.784l18.064-1.4c1.7,9.795-3.365,55.1-43.694,81.594-2.051.988-2.38,2.283-3.57,3.062L43.781,149.7c11.451-6.418,31.808-23.771,32.469-69.916" fill="#5a4905"/>
        <path id="Trazado_1266668" data-name="Trazado 1266668" d="M54.771,77.136l23.039,2.84c1.119,5.691,1.906,60.793-5.234,93.551-8.324,1.707-10.507.909-10.507.909s.816-58.561-7.3-97.3" fill="#5a4905"/>
        <path id="Trazado_1266669" data-name="Trazado 1266669" d="M53.184,85.918c18.714,6.377,37.888,2.87,44.681-.145L91.016,40.136c-1.59-6.919-5.731-8.3-10.3-10.219l-11.927-.86c-6.087,1.774-9.752-.471-11.066,11.51-.949,8.655-1.08,28.791-4.538,45.351" fill="#fbce73"/>
        <path id="Trazado_1266670" data-name="Trazado 1266670" d="M74.9,34.165h0a4.276,4.276,0,0,1-4.408-4.14L70.176,19.8l8.548-.268.32,10.221a4.276,4.276,0,0,1-4.14,4.408" fill="#e9ae8f"/>
        <path id="Trazado_1266671" data-name="Trazado 1266671" d="M69.51,18.148S72.586,28.21,79.384,27.6s6.585-14.191,5.406-16.99S76.041,4.687,71,10c-2.87,3.029-1.493,8.145-1.493,8.145" fill="#e9ae8f"/>
        <path id="Trazado_1266672" data-name="Trazado 1266672" d="M83.553,17.994a.52.52,0,0,0,.978.353.52.52,0,0,0-.978-.353" fill="#010101"/>
        <path id="Trazado_1266673" data-name="Trazado 1266673" d="M79.72,17.766a.52.52,0,0,0,.978.353.52.52,0,0,0-.978-.353" fill="#010101"/>
        <path id="Trazado_1266674" data-name="Trazado 1266674" d="M82.359,21.3h.011a.741.741,0,0,0,.622-.341c.371-.6-.08-1.8-.615-3.077a.162.162,0,0,0-.3.125c.357.85.953,2.273.639,2.782a.429.429,0,0,1-.368.187.162.162,0,0,0,.011.324" fill="#010101"/>
        <path id="Trazado_1266675" data-name="Trazado 1266675" d="M77.9,19.98a.515.515,0,0,1,.871.035,3.852,3.852,0,0,0,.959,1.086c.742.579-1.046,1.477-1.774.158A1.149,1.149,0,0,1,77.9,19.98" fill="#fff"/>
        <path id="Trazado_1266676" data-name="Trazado 1266676" d="M82.227,11.561s.738,3.109,3.2,1.618c.816,2.6,2.818,2,3.639,1.491,1.237-.762,1.269-3.014,0-4.029,1.618-2.03-.046-6.566-3.639-5.837,0-1.459-2.464-2.379-3.4-.983-1.491-6.027-9.9-4-10.056-.254-2.533-2.188-5.329,1.555-3.884,3.045-3.824-.951-5.886,5.457-3.094,7.17-1.523,1.364-1.777,4.091.127,5.265-1.84,2.7,5.614,6.223,5.392-.6.508-4.443,2.4-2.149,4.378-3.483a2.016,2.016,0,0,0,.895-2.121s2.055.272,2.383-1.567a2.265,2.265,0,0,0,4.06.285" fill="#455a64"/>
        <path id="Trazado_1266677" data-name="Trazado 1266677" d="M68.549,16.8a1.58,1.58,0,0,1,2.113-1.159,2.17,2.17,0,0,1,1.688,2.12v.587a1.416,1.416,0,0,1-2.05,1.261c-1.128-.559-2.136-1.452-1.751-2.809" fill="#e9ae8f"/>
        <path id="Trazado_1266678" data-name="Trazado 1266678" d="M71.706,17.405a.173.173,0,0,1-.146-.118,1.556,1.556,0,0,0-1.9-1.064.174.174,0,1,1-.088-.336,1.926,1.926,0,0,1,2.323,1.29.174.174,0,0,1-.11.22.172.172,0,0,1-.074.008" fill="#010101"/>
        <path id="Trazado_1266679" data-name="Trazado 1266679" d="M74.721,38.995a1,1,0,1,0,1-1,1,1,0,0,0-1,1" fill="#1e1e1e"/>
        <path id="Trazado_1266680" data-name="Trazado 1266680" d="M74.721,42.205a1,1,0,1,0,1-1,1,1,0,0,0-1,1" fill="#1e1e1e"/>
        <path id="Trazado_1266681" data-name="Trazado 1266681" d="M40.347,48.907c1.975,5.425,2.555,7.409,4,12.083,5.109-2.935,9.457-5.429,16.819-9.628,3.445-3.4,2.559-17.387-.651-19.6-5.748,4-13.092,10.77-20.172,17.148" fill="#fbce73"/>
        <path id="Trazado_1266682" data-name="Trazado 1266682" d="M79.207,27.629c-3.488.109-5.95-3.082-5.977-3.118a.137.137,0,1,1,.219-.166c.029.038,2.957,3.828,6.887,2.85a.138.138,0,0,1,.067.267,5.669,5.669,0,0,1-1.2.167" fill="#010101"/>
        <path id="Trazado_1266683" data-name="Trazado 1266683" d="M79.035,29.467l1.68.45-1.439,6.846-4.372-2.6a4.363,4.363,0,0,0,4.131-4.7" fill="#fff"/>
        <path id="Trazado_1266684" data-name="Trazado 1266684" d="M70.432,28l-2.778,1.053,2.782,7.705,4.467-2.6c-1.939-.242-4.429-1.085-4.471-6.161" fill="#fff"/>
        <path id="Trazado_1266685" data-name="Trazado 1266685" d="M74.9,34.373c-2.133,0-4.676-1.062-4.676-6.127a.209.209,0,1,1,.417,0c0,3.789,1.433,5.71,4.259,5.71a4.254,4.254,0,0,0,4.165-4.078.212.212,0,0,1,.228-.187.208.208,0,0,1,.186.228A4.636,4.636,0,0,1,74.9,34.373" fill="#102b46"/>
        <rect id="Rectángulo_458426" data-name="Rectángulo 458426" width="71.212" height="28.999" transform="translate(110.732 11.101)" fill="#37dbc5"/>
        <rect id="Rectángulo_458427" data-name="Rectángulo 458427" width="0.556" height="21.447" transform="translate(115.764 14.61)" fill="#fff"/>
        <rect id="Rectángulo_458428" data-name="Rectángulo 458428" width="0.555" height="21.447" transform="translate(125.863 14.61)" fill="#fff"/>
        <rect id="Rectángulo_458429" data-name="Rectángulo 458429" width="0.556" height="21.447" transform="translate(135.961 14.61)" fill="#fff"/>
        <rect id="Rectángulo_458430" data-name="Rectángulo 458430" width="0.556" height="21.447" transform="translate(146.06 14.61)" fill="#fff"/>
        <rect id="Rectángulo_458431" data-name="Rectángulo 458431" width="0.556" height="21.447" transform="translate(156.158 14.61)" fill="#fff"/>
        <rect id="Rectángulo_458432" data-name="Rectángulo 458432" width="0.555" height="21.447" transform="translate(166.258 14.61)" fill="#fff"/>
        <rect id="Rectángulo_458433" data-name="Rectángulo 458433" width="0.556" height="21.447" transform="translate(176.356 14.61)" fill="#fff"/>
        <path id="Trazado_1266686" data-name="Trazado 1266686" d="M126.249,31.561l-10.62-1.578.081-.549,10.322,1.534,10.18-11.527,10.152,8.7,9.957-6.195,10.165,4.5,9.966-8.685.365.419L166.585,27.1l-10.22-4.528-10.053,6.254-10.045-8.6Z" fill="#91b3b5"/>
        <path id="Trazado_1266687" data-name="Trazado 1266687" d="M127.369,31.264a1.229,1.229,0,1,1-1.228-1.228,1.228,1.228,0,0,1,1.228,1.228" fill="#ee8f6d"/>
        <path id="Trazado_1266688" data-name="Trazado 1266688" d="M137.467,19.83a1.229,1.229,0,1,1-1.228-1.228,1.228,1.228,0,0,1,1.228,1.228" fill="#ee8f6d"/>
        <path id="Trazado_1266689" data-name="Trazado 1266689" d="M117.27,29.257a1.228,1.228,0,1,1-1.228-1.228,1.228,1.228,0,0,1,1.228,1.228" fill="#ee8f6d"/>
        <path id="Trazado_1266690" data-name="Trazado 1266690" d="M147.566,28.48a1.229,1.229,0,1,1-1.228-1.228,1.228,1.228,0,0,1,1.228,1.228" fill="#ee8f6d"/>
        <path id="Trazado_1266691" data-name="Trazado 1266691" d="M157.57,22.256a1.229,1.229,0,1,1-1.228-1.228,1.228,1.228,0,0,1,1.228,1.228" fill="#ee8f6d"/>
        <path id="Trazado_1266692" data-name="Trazado 1266692" d="M167.764,26.772a1.229,1.229,0,1,1-1.229-1.228,1.228,1.228,0,0,1,1.229,1.228" fill="#ee8f6d"/>
        <path id="Trazado_1266693" data-name="Trazado 1266693" d="M177.862,18.349a1.229,1.229,0,1,1-1.228-1.228,1.228,1.228,0,0,1,1.228,1.228" fill="#ee8f6d"/>
        <path id="Trazado_1266694" data-name="Trazado 1266694" d="M134.909,13.937c-.649-.3-.637-1.7.027-3.122s1.73-2.325,2.379-2.021.637,1.7-.027,3.121-1.73,2.326-2.379,2.022" fill="#e9ae8f"/>
        <path id="Trazado_1266695" data-name="Trazado 1266695" d="M136.44,13.728c-.514-.241-.494-1.371.046-2.525s1.4-1.9,1.909-1.654.494,1.371-.046,2.525-1.4,1.895-1.909,1.654" fill="#e9ae8f"/>
        <path id="Trazado_1266696" data-name="Trazado 1266696" d="M131.594,12.636c-.615-.288-.575-1.672.089-3.093s1.7-2.338,2.317-2.05.576,1.672-.089,3.093-1.7,2.338-2.317,2.05" fill="#e9ae8f"/>
        <path id="Trazado_1266697" data-name="Trazado 1266697" d="M133.112,13.691c-.768-.359-.79-1.934-.05-3.518s1.964-2.575,2.732-2.216.791,1.935.05,3.518-1.964,2.575-2.732,2.216" fill="#e9ae8f"/>
        <path id="Trazado_1266698" data-name="Trazado 1266698" d="M41.2,176.639l-10.55-21.457,8.075-3.6,2.056,6.087a5.447,5.447,0,0,1,.663.122,7.738,7.738,0,0,1,5.536,5.283,13.377,13.377,0,0,1-3.62,14.034,1.362,1.362,0,0,1-2.16-.469" fill="#ccc1be"/>
        <path id="Trazado_1266699" data-name="Trazado 1266699" d="M34.273,156.336l.7-3.081,10.922-5.335,3.712,7.6a5.635,5.635,0,0,1-2.591,7.538L42.4,165.313Z" fill="#ccc1be"/>
        <path id="Trazado_1266700" data-name="Trazado 1266700" d="M46.979,163.352a.278.278,0,0,1-.265-.194c-.01-.033-1.063-3.291-3.148-4.17a.278.278,0,1,1,.216-.512c2.322.979,3.416,4.371,3.462,4.515a.278.278,0,0,1-.181.348.272.272,0,0,1-.084.013" fill="#23205a"/>
        <path id="Trazado_1266701" data-name="Trazado 1266701" d="M42.791,177.3a.276.276,0,0,1-.25-.156l-2.527-5.173a.278.278,0,1,1,.5-.245l2.527,5.174a.277.277,0,0,1-.248.4" fill="#23205a"/>
        <path id="Trazado_1266702" data-name="Trazado 1266702" d="M41.243,177.08a.279.279,0,0,1-.25-.155l-10.55-21.457a.278.278,0,0,1,.5-.246l10.55,21.458a.276.276,0,0,1-.127.371.267.267,0,0,1-.122.029" fill="#23205a"/>
        <path id="Trazado_1266703" data-name="Trazado 1266703" d="M61.789,166.561l.279,6.423,10.949.566.906-6.818Z" fill="#ccc1be"/>
        <path id="Trazado_1266704" data-name="Trazado 1266704" d="M61.918,181.411H74.363a2.189,2.189,0,0,0,2.189-2.189v-.547a7.757,7.757,0,0,0-7.757-7.757H65.834a6.86,6.86,0,0,0-6.86,6.86v.689a2.944,2.944,0,0,0,2.944,2.944" fill="#ccc1be"/>
        <path id="Trazado_1266705" data-name="Trazado 1266705" d="M74.315,181.689H62.069a.277.277,0,1,1,0-.555H74.315a.277.277,0,1,1,0,.555" fill="#23205a"/>
        <path id="Trazado_1266706" data-name="Trazado 1266706" d="M73.445,180.615H63.391a.278.278,0,1,1,0-.556H73.445a.278.278,0,1,1,0,.556" fill="#23205a"/>
        <path id="Trazado_1266707" data-name="Trazado 1266707" d="M74.315,173.505a.279.279,0,0,1-.224-.113c-2.477-3.38-9.006-2.16-9.072-2.147a.278.278,0,1,1-.106-.545c.282-.055,6.944-1.3,9.626,2.363a.279.279,0,0,1-.06.388.273.273,0,0,1-.164.054" fill="#23205a"/>
        <path id="Trazado_1266708" data-name="Trazado 1266708" d="M77.517,133.617a.139.139,0,0,1-.139-.135L76.587,109.4a.139.139,0,0,1,.135-.143.129.129,0,0,1,.143.134l.791,24.082a.14.14,0,0,1-.134.143Z" fill="#90c9a1"/>
        <path id="Trazado_1266709" data-name="Trazado 1266709" d="M61.61,151.722a.139.139,0,0,1-.139-.136L61.031,134a.139.139,0,0,1,.136-.142h0a.139.139,0,0,1,.139.136l.44,17.585a.139.139,0,0,1-.136.142Z" fill="#90c9a1"/>
        <path id="Trazado_1266710" data-name="Trazado 1266710" d="M31.7,55.561l7.83-9.126-3-18.189-5.536,3.18Z" fill="#e9ae8f"/>
        <path id="Trazado_1266711" data-name="Trazado 1266711" d="M53.46,85.949l-.552-.063,3.565-31.523L44.489,61.231l-.276-.482,12.935-7.413Z" fill="#91b3b5"/>
        <path id="Trazado_1266712" data-name="Trazado 1266712" d="M16.5,71.212a7.975,7.975,0,1,1,7.976-7.975A7.985,7.985,0,0,1,16.5,71.212m0-14.84a6.864,6.864,0,1,0,6.865,6.865A6.873,6.873,0,0,0,16.5,56.372" fill="#e0e0e0"/>
        <path id="Trazado_1266713" data-name="Trazado 1266713" d="M184.7,108.183a1.669,1.669,0,0,1-1.23-.452c-1.4-1.4.693-4.964,3.116-7.828a.556.556,0,0,1,.849.718c-2.97,3.51-3.652,5.85-3.178,6.325s2.812-.205,6.324-3.175a.555.555,0,1,1,.717.848c-2.225,1.883-4.871,3.564-6.6,3.564" fill="#91b3b5"/>
        <path id="Trazado_1266714" data-name="Trazado 1266714" d="M194.872,100.817a.555.555,0,0,1-.424-.914c2.97-3.51,3.65-5.85,3.175-6.325s-2.814.21-6.324,3.179a.556.556,0,0,1-.718-.848c2.864-2.423,6.424-4.514,7.827-3.118s-.688,4.964-3.112,7.829a.553.553,0,0,1-.424.2" fill="#91b3b5"/>
        <path id="Trazado_1266715" data-name="Trazado 1266715" d="M197.18,108.183c-1.727,0-4.372-1.681-6.6-3.564a.556.556,0,1,1,.718-.848c3.51,2.969,5.85,3.65,6.324,3.175s-.2-2.815-3.175-6.325a.556.556,0,1,1,.848-.718c2.424,2.866,4.515,6.427,3.113,7.828a1.669,1.669,0,0,1-1.23.452" fill="#91b3b5"/>
        <path id="Trazado_1266716" data-name="Trazado 1266716" d="M187.012,100.817a.557.557,0,0,1-.425-.2c-2.422-2.863-4.513-6.424-3.116-7.827s4.964.693,7.829,3.116a.556.556,0,1,1-.718.848c-3.51-2.97-5.849-3.652-6.326-3.178s.21,2.814,3.18,6.324a.555.555,0,0,1-.424.914" fill="#91b3b5"/>
        <path id="Trazado_1266717" data-name="Trazado 1266717" d="M198.473,85.4a1.208,1.208,0,0,1-.891-.337c-1.2-1.2,1.128-4.149,1.868-5.024a.556.556,0,0,1,.849.717c-1.781,2.106-2.038,3.339-1.927,3.527.177.1,1.41-.155,3.516-1.935a.555.555,0,1,1,.717.848c-.7.594-2.735,2.2-4.132,2.2" fill="#e0e0e0"/>
        <path id="Trazado_1266718" data-name="Trazado 1266718" d="M204.621,80.955a.555.555,0,0,1-.424-.914c1.782-2.107,2.038-3.339,1.925-3.526-.175-.1-1.412.157-3.516,1.937a.556.556,0,0,1-.718-.849c.876-.74,3.825-3.064,5.023-1.87s-1.125,4.149-1.866,5.025a.553.553,0,0,1-.424.2" fill="#e0e0e0"/>
        <path id="Trazado_1266719" data-name="Trazado 1266719" d="M206.021,85.4c-1.4,0-3.431-1.61-4.133-2.2a.556.556,0,1,1,.718-.848c2.106,1.782,3.338,2.036,3.526,1.925.1-.178-.153-1.41-1.935-3.517a.556.556,0,0,1,.849-.717c.74.876,3.064,3.826,1.867,5.024a1.211,1.211,0,0,1-.892.337" fill="#e0e0e0"/>
        <path id="Trazado_1266720" data-name="Trazado 1266720" d="M199.875,80.955a.553.553,0,0,1-.424-.2c-.741-.875-3.064-3.824-1.87-5.023s4.149,1.128,5.025,1.868a.556.556,0,0,1-.718.849c-2.1-1.781-3.341-2.039-3.527-1.927-.1.177.157,1.41,1.938,3.516a.555.555,0,0,1-.424.914" fill="#e0e0e0"/>
      </g>
    </g>
    <g id="Grupo_1207599" data-name="Grupo 1207599" transform="translate(418 6779.311)">
      <g id="Grupo_1207598" data-name="Grupo 1207598" clip-path="url(#clip-path-2)">
        <g id="Grupo_1207597" data-name="Grupo 1207597">
          <g id="Grupo_1207596" data-name="Grupo 1207596" clip-path="url(#clip-path-2)">
            <path id="Trazado_1266721" data-name="Trazado 1266721" d="M62.461,140.909v31.576a3.5,3.5,0,0,1-3.507,3.506H22.825a3.5,3.5,0,0,1-3.507-3.506V130.469a3.51,3.51,0,0,1,3.507-3.513H48.507Z" transform="translate(0.16 1.05)" fill="#fbce73"/>
            <path id="Trazado_1266722" data-name="Trazado 1266722" d="M62.222,140.909l-13.944.05v-14l.945.946Z" transform="translate(0.399 1.05)" fill="#fff2e1"/>
            <path id="Trazado_1266723" data-name="Trazado 1266723" d="M47.712,164.3H31.547V140.713H47.712Zm-15.6-.56H47.151V141.274H32.107Z" transform="translate(0.261 1.163)" fill="#fff"/>
            <rect id="Rectángulo_458435" data-name="Rectángulo 458435" width="15.605" height="0.56" transform="translate(32.087 157.228)" fill="#fff"/>
            <rect id="Rectángulo_458436" data-name="Rectángulo 458436" width="15.605" height="0.561" transform="translate(32.087 149.551)" fill="#fff"/>
            <rect id="Rectángulo_458437" data-name="Rectángulo 458437" width="0.56" height="23.027" transform="translate(39.61 142.157)" fill="#fff"/>
            <path id="Trazado_1266724" data-name="Trazado 1266724" d="M88.805,176.829l.5-.065a5.174,5.174,0,0,0,4.463-5.8l.044-29.588c-.363-5.236-5.595-18.808-9.665-18.84-.755-.006-1.258-.642-1.967-.551l-.5.065c-2.834.369-4.876-5.9-4.463,5.8l5.791,44.516a5.171,5.171,0,0,0,5.8,4.462" transform="translate(0.638 0.998)" fill="#e9ae8f"/>
            <path id="Trazado_1266725" data-name="Trazado 1266725" d="M71.622,180.23l24.109.063-1.576-10.915-3.961.106s-.8,1.131-1.6,2.184a7.807,7.807,0,0,0-7.236-2.678,13.487,13.487,0,0,0-11.112,9.491,1.374,1.374,0,0,0,1.38,1.749" transform="translate(0.58 1.396)" fill="#455a64"/>
            <path id="Trazado_1266726" data-name="Trazado 1266726" d="M94.658,179.417H71.612a.28.28,0,1,1,0-.561H94.658a.28.28,0,1,1,0,.561" transform="translate(0.59 1.479)" fill="#fff"/>
            <path id="Trazado_1266727" data-name="Trazado 1266727" d="M88.492,171.95h-.005a.282.282,0,0,1-.227-.123,7.021,7.021,0,0,0-5.956-2.651.266.266,0,0,1-.291-.268.28.28,0,0,1,.266-.292,7.572,7.572,0,0,1,6.207,2.59l1.383-1.885a.284.284,0,0,1,.219-.115l3.961-.106h.008a.28.28,0,0,1,.007.561l-3.825.1-1.521,2.074a.282.282,0,0,1-.226.114" transform="translate(0.678 1.394)" fill="#fff"/>
            <path id="Trazado_1266728" data-name="Trazado 1266728" d="M88.671,130.244l-9.332-2.858a5.17,5.17,0,0,1-1.183-6.2L90.723,79.891c1.293-2.548,12.144-2.311,14.691-1.019l.448.227a5.173,5.173,0,0,1,2.274,6.953L89.03,129.367c-.118.325-.238.61-.359.877" transform="translate(0.642 0.644)" fill="#e9ae8f"/>
            <path id="Trazado_1266729" data-name="Trazado 1266729" d="M107.214,176.829l.5-.065a5.173,5.173,0,0,0,4.462-5.8l.044-29.588c-.362-5.236-5.594-18.808-9.665-18.84-.755-.006-1.258-.642-1.966-.551l-.5.065c-2.833.369-4.876-5.9-4.463,5.8l5.791,44.516a5.172,5.172,0,0,0,5.8,4.462" transform="translate(0.79 0.998)" fill="#e9ae8f"/>
            <path id="Trazado_1266730" data-name="Trazado 1266730" d="M108.306,131.219H98.547a5.17,5.17,0,0,1-2.948-5.586l-.078-43.16c.489-2.815,10.934-5.766,13.749-5.277l.494.086a5.173,5.173,0,0,1,4.211,5.982l-5.582,47.011c-.018.346-.049.654-.087.945" transform="translate(0.79 0.638)" fill="#e9ae8f"/>
            <path id="Trazado_1266731" data-name="Trazado 1266731" d="M90.031,180.23l24.109.063-1.576-10.915-3.961.106s-.8,1.131-1.6,2.184a7.808,7.808,0,0,0-7.237-2.678,13.487,13.487,0,0,0-11.111,9.491,1.374,1.374,0,0,0,1.38,1.749" transform="translate(0.732 1.396)" fill="#455a64"/>
            <path id="Trazado_1266732" data-name="Trazado 1266732" d="M113.067,179.417H90.021a.28.28,0,1,1,0-.561h23.046a.28.28,0,1,1,0,.561" transform="translate(0.742 1.479)" fill="#fff"/>
            <path id="Trazado_1266733" data-name="Trazado 1266733" d="M107.028,177.781a.317.317,0,0,1-.044,0,.281.281,0,0,1-.233-.322c.709-4.406,5.076-4.109,5.121-4.107a.28.28,0,0,1,.257.3.277.277,0,0,1-.3.258,4.194,4.194,0,0,0-4.523,3.637.28.28,0,0,1-.276.236" transform="translate(0.883 1.433)" fill="#fff"/>
            <path id="Trazado_1266734" data-name="Trazado 1266734" d="M106.9,171.95H106.9a.282.282,0,0,1-.227-.123,7.048,7.048,0,0,0-5.955-2.651H100.7a.28.28,0,0,1-.012-.561,7.576,7.576,0,0,1,6.206,2.59l1.384-1.885a.282.282,0,0,1,.218-.115l3.961-.106h.008a.28.28,0,0,1,.007.561l-3.824.1-1.522,2.074a.282.282,0,0,1-.226.114" transform="translate(0.83 1.394)" fill="#fff"/>
            <path id="Trazado_1266735" data-name="Trazado 1266735" d="M116.029,100.47,111.4,126.544l-.706.121a69.405,69.405,0,0,1-32.486-2.2c-4.495-1.411-8.082-2.582-8.082-2.582l8.105-29.034q1.806-6.472,3.08-13.075L82.891,71.6l29.262.349a47.072,47.072,0,0,1,3.877,28.521" transform="translate(0.58 0.592)" fill="#fff9e9"/>
            <path id="Trazado_1266736" data-name="Trazado 1266736" d="M88.265,37.343,68.7,60.469l-.209.247a4.678,4.678,0,0,1-6.458.649L39.8,43.818a2.371,2.371,0,0,1,2.534-3.98l25.3,12.724-6.667.9L82.082,31.735a4.176,4.176,0,0,1,6.183,5.608" transform="translate(0.322 0.252)" fill="#e9ae8f"/>
            <path id="Trazado_1266737" data-name="Trazado 1266737" d="M115.415,37.91l-2.1,13.376a54.048,54.048,0,0,0,1.842,24.595l1.142,3.629-29.1-.82-6.439-.18.533-2.937a58.362,58.362,0,0,0,.739-15.252L80.427,46.96l.339-.623a23.766,23.766,0,0,0,2.449-15.848l6.935-1.12,10.195-1.647,6.4,1.815,4.037,1.142a6.473,6.473,0,0,1,4.631,7.23" transform="translate(0.665 0.229)" fill="#056154"/>
            <path id="Trazado_1266738" data-name="Trazado 1266738" d="M84.276,5.609s2.978,5.758.561,9.039c-4.82-3.813-2.879-8.662-.561-9.039" transform="translate(0.677 0.046)" fill="#221c36"/>
            <path id="Trazado_1266739" data-name="Trazado 1266739" d="M99.071,32.6l1.074-.1a4.623,4.623,0,0,0,4.159-5.045l-1.251-13-10.277.989,1.251,13A4.622,4.622,0,0,0,99.071,32.6" transform="translate(0.767 0.12)" fill="#e9ae8f"/>
            <path id="Trazado_1266740" data-name="Trazado 1266740" d="M103.147,14.243S100.095,24.987,92.109,26.7a4.621,4.621,0,0,1-3.355-.533c-3.771-2.26-5.31-7.345-5.851-12.933-.337-3.469.054-5.749,1.019-7C86.272,3.2,92.808-1.572,99.972,4.28c4.08,3.334,3.175,9.964,3.175,9.964" transform="translate(0.684 0.012)" fill="#e9ae8f"/>
            <path id="Trazado_1266741" data-name="Trazado 1266741" d="M90.847,15.338a.657.657,0,0,1-1.169.6.657.657,0,0,1,1.169-.6" transform="translate(0.741 0.124)" fill="#221c36"/>
            <path id="Trazado_1266742" data-name="Trazado 1266742" d="M85.335,15.884a.6.6,0,0,1-1.073.55.6.6,0,0,1,1.073-.55" transform="translate(0.696 0.129)" fill="#221c36"/>
            <path id="Trazado_1266743" data-name="Trazado 1266743" d="M86.739,20.294a.212.212,0,0,1-.056-.008,1,1,0,0,1-.71-1.154l.689-3.5a.211.211,0,0,1,.413.081l-.69,3.5a.582.582,0,0,0,.376.658l1.37-.141a.21.21,0,0,1,.042.418l-1.414.145h-.021" transform="translate(0.711 0.128)" fill="#221c36"/>
            <path id="Trazado_1266744" data-name="Trazado 1266744" d="M85.144,2.211c-7.383,2.705-3.851,8.908-.922,7.963,4.819-1.554,4.051.816,5.939,2.439,2.652,2.282,3.172,2.474,7.146,2.08s1.336,3.773,1.336,3.773,1.182,6.311,5.109,3.631c.2-.135,3.427-.869,3.546-1.078,1.345-2.371-1.061-13.35-5.249-17.537C97.666-.9,88.939-.886,87.424,2.075a7.128,7.128,0,0,0-2.28.136" transform="translate(0.668 0)" fill="#221c36"/>
            <path id="Trazado_1266745" data-name="Trazado 1266745" d="M97.127,13.886a1.759,1.759,0,0,1,2.9,1.118A3.413,3.413,0,0,1,98.9,18.948c-1.049.816-2.435-.132-2.377-1.592,0,0-.3-2.773.608-3.469" transform="translate(0.798 0.111)" fill="#e9ae8f"/>
            <path id="Trazado_1266746" data-name="Trazado 1266746" d="M91.71,26.878a.28.28,0,0,1-.032-.559c.05-.006,5.058-.639,6.3-4.487a.28.28,0,1,1,.532.172c-1.352,4.192-6.548,4.846-6.768,4.871l-.033,0" transform="translate(0.756 0.179)" fill="#221c36"/>
            <path id="Trazado_1266747" data-name="Trazado 1266747" d="M90.125,11.028a7.849,7.849,0,0,0,8.139,4.058C93.4,16.632,90.43,13.3,89.073,11.13Z" transform="translate(0.736 0.091)" fill="#221c36"/>
            <path id="Trazado_1266748" data-name="Trazado 1266748" d="M102.029,11.928s1.045-7.714,3.832-6.319c3.132,1.569-.117,3.6-.117,3.6s4.714-.455,5.4,5.847-8.422,2.031-9.114-3.128" transform="translate(0.844 0.045)" fill="#221c36"/>
            <path id="Trazado_1266749" data-name="Trazado 1266749" d="M109.363,15.147s4.536,7.425-2.028,9.728-7.519-10.458,2.028-9.728" transform="translate(0.846 0.125)" fill="#221c36"/>
            <path id="Trazado_1266750" data-name="Trazado 1266750" d="M108.46,14.132c-.375.153-8.246,8.319-3.555,12.9s11.234,2.581,11.234,2.581-6.069,2.82-11.353-.988c-9.215-6.64-.955-14.6,1.145-15.151s2.529.659,2.529.659" transform="translate(0.831 0.11)" fill="#221c36"/>
            <path id="Trazado_1266751" data-name="Trazado 1266751" d="M103.474,20.312A6.182,6.182,0,0,0,104,23.3c2.05,5.778,8.7,3.463,8.7,3.463s-5.49,3.3-9.3-1.983a8.786,8.786,0,0,1-1.735-4.294Z" transform="translate(0.841 0.168)" fill="#221c36"/>
            <path id="Trazado_1266752" data-name="Trazado 1266752" d="M97.544,19a.882.882,0,1,0,.794-.962.881.881,0,0,0-.794.962" transform="translate(0.806 0.149)" fill="#fff"/>
            <path id="Trazado_1266753" data-name="Trazado 1266753" d="M92.124,21.352a.738.738,0,0,1-.009.1,1.588,1.588,0,0,1-1.77,1.184,1.979,1.979,0,0,1-.578-.158.366.366,0,0,1-.067-.662,2.086,2.086,0,0,0,1.042-1.064c.3-.892,1.415-.264,1.381.6" transform="translate(0.74 0.168)" fill="#fff"/>
            <path id="Trazado_1266754" data-name="Trazado 1266754" d="M92.118,21.346a.738.738,0,0,1-.009.1,1.588,1.588,0,0,1-1.77,1.184c.23-.585.96-2.171,1.779-1.289" transform="translate(0.747 0.174)" fill="#f5686f"/>
            <path id="Trazado_1266755" data-name="Trazado 1266755" d="M31.767,19.036V36.994a1.994,1.994,0,0,1-1.994,1.994H9.224A1.994,1.994,0,0,1,7.23,36.994V13.1a2,2,0,0,1,1.994-2H23.831Z" transform="translate(0.06 0.092)" fill="#37dbc5"/>
            <path id="Trazado_1266756" data-name="Trazado 1266756" d="M31.631,19.036l-7.931.029V11.1l.537.538Z" transform="translate(0.196 0.092)" fill="#f4cdac"/>
            <path id="Trazado_1266757" data-name="Trazado 1266757" d="M23.773,31.734H15.1a.28.28,0,0,1-.28-.28V27.116a.28.28,0,1,1,.561,0v4.057h8.115V23.059H19.436a.28.28,0,0,1,0-.561h4.338a.28.28,0,0,1,.28.28v8.675a.28.28,0,0,1-.28.28" transform="translate(0.123 0.186)" fill="#fff"/>
            <path id="Trazado_1266758" data-name="Trazado 1266758" d="M23.773,27.36H15.1a.28.28,0,0,1,0-.561h8.675a.28.28,0,0,1,0,.561" transform="translate(0.123 0.222)" fill="#fff"/>
            <path id="Trazado_1266759" data-name="Trazado 1266759" d="M19.4,31.734a.28.28,0,0,1-.28-.28V22.778a.28.28,0,1,1,.561,0v8.675a.28.28,0,0,1-.28.28" transform="translate(0.158 0.186)" fill="#fff"/>
            <path id="Trazado_1266760" data-name="Trazado 1266760" d="M21.149,110.085v15.479a1.718,1.718,0,0,1-1.719,1.719H1.719A1.718,1.718,0,0,1,0,125.564v-20.6a1.72,1.72,0,0,1,1.719-1.721h12.59Z" transform="translate(0 0.854)" fill="#96fef0"/>
            <path id="Trazado_1266761" data-name="Trazado 1266761" d="M21.032,110.085l-6.836.025v-6.865l.464.463Z" transform="translate(0.117 0.854)" fill="#a5bfbf"/>
            <path id="Trazado_1266762" data-name="Trazado 1266762" d="M10.521,121.068H6.782a.28.28,0,0,1-.28-.28V113.31a.28.28,0,0,1,.28-.28H14.26a.28.28,0,0,1,.28.28v3.739a.28.28,0,1,1-.561,0v-3.458H7.063v6.917h3.458a.28.28,0,1,1,0,.561" transform="translate(0.054 0.935)" fill="#fff"/>
            <path id="Trazado_1266763" data-name="Trazado 1266763" d="M14.26,117.3H6.782a.28.28,0,1,1,0-.56H14.26a.28.28,0,1,1,0,.56" transform="translate(0.054 0.965)" fill="#fff"/>
            <path id="Trazado_1266764" data-name="Trazado 1266764" d="M10.49,121.068a.28.28,0,0,1-.28-.28V113.31a.28.28,0,0,1,.561,0v7.477a.28.28,0,0,1-.28.28" transform="translate(0.084 0.935)" fill="#fff"/>
            <path id="Trazado_1266765" data-name="Trazado 1266765" d="M106.667,29.537C106.331,31.475,102.746,33,98.382,33c-4.492,0-8.15-1.613-8.312-3.63l10.195-1.647Z" transform="translate(0.745 0.229)" fill="#e9ae8f"/>
            <g id="Grupo_1207595" data-name="Grupo 1207595" transform="translate(15.161 55.597)" style="mix-blend-mode: multiply;isolation: isolate">
              <g id="Grupo_1207594" data-name="Grupo 1207594">
                <g id="Grupo_1207593" data-name="Grupo 1207593" clip-path="url(#clip-path-4)">
                  <path id="Trazado_1266766" data-name="Trazado 1266766" d="M50.119,55.141H18.543a3.5,3.5,0,0,0-3.506,3.507V94.777a3.5,3.5,0,0,0,3.506,3.507H60.559a3.51,3.51,0,0,0,3.513-3.507V69.094Z" transform="translate(-15.037 -55.141)" fill="#ccc1be"/>
                  <path id="Trazado_1266767" data-name="Trazado 1266767" d="M49.832,55.141l-.05,13.944h14l-.946-.945Z" transform="translate(-14.75 -55.141)" fill="#ddd1ce"/>
                  <path id="Trazado_1266768" data-name="Trazado 1266768" d="M50.276,86.753H27.245V70.658H50.276Zm-22.47-.561H49.716V71.218H27.806Z" transform="translate(-14.936 -55.013)" fill="#fff"/>
                  <rect id="Rectángulo_458438" data-name="Rectángulo 458438" width="22.47" height="0.561" transform="translate(12.589 23.412)" fill="#fff"/>
                  <rect id="Rectángulo_458439" data-name="Rectángulo 458439" width="0.561" height="15.535" transform="translate(27.289 15.925)" fill="#fff"/>
                  <rect id="Rectángulo_458440" data-name="Rectángulo 458440" width="0.561" height="15.535" transform="translate(19.8 15.925)" fill="#fff"/>
                </g>
              </g>
            </g>
            <path id="Trazado_1266769" data-name="Trazado 1266769" d="M35.606,36.88a2.3,2.3,0,0,0-2.49,2.2,3.117,3.117,0,0,0,2.248,3.436c.355-.079.284-.967-.6-2.26,1.423,2.874,2,3.172,2.78,2.521s-.87-2.252-.87-2.252,1.7,2.971,2.452,2.593,2.818-4.237-3.524-6.236" transform="translate(0.274 0.305)" fill="#e9ae8f"/>
            <path id="Trazado_1266770" data-name="Trazado 1266770" d="M36.514,38.406a56.844,56.844,0,0,1-6-4.19c-.979-1.06,0-1.334,1.218-.589.634.387,4.437,1.888,5.917,3.05s4.467,2.413,5.839,4.289-.519,4.474-3.233,4.223A11.822,11.822,0,0,1,33.21,42.07c-1.641-1.657,3.329-.523,4.024-.411s1.542-1.8-.72-3.253" transform="translate(0.249 0.275)" fill="#e9ae8f"/>
            <path id="Trazado_1266771" data-name="Trazado 1266771" d="M40.891,45.392a14.25,14.25,0,0,1-2.2-.2c-2.4-.379-6.154-2.445-6.029-3.587.078-.715,1.329-.639,1.74-.615,1.476.091,2.4-.158,2.6-.7.222-.593-.412-1.5-1.122-2.043-1.372-1.058-5.444-3.837-5.485-3.866a.21.21,0,0,1,.237-.347c.041.027,4.124,2.815,5.5,3.88.824.635,1.569,1.7,1.259,2.523-.28.748-1.3,1.074-3.02.97-.931-.057-1.282.095-1.3.241-.075.688,3.138,2.725,5.678,3.127,2.662.422,3.362.03,3.369.027a.211.211,0,0,1,.286.067.207.207,0,0,1-.057.285,2.856,2.856,0,0,1-1.464.238" transform="translate(0.251 0.281)" fill="#3d3d3d"/>
            <path id="Trazado_1266772" data-name="Trazado 1266772" d="M34.758,40.452a.212.212,0,0,1-.2-.145,1.543,1.543,0,0,1,.067-1.295,1.575,1.575,0,0,1,.985-.672.206.206,0,0,1,.244.166.209.209,0,0,1-.165.246,1.16,1.16,0,0,0-.7.476,1.141,1.141,0,0,0-.027.948.209.209,0,0,1-.134.265.205.205,0,0,1-.065.01" transform="translate(0.285 0.317)" fill="#3d3d3d"/>
            <path id="Trazado_1266773" data-name="Trazado 1266773" d="M74.308,37.287s5.654,1.781,6.5,10.631c3.362-2.083,7.03-13.642,2.456-17.452-3.408.008-8.958,6.821-8.958,6.821" transform="translate(0.614 0.252)" fill="#056154"/>
            <path id="Trazado_1266774" data-name="Trazado 1266774" d="M88.969,180.063a.281.281,0,0,1-.279-.262c-.391-6.258,7.462-9.675,7.8-9.819a.281.281,0,0,1,.22.516c-.079.033-7.824,3.406-7.457,9.267a.279.279,0,0,1-.262.3h-.018" transform="translate(0.733 1.405)" fill="#fff"/>
            <path id="Trazado_1266775" data-name="Trazado 1266775" d="M111.853,91.813,98.3,101.549a2.308,2.308,0,0,1-3.221-.527L80.831,81.187a2.308,2.308,0,0,1,.527-3.221L94.907,68.23a2.31,2.31,0,0,1,3.221.527L112.38,88.592a2.308,2.308,0,0,1-.527,3.221" transform="translate(0.665 0.561)" fill="#23205a"/>
            <path id="Trazado_1266776" data-name="Trazado 1266776" d="M88.227,76.82a1.006,1.006,0,1,0,.23-1.4,1,1,0,0,0-.23,1.4" transform="translate(0.728 0.622)" fill="#3c3c8e"/>
            <path id="Trazado_1266777" data-name="Trazado 1266777" d="M124.978,59.023c1.975-2.878.4-7.005-1.442-9.97l-8.323-15.6a4.188,4.188,0,0,0-5.7-1.371c-1.922,1.155-3.724,6.157-2.68,8.142l9.751,13.749a3.533,3.533,0,0,1-.148,3.546L105.3,74.958a2.374,2.374,0,0,0,.583,3.177,2.442,2.442,0,0,0,3.188-.323l15.374-18.12a5.155,5.155,0,0,0,.532-.669" transform="translate(0.868 0.26)" fill="#e9ae8f"/>
            <path id="Trazado_1266778" data-name="Trazado 1266778" d="M106.573,78.016l1.054.66a25.1,25.1,0,0,1-3.287,3.527c-1.128.774-4.236,1.338-4.042.248s3.074-1.882,3.074-1.882l1.7-2.765Z" transform="translate(0.829 0.643)" fill="#e9ae8f"/>
            <path id="Trazado_1266779" data-name="Trazado 1266779" d="M109.2,73.8l-1.734-.465s-2.621.109-6.236,4.036c-2.985,2.032-5.68,1.514-5.3,2.375.373,1.29,3.6.14,4.219.006.148.262-5,.02-5.082,1,.174,1,4.045.892,4.364.963s-3.772-.46-3.757-.03,1.945,1.541,4.426,1.37c2.124-1.6-.694-.117-.694-.117s-2.535-.612-2.527.2c.007.866,5.7.625,7.949-1.528,2.508-2.394,4.138-4.091,4.436-4.377,2.727-2.607,1.533-3.211-.069-3.432" transform="translate(0.786 0.606)" fill="#e9ae8f"/>
            <path id="Trazado_1266780" data-name="Trazado 1266780" d="M111.269,48.436s1.617-10.632,7.813-10.354A26.827,26.827,0,0,0,114,31.969a4.489,4.489,0,0,0-6.266.174c-2.529,2.679-4.282,7.785,3.536,16.293" transform="translate(0.873 0.255)" fill="#056154"/>
          </g>
        </g>
      </g>
    </g>
  </g>
</svg>
