<svg xmlns="http://www.w3.org/2000/svg" xmlns:xlink="http://www.w3.org/1999/xlink" width="160.5" height="160.501" viewBox="0 0 160.5 160.501">
  <defs>
    <clipPath id="clip-path">
      <rect id="Rectángulo_455261" data-name="Rectángulo 455261" width="38.951" height="37.623" fill="#e6fffa"/>
    </clipPath>
    <clipPath id="clip-path-2">
      <rect id="Rectángulo_458405" data-name="Rectángulo 458405" width="74.718" height="78.5" fill="#5d0b80"/>
    </clipPath>
  </defs>
  <g id="Grupo_1206979" data-name="Grupo 1206979" transform="translate(-307.436 -10011.92)">
    <path id="Sustracción_130" data-name="Sustracción 130" d="M26.051,25.795H0V11.245H11.352V0h14.7V25.795Z" transform="translate(441.641 10038.471) rotate(-90)" fill="#e3a4fe" stroke="rgba(0,0,0,0)" stroke-miterlimit="10" stroke-width="1"/>
    <g id="Grupo_1178100" data-name="Grupo 1178100" transform="translate(307.436 10172.421) rotate(-90)">
      <path id="Trazado_998183" data-name="Trazado 998183" d="M0,0V37.623H25.58V24.056H38.951V0Z" transform="translate(0 0)" fill="#5d0b80"/>
      <g id="Grupo_1178099" data-name="Grupo 1178099" transform="translate(0 0)">
        <g id="Grupo_1178098" data-name="Grupo 1178098" clip-path="url(#clip-path)">
          <path id="Trazado_998184" data-name="Trazado 998184" d="M0,9.021a9.025,9.025,0,1,1,9.025,9.021A9.023,9.023,0,0,1,0,9.021" transform="translate(4.434 5.629)" fill="#e3a4fe"/>
        </g>
      </g>
    </g>
    <g id="Grupo_1177470" data-name="Grupo 1177470" transform="translate(308.059 10012.421)">
      <circle id="Elipse_13609" data-name="Elipse 13609" cx="79.688" cy="79.688" r="79.688" fill="#f0d5fe"/>
      <g id="Grupo_1099776" data-name="Grupo 1099776" transform="translate(33.723 33.96)">
        <g id="Grupo_1099618" data-name="Grupo 1099618" transform="translate(0.365 -0.121)">
          <rect id="Rectángulo_401104" data-name="Rectángulo 401104" width="90.569" height="91.661" transform="translate(0)" fill="none"/>
        </g>
        <g id="Grupo_1207586" data-name="Grupo 1207586" transform="translate(8.365 6.879)">
          <g id="Grupo_1207585" data-name="Grupo 1207585" clip-path="url(#clip-path-2)">
            <path id="Trazado_1266584" data-name="Trazado 1266584" d="M65.552,178.789a11.369,11.369,0,0,1,8.107,6.778l2.523-2.08c-1.291-2.4-1.807-4.674-.417-7.19a6.325,6.325,0,0,1,11.373.876c.926,2.525.271,4.269-1.012,6.454a8.942,8.942,0,0,1,4.776,6.239c.291,1.439.9,7.01-.835,7.51l-15.319.05c-.022,2.142.072,3.152-2.3,3.386-8.782.866-18.913-.648-27.839.013-2.348-.219-2.407-1.235-2.289-3.4L26.691,197.2c-1.16-.686-.957-4.857-.829-6.186.282-2.916,2.231-6.4,5.08-7.387-3.079-3.626-1.146-9.842,3.751-10.405,6.183-.711,9.413,5.525,5.931,10.4l2.541,1.937c1.681-3.183,4.475-6,8.108-6.774.16-.172-1.343-2.053-1.546-2.445-3.01-5.815.313-13.273,6.812-14.432a10.013,10.013,0,0,1,9.014,16.876M57.26,165.055c-8.227,1.305-6.656,14.67,2.546,13.194,8.041-1.289,6.572-14.641-2.546-13.194M34.99,176.428c-3.044.626-3.045,5.312,0,5.938,5.041,1.036,4.98-6.961,0-5.938m45.5,0c-3.713.764-2.791,6.848,1.585,5.938,3.386-.7,2.7-6.82-1.585-5.938m-9.131,21v-8.592c0-2.635-3.52-6.124-6-6.827-3.182-.9-11.73-.941-14.739.366-1.741.756-4.915,4.055-4.915,5.976v9.076h4.841c-.02-1.395-.391-4.734,1.8-4.6,2.091.132,1.555,3.188,1.591,4.6h9.2v-3.509c0-1.262,3.146-1.445,3.146,0v3.509Zm-29.044-3.146V190.53c0-.957-1.731-3.17-2.543-3.75-2.349-1.678-7.073-1.36-9.074.847a10.643,10.643,0,0,0-1.453,2.661v3.993l1.347-.227c-.466-4.914,4.028-4.262,3.252.227h3.872c-.859-5.005,3.929-4.71,3.145,0Zm45.5,0v-3.509c0-1.071-1.546-3.213-2.415-3.878-2.357-1.8-7.154-1.526-9.2.733a10.643,10.643,0,0,0-1.453,2.661v3.993l1.347-.227c.479-.679-.675-3.553,1.662-3.4,1.833.119,1.686,2.286,1.59,3.628H83.22c-.859-5.005,3.929-4.71,3.145,0Z" transform="translate(-19.526 -122.589)" fill="#5d0b80"/>
            <path id="Trazado_1266585" data-name="Trazado 1266585" d="M44.83.593a55.742,55.742,0,0,1,1.544,8.985c.136.419,2.919,1.2,3.343,1.011.866-.381,4.1-5.368,5.2-6.43.907-.872,1.189-.8,2.28-.324a37.337,37.337,0,0,1,4.642,2.857,1.817,1.817,0,0,1,.117,1.6c-.46,2.356-2.332,5.256-3,7.658l2.146,2.388c.775.385,7.332-3.356,9.059-3.036.858.159,3.086,4.1,3.457,5.03.446,1.116.14,1.563-.66,2.354-1.035,1.024-5.812,4.121-6.184,4.967a8.406,8.406,0,0,0,.846,3.266c1.625.525,8.178.73,9.144,1.627.815.757.825,6.611,0,7.377-1.016.943-7.465,1.03-9.144,1.627-.414.266-1,4.076-1.819,4.957-1.065,1.149-2.757.089-2.762-1.294.773-1.152,1.111-5.519,1.791-6.211,1-1.014,8.954-1.261,9.107-1.827l-.041-2c-2.3-.527-4.726-.6-7.036-1.071-.844-.171-1.958-.142-2.258-1.13-.014-1.437-1.794-5.238-1.472-6.3.458-1.515,5.976-4.473,6.89-6.119l-1.254-1.587L61.16,22.034A1.281,1.281,0,0,1,60.2,21.9c-.575-.251-4.782-4.554-4.863-5.075-.208-1.346,3.428-7.881,3-8.542L56.5,7.414c-1.26,1.16-4.488,6.423-5.8,6.819-1.109.335-4.812-1.507-6.3-1.473-.859-.252-.989-1.236-1.145-2-.2-.994-.778-7.049-1.043-7.306l-2.026-.027c-.366.063-1,6.491-1.172,7.333a6.068,6.068,0,0,1-.364,1.33c-.651,1.25-4.944,1.275-6.293,2.2a1.3,1.3,0,0,1-.789-.055c-1.516-.459-4.474-5.978-6.119-6.89L23.867,8.6c.465,2.193,2.879,5.822,3.063,7.855a1.211,1.211,0,0,1-.131.716c-.24.568-4.539,4.769-5.085,4.874-1.157.223-6.646-2.73-8.216-3.08l-1.255,1.587.194.449c1.167,1.191,6.31,4.394,6.7,5.67.322,1.065-1.458,4.866-1.472,6.3-.3.99-1.414.956-2.258,1.13-2.31.475-4.725.649-7.049,1.058v2.154L17.29,38.9a1.385,1.385,0,0,1,.37.6c.243.561,1.464,4.944,1.527,5.513.169,1.517-1.616,2.692-2.727,1.495-.817-.88-1.4-4.691-1.819-4.957C13,40.976,6.459,40.816,5.5,39.924c-.815-.756-.825-6.612,0-7.377.982-.911,7.5-1.063,9.144-1.627a8.407,8.407,0,0,0,.846-3.266c-.393-.894-5.369-4.077-6.434-5.2a1.673,1.673,0,0,1-.41-2.121,36.893,36.893,0,0,1,2.822-4.689A1.235,1.235,0,0,1,12.1,15.3c1.739-.322,6.871,2.724,8.911,3.106L23.3,15.952,20.253,8.1A2.142,2.142,0,0,1,20.245,7c.163-.552,4.23-2.946,4.982-3.254,1.03-.423,1.321-.36,2.121.41,1.108,1.066,4.338,6.048,5.2,6.43.425.187,3.208-.592,3.343-1.011A55.743,55.743,0,0,1,37.44.593c.8-.8,6.606-.783,7.39,0" transform="translate(-3.7 0.001)" fill="#5d0b80"/>
            <path id="Trazado_1266586" data-name="Trazado 1266586" d="M116.267,93.642a1.7,1.7,0,0,1-2.708-.417c-.284-.642-.269-2.9-.475-3.882-3.167-15.043-25.336-15.136-28.58,0-.326,1.519.056,5.062-2.154,4.848-2.441-.236-1.051-5.747-.552-7.312,4.673-14.662,25.194-16.576,32.647-3.014,1.022,1.86,3.2,8.073,1.822,9.773" transform="translate(-61.358 -56.629)" fill="#5d0b80"/>
            <path id="Trazado_1266587" data-name="Trazado 1266587" d="M262.008.6c8.27-.111,8.737,12.163.929,12.976-9.166.955-9.852-12.857-.929-12.976M261.3,3.955c-3.772.775-2.767,6.879,1.091,6.434,4.429-.511,3.541-7.386-1.091-6.434" transform="translate(-193.795 -0.457)" fill="#5d0b80"/>
            <path id="Trazado_1266588" data-name="Trazado 1266588" d="M11.028,14.155c6.837-1.166,7.862,8.562,2.064,9.564-6.785,1.172-7.94-8.562-2.064-9.564m.728,3.126a1.656,1.656,0,0,0,.388,3.279c2.29-.12,1.8-3.667-.388-3.279" transform="translate(-5.485 -10.656)" fill="#5d0b80"/>
            <path id="Trazado_1266589" data-name="Trazado 1266589" d="M290.239,101.238a1.619,1.619,0,1,1-.249,3.052c-1.322-.391-1.208-2.751.249-3.052" transform="translate(-219.106 -76.698)" fill="#5d0b80"/>
            <path id="Trazado_1266590" data-name="Trazado 1266590" d="M162.185,115.012c2.617-.8,3.179,2.429,1.291,3-2.076.627-2.919-2.5-1.291-3" transform="translate(-122.283 -87.08)" fill="#5d0b80"/>
            <path id="Trazado_1266591" data-name="Trazado 1266591" d="M122.083,135.047c2.913-.895,3.11,3.648.253,3.056-1.528-.316-1.426-2.7-.253-3.056" transform="translate(-91.863 -102.273)" fill="#5d0b80"/>
            <path id="Trazado_1266592" data-name="Trazado 1266592" d="M14.945,202.095a1.632,1.632,0,1,1,.2,3.1c-1.463-.248-1.509-2.717-.2-3.1" transform="translate(-10.615 -153.105)" fill="#5d0b80"/>
            <path id="Trazado_1266593" data-name="Trazado 1266593" d="M209.185,209.012c2.617-.8,3.179,2.429,1.291,3-2.076.627-2.919-2.5-1.291-3" transform="translate(-157.908 -158.329)" fill="#5d0b80"/>
            <path id="Trazado_1266594" data-name="Trazado 1266594" d="M289.991,209.074a1.619,1.619,0,1,1,.249,3.052c-1.457-.3-1.57-2.661-.249-3.052" transform="translate(-219.106 -158.385)" fill="#5d0b80"/>
            <path id="Trazado_1266595" data-name="Trazado 1266595" d="M2.889,292.074c-1.022,1.03-3.55-.081-2.725-1.876,1.084-2.359,4.482.1,2.725,1.876" transform="translate(-0.001 -219.226)" fill="#5d0b80"/>
            <path id="Trazado_1266596" data-name="Trazado 1266596" d="M15.123,101.273c2.011-.415,2.63,2.588,1.107,3.056-2.495.767-3.139-2.636-1.107-3.056" transform="translate(-10.549 -76.732)" fill="#5d0b80"/>
          </g>
        </g>
      </g>
    </g>
  </g>
</svg>
