<svg xmlns="http://www.w3.org/2000/svg" xmlns:xlink="http://www.w3.org/1999/xlink" width="160.5" height="160.501" viewBox="0 0 160.5 160.501">
  <defs>
    <clipPath id="clip-path">
      <rect id="Rectángulo_455261" data-name="Rectángulo 455261" width="38.951" height="37.623" fill="#e6fffa"/>
    </clipPath>
    <clipPath id="clip-path-2">
      <rect id="Rectángulo_458404" data-name="Rectángulo 458404" width="87.654" height="86.774" fill="#5d0b80"/>
    </clipPath>
  </defs>
  <g id="Grupo_1206980" data-name="Grupo 1206980" transform="translate(-307.436 -10011.92)">
    <path id="Sustracción_130" data-name="Sustracción 130" d="M26.051,25.795H0V11.245H11.352V0h14.7V25.795Z" transform="translate(441.641 10038.471) rotate(-90)" fill="#e3a4fe" stroke="rgba(0,0,0,0)" stroke-miterlimit="10" stroke-width="1"/>
    <g id="Grupo_1178100" data-name="Grupo 1178100" transform="translate(307.436 10172.421) rotate(-90)">
      <path id="Trazado_998183" data-name="Trazado 998183" d="M0,0V37.623H25.58V24.056H38.951V0Z" transform="translate(0 0)" fill="#5d0b80"/>
      <g id="Grupo_1178099" data-name="Grupo 1178099" transform="translate(0 0)">
        <g id="Grupo_1178098" data-name="Grupo 1178098" clip-path="url(#clip-path)">
          <path id="Trazado_998184" data-name="Trazado 998184" d="M0,9.021a9.025,9.025,0,1,1,9.025,9.021A9.023,9.023,0,0,1,0,9.021" transform="translate(4.434 5.629)" fill="#e3a4fe"/>
        </g>
      </g>
    </g>
    <g id="Grupo_1177470" data-name="Grupo 1177470" transform="translate(308.059 10012.421)">
      <circle id="Elipse_13609" data-name="Elipse 13609" cx="79.688" cy="79.688" r="79.688" fill="#f0d5fe"/>
      <g id="Grupo_1099776" data-name="Grupo 1099776" transform="translate(33.723 33.96)">
        <g id="Grupo_1099618" data-name="Grupo 1099618" transform="translate(0.365 -0.121)">
          <rect id="Rectángulo_401104" data-name="Rectángulo 401104" width="90.569" height="91.661" transform="translate(0)" fill="none"/>
        </g>
        <g id="Grupo_1207584" data-name="Grupo 1207584" transform="translate(1.366 2.879)">
          <g id="Grupo_1207583" data-name="Grupo 1207583" clip-path="url(#clip-path-2)">
            <path id="Trazado_1266581" data-name="Trazado 1266581" d="M63.41,19.607l18.267.059c3.675,1.012,5.328,3.829,5.584,7.489-.971,16.946,1.253,35.27,0,52.055-.354,4.742-3.03,7.4-7.815,7.564l-71.536,0c-4.884-.364-7.252-3-7.564-7.815-1.1-16.92.854-35.012,0-52.055.282-3.587,2.182-6.446,5.8-7.273L24.2,19.607a19.607,19.607,0,1,1,39.215,0M42.853,2.767c-13.576.9-21.23,17.163-11.361,27.355L43.8,41.389,56.113,30.122C66.575,19.544,57.228,1.809,42.853,2.767M62.77,25.245H80.713a6.638,6.638,0,0,1,.764.774l.02,54.094a1.675,1.675,0,0,1-1.8,1.022H7.906a1.674,1.674,0,0,1-1.8-1.022l.02-54.094a6.639,6.639,0,0,1,.764-.774H24.835l.282-.53-.637-2.141L6.658,22.448c-2.365.44-3.476,2.434-3.494,4.709.232,17.91-.413,35.937.327,53.779a4.526,4.526,0,0,0,4.16,3.017l73.4-.186a4.587,4.587,0,0,0,3.38-4.053c-.213-18.162.427-36.424-.325-54.529a4.1,4.1,0,0,0-3.159-2.737l-17.821.127-.637,2.141Zm-48.317,2.82H8.815v6.921h5.639Zm6.921,0h-4.1v8.587A2.5,2.5,0,0,1,16.12,37.8H8.815v4.1H16.12a2.5,2.5,0,0,1,1.153,1.153V78.3h4.1V66.641c0-1.48,6.044-.716,7.179-.9a10.622,10.622,0,0,1,.511-4.359H22.272a6,6,0,0,1-.9-.9Zm42.037,0c-2.746-.587-2.793,1.184-4.226,2.823-1.75,2-3.921,3.6-5.765,5.508,8.077,7.97-2.009,14.2-10.143,13.981-7.892-.212-16.839-6.508-9.09-13.981-1.816-1.938-4.014-3.5-5.766-5.508-1.432-1.639-1.481-3.409-4.226-2.823v30.5h8.33c.246,0,3.637-1.617,4.541-1.867,4.134-1.139,8.545-.768,12.75-.3l13.6-13.6Zm6.921,0h-4.1V43.572L52.647,57.414,55.726,58.7l7.3-7.057H78.79v-4.1H71.485a2.5,2.5,0,0,1-1.153-1.153Zm8.459,0H73.151V44.725H78.79ZM36.373,38.38c-3.352,2.077-2.932,5.346.3,7.325a14.99,14.99,0,0,0,14.262,0c3.237-1.982,3.645-5.254.3-7.325l-6.646,6.1a1.223,1.223,0,0,1-1.026.252c-1.1-.162-6.654-6.312-7.189-6.354M14.454,44.725H8.815V78.3h5.639Zm64.337,9.74H64.052l-6.236,6.278c.893.789.963,2.232,1.485,3.087.593.97,2.483,2.17,3.212,3.2H78.79ZM40.285,58.894c-3.9.414-12.969,3.679-7.1,8.238,4.567,3.545,15.221,3.494,20.142.706,3.7-2.1,4.242-4.795.261-7.01-3.666-2.04-9.2-2.369-13.305-1.933M60.592,73.561V78.3h5.639V73.561a1.494,1.494,0,0,1,.9-.9H78.79v-2.82h-17.3L58.413,67.03l-1.9,2.209c-.114.647,3.9,3.679,4.082,4.322M57.772,78.3V74.587L54,70.907a29.741,29.741,0,0,0-4.169,1.119,25.359,25.359,0,0,1-17.255-1.975c-.445-.235-1.972-1.488-2.1-1.488h-6.28V78.3Zm21.018-2.82H69.05V78.3h9.74Z" transform="translate(0 0)" fill="#5d0b80"/>
            <path id="Trazado_1266582" data-name="Trazado 1266582" d="M132.133,27.289c13.059-1.882,20.159,14.167,10.186,22.233-10.142,8.2-24.554-2.541-19.47-14.856a13.174,13.174,0,0,1,9.284-7.377m.257,2.82c-11.316,1.76-9.915,20.557,2.984,19.386,12.87-1.168,11.046-21.569-2.984-19.386" transform="translate(-90.576 -20.181)" fill="#5d0b80"/>
            <path id="Trazado_1266583" data-name="Trazado 1266583" d="M151.849,49.49v5.383h5.639v2.82h-5.639v5.639h-2.82V57.693H143.39v-2.82h5.639V49.49Z" transform="translate(-106.636 -36.805)" fill="#5d0b80"/>
          </g>
        </g>
      </g>
    </g>
  </g>
</svg>
