<svg xmlns="http://www.w3.org/2000/svg" xmlns:xlink="http://www.w3.org/1999/xlink" width="84" height="84" viewBox="0 0 84 84">
  <defs>
    <clipPath id="clip-path">
      <rect id="Rectángulo_457634" data-name="Rectángulo 457634" width="66.961" height="68.032" fill="#5d0b80"/>
    </clipPath>
  </defs>
  <g id="Grupo_1206991" data-name="Grupo 1206991" transform="translate(-289.711 -1155.941)">
    <rect id="Rectángulo_455579" data-name="Rectángulo 455579" width="84" height="84" rx="12" transform="translate(289.711 1155.941)" fill="#ffe9a1"/>
    <g id="Grupo_1206770" data-name="Grupo 1206770" transform="translate(298.711 1164.941)">
      <g id="Grupo_1206769" data-name="Grupo 1206769" clip-path="url(#clip-path)">
        <path id="Trazado_1264617" data-name="Trazado 1264617" d="M47.291,30.531V41.9c0,1.249-2.722,1.249-2.722,0V30.531H41.653v31.01c0,.224-.795.875-.875.875H12.3a2.865,2.865,0,0,0,.581,2.239,7.021,7.021,0,0,0,.878.678H44.569V52.987a1.388,1.388,0,0,1,2.71.206c-.341,4.231.5,9.276.016,13.408a1.49,1.49,0,0,1-1.115,1.412l-32.211.02a5.223,5.223,0,0,1-4.4-5.618c-4.935.547-7.365-3.187-6.8-7.777-3.713.643-3.62-3.151,0-2.72V46.667c-3.615.524-3.673-3.26,0-2.72V38.5c-3.694.64-3.694-3.166,0-2.526V30.53c-3.672.519-3.671-3.239,0-2.72l0-5.139c-3.58.142-3.8-3.383,0-2.832-.146-2.457.115-5.026,2.268-6.577a6.968,6.968,0,0,1,2.3-1.006H36.4V4.965C36.4,2.852,39.217.213,41.364.2,47.9.673,55.34-.432,61.774.2a5.571,5.571,0,0,1,4.961,4.76c.708,6.529-.518,14.32-.018,20.982-.2,2.046-2.687,4.585-4.747,4.585ZM34.848,17.7h3.014a3.124,3.124,0,0,1,.884.477c1.454,1.48-1.347,8.6,2.318,9.541l20.527.1a2.531,2.531,0,0,0,2.425-2.241V5.155a2.521,2.521,0,0,0-2.425-2.241c-6.32-.613-13.619.486-20.045,0a2.627,2.627,0,0,0-2.4,2.262c-.342,2.416.252,5.432-.056,7.915Zm-1.361-2.722H7.338a7.164,7.164,0,0,0-.975.581c-1.2,1.09-.825,2.85-.873,4.281,3.829-.64,3.631,3.187,0,2.72V27.81c3.695-.614,3.753,3.373,0,2.721v5.152c.952.7,2.744-.327,2.744,1.555,0,1.62-1.576,1.254-2.744,1.264v5.444c3.752-.652,3.694,3.335,0,2.721v5.251c3.642-.483,3.763,3.355,0,2.72.046,1.455-.32,3.286.844,4.407a5.921,5.921,0,0,0,1.2.649H39.126V29.851c0-.11-1.252-1.029-1.6-1.511A8.162,8.162,0,0,1,36.4,25.768V20.421H31.057a3.243,3.243,0,0,1-.795-.965c-.4-1.284,2.175-2.9,2.935-3.894.15-.2.375-.245.29-.585" transform="translate(0 -0.001)" fill="#5d0b80"/>
        <path id="Trazado_1264618" data-name="Trazado 1264618" d="M230.54,237.087a1.328,1.328,0,1,1,.312,2.634,1.328,1.328,0,0,1-.312-2.634" transform="translate(-184.854 -190.973)" fill="#5d0b80"/>
        <path id="Trazado_1264619" data-name="Trazado 1264619" d="M66.114,111.66c-1.414-.168-4.552,2.589-5.455,1.082-1.105-1.844,2.15-2.994,3.47-3.358a12.135,12.135,0,0,1,13.683,17.96c-4.994,8.351-17.761,7.453-21.454-1.553-.489-1.193-1.834-4.794.179-5.157,1.638-.3,1.452,1.45,1.693,2.313a7.884,7.884,0,0,0,1.76,3.68l6.124-6.121Zm2.722,0v9.624l-.5.861-6.5,6.527a9.5,9.5,0,0,0,14.537-10.845,9.636,9.636,0,0,0-7.539-6.168" transform="translate(-44.68 -87.74)" fill="#5d0b80"/>
        <path id="Trazado_1264620" data-name="Trazado 1264620" d="M150.184,250.084a1.346,1.346,0,0,1,1.218,2.208,80.591,80.591,0,0,1-5.842,5.821,1.3,1.3,0,0,1-1.828-1.828,66.107,66.107,0,0,1,5.721-5.748,1.812,1.812,0,0,1,.731-.453" transform="translate(-115.581 -201.443)" fill="#5d0b80"/>
        <path id="Trazado_1264621" data-name="Trazado 1264621" d="M61,142.16a1.375,1.375,0,0,1,1.887-1.986c1.3,1.121-.642,3.326-1.887,1.986" transform="translate(-48.852 -112.65)" fill="#5d0b80"/>
        <path id="Trazado_1264622" data-name="Trazado 1264622" d="M146.426,252.319a1.333,1.333,0,0,1-2.1-1.612c1.023-1.712,3.458.262,2.1,1.612" transform="translate(-116.103 -201.428)" fill="#5d0b80"/>
        <path id="Trazado_1264623" data-name="Trazado 1264623" d="M174.22,279.5c1.079,1.142-.9,3.149-1.984,1.887a1.369,1.369,0,0,1,1.984-1.887" transform="translate(-138.45 -224.813)" fill="#5d0b80"/>
        <path id="Trazado_1264624" data-name="Trazado 1264624" d="M218.634,40.258a13.385,13.385,0,0,1,10.533,4.321c1.751,2.022,1.809,2.536.105,4.565a13.146,13.146,0,0,1-19.133.658c-1.736-1.749-2.472-2.72-.793-4.836a13.262,13.262,0,0,1,9.288-4.708m-3.266,9.855L214.2,46.9l.688-3c-1.3.857-2.793,1.61-3.6,3.012.083.784,3.8,3.5,4.089,3.207m7.972,0c.344.285,4.141-2.329,4.23-3.209a18.424,18.424,0,0,0-1.8-1.84c-.132-.107-2.188-1.546-2.036-1.075a5.189,5.189,0,0,1-.39,6.124m-5.767-1.619c2.122,2.222,5.921-.866,3.711-3.419-2.151-2.486-5.983,1.041-3.711,3.419" transform="translate(-167.882 -32.415)" fill="#5d0b80"/>
      </g>
    </g>
  </g>
</svg>
